<?xml version="1.0" standalone="no"?>
<!DOCTYPE svg PUBLIC "-//W3C//DTD SVG 1.1//EN" "http://www.w3.org/Graphics/SVG/1.1/DTD/svg11.dtd" >
<svg xmlns="http://www.w3.org/2000/svg">
<metadata>
Created by FontPrep 20130207 at Thu May 14 18:46:47 2015
 By Tom Galle
Copyright (c) 2009 by The Entente (AS &#38; EH). All rights reserved. wf-rip
</metadata>
<defs>
<font id="e84b7a8b5afb81f260ea81bfcd555715" horiz-adv-x='1024' >
  <font-face 
    font-family="Apercu-Light"
    font-weight="300"
    font-stretch="normal"
    units-per-em="2048"
    panose-1="2 0 5 6 3 0 0 2 0 4"
    ascent="1638"
    descent="-410"
    x-height="1032"
    cap-height="1434"
    bbox="-152 -469 4909 1939"
    underline-thickness="102"
    underline-position="-102"
    unicode-range="U+0020-FB02"
  />
<missing-glyph horiz-adv-x="1267" 
d="M930 119v1196h-592v-1196h592zM1061 0h-854v1434h854v-1434z" />
    <glyph glyph-name="uniFB01" unicode="fi" horiz-adv-x="1101" 
d="M266 913h-164v119h164v33q0 177 116 281t286 104q129 0 225 -59l-27 -117q-100 57 -214 57q-114 -1 -186 -69t-73 -177v-53h541v-1032h-127v913h-414v-913h-127v913z" />
    <glyph glyph-name="uniFB02" unicode="fl" horiz-adv-x="1189" 
d="M262 913h-160v119h160v66q0 352 320 352h428v-1450h-127v1331h-312q-182 0 -182 -213v-86h250v-119h-250v-913h-127v913z" />
    <glyph glyph-name=".notdef" horiz-adv-x="1267" 
d="M930 119v1196h-592v-1196h592zM1061 0h-854v1434h854v-1434z" />
    <glyph glyph-name=".null" horiz-adv-x="0" 
 />
    <glyph glyph-name="nonmarkingreturn" horiz-adv-x="681" 
 />
    <glyph glyph-name="space" unicode=" " horiz-adv-x="516" 
 />
    <glyph glyph-name="exclam" unicode="!" horiz-adv-x="665" 
d="M225 109q0 49 32 81t81 31q49 0 81 -32q32 -33 32 -81t-32 -80t-81 -32t-82 31q-31 33 -31 82zM297 377l-45 1057h172l-45 -1057h-82z" />
    <glyph glyph-name="quotedbl" unicode="&#x22;" horiz-adv-x="856" 
d="M627 983h-97l-43 467h183zM326 983h-97l-43 467h183z" />
    <glyph glyph-name="numbersign" unicode="#" horiz-adv-x="1468" 
d="M932 885h-328l-67 -336h327zM240 885v110h274l88 439h115l-88 -439h325l90 439h115l-90 -439h242v-110h-264l-68 -336h250v-111h-275l-88 -438h-114l88 438h-326l-90 -438h-115l90 438h-241v111h264l67 336h-249z" />
    <glyph glyph-name="dollar" unicode="$" horiz-adv-x="1036" 
d="M508 1323q-90 0 -144 -61t-55 -148q0 -166 221 -268q74 -33 178 -84t164 -142q61 -91 62 -217q0 -171 -96 -285t-252 -134v-168h-123v168q-147 18 -246 121q-98 103 -131 266l117 69q47 -164 120 -246t199 -83t198 75q73 76 73 213q0 174 -220 277q-195 90 -266 147
q-135 113 -134 265t84 247q83 96 206 111v172h123v-174q98 -12 156 -62t114 -153l-111 -70q-86 164 -237 164z" />
    <glyph glyph-name="percent" unicode="%" horiz-adv-x="1728" 
d="M266 18l1110 1465l86 -68l-1110 -1464zM1280 528q-97 0 -154 -60t-57 -156t57 -157q58 -61 154 -61t154 60t57 157q0 97 -57 157t-154 60zM1280 639q139 0 230 -95q92 -96 92 -234t-93 -232q-88 -94 -228 -94t-232 94q-91 96 -91 232t91 233q92 96 231 96zM659 1122
q0 96 -57 156q-58 60 -154 61q-96 0 -153 -60q-57 -61 -57 -157t57 -156t153 -60t154 60q57 60 57 156zM127 1121q0 136 90 233q91 96 231 96t231 -96t91 -234t-90 -231q-90 -94 -230 -94t-233 94q-90 96 -90 232z" />
    <glyph glyph-name="ampersand" unicode="&#x26;" horiz-adv-x="1345" 
d="M622 1339q-88 0 -136 -53t-48 -148t119 -247q133 66 192 125q58 59 58 139t-49 132t-136 52zM580 102q195 0 317 164l-377 482q-231 -127 -231 -355q0 -131 81 -211t210 -80zM580 -16q-190 0 -305 110q-114 111 -113 303q0 152 79 265t205 178q-135 184 -135 314t88 213
q87 83 225 83t224 -79t86 -208q0 -209 -303 -364l334 -428q51 98 108 262l88 -103q-57 -158 -117 -262l211 -268h-147l-133 168q-151 -184 -395 -184z" />
    <glyph glyph-name="quotesingle" unicode="'" horiz-adv-x="555" 
d="M326 983h-97l-43 467h183z" />
    <glyph glyph-name="parenleft" unicode="(" horiz-adv-x="575" 
d="M287 717q0 -467 217 -819h-135q-223 360 -224 819q1 459 224 819h135q-217 -352 -217 -819z" />
    <glyph glyph-name="parenright" unicode=")" horiz-adv-x="575" 
d="M430 717q0 -459 -223 -819h-135q217 352 217 819t-217 819h135q223 -360 223 -819z" />
    <glyph glyph-name="asterisk" unicode="*" horiz-adv-x="1007" 
d="M446 1450h115v-299l285 94l37 -110l-285 -97l176 -237l-94 -70l-176 240l-176 -240l-95 70l177 237l-285 97l37 110l284 -94v299z" />
    <glyph glyph-name="plus" unicode="+" horiz-adv-x="1116" 
d="M618 705h363v-115h-363v-363h-114v363h-363v115h363v360h114v-360z" />
    <glyph glyph-name="comma" unicode="," horiz-adv-x="571" 
d="M229 -158h-94l103 338h188z" />
    <glyph glyph-name="hyphen" unicode="-" horiz-adv-x="964" 
d="M819 592h-674v115h674v-115z" />
    <glyph glyph-name="period" unicode="." horiz-adv-x="581" 
d="M291 -4q-45 0 -75 28t-30 75q0 46 30 76t75 30t75 -30t30 -75q0 -44 -30 -74t-75 -30z" />
    <glyph glyph-name="slash" unicode="/" horiz-adv-x="1079" 
d="M35 -102l893 1638h135l-893 -1638h-135z" />
    <glyph glyph-name="zero" unicode="0" horiz-adv-x="1261" 
d="M631 1335q-170 0 -266 -170q-97 -171 -97 -449t96 -448t267 -170q170 0 266 170t96 448t-96 449q-96 170 -266 170zM137 718q0 338 125 535t368 197q242 0 368 -199t126 -535t-126 -534t-368 -198t-368 196q-125 200 -125 538z" />
    <glyph glyph-name="one" unicode="1" horiz-adv-x="708" 
d="M510 1434v-1434h-127v1217l-238 -150v156l332 211h33z" />
    <glyph glyph-name="two" unicode="2" horiz-adv-x="1165" 
d="M1001 0h-847v47l522 676q100 127 130 193t30 172t-68 177t-182 71t-189 -81q-76 -80 -94 -208l-119 22q14 164 122 272q108 109 280 109q170 0 275 -102t105 -272t-173 -394l-439 -567h647v-115z" />
    <glyph glyph-name="three" unicode="3" horiz-adv-x="1173" 
d="M580 98q144 0 227 90q84 90 84 253t-84 251t-238 88q-70 0 -127 -37l-61 80l371 496h-551v115h749v-35l-387 -514q18 6 53 6q166 0 286 -122t120 -329t-123 -331q-119 -125 -315 -125t-315 110q-120 110 -140 299l127 19q16 -146 98 -230t226 -84z" />
    <glyph glyph-name="four" unicode="4" horiz-adv-x="1191" 
d="M754 444v809l-453 -809h453zM881 0h-127v330h-633v35l604 1069h156v-990h190v-114h-190v-330z" />
    <glyph glyph-name="five" unicode="5" horiz-adv-x="1153" 
d="M567 98q152 0 232 98t80 274q0 177 -81 271t-231 95q-182 0 -295 -193l-90 21l74 770h670v-115h-555l-52 -488q111 119 261 119q198 0 314 -130t116 -350t-120 -353t-308 -133t-300 100q-110 100 -135 293l125 22q39 -301 295 -301z" />
    <glyph glyph-name="six" unicode="6" horiz-adv-x="1175" 
d="M291 454q0 -157 88 -256q88 -100 225 -100t227 100q91 100 91 257q0 156 -87 252t-229 96t-228 -96q-87 -96 -87 -253zM606 918q197 0 322 -136q125 -132 125 -332t-126 -333t-321 -133t-321 133q-125 133 -125 334q0 131 76 264l423 735h134l-320 -567q47 35 133 35z
" />
    <glyph glyph-name="seven" unicode="7" horiz-adv-x="978" 
d="M121 1319v115h794v-41l-567 -1393h-133l549 1319h-643z" />
    <glyph glyph-name="eight" unicode="8" horiz-adv-x="1183" 
d="M338 1076q0 -118 70 -188t184 -69q114 0 184 70q70 69 70 187t-71 189t-183 71t-184 -72q-70 -70 -70 -188zM592 98q137 0 218 81t81 221t-81 222t-218 83q-137 0 -218 -82q-81 -81 -81 -221t81 -222t218 -82zM973 1077q0 -102 -49 -182t-131 -123q101 -37 165 -139
t64 -232q0 -197 -124 -307t-306 -110t-307 110q-123 111 -123 307q0 129 64 232q65 102 165 139q-82 43 -131 123t-49 182q0 169 105 271q106 102 276 102t274 -104q107 -101 107 -269z" />
    <glyph glyph-name="nine" unicode="9" horiz-adv-x="1161" 
d="M907 979q0 156 -89 256t-227 100t-226 -98q-89 -98 -89 -256t88 -254t228 -96q141 0 228 96t87 252zM592 516q-195 0 -322 133q-125 133 -125 334t125 334t321 133q195 0 321 -133t126 -334q0 -131 -75 -264l-424 -735h-133l319 567q-47 -35 -133 -35z" />
    <glyph glyph-name="colon" unicode=":" horiz-adv-x="610" 
d="M201 860q-1 58 65 86t114 -21q48 -48 20 -114t-85 -66q-114 -1 -114 115zM201 110q0 58 65 86q66 28 113 -22q49 -47 21 -113t-95 -65q-47 0 -75 28t-29 86z" />
    <glyph glyph-name="semicolon" unicode=";" horiz-adv-x="610" 
d="M219 -158h-94l102 338h189zM201 860q-1 58 65 86t114 -21q48 -48 20 -114t-85 -66q-114 -1 -114 115z" />
    <glyph glyph-name="less" unicode="&#x3c;" horiz-adv-x="925" 
d="M799 197l-684 368v140l684 368v-127l-580 -311l580 -311v-127z" />
    <glyph glyph-name="equal" unicode="=" horiz-adv-x="1210" 
d="M1001 408h-792v114h792v-114zM1001 748h-792v114h792v-114z" />
    <glyph glyph-name="greater" unicode="&#x3e;" horiz-adv-x="925" 
d="M127 1073l684 -368v-140l-684 -368v127l580 311l-580 311v127z" />
    <glyph glyph-name="question" unicode="?" horiz-adv-x="897" 
d="M463 403q-111 0 -183 66t-71 182q0 164 180 262l168 93q107 57 107 145t-52 134t-149 46q-180 0 -232 -209l-129 23q25 145 122 225q96 80 244 80t238 -80t89 -207q0 -160 -179 -254l-147 -80q-73 -39 -103 -79t-30 -100t33 -94t90 -34q119 0 162 135l102 -39
q-59 -215 -260 -215zM354 109q0 49 32 81t81 31q49 0 81 -32q32 -33 32 -81t-32 -80t-81 -32t-82 31q-31 33 -31 82z" />
    <glyph glyph-name="at" unicode="@" horiz-adv-x="1765" 
d="M598 610q0 -274 233 -274q115 0 188 102t73 234t-58 200q-58 70 -172 70t-188 -97q-76 -97 -76 -235zM1202 453q0 -117 113 -117q100 0 154 102t55 283q0 301 -163 468t-440 167t-476 -192q-95 -91 -151 -233t-56 -315q0 -324 186 -509t477 -185q137 0 252 32t252 109
l45 -102q-158 -84 -279 -119t-270 -35q-348 1 -572 219t-225 590q0 203 68 371t184 273q236 210 562 210t533 -194q206 -194 206 -555q0 -242 -96 -371t-254 -129q-84 0 -144 45q-59 45 -78 115q-104 -160 -272 -160q-168 -1 -259 103t-91 290t119 314q119 129 295 129
t239 -129l29 114h110l-49 -542l-2 -26l-2 -15v-6z" />
    <glyph glyph-name="A" unicode="A" horiz-adv-x="1196" 
d="M850 535l-252 714l-252 -714h504zM20 0l519 1434h118l519 -1434h-140l-143 408h-590l-143 -408h-140z" />
    <glyph glyph-name="B" unicode="B" horiz-adv-x="1261" 
d="M668 1307h-326v-480h326q260 0 260 240t-260 240zM674 700h-332v-573h332q164 0 245 68q81 67 81 219t-81 219t-245 67zM207 0v1434h461q188 0 294 -98t105 -271q0 -90 -52 -169t-128 -112q254 -94 254 -370q0 -188 -119 -301t-322 -113h-493z" />
    <glyph glyph-name="C" unicode="C" horiz-adv-x="1392" 
d="M121 717q0 176 52 320t144 233q186 180 437 180q201 0 343 -109t197 -301l-133 -39q-41 156 -145 239t-262 83q-220 0 -356 -160q-136 -161 -136 -447t135 -446t357 -159q158 1 262 83t145 238l133 -39q-55 -193 -197 -301t-343 -108q-262 0 -449 190q-184 190 -184 543z
" />
    <glyph glyph-name="D" unicode="D" horiz-adv-x="1355" 
d="M586 1307h-244v-1180h244q217 -1 362 149t146 441q0 291 -148 440q-143 150 -360 150zM207 0v1434h377q283 0 467 -195t184 -525t-184 -522t-467 -192h-377z" />
    <glyph glyph-name="E" unicode="E" horiz-adv-x="1163" 
d="M207 0v1434h809v-127h-674v-480h551v-127h-551v-573h694v-127h-829z" />
    <glyph glyph-name="F" unicode="F" horiz-adv-x="1153" 
d="M207 0v1434h823v-127h-688v-496h565v-127h-565v-684h-135z" />
    <glyph glyph-name="G" unicode="G" horiz-adv-x="1449" 
d="M1311 0h-119l-16 221q-57 -111 -171 -174t-255 -63q-260 0 -445 192q-184 193 -184 541q0 349 184 541t445 192q209 0 354 -111t199 -307l-134 -37q-49 158 -156 243q-108 85 -263 85q-219 0 -355 -160q-133 -163 -133 -447t133 -446q135 -160 347 -160t322 124t112 362
h-332v127h467v-723z" />
    <glyph glyph-name="H" unicode="H" horiz-adv-x="1413" 
d="M1071 825v609h135v-1434h-135v698h-729v-698h-135v1434h135v-609h729z" />
    <glyph glyph-name="I" unicode="I" horiz-adv-x="548" 
d="M207 1434h135v-1434h-135v1434z" />
    <glyph glyph-name="J" unicode="J" horiz-adv-x="1017" 
d="M705 406v1028h135v-1014q0 -205 -119 -321q-119 -115 -293 -115t-275 106t-122 260l139 31q39 -270 266 -270q123 0 196 76t73 219z" />
    <glyph glyph-name="K" unicode="K" horiz-adv-x="1157" 
d="M342 0h-135v1434h135v-613l559 613h172l-588 -643l639 -791h-166l-616 760v-760z" />
    <glyph glyph-name="L" unicode="L" horiz-adv-x="1054" 
d="M207 0v1434h135v-1307h672v-127h-807z" />
    <glyph glyph-name="M" unicode="M" horiz-adv-x="1601" 
d="M207 0v1434h168l426 -1080l426 1080h168v-1434h-135v1171l-416 -1040h-86l-416 1040v-1171h-135z" />
    <glyph glyph-name="N" unicode="N" horiz-adv-x="1419" 
d="M1077 1434h135v-1434h-159l-711 1214v-1214h-135v1434h160l710 -1219v1219z" />
    <glyph glyph-name="O" unicode="O" horiz-adv-x="1499" 
d="M1237 718q0 288 -139 446q-139 159 -350 159q-210 0 -348 -158q-138 -159 -138 -449t138 -448t348 -158t350 158q139 162 139 450zM121 718q0 328 183 530q182 202 446 202t444 -203q184 -199 184 -529t-183 -533q-183 -201 -445 -201t-447 200q-182 206 -182 534z" />
    <glyph glyph-name="P" unicode="P" horiz-adv-x="1183" 
d="M342 770h354q135 0 203 71t68 197t-68 198q-68 71 -203 71h-354v-537zM694 643h-352v-643h-135v1434h487q194 0 304 -106t110 -290t-110 -290t-304 -105z" />
    <glyph glyph-name="Q" unicode="Q" horiz-adv-x="1499" 
d="M1237 736q0 270 -139 428t-350 159q-210 0 -348 -158q-138 -159 -138 -449t138 -448t350 -157q165 0 286 96l-151 153l92 93l147 -150q113 163 113 433zM1378 730q0 -320 -161 -519l137 -135l-92 -92l-136 135q-164 -135 -376 -135q-262 0 -447 200q-182 205 -182 534
q0 328 183 530q182 202 446 202t444 -203q184 -197 184 -517z" />
    <glyph glyph-name="R" unicode="R" horiz-adv-x="1302" 
d="M659 1307h-317v-471h317q281 0 281 236t-281 235zM342 709v-709h-135v1434h461q197 0 303 -92t106 -259q0 -166 -82 -257t-231 -111l446 -715h-151l-449 709h-268z" />
    <glyph glyph-name="S" unicode="S" horiz-adv-x="1036" 
d="M508 1323q-90 0 -144 -61t-55 -148q0 -166 221 -268q74 -33 178 -84t164 -142q61 -91 62 -217q0 -190 -116 -305q-116 -114 -290 -114t-290 104t-152 283l117 69q47 -164 120 -246t199 -83t198 75q73 76 73 213q0 174 -220 277q-195 90 -266 147q-135 113 -134 271
t97 258q98 98 238 98q100 0 168 -32t100 -68t80 -121l-111 -70q-86 164 -237 164z" />
    <glyph glyph-name="T" unicode="T" horiz-adv-x="1056" 
d="M461 1307h-428v127h991v-127h-428v-1307h-135v1307z" />
    <glyph glyph-name="U" unicode="U" horiz-adv-x="1339" 
d="M178 459v975h135v-988q1 -147 95 -241t262 -94t262 94t94 241v988h135v-975q0 -225 -141 -350t-349 -125t-352 125q-141 125 -141 350z" />
    <glyph glyph-name="V" unicode="V" horiz-adv-x="1175" 
d="M588 193l434 1241h139l-502 -1434h-143l-502 1434h140z" />
    <glyph glyph-name="W" unicode="W" horiz-adv-x="1841" 
d="M1311 209l325 1225h140l-394 -1434h-137l-325 1073l-324 -1073h-137l-393 1434h139l325 -1225l330 1073h121z" />
    <glyph glyph-name="X" unicode="X" 
d="M580 911l307 523h141l-379 -643l467 -791h-141l-395 672l-396 -672h-141l467 791l-379 643h141z" />
    <glyph glyph-name="Y" unicode="Y" horiz-adv-x="1024" 
d="M444 0v623l-432 811h158l342 -678l342 678h158l-432 -811v-623h-136z" />
    <glyph glyph-name="Z" unicode="Z" horiz-adv-x="1122" 
d="M123 1307v127h876v-66l-712 -1241h727v-127h-916v66l721 1241h-696z" />
    <glyph glyph-name="bracketleft" unicode="[" horiz-adv-x="659" 
d="M573 -102h-366v1638h366v-115h-243v-1409h243v-114z" />
    <glyph glyph-name="backslash" unicode="\" horiz-adv-x="1079" 
d="M909 -102l-893 1638h136l892 -1638h-135z" />
    <glyph glyph-name="bracketright" unicode="]" horiz-adv-x="659" 
d="M86 1536h367v-1638h-367v114h244v1409h-244v115z" />
    <glyph glyph-name="asciicircum" unicode="^" horiz-adv-x="1064" 
d="M106 879l377 555h99l376 -555h-141l-285 436l-284 -436h-142z" />
    <glyph glyph-name="underscore" unicode="_" horiz-adv-x="972" 
d="M905 -115h-837v115h837v-115z" />
    <glyph glyph-name="grave" unicode="`" horiz-adv-x="428" 
d="M43 1434h190l144 -287h-101z" />
    <glyph glyph-name="a" unicode="a" horiz-adv-x="1036" 
d="M891 684v-684h-96l-31 160q-102 -176 -326 -176q-147 0 -234 80t-87 239q0 160 125 246t350 86h172v45q0 250 -238 250q-188 0 -245 -193l-123 29q20 127 122 205t254 78q150 0 252 -99q105 -94 105 -266zM596 516q-170 0 -258 -56t-88 -156q0 -99 53 -150
q53 -52 160 -52t204 92t97 283v39h-168z" />
    <glyph glyph-name="b" unicode="b" horiz-adv-x="1224" 
d="M977 514q0 184 -89 300t-245 116t-244 -117t-88 -300t88 -297t245 -114t245 114t88 298zM197 0v1450h131v-563q55 72 145 117t176 45q217 0 339 -152t122 -383t-121 -381t-340 -149q-96 0 -187 44t-134 107v-135h-131z" />
    <glyph glyph-name="c" unicode="c" horiz-adv-x="1081" 
d="M115 515q0 218 121 376t335 158q309 0 416 -285l-115 -45q-86 211 -301 211q-160 0 -241 -119q-82 -115 -82 -294t82 -298q84 -117 241 -117q215 0 301 211l115 -45q-106 -285 -416 -284q-217 0 -337 156t-119 375z" />
    <glyph glyph-name="d" unicode="d" horiz-adv-x="1224" 
d="M581 102q157 0 245 114t87 298q0 184 -87 300q-88 116 -244 116t-245 -116t-89 -300t88 -298t245 -114zM897 1450h131v-1450h-131v135q-43 -63 -134 -107t-188 -44q-217 0 -339 149q-121 152 -121 382t121 382q123 152 339 152q87 0 177 -45t145 -117v563z" />
    <glyph glyph-name="e" unicode="e" horiz-adv-x="1130" 
d="M579 930q-129 0 -213 -81t-110 -214h639q-18 139 -102 217q-85 78 -214 78zM1026 573v-57h-778q0 -186 88 -300t237 -114q117 0 189 52t129 170l113 -56q-78 -152 -180 -218t-251 -66q-207 0 -333 150t-125 381q0 230 127 382q128 152 330 152q202 -1 328 -133t126 -343z
" />
    <glyph glyph-name="f" unicode="f" horiz-adv-x="735" 
d="M266 913h-164v119h164v66q0 352 320 352q76 0 123 -27l-27 -116q-51 25 -107 24q-182 0 -182 -213v-86h250v-119h-250v-913h-127v913z" />
    <glyph glyph-name="g" unicode="g" horiz-adv-x="1005" 
d="M536 467q96 1 160 65t64 170t-64 170t-160 65q-96 0 -159 -63t-63 -172t62 -172q64 -63 160 -63zM639 82h-211q-55 0 -100 6q-92 -58 -92 -174q0 -232 303 -233q143 0 222 61t79 164q0 176 -201 176zM186 714q0 144 102 239t249 96q94 0 178 -48l184 105l59 -109
l-143 -79q72 -94 72 -216q-1 -158 -101 -252t-230 -94t-212 50q-84 -37 -84 -115q0 -98 127 -98h266q145 0 227 -69t83 -202q0 -178 -113 -267q-112 -89 -310 -89t-313 90t-115 238t107 229q-82 49 -82 168q0 59 35 108t92 76q-78 95 -78 239z" />
    <glyph glyph-name="h" unicode="h" horiz-adv-x="1198" 
d="M1014 709v-709h-127v692q1 113 -55 175t-160 63q-148 0 -248 -134t-100 -356v-440h-127v1450h127v-643q49 115 150 178q102 63 236 63t219 -88q85 -89 85 -251z" />
    <glyph glyph-name="i" unicode="i" horiz-adv-x="573" 
d="M225 0v1032h127v-1032h-127zM184 1329q0 45 30 75t75 30t73 -31q31 -29 31 -74t-30 -75q-31 -30 -75 -30t-75 29q-29 31 -29 76z" />
    <glyph glyph-name="j" unicode="j" horiz-adv-x="573" 
d="M184 1329q0 45 30 75t75 30t73 -31q31 -29 31 -74t-30 -75q-31 -30 -75 -30t-75 29q-29 31 -29 76zM225 -113v1145h127v-1163q0 -262 -256 -303l-28 119q86 25 122 69t35 133z" />
    <glyph glyph-name="k" unicode="k" horiz-adv-x="987" 
d="M197 0v1450h127v-875l432 457h159l-446 -473l483 -559h-161l-467 543v-543h-127z" />
    <glyph glyph-name="l" unicode="l" horiz-adv-x="499" 
d="M193 0v1450h126v-1450h-126z" />
    <glyph glyph-name="m" unicode="m" horiz-adv-x="1744" 
d="M1561 709v-709h-127v692q0 125 -42 181t-143 57q-131 0 -219 -131t-88 -346v-453h-127v692q0 125 -42 181t-142 57q-131 0 -219 -131t-88 -346v-453h-127v1032h127v-215q49 109 135 170t192 62q236 0 281 -230q55 101 146 165t192 65q150 0 220 -84t71 -256z" />
    <glyph glyph-name="n" unicode="n" horiz-adv-x="1179" 
d="M995 709v-709h-127v692q0 238 -211 238q-145 0 -239 -131t-94 -346v-453h-127v1032h127v-215q55 107 150 169t223 62t213 -89q85 -90 85 -250z" />
    <glyph glyph-name="o" unicode="o" horiz-adv-x="1196" 
d="M248 516q0 -168 93 -291t257 -123t257 122t93 292t-93 292t-257 122t-257 -123t-93 -291zM115 516q0 211 133 372t350 161t350 -161t133 -372t-133 -372t-350 -161t-350 161t-133 372z" />
    <glyph glyph-name="p" unicode="p" horiz-adv-x="1224" 
d="M643 102q156 0 245 116t89 300t-88 298t-245 114t-245 -114t-88 -297t88 -300t244 -117zM328 -418h-131v1450h131v-135q43 63 134 107t187 45q217 0 339 -152t122 -383t-121 -381t-340 -149q-86 0 -176 44t-145 117v-563z" />
    <glyph glyph-name="q" unicode="q" horiz-adv-x="1224" 
d="M248 518q0 -184 89 -300t246 -116t242 117q88 115 88 299t-88 298q-89 114 -245 114t-244 -114t-88 -298zM1028 1032v-1450h-131v563q-55 -73 -145 -117t-177 -44q-217 0 -339 149q-121 152 -121 382t121 382q123 152 339 152q95 0 187 -44t135 -108v135h131z" />
    <glyph glyph-name="r" unicode="r" horiz-adv-x="817" 
d="M608 930q-127 0 -206 -142t-78 -389v-399h-127v1032h127v-184q96 201 303 201q67 0 155 -35l-28 -121q-68 37 -146 37z" />
    <glyph glyph-name="s" unicode="s" horiz-adv-x="921" 
d="M471 1049q172 0 287 -160l-90 -78q-88 119 -203 119q-68 0 -110 -43t-42 -113q0 -100 172 -170q76 -31 113 -48t94 -54q111 -72 111 -209t-86 -223q-85 -86 -231 -86t-241 78t-134 204l112 60q41 -113 101 -168q60 -56 154 -56q96 0 144 50t48 135q0 119 -172 180
q-164 66 -217 106q-98 76 -99 199q0 123 82 200t207 77z" />
    <glyph glyph-name="t" unicode="t" horiz-adv-x="759" 
d="M238 913h-183v119h183v334l131 84v-418h274v-119h-274v-641q0 -170 143 -170q78 0 129 33l35 -115q-68 -36 -184 -36t-186 78q-69 78 -68 231v620z" />
    <glyph glyph-name="u" unicode="u" horiz-adv-x="1179" 
d="M184 324v708h127v-692q0 -238 211 -238q142 0 238 132t96 346v452h127v-1032h-127v215q-55 -107 -150 -169t-204 -62q-147 0 -233 90q-85 90 -85 250z" />
    <glyph glyph-name="v" unicode="v" horiz-adv-x="917" 
d="M459 170l284 862h134l-349 -1032h-139l-348 1032h133z" />
    <glyph glyph-name="w" unicode="w" horiz-adv-x="1470" 
d="M1016 180l241 852h134l-310 -1032h-131l-215 844l-215 -844h-131l-309 1032h133l242 -852l217 852h127z" />
    <glyph glyph-name="x" unicode="x" horiz-adv-x="913" 
d="M387 563l-291 469h142l219 -356l219 356h141l-291 -469l348 -563h-133l-284 451l-285 -451h-133z" />
    <glyph glyph-name="y" unicode="y" horiz-adv-x="925" 
d="M475 197l287 835h133l-512 -1450h-127l150 424l-371 1026h133z" />
    <glyph glyph-name="z" unicode="z" horiz-adv-x="933" 
d="M139 913v119h670v-69l-520 -844h542v-119h-716v61l526 852h-502z" />
    <glyph glyph-name="braceleft" unicode="{" horiz-adv-x="649" 
d="M295 111v374q0 92 -37 133t-125 41v115q88 0 125 41t37 133v375q0 97 53 155t139 58h95v-115h-62q-104 0 -102 -102v-404q0 -84 -31 -129t-98 -69q69 -25 99 -70t30 -129v-403q0 -103 102 -103h62v-114h-95q-86 0 -139 58t-53 155z" />
    <glyph glyph-name="bar" unicode="|" horiz-adv-x="536" 
d="M207 -102v1638h123v-1638h-123z" />
    <glyph glyph-name="braceright" unicode="}" horiz-adv-x="649" 
d="M129 12q104 0 102 103v403q0 84 31 129t98 70q-68 25 -98 69t-31 129v404q0 53 -24 78q-25 25 -78 24h-61v115h94q86 0 139 -57t53 -156v-375q0 -92 37 -133t125 -41v-115q-88 0 -125 -41t-37 -133v-374q0 -97 -53 -155t-139 -58h-94v114h61z" />
    <glyph glyph-name="asciitilde" unicode="~" horiz-adv-x="1232" 
d="M424 815q80 0 188 -55t181 -55q109 0 184 92l82 -80q-115 -160 -250 -160q-80 0 -186 55q-107 55 -199 55t-168 -92l-82 80q113 160 250 160z" />
    <glyph glyph-name="uni00A0" unicode="&#xa0;" horiz-adv-x="516" 
 />
    <glyph glyph-name="exclamdown" unicode="&#xa1;" horiz-adv-x="665" 
d="M215 903q0 49 32 81t81 32t81 -32q31 -32 31 -81t-32 -81t-80 -32q-49 0 -82 31q-31 33 -31 82zM369 635l45 -1057h-172l45 1057h82z" />
    <glyph glyph-name="cent" unicode="&#xa2;" horiz-adv-x="1122" 
d="M647 -102h-123v288q-188 20 -295 174q-104 154 -104 358t104 353q104 156 295 176v289h123v-289q252 -27 350 -282l-114 -45q-86 211 -301 210q-160 0 -242 -116t-82 -296q0 -179 82 -298q84 -117 242 -117q215 0 301 211l114 -45q-96 -252 -350 -283v-288z" />
    <glyph glyph-name="sterling" unicode="&#xa3;" horiz-adv-x="1085" 
d="M125 686v119h129q-51 129 -51 233q0 190 102 301t275 111q133 0 230 -76t148 -213l-112 -51q-50 115 -112 168t-164 53t-170 -78q-67 -78 -66 -217q0 -86 47 -231h336v-119h-299q20 -80 20 -169t-48 -200t-116 -170q168 92 332 -4q86 -49 140 -49t94 35q41 35 98 137
l96 -55q-66 -125 -134 -176t-156 -51q-89 0 -179 47t-149 47q-58 0 -106 -20t-111 -74l-101 112q225 219 226 434q0 78 -27 156h-172z" />
    <glyph glyph-name="currency" unicode="&#xa4;" horiz-adv-x="1118" 
d="M274 629q0 -135 78 -219t207 -84t207 84t78 219t-78 219t-207 84t-207 -84t-78 -219zM160 629q0 137 78 250l-179 137l113 112l135 -174q105 88 251 88t253 -88l135 174l113 -112l-178 -137q77 -113 77 -250t-77 -250l178 -137l-113 -113l-135 174q-105 -88 -251 -88
t-253 88l-135 -174l-113 113l179 137q-78 113 -78 250z" />
    <glyph glyph-name="yen" unicode="&#xa5;" horiz-adv-x="1024" 
d="M909 737v-114h-329v-179h329v-114h-329v-330h-136v330h-329v114h329v179h-329v114h270l-358 697h157l328 -674l328 674h157l-358 -697h270z" />
    <glyph glyph-name="brokenbar" unicode="&#xa6;" horiz-adv-x="536" 
d="M330 1536v-715h-123v715h123zM207 -102v714h123v-714h-123z" />
    <glyph glyph-name="section" unicode="&#xa7;" horiz-adv-x="1095" 
d="M479 350l215 -102q145 72 146 188q0 94 -105 160q-66 45 -112 68l-215 104q-145 -72 -146 -188q0 -86 105 -162q80 -51 112 -68zM963 434q0 -160 -166 -264q100 -100 100 -233q0 -171 -101 -271t-245 -100q-299 0 -371 299l115 39q66 -219 256 -219q96 0 156 65
q59 66 59 173t-84 169q-57 41 -86 58l-121 61q-47 23 -145 78t-144 122q-47 67 -47 171q0 160 166 264q-100 100 -100 233q0 171 100 271t246 100q299 0 371 -299l-115 -39q-66 219 -256 219q-96 0 -156 -65q-59 -66 -59 -172t84 -172q84 -59 186 -110q101 -50 150 -77
q113 -63 160 -130t47 -171z" />
    <glyph glyph-name="dieresis" unicode="&#xa8;" horiz-adv-x="602" 
d="M458 1434q42 0 72 -30t29 -72q0 -42 -30 -70q-29 -28 -71 -29q-42 1 -71 29t-29 70t29 72t71 30zM143 1233q-43 1 -71 29t-29 70q0 42 29 72q30 30 72 30t71 -30t29 -72t-29 -70t-72 -29z" />
    <glyph glyph-name="copyright" unicode="&#xa9;" horiz-adv-x="1847" 
d="M912 274q-140 0 -265 113q-123 115 -123 331t123 329q125 113 265 113t231 -72q90 -70 123 -199l-109 -29q-61 188 -233 189q-127 0 -203 -87t-76 -245t76 -245t203 -87q172 0 233 188l109 -28q-33 -129 -123 -200q-91 -71 -231 -71zM281 716q0 -286 178 -478t465 -193
q287 0 465 193q178 194 178 480t-178 478t-465 193q-287 0 -465 -193q-178 -194 -178 -480zM154 718q0 344 217 570q217 228 552 228t553 -230t218 -569t-218 -569t-552 -230t-553 227q-217 229 -217 573z" />
    <glyph glyph-name="ordfeminine" unicode="&#xaa;" horiz-adv-x="880" 
d="M250 852q0 -148 160 -148q82 0 157 70q76 70 76 219v31h-131q-262 0 -262 -172zM743 1155v-541h-75l-21 129q-80 -137 -260 -137q-113 0 -183 66t-69 188q0 122 97 190q97 69 276 68h135v35q0 190 -186 190q-145 0 -191 -147l-98 25q20 102 98 161q78 60 202 60t200 -71
t75 -216z" />
    <glyph glyph-name="guillemotleft" unicode="&#xab;" horiz-adv-x="1236" 
d="M1114 193l-539 399v86l539 399v-139l-405 -303l405 -303v-139zM641 193l-539 399v86l539 399v-139l-405 -303l405 -303v-139z" />
    <glyph glyph-name="logicalnot" unicode="&#xac;" horiz-adv-x="1173" 
d="M879 659h-736v119h867v-487h-131v368z" />
    <glyph glyph-name="uni00AD" unicode="&#xad;" horiz-adv-x="964" 
d="M819 592h-674v115h674v-115z" />
    <glyph glyph-name="registered" unicode="&#xae;" horiz-adv-x="1847" 
d="M940 1042h-174v-278h174q74 0 113 37t39 102q0 139 -152 139zM766 653v-372h-121v872h295q123 0 198 -69q74 -69 74 -171t-55 -169t-141 -82l260 -381h-127l-258 372h-125zM281 716q0 -286 178 -478t465 -193q287 0 465 193q178 194 178 480t-178 478t-465 193
q-287 0 -465 -193q-178 -194 -178 -480zM154 718q0 344 217 570q217 228 552 228t553 -230t218 -569t-218 -569t-552 -230t-553 227q-217 229 -217 573z" />
    <glyph glyph-name="overscore" unicode="&#xaf;" horiz-adv-x="555" 
d="M524 1319h-493v115h493v-115z" />
    <glyph glyph-name="degree" unicode="&#xb0;" horiz-adv-x="720" 
d="M360 1085q55 0 91 35q35 37 34 94q-1 58 -35 94t-90 36t-90 -36t-34 -94t34 -94q35 -35 90 -35zM362 1442q96 0 158 -64t64 -164q0 -100 -62 -163t-162 -63q-98 0 -161 63q-61 63 -61 161t61 164q67 66 163 66z" />
    <glyph glyph-name="plusminus" unicode="&#xb1;" horiz-adv-x="1107" 
d="M975 0h-840v115h840v-115zM612 872h363v-114h-363v-363h-114v363h-363v114h363v361h114v-361z" />
    <glyph glyph-name="uni00B2" unicode="&#xb2;" horiz-adv-x="780" 
d="M647 614h-514v39l301 375q82 100 82 172q0 142 -127 139q-53 0 -88 -42t-43 -113l-111 28q10 100 77 165q68 65 172 65t167 -62t63 -173q0 -110 -79 -210l-228 -280h328v-103z" />
    <glyph glyph-name="uni00B3" unicode="&#xb3;" horiz-adv-x="788" 
d="M545 877q0 77 -38 121q-37 44 -93 44t-88 -20l-54 72l183 241h-277v99h436v-35l-204 -277q16 4 36 4q92 0 151 -67q58 -69 58 -185q-1 -116 -69 -192t-184 -76t-188 64t-81 176l111 16q8 -74 48 -116t108 -42t107 48q38 47 38 125z" />
    <glyph glyph-name="acute" unicode="&#xb4;" horiz-adv-x="428" 
d="M152 1147h-101l144 287h190z" />
    <glyph glyph-name="mu" unicode="&#xb5;" horiz-adv-x="1179" 
d="M311 -418h-127v1450h127v-692q0 -238 211 -238q142 0 238 132t96 346v452h127v-1032h-127v215q-55 -107 -150 -169t-206 -62t-189 53v-455z" />
    <glyph glyph-name="mu" unicode="&#x3bc;" horiz-adv-x="1179" 
d="M311 -418h-127v1450h127v-692q0 -238 211 -238q142 0 238 132t96 346v452h127v-1032h-127v215q-55 -107 -150 -169t-206 -62t-189 53v-455z" />
    <glyph glyph-name="paragraph" unicode="&#xb6;" horiz-adv-x="1333" 
d="M479 1434h715v-127h-119v-1725h-135v1725h-326v-1725h-135v1143q-145 0 -252 102q-102 107 -102 253q-1 146 103 250t251 104z" />
    <glyph glyph-name="middot" unicode="&#xb7;" horiz-adv-x="581" 
d="M186 714q0 46 30 76t75 30t75 -30t30 -75t-30 -75t-75 -30t-75 29t-30 75z" />
    <glyph glyph-name="cedilla" unicode="&#xb8;" horiz-adv-x="358" 
d="M223 -123h113l-166 -315l-147 63z" />
    <glyph glyph-name="uni00B9" unicode="&#xb9;" horiz-adv-x="581" 
d="M399 1434v-820h-102v668l-174 -84v115l244 121h32z" />
    <glyph glyph-name="ordmasculine" unicode="&#xba;" horiz-adv-x="1048" 
d="M256 1024q0 -131 70 -225t198 -94t198 95q71 95 71 224t-71 224q-70 95 -198 95t-198 -94t-70 -225zM524 1442q170 0 274 -125t105 -292q0 -167 -104 -293q-105 -126 -275 -126t-274 126t-104 293t104 292t274 125z" />
    <glyph glyph-name="guillemotright" unicode="&#xbb;" horiz-adv-x="1236" 
d="M123 1077l539 -399v-86l-539 -399v139l405 303l-405 303v139zM596 1077l539 -399v-86l-539 -399v139l405 303l-405 303v139z" />
    <glyph glyph-name="onequarter" unicode="&#xbc;" horiz-adv-x="1617" 
d="M1227 268v400l-209 -400h209zM1329 0h-102v170h-350v35l331 614h121v-551h107v-98h-107v-170zM440 1434v-820h-102v668l-174 -84v115l244 121h32zM195 18l1110 1465l86 -68l-1110 -1464z" />
    <glyph glyph-name="onehalf" unicode="&#xbd;" horiz-adv-x="1755" 
d="M1542 0h-514v39l301 375q82 100 82 172q0 140 -127 139q-53 0 -88 -42t-43 -114l-111 29q10 100 77 165t171 65t168 -63q64 -62 64 -172t-80 -210l-228 -281h328v-102zM440 1434v-820h-102v668l-174 -84v115l244 121h32zM195 18l1110 1465l86 -68l-1110 -1464z" />
    <glyph glyph-name="threequarters" unicode="&#xbe;" horiz-adv-x="1720" 
d="M1319 268v400l-209 -400h209zM1421 0h-102v170h-350v35l331 614h121v-551h107v-98h-107v-170zM545 877q0 77 -38 121q-37 44 -93 44t-88 -20l-54 72l183 241h-277v99h436v-35l-204 -277q16 4 36 4q92 0 151 -67q58 -69 58 -185q-1 -116 -69 -192t-184 -76t-188 64
t-81 176l111 16q8 -74 48 -116t108 -42t107 48q38 47 38 125zM342 18l1110 1465l86 -68l-1110 -1464z" />
    <glyph glyph-name="questiondown" unicode="&#xbf;" horiz-adv-x="897" 
d="M434 608q110 0 182 -66t72 -182q0 -164 -180 -262l-168 -92q-106 -57 -106 -145t52 -134t148 -46q180 0 232 208l129 -22q-25 -145 -122 -225t-245 -80t-237 80t-89 206q0 158 179 254l147 80q72 39 102 80q30 40 31 100q0 60 -33 94t-90 33q-119 0 -162 -135l-102 39
q59 215 260 215zM543 903q0 -49 -32 -81t-81 -32t-82 31q-31 33 -31 82t32 81t81 32t81 -32t32 -81z" />
    <glyph glyph-name="Agrave" unicode="&#xc0;" horiz-adv-x="1196" 
d="M375 1835h190l144 -287h-101zM850 535l-252 714l-252 -714h504zM20 0l519 1434h118l519 -1434h-140l-143 408h-590l-143 -408h-140z" />
    <glyph glyph-name="Aacute" unicode="&#xc1;" horiz-adv-x="1196" 
d="M584 1548h-101l144 287h190zM850 535l-252 714l-252 -714h504zM20 0l519 1434h118l519 -1434h-140l-143 408h-590l-143 -408h-140z" />
    <glyph glyph-name="Acircumflex" unicode="&#xc2;" horiz-adv-x="1196" 
d="M428 1561h-147l294 309h46l294 -309h-147l-170 182zM850 535l-252 714l-252 -714h504zM20 0l519 1434h118l519 -1434h-140l-143 408h-590l-143 -408h-140z" />
    <glyph glyph-name="Atilde" unicode="&#xc3;" horiz-adv-x="1196" 
d="M725 1737q78 0 137 73l82 -63q-76 -141 -203 -141q-71 0 -147 42t-121 42q-80 0 -137 -74l-82 63q78 141 203 142q74 0 147 -43q78 -41 121 -41zM850 535l-252 714l-252 -714h504zM20 0l519 1434h118l519 -1434h-140l-143 408h-590l-143 -408h-140z" />
    <glyph glyph-name="Adieresis" unicode="&#xc4;" horiz-adv-x="1196" 
d="M655 1734q0 42 29 72t71 29q41 0 71 -30q30 -29 30 -71t-30 -71t-72 -29t-70 29q-29 29 -29 71zM440 1634q-44 0 -72 29t-28 71t29 72t71 29q42 0 72 -30q29 -29 29 -71t-29 -71t-72 -29zM850 535l-252 714l-252 -714h504zM20 0l519 1434h118l519 -1434h-140l-143 408
h-590l-143 -408h-140z" />
    <glyph glyph-name="Aring" unicode="&#xc5;" horiz-adv-x="1196" 
d="M605 1634q46 0 75 30t29 78t-29 79t-75 31t-76 -32q-29 -32 -29 -79t30 -77t75 -30zM406 1740q0 83 57 141t142 58t141 -57t56 -141t-56 -139q-56 -56 -141 -56t-142 56t-57 138zM850 535l-252 714l-252 -714h504zM20 0l519 1434h118l519 -1434h-140l-143 408h-590
l-143 -408h-140z" />
    <glyph glyph-name="AE" unicode="&#xc6;" horiz-adv-x="1681" 
d="M725 1249h-23l-313 -714h336v714zM1534 1434v-127h-674v-480h551v-127h-551v-573h694v-127h-829v408h-391l-178 -408h-142l629 1434h891z" />
    <glyph glyph-name="Ccedilla" unicode="&#xc7;" horiz-adv-x="1392" 
d="M758 -123h112l-165 -315l-148 63zM121 717q0 176 52 320t144 233q186 180 437 180q201 0 343 -109t197 -301l-133 -39q-41 156 -145 239t-262 83q-220 0 -356 -160q-136 -161 -136 -447t135 -446t357 -159q158 1 262 83t145 238l133 -39q-55 -193 -197 -301t-343 -108
q-262 0 -449 190q-184 190 -184 543z" />
    <glyph glyph-name="Egrave" unicode="&#xc8;" horiz-adv-x="1163" 
d="M408 1835h190l143 -287h-100zM207 0v1434h809v-127h-674v-480h551v-127h-551v-573h694v-127h-829z" />
    <glyph glyph-name="Eacute" unicode="&#xc9;" horiz-adv-x="1163" 
d="M604 1548h-100l143 287h191zM207 0v1434h809v-127h-674v-480h551v-127h-551v-573h694v-127h-829z" />
    <glyph glyph-name="Ecircumflex" unicode="&#xca;" horiz-adv-x="1163" 
d="M440 1561h-147l295 309h45l295 -309h-148l-170 182zM207 0v1434h809v-127h-674v-480h551v-127h-551v-573h694v-127h-829z" />
    <glyph glyph-name="Edieresis" unicode="&#xcb;" horiz-adv-x="1163" 
d="M789 1634q-43 0 -71 29t-28 71t29 72t71 29q42 0 71 -30q30 -29 30 -71t-30 -71t-72 -29zM375 1734q1 42 29 72t71 29q43 0 72 -30q29 -29 29 -71t-30 -71q-28 -29 -71 -29t-72 29q-28 29 -28 71zM207 0v1434h809v-127h-674v-480h551v-127h-551v-573h694v-127h-829z" />
    <glyph glyph-name="Igrave" unicode="&#xcc;" horiz-adv-x="548" 
d="M51 1835h191l143 -287h-100zM207 1434h135v-1434h-135v1434z" />
    <glyph glyph-name="Iacute" unicode="&#xcd;" horiz-adv-x="548" 
d="M274 1548h-100l143 287h191zM207 1434h135v-1434h-135v1434z" />
    <glyph glyph-name="Icircumflex" unicode="&#xce;" horiz-adv-x="548" 
d="M104 1561h-147l295 309h45l295 -309h-148l-170 182zM207 1434h135v-1434h-135v1434z" />
    <glyph glyph-name="Idieresis" unicode="&#xcf;" horiz-adv-x="548" 
d="M332 1734q0 42 28 72t71 29q42 0 72 -30q29 -29 29 -71t-30 -71t-71 -29q-42 0 -71 29q-28 29 -28 71zM16 1734q0 42 29 72t72 29q43 0 71 -30q28 -29 29 -71q0 -42 -29 -71q-30 -29 -72 -29t-71 29t-29 71zM207 1434h135v-1434h-135v1434z" />
    <glyph glyph-name="Eth" unicode="&#xd0;" horiz-adv-x="1406" 
d="M637 1307h-244v-527h172v-127h-172v-526h244q217 -1 362 149t146 441q0 291 -148 440q-143 150 -360 150zM258 653h-172v127h172v654h377q283 0 467 -195t184 -525t-184 -522t-467 -192h-377v653z" />
    <glyph glyph-name="Ntilde" unicode="&#xd1;" horiz-adv-x="1419" 
d="M825 1737q80 0 138 73l81 -63q-78 -141 -202 -141q-72 0 -150 41q-74 43 -119 43q-78 0 -137 -74l-82 63q76 141 203 142q74 0 148 -43q78 -41 120 -41zM1077 1434h135v-1434h-159l-711 1214v-1214h-135v1434h160l710 -1219v1219z" />
    <glyph glyph-name="Ograve" unicode="&#xd2;" horiz-adv-x="1499" 
d="M506 1835h190l144 -287h-101zM1237 718q0 288 -139 446q-139 159 -350 159q-210 0 -348 -158q-138 -159 -138 -449t138 -448t348 -158t350 158q139 162 139 450zM121 718q0 328 183 530q182 202 446 202t444 -203q184 -199 184 -529t-183 -533q-183 -201 -445 -201
t-447 200q-182 206 -182 534z" />
    <glyph glyph-name="Oacute" unicode="&#xd3;" horiz-adv-x="1499" 
d="M688 1548h-100l143 287h191zM1237 718q0 288 -139 446q-139 159 -350 159q-210 0 -348 -158q-138 -159 -138 -449t138 -448t348 -158t350 158q139 162 139 450zM121 718q0 328 183 530q182 202 446 202t444 -203q184 -199 184 -529t-183 -533q-183 -201 -445 -201
t-447 200q-182 206 -182 534z" />
    <glyph glyph-name="Ocircumflex" unicode="&#xd4;" horiz-adv-x="1499" 
d="M580 1561h-148l295 309h45l295 -309h-147l-170 182zM1237 718q0 288 -139 446q-139 159 -350 159q-210 0 -348 -158q-138 -159 -138 -449t138 -448t348 -158t350 158q139 162 139 450zM121 718q0 328 183 530q182 202 446 202t444 -203q184 -199 184 -529t-183 -533
q-183 -201 -445 -201t-447 200q-182 206 -182 534z" />
    <glyph glyph-name="Otilde" unicode="&#xd5;" horiz-adv-x="1499" 
d="M877 1737q78 0 137 73l82 -63q-76 -141 -203 -141q-72 0 -150 41q-74 43 -118 43q-81 0 -138 -74l-81 63q78 141 202 142q74 0 148 -43q78 -41 121 -41zM1237 718q0 288 -139 446q-139 159 -350 159q-210 0 -348 -158q-138 -159 -138 -449t138 -448t348 -158t350 158
q139 162 139 450zM121 718q0 328 183 530q182 202 446 202t444 -203q184 -199 184 -529t-183 -533q-183 -201 -445 -201t-447 200q-182 206 -182 534z" />
    <glyph glyph-name="Odieresis" unicode="&#xd6;" horiz-adv-x="1499" 
d="M906 1634q-42 0 -70 29t-29 71q0 42 29 72q28 30 70 29q42 0 72 -30q30 -29 30 -71t-30 -71t-72 -29zM492 1734q0 42 28 72t72 29q43 0 72 -30q28 -29 28 -71t-28 -71t-72 -29q-43 0 -72 29q-28 29 -28 71zM1237 718q0 288 -139 446q-139 159 -350 159q-210 0 -348 -158
q-138 -159 -138 -449t138 -448t348 -158t350 158q139 162 139 450zM121 718q0 328 183 530q182 202 446 202t444 -203q184 -199 184 -529t-183 -533q-183 -201 -445 -201t-447 200q-182 206 -182 534z" />
    <glyph glyph-name="multiply" unicode="&#xd7;" horiz-adv-x="1073" 
d="M616 647l316 -315l-82 -80l-313 313l-316 -313l-80 80l314 315l-314 314l80 81l316 -315l311 313l82 -82z" />
    <glyph glyph-name="Oslash" unicode="&#xd8;" horiz-adv-x="1499" 
d="M1237 696q0 266 -102 422l-691 -895q125 -113 320 -113t334 158q139 162 139 428zM750 1323q-212 0 -350 -158t-138 -425t103 -425l690 895q-125 113 -305 113zM121 728q0 320 183 520q183 202 446 202q219 0 383 -139l120 155l95 -71l-131 -170q161 -199 161 -519
t-183 -521q-183 -202 -445 -201q-219 0 -383 139l-121 -156l-94 72l131 170q-162 199 -162 519z" />
    <glyph glyph-name="Ugrave" unicode="&#xd9;" horiz-adv-x="1339" 
d="M440 1835h191l143 -287h-100zM178 459v975h135v-988q1 -147 95 -241t262 -94t262 94t94 241v988h135v-975q0 -225 -141 -350t-349 -125t-352 125q-141 125 -141 350z" />
    <glyph glyph-name="Uacute" unicode="&#xda;" horiz-adv-x="1339" 
d="M651 1548h-100l143 287h191zM178 459v975h135v-988q1 -147 95 -241t262 -94t262 94t94 241v988h135v-975q0 -225 -141 -350t-349 -125t-352 125q-141 125 -141 350z" />
    <glyph glyph-name="Ucircumflex" unicode="&#xdb;" horiz-adv-x="1339" 
d="M498 1561h-148l295 309h45l295 -309h-147l-170 182zM178 459v975h135v-988q1 -147 95 -241t262 -94t262 94t94 241v988h135v-975q0 -225 -141 -350t-349 -125t-352 125q-141 125 -141 350z" />
    <glyph glyph-name="Udieresis" unicode="&#xdc;" horiz-adv-x="1339" 
d="M826 1634q-42 0 -70 29t-29 71q0 42 29 72q28 30 70 29q42 0 72 -30q30 -29 30 -71t-30 -71t-72 -29zM412 1734q0 42 28 72t72 29q43 0 72 -30q28 -29 28 -71t-28 -71t-72 -29q-43 0 -72 29q-28 29 -28 71zM178 459v975h135v-988q1 -147 95 -241t262 -94t262 94t94 241
v988h135v-975q0 -225 -141 -350t-349 -125t-352 125q-141 125 -141 350z" />
    <glyph glyph-name="Yacute" unicode="&#xdd;" horiz-adv-x="1024" 
d="M485 1548h-100l143 287h191zM444 0v623l-432 811h158l342 -678l342 678h158l-432 -811v-623h-136z" />
    <glyph glyph-name="Thorn" unicode="&#xde;" horiz-adv-x="1183" 
d="M342 449h354q135 1 203 71t68 197t-68 197t-203 71h-354v-536zM694 322h-352v-322h-135v1434h135v-322h352q194 0 304 -105t110 -289t-110 -290t-304 -106z" />
    <glyph glyph-name="germandbls" unicode="&#xdf;" horiz-adv-x="1140" 
d="M193 725h-111v115h111v159q0 213 104 332t274 119q171 0 273 -98t102 -256q0 -115 -55 -200t-139 -105q116 -27 202 -124t86 -241q0 -209 -118 -326t-316 -116q-84 0 -155 14v119q66 -14 143 -15q152 0 234 82t81 231q0 149 -96 229t-258 81h-66v115h78q121 0 189 66
t68 180t-70 180t-185 66t-181 -87q-66 -86 -64 -248v-997h-131v725z" />
    <glyph glyph-name="agrave" unicode="&#xe0;" horiz-adv-x="1036" 
d="M309 1434h191l143 -287h-100zM891 684v-684h-96l-31 160q-102 -176 -326 -176q-147 0 -234 80t-87 239q0 160 125 246t350 86h172v45q0 250 -238 250q-188 0 -245 -193l-123 29q20 127 122 205t254 78q150 0 252 -99q105 -94 105 -266zM596 516q-170 0 -258 -56t-88 -156
q0 -99 53 -150q53 -52 160 -52t204 92t97 283v39h-168z" />
    <glyph glyph-name="aacute" unicode="&#xe1;" horiz-adv-x="1036" 
d="M518 1147h-100l143 287h191zM891 684v-684h-96l-31 160q-102 -176 -326 -176q-147 0 -234 80t-87 239q0 160 125 246t350 86h172v45q0 250 -238 250q-188 0 -245 -193l-123 29q20 127 122 205t254 78q150 0 252 -99q105 -94 105 -266zM596 516q-170 0 -258 -56t-88 -156
q0 -99 53 -150q53 -52 160 -52t204 92t97 283v39h-168z" />
    <glyph glyph-name="acircumflex" unicode="&#xe2;" horiz-adv-x="1036" 
d="M365 1159h-148l295 309h45l295 -309h-147l-170 182zM891 684v-684h-96l-31 160q-102 -176 -326 -176q-147 0 -234 80t-87 239q0 160 125 246t350 86h172v45q0 250 -238 250q-188 0 -245 -193l-123 29q20 127 122 205t254 78q150 0 252 -99q105 -94 105 -266zM596 516
q-170 0 -258 -56t-88 -156q0 -99 53 -150q53 -52 160 -52t204 92t97 283v39h-168z" />
    <glyph glyph-name="atilde" unicode="&#xe3;" horiz-adv-x="1036" 
d="M393 1419q74 0 148 -43q78 -41 121 -41q80 0 137 74l82 -63q-78 -141 -203 -142q-72 0 -150 41q-74 43 -118 43q-79 0 -138 -74l-82 64q76 141 203 141zM891 684v-684h-96l-31 160q-102 -176 -326 -176q-147 0 -234 80t-87 239q0 160 125 246t350 86h172v45
q0 250 -238 250q-188 0 -245 -193l-123 29q20 127 122 205t254 78q150 0 252 -99q105 -94 105 -266zM596 516q-170 0 -258 -56t-88 -156q0 -99 53 -150q53 -52 160 -52t204 92t97 283v39h-168z" />
    <glyph glyph-name="adieresis" unicode="&#xe4;" horiz-adv-x="1036" 
d="M791 1332q0 -42 -30 -70t-72 -29q-43 1 -71 29t-28 70t28 72q29 30 71 30t72 -30t30 -72zM375 1434q43 0 71 -30t29 -72q0 -42 -29 -70q-30 -28 -72 -29q-42 1 -71 29t-29 70t29 72t72 30zM891 684v-684h-96l-31 160q-102 -176 -326 -176q-147 0 -234 80t-87 239
q0 160 125 246t350 86h172v45q0 250 -238 250q-188 0 -245 -193l-123 29q20 127 122 205t254 78q150 0 252 -99q105 -94 105 -266zM596 516q-170 0 -258 -56t-88 -156q0 -99 53 -150q53 -52 160 -52t204 92t97 283v39h-168z" />
    <glyph glyph-name="aring" unicode="&#xe5;" horiz-adv-x="1036" 
d="M422 1339q0 -47 30 -77t75 -29q46 0 75 30q29 29 29 77t-29 79t-75 31q-45 0 -75 -32t-30 -79zM328 1338q0 84 57 142t142 58t141 -57t57 -141q0 -84 -56 -140q-55 -55 -141 -55t-143 55t-57 138zM891 684v-684h-96l-31 160q-102 -176 -326 -176q-147 0 -234 80t-87 239
q0 160 125 246t350 86h172v45q0 250 -238 250q-188 0 -245 -193l-123 29q20 127 122 205t254 78q150 0 252 -99q105 -94 105 -266zM596 516q-170 0 -258 -56t-88 -156q0 -99 53 -150q53 -52 160 -52t204 92t97 283v39h-168z" />
    <glyph glyph-name="ae" unicode="&#xe6;" horiz-adv-x="1779" 
d="M1229 930q-129 0 -213 -81t-111 -214h639q-18 139 -102 217t-213 78zM596 516q-170 0 -258 -56t-88 -156q0 -99 53 -150q53 -52 160 -52t204 92t97 283v39h-168zM1675 573v-57h-778q0 -186 88 -300t238 -114q217 0 315 213l115 -47q-78 -152 -179 -218q-102 -66 -244 -66
t-250 70t-157 190q-47 -127 -147 -194q-100 -66 -242 -66t-230 80q-87 80 -87 239q0 160 125 246t350 86h172v45q0 250 -238 250q-188 0 -245 -193l-123 29q20 127 122 205t232 78q129 1 218 -53t130 -146q129 199 363 199q201 -1 327 -133t125 -343z" />
    <glyph glyph-name="ccedilla" unicode="&#xe7;" horiz-adv-x="1081" 
d="M578 -123h112l-166 -315l-147 63zM115 515q0 218 121 376t335 158q309 0 416 -285l-115 -45q-86 211 -301 211q-160 0 -241 -119q-82 -115 -82 -294t82 -298q84 -117 241 -117q215 0 301 211l115 -45q-106 -285 -416 -284q-217 0 -337 156t-119 375z" />
    <glyph glyph-name="egrave" unicode="&#xe8;" horiz-adv-x="1130" 
d="M371 1434h190l144 -287h-101zM579 930q-129 0 -213 -81t-110 -214h639q-18 139 -102 217q-85 78 -214 78zM1026 573v-57h-778q0 -186 88 -300t237 -114q117 0 189 52t129 170l113 -56q-78 -152 -180 -218t-251 -66q-207 0 -333 150t-125 381q0 230 127 382
q128 152 330 152q202 -1 328 -133t126 -343z" />
    <glyph glyph-name="eacute" unicode="&#xe9;" horiz-adv-x="1130" 
d="M520 1147h-100l143 287h191zM579 930q-129 0 -213 -81t-110 -214h639q-18 139 -102 217q-85 78 -214 78zM1026 573v-57h-778q0 -186 88 -300t237 -114q117 0 189 52t129 170l113 -56q-78 -152 -180 -218t-251 -66q-207 0 -333 150t-125 381q0 230 127 382
q128 152 330 152q202 -1 328 -133t126 -343z" />
    <glyph glyph-name="ecircumflex" unicode="&#xea;" horiz-adv-x="1130" 
d="M403 1159h-147l295 309h45l295 -309h-148l-170 182zM579 930q-129 0 -213 -81t-110 -214h639q-18 139 -102 217q-85 78 -214 78zM1026 573v-57h-778q0 -186 88 -300t237 -114q117 0 189 52t129 170l113 -56q-78 -152 -180 -218t-251 -66q-207 0 -333 150t-125 381
q0 230 127 382q128 152 330 152q202 -1 328 -133t126 -343z" />
    <glyph glyph-name="edieresis" unicode="&#xeb;" horiz-adv-x="1130" 
d="M844 1332q0 -42 -30 -70t-72 -29q-42 1 -70 29t-29 70q0 42 29 72q28 30 70 30t72 -30t30 -72zM428 1233q-44 1 -72 29t-28 70t28 72q29 30 72 30t72 -30q28 -30 28 -72t-28 -70t-72 -29zM579 930q-129 0 -213 -81t-110 -214h639q-18 139 -102 217q-85 78 -214 78z
M1026 573v-57h-778q0 -186 88 -300t237 -114q117 0 189 52t129 170l113 -56q-78 -152 -180 -218t-251 -66q-207 0 -333 150t-125 381q0 230 127 382q128 152 330 152q202 -1 328 -133t126 -343z" />
    <glyph glyph-name="igrave" unicode="&#xec;" horiz-adv-x="573" 
d="M55 1434h191l143 -287h-100zM225 0v1032h127v-1032h-127z" />
    <glyph glyph-name="iacute" unicode="&#xed;" horiz-adv-x="573" 
d="M299 1147h-100l143 287h190zM225 0v1032h127v-1032h-127z" />
    <glyph glyph-name="icircumflex" unicode="&#xee;" horiz-adv-x="573" 
d="M117 1159h-148l295 309h45l295 -309h-147l-170 182zM225 0v1032h127v-1032h-127z" />
    <glyph glyph-name="idieresis" unicode="&#xef;" horiz-adv-x="573" 
d="M549 1332q0 -42 -30 -70t-72 -29q-43 1 -71 29t-28 70t29 72t71 30t71 -30q30 -30 30 -72zM133 1233q-43 1 -71 29t-29 70q0 42 28 72q29 30 72 30t72 -30t29 -72t-30 -70q-28 -28 -71 -29zM225 0v1032h127v-1032h-127z" />
    <glyph glyph-name="eth" unicode="&#xf0;" horiz-adv-x="1175" 
d="M248 516q0 -172 89 -293t251 -121t252 121q88 121 88 293t-89 293t-251 121t-251 -121t-89 -293zM1061 516q0 -215 -129 -374q-129 -158 -344 -158t-344 158t-129 375q0 216 129 374t344 158q170 0 278 -117q-55 164 -274 330l-90 -134l-86 62l90 131q-84 51 -166 86
l59 88q90 -41 168 -84l78 115l86 -62l-76 -110q406 -276 406 -838z" />
    <glyph glyph-name="ntilde" unicode="&#xf1;" horiz-adv-x="1179" 
d="M463 1419q74 0 147 -43q78 -41 121 -41q80 0 137 74l82 -63q-78 -141 -202 -142q-72 0 -150 41q-74 43 -119 43q-78 0 -137 -74l-82 64q76 141 203 141zM995 709v-709h-127v692q0 238 -211 238q-145 0 -239 -131t-94 -346v-453h-127v1032h127v-215q55 107 150 169t223 62
t213 -89q85 -90 85 -250z" />
    <glyph glyph-name="ograve" unicode="&#xf2;" horiz-adv-x="1196" 
d="M379 1434h190l144 -287h-101zM248 516q0 -168 93 -291t257 -123t257 122t93 292t-93 292t-257 122t-257 -123t-93 -291zM115 516q0 211 133 372t350 161t350 -161t133 -372t-133 -372t-350 -161t-350 161t-133 372z" />
    <glyph glyph-name="oacute" unicode="&#xf3;" horiz-adv-x="1196" 
d="M547 1147h-101l144 287h190zM248 516q0 -168 93 -291t257 -123t257 122t93 292t-93 292t-257 122t-257 -123t-93 -291zM115 516q0 211 133 372t350 161t350 -161t133 -372t-133 -372t-350 -161t-350 161t-133 372z" />
    <glyph glyph-name="ocircumflex" unicode="&#xf4;" horiz-adv-x="1196" 
d="M428 1159h-147l294 309h46l294 -309h-147l-170 182zM248 516q0 -168 93 -291t257 -123t257 122t93 292t-93 292t-257 122t-257 -123t-93 -291zM115 516q0 211 133 372t350 161t350 -161t133 -372t-133 -372t-350 -161t-350 161t-133 372z" />
    <glyph glyph-name="otilde" unicode="&#xf5;" horiz-adv-x="1196" 
d="M457 1419q74 0 147 -43q78 -41 121 -41q78 0 137 74l82 -63q-76 -141 -203 -142q-71 0 -147 42t-121 42q-80 0 -137 -74l-82 64q78 141 203 141zM248 516q0 -168 93 -291t257 -123t257 122t93 292t-93 292t-257 122t-257 -123t-93 -291zM115 516q0 211 133 372t350 161
t350 -161t133 -372t-133 -372t-350 -161t-350 161t-133 372z" />
    <glyph glyph-name="odieresis" unicode="&#xf6;" horiz-adv-x="1196" 
d="M755 1434q41 0 71 -30t30 -72t-30 -70t-72 -29q-42 1 -70 29q-29 28 -29 70t29 72t71 30zM440 1233q-44 1 -72 29t-28 70t29 72t71 30t72 -30q29 -30 29 -72t-29 -70t-72 -29zM248 516q0 -168 93 -291t257 -123t257 122t93 292t-93 292t-257 122t-257 -123t-93 -291z
M115 516q0 211 133 372t350 161t350 -161t133 -372t-133 -372t-350 -161t-350 161t-133 372z" />
    <glyph glyph-name="divide" unicode="&#xf7;" horiz-adv-x="1044" 
d="M942 592h-840v115h840v-115zM625 1024q0 -45 -30 -75t-75 -30t-76 29q-29 31 -28 76q0 45 30 75q30 29 74 29q45 0 75 -30t30 -74zM520 379q45 0 75 -30t30 -75q0 -44 -30 -74t-75 -30t-76 29q-28 31 -28 75t30 75q30 30 74 30z" />
    <glyph glyph-name="oslash" unicode="&#xf8;" horiz-adv-x="1196" 
d="M598 930q-164 0 -257 -123t-93 -284t69 -267l482 608q-88 66 -201 66zM598 102q164 0 257 122t93 284t-69 268l-482 -608q88 -66 201 -66zM115 515q0 212 133 373t350 161q160 0 274 -88l115 145l94 -72l-123 -155q123 -150 123 -362t-133 -373t-350 -160q-160 0 -274 88
l-115 -146l-94 72l123 156q-123 149 -123 361z" />
    <glyph glyph-name="ugrave" unicode="&#xf9;" 
d="M393 1434h191l143 -287h-100zM184 324v708h127v-692q0 -238 211 -238q142 0 238 132t96 346v452h127v-1032h-127v215q-55 -107 -150 -169t-204 -62q-147 0 -233 90q-85 90 -85 250z" />
    <glyph glyph-name="uacute" unicode="&#xfa;" 
d="M543 1147h-101l144 287h190zM184 324v708h127v-692q0 -238 211 -238q142 0 238 132t96 346v452h127v-1032h-127v215q-55 -107 -150 -169t-204 -62q-147 0 -233 90q-85 90 -85 250z" />
    <glyph glyph-name="ucircumflex" unicode="&#xfb;" 
d="M418 1159h-148l295 309h45l295 -309h-147l-170 182zM184 324v708h127v-692q0 -238 211 -238q142 0 238 132t96 346v452h127v-1032h-127v215q-55 -107 -150 -169t-204 -62q-147 0 -233 90q-85 90 -85 250z" />
    <glyph glyph-name="udieresis" unicode="&#xfc;" 
d="M749 1434q41 0 71 -30t30 -72t-30 -70t-72 -29q-42 1 -70 29q-29 28 -29 70t29 72t71 30zM434 1233q-44 1 -72 29t-28 70t28 72q29 30 72 30t72 -30t29 -72t-29 -70t-72 -29zM184 324v708h127v-692q0 -238 211 -238q142 0 238 132t96 346v452h127v-1032h-127v215
q-55 -107 -150 -169t-204 -62q-147 0 -233 90q-85 90 -85 250z" />
    <glyph glyph-name="yacute" unicode="&#xfd;" horiz-adv-x="925" 
d="M455 1147h-101l144 287h190zM475 197l287 835h133l-512 -1450h-127l150 424l-371 1026h133z" />
    <glyph glyph-name="thorn" unicode="&#xfe;" horiz-adv-x="1226" 
d="M979 514q0 184 -88 300t-246 116t-245 -117t-87 -300t88 -297t245 -114t245 114t88 298zM199 -418v1868h131v-563q55 72 145 117t176 45q217 0 339 -152t122 -383t-121 -381t-340 -149q-96 0 -187 44t-134 107v-553h-131z" />
    <glyph glyph-name="ydieresis" unicode="&#xff;" horiz-adv-x="925" 
d="M632 1434q42 0 72 -30t29 -72q0 -42 -30 -70q-29 -28 -71 -29q-42 1 -71 29t-29 70t29 72t71 30zM317 1233q-43 1 -71 29t-29 70q0 42 29 72q30 30 72 30t71 -30t29 -72t-29 -70t-72 -29zM475 197l287 835h133l-512 -1450h-127l150 424l-371 1026h133z" />
    <glyph glyph-name="dotlessi" unicode="&#x131;" horiz-adv-x="573" 
d="M223 0v1032h127v-1032h-127z" />
    <glyph glyph-name="Lslash" unicode="&#x141;" horiz-adv-x="1054" 
d="M207 1434h135v-662l262 152l55 -97l-317 -182v-518h672v-127h-807v569l-148 -86l-49 97l197 116v738z" />
    <glyph glyph-name="lslash" unicode="&#x142;" horiz-adv-x="663" 
d="M262 1450h127v-604l158 88l55 -96l-213 -119v-719h-127v649l-158 -88l-55 96l213 119v674z" />
    <glyph glyph-name="OE" unicode="&#x152;" horiz-adv-x="2199" 
d="M1237 718q0 288 -139 446q-139 159 -350 159q-210 0 -348 -158q-138 -159 -138 -449t138 -448t348 -158t350 158q139 162 139 450zM1243 1434h809v-127h-674v-480h551v-127h-551v-573h695v-127h-830v246q-86 -125 -216 -194t-277 -68q-262 0 -447 200q-182 205 -182 534
q0 328 183 530t446 202q147 0 277 -68t216 -194v246z" />
    <glyph glyph-name="oe" unicode="&#x153;" horiz-adv-x="1964" 
d="M1414 930q-128 0 -212 -81t-110 -214h637q-19 139 -103 217t-212 78zM248 516q0 -168 93 -291t257 -123t257 122t93 292t-93 292t-257 122t-257 -123t-93 -291zM1860 573v-57h-779v-18q4 -180 91 -288t235 -108q217 0 315 213l115 -47q-78 -152 -179 -218
q-100 -66 -242 -66t-246 65q-103 66 -160 184q-64 -117 -170 -183t-242 -66q-217 0 -350 160t-133 372q0 211 133 372t350 161q136 0 242 -67t170 -183q57 119 160 185t237 65q201 -1 327 -133t126 -343z" />
    <glyph glyph-name="Scaron" unicode="&#x160;" horiz-adv-x="1036" 
d="M539 1561h-45l-295 309h147l170 -182l170 182h148zM508 1323q-90 0 -144 -61t-55 -148q0 -166 221 -268q74 -33 178 -84t164 -142q61 -91 62 -217q0 -190 -116 -305q-116 -114 -290 -114t-290 104t-152 283l117 69q47 -164 120 -246t199 -83t198 75q73 76 73 213
q0 174 -220 277q-195 90 -266 147q-135 113 -134 271t97 258q98 98 238 98q100 0 168 -32t100 -68t80 -121l-111 -70q-86 164 -237 164z" />
    <glyph glyph-name="scaron" unicode="&#x161;" horiz-adv-x="921" 
d="M494 1159h-45l-295 309h147l170 -182l170 182h147zM471 1049q172 0 287 -160l-90 -78q-88 119 -203 119q-68 0 -110 -43t-42 -113q0 -100 172 -170q76 -31 113 -48t94 -54q111 -72 111 -209t-86 -223q-85 -86 -231 -86t-241 78t-134 204l112 60q41 -113 101 -168
q60 -56 154 -56q96 0 144 50t48 135q0 119 -172 180q-164 66 -217 106q-98 76 -99 199q0 123 82 200t207 77z" />
    <glyph glyph-name="Ydieresis" unicode="&#x178;" horiz-adv-x="1024" 
d="M569 1734q0 42 29 72t71 29q41 0 71 -30q30 -29 30 -71t-30 -71t-72 -29t-70 29q-29 29 -29 71zM354 1634q-44 0 -72 29t-28 71t29 72t71 29q42 0 72 -30q29 -29 29 -71t-29 -71t-72 -29zM444 0v623l-432 811h158l342 -678l342 678h158l-432 -811v-623h-136z" />
    <glyph glyph-name="Zcaron" unicode="&#x17d;" horiz-adv-x="1122" 
d="M600 1561h-45l-295 309h148l170 -182l170 182h147zM123 1307v127h876v-66l-712 -1241h727v-127h-916v66l721 1241h-696z" />
    <glyph glyph-name="zcaron" unicode="&#x17e;" horiz-adv-x="933" 
d="M492 1159h-46l-294 309h147l170 -182l170 182h147zM139 913v119h670v-69l-520 -844h542v-119h-716v61l526 852h-502z" />
    <glyph glyph-name="florin" unicode="&#x192;" horiz-adv-x="958" 
d="M838 1450q80 0 125 -27l-50 -116q-45 25 -102 24q-180 0 -223 -213l-17 -86h250l-24 -119h-250l-193 -995q-37 -188 -126 -270t-246 -82q-88 0 -134 26l50 117q49 -25 102 -24q96 0 148 50t75 163l197 1015h-184l24 119h184l13 66q35 186 127 269t254 83z" />
    <glyph glyph-name="circumflex" unicode="&#x2c6;" horiz-adv-x="757" 
d="M209 1159h-148l295 309h45l295 -309h-147l-170 182z" />
    <glyph glyph-name="caron" unicode="&#x2c7;" horiz-adv-x="757" 
d="M401 1159h-45l-295 309h148l170 -182l170 182h147z" />
    <glyph glyph-name="breve" unicode="&#x2d8;" horiz-adv-x="489" 
d="M348 1434h105q-1 -100 -59 -162t-156 -62t-156 62t-59 162h104q0 -55 29 -88t82 -33q110 0 110 121z" />
    <glyph glyph-name="dotaccent" unicode="&#x2d9;" horiz-adv-x="512" 
d="M256 1434q45 0 75 -30q29 -30 29 -75t-30 -75t-74 -30q-45 0 -76 29q-29 31 -28 76q0 45 30 75t74 30z" />
    <glyph glyph-name="ring" unicode="&#x2da;" horiz-adv-x="479" 
d="M135 1339q0 -47 30 -77t76 -29q47 0 75 30q28 29 28 77t-29 79t-75 31t-75 -32q-30 -32 -30 -79zM41 1338q0 84 57 142q56 58 142 58t142 -57t56 -141t-56 -140q-56 -55 -141 -55t-143 55q-57 55 -57 138z" />
    <glyph glyph-name="ogonek" unicode="&#x2db;" horiz-adv-x="425" 
d="M139 -287q0 -68 68 -67q51 0 117 86l79 -64q-57 -76 -104 -106t-117 -31q-70 0 -114 43t-43 115q-1 106 116 188h113q-115 -104 -115 -164z" />
    <glyph glyph-name="tilde" unicode="&#x2dc;" horiz-adv-x="772" 
d="M244 1419q74 0 147 -43q78 -41 121 -41q78 0 137 74l82 -63q-76 -141 -203 -142q-72 0 -148 42t-120 42q-80 0 -137 -74l-82 64q78 141 203 141z" />
    <glyph glyph-name="hungarumlaut" unicode="&#x2dd;" horiz-adv-x="731" 
d="M463 1147h-101l144 287h190zM152 1147h-101l144 287h190z" />
    <glyph glyph-name="uni2206" unicode="&#x394;" horiz-adv-x="1339" 
d="M1053 119l-383 1124l-383 -1124h766zM1221 0h-1102v33l483 1401h135l484 -1401v-33z" />
    <glyph glyph-name="uni2206" unicode="&#x2206;" horiz-adv-x="1339" 
d="M1053 119l-383 1124l-383 -1124h766zM1221 0h-1102v33l483 1401h135l484 -1401v-33z" />
    <glyph glyph-name="uni2126" unicode="&#x3a9;" horiz-adv-x="1396" 
d="M594 0h-430v115h282q-29 45 -78 155q-50 110 -78 189q-28 78 -57 205t-28 237q0 245 134 397t360 152t358 -154q135 -152 135 -395q0 -324 -209 -725l-33 -61h283v-115h-430v39q29 49 78 167t77 206q28 86 58 226q29 140 28 263q0 199 -95 317t-251 118t-251 -118
t-95 -317q0 -358 207 -795l35 -67v-39z" />
    <glyph glyph-name="uni2126" unicode="&#x2126;" horiz-adv-x="1396" 
d="M594 0h-430v115h282q-29 45 -78 155q-50 110 -78 189q-28 78 -57 205t-28 237q0 245 134 397t360 152t358 -154q135 -152 135 -395q0 -324 -209 -725l-33 -61h283v-115h-430v39q29 49 78 167t77 206q28 86 58 226q29 140 28 263q0 199 -95 317t-251 118t-251 -118
t-95 -317q0 -358 207 -795l35 -67v-39z" />
    <glyph glyph-name="pi" unicode="&#x3c0;" horiz-adv-x="1214" 
d="M297 918h-182v114h985v-114h-182v-918h-127v918h-367v-918h-127v918z" />
    <glyph glyph-name="uni2000" unicode="&#x2000;" horiz-adv-x="968" 
 />
    <glyph glyph-name="uni2001" unicode="&#x2001;" horiz-adv-x="1939" 
 />
    <glyph glyph-name="uni2002" unicode="&#x2002;" horiz-adv-x="968" 
 />
    <glyph glyph-name="uni2003" unicode="&#x2003;" horiz-adv-x="1939" 
 />
    <glyph glyph-name="uni2004" unicode="&#x2004;" horiz-adv-x="645" 
 />
    <glyph glyph-name="uni2005" unicode="&#x2005;" horiz-adv-x="483" 
 />
    <glyph glyph-name="uni2006" unicode="&#x2006;" horiz-adv-x="321" 
 />
    <glyph glyph-name="uni2007" unicode="&#x2007;" horiz-adv-x="321" 
 />
    <glyph glyph-name="uni2008" unicode="&#x2008;" horiz-adv-x="241" 
 />
    <glyph glyph-name="uni2009" unicode="&#x2009;" horiz-adv-x="387" 
 />
    <glyph glyph-name="uni200A" unicode="&#x200a;" horiz-adv-x="106" 
 />
    <glyph glyph-name="uni2010" unicode="&#x2010;" horiz-adv-x="964" 
d="M819 592h-674v115h674v-115z" />
    <glyph glyph-name="uni2011" unicode="&#x2011;" horiz-adv-x="964" 
d="M819 592h-674v115h674v-115z" />
    <glyph glyph-name="endash" unicode="&#x2013;" horiz-adv-x="1140" 
d="M985 592h-838v115h838v-115z" />
    <glyph glyph-name="emdash" unicode="&#x2014;" horiz-adv-x="1560" 
d="M1405 592h-1258v115h1258v-115z" />
    <glyph glyph-name="quoteleft" unicode="&#x2018;" horiz-adv-x="563" 
d="M123 1450h211l125 -377h-101z" />
    <glyph glyph-name="quoteright" unicode="&#x2019;" horiz-adv-x="563" 
d="M205 1073h-101l125 377h211z" />
    <glyph glyph-name="quotesinglbase" unicode="&#x201a;" horiz-adv-x="563" 
d="M205 -29h-101l125 377h211z" />
    <glyph glyph-name="quotedblleft" unicode="&#x201c;" horiz-adv-x="856" 
d="M123 1450h211l125 -377h-101zM416 1450h211l125 -377h-101z" />
    <glyph glyph-name="quotedblright" unicode="&#x201d;" horiz-adv-x="856" 
d="M498 1073h-101l125 377h211zM205 1073h-101l125 377h211z" />
    <glyph glyph-name="quotedblbase" unicode="&#x201e;" horiz-adv-x="856" 
d="M498 -29h-101l125 377h211zM205 -29h-101l125 377h211z" />
    <glyph glyph-name="dagger" unicode="&#x2020;" horiz-adv-x="942" 
d="M410 918h-277v114h277v504h122v-504h277v-114h-277v-1020h-122v1020z" />
    <glyph glyph-name="daggerdbl" unicode="&#x2021;" horiz-adv-x="942" 
d="M410 918h-277v114h277v504h122v-504h277v-114h-277v-402h277v-115h-277v-503h-122v503h-277v115h277v402z" />
    <glyph glyph-name="bullet" unicode="&#x2022;" horiz-adv-x="622" 
d="M178 676q0 55 39 94t94 39t95 -39t38 -94q0 -55 -38 -94t-94 -39t-95 39t-39 94z" />
    <glyph glyph-name="ellipsis" unicode="&#x2026;" horiz-adv-x="1593" 
d="M1407 100q0 -44 -30 -74q-31 -30 -75 -30t-74 28t-30 75q0 46 30 76t75 30t75 -30t29 -75zM692 110q0 58 66 86t112 -22q50 -47 22 -113t-95 -65q-47 0 -76 28t-29 86zM291 -4q-45 0 -75 28t-30 75q0 46 30 76t75 30t75 -30t30 -75q0 -44 -30 -74t-75 -30z" />
    <glyph glyph-name="uni202F" unicode="&#x202f;" horiz-adv-x="387" 
 />
    <glyph glyph-name="perthousand" unicode="&#x2030;" horiz-adv-x="2547" 
d="M2310 311q0 97 -57 157t-153 60t-154 -60t-58 -156t58 -157t153 -61t153 60t58 157zM1778 310q0 136 90 233q92 96 231 96t231 -95q92 -96 91 -234q0 -138 -90 -232q-91 -94 -231 -94t-232 94q-90 96 -90 232zM266 18l1110 1465l86 -68l-1110 -1464zM1280 528
q-97 0 -154 -60t-57 -156t57 -157q58 -61 154 -61t154 60t57 157q0 97 -57 157t-154 60zM1280 639q139 0 230 -95q92 -96 92 -234t-93 -232q-88 -94 -228 -94t-232 94q-91 96 -91 232t91 233q92 96 231 96zM659 1122q0 96 -57 156q-58 60 -154 61q-96 0 -153 -60
q-57 -61 -57 -157t57 -156t153 -60t154 60q57 60 57 156zM127 1121q0 136 90 233q91 96 231 96t231 -96t91 -234t-90 -231q-90 -94 -230 -94t-233 94q-90 96 -90 232z" />
    <glyph glyph-name="guilsinglleft" unicode="&#x2039;" horiz-adv-x="763" 
d="M641 193l-539 399v86l539 399v-139l-405 -303l405 -303v-139z" />
    <glyph glyph-name="guilsinglright" unicode="&#x203a;" horiz-adv-x="763" 
d="M123 1077l539 -399v-86l-539 -399v139l405 303l-405 303v139z" />
    <glyph glyph-name="fraction" unicode="&#x2044;" horiz-adv-x="1245" 
d="M25 18l1110 1465l86 -68l-1110 -1464z" />
    <glyph glyph-name="uni205F" unicode="&#x205f;" horiz-adv-x="483" 
 />
    <glyph glyph-name="uni2070" unicode="&#x2070;" horiz-adv-x="788" 
d="M209 1024q0 -156 50 -238t136 -82t136 82t51 238q-1 156 -51 238t-136 82t-137 -82q-49 -82 -49 -238zM394 1442q140 0 218 -115t78 -304t-77 -303t-219 -114t-219 114t-77 303t78 304t218 115z" />
    <glyph glyph-name="uni2074" unicode="&#x2074;" horiz-adv-x="692" 
d="M422 883v399l-209 -399h209zM524 614h-102v170h-350v35l331 615h121v-551h107v-99h-107v-170z" />
    <glyph glyph-name="uni2075" unicode="&#x2075;" horiz-adv-x="681" 
d="M354 705q76 0 116 47t40 131q0 180 -156 180q-96 0 -159 -92l-74 16l43 447h407v-99h-319l-27 -235q51 57 157 57t172 -73q66 -72 67 -200q0 -128 -73 -203q-72 -75 -184 -75t-180 60t-82 165l101 19q31 -145 151 -145z" />
    <glyph glyph-name="uni2076" unicode="&#x2076;" horiz-adv-x="747" 
d="M535 879q0 79 -41 123t-115 44t-116 -45q-42 -46 -42 -123t43 -125t115 -48t114 48t42 126zM391 1145q115 0 185 -74q70 -73 69 -193q0 -120 -73 -196q-74 -76 -194 -76t-194 76t-74 178t50 191l223 391h111l-187 -318q21 21 84 21z" />
    <glyph glyph-name="uni2077" unicode="&#x2077;" horiz-adv-x="602" 
d="M94 1335v99h467v-45l-317 -775h-111l297 721h-336z" />
    <glyph glyph-name="uni2078" unicode="&#x2078;" horiz-adv-x="724" 
d="M362 1352q-58 0 -92 -35t-34 -91t34 -91t92 -35q57 0 93 35q35 35 35 91t-35 91t-93 35zM217 857q0 -69 39 -111q38 -42 106 -42t107 42t39 111t-39 107t-107 38t-106 -38t-39 -107zM137 1214q1 106 63 167t162 61t163 -60t63 -168q0 -106 -96 -159q57 -19 92 -73
t34 -126q0 -114 -72 -182t-184 -68t-184 69t-72 181q0 72 35 125t92 74q-96 53 -96 159z" />
    <glyph glyph-name="uni2079" unicode="&#x2079;" horiz-adv-x="747" 
d="M213 1169q0 -79 41 -123t115 -44q73 0 115 45q42 46 42 123t-43 125t-115 48t-113 -48q-42 -48 -42 -126zM356 903q-114 0 -184 74q-70 73 -70 193t73 196t194 76t195 -76t73 -178q0 -102 -49 -191l-223 -391h-111l186 318q-21 -21 -84 -21z" />
    <glyph glyph-name="Euro" unicode="&#x20ac;" horiz-adv-x="1253" 
d="M233 809h-161l59 115h111q33 244 172 385t358 141q256 0 391 -238l-112 -61q-86 184 -279 184q-160 0 -263 -106t-134 -305h528l-59 -115h-479v-184h538l-59 -115h-469q31 -199 134 -305t263 -107q193 0 279 185l112 -62q-135 -238 -391 -237q-219 0 -358 141t-172 385
h-170l59 115h102v184z" />
    <glyph glyph-name="trademark" unicode="&#x2122;" horiz-adv-x="1660" 
d="M784 614v820h107l242 -578l241 578h107v-820h-101v605l-219 -529h-57l-219 529v-605h-101zM295 1343h-234v91h568v-91h-234v-729h-100v729z" />
    <glyph glyph-name="partialdiff" unicode="&#x2202;" horiz-adv-x="1212" 
d="M645 930q-186 0 -297 -152t-110 -352q0 -143 74 -233t196 -91q190 0 311 151t121 351q0 154 -78 240t-217 86zM629 1450q219 0 336 -186t116 -537q0 -203 -61 -371q-62 -168 -196 -270t-314 -102t-294 120t-114 318q0 258 154 442q158 184 408 185q84 0 164 -33t118 -84
q-18 184 -107 292t-225 107q-168 0 -262 -184l-133 35q57 128 161 198t249 70z" />
    <glyph glyph-name="product" unicode="&#x220f;" horiz-adv-x="1107" 
d="M319 0h-126v1434h722v-1434h-127v1319h-469v-1319z" />
    <glyph glyph-name="summation" unicode="&#x2211;" horiz-adv-x="1110" 
d="M123 1434h852v-115h-660l375 -586v-33l-375 -585h660v-115h-852v31l440 686l-440 686v31z" />
    <glyph glyph-name="minus" unicode="&#x2212;" horiz-adv-x="1114" 
d="M981 592h-840v115h840v-115z" />
    <glyph glyph-name="radical" unicode="&#x221a;" horiz-adv-x="1130" 
d="M123 682v115h272l191 -576l372 1229h115l-440 -1450h-96l-222 682h-192z" />
    <glyph glyph-name="infinity" unicode="&#x221e;" horiz-adv-x="1794" 
d="M1276 459q124 -1 196 73t72 203t-73 203t-195 74q-186 0 -324 -277q138 -276 324 -276zM518 459q186 0 324 276q-137 276 -324 277q-124 0 -196 -74t-72 -203t72 -203t196 -73zM1303 344q-225 0 -406 272q-180 -272 -405 -272q-166 0 -268 108t-101 283q0 176 101 284
t268 107q225 0 405 -272q180 272 406 272q164 0 266 -108t102 -283t-102 -283t-266 -108z" />
    <glyph glyph-name="integral" unicode="&#x222b;" horiz-adv-x="958" 
d="M838 1450q80 0 125 -27l-50 -116q-45 25 -102 24q-180 0 -223 -213l-234 -1200q-37 -188 -126 -270t-246 -82q-88 0 -134 26l50 117q49 -25 102 -24q96 0 148 50t75 163l234 1200q37 186 128 269t253 83z" />
    <glyph glyph-name="approxequal" unicode="&#x2248;" horiz-adv-x="1171" 
d="M393 1020q77 0 185 -55t199 -55t169 91l82 -79q-115 -160 -250 -160q-78 0 -186 55t-182 55q-107 0 -185 -92l-82 80q115 160 250 160zM762 500q106 0 184 92l82 -80q-115 -160 -250 -160q-78 0 -186 56t-182 55q-107 0 -185 -92l-82 80q115 160 250 159q77 0 185 -55
t184 -55z" />
    <glyph glyph-name="notequal" unicode="&#x2260;" horiz-adv-x="1136" 
d="M172 748v114h461l131 228l98 -58l-98 -170h201v-114h-267l-129 -226h396v-114h-461l-131 -228l-99 58l99 170h-201v114h266l129 226h-395z" />
    <glyph glyph-name="lessequal" unicode="&#x2264;" horiz-adv-x="1085" 
d="M874 385l-684 369v139l684 369v-127l-579 -312l579 -311v-127zM952 0h-837v115h837v-115z" />
    <glyph glyph-name="greaterequal" unicode="&#x2265;" horiz-adv-x="1085" 
d="M211 1262l684 -369v-139l-684 -369v127l580 311l-580 312v127zM133 115h838v-115h-838v115z" />
    <glyph glyph-name="lozenge" unicode="&#x25ca;" horiz-adv-x="1146" 
d="M272 717l301 -586l301 586l-301 586zM637 0h-127l-369 717l369 717h127l369 -717z" />
    <glyph glyph-name="NULL" horiz-adv-x="0" 
 />
    <glyph glyph-name="CR" horiz-adv-x="681" 
 />
    <glyph glyph-name="CR.001" horiz-adv-x="516" 
 />
    <glyph glyph-name="apple" horiz-adv-x="1626" 
d="M858 242l473 -138v844q-76 -124 -201 -200t-272 -89v-417zM295 948v-844l473 138v417q-150 12 -274 89t-199 200zM1329 1233l-471 137v-620q193 16 326 154t145 329zM768 750v620l-471 -137q12 -190 145 -330q136 -137 326 -153zM1419 1264v-1219q0 -17 -13 -31
q-12 -14 -26 -14t-20 2l-547 158l-547 -158q-6 -2 -19 -2t-27 13q-13 13 -13 32v1219q0 37 33 45l553 159q20 8 41 0l552 -159q33 -8 33 -45z" />
    <glyph glyph-name="No" horiz-adv-x="2486" 
d="M1888 1331q-164 0 -257 -123q-93 -122 -93 -290t93 -291t257 -123t257 122t93 292t-94 290q-92 123 -256 123zM1405 918q0 212 133 372t350 160t350 -161q134 -161 134 -371t-134 -372q-134 -161 -350 -161q-217 0 -350 161t-133 372zM2308 0h-838v115h838v-115z
M1077 1434h135v-1434h-159l-711 1214v-1214h-135v1434h160l710 -1219v1219z" />
    <glyph glyph-name="zero.tn" 
d="M580 1335q-170 0 -266 -170q-96 -171 -97 -449q0 -278 96 -448q97 -170 267 -170t266 170t96 448t-96 449q-96 170 -266 170zM579 1450q243 0 369 -199t125 -535q0 -336 -126 -534q-127 -198 -369 -198t-367 198t-125 536t125 535t368 197z" />
    <glyph glyph-name="one.tn" 
d="M700 1434v-1434h-127v1217l-237 -150v156l332 211h32z" />
    <glyph glyph-name="two.tn" 
d="M1006 0h-848v47l522 676q100 127 130 193t30 172t-68 177t-182 71t-189 -81q-76 -80 -94 -208l-119 22q14 164 122 272q108 109 280 109q170 0 275 -102t105 -272t-173 -394l-439 -567h648v-115z" />
    <glyph glyph-name="three.tn" 
d="M590 98q144 0 228 90t83 253q0 163 -84 251t-237 88q-68 0 -127 -37l-62 80l371 496h-551v115h750v-35l-388 -514q18 6 54 6q165 0 285 -122t120 -329t-123 -331q-119 -125 -314 -125t-315 110t-141 299l127 19q16 -146 98 -230t226 -84z" />
    <glyph glyph-name="four.tn" 
d="M729 444v809l-453 -809h453zM856 0h-127v330h-633v35l604 1069h156v-990h191v-114h-191v-330z" />
    <glyph glyph-name="five.tn" 
d="M582 98q152 0 232 98t79 274q0 177 -81 271t-230 95q-182 0 -295 -193l-90 21l73 770h670v-115h-555l-51 -488q111 119 260 119q198 0 314 -130t116 -350t-120 -353t-308 -133t-299 100q-110 100 -135 293l125 22q41 -301 295 -301z" />
    <glyph glyph-name="six.tn" 
d="M580 803q-140 0 -228 -96t-88 -253t88 -257q90 -99 228 -99t226 100q89 100 89 257q0 156 -87 252t-228 96zM580 918q194 0 320 -134t126 -334t-126 -333t-320 -133t-322 133q-125 133 -125 334q0 131 76 264l424 735h133l-320 -567q48 35 134 35z" />
    <glyph glyph-name="seven.tn" 
d="M190 1319v115h795v-41l-567 -1393h-133l549 1319h-644z" />
    <glyph glyph-name="eight.tn" 
d="M580 819q114 0 184 70q70 69 70 187t-71 189t-183 71t-184 -72q-70 -70 -70 -188t70 -188t184 -69zM580 98q137 0 218 81t81 221t-81 222t-218 83q-136 0 -218 -82q-82 -81 -82 -221t82 -222q81 -82 218 -82zM961 1077q1 -102 -49 -182t-132 -123q100 -37 165 -139
t65 -232q0 -197 -124 -307t-306 -110t-308 110q-123 111 -122 307q0 129 64 232q65 102 165 139q-82 43 -131 123t-49 182q0 169 105 271q106 102 276 102t274 -104q107 -101 107 -269z" />
    <glyph glyph-name="nine.tn" 
d="M895 979q0 156 -89 256t-227 100q-139 0 -227 -98t-88 -256t87 -254t229 -96t228 96q87 96 87 252zM580 516q-195 0 -322 133q-125 133 -125 334t126 334t321 133q194 0 320 -133t126 -334q0 -131 -76 -264l-424 -735h-133l320 567q-47 -35 -133 -35z" />
    <glyph glyph-name="edition" horiz-adv-x="5101" 
d="M4428 1023q0 -155 50 -237t136 -82t136 82t51 238q-1 156 -51 238t-136 82t-137 -82q-49 -84 -49 -239zM4613 1442q140 0 218 -115t78 -304t-77 -303t-219 -114t-219 114t-77 303t78 304t218 115zM3609 1023q0 -155 50 -237t136 -82t136 82t50 238t-50 238t-136 82
t-137 -82q-49 -84 -49 -239zM3794 1442q140 0 218 -115t78 -304t-77 -303t-219 -114t-219 114t-77 303t78 304t218 115zM3162 1024q0 156 -50 238t-136 82t-137 -82q-49 -84 -49 -239t50 -237t136 -82t136 82t50 238zM2975 1442q140 0 218 -115t78 -304t-77 -303t-219 -114
t-219 114t-77 303t78 304t218 115zM1888 1331q-164 0 -257 -123q-93 -122 -93 -290t93 -291t257 -123t257 122t93 292t-94 290q-92 123 -256 123zM1405 918q0 212 133 372t350 160t350 -161q134 -161 134 -371t-134 -372q-134 -161 -350 -161q-217 0 -350 161t-133 372z
M2308 0h-838v115h838v-115zM1077 1434h135v-1434h-159l-711 1214v-1214h-135v1434h160l710 -1219v1219z" />
    </font>
</defs>
</svg>
