<?xml version="1.0" standalone="no"?>
<!DOCTYPE svg PUBLIC "-//W3C//DTD SVG 1.1//EN" "http://www.w3.org/Graphics/SVG/1.1/DTD/svg11.dtd" >
<svg xmlns="http://www.w3.org/2000/svg">
<metadata>
Created by FontPrep 20130207 at Thu May 14 18:44:10 2015
 By Tom Galle
Copyright (c) 2009 by The Entente (AS &#38; EH). All rights reserved. wf-rip
</metadata>
<defs>
<font id="773d68d038fe7c6746af87cbb1789f49" horiz-adv-x='1024' >
  <font-face 
    font-family="Apercu"
    font-weight="400"
    font-stretch="normal"
    units-per-em="2048"
    panose-1="2 0 5 6 4 0 0 2 0 4"
    ascent="1638"
    descent="-410"
    x-height="1032"
    cap-height="1434"
    bbox="-174 -482 2458 1944"
    underline-thickness="102"
    underline-position="-102"
    unicode-range="U+0020-FB02"
  />
<missing-glyph horiz-adv-x="1271" 
d="M901 156v1122h-530v-1122h530zM1073 0h-874v1434h874v-1434z" />
    <glyph glyph-name="uniFB01" unicode="fi" horiz-adv-x="1114" 
d="M244 877h-148v155h148v33q0 181 114 283t283 102q170 0 266 -68l-37 -147q-100 59 -218 59q-236 0 -236 -227v-35h526v-1032h-172v877h-354v-877h-172v877z" />
    <glyph glyph-name="uniFB02" unicode="fl" horiz-adv-x="1206" 
d="M244 877h-148v155h148v53q0 177 106 271t273 94h411v-1450h-172v1294h-241q-93 0 -149 -54t-56 -153v-55h237v-155h-237v-877h-172v877z" />
    <glyph glyph-name=".notdef" horiz-adv-x="1271" 
d="M901 156v1122h-530v-1122h530zM1073 0h-874v1434h874v-1434z" />
    <glyph glyph-name=".null" horiz-adv-x="0" 
 />
    <glyph glyph-name="nonmarkingreturn" horiz-adv-x="681" 
 />
    <glyph glyph-name="space" unicode=" " horiz-adv-x="548" 
 />
    <glyph glyph-name="exclam" unicode="!" horiz-adv-x="706" 
d="M215 134q0 60 41 102t102 43q60 0 102 -42q42 -43 42 -103t-41 -100t-103 -40t-102 40q-41 40 -41 100zM291 410l-49 1024h233l-49 -1024h-135z" />
    <glyph glyph-name="quotedbl" unicode="&#x22;" horiz-adv-x="903" 
d="M672 975h-127l-51 475h229zM358 975h-127l-51 475h230z" />
    <glyph glyph-name="numbersign" unicode="#" horiz-adv-x="1478" 
d="M915 868h-290l-62 -303h291zM229 868v140h275l88 426h149l-88 -426h291l86 426h150l-86 -426h237v-140h-266l-61 -303h245v-139h-274l-88 -426h-150l88 426h-290l-86 -426h-150l86 426h-238v139h267l61 303h-246z" />
    <glyph glyph-name="dollar" unicode="$" horiz-adv-x="1071" 
d="M529 1280q-73 0 -123 -53t-50 -140t84 -153q59 -41 82 -53l111 -58q117 -59 188 -112q145 -109 154 -299q1 -174 -103 -286t-245 -134v-176h-164v174q-145 25 -248 128q-102 103 -133 253l156 94q46 -156 116 -233q70 -76 193 -76t185 75t62 170t-64 156q-65 61 -206 129
q-150 68 -248 155t-100 233q0 146 81 246t206 124v174h164v-176q180 -35 274 -221l-145 -95q-46 86 -100 120t-127 34z" />
    <glyph glyph-name="percent" unicode="%" horiz-adv-x="1724" 
d="M258 23l1102 1470l102 -80l-1102 -1472zM1456 309q0 80 -48 133t-130 53t-130 -53t-48 -132t47 -132q49 -51 132 -51t128 51q49 51 49 131zM950 310q0 138 95 234t233 95q138 0 232 -95q96 -96 96 -234t-94 -232t-234 -94t-234 94t-94 232zM446 1306q-82 0 -130 -53
t-48 -132t47 -132q49 -51 132 -51t128 51q49 51 49 131t-48 133t-130 53zM119 1121q0 137 95 233t232 96q136 0 232 -95t96 -233t-94 -233q-94 -94 -234 -94t-233 94q-94 94 -94 232z" />
    <glyph glyph-name="ampersand" unicode="&#x26;" horiz-adv-x="1386" 
d="M780 1146q0 70 -45 114t-113 43q-68 0 -110 -46q-43 -46 -43 -129t100 -215q109 53 160 109q51 54 51 124zM586 143q176 0 284 133l-352 453q-197 -111 -196 -323q0 -121 74 -192t190 -71zM586 -16q-199 0 -316 114t-116 312q0 147 79 262q86 117 197 174
q-125 168 -125 300t90 218q93 86 233 86t227 -81t87 -206q0 -86 -54 -178t-224 -182l299 -379q43 88 96 244l115 -125q-55 -154 -107 -252l229 -291h-206l-121 152q-147 -168 -383 -168z" />
    <glyph glyph-name="quotesingle" unicode="'" horiz-adv-x="589" 
d="M358 975h-127l-51 475h230z" />
    <glyph glyph-name="parenleft" unicode="(" horiz-adv-x="598" 
d="M322 717q0 -479 215 -819h-172q-219 346 -220 819q1 473 220 819h172q-215 -340 -215 -819z" />
    <glyph glyph-name="parenright" unicode=")" horiz-adv-x="598" 
d="M276 717q0 479 -215 819h172q219 -346 219 -819t-219 -819h-172q215 340 215 819z" />
    <glyph glyph-name="asterisk" unicode="*" horiz-adv-x="999" 
d="M430 1450h139v-283l269 88l43 -133l-267 -88l164 -227l-112 -80l-166 227l-166 -227l-113 80l164 227l-266 88l43 133l268 -88v283z" />
    <glyph glyph-name="plus" unicode="+" horiz-adv-x="1163" 
d="M508 729v375h151v-375h375v-151h-375v-375h-151v375h-375v151h375z" />
    <glyph glyph-name="comma" unicode="," horiz-adv-x="651" 
d="M270 -219h-131l135 444h234z" />
    <glyph glyph-name="hyphen" unicode="-" horiz-adv-x="985" 
d="M840 573h-695v152h695v-152z" />
    <glyph glyph-name="period" unicode="." horiz-adv-x="626" 
d="M184 120q0 54 37 92t91 38t92 -38t38 -92t-38 -91t-92 -37t-91 37t-37 91z" />
    <glyph glyph-name="slash" unicode="/" horiz-adv-x="1112" 
d="M39 -102l893 1638h172l-893 -1638h-172z" />
    <glyph glyph-name="zero" unicode="0" horiz-adv-x="1277" 
d="M315 717q0 -270 82 -420t242 -150t242 150t82 420t-82 420q-82 149 -242 149t-242 -150t-82 -419zM639 1450q246 0 375 -195t129 -537t-129 -539q-129 -195 -375 -195t-375 196t-129 538t129 537t375 195z" />
    <glyph glyph-name="one" unicode="1" horiz-adv-x="770" 
d="M584 1434v-1434h-168v1176l-264 -154v188l368 224h64z" />
    <glyph glyph-name="two" unicode="2" horiz-adv-x="1167" 
d="M1014 0h-867v80l547 700q68 84 92 144t25 143q0 84 -55 152q-56 67 -162 67t-170 -66q-63 -67 -74 -180l-172 33q8 161 126 269t282 108q201 0 311 -125q90 -102 90 -267t-115 -317l-446 -577h588v-164z" />
    <glyph glyph-name="three" unicode="3" horiz-adv-x="1183" 
d="M582 754q-74 0 -127 -27l-72 96l328 447h-518v164h778v-56l-365 -493q18 6 58 6q164 0 272 -122q108 -123 108 -323t-129 -331t-322 -131t-321 114t-147 295l172 23q41 -268 285 -269q131 0 209 81q77 80 77 222t-77 223q-78 81 -209 81z" />
    <glyph glyph-name="four" unicode="4" horiz-adv-x="1220" 
d="M754 469v694l-389 -694h389zM930 0h-176v305h-623v72l606 1057h193v-965h178v-164h-178v-305z" />
    <glyph glyph-name="five" unicode="5" horiz-adv-x="1185" 
d="M604 147q120 0 192 86q72 85 72 233t-72 234q-73 86 -202 86q-168 0 -289 -159l-108 24l77 783h684v-164h-534l-53 -416q92 96 235 96q205 0 322 -133q116 -133 116 -349t-122 -351q-122 -133 -316 -133t-310 102t-136 289l174 33q14 -127 82 -194t188 -67z" />
    <glyph glyph-name="six" unicode="6" horiz-adv-x="1181" 
d="M608 754q-120 0 -196 -83t-76 -217t77 -220t195 -87q118 0 196 86q77 87 77 221t-76 217t-197 83zM608 918q199 0 324 -136q129 -130 129 -330t-128 -334t-325 -134t-325 133q-127 137 -127 334q0 139 73 264l424 735h197l-311 -547q28 15 69 15z" />
    <glyph glyph-name="seven" unicode="7" horiz-adv-x="987" 
d="M113 1270v164h817v-76l-557 -1358h-180l526 1270h-606z" />
    <glyph glyph-name="eight" unicode="8" horiz-adv-x="1196" 
d="M598 840q102 0 162 63t59 163q0 100 -59 164q-58 64 -160 64t-164 -63q-59 -66 -59 -164t59 -164q60 -63 162 -63zM598 676q-114 0 -190 -72q-74 -72 -74 -192t75 -193q75 -72 189 -72t190 72q74 73 74 193t-74 192q-76 72 -190 72zM991 1067q0 -92 -45 -174t-117 -121
q101 -45 157 -139t56 -221q0 -197 -129 -314q-131 -114 -315 -114t-315 114q-129 117 -129 314q0 127 56 221t157 139q-72 39 -117 121t-45 174q1 163 111 273t282 110t282 -110t111 -273z" />
    <glyph glyph-name="nine" unicode="9" horiz-adv-x="1181" 
d="M881 980q0 134 -77 220t-196 86q-120 0 -196 -86t-76 -220t76 -217t196 -83t197 83q76 83 76 217zM608 516q-197 0 -325 133q-127 137 -127 335t128 332t326 134t322 -135q129 -131 129 -332q0 -139 -74 -264l-424 -735h-196l311 546q-29 -14 -70 -14z" />
    <glyph glyph-name="colon" unicode=":" horiz-adv-x="626" 
d="M184 824q0 54 37 92t91 38t92 -38t38 -92t-38 -91t-92 -37t-91 37t-37 91zM184 120q0 54 37 92t91 38t92 -38t38 -92t-38 -91t-92 -37t-91 37t-37 91z" />
    <glyph glyph-name="semicolon" unicode=";" horiz-adv-x="626" 
d="M205 -219h-131l135 444h233zM180 824q0 54 37 92t91 38t92 -38t38 -92t-38 -91t-92 -37t-91 37t-37 91z" />
    <glyph glyph-name="less" unicode="&#x3c;" horiz-adv-x="931" 
d="M817 166l-715 379v180l715 379v-176l-547 -293l547 -293v-176z" />
    <glyph glyph-name="equal" unicode="=" horiz-adv-x="1226" 
d="M1022 389h-817v152h817v-152zM1022 729h-817v152h817v-152z" />
    <glyph glyph-name="greater" unicode="&#x3e;" horiz-adv-x="931" 
d="M115 1104l714 -379v-180l-714 -379v176l547 293l-547 293v176z" />
    <glyph glyph-name="question" unicode="?" horiz-adv-x="917" 
d="M469 412q-123 0 -197 68t-73 188q0 170 174 258q33 18 101 46t87 38q90 49 90 145q0 68 -48 110t-128 42q-80 1 -136 -51t-81 -140l-160 27q31 143 128 225t251 82t248 -88t94 -217q0 -168 -155 -244l-207 -100q-100 -55 -101 -142q0 -49 29 -77t78 -27q94 0 147 121
l133 -47q-74 -217 -274 -217zM334 130q0 58 39 98t97 40t98 -40t40 -98t-40 -97t-98 -39t-97 39t-39 97z" />
    <glyph glyph-name="at" unicode="@" horiz-adv-x="1884" 
d="M944 905q-116 0 -182 -84q-66 -85 -66 -207q0 -242 199 -241q115 0 183 87t67 220q0 225 -201 225zM1386 373q178 0 179 348q0 602 -590 602q-261 0 -449 -188t-188 -509t187 -496t448 -175q137 0 248 26t252 99l57 -137q-178 -80 -287 -108t-270 -28q-350 0 -580 222
q-227 223 -227 601t242 608q242 232 584 232t542 -196q203 -193 203 -553q1 -242 -97 -371t-262 -129q-78 0 -138 39t-91 102q-92 -141 -262 -141q-170 1 -264 107q-95 106 -95 284t117 312q121 133 313 133q160 0 228 -117l20 102h135l-47 -516l-4 -47q0 -106 96 -106z" />
    <glyph glyph-name="A" unicode="A" horiz-adv-x="1212" 
d="M823 555l-217 645l-217 -645h434zM25 0l495 1434h172l496 -1434h-180l-127 383h-549l-127 -383h-180z" />
    <glyph glyph-name="B" unicode="B" horiz-adv-x="1265" 
d="M672 1262h-293v-412h293q106 0 167 53q60 53 60 151q-1 98 -61 154q-60 54 -166 54zM682 678h-303v-506h303q287 0 287 253t-287 253zM199 0v1434h483q188 0 296 -98t107 -271q0 -90 -44 -166t-117 -115q109 -43 170 -137t61 -221q0 -198 -119 -312t-327 -114h-510z" />
    <glyph glyph-name="C" unicode="C" horiz-adv-x="1409" 
d="M113 717q0 346 188 540q190 193 459 193q215 0 363 -121t198 -313l-174 -51q-102 313 -387 313q-205 0 -333 -145t-128 -415t127 -417q129 -145 334 -145q285 0 387 313l174 -51q-49 -197 -195 -316t-366 -118q-268 0 -459 192q-188 195 -188 541z" />
    <glyph glyph-name="D" unicode="D" horiz-adv-x="1363" 
d="M561 1262h-182v-1090h182q208 0 347 121q71 61 111 170t40 254q0 408 -308 515q-88 30 -190 30zM199 0v1434h393q279 0 469 -192t190 -524q0 -333 -190 -528q-190 -190 -469 -190h-393z" />
    <glyph glyph-name="E" unicode="E" horiz-adv-x="1159" 
d="M199 0v1434h823v-172h-643v-412h520v-172h-520v-506h663v-172h-843z" />
    <glyph glyph-name="F" unicode="F" horiz-adv-x="1101" 
d="M199 0v1434h833v-172h-653v-428h530v-172h-530v-662h-180z" />
    <glyph glyph-name="G" unicode="G" horiz-adv-x="1462" 
d="M846 551v172h481v-723h-153l-19 197q-55 -97 -161 -155t-242 -58q-264 0 -452 189t-187 541q0 352 188 544t459 192q219 0 366 -116t197 -318l-174 -51q-100 313 -389 313q-205 0 -333 -145t-128 -415t127 -417q130 -145 320 -145t294 106t115 289h-309z" />
    <glyph glyph-name="H" unicode="H" horiz-adv-x="1413" 
d="M1034 848v586h180v-1434h-180v676h-655v-676h-180v1434h180v-586h655z" />
    <glyph glyph-name="I" unicode="I" horiz-adv-x="577" 
d="M199 0v1434h180v-1434h-180z" />
    <glyph glyph-name="J" unicode="J" horiz-adv-x="1042" 
d="M694 449v985h180v-994q0 -217 -118 -337q-118 -119 -298 -119q-181 0 -293 103t-142 271l182 39q51 -242 252 -241q237 0 237 293z" />
    <glyph glyph-name="K" unicode="K" horiz-adv-x="1222" 
d="M379 0h-180v1434h180v-576l534 576h230l-582 -643l631 -791h-229l-584 723v-723z" />
    <glyph glyph-name="L" unicode="L" horiz-adv-x="1067" 
d="M199 0v1434h180v-1262h651v-172h-831z" />
    <glyph glyph-name="M" unicode="M" horiz-adv-x="1605" 
d="M199 0v1434h221l383 -1010l383 1010h221v-1434h-180v1044l-361 -913h-127l-360 913v-1044h-180z" />
    <glyph glyph-name="N" unicode="N" horiz-adv-x="1435" 
d="M1057 1434h180v-1434h-211l-647 1116v-1116h-180v1434h211l647 -1121v1121z" />
    <glyph glyph-name="O" unicode="O" horiz-adv-x="1511" 
d="M1212 717q0 271 -128 416t-328 145t-329 -145q-128 -145 -128 -415t127 -417q129 -145 330 -145q200 0 328 145t128 416zM113 716q0 344 187 539q188 195 456 195t455 -195t187 -539t-186 -538q-188 -194 -456 -194t-457 194q-186 194 -186 538z" />
    <glyph glyph-name="P" unicode="P" horiz-adv-x="1196" 
d="M379 786h330q111 0 170 62t59 176q0 115 -59 176t-170 62h-330v-476zM698 614h-319v-614h-180v1434h499q201 0 314 -110q112 -110 112 -300t-112 -300t-314 -110z" />
    <glyph glyph-name="Q" unicode="Q" horiz-adv-x="1511" 
d="M756 1278q-200 0 -329 -145q-128 -145 -128 -415t127 -417q129 -145 330 -145q155 0 264 84l-168 170l131 131l156 -158q74 135 73 334q0 269 -128 415t-328 146zM1399 717q0 -270 -129 -465l139 -137l-131 -131l-133 133q-170 -133 -389 -133q-268 0 -457 194
q-186 195 -186 539q0 345 187 539q188 194 456 194t456 -194t187 -539z" />
    <glyph glyph-name="R" unicode="R" horiz-adv-x="1312" 
d="M680 1262h-301v-414h301q231 0 231 207t-231 207zM379 676v-676h-180v1434h477q194 0 308 -102t114 -262q0 -162 -79 -258t-220 -124l428 -688h-213l-420 676h-215z" />
    <glyph glyph-name="S" unicode="S" horiz-adv-x="1071" 
d="M529 1278q-75 0 -123 -52t-50 -139q0 -87 84 -153q59 -41 82 -53l111 -58q117 -59 188 -112q145 -109 154 -299q0 -174 -111 -293q-123 -135 -308 -135t-311 107t-163 280l156 94q46 -156 116 -233q70 -76 193 -76t185 75t62 170t-64 156q-65 61 -206 129
q-150 68 -248 155t-100 243q0 156 104 262q104 104 245 104t229 -57t147 -172l-145 -95q-48 84 -100 118t-127 34z" />
    <glyph glyph-name="T" unicode="T" horiz-adv-x="1069" 
d="M444 1262h-413v172h1007v-172h-413v-1262h-181v1262z" />
    <glyph glyph-name="U" unicode="U" horiz-adv-x="1339" 
d="M168 487v947h180v-959q0 -143 86 -231t236 -88t236 88t85 231v959h180v-947q0 -239 -143 -371t-358 -132q-214 0 -358 132t-144 371z" />
    <glyph glyph-name="V" unicode="V" horiz-adv-x="1200" 
d="M600 256l393 1178h191l-494 -1434h-180l-494 1434h191z" />
    <glyph glyph-name="W" unicode="W" horiz-adv-x="1851" 
d="M1313 266l291 1168h190l-383 -1434h-188l-297 985l-297 -985h-189l-383 1434h191l291 -1168l305 1016h164z" />
    <glyph glyph-name="X" unicode="X" horiz-adv-x="1179" 
d="M487 770l-389 664h207l285 -488l284 488h207l-389 -664l453 -770h-207l-348 594l-348 -594h-207z" />
    <glyph glyph-name="Y" unicode="Y" horiz-adv-x="1036" 
d="M428 0v618l-420 816h199l311 -635l311 635h199l-420 -816v-618h-180z" />
    <glyph glyph-name="Z" unicode="Z" horiz-adv-x="1136" 
d="M117 1262v172h899v-86l-668 -1176h688v-172h-944v86l668 1176h-643z" />
    <glyph glyph-name="bracketleft" unicode="[" horiz-adv-x="661" 
d="M584 -102h-385v1638h385v-156h-222v-1327h222v-155z" />
    <glyph glyph-name="backslash" unicode="\" horiz-adv-x="1112" 
d="M901 -102l-893 1638h172l893 -1638h-172z" />
    <glyph glyph-name="bracketright" unicode="]" horiz-adv-x="661" 
d="M78 1380v156h385v-1638h-385v155h221v1327h-221z" />
    <glyph glyph-name="asciicircum" unicode="^" horiz-adv-x="1138" 
d="M119 862l381 572h139l381 -572h-170l-281 416l-280 -416h-170z" />
    <glyph glyph-name="underscore" unicode="_" horiz-adv-x="940" 
d="M879 -152h-818v152h818v-152z" />
    <glyph glyph-name="grave" unicode="`" horiz-adv-x="466" 
d="M39 1442h248l139 -295h-139z" />
    <glyph glyph-name="a" unicode="a" horiz-adv-x="1060" 
d="M922 659v-659h-136l-28 145q-113 -162 -324 -161q-145 0 -232 80t-87 237q0 158 124 246t343 88h168v45q0 213 -226 213q-82 0 -140 -43t-75 -119l-151 35q20 129 120 206t264 77q166 -1 273 -99t107 -291zM565 479q-131 0 -203 -47t-71 -128q0 -81 44 -123
q45 -42 145 -42t185 76t85 240v24h-185z" />
    <glyph glyph-name="b" unicode="b" horiz-adv-x="1230" 
d="M944 516q0 168 -82 272t-218 105q-136 0 -217 -103q-81 -104 -81 -274t81 -273t217 -103t218 104t82 272zM662 -16q-90 0 -176 41t-126 102v-127h-172v1450h172v-541q27 47 117 93t185 47q218 -1 338 -145t120 -388t-120 -388t-338 -144z" />
    <glyph glyph-name="c" unicode="c" horiz-adv-x="1101" 
d="M580 1049q307 0 432 -285l-150 -62q-84 190 -282 191q-139 0 -216 -103q-77 -104 -77 -274t77 -273t216 -104q198 1 282 191l150 -62q-125 -285 -432 -284q-225 0 -349 153q-121 158 -120 379q0 221 120 377q123 156 349 156z" />
    <glyph glyph-name="d" unicode="d" horiz-adv-x="1230" 
d="M287 516q0 -168 82 -272t218 -105t217 103t81 274t-81 274t-217 103t-218 -105t-82 -272zM569 1049q95 0 185 -46t116 -94v541h172v-1450h-172v127q-39 -61 -125 -102t-176 -41q-217 0 -338 144t-120 388t121 388t337 145z" />
    <glyph glyph-name="e" unicode="e" 
d="M579 893q-114 0 -186 -69t-96 -189h567q-25 121 -98 189t-187 69zM1044 559v-80h-757q8 -156 84 -248q77 -92 195 -92t186 47t112 150l152 -66q-72 -152 -175 -220t-263 -66q-223 0 -347 153q-121 158 -120 379q0 221 120 377q123 156 345 156t344 -144
q124 -139 124 -346z" />
    <glyph glyph-name="f" unicode="f" horiz-adv-x="745" 
d="M244 877h-148v155h148v68q0 172 86 261t248 89q90 0 147 -33l-35 -151q-61 28 -130 28q-144 -1 -144 -194v-68h237v-155h-237v-877h-172v877z" />
    <glyph glyph-name="g" unicode="g" horiz-adv-x="1038" 
d="M545 504q82 0 137 51t55 145t-55 146t-137 53q-82 0 -137 -52q-56 -53 -56 -147t56 -145t137 -51zM633 59h-209q-14 0 -76 4q-68 -51 -68 -146t70 -147t197 -52t193 50q66 52 67 138q0 153 -174 153zM184 710q0 144 102 240t259 97q102 0 186 -46l184 105l78 -141
l-139 -78q51 -78 51 -187q0 -156 -102 -250t-258 -94q-102 0 -178 37q-68 -33 -68 -100q0 -86 117 -86h243q150 0 237 -75t87 -210q0 -174 -119 -265q-118 -91 -318 -91t-319 91t-119 235t97 229q-70 57 -70 174t125 180q-76 91 -76 235z" />
    <glyph glyph-name="h" unicode="h" horiz-adv-x="1198" 
d="M1022 717v-717h-172v682q0 211 -178 211q-121 0 -216 -126t-96 -329v-438h-172v1450h172v-610q48 96 144 152t227 56t211 -85q80 -86 80 -246z" />
    <glyph glyph-name="i" unicode="i" horiz-adv-x="552" 
d="M147 1320q0 54 37 92t92 38q54 0 92 -38t38 -92t-37 -91t-93 -37t-92 37q-37 37 -37 91zM190 0v1032h172v-1032h-172z" />
    <glyph glyph-name="j" unicode="j" horiz-adv-x="552" 
d="M147 1320q0 54 37 92t92 38q54 0 92 -38t38 -92t-37 -91t-93 -37t-92 37q-37 37 -37 91zM195 -37v1069h172v-1085q-1 -320 -316 -381l-45 164q102 27 146 76q43 50 43 157z" />
    <glyph glyph-name="k" unicode="k" horiz-adv-x="1046" 
d="M188 0v1450h172v-850l402 432h221l-438 -473l471 -559h-219l-437 518v-518h-172z" />
    <glyph glyph-name="l" unicode="l" horiz-adv-x="528" 
d="M184 0v1450h172v-1450h-172z" />
    <glyph glyph-name="m" unicode="m" horiz-adv-x="1765" 
d="M1585 727v-727h-172v690q0 203 -166 203q-119 0 -197 -128t-77 -341v-424h-172v690q0 203 -166 203q-119 0 -197 -128t-78 -341v-424h-172v1032h172v-190q104 207 322 207q106 -1 179 -57t97 -158q115 215 336 215q139 0 215 -84t76 -238z" />
    <glyph glyph-name="n" unicode="n" horiz-adv-x="1181" 
d="M1006 727v-727h-172v682q0 211 -179 211q-119 0 -207 -127t-88 -334v-432h-172v1032h172v-190q117 207 342 207q140 0 222 -84t82 -238z" />
    <glyph glyph-name="o" unicode="o" horiz-adv-x="1212" 
d="M608 893q-150 0 -236 -113q-85 -112 -85 -264t84 -266q87 -111 237 -111t234 113q84 114 84 266t-86 262q-82 113 -232 113zM111 515q0 218 135 376q139 158 361 158q223 0 359 -157t136 -377t-136 -376t-360 -156t-360 156q-135 158 -135 376z" />
    <glyph glyph-name="p" unicode="p" horiz-adv-x="1230" 
d="M944 516q0 168 -82 272t-218 105q-136 0 -217 -103q-81 -104 -81 -274t81 -273t217 -103t218 104t82 272zM662 -16q-94 0 -184 46t-118 93v-541h-172v1450h172v-127q39 61 125 103t177 41q218 -1 338 -145t120 -388t-120 -388t-338 -144z" />
    <glyph glyph-name="q" unicode="q" horiz-adv-x="1230" 
d="M287 516q0 -168 82 -272t218 -105t217 103t81 274t-81 274t-217 103t-218 -105t-82 -272zM569 1049q90 0 176 -41t125 -103v127h172v-1450h-172v541q-26 -47 -116 -93t-185 -46q-217 0 -338 144t-120 388t121 388t337 145z" />
    <glyph glyph-name="r" unicode="r" horiz-adv-x="845" 
d="M649 893q-117 0 -203 -133t-86 -369v-391h-172v1032h172v-176q43 84 129 138q85 54 171 54t145 -30l-35 -154q-61 29 -121 29z" />
    <glyph glyph-name="s" unicode="s" horiz-adv-x="944" 
d="M483 1049q188 0 299 -158l-116 -100q-96 102 -189 102q-55 0 -90 -36t-35 -90t49 -92t120 -66q71 -29 142 -61t119 -92t49 -145q0 -155 -92 -241q-93 -86 -241 -86t-247 76t-147 202l146 80q82 -203 239 -203q166 0 166 162q0 90 -171 152t-237 132q-65 70 -66 187
t83 197t219 80z" />
    <glyph glyph-name="t" unicode="t" horiz-adv-x="774" 
d="M229 877h-178v155h178v309l172 109v-418h271v-155h-271v-568q0 -82 36 -126t104 -44t114 33l41 -149q-66 -39 -168 -39q-139 0 -219 88t-80 252v553z" />
    <glyph glyph-name="u" unicode="u" horiz-adv-x="1181" 
d="M176 305v727h172v-682q0 -211 178 -211q121 0 208 126t87 335v432h172v-1032h-172v190q-117 -207 -342 -206q-141 0 -222 84t-81 237z" />
    <glyph glyph-name="v" unicode="v" horiz-adv-x="933" 
d="M467 219l252 813h176l-340 -1032h-176l-340 1032h176z" />
    <glyph glyph-name="w" unicode="w" horiz-adv-x="1511" 
d="M1044 240l211 792h181l-314 -1032h-164l-202 784l-203 -784h-164l-313 1032h180l211 -792l203 792h172z" />
    <glyph glyph-name="x" unicode="x" horiz-adv-x="937" 
d="M373 545l-299 487h194l201 -327l201 327h194l-299 -487l336 -545h-194l-238 387l-238 -387h-194z" />
    <glyph glyph-name="y" unicode="y" horiz-adv-x="942" 
d="M481 287l256 745h181l-512 -1450h-177l164 461l-362 989h188z" />
    <glyph glyph-name="z" unicode="z" horiz-adv-x="933" 
d="M129 877v155h692v-74l-489 -802h508v-156h-738v74l488 803h-461z" />
    <glyph glyph-name="braceleft" unicode="{" horiz-adv-x="651" 
d="M291 102v373q0 92 -36 128t-128 36v156q92 -1 128 35t36 128v373q0 93 56 149t149 56h98v-156h-47q-49 0 -71 -22t-21 -70v-370q0 -92 -36 -136t-112 -65q76 -21 112 -65t36 -136v-371q-1 -49 21 -71t71 -21h47v-155h-98q-92 0 -149 56q-56 56 -56 148z" />
    <glyph glyph-name="bar" unicode="|" horiz-adv-x="561" 
d="M199 -102v1638h163v-1638h-163z" />
    <glyph glyph-name="braceright" unicode="}" horiz-adv-x="651" 
d="M360 475v-373q0 -92 -56 -148t-148 -56h-99v155h47q49 0 71 22t22 70v371q0 92 35 136q36 44 112 65q-76 20 -112 64t-35 137v370q0 49 -22 71t-71 21h-47v156h99q92 0 148 -56t56 -149v-373q0 -92 36 -128t128 -35v-156q-92 0 -128 -36t-36 -128z" />
    <glyph glyph-name="asciitilde" unicode="~" horiz-adv-x="1286" 
d="M1122 719q-94 -180 -274 -180q-88 0 -204 51t-189 51q-115 0 -191 -92l-100 102q45 84 117 133q141 96 362 -2q117 -51 188 -51q115 0 191 92z" />
    <glyph glyph-name="uni00A0" unicode="&#xa0;" horiz-adv-x="548" 
 />
    <glyph glyph-name="exclamdown" unicode="&#xa1;" horiz-adv-x="706" 
d="M348 1018q60 0 102 -40t42 -100t-41 -102t-103 -43q-62 1 -102 43q-41 42 -41 102t41 100t102 40zM416 602l49 -1024h-234l50 1024h135z" />
    <glyph glyph-name="cent" unicode="&#xa2;" 
d="M674 -102h-164v292q-184 27 -287 177q-100 149 -100 351t101 350t286 175v293h164v-291q244 -35 350 -280l-150 -62q-80 188 -282 189q-139 0 -216 -104t-77 -271t77 -271t216 -104q202 0 282 188l150 -61q-106 -246 -350 -281v-290z" />
    <glyph glyph-name="sterling" unicode="&#xa3;" horiz-adv-x="1112" 
d="M133 664v163h109q-37 111 -37 211q0 188 107 300q108 112 288 112q144 0 248 -74t153 -209l-153 -71q-46 102 -104 146t-151 44t-155 -64q-61 -65 -61 -182t33 -213h335v-163h-282q14 -59 14 -129q0 -207 -162 -363q82 55 160 55t155 -40q78 -40 124 -40t88 30
q41 30 88 110l135 -74q-123 -229 -309 -229q-84 0 -177 41t-139 41q-123 0 -231 -82l-117 127q123 117 175 209t52 180q0 90 -20 164h-166z" />
    <glyph glyph-name="currency" unicode="&#xa4;" horiz-adv-x="1134" 
d="M809 629q0 117 -68 186q-66 72 -174 72t-175 -72q-66 -73 -66 -187t66 -186t176 -72q108 0 174 72q66 70 67 187zM973 629q0 -131 -72 -236l180 -137l-141 -141l-137 178q-103 -78 -235 -78t-236 78l-137 -178l-142 141l180 137q-72 103 -72 235t72 236l-180 137l142 142
l137 -178q104 77 235 77t236 -77l137 178l141 -142l-180 -137q72 -104 72 -235z" />
    <glyph glyph-name="yen" unicode="&#xa5;" horiz-adv-x="1032" 
d="M926 793v-164h-320v-164h320v-164h-320v-301h-180v301h-320v164h320v164h-320v164h238l-321 641h198l295 -619l295 619h199l-322 -641h238z" />
    <glyph glyph-name="brokenbar" unicode="&#xa6;" horiz-adv-x="561" 
d="M362 1536v-715h-163v715h163zM199 -102v714h163v-714h-163z" />
    <glyph glyph-name="section" unicode="&#xa7;" horiz-adv-x="1105" 
d="M293 580q0 -54 39 -102t94 -77l139 -63q84 -37 137 -68q115 61 115 166q0 54 -40 102t-85 71t-138 65t-146 71q-115 -61 -115 -165zM135 561q0 95 36 159t114 122q-84 96 -84 227q1 177 107 279t247 102q307 0 383 -303l-158 -51q-55 190 -225 190q-78 0 -130 -58
t-52 -159t80 -159t169 -96t146 -69q207 -111 207 -290q0 -95 -36 -159t-114 -122q84 -96 84 -227q0 -176 -106 -277q-104 -104 -248 -104q-307 0 -383 303l158 51q55 -190 225 -190q78 0 130 58t52 159t-78 155q-67 53 -164 95q-96 43 -153 73q-207 111 -207 291z" />
    <glyph glyph-name="dieresis" unicode="&#xa8;" horiz-adv-x="653" 
d="M498 1450q49 0 82 -34q32 -34 32 -83t-32 -82t-82 -33q-49 0 -83 34q-34 32 -34 81t34 83t83 34zM158 1450q49 0 82 -34q32 -34 32 -83t-32 -82t-82 -33q-49 0 -83 34q-34 32 -34 81t34 83t83 34z" />
    <glyph glyph-name="copyright" unicode="&#xa9;" horiz-adv-x="1843" 
d="M908 274q-148 0 -268 114t-120 328t121 328t269 115q148 0 244 -73q97 -73 122 -195l-143 -35q-51 160 -211 160q-113 0 -180 -76q-66 -76 -66 -223t66 -223t180 -76q160 0 211 160l143 -35q-25 -123 -122 -196q-98 -73 -246 -73zM307 718q0 -272 170 -458
q171 -186 445 -186t444 185t170 457t-170 458t-444 186t-445 -185q-170 -185 -170 -457zM1700 718q0 -344 -222 -572t-555 -228t-558 227q-221 231 -221 573t222 569q222 229 556 229t555 -230q223 -225 223 -568z" />
    <glyph glyph-name="ordfeminine" unicode="&#xaa;" horiz-adv-x="894" 
d="M762 1137v-523h-111l-18 119q-90 -127 -256 -127q-113 0 -181 64t-67 186q0 123 96 192t269 68h133v35q0 168 -178 168q-63 0 -109 -34t-61 -93l-119 27q20 100 102 161q82 62 211 62t209 -78t80 -227zM481 1001q-101 1 -159 -39t-58 -104q0 -128 135 -129q96 -1 162 63
t66 183v26h-146z" />
    <glyph glyph-name="guillemotleft" unicode="&#xab;" horiz-adv-x="1251" 
d="M666 164l-568 407v127l568 408v-184l-400 -287l400 -287v-184zM1137 164l-568 407v127l568 408v-184l-400 -287l400 -287v-184z" />
    <glyph glyph-name="logicalnot" unicode="&#xac;" horiz-adv-x="1189" 
d="M856 641h-715v156h887v-506h-172v350z" />
    <glyph glyph-name="uni00AD" unicode="&#xad;" horiz-adv-x="985" 
d="M840 573h-695v152h695v-152z" />
    <glyph glyph-name="registered" unicode="&#xae;" horiz-adv-x="1843" 
d="M946 1010h-164v-213h164q125 1 125 107t-125 106zM782 653v-372h-147v872h313q129 0 200 -67t71 -171q1 -104 -53 -171t-140 -82l260 -381h-168l-258 372h-78zM307 718q0 -272 170 -458q171 -186 445 -186t444 185t170 457t-170 458t-444 186t-445 -185
q-170 -185 -170 -457zM1700 718q0 -344 -222 -572t-555 -228t-558 227q-221 231 -221 573t222 569q222 229 556 229t555 -230q223 -225 223 -568z" />
    <glyph glyph-name="overscore" unicode="&#xaf;" horiz-adv-x="559" 
d="M535 1294h-510v156h510v-156z" />
    <glyph glyph-name="degree" unicode="&#xb0;" horiz-adv-x="729" 
d="M266 1214q0 -44 27 -72t72 -28t71 28t27 72q0 44 -27 73q-28 28 -72 28t-71 -28t-27 -73zM364 1442q98 0 164 -66t66 -163t-64 -161t-166 -64t-165 63t-63 162t64 164q65 65 164 65z" />
    <glyph glyph-name="plusminus" unicode="&#xb1;" horiz-adv-x="1163" 
d="M1034 0h-901v152h901v-152zM508 893v375h151v-375h375v-152h-375v-374h-151v374h-375v152h375z" />
    <glyph glyph-name="uni00B2" unicode="&#xb2;" horiz-adv-x="782" 
d="M396 1442q108 0 174 -64t65 -176q0 -113 -78 -209l-211 -256h309v-123h-528v52l305 376q68 84 68 158q0 119 -111 119q-49 1 -82 -37t-39 -104l-131 34q10 100 80 165q71 65 179 65z" />
    <glyph glyph-name="uni00B3" unicode="&#xb3;" horiz-adv-x="796" 
d="M404 729q62 0 96 42q35 42 35 111q0 70 -35 108q-36 38 -90 38t-86 -22l-64 84l168 221h-262v123h457v-48l-193 -258q106 0 173 -68t67 -184t-75 -193t-193 -77t-192 66t-83 178l131 18q8 -66 46 -102t100 -37z" />
    <glyph glyph-name="acute" unicode="&#xb4;" horiz-adv-x="466" 
d="M180 1147h-139l139 295h248z" />
    <glyph glyph-name="mu" unicode="&#xb5;" horiz-adv-x="1181" 
d="M348 -418h-172v1450h172v-682q0 -211 178 -211q121 0 208 126t87 335v432h172v-1032h-172v190q-117 -207 -342 -206q-70 -1 -131 22v-424z" />
    <glyph glyph-name="mu" unicode="&#x3bc;" horiz-adv-x="1181" 
d="M348 -418h-172v1450h172v-682q0 -211 178 -211q121 0 208 126t87 335v432h172v-1032h-172v190q-117 -207 -342 -206q-70 -1 -131 22v-424z" />
    <glyph glyph-name="paragraph" unicode="&#xb6;" horiz-adv-x="1402" 
d="M518 1434h750v-156h-127v-1696h-172v1696h-279v-1696h-172v1061q-162 0 -280 115q-115 120 -115 282q-1 162 115 278t280 116z" />
    <glyph glyph-name="middot" unicode="&#xb7;" horiz-adv-x="626" 
d="M184 714q0 54 37 92t91 38t92 -38t38 -92t-38 -91t-92 -37t-91 37t-37 91z" />
    <glyph glyph-name="cedilla" unicode="&#xb8;" horiz-adv-x="405" 
d="M242 -123h143l-170 -358l-195 92z" />
    <glyph glyph-name="uni00B9" unicode="&#xb9;" horiz-adv-x="598" 
d="M422 1434v-820h-129v633l-176 -82v144l260 125h45z" />
    <glyph glyph-name="ordmasculine" unicode="&#xba;" horiz-adv-x="1056" 
d="M528 727q119 0 185 89t65 208q0 119 -64 207t-184 88t-188 -88q-66 -88 -66 -207t66 -209q67 -88 186 -88zM141 1023q0 173 105 296q106 123 280 123t282 -122t107 -297q1 -175 -107 -296t-281 -121t-281 121q-105 123 -105 296z" />
    <glyph glyph-name="guillemotright" unicode="&#xbb;" horiz-adv-x="1251" 
d="M586 1106l567 -408v-127l-567 -407v184l399 287l-399 287v184zM115 1106l567 -408v-127l-567 -407v184l399 287l-399 287v184z" />
    <glyph glyph-name="onequarter" unicode="&#xbc;" horiz-adv-x="1626" 
d="M1225 281v348l-181 -348h181zM1354 0h-129v158h-348v53l329 608h148v-538h96v-123h-96v-158zM213 23l1102 1470l102 -80l-1102 -1472zM465 1434v-820h-129v633l-176 -82v144l260 125h45z" />
    <glyph glyph-name="onehalf" unicode="&#xbd;" horiz-adv-x="1759" 
d="M213 23l1102 1470l102 -80l-1102 -1472zM1530 588q0 -113 -78 -209l-211 -256h309v-123h-528v51l305 377q68 84 68 158q0 119 -111 119q-49 0 -82 -38t-39 -104l-131 35q10 100 80 165t178 65t174 -64q66 -63 66 -176zM465 1434v-820h-129v633l-176 -82v144l260 125h45z
" />
    <glyph glyph-name="threequarters" unicode="&#xbe;" horiz-adv-x="1751" 
d="M1350 281v348l-181 -348h181zM1479 0h-129v158h-349v53l330 608h148v-538h96v-123h-96v-158zM404 729q62 0 96 42q35 42 35 111q0 70 -35 108q-36 38 -90 38t-86 -22l-64 84l168 221h-262v123h457v-48l-193 -258q106 0 173 -68t67 -184t-75 -193t-193 -77t-192 66
t-83 178l131 18q8 -66 46 -102t100 -37zM344 23l1102 1470l102 -80l-1102 -1472z" />
    <glyph glyph-name="questiondown" unicode="&#xbf;" horiz-adv-x="917" 
d="M449 600q123 0 197 -69t73 -187q0 -170 -174 -258q-33 -18 -102 -46t-87 -38q-90 -49 -90 -145q0 -68 48 -110t128 -42t137 51q56 51 80 140l160 -27q-31 -143 -128 -225t-251 -82t-248 88t-94 217q0 168 156 244l207 100q100 55 100 141q0 49 -29 77t-77 28
q-95 0 -148 -121l-133 47q74 217 275 217zM584 882q0 -58 -39 -98t-97 -41q-58 0 -99 40q-40 41 -40 99t40 97q41 39 99 39t97 -39t39 -97z" />
    <glyph glyph-name="Agrave" unicode="&#xc0;" horiz-adv-x="1212" 
d="M324 1843h247l140 -295h-140zM823 555l-217 645l-217 -645h434zM25 0l495 1434h172l496 -1434h-180l-127 383h-549l-127 -383h-180z" />
    <glyph glyph-name="Aacute" unicode="&#xc1;" horiz-adv-x="1212" 
d="M621 1548h-140l140 295h247zM823 555l-217 645l-217 -645h434zM25 0l495 1434h172l496 -1434h-180l-127 383h-549l-127 -383h-180z" />
    <glyph glyph-name="Acircumflex" unicode="&#xc2;" horiz-adv-x="1212" 
d="M449 1561h-177l314 335h53l313 -335h-176l-164 174zM823 555l-217 645l-217 -645h434zM25 0l495 1434h172l496 -1434h-180l-127 383h-549l-127 -383h-180z" />
    <glyph glyph-name="Atilde" unicode="&#xc3;" horiz-adv-x="1212" 
d="M465 1835q71 0 147 -41t121 -41q78 0 135 74l101 -80q-37 -70 -95 -112t-128 -42q-68 0 -144 41t-121 41q-76 1 -135 -73l-100 77q84 156 219 156zM823 555l-217 645l-217 -645h434zM25 0l495 1434h172l496 -1434h-180l-127 383h-549l-127 -383h-180z" />
    <glyph glyph-name="Adieresis" unicode="&#xc4;" horiz-adv-x="1212" 
d="M778 1851q49 1 82 -33t33 -83t-33 -82t-82 -33t-83 33t-33 82q0 49 33 83q34 33 83 33zM438 1851q49 1 82 -33t33 -83t-33 -82t-82 -33t-83 33t-33 82q0 49 33 83q34 33 83 33zM823 555l-217 645l-217 -645h434zM25 0l495 1434h172l496 -1434h-180l-127 383h-549
l-127 -383h-180z" />
    <glyph glyph-name="Aring" unicode="&#xc5;" horiz-adv-x="1212" 
d="M518 1741q-4 -55 42 -78t92 0t42 78q4 57 -42 82t-92 0t-42 -82zM403 1740q1 85 59 144q58 60 144 60t144 -60t59 -144q0 -86 -57 -142q-56 -56 -144 -56t-146 56t-59 142zM823 555l-217 645l-217 -645h434zM25 0l495 1434h172l496 -1434h-180l-127 383h-549l-127 -383
h-180z" />
    <glyph glyph-name="AE" unicode="&#xc6;" horiz-adv-x="1699" 
d="M739 1198h-20l-277 -643h297v643zM1563 1434v-172h-643v-412h520v-172h-520v-506h663v-172h-844v383h-370l-164 -383h-185l625 1434h918z" />
    <glyph glyph-name="Ccedilla" unicode="&#xc7;" horiz-adv-x="1409" 
d="M741 -123h144l-170 -358l-195 92zM113 717q0 346 188 540q190 193 459 193q215 0 363 -121t198 -313l-174 -51q-102 313 -387 313q-205 0 -333 -145t-128 -415t127 -417q129 -145 334 -145q285 0 387 313l174 -51q-49 -197 -195 -316t-366 -118q-268 0 -459 192
q-188 195 -188 541z" />
    <glyph glyph-name="Egrave" unicode="&#xc8;" horiz-adv-x="1159" 
d="M381 1843h248l139 -295h-139zM199 0v1434h823v-172h-643v-412h520v-172h-520v-506h663v-172h-843z" />
    <glyph glyph-name="Eacute" unicode="&#xc9;" horiz-adv-x="1159" 
d="M608 1548h-139l139 295h248zM199 0v1434h823v-172h-643v-412h520v-172h-520v-506h663v-172h-843z" />
    <glyph glyph-name="Ecircumflex" unicode="&#xca;" horiz-adv-x="1159" 
d="M483 1561h-176l314 335h53l313 -335h-176l-164 174zM199 0v1434h823v-172h-643v-412h520v-172h-520v-506h663v-172h-843z" />
    <glyph glyph-name="Edieresis" unicode="&#xcb;" horiz-adv-x="1159" 
d="M676 1735q0 49 34 83t83 33q49 1 81 -33t33 -83q0 -49 -33 -82q-34 -33 -82 -33t-82 33t-34 82zM336 1735q0 49 34 83t83 33q49 1 82 -33t33 -83t-34 -82q-32 -33 -81 -33t-83 33t-34 82zM199 0v1434h823v-172h-643v-412h520v-172h-520v-506h663v-172h-843z" />
    <glyph glyph-name="Igrave" unicode="&#xcc;" horiz-adv-x="577" 
d="M33 1843h248l139 -295h-139zM199 0v1434h180v-1434h-180z" />
    <glyph glyph-name="Iacute" unicode="&#xcd;" horiz-adv-x="577" 
d="M295 1548h-139l139 295h248zM199 0v1434h180v-1434h-180z" />
    <glyph glyph-name="Icircumflex" unicode="&#xce;" horiz-adv-x="577" 
d="M131 1561h-176l313 335h54l313 -335h-176l-164 174zM199 0v1434h180v-1434h-180z" />
    <glyph glyph-name="Idieresis" unicode="&#xcf;" horiz-adv-x="577" 
d="M344 1735q0 49 34 83t83 33q49 1 82 -33t33 -83t-34 -82q-32 -33 -81 -33t-83 33t-34 82zM4 1735q0 49 34 83t83 33q49 1 82 -33t33 -83t-33 -82t-82 -33t-83 33t-34 82zM199 0v1434h180v-1434h-180z" />
    <glyph glyph-name="Eth" unicode="&#xd0;" horiz-adv-x="1406" 
d="M604 1262h-182v-459h170v-172h-170v-459h182q208 0 347 121q71 61 111 170t40 254q0 408 -308 515q-88 30 -190 30zM242 631h-170v172h170v631h393q279 0 469 -192t190 -524q0 -333 -190 -528q-190 -190 -469 -190h-393v631z" />
    <glyph glyph-name="Ntilde" unicode="&#xd1;" horiz-adv-x="1435" 
d="M586 1835q72 0 148 -41t120 -41q76 0 135 74l101 -80q-38 -70 -96 -112t-127 -42t-145 41t-120 41q-78 1 -135 -73l-100 77q84 156 219 156zM1057 1434h180v-1434h-211l-647 1116v-1116h-180v1434h211l647 -1121v1121z" />
    <glyph glyph-name="Ograve" unicode="&#xd2;" horiz-adv-x="1511" 
d="M520 1843h248l139 -295h-139zM1212 717q0 271 -128 416t-328 145t-329 -145q-128 -145 -128 -415t127 -417q129 -145 330 -145q200 0 328 145t128 416zM113 716q0 344 187 539q188 195 456 195t455 -195t187 -539t-186 -538q-188 -194 -456 -194t-457 194
q-186 194 -186 538z" />
    <glyph glyph-name="Oacute" unicode="&#xd3;" horiz-adv-x="1511" 
d="M741 1548h-139l139 295h248zM1212 717q0 271 -128 416t-328 145t-329 -145q-128 -145 -128 -415t127 -417q129 -145 330 -145q200 0 328 145t128 416zM113 716q0 344 187 539q188 195 456 195t455 -195t187 -539t-186 -538q-188 -194 -456 -194t-457 194
q-186 194 -186 538z" />
    <glyph glyph-name="Ocircumflex" unicode="&#xd4;" horiz-adv-x="1511" 
d="M598 1561h-176l313 335h53l314 -335h-176l-164 174zM1212 717q0 271 -128 416t-328 145t-329 -145q-128 -145 -128 -415t127 -417q129 -145 330 -145q200 0 328 145t128 416zM113 716q0 344 187 539q188 195 456 195t455 -195t187 -539t-186 -538q-188 -194 -456 -194
t-457 194q-186 194 -186 538z" />
    <glyph glyph-name="Otilde" unicode="&#xd5;" horiz-adv-x="1511" 
d="M614 1835q72 0 148 -41t121 -41q76 0 135 74l100 -80q-37 -70 -95 -112t-127 -42q-68 0 -144 41t-121 41q-78 1 -135 -73l-101 77q84 156 219 156zM1212 717q0 271 -128 416t-328 145t-329 -145q-128 -145 -128 -415t127 -417q129 -145 330 -145q200 0 328 145t128 416z
M113 716q0 344 187 539q188 195 456 195t455 -195t187 -539t-186 -538q-188 -194 -456 -194t-457 194q-186 194 -186 538z" />
    <glyph glyph-name="Odieresis" unicode="&#xd6;" horiz-adv-x="1511" 
d="M811 1735q0 49 34 83t83 33q49 1 82 -33q32 -34 32 -83t-32 -82t-82 -33q-49 0 -83 33t-34 82zM471 1735q0 49 34 83t83 33q49 1 82 -33q32 -34 32 -83t-32 -82t-82 -33q-49 0 -83 33t-34 82zM1212 717q0 271 -128 416t-328 145t-329 -145q-128 -145 -128 -415t127 -417
q129 -145 330 -145q200 0 328 145t128 416zM113 716q0 344 187 539q188 195 456 195t455 -195t187 -539t-186 -538q-188 -194 -456 -194t-457 194q-186 194 -186 538z" />
    <glyph glyph-name="multiply" unicode="&#xd7;" horiz-adv-x="1134" 
d="M567 760l324 323l106 -106l-323 -324l323 -323l-106 -107l-324 324l-323 -324l-107 107l324 323l-324 324l107 106z" />
    <glyph glyph-name="Oslash" unicode="&#xd8;" horiz-adv-x="1511" 
d="M756 1278q-201 0 -329 -145t-128 -416q0 -219 88 -357l637 830q-112 88 -268 88zM1212 717q0 219 -88 356l-637 -829q113 -88 269 -88q200 0 328 146t128 415zM756 1450q215 0 374 -123l125 162l121 -90l-137 -176q160 -201 160 -525q1 -324 -187 -520
q-188 -195 -456 -194q-215 0 -375 122l-125 -161l-121 90l137 176q-160 199 -160 525t188 520t456 194z" />
    <glyph glyph-name="Ugrave" unicode="&#xd9;" horiz-adv-x="1339" 
d="M444 1843h248l139 -295h-139zM168 487v947h180v-959q0 -143 86 -231t236 -88t236 88t85 231v959h180v-947q0 -239 -143 -371t-358 -132q-214 0 -358 132t-144 371z" />
    <glyph glyph-name="Uacute" unicode="&#xda;" horiz-adv-x="1339" 
d="M645 1548h-139l139 295h248zM168 487v947h180v-959q0 -143 86 -231t236 -88t236 88t85 231v959h180v-947q0 -239 -143 -371t-358 -132q-214 0 -358 132t-144 371z" />
    <glyph glyph-name="Ucircumflex" unicode="&#xdb;" horiz-adv-x="1339" 
d="M512 1561h-176l313 335h53l314 -335h-176l-164 174zM168 487v947h180v-959q0 -143 86 -231t236 -88t236 88t85 231v959h180v-947q0 -239 -143 -371t-358 -132q-214 0 -358 132t-144 371z" />
    <glyph glyph-name="Udieresis" unicode="&#xdc;" horiz-adv-x="1339" 
d="M725 1735q0 49 34 83t83 33q49 1 82 -33q32 -34 32 -83t-32 -82t-82 -33q-49 0 -83 33t-34 82zM385 1735q0 49 34 83t83 33q49 1 82 -33q32 -34 32 -83t-32 -82t-82 -33q-49 0 -83 33t-34 82zM168 487v947h180v-959q0 -143 86 -231t236 -88t236 88t85 231v959h180v-947
q0 -239 -143 -371t-358 -132q-214 0 -358 132t-144 371z" />
    <glyph glyph-name="Yacute" unicode="&#xdd;" horiz-adv-x="1036" 
d="M547 1548h-139l139 295h248zM428 0v618l-420 816h199l311 -635l311 635h199l-420 -816v-618h-180z" />
    <glyph glyph-name="Thorn" unicode="&#xde;" horiz-adv-x="1196" 
d="M379 479h330q111 -1 170 61t59 177t-59 176t-170 61h-330v-475zM698 307h-319v-307h-180v1434h180v-308h319q201 0 314 -110q112 -110 112 -299q0 -190 -112 -300t-314 -110z" />
    <glyph glyph-name="germandbls" unicode="&#xdf;" horiz-adv-x="1134" 
d="M180 709h-102v151h102v174q0 200 112 308t282 108t272 -101t102 -266q0 -109 -51 -183t-133 -101q112 -23 196 -118t84 -247q0 -221 -116 -336t-324 -114q-88 0 -145 14v156q66 -14 145 -15q129 0 199 72t69 211q0 139 -75 213q-76 74 -213 74h-72v151h72q201 0 200 217
q0 101 -58 159t-160 58t-157 -68q-56 -68 -57 -198v-1028h-172v709z" />
    <glyph glyph-name="agrave" unicode="&#xe0;" horiz-adv-x="1060" 
d="M276 1442h248l140 -295h-140zM922 659v-659h-136l-28 145q-113 -162 -324 -161q-145 0 -232 80t-87 237q0 158 124 246t343 88h168v45q0 213 -226 213q-82 0 -140 -43t-75 -119l-151 35q20 129 120 206t264 77q166 -1 273 -99t107 -291zM565 479q-131 0 -203 -47
t-71 -128q0 -81 44 -123q45 -42 145 -42t185 76t85 240v24h-185z" />
    <glyph glyph-name="aacute" unicode="&#xe1;" horiz-adv-x="1060" 
d="M510 1147h-139l139 295h248zM922 659v-659h-136l-28 145q-113 -162 -324 -161q-145 0 -232 80t-87 237q0 158 124 246t343 88h168v45q0 213 -226 213q-82 0 -140 -43t-75 -119l-151 35q20 129 120 206t264 77q166 -1 273 -99t107 -291zM565 479q-131 0 -203 -47t-71 -128
q0 -81 44 -123q45 -42 145 -42t185 76t85 240v24h-185z" />
    <glyph glyph-name="acircumflex" unicode="&#xe2;" horiz-adv-x="1060" 
d="M369 1159h-176l313 336h53l313 -336h-176l-164 174zM922 659v-659h-136l-28 145q-113 -162 -324 -161q-145 0 -232 80t-87 237q0 158 124 246t343 88h168v45q0 213 -226 213q-82 0 -140 -43t-75 -119l-151 35q20 129 120 206t264 77q166 -1 273 -99t107 -291zM565 479
q-131 0 -203 -47t-71 -128q0 -81 44 -123q45 -42 145 -42t185 76t85 240v24h-185z" />
    <glyph glyph-name="atilde" unicode="&#xe3;" horiz-adv-x="1060" 
d="M397 1434q72 0 148 -41t121 -41q76 0 135 73l100 -79q-37 -70 -95 -112t-127 -42t-145 41t-120 41q-78 0 -135 -74l-101 78q84 156 219 156zM922 659v-659h-136l-28 145q-113 -162 -324 -161q-145 0 -232 80t-87 237q0 158 124 246t343 88h168v45q0 213 -226 213
q-82 0 -140 -43t-75 -119l-151 35q20 129 120 206t264 77q166 -1 273 -99t107 -291zM565 479q-131 0 -203 -47t-71 -128q0 -81 44 -123q45 -42 145 -42t185 76t85 240v24h-185z" />
    <glyph glyph-name="adieresis" unicode="&#xe4;" horiz-adv-x="1060" 
d="M588 1333q0 49 34 83t82 34q49 0 82 -34t33 -83t-33 -82t-82 -33q-48 0 -82 34q-34 32 -34 81zM248 1333q0 49 34 83t82 34q49 0 82 -34t33 -83t-33 -82t-82 -33q-48 0 -82 34q-34 32 -34 81zM922 659v-659h-136l-28 145q-113 -162 -324 -161q-145 0 -232 80t-87 237
q0 158 124 246t343 88h168v45q0 213 -226 213q-82 0 -140 -43t-75 -119l-151 35q20 129 120 206t264 77q166 -1 273 -99t107 -291zM565 479q-131 0 -203 -47t-71 -128q0 -81 44 -123q45 -42 145 -42t185 76t85 240v24h-185z" />
    <glyph glyph-name="aring" unicode="&#xe5;" horiz-adv-x="1060" 
d="M436 1339q-4 -55 42 -77t92 0q46 23 42 77q4 57 -42 82t-92 0t-42 -82zM322 1338q0 84 58 144t144 60t144 -59t59 -145q0 -86 -57 -141q-56 -56 -144 -56t-146 56t-58 141zM922 659v-659h-136l-28 145q-113 -162 -324 -161q-145 0 -232 80t-87 237q0 158 124 246t343 88
h168v45q0 213 -226 213q-82 0 -140 -43t-75 -119l-151 35q20 129 120 206t264 77q166 -1 273 -99t107 -291zM565 479q-131 0 -203 -47t-71 -128q0 -81 44 -123q45 -42 145 -42t185 76t85 240v24h-185z" />
    <glyph glyph-name="ae" unicode="&#xe6;" horiz-adv-x="1785" 
d="M1219 893q-115 0 -187 -69t-96 -189h567q-21 119 -95 189t-189 69zM565 479q-131 0 -203 -47t-71 -128q0 -81 44 -123q45 -42 145 -42t185 76t85 240v24h-185zM1683 559v-80h-757q8 -156 84 -248t194 -92t187 47q68 47 112 150l152 -66q-72 -152 -175 -220t-263 -66
q-270 0 -398 231q-129 -231 -385 -231q-145 0 -232 80t-87 237q0 158 124 246t343 88h168v45q0 213 -226 213q-82 0 -140 -43t-75 -119l-151 35q20 129 120 206t246 77q244 0 342 -162q130 162 350 162t343 -144q124 -139 124 -346z" />
    <glyph glyph-name="ccedilla" unicode="&#xe7;" horiz-adv-x="1101" 
d="M604 -123h144l-170 -358l-195 92zM580 1049q307 0 432 -285l-150 -62q-84 190 -282 191q-139 0 -216 -103q-77 -104 -77 -274t77 -273t216 -104q198 1 282 191l150 -62q-125 -285 -432 -284q-225 0 -349 153q-121 158 -120 379q0 221 120 377q123 156 349 156z" />
    <glyph glyph-name="egrave" unicode="&#xe8;" 
d="M328 1442h247l140 -295h-140zM579 893q-114 0 -186 -69t-96 -189h567q-25 121 -98 189t-187 69zM1044 559v-80h-757q8 -156 84 -248q77 -92 195 -92t186 47t112 150l152 -66q-72 -152 -175 -220t-263 -66q-223 0 -347 153q-121 158 -120 379q0 221 120 377
q123 156 345 156t344 -144q124 -139 124 -346z" />
    <glyph glyph-name="eacute" unicode="&#xe9;" 
d="M553 1147h-139l139 295h248zM579 893q-114 0 -186 -69t-96 -189h567q-25 121 -98 189t-187 69zM1044 559v-80h-757q8 -156 84 -248q77 -92 195 -92t186 47t112 150l152 -66q-72 -152 -175 -220t-263 -66q-223 0 -347 153q-121 158 -120 379q0 221 120 377
q123 156 345 156t344 -144q124 -139 124 -346z" />
    <glyph glyph-name="ecircumflex" unicode="&#xea;" 
d="M414 1159h-176l313 336h53l314 -336h-177l-163 174zM579 893q-114 0 -186 -69t-96 -189h567q-25 121 -98 189t-187 69zM1044 559v-80h-757q8 -156 84 -248q77 -92 195 -92t186 47t112 150l152 -66q-72 -152 -175 -220t-263 -66q-223 0 -347 153q-121 158 -120 379
q0 221 120 377q123 156 345 156t344 -144q124 -139 124 -346z" />
    <glyph glyph-name="edieresis" unicode="&#xeb;" 
d="M750 1450q50 0 82 -34t32 -83t-33 -82t-81 -33t-83 34q-34 32 -34 81t34 83t83 34zM410 1450q49 0 82 -34q32 -34 32 -83t-32 -82t-82 -33q-49 0 -83 34q-34 32 -34 81t34 83t83 34zM579 893q-114 0 -186 -69t-96 -189h567q-25 121 -98 189t-187 69zM1044 559v-80h-757
q8 -156 84 -248q77 -92 195 -92t186 47t112 150l152 -66q-72 -152 -175 -220t-263 -66q-223 0 -347 153q-121 158 -120 379q0 221 120 377q123 156 345 156t344 -144q124 -139 124 -346z" />
    <glyph glyph-name="igrave" unicode="&#xec;" horiz-adv-x="552" 
d="M23 1442h247l140 -295h-140zM190 0v1032h172v-1032h-172z" />
    <glyph glyph-name="iacute" unicode="&#xed;" horiz-adv-x="552" 
d="M285 1147h-140l140 295h247zM190 0v1032h172v-1032h-172z" />
    <glyph glyph-name="icircumflex" unicode="&#xee;" horiz-adv-x="552" 
d="M119 1159h-176l313 336h53l314 -336h-177l-163 174zM190 0v1032h172v-1032h-172z" />
    <glyph glyph-name="idieresis" unicode="&#xef;" horiz-adv-x="552" 
d="M332 1333q0 49 34 83t82 34q49 0 82 -34t33 -83t-33 -82t-82 -33q-48 0 -82 34q-34 32 -34 81zM-8 1333q0 49 34 83t82 34q49 0 82 -34t33 -83t-33 -82t-82 -33q-48 0 -82 34q-34 32 -34 81zM190 0v1032h172v-1032h-172z" />
    <glyph glyph-name="eth" unicode="&#xf0;" horiz-adv-x="1187" 
d="M901 519q0 159 -82 265q-79 109 -227 109t-227 -111q-78 -112 -78 -266t78 -266q81 -111 231 -111t225 111q80 110 80 269zM1077 516q0 -221 -130 -377q-130 -155 -353 -155t-354 155q-129 156 -129 377t129 377q131 156 354 156q68 0 134 -26t97 -65q-51 142 -225 273
l-80 -121l-121 86l78 117q-68 39 -164 78l82 125q96 -41 164 -80l76 110l119 -86l-70 -104q209 -156 301 -358t92 -482z" />
    <glyph glyph-name="ntilde" unicode="&#xf1;" horiz-adv-x="1181" 
d="M453 1434q71 0 147 -41t121 -41q78 0 135 73l100 -79q-37 -70 -95 -112t-127 -42q-68 0 -144 41t-121 41q-76 0 -135 -74l-101 78q84 156 220 156zM1006 727v-727h-172v682q0 211 -179 211q-119 0 -207 -127t-88 -334v-432h-172v1032h172v-190q117 207 342 207
q140 0 222 -84t82 -238z" />
    <glyph glyph-name="ograve" unicode="&#xf2;" horiz-adv-x="1212" 
d="M371 1442h247l140 -295h-140zM608 893q-150 0 -236 -113q-85 -112 -85 -264t84 -266q87 -111 237 -111t234 113q84 114 84 266t-86 262q-82 113 -232 113zM111 515q0 218 135 376q139 158 361 158q223 0 359 -157t136 -377t-136 -376t-360 -156t-360 156
q-135 158 -135 376z" />
    <glyph glyph-name="oacute" unicode="&#xf3;" horiz-adv-x="1212" 
d="M592 1147h-139l139 295h248zM608 893q-150 0 -236 -113q-85 -112 -85 -264t84 -266q87 -111 237 -111t234 113q84 114 84 266t-86 262q-82 113 -232 113zM111 515q0 218 135 376q139 158 361 158q223 0 359 -157t136 -377t-136 -376t-360 -156t-360 156
q-135 158 -135 376z" />
    <glyph glyph-name="ocircumflex" unicode="&#xf4;" horiz-adv-x="1212" 
d="M442 1159h-176l314 336h53l313 -336h-176l-164 174zM608 893q-150 0 -236 -113q-85 -112 -85 -264t84 -266q87 -111 237 -111t234 113q84 114 84 266t-86 262q-82 113 -232 113zM111 515q0 218 135 376q139 158 361 158q223 0 359 -157t136 -377t-136 -376t-360 -156
t-360 156q-135 158 -135 376z" />
    <glyph glyph-name="otilde" unicode="&#xf5;" horiz-adv-x="1212" 
d="M465 1434q71 0 147 -41t121 -41q78 0 135 73l101 -79q-37 -70 -95 -112t-128 -42q-68 0 -144 41t-121 41q-76 0 -135 -74l-100 78q84 156 219 156zM608 893q-150 0 -236 -113q-85 -112 -85 -264t84 -266q87 -111 237 -111t234 113q84 114 84 266t-86 262
q-82 113 -232 113zM111 515q0 218 135 376q139 158 361 158q223 0 359 -157t136 -377t-136 -376t-360 -156t-360 156q-135 158 -135 376z" />
    <glyph glyph-name="odieresis" unicode="&#xf6;" horiz-adv-x="1212" 
d="M778 1450q49 0 82 -34t33 -83t-33 -82t-82 -33t-83 34q-34 32 -33 81q0 49 33 83q34 34 83 34zM438 1450q49 0 82 -34t33 -83t-33 -82t-82 -33t-83 34q-34 32 -33 81q0 49 33 83q34 34 83 34zM608 893q-150 0 -236 -113q-85 -112 -85 -264t84 -266q87 -111 237 -111
t234 113q84 114 84 266t-86 262q-82 113 -232 113zM111 515q0 218 135 376q139 158 361 158q223 0 359 -157t136 -377t-136 -376t-360 -156t-360 156q-135 158 -135 376z" />
    <glyph glyph-name="divide" unicode="&#xf7;" horiz-adv-x="1097" 
d="M999 573h-901v152h901v-152zM420 1027q0 54 37 92t91 38t92 -38t38 -92t-38 -91t-92 -37t-91 37t-37 91zM420 261q0 54 37 92t91 38t92 -38t38 -92t-38 -91t-92 -37t-91 37t-37 91z" />
    <glyph glyph-name="oslash" unicode="&#xf8;" horiz-adv-x="1212" 
d="M606 893q-150 -1 -234 -113t-85 -248q0 -136 53 -233l428 547q-76 47 -162 47zM606 139q152 1 236 113t84 248t-54 233l-428 -547q76 -47 162 -47zM1102 508q0 -212 -136 -369q-136 -156 -360 -155q-150 0 -262 73l-115 -145l-123 88l125 160q-121 152 -121 362t136 369
q139 158 360 158q147 0 262 -74l115 145l123 -88l-125 -160q121 -152 121 -364z" />
    <glyph glyph-name="ugrave" unicode="&#xf9;" horiz-adv-x="1181" 
d="M340 1442h248l139 -295h-139zM176 305v727h172v-682q0 -211 178 -211q121 0 208 126t87 335v432h172v-1032h-172v190q-117 -207 -342 -206q-141 0 -222 84t-81 237z" />
    <glyph glyph-name="uacute" unicode="&#xfa;" horiz-adv-x="1181" 
d="M575 1147h-139l139 295h248zM176 305v727h172v-682q0 -211 178 -211q121 0 208 126t87 335v432h172v-1032h-172v190q-117 -207 -342 -206q-141 0 -222 84t-81 237z" />
    <glyph glyph-name="ucircumflex" unicode="&#xfb;" horiz-adv-x="1181" 
d="M424 1159h-176l313 336h53l314 -336h-176l-164 174zM176 305v727h172v-682q0 -211 178 -211q121 0 208 126t87 335v432h172v-1032h-172v190q-117 -207 -342 -206q-141 0 -222 84t-81 237z" />
    <glyph glyph-name="udieresis" unicode="&#xfc;" horiz-adv-x="1181" 
d="M758 1450q49 0 82 -34q32 -34 32 -83t-32 -82t-82 -33q-49 0 -83 34q-34 32 -34 81t34 83t83 34zM418 1450q49 0 82 -34q32 -34 32 -83t-32 -82t-82 -33q-49 0 -83 34q-34 32 -34 81t34 83t83 34zM176 305v727h172v-682q0 -211 178 -211q121 0 208 126t87 335v432h172
v-1032h-172v190q-117 -207 -342 -206q-141 0 -222 84t-81 237z" />
    <glyph glyph-name="yacute" unicode="&#xfd;" horiz-adv-x="942" 
d="M516 1147h-139l139 295h248zM481 287l256 745h181l-512 -1450h-177l164 461l-362 989h188z" />
    <glyph glyph-name="thorn" unicode="&#xfe;" horiz-adv-x="1230" 
d="M944 516q0 168 -82 272t-218 105q-136 0 -217 -103q-81 -104 -81 -274t81 -273t217 -103t218 104t82 272zM662 -16q-90 0 -176 41t-126 102v-545h-172v1868h172v-541q27 47 117 93t185 47q218 -1 338 -145t120 -388t-120 -388t-338 -144z" />
    <glyph glyph-name="ydieresis" unicode="&#xff;" horiz-adv-x="942" 
d="M655 1450q49 0 82 -34t33 -83t-33 -82t-82 -33t-83 34q-34 32 -33 81q0 49 33 83q34 34 83 34zM315 1450q49 0 82 -34t33 -83t-33 -82t-82 -33t-83 34q-34 32 -33 81q0 49 33 83q34 34 83 34zM481 287l256 745h181l-512 -1450h-177l164 461l-362 989h188z" />
    <glyph glyph-name="dotlessi" unicode="&#x131;" horiz-adv-x="552" 
d="M190 0v1032h172v-1032h-172z" />
    <glyph glyph-name="Lslash" unicode="&#x141;" horiz-adv-x="1067" 
d="M199 1434h180v-619l239 133l74 -133l-313 -172v-471h651v-172h-831v543l-133 -76l-74 133l207 115v719z" />
    <glyph glyph-name="lslash" unicode="&#x142;" horiz-adv-x="694" 
d="M254 1450h172v-580l135 78l74 -133l-209 -117v-698h-172v606l-135 -76l-74 134l209 114v672z" />
    <glyph glyph-name="OE" unicode="&#x152;" horiz-adv-x="2179" 
d="M1212 717q0 271 -128 416t-328 145t-329 -145q-128 -145 -128 -415t127 -417q129 -145 330 -145q200 0 328 145t128 416zM1219 1434h823v-172h-643v-412h520v-172h-520v-506h663v-172h-843v186q-183 -202 -457 -202t-463 194q-186 195 -186 539q0 345 187 539t462 194
t457 -203v187z" />
    <glyph glyph-name="oe" unicode="&#x153;" horiz-adv-x="1961" 
d="M1395 893q-115 0 -187 -69t-96 -189h567q-21 119 -95 189t-189 69zM604 139q148 0 234 113q88 112 88 264t-87 264t-235 113q-148 0 -232 -113q-84 -112 -85 -264q0 -152 84 -266q85 -111 233 -111zM1860 559v-80h-758q8 -156 84 -248t194 -92t187 47q68 47 112 150
l152 -66q-72 -152 -175 -220t-263 -66q-256 0 -385 213q-141 -213 -402 -213q-223 0 -360 155q-135 158 -135 376t135 376q139 158 360 158q260 0 402 -213q127 213 385 213q219 0 342 -144q125 -139 125 -346z" />
    <glyph glyph-name="Scaron" unicode="&#x160;" horiz-adv-x="1071" 
d="M565 1561h-53l-313 335h176l164 -174l163 174h177zM529 1278q-75 0 -123 -52t-50 -139q0 -87 84 -153q59 -41 82 -53l111 -58q117 -59 188 -112q145 -109 154 -299q0 -174 -111 -293q-123 -135 -308 -135t-311 107t-163 280l156 94q46 -156 116 -233q70 -76 193 -76
t185 75t62 170t-64 156q-65 61 -206 129q-150 68 -248 155t-100 243q0 156 104 262q104 104 245 104t229 -57t147 -172l-145 -95q-48 84 -100 118t-127 34z" />
    <glyph glyph-name="scaron" unicode="&#x161;" horiz-adv-x="944" 
d="M508 1159h-53l-314 336h176l164 -174l164 174h176zM483 1049q188 0 299 -158l-116 -100q-96 102 -189 102q-55 0 -90 -36t-35 -90t49 -92t120 -66q71 -29 142 -61t119 -92t49 -145q0 -155 -92 -241q-93 -86 -241 -86t-247 76t-147 202l146 80q82 -203 239 -203
q166 0 166 162q0 90 -171 152t-237 132q-65 70 -66 187t83 197t219 80z" />
    <glyph glyph-name="Ydieresis" unicode="&#x178;" horiz-adv-x="1036" 
d="M573 1735q0 49 34 83t83 33q49 1 82 -33t33 -83t-33 -82t-82 -33t-83 33t-34 82zM233 1735q0 49 34 83t83 33q49 1 82 -33t33 -83t-33 -82t-82 -33t-83 33t-34 82zM428 0v618l-420 816h199l311 -635l311 635h199l-420 -816v-618h-180z" />
    <glyph glyph-name="Zcaron" unicode="&#x17d;" horiz-adv-x="1136" 
d="M590 1561h-53l-314 335h176l164 -174l164 174h176zM117 1262v172h899v-86l-668 -1176h688v-172h-944v86l668 1176h-643z" />
    <glyph glyph-name="zcaron" unicode="&#x17e;" horiz-adv-x="933" 
d="M500 1159h-54l-313 336h176l164 -174l164 174h176zM129 877v155h692v-74l-489 -802h508v-156h-738v74l488 803h-461z" />
    <glyph glyph-name="florin" unicode="&#x192;" horiz-adv-x="978" 
d="M827 1450q84 0 142 -33l-64 -151q-51 28 -123 28q-144 -1 -184 -194l-14 -68h233l-29 -155h-233l-186 -961q-68 -350 -402 -350q-84 0 -141 33l63 151q51 -29 123 -29q144 0 185 195l186 961h-182l28 155h183l14 68q37 182 137 266t264 84z" />
    <glyph glyph-name="circumflex" unicode="&#x2c6;" horiz-adv-x="798" 
d="M236 1159h-177l314 336h53l313 -336h-176l-164 174z" />
    <glyph glyph-name="caron" unicode="&#x2c7;" horiz-adv-x="798" 
d="M426 1159h-53l-314 336h177l163 -174l164 174h176z" />
    <glyph glyph-name="breve" unicode="&#x2d8;" horiz-adv-x="512" 
d="M338 1434h137q-1 -94 -65 -159t-161 -65t-163 65t-66 159h138q0 -41 26 -67t65 -26q41 0 65 26t24 67z" />
    <glyph glyph-name="dotaccent" unicode="&#x2d9;" horiz-adv-x="552" 
d="M147 1320q0 54 38 92t92 38q53 0 91 -38t38 -92t-37 -91t-91 -37t-93 37q-38 37 -38 91z" />
    <glyph glyph-name="ring" unicode="&#x2da;" horiz-adv-x="479" 
d="M152 1339q-4 -55 42 -77t92 0q46 23 42 77q4 57 -42 82t-92 0t-42 -82zM37 1338q0 84 58 144q59 60 145 60t144 -59t58 -145t-57 -141q-57 -56 -144 -56t-146 56q-58 56 -58 141z" />
    <glyph glyph-name="ogonek" unicode="&#x2db;" horiz-adv-x="438" 
d="M217 -348q31 0 53 17t60 67l88 -72q-50 -80 -100 -113t-126 -33t-123 47q-49 46 -49 134t123 178h127q-114 -101 -114 -163t61 -62z" />
    <glyph glyph-name="tilde" unicode="&#x2dc;" horiz-adv-x="796" 
d="M256 1434q72 0 148 -41t120 -41q78 0 135 73l101 -79q-37 -70 -95 -112t-127 -42t-145 41t-121 41q-76 0 -135 -74l-100 78q84 156 219 156z" />
    <glyph glyph-name="hungarumlaut" unicode="&#x2dd;" horiz-adv-x="833" 
d="M555 1147h-139l139 295h248zM184 1147h-139l139 295h248z" />
    <glyph glyph-name="uni2206" unicode="&#x394;" horiz-adv-x="1368" 
d="M1040 156l-356 1030l-356 -1030h712zM1255 0h-1142v41l491 1393h160l491 -1393v-41z" />
    <glyph glyph-name="uni2206" unicode="&#x2206;" horiz-adv-x="1368" 
d="M1040 156l-356 1030l-356 -1030h712zM1255 0h-1142v41l491 1393h160l491 -1393v-41z" />
    <glyph glyph-name="uni2126" unicode="&#x3a9;" horiz-adv-x="1396" 
d="M604 0h-450v156h264l-62 114q-37 74 -98 271t-61 360q0 245 134 397q135 152 369 152t365 -154q135 -152 135 -395q0 -164 -55 -349t-111 -292l-55 -104h264v-156h-450v47l24 49q4 8 23 55t47 116t56 156q29 87 53 223t24 255q0 185 -85 289t-237 104t-236 -104t-85 -293
q0 -189 59 -403t113 -326l55 -121v-47z" />
    <glyph glyph-name="uni2126" unicode="&#x2126;" horiz-adv-x="1396" 
d="M604 0h-450v156h264l-62 114q-37 74 -98 271t-61 360q0 245 134 397q135 152 369 152t365 -154q135 -152 135 -395q0 -164 -55 -349t-111 -292l-55 -104h264v-156h-450v47l24 49q4 8 23 55t47 116t56 156q29 87 53 223t24 255q0 185 -85 289t-237 104t-236 -104t-85 -293
q0 -189 59 -403t113 -326l55 -121v-47z" />
    <glyph glyph-name="pi" unicode="&#x3c0;" horiz-adv-x="1239" 
d="M293 877h-180v155h1011v-155h-180v-877h-172v877h-307v-877h-172v877z" />
    <glyph glyph-name="uni2000" unicode="&#x2000;" horiz-adv-x="970" 
 />
    <glyph glyph-name="uni2001" unicode="&#x2001;" horiz-adv-x="1943" 
 />
    <glyph glyph-name="uni2002" unicode="&#x2002;" horiz-adv-x="970" 
 />
    <glyph glyph-name="uni2003" unicode="&#x2003;" horiz-adv-x="1943" 
 />
    <glyph glyph-name="uni2004" unicode="&#x2004;" horiz-adv-x="647" 
 />
    <glyph glyph-name="uni2005" unicode="&#x2005;" horiz-adv-x="485" 
 />
    <glyph glyph-name="uni2006" unicode="&#x2006;" horiz-adv-x="323" 
 />
    <glyph glyph-name="uni2007" unicode="&#x2007;" horiz-adv-x="323" 
 />
    <glyph glyph-name="uni2008" unicode="&#x2008;" horiz-adv-x="241" 
 />
    <glyph glyph-name="uni2009" unicode="&#x2009;" horiz-adv-x="387" 
 />
    <glyph glyph-name="uni200A" unicode="&#x200a;" horiz-adv-x="106" 
 />
    <glyph glyph-name="uni2010" unicode="&#x2010;" horiz-adv-x="985" 
d="M840 573h-695v152h695v-152z" />
    <glyph glyph-name="uni2011" unicode="&#x2011;" horiz-adv-x="985" 
d="M840 573h-695v152h695v-152z" />
    <glyph glyph-name="endash" unicode="&#x2013;" horiz-adv-x="1148" 
d="M1004 573h-859v152h859v-152z" />
    <glyph glyph-name="emdash" unicode="&#x2014;" horiz-adv-x="1554" 
d="M1409 573h-1264v152h1264v-152z" />
    <glyph glyph-name="quoteleft" unicode="&#x2018;" horiz-adv-x="612" 
d="M119 1450h250l141 -420h-131z" />
    <glyph glyph-name="quoteright" unicode="&#x2019;" horiz-adv-x="612" 
d="M233 1030h-131l142 420h250z" />
    <glyph glyph-name="quotesinglbase" unicode="&#x201a;" horiz-adv-x="612" 
d="M233 -29h-131l142 420h250z" />
    <glyph glyph-name="quotedblleft" unicode="&#x201c;" horiz-adv-x="968" 
d="M119 1450h250l141 -420h-131zM475 1450h250l141 -420h-131z" />
    <glyph glyph-name="quotedblright" unicode="&#x201d;" horiz-adv-x="968" 
d="M590 1030h-131l141 420h250zM233 1030h-131l142 420h250z" />
    <glyph glyph-name="quotedblbase" unicode="&#x201e;" horiz-adv-x="968" 
d="M590 -29h-131l141 420h250zM233 -29h-131l142 420h250z" />
    <glyph glyph-name="dagger" unicode="&#x2020;" horiz-adv-x="942" 
d="M389 868h-266v164h266v504h164v-504h266v-164h-266v-970h-164v970z" />
    <glyph glyph-name="daggerdbl" unicode="&#x2021;" horiz-adv-x="942" 
d="M389 868h-266v164h266v504h164v-504h266v-164h-266v-303h266v-164h-266v-503h-164v503h-266v164h266v303z" />
    <glyph glyph-name="bullet" unicode="&#x2022;" horiz-adv-x="663" 
d="M174 676q0 66 46 112t112 46t110 -48q47 -44 47 -110t-46 -112q-45 -46 -111 -46t-113 45q-45 47 -45 113z" />
    <glyph glyph-name="ellipsis" unicode="&#x2026;" horiz-adv-x="1712" 
d="M1270 120q0 54 37 92t91 38t92 -38t38 -92t-38 -91t-92 -37t-91 37t-37 91zM727 120q0 54 37 92t91 38t92 -38t38 -92t-38 -91t-92 -37t-91 37t-37 91zM184 120q0 54 37 92t91 38t92 -38t38 -92t-38 -91t-92 -37t-91 37t-37 91z" />
    <glyph glyph-name="uni202F" unicode="&#x202f;" horiz-adv-x="387" 
 />
    <glyph glyph-name="perthousand" unicode="&#x2030;" horiz-adv-x="2502" 
d="M260 23l1102 1470l102 -80l-1102 -1472zM1878 309q0 -80 48 -131t131 -51t128 51q49 51 49 131t-48 132t-130 52t-130 -52t-48 -132zM1729 309q0 137 95 233t232 95q136 0 232 -95q96 -94 96 -232t-94 -232t-234 -94t-233 94q-94 94 -94 231zM1100 309q0 -80 48 -131
t131 -51t128 51q49 51 49 131t-48 132t-130 52t-130 -52t-48 -132zM950 309q0 137 95 233t233 95q138 0 232 -95q96 -94 96 -232t-94 -232t-234 -94t-234 94t-94 231zM268 1122q0 -80 48 -131t131 -51t128 51q49 51 50 131q0 80 -50 131q-47 53 -129 53t-130 -52t-48 -132z
M119 1122q0 136 95 232t232 96q136 0 232 -95t96 -233t-94 -231q-94 -94 -234 -94t-233 94q-94 94 -94 231z" />
    <glyph glyph-name="guilsinglleft" unicode="&#x2039;" horiz-adv-x="780" 
d="M666 164l-568 407v127l568 408v-184l-400 -287l400 -287v-184z" />
    <glyph glyph-name="guilsinglright" unicode="&#x203a;" horiz-adv-x="780" 
d="M115 1106l567 -408v-127l-567 -407v184l399 287l-399 287v184z" />
    <glyph glyph-name="fraction" unicode="&#x2044;" horiz-adv-x="1245" 
d="M20 23l1102 1470l103 -80l-1102 -1472z" />
    <glyph glyph-name="uni205F" unicode="&#x205f;" horiz-adv-x="485" 
 />
    <glyph glyph-name="uni2070" unicode="&#x2070;" horiz-adv-x="806" 
d="M404 1319q-79 0 -128 -76q-47 -78 -47 -219t47 -219q49 -76 128 -76t124 76q49 76 50 219q-1 143 -50 219q-45 76 -124 76zM403 1442q145 0 227 -111t83 -307q0 -196 -82 -306q-81 -112 -227 -112t-228 112t-82 307t82 306t227 111z" />
    <glyph glyph-name="uni2074" unicode="&#x2074;" horiz-adv-x="696" 
d="M414 895v348l-181 -348h181zM543 614h-129v158h-348v53l329 609h148v-539h96v-123h-96v-158z" />
    <glyph glyph-name="uni2075" unicode="&#x2075;" horiz-adv-x="696" 
d="M360 729q68 0 105 42t37 114q0 73 -37 115t-115 42t-133 -75l-102 22l45 445h426v-123h-314l-26 -201q66 47 139 47q117 0 185 -75q68 -76 67 -200q0 -124 -77 -200q-76 -76 -190 -76t-187 62t-85 166l127 20q27 -125 135 -125z" />
    <glyph glyph-name="uni2076" unicode="&#x2076;" horiz-adv-x="751" 
d="M242 876q0 -66 40 -106q40 -41 100 -41t99 41q39 40 39 106t-38 106t-99 40t-101 -40t-40 -106zM408 1145q116 0 182 -74t66 -194q0 -119 -76 -195t-198 -76t-199 76t-77 178t44 178l231 404h143l-178 -312q21 15 62 15z" />
    <glyph glyph-name="uni2077" unicode="&#x2077;" horiz-adv-x="622" 
d="M94 1311v123h492v-52l-316 -768h-135l285 697h-326z" />
    <glyph glyph-name="uni2078" unicode="&#x2078;" horiz-adv-x="724" 
d="M248 1223q0 -49 31 -82q33 -31 83 -31t83 32q32 32 32 81t-32 81t-83 32q-50 0 -82 -32t-32 -81zM362 991q-60 0 -94 -37q-35 -37 -35 -94t35 -94t94 -37t95 37q35 37 35 94t-35 94t-95 37zM600 1223q0 -49 -28 -95t-68 -71q123 -61 123 -187t-73 -194q-73 -70 -192 -70
q-120 0 -192 70t-72 194t123 187q-41 25 -69 71t-27 95q0 94 66 156q67 63 171 63t171 -62t67 -157z" />
    <glyph glyph-name="uni2079" unicode="&#x2079;" horiz-adv-x="751" 
d="M510 1172q0 66 -40 106q-40 41 -100 41t-100 -41q-40 -40 -39 -106q0 -66 38 -106q37 -40 99 -40t102 40t40 106zM344 903q-116 0 -182 74t-66 194q0 119 76 195t198 76t198 -76t77 -178q0 -102 -43 -178l-231 -404h-144l179 312q-21 -15 -62 -15z" />
    <glyph glyph-name="Euro" unicode="&#x20ac;" horiz-adv-x="1286" 
d="M250 793h-184l81 163h117q41 236 180 365t353 129q276 0 403 -233l-145 -80q-92 150 -258 149q-295 0 -361 -330h486l-82 -163h-418v-152h500l-82 -164h-404q66 -330 361 -330q166 0 258 150l145 -80q-127 -233 -403 -233q-213 0 -353 129q-139 129 -180 364h-198l81 164
h103v152z" />
    <glyph glyph-name="trademark" unicode="&#x2122;" horiz-adv-x="1683" 
d="M782 614v820h152l215 -539l215 539h152v-820h-146v519l-178 -443h-86l-178 443v-519h-146zM272 1311h-215v123h576v-123h-215v-697h-146v697z" />
    <glyph glyph-name="partialdiff" unicode="&#x2202;" horiz-adv-x="1230" 
d="M662 893q-174 0 -280 -141t-108 -324q0 -131 70 -210t186 -79q174 0 279 135q104 139 104 332q0 135 -65 211t-186 76zM98 432q0 262 162 439t418 178q164 0 248 -103q-16 164 -96 256t-203 92q-164 0 -242 -172l-168 43q51 133 161 209t255 76q235 0 353 -186t118 -533
q0 -287 -135 -509q-68 -110 -184 -174t-265 -64q-188 0 -305 124t-117 324z" />
    <glyph glyph-name="product" unicode="&#x220f;" horiz-adv-x="1130" 
d="M360 0h-172v1434h754v-1434h-172v1278h-410v-1278z" />
    <glyph glyph-name="summation" unicode="&#x2211;" horiz-adv-x="1126" 
d="M993 1278h-614l346 -541v-41l-346 -540h614v-156h-874v41l434 676l-434 676v41h874v-156z" />
    <glyph glyph-name="minus" unicode="&#x2212;" horiz-adv-x="1167" 
d="M1038 573h-901v152h901v-152z" />
    <glyph glyph-name="radical" unicode="&#x221a;" horiz-adv-x="1171" 
d="M119 641v156h313l176 -527l348 1180h164l-444 -1450h-135l-209 641h-213z" />
    <glyph glyph-name="infinity" unicode="&#x221e;" horiz-adv-x="1802" 
d="M1292 500q90 0 153 62q62 62 62 173t-62 173t-169 63q-74 1 -155 -63t-134 -173q53 -109 134 -172t171 -63zM295 735q1 -111 63 -173t152 -62t171 63t134 172q-53 109 -134 172t-155 64q-106 -1 -168 -63t-63 -173zM1307 344q-109 0 -219 59t-187 168q-77 -109 -187 -168
t-218 -59q-174 0 -276 106t-101 285q0 179 101 285t276 106q108 0 218 -59t187 -168q78 109 188 168t218 59q174 0 275 -106t101 -284t-101 -286q-101 -106 -275 -106z" />
    <glyph glyph-name="integral" unicode="&#x222b;" horiz-adv-x="978" 
d="M827 1450q84 0 142 -33l-64 -151q-51 28 -123 28q-144 -1 -184 -194l-229 -1184q-68 -350 -402 -350q-84 0 -141 33l63 151q51 -29 123 -29q146 0 185 195l229 1184q68 350 401 350z" />
    <glyph glyph-name="approxequal" unicode="&#x2248;" horiz-adv-x="1236" 
d="M415 1038q87 0 203 -51t189 -51q115 0 190 92l101 -104q-45 -86 -116 -133q-143 -94 -364 4q-115 51 -188 51q-114 0 -190 -92l-101 102q45 84 117 133t159 49zM415 629q87 0 203 -51t189 -52q115 0 190 92l101 -104q-45 -86 -116 -133t-159 -47t-204 51t-189 51
q-114 0 -190 -92l-101 102q45 84 117 134t159 49z" />
    <glyph glyph-name="notequal" unicode="&#x2260;" horiz-adv-x="1144" 
d="M164 729v152h461l120 209l132 -76l-76 -133h180v-152h-270l-105 -188h375v-152h-461l-121 -209l-131 76l76 133h-180v152h270l105 188h-375z" />
    <glyph glyph-name="lessequal" unicode="&#x2264;" horiz-adv-x="1140" 
d="M922 354l-715 379v180l715 379v-176l-547 -293l547 -293v-176zM1014 0h-901v152h901v-152z" />
    <glyph glyph-name="greaterequal" unicode="&#x2265;" horiz-adv-x="1140" 
d="M219 1292l715 -379v-180l-715 -379v176l547 293l-547 293v176zM127 152h901v-152h-901v152z" />
    <glyph glyph-name="lozenge" unicode="&#x25ca;" horiz-adv-x="1183" 
d="M311 717l281 -557l280 557l-280 557zM676 0h-168l-369 717l369 717h168l368 -717z" />
    <glyph glyph-name="NULL" horiz-adv-x="0" 
 />
    <glyph glyph-name="CR.001" horiz-adv-x="681" 
 />
    <glyph glyph-name="CR" horiz-adv-x="548" 
 />
    <glyph glyph-name="apple" horiz-adv-x="1609" 
d="M850 242l473 -138v844q-76 -124 -201 -200t-272 -89v-417zM287 948v-844l473 138v417q-150 12 -274 89t-199 200zM1321 1233l-471 137v-620q193 16 326 154t145 329zM760 750v620l-471 -137q12 -190 145 -330q136 -137 326 -153zM1411 1264v-1219q0 -17 -13 -31
q-12 -14 -26 -14t-20 2l-547 158l-547 -158q-6 -2 -19 -2t-27 13q-13 13 -13 32v1219q0 37 32 45l553 159q20 8 41 0l553 -159q33 -8 33 -45z" />
    <glyph glyph-name="No" horiz-adv-x="2568" 
d="M1057 1434h180v-1434h-211l-647 1116v-1116h-180v1434h211l647 -1121v1121zM1962 1295q-150 0 -235 -113q-85 -112 -85 -264t84 -267q86 -111 237 -111t235 114q84 112 83 265q0 153 -86 263q-83 113 -233 113zM1963 1450q222 0 358 -157q137 -157 137 -377t-136 -375
q-136 -156 -360 -156q-223 0 -360 156q-136 156 -136 375q0 218 138 376t359 158zM2410 0h-897v156h897v-156z" />
    <glyph glyph-name="zero.tn" 
d="M250 717q0 -270 82 -420t242 -150t241 150q82 150 82 420t-82 420q-82 149 -242 149q-159 0 -241 -150t-82 -419zM574 1450q246 0 374 -195q129 -195 129 -537t-129 -539q-129 -195 -375 -195q-247 0 -375 196t-128 538t129 537t375 195z" />
    <glyph glyph-name="one.tn" 
d="M711 1434v-1434h-168v1176l-264 -154v188l368 224h64z" />
    <glyph glyph-name="two.tn" 
d="M1006 0h-867v80l547 700q68 84 92 144t25 143q0 84 -55 152q-56 67 -162 67t-170 -66q-63 -67 -74 -180l-172 33q8 161 126 269t282 108q201 0 311 -125q90 -102 90 -267t-115 -317l-446 -577h588v-164z" />
    <glyph glyph-name="three.tn" 
d="M862 450q0 142 -78 223t-209 81q-74 0 -126 -27l-72 96l328 447h-519v164h779v-56l-365 -493q18 6 57 6q164 0 273 -122q108 -123 108 -323t-129 -331t-323 -131t-321 114q-128 114 -146 295l172 23q41 -268 284 -269q131 0 209 81q78 80 78 222z" />
    <glyph glyph-name="four.tn" 
d="M713 469v694l-389 -694h389zM889 0h-176v305h-623v72l606 1057h193v-965h178v-164h-178v-305z" />
    <glyph glyph-name="five.tn" 
d="M572 147q120 0 193 86q73 85 73 233t-73 234t-202 86q-170 0 -289 -159l-108 24l78 783h684v-164h-535l-53 -416q92 96 235 96q205 0 322 -133t117 -349t-123 -350t-317 -134t-309 102q-116 102 -136 289l174 33q14 -127 82 -194q67 -67 187 -67z" />
    <glyph glyph-name="six.tn" 
d="M573 754q-121 0 -197 -83t-75 -217q0 -134 77 -220q78 -86 196 -87q118 0 195 86q77 87 77 221t-76 217t-197 83zM573 918q197 0 324 -136q129 -130 129 -330t-128 -334t-325 -134t-325 133q-127 137 -127 334q0 139 74 264l423 735h197l-311 -547q28 15 69 15z" />
    <glyph glyph-name="seven.tn" 
d="M162 1270v164h817v-76l-557 -1358h-180l526 1270h-606z" />
    <glyph glyph-name="eight.tn" 
d="M574 840q100 0 160 63t60 163t-59 164t-161 64t-162 -63q-60 -66 -60 -164t60 -164q61 -63 162 -63zM573 676q-115 0 -189 -72t-75 -192q0 -120 75 -193q76 -72 190 -72t190 72q74 73 74 193t-74 192q-76 72 -191 72zM967 1067q0 -92 -45 -174t-117 -121
q101 -45 157 -139t56 -221q0 -197 -129 -314q-131 -114 -315 -114t-316 114q-129 117 -129 314q0 127 56 221t157 139q-72 39 -117 121t-45 174q0 163 111 273t283 110t282 -110q111 -110 111 -273z" />
    <glyph glyph-name="nine.tn" 
d="M846 980q0 134 -77 220t-196 86t-195 -86t-77 -220q0 -134 76 -217q77 -83 197 -83t196 83t76 217zM573 516q-197 0 -325 133q-127 137 -127 335t128 332q129 134 325 134t323 -135q129 -131 129 -332q0 -139 -74 -264l-424 -735h-196l311 546q-29 -14 -70 -14z" />
    </font>
</defs>
</svg>
