<?xml version="1.0" standalone="no"?>
<!DOCTYPE svg PUBLIC "-//W3C//DTD SVG 1.1//EN" "http://www.w3.org/Graphics/SVG/1.1/DTD/svg11.dtd" >
<svg xmlns="http://www.w3.org/2000/svg">
<metadata>
Created by FontPrep 20130207 at Mon Jul 13 18:44:36 2015
 By Tom Galle
Copyright (c) 2008 by Stefan Gandl. All rights reserved.
</metadata>
<defs>
<font id="c8efed6ec75822ef73e31a6860039163" horiz-adv-x='1024' >
  <font-face 
    font-family="NBInternationalPro-BolIta"
    font-weight="700"
    font-style="italic"
    font-stretch="normal"
    units-per-em="2048"
    panose-1="2 11 8 3 3 1 0 10 0 4"
    ascent="1638"
    descent="-410"
    x-height="1036"
    cap-height="1442"
    bbox="-164 -426 2281 1903"
    underline-thickness="174"
    underline-position="-100"
    unicode-range="U+0009-FB05"
  />
<missing-glyph 
d="M76 96l465 625l-246 625zM594 721l244 -623l219 1245q-373 -497 -463 -622zM94 49h709l-246 625zM575 768l465 627h-708zM858 0h-842q-8 0 -8 10l252 1422q0 10 12 10h842q8 0 8 -10l-252 -1422q0 -10 -12 -10z" />
    <glyph glyph-name="fi" unicode="fi" horiz-adv-x="1239" 
d="M952 0h-225q-8 0 -8 10l180 1016q0 10 12 10h226q8 0 8 -10l-180 -1016q-1 -10 -13 -10zM1178 1151h-267q-10 0 -10 10l49 271q0 10 13 10h266q8 0 8 -10l-49 -271q0 -10 -10 -10zM135 1036h168q10 0 10 8l21 109q25 141 121 216t235 73h162q6 0 6 -10l-37 -205
q0 -10 -12 -10h-145q-31 1 -56 -17t-28 -49l-21 -107q0 -8 10 -8h209q8 0 8 -10l-34 -195q0 -10 -13 -10h-209q-8 0 -12 -10l-141 -801q0 -10 -12 -10h-226q-8 0 -8 10l141 801q4 10 -8 10h-168q-8 0 -8 10l35 195q0 10 12 10z" />
    <glyph glyph-name="fl" unicode="fl" horiz-adv-x="1241" 
d="M954 0h-225q-8 0 -8 10l252 1422q0 10 12 10h225q8 0 9 -10l-252 -1422q-1 -10 -13 -10zM135 1036h168q10 0 10 8l21 109q25 141 121 216t235 73h162q6 0 6 -10l-37 -205q0 -10 -12 -10h-145q-31 1 -56 -17t-28 -49l-21 -107q0 -8 10 -8h209q8 0 8 -10l-34 -195
q0 -10 -13 -10h-209q-8 0 -12 -10l-141 -801q0 -10 -12 -10h-226q-8 0 -8 10l141 801q4 10 -8 10h-168q-8 0 -8 10l35 195q0 10 12 10z" />
    <glyph glyph-name=".notdef" 
d="M76 96l465 625l-246 625zM594 721l244 -623l219 1245q-373 -497 -463 -622zM94 49h709l-246 625zM575 768l465 627h-708zM858 0h-842q-8 0 -8 10l252 1422q0 10 12 10h842q8 0 8 -10l-252 -1422q0 -10 -12 -10z" />
    <glyph glyph-name=".null" horiz-adv-x="0" 
 />
    <glyph glyph-name="nonmarkingreturn" horiz-adv-x="681" 
 />
    <glyph glyph-name="NULL" horiz-adv-x="81" 
 />
    <glyph glyph-name="NULL" horiz-adv-x="81" 
 />
    <glyph glyph-name="HT" unicode="&#x9;" horiz-adv-x="614" 
 />
    <glyph glyph-name="LF" unicode="&#xa;" horiz-adv-x="614" 
 />
    <glyph glyph-name="CR" unicode="&#xd;" horiz-adv-x="102" 
 />
    <glyph glyph-name="DLE" horiz-adv-x="614" 
 />
    <glyph glyph-name="DC1" horiz-adv-x="614" 
 />
    <glyph glyph-name="DC2" horiz-adv-x="614" 
 />
    <glyph glyph-name="DC3" horiz-adv-x="614" 
 />
    <glyph glyph-name="DC4" horiz-adv-x="614" 
 />
    <glyph glyph-name="RS" horiz-adv-x="102" 
 />
    <glyph glyph-name="US" horiz-adv-x="102" 
 />
    <glyph glyph-name="space" unicode=" " horiz-adv-x="606" 
 />
    <glyph glyph-name="exclam" unicode="!" horiz-adv-x="567" 
d="M322 0h-308q-8 0 -8 10l55 312q4 10 13 10h307q12 0 8 -10l-55 -312q0 -10 -12 -10zM336 426h-184q-12 0 -9 10l86 600l70 396q0 10 12 10h226q8 0 8 -10l-70 -396l-127 -600q-4 -10 -12 -10z" />
    <glyph glyph-name="quotedbl" unicode="&#x22;" horiz-adv-x="843" 
d="M688 821h-184q-10 0 -10 10l28 277l58 324q4 10 12 10h225q12 0 8 -10l-57 -324l-70 -277q0 -10 -10 -10zM328 821h-185q-10 0 -10 10l29 277l57 324q4 10 12 10h226q12 0 8 -10l-57 -324l-70 -277q0 -10 -10 -10z" />
    <glyph glyph-name="numbersign" unicode="#" horiz-adv-x="1261" 
d="M825 836h-211q-8 0 -12 -11l-92 -223q-4 -14 8 -14h213q6 0 12 10l88 225q8 13 -6 13zM139 836q-8 0 -8 10l25 141q4 10 12 10h315q12 0 15 9l174 430q4 6 12 6h154q16 0 6 -15l-170 -417q-4 -12 8 -13h209q12 0 14 11l174 428q2 6 13 6h153q16 0 6 -15l-170 -417
q-4 -12 9 -13h202q12 0 8 -10l-24 -141q0 -10 -12 -10h-242q-8 0 -12 -11l-92 -225q-6 -12 8 -12h295q12 0 8 -10l-25 -142q-4 -10 -12 -10h-336q-6 0 -12 -8l-164 -412q-4 -6 -12 -6h-152q-16 0 -6 14l160 402q6 10 -6 10h-215q-6 0 -13 -10l-164 -410q-2 -6 -12 -6h-151
q-16 0 -7 14l158 400q8 12 -8 12h-184q-12 0 -9 10l25 142q4 10 12 10h226q10 0 14 10l88 225q6 12 -8 13h-277z" />
    <glyph glyph-name="dollar" unicode="$" horiz-adv-x="1320" 
d="M672 1231q-86 -13 -150 -69t-76 -124t33 -106t129 -53q16 -4 17 10l59 332q0 14 -12 10zM680 211q98 19 167 77t82 128q27 147 -179 190q-16 4 -17 -10l-65 -375q-2 -4 2 -8t10 -2zM313 406q10 0 11 -11q-10 -59 36 -108t134 -72q10 -4 14 10l70 396q4 10 -9 10
q-217 33 -314 126t-65 275t184 297q153 115 341 131q12 0 12 10l29 162q4 10 10 10h141q12 0 8 -10l-30 -170q0 -8 6 -12q170 -29 266 -135t68 -268q-4 -10 -11 -11h-237q-12 0 -8 11q10 49 -21 97t-92 73q-12 4 -16 -11l-60 -338q0 -10 8 -12q177 -24 295 -103
q145 -98 103 -331q-35 -188 -180 -304t-369 -132q-10 0 -14 -13l-29 -168q-4 -10 -12 -10h-142q-10 0 -6 10l29 168q4 12 -10 13q-227 23 -321 141q-93 119 -64 268q0 10 10 11h235z" />
    <glyph glyph-name="percent" unicode="%" horiz-adv-x="1755" 
d="M1380 1442h144q16 0 4 -17l-1122 -1421q-4 -4 -11 -4h-139q-16 0 -4 16l1118 1422q4 4 10 4zM572 1311q-144 0 -188 -252t100 -252t188 252t-100 252zM598 1462q297 0 225 -403t-366 -404q-299 -1 -227 403t368 404zM1294 635q-144 0 -187 -252q-45 -252 99 -252t187 252
q45 252 -99 252zM1323 786q297 0 225 -403t-368 -403t-228 403q74 403 371 403z" />
    <glyph glyph-name="ampersand" unicode="&#x26;" horiz-adv-x="1449" 
d="M755 1251q-71 0 -123 -37t-65 -106q0 -23 -3 -33t4 -28q8 -17 10 -25t14 -24t17 -24q5 -6 19 -22t20 -24q8 -8 20 -3t45 18t54 23q21 11 42 21t31 21q10 12 21 23t17 23q52 106 -10 160q-42 36 -113 37zM584 211q128 0 233 63q8 4 2 11l-278 374q-6 6 -15 0
q-152 -101 -171 -209t41 -174t188 -65zM792 1462q174 0 264 -103q91 -103 66 -247q-26 -144 -114 -222q-88 -79 -230 -124q-6 -4 -2 -12l199 -269q8 -8 11 0t7 29l31 178q4 10 12 10h205q12 0 8 -10l-30 -172q-20 -123 -91 -221q-6 -8 -2 -12q72 -82 105 -80h20q12 0 9 -10
l-33 -187q0 -10 -13 -10h-20q-110 0 -156 28q-12 7 -42 38l-36 36t-12 0q-170 -122 -417 -122t-357 128t-74 330q23 122 110 224t193 163q4 4 3 13q-47 68 -67 131q-19 63 -1 159q23 129 151 232q129 102 303 102z" />
    <glyph glyph-name="quotesingle" unicode="'" horiz-adv-x="485" 
d="M328 821h-185q-10 0 -10 10l29 277l57 324q4 10 12 10h226q12 0 8 -10l-57 -324l-70 -277q0 -10 -10 -10z" />
    <glyph glyph-name="parenleft" unicode="(" horiz-adv-x="628" 
d="M221 -406q-10 0 -12 11q-188 402 -117 913q43 246 165 487t273 427q8 10 17 10h158q14 0 4 -10q-161 -195 -271 -443t-149 -471q-41 -209 -17 -464t115 -449q6 -10 -8 -11h-158z" />
    <glyph glyph-name="parenright" unicode=")" horiz-adv-x="628" 
d="M262 1442h158q10 0 12 -10q117 -253 139 -571q12 -173 -20 -343q-43 -246 -166 -486t-274 -427q-8 -10 -17 -11h-155q-10 0 -5 11q158 195 268 443t152 462q41 215 16 471q-26 256 -116 451q-4 10 8 10z" />
    <glyph glyph-name="asterisk" unicode="*" horiz-adv-x="1003" 
d="M532 1442h164q8 0 9 -10l-19 -105l-27 -90q-3 -6 3 -9t12 1l86 37l102 32q12 4 12 -6l23 -157q4 -8 -8 -13l-105 -32l-96 -19q-18 -4 -8 -18l51 -66l45 -84q6 -10 -4 -14l-151 -96q-1 -4 -7 -3t-6 5l-47 82l-26 67q-8 12 -17 0l-51 -67l-76 -82q-6 -8 -12 -2l-119 96
q-6 4 0 14l78 84l72 66q14 14 -2 18l-91 19l-92 32q-8 2 -4 13l80 157q0 2 5 5t7 1l95 -32l69 -37q6 -4 12 -1t7 9l6 90l18 105q0 10 12 10z" />
    <glyph glyph-name="plus" unicode="+" horiz-adv-x="1376" 
d="M193 629h385q12 0 12 10l69 387q0 10 11 10h204q10 0 11 -10l-70 -387q0 -10 8 -10h385q12 0 9 -11l-35 -204q-4 -10 -13 -11h-385q-8 0 -12 -10l-67 -383q0 -10 -13 -10h-205q-8 0 -8 10l68 383q4 10 -8 10h-385q-12 0 -9 11l35 204q5 11 13 11z" />
    <glyph glyph-name="comma" unicode="," horiz-adv-x="544" 
d="M223 0h-149q-12 0 -8 10l55 312q0 10 10 10h307q10 0 11 -10l-56 -310q-20 -112 -110 -188t-254 -76q-12 0 -9 10l21 113q0 10 12 10q84 0 127 32t51 77q0 10 -8 10z" />
    <glyph glyph-name="hyphen" unicode="-" horiz-adv-x="1021" 
d="M805 403h-641q-12 0 -8 11l37 204q0 10 10 11h641q10 0 10 -11l-37 -204q-4 -11 -12 -11z" />
    <glyph glyph-name="period" unicode="." horiz-adv-x="544" 
d="M369 0h-308q-8 0 -8 10l56 312q4 10 12 10h307q12 0 8 -10l-55 -312q0 -10 -12 -10z" />
    <glyph glyph-name="slash" unicode="/" horiz-adv-x="782" 
d="M125 0h-150q-16 0 -6 14l697 1422q2 6 12 6h153q17 -1 7 -15l-701 -1421q-2 -6 -12 -6z" />
    <glyph glyph-name="zero" unicode="0" horiz-adv-x="1351" 
d="M776 1237q-291 0 -381 -516t201 -516t383 516q88 516 -203 516zM557 -20q-197 0 -307 100t-125 265q-16 165 16 376q133 741 676 741q150 0 249 -57t141 -157q90 -215 28 -527q-133 -741 -678 -741z" />
    <glyph glyph-name="one" unicode="1" horiz-adv-x="913" 
d="M494 1001h-304q-12 0 -8 11l31 184q4 10 12 10h250q45 0 84 33t43 74l23 119q0 10 12 10h225q8 0 8 -10l-252 -1422q0 -10 -12 -10h-225q-8 0 -8 10l166 934q3 27 -9 42t-36 15z" />
    <glyph glyph-name="two" unicode="2" horiz-adv-x="1193" 
d="M928 0h-916q-12 0 -8 10l33 189q2 14 14 26l645 545q158 125 176 242q12 86 -32 154t-148 69q-104 0 -179 -69t-89 -154q0 -10 -12 -11h-224q-8 0 -8 11q35 194 190 322q156 128 364 128t314 -128t70 -322q-39 -223 -274 -408l-453 -360q-12 -10 -7 -14t9 -5h574
q10 0 10 -10l-37 -205q-4 -10 -12 -10z" />
    <glyph glyph-name="three" unicode="3" horiz-adv-x="1218" 
d="M718 1462q202 0 308 -124t74 -310t-221 -289q-9 -4 -9 -11t4 -9q64 -35 108 -121t26 -201q-31 -178 -175 -297q-143 -120 -371 -120t-327 125q-98 126 -67 313q4 10 12 10h225q12 0 8 -10q-12 -72 32 -143q45 -71 147 -71t180 60q78 59 90 133q18 109 -38 163t-155 56
h-67q-10 0 -10 11l36 204q4 10 13 11h67q88 0 160 49t86 136t-35 149t-140 61q-91 0 -164 -70t-87 -155q-4 -10 -12 -11h-223q-13 1 -9 11q33 194 183 322q149 128 351 128z" />
    <glyph glyph-name="four" unicode="4" horiz-adv-x="1286" 
d="M322 535h376q12 0 13 10l92 520q1 9 -9 7t-12 -5l-465 -514q-12 -18 5 -18zM1137 309h-211q-8 0 -13 -10l-51 -289q0 -10 -12 -10h-225q-8 0 -9 10l52 289q4 10 -9 10h-671q-12 0 -8 10l30 189q2 8 17 37l817 887q4 10 16 10h246q8 0 8 -10l-158 -887q0 -10 7 -10h213
q10 -1 10 -11l-37 -205q-4 -10 -12 -10z" />
    <glyph glyph-name="five" unicode="5" horiz-adv-x="1257" 
d="M1141 1217h-563q-14 0 -15 -11l-80 -272q-2 -10 4 -12t26 14q21 16 89 42t127 26q215 0 328 -140t71 -372t-206 -372q-166 -140 -394 -140q-276 0 -388 200q-49 87 -31 236q0 12 12 12h225q10 0 8 -10q-14 -80 50 -147t172 -67t191 80q83 79 107 208q24 130 -34 208
q-57 78 -170 78q-174 0 -269 -137q-4 -6 -10 -6h-223q-10 0 -10 10l231 787q4 10 12 10h783q12 0 8 -10l-37 -207q0 -8 -14 -8z" />
    <glyph glyph-name="six" unicode="6" horiz-adv-x="1275" 
d="M660 778q-124 0 -204 -82t-100 -204t30 -205q50 -82 173 -82t202 82q78 82 101 205q20 122 -30 204q-48 82 -172 82zM741 995q199 0 308 -140t69 -365q-40 -226 -203 -368q-161 -142 -397 -142t-348 142t-70 370q31 158 131 299l453 643q8 8 12 8h246q12 -1 8 -15
l-299 -423q-4 -6 -1 -12t24 -2q21 5 67 5z" />
    <glyph glyph-name="seven" unicode="7" horiz-adv-x="1093" 
d="M422 0h-238q-10 0 -6 10l676 1188q10 18 -6 19h-662q-8 0 -8 10l37 205q0 10 12 10h918q8 0 8 -10l-37 -205q0 -10 -10 -29l-670 -1188q-4 -10 -14 -10z" />
    <glyph glyph-name="eight" unicode="8" horiz-adv-x="1302" 
d="M756 1237h-4q-92 0 -164 -62q-72 -63 -86 -149t39 -134t143 -48t162 48t86 135t-35 149t-141 61zM644 618q-102 0 -178 -57q-77 -57 -95 -164q-12 -74 44 -133t156 -59t180 59q79 59 91 133q18 111 -39 166t-159 55zM791 1462h4q203 0 309 -124t74 -310t-222 -289
q-8 -4 -8 -11t4 -9q62 -35 108 -121t27 -201q-31 -178 -177 -298q-146 -119 -378 -119t-334 120q-104 120 -73 297q18 115 94 201t152 121q23 8 4 20q-152 103 -119 289t182 310q150 124 353 124z" />
    <glyph glyph-name="nine" unicode="9" horiz-adv-x="1275" 
d="M741 1237q-123 0 -204 -82t-101 -205t30 -205q50 -81 173 -81t203 82t100 204q20 123 -29 205t-172 82zM780 1462q236 0 348 -142t70 -370q-31 -158 -131 -299l-453 -643q-8 -8 -12 -8h-246q-12 0 -8 14l299 424q4 6 1 12q-4 6 -24 2q-20 -5 -67 -6q-199 0 -307 140
t-69 366q40 226 202 368q161 142 397 142z" />
    <glyph glyph-name="colon" unicode=":" horiz-adv-x="522" 
d="M440 705h-305q-12 0 -8 10l55 311q0 10 11 10h305q10 0 10 -10l-55 -311q-5 -10 -13 -10zM315 0h-305q-8 0 -8 10l55 312q0 10 13 10h305q8 0 8 -10l-55 -312q-1 -10 -13 -10z" />
    <glyph glyph-name="semicolon" unicode=";" horiz-adv-x="524" 
d="M172 0h-149q-12 0 -9 10l54 312q4 10 12 10h305q12 0 8 -10l-53 -310q-20 -112 -110 -188t-250 -76q-12 0 -9 10l21 113q0 10 8 10q158 0 180 109q0 10 -8 10zM453 705h-306q-8 0 -8 10l56 311q4 10 12 10h305q12 0 8 -10l-55 -311q0 -10 -12 -10z" />
    <glyph glyph-name="less" unicode="&#x3c;" horiz-adv-x="1134" 
d="M72 399l39 230q4 8 8 10l987 395q17 4 12 -10l-26 -160q-2 -6 -9 -8l-811 -332q-21 -10 -2 -20l695 -324q4 -2 4 -8l-29 -160q0 -18 -16 -10l-848 387q-8 4 -4 10z" />
    <glyph glyph-name="equal" unicode="=" horiz-adv-x="1118" 
d="M1028 621h-915q-10 0 -11 10l37 205q4 10 13 10h915q12 0 8 -10l-37 -205q0 -10 -10 -10zM952 197h-915q-12 0 -8 10l37 205q0 10 10 10h915q10 0 10 -10l-36 -205q-5 -10 -13 -10z" />
    <glyph glyph-name="greater" unicode="&#x3e;" horiz-adv-x="1134" 
d="M1049 629l-39 -230q-4 -8 -9 -10l-987 -387q-12 -6 -12 10l29 160q0 4 8 8l809 324q21 10 2 20l-692 332q-6 4 -4 8l26 160q4 18 17 10l847 -395q9 -4 5 -10z" />
    <glyph glyph-name="question" unicode="?" horiz-adv-x="1118" 
d="M340 332h309q8 0 8 -10l-55 -312q-4 -10 -12 -10h-309q-13 0 -9 10l56 312q0 10 12 10zM625 436h-228q-10 0 -6 10l15 91q23 127 71 189q49 62 159 113t154 93t55 112q11 68 -41 120t-158 52t-174 -52q-69 -54 -81 -130l-4 -22q0 -10 -12 -11h-221q-8 0 -9 11l5 22
q31 178 182 302q152 124 358 124t319 -123q112 -123 81 -303q-16 -109 -50 -156q-33 -46 -50 -68t-65 -54t-116 -69q-67 -35 -105 -57t-53 -93l-14 -91q-4 -10 -12 -10z" />
    <glyph glyph-name="at" unicode="@" horiz-adv-x="2091" 
d="M856 158q133 0 250 97t178 263q124 361 -156 361q-134 1 -244 -97t-172 -264t-26 -263t170 -97zM1221 137q-1 6 -7 6t-10 -4q-72 -75 -184 -117t-213 -42q-238 0 -325 148t0 399t284 391t432 139q92 0 150 -39t73 -76q5 -8 13 -6t12 10l43 80q4 10 16 10h183q12 0 8 -10
l-297 -768q-37 -100 47 -100t177 110t161 293q135 371 -9 565t-477 195q-333 0 -626 -222t-412 -556q-61 -161 -52 -309t68 -262q60 -114 192 -182t316 -69q272 0 654 195q8 4 8 0v-6l2 2l-68 -174q-8 -14 -14 -17q-98 -61 -276 -104t-374 -43q-198 0 -361 82
q-307 154 -332 540q-12 183 67 386q152 401 502 641q350 239 756 239t581 -264q174 -264 27 -668q-102 -290 -263 -420t-319 -130q-76 0 -114 55t-39 102z" />
    <glyph glyph-name="A" unicode="A" horiz-adv-x="1511" 
d="M528 522h439q12 0 8 10l-96 676q-1 8 -9 8t-12 -8l-336 -676q-4 -10 6 -10zM997 297h-579q-10 0 -17 -10l-137 -277q-2 -10 -14 -10h-236q-16 0 -6 14l705 1418q4 10 14 10h369q6 0 10 -10l203 -1418q0 -14 -15 -14h-235q-6 0 -10 10l-29 215l-10 62q-1 10 -13 10z" />
    <glyph glyph-name="B" unicode="B" horiz-adv-x="1394" 
d="M522 1217q-6 0 -10 -9l-61 -354q-4 -10 6 -10h403q70 4 136 54t78 126q13 76 -21 134q-35 58 -113 59h-418zM350 225h402q82 1 158 61t89 136q12 76 -35 136q-48 60 -128 60h-418q-10 0 -10 -10l-66 -372q-4 -11 8 -11zM745 0h-682q-8 0 -8 10l252 1422q0 10 12 10h682
q170 0 257 -123t57 -299q-13 -84 -75 -166t-134 -115q-8 -2 -9 -10t5 -10q74 -39 116 -121t27 -176q-35 -188 -173 -305t-327 -117z" />
    <glyph glyph-name="C" unicode="C" horiz-adv-x="1470" 
d="M694 207q90 0 167 32t138 98t95 134q6 10 14 10h233q25 1 -12 -75t-93 -148t-131 -133t-194 -103t-256 -42q-315 0 -446 196t-71 532q60 338 262 546t515 208q129 0 231 -39t158 -97t90 -128q62 -128 44 -227q0 -10 -13 -10h-235q-6 0 -10 10q-7 51 -32 107t-55 84
t-86 50t-130 23q-181 0 -311 -145q-130 -144 -172 -380t37 -370t263 -133z" />
    <glyph glyph-name="D" unicode="D" horiz-adv-x="1480" 
d="M590 0h-527q-8 0 -8 10l252 1422q0 10 12 10h527q313 -2 443 -202t72 -532t-256 -520t-515 -188zM350 225h281q184 0 308 125q124 126 165 358t-38 370t-261 139h-283q-6 0 -10 -9l-170 -972q-4 -11 8 -11z" />
    <glyph glyph-name="E" unicode="E" horiz-adv-x="1325" 
d="M342 225h756q12 0 8 -10l-37 -205q0 -10 -12 -10h-1002q-8 0 -8 10l252 1422q0 10 12 10h1002q8 0 8 -10l-37 -205q0 -10 -12 -10h-756q-8 0 -12 -11l-62 -352q-4 -10 9 -10h653q12 0 8 -10l-35 -205q-4 -10 -12 -11h-653q-12 0 -13 -10l-65 -372q-4 -11 8 -11z" />
    <glyph glyph-name="F" unicode="F" horiz-adv-x="1259" 
d="M63 0q-8 0 -8 10l252 1422q0 10 12 10h1002q8 0 8 -10l-37 -205q0 -10 -12 -10h-758q-8 0 -10 -9l-61 -356q-2 -8 6 -8h655q12 0 8 -10l-35 -205q-4 -10 -12 -11h-655q-10 0 -10 -8l-107 -600q0 -10 -12 -10h-226z" />
    <glyph glyph-name="G" unicode="G" horiz-adv-x="1542" 
d="M881 1235q-183 0 -313 -139t-172 -379t36 -375t266 -135q390 0 469 393q2 8 -6 8h-383q-10 0 -6 10l35 203q4 10 10 10h606q12 0 9 -10l-144 -813q0 -8 -12 -8h-186q-6 0 -9 8l-2 107q0 18 -18 4q-199 -139 -402 -139q-303 0 -440 204t-78 537q57 333 267 537t512 204
q477 0 524 -411q0 -14 -12 -15h-242q-23 0 -23 15q-29 90 -105 137q-77 47 -181 47z" />
    <glyph glyph-name="H" unicode="H" horiz-adv-x="1429" 
d="M1143 0h-225q-8 0 -9 10l107 600q2 8 -6 8h-580q-8 0 -10 -8l-107 -600q0 -10 -12 -10h-225q-8 0 -8 10l251 1422q0 10 13 10h225q8 0 8 -10l-102 -580q-2 -8 6 -8h580q8 0 10 8l102 580q0 10 13 10h225q8 0 8 -10l-252 -1422q0 -10 -12 -10z" />
    <glyph glyph-name="I" unicode="I" horiz-adv-x="565" 
d="M279 0h-226q-8 0 -8 10l252 1422q0 10 12 10h226q8 0 8 -10l-252 -1422q0 -10 -12 -10z" />
    <glyph glyph-name="J" unicode="J" horiz-adv-x="1058" 
d="M63 512h224q12 0 8 -10l-14 -82q-5 -51 -7 -99t33 -84t109 -36q174 0 211 219l178 1012q4 10 12 10h225q13 0 9 -10l-179 -1012q-36 -205 -150 -323t-347 -117q-412 0 -338 440l14 82q4 10 12 10z" />
    <glyph glyph-name="K" unicode="K" horiz-adv-x="1347" 
d="M1180 0h-260q-8 0 -15 16l-321 666q-2 6 -11 2l-165 -143q-14 -12 -17 -23l-90 -508q0 -10 -12 -10h-226q-8 0 -8 10l252 1422q0 10 12 10h226q8 0 8 -10l-98 -551q0 -16 14 -7l668 566q4 2 10 2h299q8 0 8 -7t-4 -12l-662 -557q-6 -6 -2 -14l406 -836q4 -16 -12 -16z
" />
    <glyph glyph-name="L" unicode="L" horiz-adv-x="1179" 
d="M995 0h-940q-8 0 -8 10l252 1422q0 10 12 10h226q8 0 8 -10l-211 -1199q-2 -8 6 -8h696q12 0 8 -10l-36 -205q-1 -10 -13 -10z" />
    <glyph glyph-name="M" unicode="M" horiz-adv-x="1810" 
d="M1522 0h-226q-8 0 -8 10l209 1182q2 8 -7 9t-13 -9l-478 -1186q0 -6 -12 -6h-379q-8 0 -8 6l-57 1186q-3 10 -11 9t-10 -9l-209 -1182q0 -10 -12 -10h-225q-8 0 -8 10l251 1422q0 10 13 10h426q10 0 12 -10l64 -1178q0 -6 7 -11t13 11l481 1178q2 10 15 10h428q8 0 8 -10
l-252 -1422q0 -10 -12 -10z" />
    <glyph glyph-name="N" unicode="N" horiz-adv-x="1499" 
d="M1241 1442h225q8 0 9 -10l-252 -1422q0 -10 -13 -10h-305q-8 0 -12 10l-369 1077q-4 10 -11 10q-7 -1 -9 -10l-191 -1077q0 -10 -12 -10h-227q-6 0 -6 10l251 1422q0 10 13 10h305q6 0 10 -10l371 -1078q4 -10 11 -9t9 9l191 1078q0 10 12 10z" />
    <glyph glyph-name="O" unicode="O" horiz-adv-x="1556" 
d="M698 205q188 0 316 136q127 136 170 380q41 244 -37 380t-266 136q-187 0 -315 -136t-170 -380t36 -380t266 -136zM402 1260q202 202 518 202t447 -202q132 -202 73 -540q-59 -337 -262 -539q-202 -201 -518 -201t-447 202t-72 539q59 336 261 539z" />
    <glyph glyph-name="P" unicode="P" horiz-adv-x="1290" 
d="M446 778h334q82 0 158 65t91 155t-37 154q-52 65 -134 65h-336q-6 0 -10 -9l-74 -420q0 -10 8 -10zM762 553h-356q-8 0 -11 -8l-94 -535q0 -10 -12 -10h-226q-8 0 -8 10l252 1422q0 10 12 10h601q176 0 280 -130t72 -315q-34 -186 -184 -315t-326 -129z" />
    <glyph glyph-name="Q" unicode="Q" horiz-adv-x="1568" 
d="M883 1235q-189 0 -315 -135t-169 -376t32 -379t253 -138q76 0 141 16q6 2 9 9q2 7 -3 10l-176 211q-4 4 -1 11t12 7h241q10 0 17 -6l92 -111q10 -10 18 2q109 129 152 369t-36 375t-267 135zM1352 -82h-242q-10 0 -18 8l-95 115q-6 8 -22 2q-152 -59 -322 -63
q-311 -6 -440 198t-70 542q59 337 263 540q204 202 518 202q315 0 446 -202t71 -537q-60 -336 -261 -545q-12 -12 -6 -22l188 -219q4 -3 1 -11t-11 -8z" />
    <glyph glyph-name="R" unicode="R" horiz-adv-x="1339" 
d="M446 778h342q82 4 154 68t87 152q15 89 -37 154t-134 65h-336q-6 0 -10 -9l-74 -420q0 -10 8 -10zM1122 0h-235q-2 0 -8 6l-144 537q0 10 -8 10h-321q-8 0 -11 -8l-94 -535q0 -10 -12 -10h-226q-8 0 -8 10l252 1422q0 10 12 10h601q176 0 280 -130t72 -315
q-20 -125 -100 -228t-191 -161q-4 -4 -2 -8l158 -586q4 -14 -15 -14z" />
    <glyph glyph-name="S" unicode="S" horiz-adv-x="1320" 
d="M313 406q12 0 9 -11q-12 -76 66 -133t206 -57q127 0 223 62q95 61 111 145t-49 139q-66 55 -211 67q-268 25 -392 119q-123 94 -88 293t208 316q173 116 383 116t344 -112t102 -303q-4 -10 -11 -11h-237q-12 0 -8 11q14 72 -49 131t-176 59t-198 -59q-86 -58 -100 -142
t59 -120t183 -49t162 -22q53 -9 135 -40t125 -74q42 -43 68 -123t8 -186q-35 -203 -205 -323q-171 -119 -439 -119t-386 124t-90 291q4 10 12 11h235z" />
    <glyph glyph-name="T" unicode="T" horiz-adv-x="1200" 
d="M596 0h-225q-8 0 -9 10l211 1196q4 10 -8 11h-379q-8 0 -8 10l37 205q0 10 12 10h1024q8 0 9 -10l-37 -205q0 -10 -13 -10h-379q-8 -1 -12 -11l-211 -1196q0 -10 -12 -10z" />
    <glyph glyph-name="U" unicode="U" horiz-adv-x="1341" 
d="M299 1442h225q12 0 8 -10l-163 -932q-19 -113 47 -194t180 -81t210 81q95 81 116 194l163 932q4 10 13 10h225q12 0 8 -10l-164 -932q-39 -217 -218 -369q-179 -151 -396 -151t-343 152t-87 368l164 932q4 10 12 10z" />
    <glyph glyph-name="V" unicode="V" horiz-adv-x="1509" 
d="M703 242q7 0 12 8l592 1186q4 6 12 6h235q16 0 7 -15l-709 -1417q-4 -10 -14 -10h-357q-6 0 -10 10l-211 1417q0 14 14 15h236q6 0 8 -6l176 -1186q2 -8 9 -8z" />
    <glyph glyph-name="W" unicode="W" horiz-adv-x="2113" 
d="M1903 1442h249q16 0 7 -15l-533 -1417q-4 -10 -14 -10h-393q-8 0 -11 10l-30 1182q0 8 -10 8t-13 -8l-448 -1182q-4 -10 -13 -10h-395q-8 0 -10 10l-33 1417q0 14 14 15h250q8 0 10 -10l2 -1180q0 -8 8 -8t13 8l446 1180q2 10 15 10h395q8 0 10 -10l31 -1180q0 -13 13 -8
q5 2 7 8l418 1180q2 10 15 10z" />
    <glyph glyph-name="X" unicode="X" horiz-adv-x="1394" 
d="M227 1442h271q6 0 12 -17l229 -489q6 -10 13 0l403 489q16 16 21 17h270q6 0 8 -5t-4 -12l-594 -698q-6 -8 -2 -14l348 -697q2 -4 -2 -10t-10 -6h-268q-8 0 -15 16l-231 492q-4 8 -12 0l-402 -492q-16 -16 -22 -16h-267q-6 0 -8 5t4 11l592 697q6 8 2 14l-348 698
q-2 5 2 11t10 6z" />
    <glyph glyph-name="Y" unicode="Y" horiz-adv-x="1421" 
d="M483 0q-8 0 -8 10l103 578q0 10 -3 14l-344 823q-4 16 13 17h268q8 0 12 -10l213 -584q8 -12 17 0l424 584q6 10 18 10h266q16 0 4 -17l-637 -823q-6 -8 -6 -14l-102 -578q0 -10 -12 -10h-226z" />
    <glyph glyph-name="Z" unicode="Z" horiz-adv-x="1212" 
d="M995 0h-1018q-8 0 -8 10l33 191q2 12 14 24l875 975q4 4 2 10t-8 7h-695q-8 0 -8 10l37 205q0 10 10 10h1022q8 0 9 -10l-35 -195q-4 -14 -11 -20l-878 -975q-4 -4 -2 -10t8 -7h694q12 0 8 -10l-36 -205q-1 -10 -13 -10z" />
    <glyph glyph-name="bracketleft" unicode="[" horiz-adv-x="698" 
d="M231 -262h263q8 0 8 -8l-23 -125q0 -10 -12 -11h-467q-6 0 -6 11l319 1827q4 10 13 10h467q12 0 8 -10l-21 -125q-2 -8 -12 -9h-262q-8 0 -12 -10l-271 -1540q-4 -10 8 -10z" />
    <glyph glyph-name="backslash" unicode="\" horiz-adv-x="782" 
d="M383 1442q6 0 8 -6l199 -1422q0 -14 -15 -14h-151q-6 0 -8 6l-201 1421q0 14 14 15h154z" />
    <glyph glyph-name="bracketright" unicode="]" horiz-adv-x="698" 
d="M-59 -262h260q8 0 12 10l270 1540q4 10 -8 10h-262q-10 0 -8 9l20 125q4 10 13 10h467q12 0 8 -10l-322 -1827q0 -10 -12 -11h-465q-8 0 -8 11l22 125q1 8 13 8z" />
    <glyph glyph-name="asciicircum" unicode="^" horiz-adv-x="1193" 
d="M291 602h-238q-16 0 -6 14l483 816q4 10 15 10h332q6 0 10 -10l194 -816q4 -14 -14 -14h-236q-4 0 -8 6l-143 600q-2 8 -10 8t-11 -8l-356 -600q-4 -6 -12 -6z" />
    <glyph glyph-name="underscore" unicode="_" horiz-adv-x="1298" 
d="M1047 0h-918q-12 0 -8 10l33 185q0 10 12 10h917q8 0 9 -10l-33 -185q-4 -10 -12 -10z" />
    <glyph glyph-name="grave" unicode="`" horiz-adv-x="643" 
d="M522 1151h-178q-16 0 -20 14l-123 262q-2 7 2 11t10 4h240q14 0 18 -15l64 -262q3 -14 -13 -14z" />
    <glyph glyph-name="a" unicode="a" horiz-adv-x="1185" 
d="M463 205q145 1 232 67t104 154q0 10 -8 10h-234q-215 0 -235 -127q-8 -39 24 -71t117 -33zM582 641h192q29 0 48 14t22 31q16 31 -17 89q-12 24 -57 40t-115 16q-197 0 -231 -135q0 -10 -12 -10h-224q-8 0 -8 10q31 172 176 266t349 95q203 -1 309 -101t73 -288
l-116 -658q-2 -10 -13 -10h-200q-8 0 -13 10l-8 66q-9 14 -37 -10t-112 -56q-84 -31 -166 -30q-201 0 -287 91t-60 235t159 240q134 95 348 95z" />
    <glyph glyph-name="b" unicode="b" horiz-adv-x="1277" 
d="M700 831q-244 0 -297 -313q-25 -143 23 -228t170 -85q123 0 207 85q83 85 108 228t-29 228t-182 85zM270 0h-194q-12 0 -8 10l249 1422q4 10 13 10h225q12 0 8 -10l-82 -467q-2 -9 4 -11t13 4q119 98 284 99q204 0 310 -151q106 -150 64 -390t-196 -388t-368 -148
q-76 0 -144 28t-102 68q-10 14 -22 0l-31 -66q-8 -10 -23 -10z" />
    <glyph glyph-name="c" unicode="c" horiz-adv-x="1181" 
d="M709 1057q195 1 307 -97t106 -264q0 -10 -12 -10h-231q-8 0 -13 10q-29 143 -196 144q-125 0 -205 -89t-106 -233q-27 -144 23 -232q50 -89 162 -89t168 35q56 36 95 108q6 10 16 10h232q14 0 8 -10q-61 -174 -205 -267t-340 -93q-236 0 -342 147t-63 392t201 391
t395 147z" />
    <glyph glyph-name="d" unicode="d" horiz-adv-x="1277" 
d="M547 205q123 0 201 85t102 228q53 313 -191 313q-127 0 -209 -86t-108 -227t28 -227t177 -86zM659 1057q88 0 153 -30t95 -69q6 -6 13 -4q6 2 8 11l82 467q4 10 12 10h225q12 0 8 -10l-249 -1422q-4 -10 -13 -10h-194q-16 0 -19 10l-10 66q-4 14 -22 0q-45 -39 -124 -68
t-155 -28q-215 0 -315 148t-58 388t200 390q159 150 363 151z" />
    <glyph glyph-name="e" unicode="e" horiz-adv-x="1200" 
d="M375 629h465q10 0 10 8q12 72 -38 133t-165 61t-191 -62t-87 -132q0 -8 6 -8zM1055 424h-713q-12 0 -12 -10q-16 -86 42 -148t165 -61q154 0 215 92q6 10 18 10h240q12 0 8 -10q-60 -147 -202 -232t-320 -85q-223 0 -335 150t-70 390t206 388t388 148t336 -149
q112 -150 71 -389q-17 -61 -25 -84q-6 -10 -12 -10z" />
    <glyph glyph-name="f" unicode="f" horiz-adv-x="778" 
d="M135 1036h168q10 0 10 8l21 109q25 141 121 216t235 73h162q6 0 6 -10l-37 -205q0 -10 -12 -10h-145q-31 1 -56 -17t-28 -49l-21 -107q0 -8 10 -8h209q8 0 8 -10l-34 -195q0 -10 -13 -10h-209q-8 0 -12 -10l-141 -801q0 -10 -12 -10h-226q-8 0 -8 10l141 801q4 10 -8 10
h-168q-8 0 -8 10l35 195q0 10 12 10z" />
    <glyph glyph-name="g" unicode="g" horiz-adv-x="1247" 
d="M565 205q252 0 309 313q25 143 -24 228t-175 85t-209 -86t-108 -228q-24 -142 28 -227t179 -85zM664 1057q186 0 270 -99q10 -10 16 0l33 66q8 12 23 12h194q12 0 8 -10l-174 -995q-38 -205 -202 -331t-369 -126t-320 100t-92 238q4 10 12 10h222q10 0 11 -14
q4 -50 78 -85q48 -24 120 -24q240 0 294 232l7 35v8q2 6 -4 8t-11 -2q-41 -35 -122 -68t-175 -32q-197 0 -305 151t-65 387q41 236 203 388t348 151z" />
    <glyph glyph-name="h" unicode="h" horiz-adv-x="1245" 
d="M977 0h-225q-8 0 -9 10l99 559q18 103 -26 179t-157 76t-181 -68q-68 -66 -85 -166l-102 -580q0 -10 -12 -10h-226q-8 0 -8 10l252 1422q0 10 12 10h226q8 0 8 -10l-82 -465q-2 -11 4 -13q5 -2 27 18t95 52t154 33q213 0 299 -139t47 -349l-98 -559q0 -10 -12 -10z" />
    <glyph glyph-name="i" unicode="i" horiz-adv-x="606" 
d="M299 0h-225q-8 0 -8 10l180 1016q0 10 12 10h225q8 0 9 -10l-181 -1016q0 -10 -12 -10zM524 1151h-266q-10 0 -10 10l49 271q0 10 12 10h266q8 0 9 -10l-49 -271q-1 -10 -11 -10z" />
    <glyph glyph-name="j" unicode="j" horiz-adv-x="634" 
d="M588 1151h-266q-8 0 -9 10l49 271q0 10 11 10h266q10 0 10 -10l-49 -271q0 -10 -12 -10zM-158 -406q-6 0 -6 11l37 205q0 10 12 10h140q29 -4 55 15t29 50l202 1141q0 10 13 10h225q8 0 8 -10l-203 -1143q-49 -293 -354 -289h-158z" />
    <glyph glyph-name="k" unicode="k" horiz-adv-x="1261" 
d="M279 0h-226q-8 0 -8 10l252 1422q0 10 12 10h226q8 0 8 -10l-133 -748q0 -16 14 -6l463 346q14 10 22 10h330q9 0 8 -8q-2 -8 -6 -10l-448 -332q-6 -4 -2 -14l270 -654q4 -16 -12 -16h-252l-4 4l-211 514q-2 2 -8 2t-7 -2l-200 -151q-14 -10 -17 -23l-59 -334
q0 -10 -12 -10z" />
    <glyph glyph-name="l" unicode="l" horiz-adv-x="565" 
d="M279 0h-226q-8 0 -8 10l252 1422q0 10 12 10h226q8 0 8 -10l-252 -1422q0 -10 -12 -10z" />
    <glyph glyph-name="m" unicode="m" horiz-adv-x="1763" 
d="M1522 0h-226q-12 0 -8 10l98 568q18 106 -12 180q-31 74 -129 73q-182 0 -229 -253l-98 -568q-4 -10 -13 -10h-225q-12 0 -8 10l98 568q18 106 -12 180q-31 74 -129 73q-182 0 -230 -253l-98 -568q-4 -10 -12 -10h-226q-12 0 -8 10l178 1016q4 10 13 10h194q14 0 19 -12
l10 -61q4 -16 16 -5q43 35 122 67t145 32q178 0 243 -121q8 -12 17 0q137 121 295 121q199 0 285 -116t44 -351l-102 -580q-4 -10 -12 -10z" />
    <glyph glyph-name="n" unicode="n" horiz-adv-x="1224" 
d="M776 1057q90 0 168 -40q80 -40 115 -108q75 -146 35 -340l-99 -559q-4 -10 -12 -10h-225q-12 0 -8 10l98 559q18 103 -26 183t-156 80t-182 -70q-69 -70 -85 -172l-102 -580q-4 -10 -12 -10h-226q-12 0 -8 10l178 1016q4 10 13 10h194q16 0 17 -10l12 -63q6 -20 20 -2
q41 35 121 65t170 31z" />
    <glyph glyph-name="o" unicode="o" horiz-adv-x="1185" 
d="M517 205q128 0 210 83t109 230q24 146 -28 230t-180 84t-211 -84q-83 -82 -109 -230t28 -230q54 -83 181 -83zM476 -20q-236 0 -346 147t-67 391q41 244 203 391t399 147t348 -146q111 -148 68 -392t-205 -391t-400 -147z" />
    <glyph glyph-name="p" unicode="p" horiz-adv-x="1277" 
d="M719 831q-123 0 -201 -85t-102 -228q-57 -313 188 -313q127 0 211 85t109 227q26 142 -28 228t-177 86zM795 1057q215 -1 316 -149t59 -388t-200 -390t-364 -150q-166 0 -250 98q-4 6 -10 4t-8 -10l-84 -467q0 -10 -10 -11h-226q-10 0 -10 11l252 1421q0 10 12 10h195
q16 0 18 -10l9 -65q4 -14 22 0q45 39 124 67t155 29z" />
    <glyph glyph-name="q" unicode="q" horiz-adv-x="1277" 
d="M584 205q242 0 299 313q25 143 -23 228t-170 85t-206 -85t-109 -227t28 -228t181 -86zM1016 1036h194q8 0 9 -10l-252 -1421q0 -10 -11 -11h-225q-10 0 -10 11l84 467q2 8 -4 10t-15 -4q-113 -98 -282 -98q-205 0 -310 150q-106 150 -64 390t195 388t367 149
q76 -1 144 -29t102 -67q10 -14 23 0l32 65q8 10 23 10z" />
    <glyph glyph-name="r" unicode="r" horiz-adv-x="817" 
d="M659 821q-113 1 -181 -65t-83 -166l-102 -580q-4 -10 -12 -10h-228q-10 0 -6 10l178 1016q4 10 11 10h196q14 0 19 -12l10 -61q4 -16 16 -5q119 98 246 99h113q8 0 8 -10l-39 -216q0 -10 -12 -10h-134z" />
    <glyph glyph-name="s" unicode="s" horiz-adv-x="1118" 
d="M460 -20q-214 0 -320 106q-105 106 -81 254q4 10 13 10h235q12 0 8 -10q-8 -55 39 -95t150 -40q209 0 229 117q6 12 1 23t-6 21t-13 15q-13 6 -19 11q-20 15 -66 20q-46 4 -64 6t-60 6q-214 20 -300 96q-34 31 -52 87t-4 130q23 135 158 228q136 92 331 92t303 -93
t76 -268q0 -10 -10 -10h-230q-8 0 -8 10q10 52 -32 94t-137 42t-147 -28q-52 -26 -58 -58t8 -53q13 -21 63 -30q49 -9 169 -25t181 -38q199 -69 162 -278q-29 -162 -167 -252t-352 -90z" />
    <glyph glyph-name="t" unicode="t" horiz-adv-x="819" 
d="M291 821h-168q-10 0 -10 10l34 195q4 10 13 10h168q8 0 12 11l49 276q0 10 12 10h226q8 0 8 -10l-49 -276q-4 -10 8 -11h209q12 0 8 -10l-35 -195q0 -10 -10 -10h-209q-12 0 -12 -10l-92 -520q-6 -31 12 -48t49 -18h145q12 0 9 -10l-35 -205q-4 -10 -12 -10h-160
q-162 0 -221 68t-33 221l92 522q0 10 -8 10z" />
    <glyph glyph-name="u" unicode="u" horiz-adv-x="1202" 
d="M215 1036h225q12 0 9 -10l-99 -559q-18 -104 25 -183t155 -79q112 -1 182 69q69 70 87 172l102 580q4 10 12 10h228q10 0 6 -10l-178 -1016q-4 -10 -13 -10h-194q-16 0 -19 12l-10 62q-4 20 -22 2q-43 -37 -111 -67t-129 -29q-164 0 -257 68q-92 68 -110 178
q-18 108 0 241l99 559q4 10 12 10z" />
    <glyph glyph-name="v" unicode="v" horiz-adv-x="1187" 
d="M946 1036h232q18 0 8 -14l-516 -1012q-4 -10 -15 -10h-331q-6 0 -11 10l-161 1012q-4 14 12 14h235q12 0 13 -14l108 -789q0 -8 8 -8t13 8l387 789q6 14 18 14z" />
    <glyph glyph-name="w" unicode="w" horiz-adv-x="1753" 
d="M1513 1036h230q14 0 8 -12l-416 -1014q-4 -10 -14 -10h-350q-6 0 -10 10l-41 793q0 14 -14 8q-5 -2 -7 -8l-319 -793q-4 -10 -15 -10h-350q-6 0 -10 10l-60 1014q0 12 11 12h229q12 0 12 -12l25 -791q0 -13 13 -8q5 2 7 8l328 791q8 12 16 12h328q12 0 12 -12l50 -791
q0 -8 8 -8t12 8l303 791q8 12 14 12z" />
    <glyph glyph-name="x" unicode="x" horiz-adv-x="1204" 
d="M1016 0h-258q-10 0 -17 10l-176 305q-4 10 -14 0l-281 -305q-6 -10 -18 -10h-258q-6 0 -8 5t4 11l454 490q6 10 2 16l-282 498q-8 16 10 16h252q10 0 16 -10l181 -313q4 -12 16 0l291 313q6 10 18 10h250q6 0 9 -5t-3 -11l-459 -498q-6 -10 -2 -16l285 -490q2 -6 -2 -11
t-10 -5z" />
    <glyph glyph-name="y" unicode="y" horiz-adv-x="1204" 
d="M991 1036h238q14 0 8 -10l-600 -1173q-70 -133 -159 -195t-218 -64h-299q-12 0 -8 11l33 192q4 10 12 10h248q90 -1 110 53t6 150l-163 1016q0 10 12 10h240q10 0 10 -10l108 -793q1 -8 9 -8t12 8l387 793q6 10 14 10z" />
    <glyph glyph-name="z" unicode="z" horiz-adv-x="1026" 
d="M866 0h-815q-8 0 -8 10l35 197q4 12 12 18l594 570q4 4 3 10t-9 6h-463q-12 0 -8 10l37 205q0 10 10 10h770q10 0 10 -10l-37 -203q0 -4 -6 -10l-592 -571q-4 -4 -3 -10t10 -7h501q8 0 8 -10l-36 -205q-1 -10 -13 -10z" />
    <glyph glyph-name="braceleft" unicode="{" horiz-adv-x="778" 
d="M434 -406q-141 0 -185 69t-18 220l80 455q8 45 -17 77q-26 32 -71 31h-51q-12 0 -8 11l20 123q4 10 13 10h51q43 0 81 33t46 77l80 451q27 151 95 221t210 70h112q12 0 9 -10l-21 -125q-2 -8 -12 -9h-72q-45 0 -83 -32t-48 -78l-76 -436q-14 -80 -45 -131t-55 -67
q-25 -15 -61 -32q-6 -4 -2 -8q113 -51 81 -227l-77 -439q-8 -46 20 -78t72 -32h71q9 0 9 -8l-23 -125q0 -10 -12 -11h-113z" />
    <glyph glyph-name="bar" unicode="|" horiz-adv-x="483" 
d="M162 -406h-162q-4 0 -4 11l319 1827q4 10 11 10h161q12 0 9 -10l-322 -1827q0 -11 -12 -11z" />
    <glyph glyph-name="braceright" unicode="}" horiz-adv-x="778" 
d="M-59 -262h69q45 0 83 33t46 77l78 439q31 174 160 227q10 4 2 8q-25 12 -37 22t-32 37q-19 27 -18 65t7 106l76 436q8 45 -19 78t-71 32h-72q-10 0 -8 9l20 125q4 10 13 10h112q142 0 186 -70t17 -221l-80 -451q-8 -46 20 -78t70 -32h51q12 0 9 -10l-21 -123
q-4 -10 -12 -11h-51q-45 0 -83 -32t-46 -76l-80 -455q-27 -153 -96 -221t-209 -68h-111q-8 1 -8 11l22 125q0 8 13 8z" />
    <glyph glyph-name="asciitilde" unicode="~" horiz-adv-x="1118" 
d="M725 387q-67 0 -137 36t-129 72q-59 35 -93 35t-62 -22t-32 -49l-10 -62q-4 -10 -12 -10l-168 41q-8 0 -8 10l10 62q16 94 106 163t205 68q67 0 137 -36q70 -37 128 -73t94 -36t62 22q28 22 32 47l10 66q4 10 12 10l168 -41q13 0 9 -10l-13 -66q-16 -92 -106 -160
t-203 -67z" />
    <glyph glyph-name="DEL" horiz-adv-x="614" 
 />
    <glyph glyph-name="nbspace" unicode="&#xa0;" horiz-adv-x="614" 
 />
    <glyph glyph-name="exclamdown" unicode="&#xa1;" horiz-adv-x="567" 
d="M223 1440h307q8 0 9 -10l-56 -312q-4 -10 -12 -10h-307q-12 0 -8 10l55 312q0 10 12 10zM209 1014h184q12 0 8 -10l-86 -601l-69 -395q0 -10 -13 -10h-225q-8 0 -8 10l70 395l127 601q4 10 12 10z" />
    <glyph glyph-name="cent" unicode="&#xa2;" horiz-adv-x="1171" 
d="M1090 688h-234q-4 0 -8 6q-31 145 -199 146q-125 0 -205 -89t-106 -233t24 -232q49 -89 175 -89q168 0 256 155q2 6 10 6h233q4 0 7 -4t1 -8q-51 -150 -175 -246t-289 -114l-33 -183q0 -10 -12 -10h-142q-6 0 -6 10l33 183q-197 25 -282 167t-46 363q39 222 171 364
t333 169q8 2 14 12l29 172q4 10 10 10h142q12 0 8 -10l-29 -172q-4 -10 8 -10q154 -21 240 -113t84 -238q2 -4 -3 -8t-9 -4z" />
    <glyph glyph-name="sterling" unicode="&#xa3;" horiz-adv-x="1339" 
d="M983 442h209q12 0 8 -10l-74 -422q-4 -10 -12 -10h-1120q-12 0 -8 10l34 205q0 10 11 10h145q34 -1 58 17t28 49l60 332q0 10 -9 10h-209q-10 0 -10 10l35 195q4 10 12 10h209q8 0 12 10l31 178q31 178 181 302q151 124 353 124t306 -129t70 -321q0 -10 -13 -11h-223
q-8 0 -8 11q14 86 -33 156t-138 69q-91 0 -163 -61t-86 -140l-31 -178q-4 -10 8 -10h191q12 0 8 -10l-35 -195q0 -10 -10 -10h-190q-12 0 -13 -10l-55 -314q-10 -49 -27 -71q-4 -12 9 -13h430q12 0 12 11l35 196q4 10 12 10z" />
    <glyph glyph-name="currency" unicode="&#xa4;" horiz-adv-x="1382" 
d="M813 1255q176 0 283 -88q14 -10 26 2l156 131q8 10 14 0l88 -108q10 -6 -2 -14l-168 -144q-10 -6 -6 -20q46 -135 16 -303t-124 -297q-4 -8 2 -15l119 -141q10 -6 -3 -14l-129 -109q-8 -10 -14 0l-108 131q-10 10 -25 0q-138 -88 -320 -88t-292 88q-10 8 -19 0l-155 -131
q-8 -10 -15 0l-88 109q-10 6 2 14l166 141q8 8 4 17q-45 135 -14 305t121 295q8 10 2 18l-117 144q-10 6 2 14l129 108q8 10 14 0l105 -131q10 -10 22 -4q152 90 328 90zM769 1030q-128 0 -210 -83q-81 -83 -107 -230t26 -231t180 -83q128 -1 211 83t108 231q27 147 -27 230
t-181 83z" />
    <glyph glyph-name="yen" unicode="&#xa5;" horiz-adv-x="1421" 
d="M1032 844h168q12 0 8 -10l-34 -203q-4 -10 -13 -10h-321q-8 0 -13 -11l-32 -180q0 -10 10 -10h321q8 0 9 -10l-37 -203q0 -10 -13 -10h-323q-8 -2 -8 -11l-33 -176q0 -10 -12 -10h-226q-8 0 -8 10l33 176q0 10 -10 11h-328q-8 0 -8 10l37 203q0 10 12 10h328q10 0 10 10
l33 180q4 10 -9 11h-327q-12 0 -8 10l34 203q4 10 13 10h174q18 0 12 16l-240 565q-4 16 13 17h270q2 0 6 -4l223 -588q0 -8 9 0l430 588q4 4 10 4h270q16 -1 4 -17l-438 -565q-12 -16 4 -16z" />
    <glyph glyph-name="brokenbar" unicode="&#xa6;" horiz-adv-x="483" 
d="M141 -406h-141q-4 0 -4 11l143 821q0 10 11 10h141q8 0 8 -10l-145 -821q-1 -11 -13 -11zM319 600h-141q-10 0 -6 10l143 822q4 10 11 10h141q12 0 8 -10l-143 -822q-5 -10 -13 -10z" />
    <glyph glyph-name="section" unicode="&#xa7;" horiz-adv-x="1327" 
d="M371 569q0 -60 58 -97t122 -56t106 -31q119 -25 187 -53q36 14 70 45t47 65q31 94 -39 140t-214 80q-144 35 -208 63q-129 -57 -129 -156zM824 1460q208 0 331 -103t94 -310q0 -10 -12 -11h-240q-8 0 -8 11q16 82 -43 136q-58 54 -158 54t-164 -45t-73 -89
q-18 -99 88 -142q72 -29 179 -57t175 -56q181 -73 221 -197q25 -74 7 -176q-33 -180 -217 -299q-16 -10 -3 -20q78 -86 54 -211q-31 -169 -184 -269t-361 -100t-331 103q-124 103 -95 311q4 10 12 10h240q12 0 8 -10q-14 -82 45 -136t159 -54t163 44q63 46 73 101
q14 78 -60 127t-192 80q-118 30 -185 58q-185 76 -224 199q-25 75 -7 177t64 167q45 65 127 126q12 10 4 20q-55 63 -32 193q31 170 184 269t361 99z" />
    <glyph glyph-name="dieresis" unicode="&#xa8;" horiz-adv-x="940" 
d="M864 1151h-264q-12 0 -8 10l47 271q0 10 12 10h264q8 0 9 -10l-47 -271q-5 -10 -13 -10zM414 1151h-264q-12 0 -9 10l47 271q0 10 13 10h264q8 0 8 -10l-47 -271q-4 -10 -12 -10z" />
    <glyph glyph-name="copyright" unicode="&#xa9;" horiz-adv-x="1681" 
d="M1067 559h104q8 0 9 -10q-14 -80 -136 -176q-122 -97 -294 -97t-255 123t-46 322q35 199 161 321t300 123q176 0 260 -101t69 -175q0 -6 -8 -6h-109q-4 0 -10 31t-35 71q-55 74 -180 75t-212 -89t-115 -250t26 -250t175 -90q119 0 187 52t99 120q4 6 10 6zM732 63
q271 0 499 194q227 194 274 465t-111 465q-159 193 -430 193t-498 -193q-226 -194 -273 -465t111 -465t428 -194zM719 0q-195 0 -342 97t-214 264t-32 362q53 297 300 508t544 211t471 -211t121 -509t-302 -510t-546 -212z" />
    <glyph glyph-name="ordfeminine" unicode="&#xaa;" horiz-adv-x="612" 
d="M400 991q62 0 110 36q47 36 55 83q0 6 -6 6h-125q-117 0 -127 -67q-5 -23 13 -41t80 -17zM446 1227h105q37 0 37 24q0 11 1 29t-26 34t-76 15q-104 0 -125 -72q0 -6 -6 -6h-120q-4 0 -5 6q17 91 95 143t188 52t168 -54q57 -54 39 -157l-64 -354q-2 -6 -6 -6h-108
q-6 0 -6 6l-7 35q-2 6 -12 0q-61 -52 -164 -52q-102 0 -148 50t-33 127q13 78 86 129t187 51z" />
    <glyph glyph-name="guillemotleft" unicode="&#xab;" horiz-adv-x="1251" 
d="M1053 0h-150q-6 0 -10 6l-346 504q-6 12 4 18l522 502q4 6 10 6h152q6 0 7 -6t-3 -10l-516 -492q-8 -8 -4 -18l342 -496q4 -2 1 -8t-9 -6zM674 0h-150q-8 0 -10 6l-346 504q-6 12 4 18l522 502q2 6 11 6h151q6 0 7 -6t-3 -10l-516 -492q-8 -8 -4 -18l342 -496q4 -2 1 -8
t-9 -6z" />
    <glyph glyph-name="logicalnot" unicode="&#xac;" horiz-adv-x="1374" 
d="M958 418h-784q-12 0 -8 10l35 205q4 10 12 10h1014q12 0 8 -10l-109 -623q-4 -10 -12 -10h-209q-12 0 -8 10l70 398q0 10 -9 10z" />
    <glyph glyph-name="uni00AD" unicode="&#xad;" 
d="M76 96l465 625l-246 625zM594 721l244 -623l219 1245q-373 -497 -463 -622zM94 49h709l-246 625zM575 768l465 627h-708zM858 0h-842q-8 0 -8 10l252 1422q0 10 12 10h842q8 0 8 -10l-252 -1422q0 -10 -12 -10z" />
    <glyph glyph-name="registered" unicode="&#xae;" horiz-adv-x="1681" 
d="M987 1049h-293q-12 0 -12 -11l-51 -290q-4 -10 8 -11h297q57 2 110 47q52 46 62 108t-26 110t-95 47zM596 1153h424q102 0 164 -77t44 -171q-33 -181 -188 -246q-12 -4 -6 -14l94 -344q6 -12 -10 -12h-96q-14 0 -18 10l-84 326q0 8 -13 8h-291q-6 0 -8 -6l-57 -328
q0 -10 -12 -10h-97q-8 0 -8 10l150 844q0 10 12 10zM732 63q271 0 499 194q227 194 274 465t-111 466q-159 194 -430 194t-498 -194q-226 -195 -273 -466t111 -465t428 -194zM719 0q-195 0 -342 97t-214 264t-32 362q53 297 300 509t544 212t471 -212t121 -510t-302 -510
t-546 -212z" />
    <glyph glyph-name="macron" unicode="&#xaf;" horiz-adv-x="772" 
d="M711 1171h-545q-6 0 -6 11l26 143q0 10 11 10h544q8 0 9 -10l-27 -143q0 -11 -12 -11z" />
    <glyph glyph-name="degree" unicode="&#xb0;" horiz-adv-x="837" 
d="M452 1004q62 0 114 44t62 106t-25 106q-36 44 -98 45q-62 0 -115 -44q-52 -45 -62 -107t26 -106t98 -44zM532 1464q129 0 204 -91t52 -220t-129 -219t-235 -90t-204 90t-52 219t129 220t235 91z" />
    <glyph glyph-name="plusminus" unicode="&#xb1;" horiz-adv-x="1376" 
d="M104 223h1016q8 0 8 -10l-36 -203q0 -10 -13 -10h-1016q-8 0 -8 10l37 203q0 10 12 10zM248 1034h385q10 0 10 10l70 388q0 10 12 10h205q8 0 8 -10l-70 -388q0 -10 11 -10h385q8 0 8 -10l-37 -203q0 -10 -12 -10h-385q-8 0 -13 -10l-67 -385q0 -10 -13 -10h-204
q-8 0 -9 10l68 385q4 10 -8 10h-385q-8 0 -8 10l37 203q0 10 12 10z" />
    <glyph glyph-name="twosuperior" unicode="&#xb2;" horiz-adv-x="825" 
d="M688 651h-495q-4 0 -5 6l19 101q0 8 6 14l350 295q86 76 94 126t-16 88q-25 38 -81 38t-96 -37t-48 -84q0 -6 -6 -6h-121q-4 0 -4 6q16 104 100 174t197 70t170 -70q56 -70 36 -182t-147 -213l-244 -195q-4 -2 -3 -6t5 -4h310q6 0 6 -4l-21 -111q-2 -6 -6 -6z" />
    <glyph glyph-name="threesuperior" unicode="&#xb3;" horiz-adv-x="827" 
d="M578 1442q108 0 166 -67t40 -167t-118 -157q-10 -6 -2 -11q34 -18 58 -65t10 -126t-93 -143q-78 -64 -200 -65q-122 0 -175 68t-37 168q0 6 6 6h121q6 0 6 -6q-8 -37 17 -76t80 -39t97 32t50 80t-22 79q-31 30 -84 32h-37q-4 0 -4 4l18 111q4 6 8 6h35q47 0 86 27t47 73
t-18 80q-27 33 -76 33t-88 -38t-47 -83q-4 -6 -6 -6h-121q-8 0 -4 6q16 104 97 174t190 70z" />
    <glyph glyph-name="acute" unicode="&#xb4;" horiz-adv-x="643" 
d="M360 1151h-178q-18 0 -8 14l158 262q4 14 22 15h240q16 0 8 -15l-217 -262q-15 -14 -25 -14z" />
    <glyph glyph-name="mu" unicode="&#xb5;" 
d="M76 96l465 625l-246 625zM594 721l244 -623l219 1245q-373 -497 -463 -622zM94 49h709l-246 625zM575 768l465 627h-708zM858 0h-842q-8 0 -8 10l252 1422q0 10 12 10h842q8 0 8 -10l-252 -1422q0 -10 -12 -10z" />
    <glyph glyph-name="paragraph" unicode="&#xb6;" horiz-adv-x="1329" 
d="M508 647q-154 0 -243 117q-89 118 -60 278t154 276q126 116 282 124h678q10 0 10 -10l-323 -1829q0 -10 -13 -11h-205q-8 0 -8 11l291 1644q0 10 -8 10h-203q-12 0 -12 -10l-291 -1644q0 -10 -12 -11h-203q-8 1 -8 11l182 1034q4 10 -8 10z" />
    <glyph glyph-name="periodcentered" unicode="&#xb7;" horiz-adv-x="522" 
d="M397 565h-305q-12 0 -8 10l53 310q4 10 13 10h305q12 0 8 -10l-53 -310q-5 -10 -13 -10z" />
    <glyph glyph-name="cedilla" unicode="&#xb8;" horiz-adv-x="624" 
d="M219 10h129q14 0 8 -10l-63 -94q-6 -14 6 -15q63 -4 107 -41q44 -36 30 -112t-79 -120t-155 -44t-146 46q-54 46 -42 120q4 10 13 10h102q12 0 8 -18q-3 -18 17 -40t57 -22t67 20t35 50q14 80 -77 80q-37 0 -43 6l-31 31q-8 8 2 24l59 84q4 2 2 8t-10 7q-18 0 -12 15
t16 15z" />
    <glyph glyph-name="onesuperior" unicode="&#xb9;" horiz-adv-x="651" 
d="M291 1204q-4 0 -4 6l16 99q4 6 6 6h135q25 0 45 17t25 40l12 64q0 6 6 6h121q6 0 6 -6l-137 -766q0 -6 -6 -6h-123q-4 0 -4 6l90 504q6 31 -24 30h-164z" />
    <glyph glyph-name="ordmasculine" unicode="&#xba;" horiz-adv-x="655" 
d="M508 1323q-68 0 -113 -45t-59 -124t16 -124t97 -45q141 0 172 170q14 78 -15 123q-30 45 -98 45zM427 864q-128 0 -186 79q-57 79 -35 211t108 212q87 80 215 80t188 -80t37 -212t-111 -211t-216 -79z" />
    <glyph glyph-name="guillemotright" unicode="&#xbb;" horiz-adv-x="1251" 
d="M645 1036h152q6 0 10 -6l346 -502q4 -10 -4 -18l-522 -504q-8 -6 -15 -6h-149q-10 2 -4 14l518 496q8 8 4 18l-344 492q-4 4 -1 10t9 6zM266 1036h152q8 0 10 -6l346 -502q4 -10 -4 -18l-522 -504q-10 -6 -15 -6h-149q-10 2 -4 14l518 496q8 8 4 18l-344 492q-4 4 -1 10
t9 6z" />
    <glyph glyph-name="onequarter" unicode="&#xbc;" horiz-adv-x="1650" 
d="M924 289h202q6 0 7 6l51 280q0 2 -4 2t-9 -2l-249 -276q-6 -10 2 -10zM1364 168h-115q-6 0 -6 -6l-29 -156q0 -6 -6 -6h-121q-4 0 -4 6l27 156q2 2 0 4t-4 2h-363q-8 0 -4 4l17 102q8 16 8 21l440 477q4 6 10 6h134q4 0 4 -6l-86 -477q0 -6 4 -6h114q7 0 7 -6l-21 -111
q-4 -4 -6 -4zM227 1206q-4 0 -4 6l17 99q2 6 6 6h135q25 0 45 17t25 40l12 64q0 6 6 6h121q6 0 6 -6l-137 -766q0 -6 -6 -6h-123q-4 0 -4 6l90 504q6 31 -25 30h-164zM1284 1442h131q16 0 4 -17l-1122 -1421q-4 -4 -10 -4h-127q-16 0 -4 16l1118 1422q4 4 10 4z" />
    <glyph glyph-name="onehalf" unicode="&#xbd;" horiz-adv-x="1683" 
d="M1366 0h-496q-4 0 -4 6l19 100q0 8 6 15l350 295q86 76 94 126t-16 88q-25 38 -81 38t-96 -37t-48 -84q0 -6 -7 -6h-120q-4 0 -4 6q16 104 100 174q85 70 197 70t170 -70q58 -71 36 -183q-21 -112 -147 -212l-244 -195q-4 -2 -3 -6t5 -4h309q6 0 7 -4l-21 -111
q-4 -6 -6 -6zM227 1204q-4 0 -4 6l17 99q2 6 6 6h135q25 0 45 17t25 40l12 64q0 6 6 6h121q6 0 6 -6l-137 -766q0 -6 -6 -6h-123q-4 0 -4 6l90 504q6 31 -25 30h-164zM1298 1442h132q16 0 4 -17l-1123 -1421q-4 -4 -10 -4h-127q-16 0 -4 16l1118 1422q4 4 10 4z" />
    <glyph glyph-name="threequarters" unicode="&#xbe;" horiz-adv-x="1624" 
d="M897 289h203q6 0 6 6l51 280q0 2 -5 2t-7 -2l-250 -276q-6 -10 2 -10zM1337 168h-114q-6 0 -6 -6l-29 -156q0 -6 -6 -6h-121q-4 0 -4 6l26 156q2 2 0 4t-4 2h-362q-8 0 -4 4l16 102q8 16 8 21l441 477q2 6 10 6h133q4 0 4 -6l-86 -477q0 -6 4 -6h115q6 0 6 -6l-21 -111
q-4 -4 -6 -4zM514 1442q108 0 167 -67q58 -67 40 -167t-119 -157q-10 -6 -2 -11q34 -18 58 -65t10 -126t-92 -143t-200 -65q-122 0 -175 68t-37 168q0 6 6 6h121q6 0 6 -6q-7 -37 17 -76t79 -39t97 32t50 80t-22 79q-31 30 -84 32h-37q-4 0 -4 4l19 111q2 6 8 6h35
q47 0 86 27t47 73t-19 80q-27 33 -75 33t-88 -38q-39 -38 -48 -83q-2 -6 -6 -6h-121q-6 0 -4 6q15 104 97 174t190 70zM1331 1442h131q16 0 4 -17l-1122 -1421q-4 -4 -10 -4h-127q-16 0 -4 16l1118 1422q4 4 10 4z" />
    <glyph glyph-name="questiondown" unicode="&#xbf;" horiz-adv-x="1118" 
d="M1006 1102h-310q-8 0 -8 10l55 311q4 10 13 11h309q12 -1 8 -11l-55 -311q0 -10 -12 -10zM721 997h227q10 0 6 -10l-14 -90q-23 -127 -72 -189q-50 -62 -160 -114t-153 -93q-43 -42 -54 -111t41 -121t158 -52t174 53t80 129l4 23q0 10 13 10h221q8 0 8 -10l-4 -23
q-30 -178 -182 -302t-358 -124t-319 123q-140 154 -59 398q16 51 77 130q33 43 195 130q54 28 92 50t52 93l15 90q4 10 12 10z" />
    <glyph glyph-name="Agrave" unicode="&#xc0;" horiz-adv-x="1511" 
d="M1014 1559h-178q-16 0 -21 14l-123 262q-5 14 13 14h239q14 0 19 -14l63 -262q4 -14 -12 -14zM528 522h439q12 0 8 10l-96 676q-1 8 -9 8t-12 -8l-336 -676q-4 -10 6 -10zM997 297h-579q-10 0 -17 -10l-137 -277q-2 -10 -14 -10h-236q-16 0 -6 14l705 1418q4 10 14 10
h369q6 0 10 -10l203 -1418q0 -14 -15 -14h-235q-6 0 -10 10l-29 215l-10 62q-1 10 -13 10z" />
    <glyph glyph-name="Aacute" unicode="&#xc1;" horiz-adv-x="1511" 
d="M993 1556h-178q-18 0 -8 15l158 262q4 14 22 14h240q14 0 8 -14l-217 -262q-15 -15 -25 -15zM528 522h439q12 0 8 10l-96 676q-1 8 -9 8t-12 -8l-336 -676q-4 -10 6 -10zM997 297h-579q-10 0 -17 -10l-137 -277q-2 -10 -14 -10h-236q-16 0 -6 14l705 1418q4 10 14 10h369
q6 0 10 -10l203 -1418q0 -14 -15 -14h-235q-6 0 -10 10l-29 215l-10 62q-1 10 -13 10z" />
    <glyph glyph-name="Acircumflex" unicode="&#xc2;" horiz-adv-x="1511" 
d="M1174 1556h-164q-6 0 -11 7l-36 96q-10 18 -21 0l-74 -96q-4 -6 -10 -7h-164q-18 0 -8 15l162 262q4 14 22 14h228q14 0 18 -14l70 -262q4 -15 -12 -15zM528 522h439q12 0 8 10l-96 676q-1 8 -9 8t-12 -8l-336 -676q-4 -10 6 -10zM997 297h-579q-10 0 -17 -10l-137 -277
q-2 -10 -14 -10h-236q-16 0 -6 14l705 1418q4 10 14 10h369q6 0 10 -10l203 -1418q0 -14 -15 -14h-235q-6 0 -10 10l-29 215l-10 62q-1 10 -13 10z" />
    <glyph glyph-name="Atilde" unicode="&#xc3;" horiz-adv-x="1511" 
d="M860 1847q80 0 162 -70q27 -24 42 -24q16 0 26 2q10 1 27 21t26 61q4 10 12 10h143q12 0 9 -10l-13 -70q-12 -70 -78 -132t-186 -62q-62 0 -124 47t-78 47t-27 -2q-9 -2 -27 -21t-26 -61q0 -10 -13 -10h-143q-8 0 -8 10l12 68q12 72 78 134t186 62zM528 522h439
q12 0 8 10l-96 676q-1 8 -9 8t-12 -8l-336 -676q-4 -10 6 -10zM997 297h-579q-10 0 -17 -10l-137 -277q-2 -10 -14 -10h-236q-16 0 -6 14l705 1418q4 10 14 10h369q6 0 10 -10l203 -1418q0 -14 -15 -14h-235q-6 0 -10 10l-29 215l-10 62q-1 10 -13 10z" />
    <glyph glyph-name="Adieresis" unicode="&#xc4;" horiz-adv-x="1511" 
d="M1270 1556h-264q-12 0 -9 11l47 270q0 10 13 10h264q8 0 8 -10l-47 -270q-4 -11 -12 -11zM819 1556h-264q-12 0 -8 11l47 270q0 10 12 10h264q8 0 9 -10l-48 -270q-4 -11 -12 -11zM528 522h439q12 0 8 10l-96 676q-1 8 -9 8t-12 -8l-336 -676q-4 -10 6 -10zM997 297h-579
q-10 0 -17 -10l-137 -277q-2 -10 -14 -10h-236q-16 0 -6 14l705 1418q4 10 14 10h369q6 0 10 -10l203 -1418q0 -14 -15 -14h-235q-6 0 -10 10l-29 215l-10 62q-1 10 -13 10z" />
    <glyph glyph-name="Aring" unicode="&#xc5;" horiz-adv-x="1511" 
d="M956 1774q-34 0 -64 -26t-36 -60t14 -61q20 -25 56 -25t66 26t36 60t-16 60t-56 26zM973 1868q73 0 117 -53t31 -127t-75 -126t-136 -52t-118 52q-42 52 -28 126q12 74 74 127t135 53zM528 522h439q12 0 8 10l-96 676q-1 8 -9 8t-12 -8l-336 -676q-4 -10 6 -10zM997 297
h-579q-10 0 -17 -10l-137 -277q-2 -10 -14 -10h-236q-16 0 -6 14l705 1418q4 10 14 10h369q6 0 10 -10l203 -1418q0 -14 -15 -14h-235q-6 0 -10 10l-29 215l-10 62q-1 10 -13 10z" />
    <glyph glyph-name="AE" unicode="&#xc6;" horiz-adv-x="2148" 
d="M993 522q12 0 13 10l116 656q-2 8 -9 8t-11 -8l-490 -656l-2 -10h383zM954 297h-510q-6 0 -18 -12l-205 -279q-4 -6 -12 -6h-234q-16 0 -6 14l1047 1418q4 10 14 10h1129q8 0 8 -10l-37 -205q0 -10 -12 -10h-736q-8 0 -12 -11l-61 -352q-4 -10 8 -10h653q12 0 8 -10
l-34 -205q-4 -10 -13 -11h-653q-12 0 -12 -10l-66 -372q-4 -10 8 -11h736q12 0 8 -10l-37 -205q0 -10 -12 -10h-983q-7 0 -7 6l50 281q4 10 -9 10z" />
    <glyph glyph-name="Ccedilla" unicode="&#xc7;" horiz-adv-x="1347" 
d="M852 1462q129 0 230 -39q102 -39 158 -97t90 -128q62 -128 44 -227q-4 -10 -12 -10h-236q-10 0 -10 10q-43 264 -303 264q-182 0 -311 -145q-129 -144 -171 -380t37 -370t263 -133q262 0 399 264q4 10 14 10h234q8 0 8 -10q-15 -81 -86 -178t-141 -156q-71 -59 -181 -104
t-237 -51q-10 0 -16 -11l-45 -65q-8 -12 6 -15q61 -4 105 -41q44 -36 31 -112t-78 -120t-156 -44t-145 46t-42 120q0 10 12 10h103q8 0 6 -18t18 -40t58 -22t66 20q30 20 36 50q14 80 -78 80q-37 0 -43 6l-30 31q-10 12 2 24l57 80q14 23 -10 25q-264 31 -372 222t-50 514
q58 324 260 532q203 208 516 208z" />
    <glyph glyph-name="Egrave" unicode="&#xc8;" horiz-adv-x="1325" 
d="M961 1559h-179q-16 0 -20 14l-123 262q-2 6 2 10t10 4h240q14 0 18 -14l64 -262q4 -14 -12 -14zM342 225h756q12 0 8 -10l-37 -205q0 -10 -12 -10h-1002q-8 0 -8 10l252 1422q0 10 12 10h1002q8 0 8 -10l-37 -205q0 -10 -12 -10h-756q-8 0 -12 -11l-62 -352q-4 -10 9 -10
h653q12 0 8 -10l-35 -205q-4 -10 -12 -11h-653q-12 0 -13 -10l-65 -372q-4 -11 8 -11z" />
    <glyph glyph-name="Eacute" unicode="&#xc9;" horiz-adv-x="1325" 
d="M817 1556h-178q-18 0 -8 15l157 262q4 14 23 14h240q14 0 8 -14l-217 -262q-15 -15 -25 -15zM342 225h756q12 0 8 -10l-37 -205q0 -10 -12 -10h-1002q-8 0 -8 10l252 1422q0 10 12 10h1002q8 0 8 -10l-37 -205q0 -10 -12 -10h-756q-8 0 -12 -11l-62 -352q-4 -10 9 -10
h653q12 0 8 -10l-35 -205q-4 -10 -12 -11h-653q-12 0 -13 -10l-65 -372q-4 -11 8 -11z" />
    <glyph glyph-name="Ecircumflex" unicode="&#xca;" horiz-adv-x="1325" 
d="M1038 1556h-164q-6 0 -10 7l-37 96q-10 18 -20 0l-74 -96q-4 -6 -10 -7h-164q-18 0 -8 15l162 262q4 14 22 14h228q14 0 18 -14l70 -262q3 -15 -13 -15zM342 225h756q12 0 8 -10l-37 -205q0 -10 -12 -10h-1002q-8 0 -8 10l252 1422q0 10 12 10h1002q8 0 8 -10l-37 -205
q0 -10 -12 -10h-756q-8 0 -12 -11l-62 -352q-4 -10 9 -10h653q12 0 8 -10l-35 -205q-4 -10 -12 -11h-653q-12 0 -13 -10l-65 -372q-4 -11 8 -11z" />
    <glyph glyph-name="Edieresis" unicode="&#xcb;" horiz-adv-x="1325" 
d="M1178 1556h-265q-12 0 -8 11l47 270q0 10 13 10h264q8 0 8 -10l-47 -270q-4 -11 -12 -11zM727 1556h-264q-12 0 -8 11l47 270q0 10 12 10h264q8 0 8 -10l-47 -270q-4 -11 -12 -11zM342 225h756q12 0 8 -10l-37 -205q0 -10 -12 -10h-1002q-8 0 -8 10l252 1422q0 10 12 10
h1002q8 0 8 -10l-37 -205q0 -10 -12 -10h-756q-8 0 -12 -11l-62 -352q-4 -10 9 -10h653q12 0 8 -10l-35 -205q-4 -10 -12 -11h-653q-12 0 -13 -10l-65 -372q-4 -11 8 -11z" />
    <glyph glyph-name="Igrave" unicode="&#xcc;" horiz-adv-x="565" 
d="M561 1559h-178q-16 0 -21 14l-122 262q-6 14 12 14h240q14 0 18 -14l63 -262q4 -14 -12 -14zM279 0h-226q-8 0 -8 10l252 1422q0 10 12 10h226q8 0 8 -10l-252 -1422q0 -10 -12 -10z" />
    <glyph glyph-name="Iacute" unicode="&#xcd;" horiz-adv-x="565" 
d="M500 1556h-178q-18 0 -9 15l158 262q4 14 23 14h239q16 0 8 -14l-217 -262q-14 -15 -24 -15zM279 0h-226q-8 0 -8 10l252 1422q0 10 12 10h226q8 0 8 -10l-252 -1422q0 -10 -12 -10z" />
    <glyph glyph-name="Icircumflex" unicode="&#xce;" horiz-adv-x="565" 
d="M682 1556h-164q-6 0 -10 7l-37 96q-10 18 -20 0l-74 -96q-4 -6 -10 -7h-164q-18 0 -8 15l161 262q4 14 23 14h227q14 0 19 -14l69 -262q4 -15 -12 -15zM279 0h-226q-8 0 -8 10l252 1422q0 10 12 10h226q8 0 8 -10l-252 -1422q0 -10 -12 -10z" />
    <glyph glyph-name="Idieresis" unicode="&#xcf;" horiz-adv-x="565" 
d="M801 1556h-264q-12 0 -9 11l47 270q0 10 13 10h264q8 0 8 -10l-47 -270q-4 -11 -12 -11zM350 1556h-264q-12 0 -8 11l47 270q0 10 12 10h264q8 0 9 -10l-48 -270q-4 -11 -12 -11zM279 0h-226q-8 0 -8 10l252 1422q0 10 12 10h226q8 0 8 -10l-252 -1422q0 -10 -12 -10z
" />
    <glyph glyph-name="Eth" unicode="&#xd0;" horiz-adv-x="1376" 
d="M604 616h-194q-12 0 -13 -10l-65 -373q-4 -10 8 -10h281q184 0 308 125q124 124 165 358t-38 373t-261 140h-283q-8 0 -8 -9l-68 -381q-4 -10 8 -10h195q12 0 8 -10l-33 -182q0 -11 -10 -11zM143 616h-178q-10 0 -10 11l33 182q4 10 12 10h178q8 0 12 10l107 603
q0 10 12 10h527q313 -2 443 -202t72 -532t-256 -520t-515 -188h-527q-8 0 -8 10l107 596q0 10 -9 10z" />
    <glyph glyph-name="Ntilde" unicode="&#xd1;" horiz-adv-x="1490" 
d="M811 1847q80 0 162 -70q27 -24 40 -24q67 -1 79 73q4 20 14 21h143q10 0 11 -10l-13 -70q-12 -70 -78 -132t-186 -62q-61 0 -123 47t-80 47q-16 0 -26 -2t-28 -21t-26 -61q-4 -10 -12 -10h-143q-12 0 -8 10l12 68q12 72 77 134t185 62zM1217 1442h225q8 0 8 -10
l-252 -1422q0 -10 -12 -10h-305q-8 0 -13 10l-368 1077q-4 10 -12 10q-7 -1 -9 -10l-190 -1077q0 -10 -13 -10h-227q-6 0 -6 10l252 1422q0 10 12 10h305q6 0 11 -10l370 -1078q3 -10 11 -9t10 9l190 1078q1 10 13 10z" />
    <glyph glyph-name="Ograve" unicode="&#xd2;" horiz-adv-x="1556" 
d="M1077 1559h-178q-16 0 -20 14l-123 262q-6 14 12 14h240q14 0 18 -14l64 -262q3 -14 -13 -14zM698 205q188 0 316 136q127 136 170 380q41 244 -37 380t-266 136q-187 0 -315 -136t-170 -380t36 -380t266 -136zM402 1260q202 202 518 202t447 -202q132 -202 73 -540
q-59 -337 -262 -539q-202 -201 -518 -201t-447 202t-72 539q59 336 261 539z" />
    <glyph glyph-name="Oacute" unicode="&#xd3;" horiz-adv-x="1556" 
d="M975 1556h-178q-18 0 -9 15l158 262q4 14 23 14h239q16 0 9 -14l-218 -262q-14 -15 -24 -15zM698 205q188 0 316 136q127 136 170 380q41 244 -37 380t-266 136q-187 0 -315 -136t-170 -380t36 -380t266 -136zM402 1260q202 202 518 202t447 -202q132 -202 73 -540
q-59 -337 -262 -539q-202 -201 -518 -201t-447 202t-72 539q59 336 261 539z" />
    <glyph glyph-name="Ocircumflex" unicode="&#xd4;" horiz-adv-x="1556" 
d="M1196 1556h-164q-8 0 -10 7l-37 96q-10 18 -20 0l-74 -96q-2 -6 -10 -7h-164q-18 0 -8 15l161 262q4 14 23 14h227q14 0 19 -14l69 -262q4 -15 -12 -15zM698 205q188 0 316 136q127 136 170 380q41 244 -37 380t-266 136q-187 0 -315 -136t-170 -380t36 -380t266 -136z
M402 1260q202 202 518 202t447 -202q132 -202 73 -540q-59 -337 -262 -539q-202 -201 -518 -201t-447 202t-72 539q59 336 261 539z" />
    <glyph glyph-name="Otilde" unicode="&#xd5;" horiz-adv-x="1556" 
d="M842 1847q80 0 162 -70q28 -24 42 -24t24 2q10 1 28 21t26 61q4 10 13 10h143q12 0 8 -10l-12 -70q-12 -70 -78 -132t-186 -62q-62 0 -124 47t-78 47t-28 -2q-10 -2 -27 -21t-26 -61q0 -10 -12 -10h-144q-8 0 -8 10l13 68q12 72 77 134q66 62 187 62zM698 205
q188 0 316 136q127 136 170 380q41 244 -37 380t-266 136q-187 0 -315 -136t-170 -380t36 -380t266 -136zM402 1260q202 202 518 202t447 -202q132 -202 73 -540q-59 -337 -262 -539q-202 -201 -518 -201t-447 202t-72 539q59 336 261 539z" />
    <glyph glyph-name="Odieresis" unicode="&#xd6;" horiz-adv-x="1556" 
d="M1272 1556h-264q-12 0 -9 11l48 270q0 10 12 10h264q8 0 8 -10l-47 -270q-4 -11 -12 -11zM821 1556h-264q-12 0 -8 11l47 270q0 10 12 10h264q8 0 9 -10l-47 -270q-5 -11 -13 -11zM698 205q188 0 316 136q127 136 170 380q41 244 -37 380t-266 136q-187 0 -315 -136
t-170 -380t36 -380t266 -136zM402 1260q202 202 518 202t447 -202q132 -202 73 -540q-59 -337 -262 -539q-202 -201 -518 -201t-447 202t-72 539q59 336 261 539z" />
    <glyph glyph-name="multiply" unicode="&#xd7;" horiz-adv-x="1232" 
d="M1192 872l-404 -346q-12 -6 -4 -14l285 -344q2 -10 -4 -18l-166 -142q-10 -4 -18 0l-283 344q-8 10 -14 0l-408 -344q-6 -6 -14 0l-117 142q-2 10 4 18l404 342q6 6 4 16l-285 342q-2 10 4 19l166 141q10 4 18 0l281 -344q8 -6 16 0l404 344q8 4 18 0l117 -141
q4 -11 -4 -15z" />
    <glyph glyph-name="Oslash" unicode="&#xd8;" horiz-adv-x="1556" 
d="M869 1237q-175 0 -303 -136t-169 -380q-25 -141 -10 -238q0 -16 16 -6l727 619q12 10 5 22q-90 119 -266 119zM702 205q184 0 312 136q127 136 170 380q25 147 8 248q-4 14 -18 4l-736 -625q-8 -8 -2 -16q82 -127 266 -127zM1440 721q-59 -338 -262 -540
q-204 -201 -506 -201t-441 174q-10 10 -18 2l-86 -74q-10 -8 -14 0l-68 80q-4 8 4 14l109 92q6 6 2 17q-66 180 -19 436q59 336 261 539q202 202 504 202t437 -170q6 -10 19 0l94 80q6 8 14 0l66 -80q4 -8 -4 -14l-113 -96q-8 -6 -4 -21q70 -174 25 -440z" />
    <glyph glyph-name="Ugrave" unicode="&#xd9;" horiz-adv-x="1341" 
d="M989 1559h-178q-16 0 -20 14l-123 262q-2 6 2 10t10 4h240q14 0 18 -14l63 -262q4 -14 -12 -14zM299 1442h225q12 0 8 -10l-163 -932q-19 -113 47 -194t180 -81t210 81q95 81 116 194l163 932q4 10 13 10h225q12 0 8 -10l-164 -932q-39 -217 -218 -369
q-179 -151 -396 -151t-343 152t-87 368l164 932q4 10 12 10z" />
    <glyph glyph-name="Uacute" unicode="&#xda;" horiz-adv-x="1341" 
d="M805 1556h-178q-18 0 -9 15l158 262q4 14 23 14h239q14 0 9 -14l-218 -262q-14 -15 -24 -15zM299 1442h225q12 0 8 -10l-163 -932q-19 -113 47 -194t180 -81t210 81q95 81 116 194l163 932q4 10 13 10h225q12 0 8 -10l-164 -932q-39 -217 -218 -369q-179 -151 -396 -151
t-343 152t-87 368l164 932q4 10 12 10z" />
    <glyph glyph-name="Ucircumflex" unicode="&#xdb;" horiz-adv-x="1341" 
d="M1067 1556h-164q-6 0 -10 7l-37 96q-10 18 -20 0l-74 -96q-4 -6 -10 -7h-164q-18 0 -8 15l161 262q4 14 23 14h227q14 0 19 -14l69 -262q4 -15 -12 -15zM299 1442h225q12 0 8 -10l-163 -932q-19 -113 47 -194t180 -81t210 81q95 81 116 194l163 932q4 10 13 10h225
q12 0 8 -10l-164 -932q-39 -217 -218 -369q-179 -151 -396 -151t-343 152t-87 368l164 932q4 10 12 10z" />
    <glyph glyph-name="Udieresis" unicode="&#xdc;" horiz-adv-x="1341" 
d="M1165 1556h-264q-12 0 -8 11l47 270q0 10 12 10h265q8 0 8 -10l-47 -270q-5 -11 -13 -11zM715 1556h-264q-12 0 -9 11l47 270q0 10 13 10h264q8 0 8 -10l-47 -270q-4 -11 -12 -11zM299 1442h225q12 0 8 -10l-163 -932q-19 -113 47 -194t180 -81t210 81q95 81 116 194
l163 932q4 10 13 10h225q12 0 8 -10l-164 -932q-39 -217 -218 -369q-179 -151 -396 -151t-343 152t-87 368l164 932q4 10 12 10z" />
    <glyph glyph-name="Yacute" unicode="&#xdd;" horiz-adv-x="1421" 
d="M846 1556h-178q-18 0 -9 15l158 262q4 14 23 14h239q14 0 8 -14l-217 -262q-14 -15 -24 -15zM483 0q-8 0 -8 10l103 578q0 10 -3 14l-344 823q-4 16 13 17h268q8 0 12 -10l213 -584q8 -12 17 0l424 584q6 10 18 10h266q16 0 4 -17l-637 -823q-6 -8 -6 -14l-102 -578
q0 -10 -12 -10h-226z" />
    <glyph glyph-name="Thorn" unicode="&#xde;" horiz-adv-x="1280" 
d="M879 922h-416q-12 0 -12 -11l-68 -381q0 -10 8 -10h416q66 0 128 62t77 139q12 77 -28 139t-105 62zM309 1442h226q8 0 8 -10l-49 -281q-2 -6 6 -6h418q172 0 269 -125t67 -299t-172 -299t-314 -125h-418q-8 0 -8 -6l-51 -281q0 -10 -12 -10h-226q-8 0 -8 10l252 1422
q0 10 12 10z" />
    <glyph glyph-name="germandbls" unicode="&#xdf;" horiz-adv-x="1247" 
d="M459 -20q-10 0 -6 10l34 205q4 10 11 10h88q250 0 286 207q16 94 -45 150t-145 56h-55q-12 0 -9 11l35 205q4 10 13 10h55q81 0 147 44t83 142t-42 158t-168 61q-109 -1 -179 -69t-87 -164l-178 -1006q0 -10 -12 -10h-222q-8 0 -8 10l178 1006q35 198 177 322t369 124
q225 0 331 -126t74 -310q-18 -100 -80 -182t-137 -105q-13 -6 -2 -12q77 -27 123 -111t26 -204q-37 -207 -178 -320t-389 -112h-88z" />
    <glyph glyph-name="agrave" unicode="&#xe0;" horiz-adv-x="1185" 
d="M850 1151h-178q-16 0 -21 14l-123 262q-2 7 2 11t11 4h239q14 0 19 -15l63 -262q4 -14 -12 -14zM463 205q145 1 232 67t104 154q0 10 -8 10h-234q-215 0 -235 -127q-8 -39 24 -71t117 -33zM582 641h192q29 0 48 14t22 31q16 31 -17 89q-12 24 -57 40t-115 16
q-197 0 -231 -135q0 -10 -12 -10h-224q-8 0 -8 10q31 172 176 266t349 95q203 -1 309 -101t73 -288l-116 -658q-2 -10 -13 -10h-200q-8 0 -13 10l-8 66q-9 14 -37 -10t-112 -56q-84 -31 -166 -30q-201 0 -287 91t-60 235t159 240q134 95 348 95z" />
    <glyph glyph-name="aacute" unicode="&#xe1;" horiz-adv-x="1185" 
d="M688 1151h-178q-18 0 -8 14l157 262q4 14 23 15h240q16 0 8 -15l-217 -262q-15 -14 -25 -14zM463 205q145 1 232 67t104 154q0 10 -8 10h-234q-215 0 -235 -127q-8 -39 24 -71t117 -33zM582 641h192q29 0 48 14t22 31q16 31 -17 89q-12 24 -57 40t-115 16
q-197 0 -231 -135q0 -10 -12 -10h-224q-8 0 -8 10q31 172 176 266t349 95q203 -1 309 -101t73 -288l-116 -658q-2 -10 -13 -10h-200q-8 0 -13 10l-8 66q-9 14 -37 -10t-112 -56q-84 -31 -166 -30q-201 0 -287 91t-60 235t159 240q134 95 348 95z" />
    <glyph glyph-name="acircumflex" unicode="&#xe2;" horiz-adv-x="1185" 
d="M995 1151h-164q-8 0 -10 6l-37 96q-10 18 -20 0l-74 -96q-2 -6 -10 -6h-164q-18 0 -8 14l162 262q4 14 22 15h228q14 0 18 -15l70 -262q3 -14 -13 -14zM463 205q145 1 232 67t104 154q0 10 -8 10h-234q-215 0 -235 -127q-8 -39 24 -71t117 -33zM582 641h192q29 0 48 14
t22 31q16 31 -17 89q-12 24 -57 40t-115 16q-197 0 -231 -135q0 -10 -12 -10h-224q-8 0 -8 10q31 172 176 266t349 95q203 -1 309 -101t73 -288l-116 -658q-2 -10 -13 -10h-200q-8 0 -13 10l-8 66q-9 14 -37 -10t-112 -56q-84 -31 -166 -30q-201 0 -287 91t-60 235t159 240
q134 95 348 95z" />
    <glyph glyph-name="atilde" unicode="&#xe3;" horiz-adv-x="1185" 
d="M965 1442h143q10 0 10 -10l-12 -70q-12 -70 -78 -132t-186 -63q-62 0 -124 47q-62 48 -78 48t-28 -2q-10 -2 -28 -22t-25 -60q-4 -10 -12 -11h-144q-12 1 -8 11l13 67q12 72 76 134q65 62 186 63q81 0 161 -71q27 -23 40 -23t21 1q48 6 62 83q0 10 11 10zM463 205
q145 1 232 67t104 154q0 10 -8 10h-234q-215 0 -235 -127q-8 -39 24 -71t117 -33zM582 641h192q29 0 48 14t22 31q16 31 -17 89q-12 24 -57 40t-115 16q-197 0 -231 -135q0 -10 -12 -10h-224q-8 0 -8 10q31 172 176 266t349 95q203 -1 309 -101t73 -288l-116 -658
q-2 -10 -13 -10h-200q-8 0 -13 10l-8 66q-9 14 -37 -10t-112 -56q-84 -31 -166 -30q-201 0 -287 91t-60 235t159 240q134 95 348 95z" />
    <glyph glyph-name="adieresis" unicode="&#xe4;" horiz-adv-x="1185" 
d="M1090 1151h-265q-12 0 -8 10l47 271q0 10 13 10h264q8 0 8 -10l-47 -271q-4 -10 -12 -10zM639 1151h-264q-12 0 -8 10l47 271q0 10 12 10h264q8 0 8 -10l-47 -271q-4 -10 -12 -10zM463 205q145 1 232 67t104 154q0 10 -8 10h-234q-215 0 -235 -127q-8 -39 24 -71t117 -33
zM582 641h192q29 0 48 14t22 31q16 31 -17 89q-12 24 -57 40t-115 16q-197 0 -231 -135q0 -10 -12 -10h-224q-8 0 -8 10q31 172 176 266t349 95q203 -1 309 -101t73 -288l-116 -658q-2 -10 -13 -10h-200q-8 0 -13 10l-8 66q-9 14 -37 -10t-112 -56q-84 -31 -166 -30
q-201 0 -287 91t-60 235t159 240q134 95 348 95z" />
    <glyph glyph-name="aring" unicode="&#xe5;" horiz-adv-x="1185" 
d="M770 1368q-34 0 -64 -26t-36 -60t14 -60t55 -26t66 26t37 60t-16 60t-56 26zM723 1104q-74 0 -117 52t-28 126q12 74 73 127t135 53t118 -53t31 -127t-75 -126t-137 -52zM463 205q145 1 232 67t104 154q0 10 -8 10h-234q-215 0 -235 -127q-8 -39 24 -71t117 -33zM582 641
h192q29 0 48 14t22 31q16 31 -17 89q-12 24 -57 40t-115 16q-197 0 -231 -135q0 -10 -12 -10h-224q-8 0 -8 10q31 172 176 266t349 95q203 -1 309 -101t73 -288l-116 -658q-2 -10 -13 -10h-200q-8 0 -13 10l-8 66q-9 14 -37 -10t-112 -56q-84 -31 -166 -30q-201 0 -287 91
t-60 235t159 240q134 95 348 95z" />
    <glyph glyph-name="ae" unicode="&#xe6;" horiz-adv-x="1904" 
d="M1069 629h463q12 0 12 10q12 74 -38 137q-50 64 -164 64t-186 -64t-93 -139q0 -8 6 -8zM436 180q143 0 230 79q86 79 108 175q2 10 0 13t-14 4l-238 -11q-221 -10 -239 -131q-9 -53 29 -91t124 -38zM1751 436h-713q-12 0 -12 -10q-18 -104 37 -166t166 -63q147 0 237 100
q4 10 17 10h221q12 0 8 -12q-60 -147 -202 -231t-320 -84q-231 0 -344 151q-4 8 -15 0q-147 -152 -421 -151q-201 0 -294 92q-94 92 -68 235t156 239t343 95q31 2 128 2t113 8q32 9 23 75q-4 30 -17 56q-29 56 -173 58q-195 0 -232 -142q0 -10 -12 -10h-223q-8 0 -9 10
q31 172 177 266t337 93q240 0 342 -127q4 -4 9 0q152 127 379 127q227 1 333 -147t64 -392q-11 -45 -21 -72q-6 -10 -14 -10z" />
    <glyph glyph-name="ccedilla" unicode="&#xe7;" horiz-adv-x="1171" 
d="M1108 686h-234q-8 0 -8 6q-33 147 -198 148q-125 0 -205 -89t-106 -233q-27 -144 23 -232q50 -89 175 -89q96 0 155 36q58 37 99 111q2 6 10 6h234q12 0 8 -10q-121 -334 -483 -358q-6 0 -15 -11l-53 -65q-8 -12 6 -15q62 -4 106 -41q44 -38 32 -110t-81 -119
q-67 -47 -157 -47t-144 46q-53 46 -41 120q0 10 11 10h102q10 0 8 -18t18 -40t58 -22q37 0 67 20t35 50q12 80 -79 80q-35 0 -41 6l-31 31q-12 10 2 24l65 84q6 6 4 12t-8 7q-200 25 -286 168q-86 144 -44 378t200 380t374 146t328 -96q112 -98 106 -264q0 -10 -12 -10z" />
    <glyph glyph-name="egrave" unicode="&#xe8;" horiz-adv-x="1173" 
d="M854 1151h-178q-16 0 -21 14l-123 262q-2 7 2 11t11 4h239q14 0 19 -15l63 -262q4 -14 -12 -14zM395 629h465q10 0 10 8q12 72 -37 133q-50 61 -165 61t-191 -62t-88 -132q0 -8 6 -8zM1075 424h-713q-12 0 -12 -10q-16 -86 42 -148t165 -61q154 0 215 92q6 10 19 10h239
q12 0 8 -10q-59 -147 -201 -232t-321 -85q-223 0 -335 150q-111 150 -69 390t205 388q165 148 389 148t336 -149q112 -150 70 -389q-17 -61 -25 -84q-6 -10 -12 -10z" />
    <glyph glyph-name="eacute" unicode="&#xe9;" horiz-adv-x="1173" 
d="M733 1151h-178q-18 0 -8 14l158 262q4 14 22 15h240q16 0 8 -15l-217 -262q-15 -14 -25 -14zM395 629h465q10 0 10 8q12 72 -37 133q-50 61 -165 61t-191 -62t-88 -132q0 -8 6 -8zM1075 424h-713q-12 0 -12 -10q-16 -86 42 -148t165 -61q154 0 215 92q6 10 19 10h239
q12 0 8 -10q-59 -147 -201 -232t-321 -85q-223 0 -335 150q-111 150 -69 390t205 388q165 148 389 148t336 -149q112 -150 70 -389q-17 -61 -25 -84q-6 -10 -12 -10z" />
    <glyph glyph-name="ecircumflex" unicode="&#xea;" horiz-adv-x="1173" 
d="M993 1151h-164q-6 0 -10 6l-37 96q-10 18 -20 0l-74 -96q-4 -6 -10 -6h-164q-18 0 -8 14l162 262q4 14 22 15h228q14 0 18 -15l70 -262q3 -14 -13 -14zM395 629h465q10 0 10 8q12 72 -37 133q-50 61 -165 61t-191 -62t-88 -132q0 -8 6 -8zM1075 424h-713q-12 0 -12 -10
q-16 -86 42 -148t165 -61q154 0 215 92q6 10 19 10h239q12 0 8 -10q-59 -147 -201 -232t-321 -85q-223 0 -335 150q-111 150 -69 390t205 388q165 148 389 148t336 -149q112 -150 70 -389q-17 -61 -25 -84q-6 -10 -12 -10z" />
    <glyph glyph-name="edieresis" unicode="&#xeb;" horiz-adv-x="1173" 
d="M1104 1151h-264q-12 0 -9 10l48 271q0 10 12 10h264q8 0 8 -10l-47 -271q-4 -10 -12 -10zM653 1151h-264q-12 0 -8 10l47 271q0 10 12 10h265q8 0 8 -10l-47 -271q-5 -10 -13 -10zM395 629h465q10 0 10 8q12 72 -37 133q-50 61 -165 61t-191 -62t-88 -132q0 -8 6 -8z
M1075 424h-713q-12 0 -12 -10q-16 -86 42 -148t165 -61q154 0 215 92q6 10 19 10h239q12 0 8 -10q-59 -147 -201 -232t-321 -85q-223 0 -335 150q-111 150 -69 390t205 388q165 148 389 148t336 -149q112 -150 70 -389q-17 -61 -25 -84q-6 -10 -12 -10z" />
    <glyph glyph-name="igrave" unicode="&#xec;" horiz-adv-x="626" 
d="M530 1151h-178q-16 0 -20 14l-123 262q-2 7 2 11t10 4h240q14 0 18 -15l64 -262q3 -14 -13 -14zM338 0h-225q-8 0 -9 10l181 1016q0 10 10 10h225q10 0 10 -10l-180 -1016q0 -10 -12 -10z" />
    <glyph glyph-name="iacute" unicode="&#xed;" horiz-adv-x="626" 
d="M492 1151h-179q-18 0 -8 14l158 262q4 14 22 15h240q16 0 8 -15l-217 -262q-14 -14 -24 -14zM338 0h-225q-8 0 -9 10l181 1016q0 10 10 10h225q10 0 10 -10l-180 -1016q0 -10 -12 -10z" />
    <glyph glyph-name="icircumflex" unicode="&#xee;" horiz-adv-x="626" 
d="M662 1151h-164q-6 0 -11 6l-36 96q-10 18 -21 0l-74 -96q-4 -6 -10 -6h-164q-18 0 -8 14l162 262q4 14 22 15h228q14 0 18 -15l70 -262q4 -14 -12 -14zM338 0h-225q-8 0 -9 10l181 1016q0 10 10 10h225q10 0 10 -10l-180 -1016q0 -10 -12 -10z" />
    <glyph glyph-name="idieresis" unicode="&#xef;" horiz-adv-x="626" 
d="M780 1151h-264q-12 0 -8 10l47 271q0 10 12 10h264q8 0 9 -10l-47 -271q-5 -10 -13 -10zM330 1151h-264q-12 0 -9 10l47 271q0 10 13 10h264q8 0 8 -10l-47 -271q-4 -10 -12 -10zM338 0h-225q-8 0 -9 10l181 1016q0 10 10 10h225q10 0 10 -10l-180 -1016q0 -10 -12 -10z
" />
    <glyph glyph-name="eth" unicode="&#xf0;" horiz-adv-x="1275" 
d="M550 205q128 0 210 83q81 83 108 230q25 146 -28 230q-54 84 -182 84t-210 -84q-82 -82 -107 -230q-27 -148 27 -230q54 -83 182 -83zM625 1442h239q12 0 13 -8l22 -58q4 -8 12 -4l140 68q8 2 14 -4l31 -93q4 -8 -6 -12l-140 -67q-10 -4 -6 -13l154 -440q45 -127 16 -293
q-43 -244 -206 -391q-164 -147 -400 -147t-346 147t-67 388q42 241 201 391t355 151q43 0 63 -6t25 -1q6 5 2 11l-28 78q-4 8 -13 4l-139 -68q-10 -6 -10 6l-31 90q-8 12 4 13l140 67q6 4 4 15l-56 159q-2 5 2 11t11 6z" />
    <glyph glyph-name="ntilde" unicode="&#xf1;" horiz-adv-x="1224" 
d="M942 1442h143q10 0 11 -10l-13 -70q-11 -70 -77 -132t-187 -63q-61 0 -123 47q-62 48 -80 48q-16 0 -26 -2t-28 -22t-25 -60q-4 -10 -13 -11h-143q-12 1 -8 11l12 67q12 72 77 134t185 63q79 0 162 -71q27 -23 40 -23q49 2 63 27q12 25 16 46t14 21zM776 1057
q90 0 168 -40q80 -40 115 -108q75 -146 35 -340l-99 -559q-4 -10 -12 -10h-225q-12 0 -8 10l98 559q18 103 -26 183t-156 80t-182 -70q-69 -70 -85 -172l-102 -580q-4 -10 -12 -10h-226q-12 0 -8 10l178 1016q4 10 13 10h194q16 0 17 -10l12 -63q6 -20 20 -2q41 35 121 65
t170 31z" />
    <glyph glyph-name="ograve" unicode="&#xf2;" horiz-adv-x="1234" 
d="M874 1151h-178q-16 0 -20 14l-123 262q-2 7 2 11t10 4h240q14 0 18 -15l64 -262q3 -14 -13 -14zM566 205q128 0 210 83t109 230q25 146 -27 230t-181 84q-128 0 -211 -84q-83 -82 -109 -230q-27 -148 27 -230q54 -83 182 -83zM525 -20q-237 0 -347 147t-65 391
q41 244 202 391q162 147 399 147t348 -146q111 -148 68 -392q-44 -244 -206 -391t-399 -147z" />
    <glyph glyph-name="oacute" unicode="&#xf3;" horiz-adv-x="1234" 
d="M774 1151h-178q-18 0 -8 14l157 262q4 14 23 15h240q16 0 8 -15l-217 -262q-15 -14 -25 -14zM566 205q128 0 210 83t109 230q25 146 -27 230t-181 84q-128 0 -211 -84q-83 -82 -109 -230q-27 -148 27 -230q54 -83 182 -83zM525 -20q-237 0 -347 147t-65 391
q41 244 202 391q162 147 399 147t348 -146q111 -148 68 -392q-44 -244 -206 -391t-399 -147z" />
    <glyph glyph-name="ocircumflex" unicode="&#xf4;" horiz-adv-x="1234" 
d="M1006 1151h-164q-6 0 -11 6l-36 96q-10 18 -21 0l-74 -96q-4 -6 -10 -6h-164q-18 0 -8 14l162 262q4 14 22 15h228q14 0 18 -15l70 -262q4 -14 -12 -14zM566 205q128 0 210 83t109 230q25 146 -27 230t-181 84q-128 0 -211 -84q-83 -82 -109 -230q-27 -148 27 -230
q54 -83 182 -83zM525 -20q-237 0 -347 147t-65 391q41 244 202 391q162 147 399 147t348 -146q111 -148 68 -392q-44 -244 -206 -391t-399 -147z" />
    <glyph glyph-name="otilde" unicode="&#xf5;" horiz-adv-x="1234" 
d="M981 1442h143q10 0 11 -10l-13 -70q-12 -70 -78 -132t-186 -63q-62 0 -124 47q-62 48 -78 48t-27 -2t-29 -22t-25 -60q-4 -10 -12 -11h-143q-12 1 -8 11l12 67q12 72 77 134t185 63q79 0 162 -71q27 -23 40 -23q49 2 63 27q13 25 17 46t13 21zM566 205q128 0 210 83
t109 230q25 146 -27 230t-181 84q-128 0 -211 -84q-83 -82 -109 -230q-27 -148 27 -230q54 -83 182 -83zM525 -20q-237 0 -347 147t-65 391q41 244 202 391q162 147 399 147t348 -146q111 -148 68 -392q-44 -244 -206 -391t-399 -147z" />
    <glyph glyph-name="odieresis" unicode="&#xf6;" horiz-adv-x="1234" 
d="M1063 1151h-264q-12 0 -8 10l47 271q0 10 12 10h264q8 0 8 -10l-47 -271q-4 -10 -12 -10zM612 1151h-264q-12 0 -8 10l47 271q0 10 12 10h265q8 0 8 -10l-47 -271q-5 -10 -13 -10zM566 205q128 0 210 83t109 230q25 146 -27 230t-181 84q-128 0 -211 -84
q-83 -82 -109 -230q-27 -148 27 -230q54 -83 182 -83zM525 -20q-237 0 -347 147t-65 391q41 244 202 391q162 147 399 147t348 -146q111 -148 68 -392q-44 -244 -206 -391t-399 -147z" />
    <glyph glyph-name="divide" unicode="&#xf7;" horiz-adv-x="1218" 
d="M113 629h1015q10 0 11 -11l-37 -202q0 -10 -12 -10h-1016q-8 0 -8 10l36 202q1 11 11 11zM786 705h-305q-12 0 -8 10l55 311q0 10 11 10h305q10 0 10 -10l-55 -311q-5 -10 -13 -10zM662 0h-306q-8 0 -8 10l55 312q0 10 13 10h305q8 0 8 -10l-55 -312q0 -10 -12 -10z" />
    <glyph glyph-name="oslash" unicode="&#xf8;" horiz-adv-x="1234" 
d="M676 831q-127 0 -210 -83t-108 -230q-12 -74 -9 -106t9 -32q6 -1 11 3l450 385q10 6 2 18q-57 45 -145 45zM582 205q112 0 194 83t109 230q14 80 6 131q-5 16 -21 2l-450 -383q-10 -10 -2 -18q52 -45 164 -45zM524 -20q-199 0 -305 102q-4 8 -16 0l-90 -78q-10 -8 -15 0
l-67 80q-4 8 4 14l98 86q8 6 4 19q-57 133 -24 315q41 244 202 391q162 147 400 148q186 0 305 -103q8 -8 18 0l92 78q8 8 15 0l65 -80q6 -6 -2 -14l-98 -84q-10 -6 -4 -20q55 -132 24 -316q-44 -244 -206 -391t-400 -147z" />
    <glyph glyph-name="ugrave" unicode="&#xf9;" horiz-adv-x="1224" 
d="M819 1151h-178q-16 0 -20 14l-123 262q-6 14 12 15h240q14 0 18 -15l63 -262q4 -14 -12 -14zM227 1036h226q12 0 8 -10l-99 -559q-18 -104 25 -183t156 -79q113 -1 181 69t87 172l102 580q4 10 13 10h227q10 0 6 -10l-178 -1016q-4 -10 -12 -10h-195q-16 0 -18 12l-11 62
q-4 20 -22 2q-43 -37 -111 -67t-129 -29q-164 0 -257 68t-110 178q-17 108 1 241l98 559q4 10 12 10z" />
    <glyph glyph-name="uacute" unicode="&#xfa;" horiz-adv-x="1224" 
d="M764 1151h-178q-18 0 -8 14l157 262q4 14 23 15h239q14 0 9 -15l-218 -262q-14 -14 -24 -14zM227 1036h226q12 0 8 -10l-99 -559q-18 -104 25 -183t156 -79q113 -1 181 69t87 172l102 580q4 10 13 10h227q10 0 6 -10l-178 -1016q-4 -10 -12 -10h-195q-16 0 -18 12l-11 62
q-4 20 -22 2q-43 -37 -111 -67t-129 -29q-164 0 -257 68t-110 178q-17 108 1 241l98 559q4 10 12 10z" />
    <glyph glyph-name="ucircumflex" unicode="&#xfb;" horiz-adv-x="1224" 
d="M969 1151h-164q-6 0 -10 6l-37 96q-10 18 -21 0l-73 -96q-4 -6 -11 -6h-164q-18 0 -8 14l162 262q4 14 23 15h227q14 0 18 -15l70 -262q4 -14 -12 -14zM227 1036h226q12 0 8 -10l-99 -559q-18 -104 25 -183t156 -79q113 -1 181 69t87 172l102 580q4 10 13 10h227
q10 0 6 -10l-178 -1016q-4 -10 -12 -10h-195q-16 0 -18 12l-11 62q-4 20 -22 2q-43 -37 -111 -67t-129 -29q-164 0 -257 68t-110 178q-17 108 1 241l98 559q4 10 12 10z" />
    <glyph glyph-name="udieresis" unicode="&#xfc;" horiz-adv-x="1224" 
d="M1067 1151h-264q-12 0 -8 10l47 271q0 10 12 10h264q8 0 8 -10l-47 -271q-4 -10 -12 -10zM616 1151h-264q-12 0 -8 10l47 271q0 10 12 10h265q8 0 8 -10l-47 -271q-5 -10 -13 -10zM227 1036h226q12 0 8 -10l-99 -559q-18 -104 25 -183t156 -79q113 -1 181 69t87 172
l102 580q4 10 13 10h227q10 0 6 -10l-178 -1016q-4 -10 -12 -10h-195q-16 0 -18 12l-11 62q-4 20 -22 2q-43 -37 -111 -67t-129 -29q-164 0 -257 68t-110 178q-17 108 1 241l98 559q4 10 12 10z" />
    <glyph glyph-name="yacute" unicode="&#xfd;" horiz-adv-x="1103" 
d="M739 1151h-178q-18 0 -8 14l158 262q4 14 22 15h240q14 0 8 -15l-217 -262q-15 -14 -25 -14zM963 1036h237q14 0 8 -10l-600 -1173q-70 -133 -158 -196q-89 -62 -219 -63h-299q-12 0 -8 11l33 192q4 10 12 10h248q91 -1 111 53t6 150l-164 1016q0 10 12 10h240
q10 0 10 -10l109 -793q0 -8 8 -8t12 8l387 793q6 10 15 10z" />
    <glyph glyph-name="thorn" unicode="&#xfe;" horiz-adv-x="1204" 
d="M666 840q-252 0 -310 -322t197 -321q127 0 210 87q82 87 109 234q25 146 -27 234t-179 88zM705 1057q235 1 347 -147t68 -392t-206 -391q-163 -147 -400 -147q-145 0 -217 57q-2 4 -8 1t-8 -9l-76 -424q0 -10 -12 -11h-222q-8 0 -8 11l320 1827q4 10 12 10h223
q12 0 8 -10l-73 -424q-2 -6 4 -10t10 1q91 58 238 58z" />
    <glyph glyph-name="ydieresis" unicode="&#xff;" horiz-adv-x="1204" 
d="M1077 1151h-264q-12 0 -8 10l47 271q0 10 12 10h264q8 0 9 -10l-47 -271q-5 -10 -13 -10zM627 1151h-265q-12 0 -8 10l47 271q0 10 13 10h264q8 0 8 -10l-47 -271q-4 -10 -12 -10zM991 1036h238q14 0 8 -10l-600 -1173q-70 -133 -159 -195t-218 -64h-299q-12 0 -8 11
l33 192q4 10 12 10h248q90 -1 110 53t6 150l-163 1016q0 10 12 10h240q10 0 10 -10l108 -793q1 -8 9 -8t12 8l387 793q6 10 14 10z" />
    <glyph glyph-name="Amacron" unicode="&#x100;" horiz-adv-x="1511" 
d="M1190 1577h-545q-6 0 -6 10l27 144q0 10 10 10h545q8 0 8 -10l-27 -144q0 -10 -12 -10zM528 522h439q12 0 8 10l-96 676q-1 8 -9 8t-12 -8l-336 -676q-4 -10 6 -10zM997 297h-579q-10 0 -17 -10l-137 -277q-2 -10 -14 -10h-236q-16 0 -6 14l705 1418q4 10 14 10h369
q6 0 10 -10l203 -1418q0 -14 -15 -14h-235q-6 0 -10 10l-29 215l-10 62q-1 10 -13 10z" />
    <glyph glyph-name="amacron" unicode="&#x101;" horiz-adv-x="1185" 
d="M991 1171h-545q-6 0 -6 11l27 143q0 10 10 10h545q8 0 8 -10l-26 -143q-1 -11 -13 -11zM463 205q145 1 232 67t104 154q0 10 -8 10h-234q-215 0 -235 -127q-8 -39 24 -71t117 -33zM582 641h192q29 0 48 14t22 31q16 31 -17 89q-12 24 -57 40t-115 16q-197 0 -231 -135
q0 -10 -12 -10h-224q-8 0 -8 10q31 172 176 266t349 95q203 -1 309 -101t73 -288l-116 -658q-2 -10 -13 -10h-200q-8 0 -13 10l-8 66q-9 14 -37 -10t-112 -56q-84 -31 -166 -30q-201 0 -287 91t-60 235t159 240q134 95 348 95z" />
    <glyph glyph-name="Abreve" unicode="&#x102;" horiz-adv-x="1511" 
d="M921 1556q-128 0 -193 77t-44 204q4 10 12 10h158q12 0 8 -10q-6 -39 18 -73t72 -34t81 34q34 34 40 73q4 10 12 10h160l8 -10q-20 -127 -112 -204t-220 -77zM528 522h439q12 0 8 10l-96 676q-1 8 -9 8t-12 -8l-336 -676q-4 -10 6 -10zM997 297h-579q-10 0 -17 -10
l-137 -277q-2 -10 -14 -10h-236q-16 0 -6 14l705 1418q4 10 14 10h369q6 0 10 -10l203 -1418q0 -14 -15 -14h-235q-6 0 -10 10l-29 215l-10 62q-1 10 -13 10z" />
    <glyph glyph-name="abreve" unicode="&#x103;" horiz-adv-x="1191" 
d="M746 1151q-128 0 -194 77t-42 204q0 10 12 10h158q8 0 8 -10q-6 -39 18 -73t72 -34t81 34q34 34 40 73q0 10 12 10h160l8 -10q-23 -127 -115 -204q-90 -77 -218 -77zM463 205q145 1 232 67t104 154q0 10 -8 10h-234q-215 0 -235 -127q-8 -39 24 -71t117 -33zM582 641h192
q29 0 48 14t22 31q16 31 -17 89q-12 24 -57 40t-115 16q-197 0 -231 -135q0 -10 -12 -10h-224q-8 0 -8 10q31 172 176 266t349 95q203 -1 309 -101t73 -288l-116 -658q-2 -10 -13 -10h-200q-8 0 -13 10l-8 66q-9 14 -37 -10t-112 -56q-84 -31 -166 -30q-201 0 -287 91
t-60 235t159 240q134 95 348 95z" />
    <glyph glyph-name="Aogonek" unicode="&#x104;" horiz-adv-x="1511" 
d="M547 522h438q12 0 8 10l-96 676q-2 8 -9 8t-11 -8l-336 -676q-4 -10 6 -10zM1016 297h-580q-12 0 -16 -10l-139 -281q-6 -6 -13 -6h-235q-12 0 -8 14l704 1418q6 10 14 10h369q10 0 10 -10l203 -1418q4 -14 -12 -14h-82q-59 0 -105 -35t-57 -89q-10 -54 24 -81t103 -26
h29q12 0 8 -11l-27 -153q0 -10 -12 -11h-90q-115 0 -173 58t-46 139q24 158 174 207q12 4 8 14l-29 213l-10 62q-4 10 -12 10z" />
    <glyph glyph-name="aogonek" unicode="&#x105;" horiz-adv-x="1241" 
d="M463 205q145 1 232 67t104 154q0 10 -8 10h-234q-215 0 -235 -127q-8 -39 24 -71t117 -33zM582 641h192q29 0 48 14t22 31q16 31 -17 89q-12 24 -57 40t-115 16q-197 0 -231 -135q0 -10 -12 -10h-224q-8 0 -8 10q31 172 176 266t349 95q205 1 307 -99t75 -290l-116 -658
q-2 -10 -13 -10h-38q-58 0 -104 -36t-55 -89t25 -80t105 -26h29q8 0 8 -11l-29 -153q0 -10 -10 -11h-90q-115 0 -173 58t-46 145q20 125 153 191q12 6 12 22l-8 66q-9 14 -37 -10t-112 -56q-84 -31 -166 -30q-201 0 -287 91t-60 235t159 240q134 95 348 95z" />
    <glyph glyph-name="Cacute" unicode="&#x106;" horiz-adv-x="1470" 
d="M932 1556h-178q-18 0 -9 15l158 262q4 14 23 14h239q14 0 9 -14l-218 -262q-14 -15 -24 -15zM694 207q90 0 167 32t138 98t95 134q6 10 14 10h233q25 1 -12 -75t-93 -148t-131 -133t-194 -103t-256 -42q-315 0 -446 196t-71 532q60 338 262 546t515 208q129 0 231 -39
t158 -97t90 -128q62 -128 44 -227q0 -10 -13 -10h-235q-6 0 -10 10q-7 51 -32 107t-55 84t-86 50t-130 23q-181 0 -311 -145q-130 -144 -172 -380t37 -370t263 -133z" />
    <glyph glyph-name="cacute" unicode="&#x107;" horiz-adv-x="1181" 
d="M768 1151h-178q-18 0 -8 14l157 262q4 14 23 15h239q14 0 9 -15l-217 -262q-15 -14 -25 -14zM709 1057q195 1 307 -97t106 -264q0 -10 -12 -10h-231q-8 0 -13 10q-29 143 -196 144q-125 0 -205 -89t-106 -233q-27 -144 23 -232q50 -89 162 -89t168 35q56 36 95 108
q6 10 16 10h232q14 0 8 -10q-61 -174 -205 -267t-340 -93q-236 0 -342 147t-63 392t201 391t395 147z" />
    <glyph glyph-name="Ccircumflex" unicode="&#x108;" horiz-adv-x="1470" 
d="M1174 1556h-164q-6 0 -11 7l-36 96q-10 18 -21 0l-74 -96q-4 -6 -10 -7h-164q-18 0 -8 15l162 262q4 14 22 14h228q14 0 18 -14l70 -262q4 -15 -12 -15zM694 207q90 0 167 32t138 98t95 134q6 10 14 10h233q25 1 -12 -75t-93 -148t-131 -133t-194 -103t-256 -42
q-315 0 -446 196t-71 532q60 338 262 546t515 208q129 0 231 -39t158 -97t90 -128q62 -128 44 -227q0 -10 -13 -10h-235q-6 0 -10 10q-7 51 -32 107t-55 84t-86 50t-130 23q-181 0 -311 -145q-130 -144 -172 -380t37 -370t263 -133z" />
    <glyph glyph-name="ccircumflex" unicode="&#x109;" horiz-adv-x="1181" 
d="M958 1151h-163q-8 0 -11 6l-36 96q-10 18 -21 0l-74 -96q-2 -6 -10 -6h-164q-18 0 -8 14l162 262q4 14 22 15h228q14 0 18 -15l70 -262q3 -14 -13 -14zM709 1057q195 1 307 -97t106 -264q0 -10 -12 -10h-231q-8 0 -13 10q-29 143 -196 144q-125 0 -205 -89t-106 -233
q-27 -144 23 -232q50 -89 162 -89t168 35q56 36 95 108q6 10 16 10h232q14 0 8 -10q-61 -174 -205 -267t-340 -93q-236 0 -342 147t-63 392t201 391t395 147z" />
    <glyph glyph-name="Cdotaccent" unicode="&#x10a;" horiz-adv-x="1470" 
d="M1051 1556h-265q-8 0 -8 11l47 270q4 10 13 10h264q12 0 8 -10l-47 -270q0 -11 -12 -11zM694 207q90 0 167 32t138 98t95 134q6 10 14 10h233q25 1 -12 -75t-93 -148t-131 -133t-194 -103t-256 -42q-315 0 -446 196t-71 532q60 338 262 546t515 208q129 0 231 -39
t158 -97t90 -128q62 -128 44 -227q0 -10 -13 -10h-235q-6 0 -10 10q-7 51 -32 107t-55 84t-86 50t-130 23q-181 0 -311 -145q-130 -144 -172 -380t37 -370t263 -133z" />
    <glyph glyph-name="cdotaccent" unicode="&#x10b;" horiz-adv-x="1181" 
d="M852 1151h-264q-12 0 -8 10l47 271q0 10 12 10h264q8 0 8 -10l-47 -271q-4 -10 -12 -10zM709 1057q195 1 307 -97t106 -264q0 -10 -12 -10h-231q-8 0 -13 10q-29 143 -196 144q-125 0 -205 -89t-106 -233q-27 -144 23 -232q50 -89 162 -89t168 35q56 36 95 108
q6 10 16 10h232q14 0 8 -10q-61 -174 -205 -267t-340 -93q-236 0 -342 147t-63 392t201 391t395 147z" />
    <glyph glyph-name="Ccaron" unicode="&#x10c;" horiz-adv-x="1470" 
d="M1067 1847h164q14 0 8 -14l-164 -262q-10 -14 -22 -15h-228q-18 0 -18 15l-68 262q-6 14 13 14h163q8 0 9 -6l39 -96q6 -18 20 0l72 96q6 6 12 6zM694 207q90 0 167 32t138 98t95 134q6 10 14 10h233q25 1 -12 -75t-93 -148t-131 -133t-194 -103t-256 -42
q-315 0 -446 196t-71 532q60 338 262 546t515 208q129 0 231 -39t158 -97t90 -128q62 -128 44 -227q0 -10 -13 -10h-235q-6 0 -10 10q-7 51 -32 107t-55 84t-86 50t-130 23q-181 0 -311 -145q-130 -144 -172 -380t37 -370t263 -133z" />
    <glyph glyph-name="ccaron" unicode="&#x10d;" horiz-adv-x="1181" 
d="M868 1442h164q16 0 8 -15l-163 -262q-10 -14 -23 -14h-227q-18 0 -19 14l-67 262q-2 7 2 11t10 4h164q8 0 8 -6l39 -97q6 -18 20 0l72 97q6 6 12 6zM709 1057q195 1 307 -97t106 -264q0 -10 -12 -10h-231q-8 0 -13 10q-29 143 -196 144q-125 0 -205 -89t-106 -233
q-27 -144 23 -232q50 -89 162 -89t168 35q56 36 95 108q6 10 16 10h232q14 0 8 -10q-61 -174 -205 -267t-340 -93q-236 0 -342 147t-63 392t201 391t395 147z" />
    <glyph glyph-name="Dcaron" unicode="&#x10e;" horiz-adv-x="1480" 
d="M944 1847h164q14 0 8 -14l-164 -262q-10 -14 -22 -15h-228q-18 0 -18 15l-68 262q-6 14 13 14h164q8 0 8 -6l39 -96q6 -18 20 0l72 96q6 6 12 6zM590 0h-527q-8 0 -8 10l252 1422q0 10 12 10h527q313 -2 443 -202t72 -532t-256 -520t-515 -188zM350 225h281
q184 0 308 125q124 126 165 358t-38 370t-261 139h-283q-6 0 -10 -9l-170 -972q-4 -11 8 -11z" />
    <glyph glyph-name="dcaron" unicode="&#x10f;" horiz-adv-x="1277" 
d="M1427 1282h-86q-8 0 -8 10l25 142q4 10 12 10h184q12 0 9 -10l-25 -146q-12 -70 -52 -106t-77 -44q-37 -7 -94 -8q-8 0 -8 11l10 59q4 10 12 10q96 0 107 62q3 10 -9 10zM547 205q123 0 201 85t102 228q53 313 -191 313q-127 0 -209 -86t-108 -227t28 -227t177 -86z
M659 1057q88 0 153 -30t95 -69q6 -6 13 -4q6 2 8 11l82 467q4 10 12 10h225q12 0 8 -10l-249 -1422q-4 -10 -11 -10h-196q-16 0 -19 10l-10 66q-4 14 -22 0q-45 -39 -124 -68t-155 -28q-215 0 -315 148t-58 388t200 390q159 150 363 151z" />
    <glyph glyph-name="Dcroat" unicode="&#x110;" horiz-adv-x="1376" 
d="M647 637h-235q-8 0 -13 -10l-67 -394q-4 -10 8 -10h281q184 0 308 125q124 124 165 358t-38 373t-261 140h-283q-8 0 -8 -9l-72 -401q0 -10 8 -10h236q12 0 8 -11l-25 -141q0 -10 -12 -10zM145 637h-178q-8 0 -8 10l25 141q4 10 12 11h178q12 0 12 10l111 623q0 10 12 10
h527q313 -2 443 -202t72 -532t-256 -520t-515 -188h-527q-8 0 -8 10l109 617q4 10 -9 10z" />
    <glyph glyph-name="dcroat" unicode="&#x111;" horiz-adv-x="1277" 
d="M547 205q123 0 201 85t102 228q53 313 -191 313q-127 0 -209 -86t-108 -227t28 -227t177 -86zM659 1057q88 0 153 -30t95 -69q6 -6 13 -4q6 2 8 11l26 153q4 10 -8 10h-235q-12 0 -9 11l25 141q4 10 12 10h236q8 0 12 10l23 132q4 10 12 10h225q12 0 8 -10l-22 -132
q-4 -10 8 -10h180q12 0 9 -10l-25 -141q-4 -10 -12 -11h-181q-8 0 -12 -10l-194 -1108q-4 -10 -11 -10h-196q-16 0 -19 10l-10 66q-4 14 -22 0q-45 -39 -124 -68t-155 -28q-215 0 -315 148t-58 388t200 390q159 150 363 151z" />
    <glyph glyph-name="Emacron" unicode="&#x112;" horiz-adv-x="1325" 
d="M1098 1577h-545q-6 0 -6 10l26 144q0 10 11 10h544q8 0 9 -10l-27 -144q0 -10 -12 -10zM342 225h756q12 0 8 -10l-37 -205q0 -10 -12 -10h-1002q-8 0 -8 10l252 1422q0 10 12 10h1002q8 0 8 -10l-37 -205q0 -10 -12 -10h-756q-8 0 -12 -11l-62 -352q-4 -10 9 -10h653
q12 0 8 -10l-35 -205q-4 -10 -12 -11h-653q-12 0 -13 -10l-65 -372q-4 -11 8 -11z" />
    <glyph glyph-name="emacron" unicode="&#x113;" horiz-adv-x="1200" 
d="M985 1171h-545q-6 0 -6 11l27 143q0 10 10 10h545q8 0 8 -10l-27 -143q0 -11 -12 -11zM375 629h465q10 0 10 8q12 72 -38 133t-165 61t-191 -62t-87 -132q0 -8 6 -8zM1055 424h-713q-12 0 -12 -10q-16 -86 42 -148t165 -61q154 0 215 92q6 10 18 10h240q12 0 8 -10
q-60 -147 -202 -232t-320 -85q-223 0 -335 150t-70 390t206 388t388 148t336 -149q112 -150 71 -389q-17 -61 -25 -84q-6 -10 -12 -10z" />
    <glyph glyph-name="Ebreve" unicode="&#x114;" horiz-adv-x="1325" 
d="M806 1556q-128 0 -193 77t-44 204q4 10 13 10h157q12 0 9 -10q-6 -39 18 -73t71 -34q48 0 82 34t39 73q4 10 13 10h159l9 -10q-21 -127 -113 -204t-220 -77zM342 225h756q12 0 8 -10l-37 -205q0 -10 -12 -10h-1002q-8 0 -8 10l252 1422q0 10 12 10h1002q8 0 8 -10
l-37 -205q0 -10 -12 -10h-756q-8 0 -12 -11l-62 -352q-4 -10 9 -10h653q12 0 8 -10l-35 -205q-4 -10 -12 -11h-653q-12 0 -13 -10l-65 -372q-4 -11 8 -11z" />
    <glyph glyph-name="ebreve" unicode="&#x115;" horiz-adv-x="1200" 
d="M709 1151q-127 0 -193 77t-43 204q0 10 12 10h158q8 0 8 -10q-6 -39 18 -73q23 -34 71 -34t82 34t40 73q0 10 12 10h160l8 -10q-22 -127 -114 -204t-219 -77zM375 629h465q10 0 10 8q12 72 -38 133t-165 61t-191 -62t-87 -132q0 -8 6 -8zM1055 424h-713q-12 0 -12 -10
q-16 -86 42 -148t165 -61q154 0 215 92q6 10 18 10h240q12 0 8 -10q-60 -147 -202 -232t-320 -85q-223 0 -335 150t-70 390t206 388t388 148t336 -149q112 -150 71 -389q-17 -61 -25 -84q-6 -10 -12 -10z" />
    <glyph glyph-name="Edotaccent" unicode="&#x116;" horiz-adv-x="1325" 
d="M958 1556h-264q-8 0 -8 11l47 270q4 10 12 10h265q12 0 8 -10l-47 -270q-1 -11 -13 -11zM342 225h756q12 0 8 -10l-37 -205q0 -10 -12 -10h-1002q-8 0 -8 10l252 1422q0 10 12 10h1002q8 0 8 -10l-37 -205q0 -10 -12 -10h-756q-8 0 -12 -11l-62 -352q-4 -10 9 -10h653
q12 0 8 -10l-35 -205q-4 -10 -12 -11h-653q-12 0 -13 -10l-65 -372q-4 -11 8 -11z" />
    <glyph glyph-name="edotaccent" unicode="&#x117;" horiz-adv-x="1200" 
d="M819 1151h-264q-12 0 -8 10l47 271q0 10 12 10h264q8 0 9 -10l-48 -271q-4 -10 -12 -10zM375 629h465q10 0 10 8q12 72 -38 133t-165 61t-191 -62t-87 -132q0 -8 6 -8zM1055 424h-713q-12 0 -12 -10q-16 -86 42 -148t165 -61q154 0 215 92q6 10 18 10h240q12 0 8 -10
q-60 -147 -202 -232t-320 -85q-223 0 -335 150t-70 390t206 388t388 148t336 -149q112 -150 71 -389q-17 -61 -25 -84q-6 -10 -12 -10z" />
    <glyph glyph-name="Eogonek" unicode="&#x118;" horiz-adv-x="1325" 
d="M360 225h756q8 0 8 -10l-37 -205q0 -10 -12 -10h-22q-66 0 -116 -34t-59 -89q-10 -55 24 -82t104 -26h28q12 0 8 -11l-26 -153q0 -10 -12 -11h-91q-115 0 -173 58t-44 145q18 123 131 183q10 4 10 12q-1 8 -12 8h-751q-8 0 -8 10l249 1422q4 10 13 10h1001q12 0 8 -10
l-34 -205q-4 -10 -13 -10h-755q-8 0 -13 -11l-61 -352q-4 -10 8 -10h653q8 0 8 -10l-36 -205q0 -10 -13 -11h-653q-10 0 -10 -10l-68 -372q0 -11 10 -11z" />
    <glyph glyph-name="eogonek" unicode="&#x119;" horiz-adv-x="1200" 
d="M393 629h465q8 0 8 8q12 72 -38 133t-164 61t-191 -62q-76 -62 -88 -132q0 -8 8 -8zM1071 424h-713q-8 0 -12 -10q-16 -86 42 -148t165 -61q154 0 215 92q6 10 18 10h240q14 0 8 -10q-27 -69 -84 -133t-121 -103q-147 -90 -163 -180q-19 -114 129 -112h28q8 0 8 -11
l-28 -153q0 -10 -10 -11h-91q-115 0 -173 58t-45 147q13 88 98 168q4 4 3 10t-10 7l-61 -4q-223 0 -335 150q-111 150 -69 390t205 388q164 148 387 148t336 -149q113 -150 70 -389q-22 -94 -37 -94z" />
    <glyph glyph-name="Ecaron" unicode="&#x11a;" horiz-adv-x="1325" 
d="M944 1847h164q14 0 8 -14l-164 -262q-10 -14 -22 -15h-228q-18 0 -18 15l-68 262q-6 14 13 14h164q8 0 8 -6l39 -96q6 -18 20 0l72 96q6 6 12 6zM342 225h756q12 0 8 -10l-37 -205q0 -10 -12 -10h-1002q-8 0 -8 10l252 1422q0 10 12 10h1002q8 0 8 -10l-37 -205
q0 -10 -12 -10h-756q-8 0 -12 -11l-62 -352q-4 -10 9 -10h653q12 0 8 -10l-35 -205q-4 -10 -12 -11h-653q-12 0 -13 -10l-65 -372q-4 -11 8 -11z" />
    <glyph glyph-name="ecaron" unicode="&#x11b;" horiz-adv-x="1200" 
d="M838 1442h163q14 0 9 -15l-164 -262q-10 -14 -23 -14h-227q-18 0 -18 14l-68 262q-6 14 12 15h164q8 0 8 -6l39 -97q6 -18 21 0l71 97q7 6 13 6zM375 629h465q10 0 10 8q12 72 -38 133t-165 61t-191 -62t-87 -132q0 -8 6 -8zM1055 424h-713q-12 0 -12 -10
q-16 -86 42 -148t165 -61q154 0 215 92q6 10 18 10h240q12 0 8 -10q-60 -147 -202 -232t-320 -85q-223 0 -335 150t-70 390t206 388t388 148t336 -149q112 -150 71 -389q-17 -61 -25 -84q-6 -10 -12 -10z" />
    <glyph glyph-name="Gcircumflex" unicode="&#x11c;" horiz-adv-x="1542" 
d="M1167 1556h-163q-8 0 -11 7l-37 96q-10 18 -20 0l-74 -96q-2 -6 -10 -7h-164q-18 0 -8 15l162 262q4 14 22 14h228q14 0 18 -14l70 -262q3 -15 -13 -15zM881 1235q-183 0 -313 -139t-172 -379t36 -375t266 -135q390 0 469 393q2 8 -6 8h-383q-10 0 -6 10l35 203
q4 10 10 10h606q12 0 9 -10l-144 -813q0 -8 -12 -8h-186q-6 0 -9 8l-2 107q0 18 -18 4q-199 -139 -402 -139q-303 0 -440 204t-78 537q57 333 267 537t512 204q477 0 524 -411q0 -14 -12 -15h-242q-23 0 -23 15q-29 90 -105 137q-77 47 -181 47z" />
    <glyph glyph-name="gcircumflex" unicode="&#x11d;" horiz-adv-x="1247" 
d="M991 1151h-164q-8 0 -10 6l-37 96q-10 18 -20 0l-74 -96q-2 -6 -10 -6h-164q-18 0 -8 14l162 262q4 14 22 15h227q14 0 19 -15l70 -262q3 -14 -13 -14zM565 205q252 0 309 313q25 143 -24 228t-175 85t-209 -86t-108 -228q-24 -142 28 -227t179 -85zM664 1057
q186 0 270 -99q10 -10 16 0l33 66q8 12 23 12h194q12 0 8 -10l-174 -995q-38 -205 -202 -331t-369 -126t-320 100t-92 238q4 10 12 10h222q10 0 11 -14q4 -50 78 -85q48 -24 120 -24q240 0 294 232l7 35v8q2 6 -4 8t-11 -2q-41 -35 -122 -68t-175 -32q-197 0 -305 151
t-65 387q41 236 203 388t348 151z" />
    <glyph glyph-name="Gbreve" unicode="&#x11e;" horiz-adv-x="1542" 
d="M976 1556q-128 0 -193 77t-44 204q4 10 13 10h157q12 0 9 -10q-6 -39 18 -73t71 -34q48 0 82 34t39 73q4 10 13 10h159l9 -10q-21 -127 -113 -204t-220 -77zM881 1235q-183 0 -313 -139t-172 -379t36 -375t266 -135q390 0 469 393q2 8 -6 8h-383q-10 0 -6 10l35 203
q4 10 10 10h606q12 0 9 -10l-144 -813q0 -8 -12 -8h-186q-6 0 -9 8l-2 107q0 18 -18 4q-199 -139 -402 -139q-303 0 -440 204t-78 537q57 333 267 537t512 204q477 0 524 -411q0 -14 -12 -15h-242q-23 0 -23 15q-29 90 -105 137q-77 47 -181 47z" />
    <glyph glyph-name="gbreve" unicode="&#x11f;" horiz-adv-x="1247" 
d="M752 1151q-127 0 -193 77t-43 204q0 10 12 10h158q8 0 8 -10q-6 -39 18 -73t72 -34t81 34q34 34 40 73q0 10 13 10h159l8 -10q-23 -127 -115 -204t-218 -77zM565 205q252 0 309 313q25 143 -24 228t-175 85t-209 -86t-108 -228q-24 -142 28 -227t179 -85zM664 1057
q186 0 270 -99q10 -10 16 0l33 66q8 12 23 12h194q12 0 8 -10l-174 -995q-38 -205 -202 -331t-369 -126t-320 100t-92 238q4 10 12 10h222q10 0 11 -14q4 -50 78 -85q48 -24 120 -24q240 0 294 232l7 35v8q2 6 -4 8t-11 -2q-41 -35 -122 -68t-175 -32q-197 0 -305 151
t-65 387q41 236 203 388t348 151z" />
    <glyph glyph-name="Gdotaccent" unicode="&#x120;" horiz-adv-x="1542" 
d="M1087 1556h-264q-8 0 -8 11l47 270q4 10 12 10h265q12 0 8 -10l-47 -270q-1 -11 -13 -11zM881 1235q-183 0 -313 -139t-172 -379t36 -375t266 -135q390 0 469 393q2 8 -6 8h-383q-10 0 -6 10l35 203q4 10 10 10h606q12 0 9 -10l-144 -813q0 -8 -12 -8h-186q-6 0 -9 8
l-2 107q0 18 -18 4q-199 -139 -402 -139q-303 0 -440 204t-78 537q57 333 267 537t512 204q477 0 524 -411q0 -14 -12 -15h-242q-23 0 -23 15q-29 90 -105 137q-77 47 -181 47z" />
    <glyph glyph-name="gdotaccent" unicode="&#x121;" horiz-adv-x="1247" 
d="M864 1151h-264q-12 0 -8 10l47 271q0 10 12 10h264q8 0 9 -10l-47 -271q-5 -10 -13 -10zM565 205q252 0 309 313q25 143 -24 228t-175 85t-209 -86t-108 -228q-24 -142 28 -227t179 -85zM664 1057q186 0 270 -99q10 -10 16 0l33 66q8 12 23 12h194q12 0 8 -10l-174 -995
q-38 -205 -202 -331t-369 -126t-320 100t-92 238q4 10 12 10h222q10 0 11 -14q4 -50 78 -85q48 -24 120 -24q240 0 294 232l7 35v8q2 6 -4 8t-11 -2q-41 -35 -122 -68t-175 -32q-197 0 -305 151t-65 387q41 236 203 388t348 151z" />
    <glyph glyph-name="uni0122" unicode="&#x122;" horiz-adv-x="1542" 
d="M621 -274h-86q-10 0 -11 10l27 141q0 10 10 10h184q10 0 11 -10l-27 -145q-12 -70 -51 -107t-76 -44t-94 -7q-10 0 -10 10l12 60q0 10 10 10q96 0 109 61q0 11 -8 11zM717 207q390 0 469 393q0 8 -6 8h-383q-8 0 -9 10l37 203q0 10 11 10h606q8 0 8 -10l-143 -813
q-2 -8 -13 -8h-186q-8 0 -8 8l-2 107q0 18 -21 4q-195 -139 -401 -139q-303 0 -439 204t-79 537t267 537t513 204q477 0 524 -411q0 -14 -14 -15h-242q-20 0 -20 15q-62 184 -287 184q-182 0 -313 -139t-172 -379t37 -375t266 -135z" />
    <glyph glyph-name="uni0123" unicode="&#x123;" horiz-adv-x="1247" 
d="M748 1286h86q10 0 10 -10l-27 -141q0 -10 -10 -11h-184q-10 0 -11 11l27 145q12 70 52 106t77 44t94 8q8 0 8 -11l-10 -59q-4 -10 -12 -10q-96 0 -109 -62q1 -10 9 -10zM547 205q256 0 309 313q26 143 -24 228t-176 85t-208 -85t-108 -228q-24 -143 28 -228t179 -85z
M647 1057q186 0 271 -99q10 -10 16 0l33 66q8 12 22 12h197q10 0 6 -10l-176 -995q-35 -205 -200 -331t-370 -126q-206 0 -320 100t-91 238q4 10 12 10h223q8 0 10 -15q5 -49 76 -84q47 -24 119 -24q244 0 295 232l6 35q8 32 -30 -2q-22 -20 -104 -52q-81 -33 -175 -32
q-197 0 -305 151t-68 387q43 236 205 388t348 151z" />
    <glyph glyph-name="Hcircumflex" unicode="&#x124;" horiz-adv-x="1429" 
d="M1112 1556h-164q-6 0 -10 7l-37 96q-10 18 -20 0l-74 -96q-4 -6 -10 -7h-164q-18 0 -8 15l161 262q4 14 23 14h227q14 0 19 -14l69 -262q4 -15 -12 -15zM1143 0h-225q-8 0 -9 10l107 600q2 8 -6 8h-580q-8 0 -10 -8l-107 -600q0 -10 -12 -10h-225q-8 0 -8 10l251 1422
q0 10 13 10h225q8 0 8 -10l-102 -580q-2 -8 6 -8h580q8 0 10 8l102 580q0 10 13 10h225q8 0 8 -10l-252 -1422q0 -10 -12 -10z" />
    <glyph glyph-name="hcircumflex" unicode="&#x125;" horiz-adv-x="1245" 
d="M684 1556h-164q-8 0 -10 7l-37 96q-10 18 -20 0l-74 -96q-2 -6 -10 -7h-164q-18 0 -8 15l161 262q4 14 23 14h227q14 0 19 -14l69 -262q4 -15 -12 -15zM977 0h-225q-8 0 -9 10l99 559q18 103 -26 179t-157 76t-181 -68q-68 -66 -85 -166l-102 -580q0 -10 -12 -10h-226
q-8 0 -8 10l252 1422q0 10 12 10h226q8 0 8 -10l-82 -465q-2 -11 4 -13q5 -2 27 18t95 52t154 33q213 0 299 -139t47 -349l-98 -559q0 -10 -12 -10z" />
    <glyph glyph-name="Hbar" unicode="&#x126;" horiz-adv-x="1409" 
d="M502 1128q-12 0 -13 -10l-47 -266q-2 -8 7 -8h579q8 0 10 8l47 266q0 10 -8 10h-575zM1122 0h-225q-8 0 -8 10l106 600q2 8 -6 8h-579q-8 0 -11 -8l-106 -600q0 -10 -12 -10h-226q-8 0 -8 10l197 1108q0 10 -8 10h-183q-12 0 -8 11l25 141q0 10 12 10h182q10 0 10 10
l25 132q0 10 12 10h226q8 0 8 -10l-25 -132q0 -10 10 -10h576q8 0 10 8l25 134q0 10 12 10h225q8 0 8 -10l-24 -132q0 -10 10 -10h182q8 0 9 -10l-25 -141q-4 -10 -12 -11h-183q-12 0 -12 -10l-196 -1108q-1 -10 -13 -10z" />
    <glyph glyph-name="hbar" unicode="&#x127;" horiz-adv-x="1245" 
d="M977 0h-225q-8 0 -9 10l99 559q18 103 -26 179t-157 76t-181 -68q-68 -66 -85 -166l-102 -580q0 -10 -12 -10h-228q-6 0 -6 10l197 1108q0 10 -9 10h-180q-12 0 -8 11l25 141q0 10 12 10h180q8 0 10 8l25 134q0 10 10 10h228q6 0 8 -6l-25 -136q0 -10 10 -10h236
q8 0 8 -10l-24 -141q-4 -10 -13 -11h-235q-12 0 -13 -10l-26 -151q-2 -11 4 -13q5 -2 27 18t95 52t154 33q213 0 299 -139t47 -349l-98 -559q0 -10 -12 -10z" />
    <glyph glyph-name="Itilde" unicode="&#x128;" horiz-adv-x="565" 
d="M369 1847q82 0 161 -70q27 -24 42 -24q16 0 26 2q10 1 28 21t25 61q4 10 13 10h143q12 0 8 -10l-12 -70q-12 -70 -78 -132t-186 -62q-61 0 -123 47t-80 47q-16 0 -26 -2t-28 -21q-17 -19 -26 -61q0 -10 -12 -10h-144q-8 0 -8 10l12 68q12 72 78 134t187 62zM279 0h-226
q-8 0 -8 10l252 1422q0 10 12 10h226q8 0 8 -10l-252 -1422q0 -10 -12 -10z" />
    <glyph glyph-name="itilde" unicode="&#x129;" horiz-adv-x="567" 
d="M627 1442h143q10 0 10 -10l-12 -70q-12 -70 -78 -132t-186 -63q-62 0 -124 47q-62 48 -78 48t-28 -2q-10 -2 -28 -22t-25 -60q-4 -10 -12 -11h-143q-13 1 -9 11l13 67q12 72 76 134q65 62 186 63q79 0 162 -71q27 -23 40 -23t31 3t32 26q13 23 16 44t14 21zM338 0h-225
q-8 0 -9 10l181 1016q0 10 10 10h225q10 0 10 -10l-180 -1016q0 -10 -12 -10z" />
    <glyph glyph-name="Imacron" unicode="&#x12a;" horiz-adv-x="565" 
d="M721 1577h-545q-6 0 -6 10l27 144q0 10 10 10h545q8 0 8 -10l-27 -144q0 -10 -12 -10zM279 0h-226q-8 0 -8 10l252 1422q0 10 12 10h226q8 0 8 -10l-252 -1422q0 -10 -12 -10z" />
    <glyph glyph-name="imacron" unicode="&#x12b;" horiz-adv-x="626" 
d="M700 1171h-544q-6 0 -6 11l26 143q0 10 10 10h545q8 0 8 -10l-26 -143q-1 -11 -13 -11zM338 0h-225q-8 0 -9 10l181 1016q0 10 10 10h225q10 0 10 -10l-180 -1016q0 -10 -12 -10z" />
    <glyph glyph-name="Iogonek" unicode="&#x12e;" horiz-adv-x="565" 
d="M297 0h-53q-66 0 -116 -34t-59 -89t25 -82t103 -26h28q12 0 8 -11l-26 -153q0 -10 -12 -11h-91q-119 0 -175 54t-40 149q23 143 164 197q10 4 10 16l250 1422q4 10 13 10h225q12 0 8 -10l-250 -1422q0 -10 -12 -10z" />
    <glyph glyph-name="iogonek" unicode="&#x12f;" horiz-adv-x="626" 
d="M338 0h-53q-66 0 -116 -34t-59 -89q-10 -55 24 -82t104 -26h28q12 0 8 -11l-26 -153q0 -10 -12 -11h-91q-119 0 -175 54t-40 149q23 143 164 197q10 4 10 16l181 1016q0 10 10 10h225q10 0 10 -10l-180 -1016q0 -10 -12 -10zM561 1151h-266q-8 0 -8 10l47 271q4 10 12 10
h266q12 0 9 -10l-48 -271q0 -10 -12 -10z" />
    <glyph glyph-name="Idotaccent" unicode="&#x130;" horiz-adv-x="565" 
d="M580 1556h-265q-8 0 -8 11l47 270q4 10 13 10h264q12 0 8 -10l-47 -270q0 -11 -12 -11zM279 0h-226q-8 0 -8 10l252 1422q0 10 12 10h226q8 0 8 -10l-252 -1422q0 -10 -12 -10z" />
    <glyph glyph-name="dotlessi" unicode="&#x131;" horiz-adv-x="626" 
d="M338 0h-225q-8 0 -9 10l181 1016q0 10 10 10h225q10 0 10 -10l-180 -1016q0 -10 -12 -10z" />
    <glyph glyph-name="IJ" unicode="&#x132;" 
d="M76 96l465 625l-246 625zM594 721l244 -623l219 1245q-373 -497 -463 -622zM94 49h709l-246 625zM575 768l465 627h-708zM858 0h-842q-8 0 -8 10l252 1422q0 10 12 10h842q8 0 8 -10l-252 -1422q0 -10 -12 -10z" />
    <glyph glyph-name="ij" unicode="&#x133;" 
d="M76 96l465 625l-246 625zM594 721l244 -623l219 1245q-373 -497 -463 -622zM94 49h709l-246 625zM575 768l465 627h-708zM858 0h-842q-8 0 -8 10l252 1422q0 10 12 10h842q8 0 8 -10l-252 -1422q0 -10 -12 -10z" />
    <glyph glyph-name="Jcircumflex" unicode="&#x134;" horiz-adv-x="1058" 
d="M1192 1556h-164q-8 0 -10 7l-37 96q-10 18 -20 0l-74 -96q-2 -6 -10 -7h-164q-18 0 -8 15l161 262q4 14 23 14h227q14 0 19 -14l69 -262q4 -15 -12 -15zM63 512h224q12 0 8 -10l-14 -82q-5 -51 -7 -99t33 -84t109 -36q174 0 211 219l178 1012q4 10 12 10h225q13 0 9 -10
l-179 -1012q-36 -205 -150 -323t-347 -117q-412 0 -338 440l14 82q4 10 12 10z" />
    <glyph glyph-name="jcircumflex" unicode="&#x135;" horiz-adv-x="634" 
d="M700 1151h-163q-8 0 -11 6l-37 96q-10 18 -20 0l-74 -96q-2 -6 -10 -6h-164q-18 0 -8 14l162 262q4 14 22 15h228q14 0 18 -15l70 -262q3 -14 -13 -14zM-139 -406q-6 0 -6 11l36 205q0 10 11 10h139q31 -4 57 15t29 50l201 1141q4 10 12 10h225q12 0 8 -10l-200 -1143
q-53 -293 -355 -289h-157z" />
    <glyph glyph-name="uni0136" unicode="&#x136;" horiz-adv-x="1347" 
d="M510 -274h-86q-12 0 -8 10l24 141q4 10 13 10h184q12 0 8 -10l-24 -145q-13 -70 -53 -107t-76 -44t-95 -7q-12 0 -8 10l10 60q0 10 13 10q96 0 106 61q4 11 -8 11zM1200 0h-260q-6 0 -16 16l-322 666q-4 6 -8 2l-168 -143q-14 -12 -16 -23l-88 -508q-4 -10 -13 -10h-225
q-12 0 -8 10l250 1422q0 10 12 10h225q8 0 8 -10l-98 -551q0 -16 14 -7l670 566q2 2 8 2h299q8 0 9 -7q0 -7 -5 -12l-661 -557q-4 -6 -2 -14l405 -836q4 -16 -10 -16z" />
    <glyph glyph-name="uni0137" unicode="&#x137;" horiz-adv-x="1261" 
d="M449 -274h-87q-12 0 -8 10l25 141q4 10 12 10h184q12 0 9 -10l-25 -145q-12 -70 -52 -107t-77 -44t-94 -7q-12 0 -8 10l10 60q0 10 12 10q96 0 107 61q4 11 -8 11zM299 0h-225q-12 0 -8 10l249 1422q0 10 13 10h225q8 0 8 -10l-131 -748q-2 -4 2 -7t10 1l463 346
q14 10 23 10h329q4 0 10 -6t-7 -12l-447 -332q-8 -4 -4 -14l270 -654q4 -16 -10 -16h-252q-4 2 -6 4l-211 514q0 2 -5 2t-9 -2l-201 -151q-14 -10 -16 -23l-58 -334q-4 -10 -12 -10z" />
    <glyph glyph-name="kgreenlandic" unicode="&#x138;" horiz-adv-x="1261" 
d="M297 0h-225q-8 0 -9 10l181 1016q0 10 10 10h225q10 0 10 -10l-61 -342q0 -16 14 -6l461 346q16 10 23 10h329q8 0 10 -7q1 -7 -5 -11l-449 -332q-6 -6 -2 -14l270 -654q4 -16 -12 -16h-252q-4 2 -4 4l-211 514q-2 2 -6 2t-8 -2l-201 -151q-14 -8 -16 -23l-60 -334
q0 -10 -12 -10z" />
    <glyph glyph-name="Lacute" unicode="&#x139;" horiz-adv-x="1179" 
d="M543 1556h-178q-18 0 -9 15l158 262q4 14 23 14h239q14 0 8 -14l-217 -262q-14 -15 -24 -15zM995 0h-940q-8 0 -8 10l252 1422q0 10 12 10h226q8 0 8 -10l-211 -1199q-2 -8 6 -8h696q12 0 8 -10l-36 -205q-1 -10 -13 -10z" />
    <glyph glyph-name="lacute" unicode="&#x13a;" horiz-adv-x="565" 
d="M551 1612h-178q-18 0 -8 14l157 262q4 14 23 15h239q14 0 9 -15l-218 -262q-14 -14 -24 -14zM279 0h-226q-8 0 -8 10l252 1422q0 10 12 10h226q8 0 8 -10l-252 -1422q0 -10 -12 -10z" />
    <glyph glyph-name="uni013B" unicode="&#x13b;" horiz-adv-x="1179" 
d="M489 -274h-86q-12 0 -8 10l25 141q4 10 12 10h184q12 0 9 -10l-25 -145q-12 -70 -52 -107t-77 -44t-94 -7q-12 0 -8 10l10 60q0 10 12 10q96 0 107 61q3 11 -9 11zM1016 0h-940q-12 0 -8 10l249 1422q0 10 13 10h225q8 0 8 -10l-211 -1199q-2 -8 6 -8h697q12 0 8 -10
l-35 -205q-4 -10 -12 -10z" />
    <glyph glyph-name="uni013C" unicode="&#x13c;" horiz-adv-x="565" 
d="M129 -274h-86q-12 0 -8 10l24 141q4 10 13 10h184q12 0 8 -10l-24 -145q-12 -70 -52 -107t-78 -44q-36 -7 -94 -7q-12 0 -8 10l10 60q0 10 13 10q96 0 106 61q4 11 -8 11zM299 0h-225q-12 0 -8 10l249 1422q0 10 13 10h225q8 0 8 -10l-250 -1422q-4 -10 -12 -10z" />
    <glyph glyph-name="Lcaron" unicode="&#x13d;" horiz-adv-x="1179" 
d="M883 0h-940q-8 0 -9 10l252 1422q0 10 13 10h225q8 0 8 -10l-211 -1199q-2 -8 6 -8h697q12 0 8 -10l-37 -205q0 -10 -12 -10zM604 1280h-86q-8 0 -8 10l25 142q4 10 12 10h184q12 0 8 -10l-24 -146q-12 -70 -52 -106t-77 -44q-37 -7 -94 -8q-8 0 -9 11l11 59q4 10 12 10
q96 0 108 62q0 10 -10 10z" />
    <glyph glyph-name="lcaron" unicode="&#x13e;" horiz-adv-x="772" 
d="M166 0h-225q-8 0 -9 10l252 1422q0 10 13 10h225q8 0 8 -10l-252 -1422q0 -10 -12 -10zM602 1280h-86q-8 0 -8 10l24 142q4 10 13 10h184q12 0 8 -10l-24 -146q-13 -70 -53 -106t-76 -44q-36 -7 -95 -8q-8 0 -8 11l11 59q4 10 12 10q96 0 108 62q0 10 -10 10z" />
    <glyph glyph-name="Ldot" unicode="&#x13f;" horiz-adv-x="1179" 
d="M899 565h-305q-12 0 -8 10l53 310q4 10 12 10h305q12 0 9 -10l-54 -310q-4 -10 -12 -10zM995 0h-940q-8 0 -8 10l252 1422q0 10 12 10h226q8 0 8 -10l-211 -1199q-2 -8 6 -8h696q12 0 8 -10l-36 -205q-1 -10 -13 -10z" />
    <glyph glyph-name="ldot" unicode="&#x140;" horiz-adv-x="862" 
d="M805 565h-305q-12 0 -8 10l53 310q4 10 12 10h305q12 0 8 -10l-53 -310q-4 -10 -12 -10zM279 0h-226q-8 0 -8 10l252 1422q0 10 12 10h226q8 0 8 -10l-252 -1422q0 -10 -12 -10z" />
    <glyph glyph-name="Lslash" unicode="&#x141;" horiz-adv-x="1296" 
d="M1108 0h-940q-8 0 -8 10l86 488q2 6 -3 9t-14 -1l-180 -125q-4 -4 -10 -2t-4 8l26 152q0 6 9 14l200 139q12 8 13 17l129 723q0 10 12 10h225q8 0 8 -10l-92 -519q-2 -6 4 -9t11 1l180 123q8 4 13 2t3 -8l-24 -148q-4 -12 -13 -16l-200 -139q-6 -4 -11 -14l-82 -472
q-2 -8 7 -8h696q12 0 8 -10l-37 -205q0 -10 -12 -10z" />
    <glyph glyph-name="lslash" unicode="&#x142;" horiz-adv-x="774" 
d="M393 0h-225q-8 0 -8 10l86 488q2 6 -3 9t-14 -1l-180 -125q-4 -4 -10 -2t-4 8l26 152q0 6 9 14l200 139q12 8 13 17l129 723q0 10 12 10h225q8 0 8 -10l-92 -519q-2 -6 4 -9t11 1l180 123q8 4 13 2t3 -8l-24 -148q-4 -12 -13 -16l-200 -139q-8 -8 -11 -19l-122 -690
q-1 -10 -13 -10z" />
    <glyph glyph-name="Nacute" unicode="&#x143;" horiz-adv-x="1499" 
d="M905 1556h-178q-18 0 -8 15l158 262q4 14 22 14h240q16 0 8 -14l-217 -262q-15 -15 -25 -15zM1241 1442h225q8 0 9 -10l-252 -1422q0 -10 -13 -10h-305q-8 0 -12 10l-369 1077q-4 10 -11 10q-7 -1 -9 -10l-191 -1077q0 -10 -12 -10h-227q-6 0 -6 10l251 1422q0 10 13 10
h305q6 0 10 -10l371 -1078q4 -10 11 -9t9 9l191 1078q0 10 12 10z" />
    <glyph glyph-name="nacute" unicode="&#x144;" horiz-adv-x="1224" 
d="M811 1151h-178q-18 0 -8 14l157 262q4 14 23 15h239q16 0 9 -15l-217 -262q-15 -14 -25 -14zM776 1057q90 0 168 -40q80 -40 115 -108q75 -146 35 -340l-99 -559q-4 -10 -12 -10h-225q-12 0 -8 10l98 559q18 103 -26 183t-156 80t-182 -70q-69 -70 -85 -172l-102 -580
q-4 -10 -12 -10h-226q-12 0 -8 10l178 1016q4 10 13 10h194q16 0 17 -10l12 -63q6 -20 20 -2q41 35 121 65t170 31z" />
    <glyph glyph-name="uni0145" unicode="&#x145;" horiz-adv-x="1499" 
d="M612 -274h-86q-12 0 -8 10l25 141q4 10 12 10h184q12 0 9 -10l-25 -145q-12 -70 -52 -107t-77 -44t-94 -7q-12 0 -8 10l10 60q0 10 12 10q96 0 107 61q3 11 -9 11zM1260 1442h225q8 0 8 -10l-250 -1422q-4 -10 -12 -10h-305q-12 0 -13 10l-370 1077q-4 10 -12 10
q-7 -1 -9 -10l-188 -1077q-4 -10 -12 -10h-228q-10 0 -6 10l250 1422q0 10 12 10h305q4 0 11 -10l370 -1078q4 -10 12 -9t9 9l190 1078q1 10 13 10z" />
    <glyph glyph-name="uni0146" unicode="&#x146;" horiz-adv-x="1224" 
d="M479 -274h-86q-8 0 -8 10l25 141q4 10 12 10h184q12 0 8 -10l-24 -145q-12 -70 -52 -107t-77 -44t-94 -7q-8 0 -9 10l11 60q4 10 12 10q96 0 106 61q4 11 -8 11zM794 1057q89 0 169 -40q81 -40 115 -108q74 -147 34 -340l-98 -559q-4 -10 -13 -10h-225q-12 0 -8 10
l98 559q18 104 -24 184q-43 79 -156 79q-112 0 -182 -72q-70 -70 -86 -170l-103 -580q-4 -10 -12 -10h-227q-10 0 -6 10l178 1016q4 10 10 10h197q16 0 18 -12l10 -61q5 -19 33 7t109 56q80 30 169 31z" />
    <glyph glyph-name="Ncaron" unicode="&#x147;" horiz-adv-x="1470" 
d="M1026 1847h164q14 0 8 -14l-164 -262q-10 -14 -22 -15h-228q-18 0 -18 15l-68 262q-6 14 13 14h163q8 0 9 -6l39 -96q6 -18 20 0l72 96q6 6 12 6zM1206 1442h226q8 0 8 -10l-252 -1422q0 -10 -12 -10h-306q-6 0 -12 10l-369 1077q-4 10 -11 10q-7 -1 -9 -10l-190 -1077
q0 -10 -13 -10h-227q-6 0 -6 10l252 1422q0 10 12 10h305q4 0 10 -10l371 -1078q4 -10 11 -9t10 9l190 1078q0 10 12 10z" />
    <glyph glyph-name="ncaron" unicode="&#x148;" horiz-adv-x="1224" 
d="M850 1442h164q14 0 8 -15l-164 -262q-10 -14 -22 -14h-228q-18 0 -18 14l-68 262q-6 14 13 15h163q8 0 9 -6l38 -97q6 -18 21 0l72 97q6 6 12 6zM776 1057q90 0 168 -40q80 -40 115 -108q75 -146 35 -340l-99 -559q-4 -10 -12 -10h-225q-12 0 -8 10l98 559
q18 103 -26 183t-156 80t-182 -70q-69 -70 -85 -172l-102 -580q-4 -10 -12 -10h-226q-12 0 -8 10l178 1016q4 10 13 10h194q16 0 17 -10l12 -63q6 -20 20 -2q41 35 121 65t170 31z" />
    <glyph glyph-name="napostrophe" unicode="&#x149;" horiz-adv-x="1224" 
d="M663 1057q89 0 169 -40t114 -108q75 -146 35 -340l-98 -559q-4 -10 -13 -10h-225q-12 0 -8 10l98 559q18 104 -25 184q-44 79 -157 79t-181 -70t-85 -172l-103 -580q-4 -10 -12 -10h-225q-12 0 -8 10l178 1016q4 10 12 10h195q16 0 16 -10l12 -63q7 -20 21 -2
q41 35 121 65t169 31zM303 1280h-86q-8 0 -8 10l24 142q4 10 13 10h184q12 0 8 -10l-24 -146q-12 -70 -52 -106t-78 -44q-36 -7 -94 -8q-8 0 -8 11l11 59q4 10 12 10q96 0 108 62q0 10 -10 10z" />
    <glyph glyph-name="Omacron" unicode="&#x14c;" horiz-adv-x="1556" 
d="M1233 1577h-545q-6 0 -6 10l27 144q0 10 10 10h545q8 0 8 -10l-27 -144q0 -10 -12 -10zM698 205q188 0 316 136q127 136 170 380q41 244 -37 380t-266 136q-187 0 -315 -136t-170 -380t36 -380t266 -136zM402 1260q202 202 518 202t447 -202q132 -202 73 -540
q-59 -337 -262 -539q-202 -201 -518 -201t-447 202t-72 539q59 336 261 539z" />
    <glyph glyph-name="omacron" unicode="&#x14d;" horiz-adv-x="1234" 
d="M1024 1171h-545q-6 0 -6 11l27 143q0 10 10 10h545q8 0 8 -10l-27 -143q0 -11 -12 -11zM566 205q128 0 210 83t109 230q25 146 -27 230t-181 84q-128 0 -211 -84q-83 -82 -109 -230q-27 -148 27 -230q54 -83 182 -83zM525 -20q-237 0 -347 147t-65 391q41 244 202 391
q162 147 399 147t348 -146q111 -148 68 -392q-44 -244 -206 -391t-399 -147z" />
    <glyph glyph-name="Obreve" unicode="&#x14e;" horiz-adv-x="1556" 
d="M943 1556q-129 0 -193 77t-43 204q4 10 12 10h158q12 0 8 -10q-7 -39 17 -73t72 -34t82 34t40 73q4 10 12 10h160l8 -10q-20 -127 -112 -204t-221 -77zM698 205q188 0 316 136q127 136 170 380q41 244 -37 380t-266 136q-187 0 -315 -136t-170 -380t36 -380t266 -136z
M402 1260q202 202 518 202t447 -202q132 -202 73 -540q-59 -337 -262 -539q-202 -201 -518 -201t-447 202t-72 539q59 336 261 539z" />
    <glyph glyph-name="obreve" unicode="&#x14f;" horiz-adv-x="1234" 
d="M725 1151q-127 0 -193 77t-43 204q0 10 13 10h157q8 0 9 -10q-6 -39 18 -73t71 -34q48 0 82 34t40 73q0 10 12 10h160l8 -10q-23 -127 -115 -204t-219 -77zM566 205q128 0 210 83t109 230q25 146 -27 230t-181 84q-128 0 -211 -84q-83 -82 -109 -230q-27 -148 27 -230
q54 -83 182 -83zM525 -20q-237 0 -347 147t-65 391q41 244 202 391q162 147 399 147t348 -146q111 -148 68 -392q-44 -244 -206 -391t-399 -147z" />
    <glyph glyph-name="Ohungarumlaut" unicode="&#x150;" horiz-adv-x="1556" 
d="M1313 1556h-264q-10 0 -7 11l107 270q0 10 14 10h264q6 0 7 -10l-107 -270q-4 -11 -14 -11zM862 1556h-264q-10 0 -6 11l106 270q0 10 15 10h264q6 0 6 -10l-106 -270q-5 -11 -15 -11zM698 205q188 0 316 136q127 136 170 380q41 244 -37 380t-266 136q-187 0 -315 -136
t-170 -380t36 -380t266 -136zM402 1260q202 202 518 202t447 -202q132 -202 73 -540q-59 -337 -262 -539q-202 -201 -518 -201t-447 202t-72 539q59 336 261 539z" />
    <glyph glyph-name="ohungarumlaut" unicode="&#x151;" horiz-adv-x="1234" 
d="M989 1151h-264q-10 0 -6 10l106 271q0 10 15 10h264q6 0 6 -10l-106 -271q-5 -10 -15 -10zM539 1151h-265q-10 0 -6 10l107 271q0 10 14 10h264q6 0 6 -10l-106 -271q-4 -10 -14 -10zM566 205q128 0 210 83t109 230q25 146 -27 230t-181 84q-128 0 -211 -84
q-83 -82 -109 -230q-27 -148 27 -230q54 -83 182 -83zM525 -20q-237 0 -347 147t-65 391q41 244 202 391q162 147 399 147t348 -146q111 -148 68 -392q-44 -244 -206 -391t-399 -147z" />
    <glyph glyph-name="OE" unicode="&#x152;" horiz-adv-x="2304" 
d="M709 205q173 0 287 135t157 381t-24 381t-239 135t-285 -135q-115 -135 -157 -381t24 -381t237 -135zM670 -20q-287 0 -412 204t-65 537q57 333 253 537t484 204q197 0 323 -102q4 -4 11 -1q6 3 6 9l12 64q0 10 12 10h979q8 0 8 -10l-36 -205q0 -10 -13 -10h-735
q-8 0 -12 -11l-62 -352q-4 -10 9 -10h653q12 0 8 -10l-35 -205q-4 -10 -12 -11h-653q-12 0 -13 -10l-65 -372q-4 -10 8 -11h735q12 0 8 -10l-36 -205q0 -10 -13 -10h-979q-8 0 -8 10l12 64q2 6 -3 9t-11 -1q-158 -102 -358 -102z" />
    <glyph glyph-name="oe" unicode="&#x153;" horiz-adv-x="1927" 
d="M1126 629h465q10 0 11 8q12 75 -38 139t-164 64t-186 -64t-94 -139q0 -8 6 -8zM635 840q-127 0 -209 -87t-108 -235t26 -234q52 -87 178 -87q127 0 210 87t110 234q24 146 -28 234t-179 88zM1434 1057q240 1 346 -147t63 -392q-8 -33 -24 -92q-4 -10 -11 -10h-718
q-8 0 -11 -8q-16 -92 41 -152t166 -59q150 0 240 104q2 6 12 6h223q8 0 8 -10q-59 -147 -201 -232t-321 -85q-270 0 -344 149q-4 12 -16 0q-125 -150 -404 -149q-235 0 -345 147t-66 391q41 244 202 391q162 147 403 147t351 -159q166 160 406 160z" />
    <glyph glyph-name="Racute" unicode="&#x154;" horiz-adv-x="1339" 
d="M825 1556h-178q-18 0 -8 15l158 262q4 14 22 14h240q14 0 8 -14l-217 -262q-15 -15 -25 -15zM446 778h342q82 4 154 68t87 152q15 89 -37 154t-134 65h-336q-6 0 -10 -9l-74 -420q0 -10 8 -10zM1122 0h-235q-2 0 -8 6l-144 537q0 10 -8 10h-321q-8 0 -11 -8l-94 -535
q0 -10 -12 -10h-226q-8 0 -8 10l252 1422q0 10 12 10h601q176 0 280 -130t72 -315q-20 -125 -100 -228t-191 -161q-4 -4 -2 -8l158 -586q4 -14 -15 -14z" />
    <glyph glyph-name="racute" unicode="&#x155;" horiz-adv-x="835" 
d="M494 1151h-179q-18 0 -8 14l158 262q4 14 22 15h240q14 0 8 -15l-217 -262q-14 -14 -24 -14zM659 821q-113 1 -181 -65t-83 -166l-102 -580q-4 -10 -12 -10h-228q-10 0 -6 10l178 1016q4 10 11 10h196q14 0 19 -12l10 -61q4 -16 16 -5q119 98 246 99h113q8 0 8 -10
l-39 -216q0 -10 -12 -10h-134z" />
    <glyph glyph-name="uni0156" unicode="&#x156;" horiz-adv-x="1339" 
d="M551 -274h-86q-12 0 -8 10l24 141q4 10 13 10h184q12 0 8 -10l-24 -145q-12 -70 -52 -107t-78 -44q-37 -7 -94 -7q-12 0 -8 10l10 60q0 10 13 10q96 0 106 61q4 11 -8 11zM467 778h342q80 4 152 68t87 152q15 89 -37 154t-134 65h-336q-8 0 -9 -9l-73 -420q-4 -10 8 -10z
M1143 0h-236q-4 0 -10 6l-143 537q0 10 -9 10h-321q-8 0 -8 -8l-94 -535q-4 -10 -13 -10h-225q-12 0 -8 10l250 1422q0 10 12 10h600q176 0 282 -129q105 -130 72 -316q-22 -125 -102 -228t-191 -161q-2 -2 -2 -8l158 -586q4 -14 -12 -14z" />
    <glyph glyph-name="uni0157" unicode="&#x157;" horiz-adv-x="835" 
d="M131 -274h-86q-8 0 -8 10l24 141q4 10 13 10h184q12 0 8 -10l-24 -145q-12 -70 -52 -107t-78 -44q-36 -7 -94 -7q-8 0 -8 10l10 60q4 10 13 10q96 0 106 61q4 11 -8 11zM680 821q-114 1 -182 -65t-84 -166l-103 -580q-4 -10 -12 -10h-227q-10 0 -6 10l178 1016
q4 10 10 10h197q16 0 18 -12l10 -61q4 -16 17 -5q119 98 245 99h113q12 0 8 -10l-37 -216q-4 -10 -12 -10h-133z" />
    <glyph glyph-name="Rcaron" unicode="&#x158;" horiz-adv-x="1380" 
d="M862 1847h164q14 0 8 -14l-164 -262q-10 -14 -22 -15h-227q-18 0 -19 15l-67 262q-6 14 12 14h164q8 0 8 -6l39 -96q6 -18 20 0l72 96q6 6 12 6zM446 778h342q82 4 154 68t87 152q15 89 -37 154t-134 65h-336q-6 0 -10 -9l-74 -420q0 -10 8 -10zM1122 0h-235q-2 0 -8 6
l-144 537q0 10 -8 10h-321q-8 0 -11 -8l-94 -535q0 -10 -12 -10h-226q-8 0 -8 10l252 1422q0 10 12 10h601q176 0 280 -130t72 -315q-20 -125 -100 -228t-191 -161q-4 -4 -2 -8l158 -586q4 -14 -15 -14z" />
    <glyph glyph-name="rcaron" unicode="&#x159;" horiz-adv-x="835" 
d="M614 1442h164q16 0 8 -15l-163 -262q-10 -14 -23 -14h-227q-18 0 -19 14l-67 262q-2 7 2 11t10 4h164q8 0 8 -6l39 -97q6 -18 20 0l72 97q6 6 12 6zM659 821q-113 1 -181 -65t-83 -166l-102 -580q-4 -10 -12 -10h-228q-10 0 -6 10l178 1016q4 10 11 10h196q14 0 19 -12
l10 -61q4 -16 16 -5q119 98 246 99h113q8 0 8 -10l-39 -216q0 -10 -12 -10h-134z" />
    <glyph glyph-name="Sacute" unicode="&#x15a;" horiz-adv-x="1320" 
d="M836 1556h-179q-18 0 -8 15l158 262q4 14 22 14h240q16 0 8 -14l-217 -262q-14 -15 -24 -15zM313 406q12 0 9 -11q-12 -76 66 -133t206 -57q127 0 223 62q95 61 111 145t-49 139q-66 55 -211 67q-268 25 -392 119q-123 94 -88 293t208 316q173 116 383 116t344 -112
t102 -303q-4 -10 -11 -11h-237q-12 0 -8 11q14 72 -49 131t-176 59t-198 -59q-86 -58 -100 -142t59 -120t183 -49t162 -22q53 -9 135 -40t125 -74q42 -43 68 -123t8 -186q-35 -203 -205 -323q-171 -119 -439 -119t-386 124t-90 291q4 10 12 11h235z" />
    <glyph glyph-name="sacute" unicode="&#x15b;" horiz-adv-x="1118" 
d="M676 1151h-178q-18 0 -9 14l158 262q4 14 23 15h239q16 0 9 -15l-218 -262q-14 -14 -24 -14zM460 -20q-214 0 -320 106q-105 106 -81 254q4 10 13 10h235q12 0 8 -10q-8 -55 39 -95t150 -40q209 0 229 117q6 12 1 23t-6 21t-13 15q-13 6 -19 11q-20 15 -66 20
q-46 4 -64 6t-60 6q-214 20 -300 96q-34 31 -52 87t-4 130q23 135 158 228q136 92 331 92t303 -93t76 -268q0 -10 -10 -10h-230q-8 0 -8 10q10 52 -32 94t-137 42t-147 -28q-52 -26 -58 -58t8 -53q13 -21 63 -30q49 -9 169 -25t181 -38q199 -69 162 -278q-29 -162 -167 -252
t-352 -90z" />
    <glyph glyph-name="Scircumflex" unicode="&#x15c;" horiz-adv-x="1320" 
d="M1016 1556h-164q-8 0 -10 7l-37 96q-10 18 -21 0l-73 -96q-2 -6 -11 -7h-163q-18 0 -9 15l162 262q4 14 23 14h227q14 0 18 -14l70 -262q4 -15 -12 -15zM313 406q12 0 9 -11q-12 -76 66 -133t206 -57q127 0 223 62q95 61 111 145t-49 139q-66 55 -211 67
q-268 25 -392 119q-123 94 -88 293t208 316q173 116 383 116t344 -112t102 -303q-4 -10 -11 -11h-237q-12 0 -8 11q14 72 -49 131t-176 59t-198 -59q-86 -58 -100 -142t59 -120t183 -49t162 -22q53 -9 135 -40t125 -74q42 -43 68 -123t8 -186q-35 -203 -205 -323
q-171 -119 -439 -119t-386 124t-90 291q4 10 12 11h235z" />
    <glyph glyph-name="scircumflex" unicode="&#x15d;" horiz-adv-x="1118" 
d="M907 1151h-164q-6 0 -10 6l-37 96q-10 18 -20 0l-74 -96q-4 -6 -10 -6h-164q-18 0 -8 14l162 262q4 14 22 15h227q14 0 19 -15l70 -262q3 -14 -13 -14zM460 -20q-214 0 -320 106q-105 106 -81 254q4 10 13 10h235q12 0 8 -10q-8 -55 39 -95t150 -40q209 0 229 117
q6 12 1 23t-6 21t-13 15q-13 6 -19 11q-20 15 -66 20q-46 4 -64 6t-60 6q-214 20 -300 96q-34 31 -52 87t-4 130q23 135 158 228q136 92 331 92t303 -93t76 -268q0 -10 -10 -10h-230q-8 0 -8 10q10 52 -32 94t-137 42t-147 -28q-52 -26 -58 -58t8 -53q13 -21 63 -30
q49 -9 169 -25t181 -38q199 -69 162 -278q-29 -162 -167 -252t-352 -90z" />
    <glyph glyph-name="Scedilla" unicode="&#x15e;" horiz-adv-x="1320" 
d="M332 406q12 0 8 -11q-12 -76 67 -133t205 -57t224 62q96 61 110 145t-50 139q-65 55 -212 67q-266 25 -389 119t-88 293t208 316q173 116 383 116t344 -112t99 -303q0 -10 -10 -11h-238q-8 0 -8 11q14 72 -48 131q-63 59 -175 59t-198 -59t-99 -130q-12 -71 30 -108
t96 -51q54 -15 139 -25t138 -19q54 -9 136 -40t124 -74t69 -123q26 -80 7 -186q-35 -184 -179 -301t-363 -137l-54 -78q-8 -12 6 -15q62 -4 106 -41q44 -36 31 -112t-78 -120t-156 -44t-145 46t-42 120q0 10 12 10h102q8 0 9 -10q-4 -26 16 -48t57 -22t67 20t36 50
q14 80 -78 80q-37 0 -43 6l-31 31q-10 12 2 24l62 86q4 4 2 9t-11 6h-10q-254 12 -360 134t-78 279q4 10 12 11h236z" />
    <glyph glyph-name="scedilla" unicode="&#x15f;" horiz-adv-x="1118" 
d="M90 350h236q12 0 8 -10q-8 -55 39 -95t149 -40q209 0 230 117q8 54 -40 72q-48 17 -76 19q-28 3 -48 5t-64 6t-92 12q-49 8 -111 31t-97 53q-34 31 -52 87t-6 130q25 135 161 227q137 92 331 93q194 0 300 -93t78 -268q-4 -10 -10 -10h-229q-12 0 -9 10q10 51 -31 94
q-41 42 -137 42t-148 -28q-52 -26 -58 -58t8 -52t63 -31q50 -9 170 -25t181 -38q199 -70 161 -278q-27 -147 -140 -236q-114 -88 -294 -102q-8 -2 -12 -9l-47 -69q-8 -12 6 -15q61 -4 105 -41q44 -36 31 -112t-79 -120t-157 -44t-144 46t-41 120q0 10 11 10h102q10 0 8 -18
t18 -40t58 -22q36 0 66 20t36 50q12 80 -80 80q-35 0 -41 6l-30 31q-12 10 2 24l59 84q2 2 0 8t-10 7q-190 0 -281 109q-90 110 -65 251q4 10 12 10z" />
    <glyph glyph-name="Scaron" unicode="&#x160;" horiz-adv-x="1212" 
d="M862 1847h164q14 0 8 -14l-164 -262q-10 -14 -22 -15h-227q-18 0 -19 15l-67 262q-6 14 12 14h164q8 0 8 -6l39 -96q6 -18 20 0l72 96q6 6 12 6zM246 406q12 0 8 -11q-12 -76 67 -133t205 -57t224 62q96 61 111 145t-50 139q-66 55 -211 67q-268 25 -391 119t-88 293
t208 316q173 116 383 116t344 -112t101 -303q-4 -10 -10 -11h-238q-12 0 -8 11q14 72 -49 131q-64 59 -176 59t-198 -59q-86 -58 -99 -142t59 -120t182 -49t162 -22q54 -9 136 -40t124 -74t68 -123t8 -186q-35 -203 -205 -323q-171 -119 -439 -119t-386 124t-90 291
q4 10 12 11h236z" />
    <glyph glyph-name="scaron" unicode="&#x161;" horiz-adv-x="1112" 
d="M803 1442h164q16 0 8 -15l-164 -262q-10 -14 -23 -14h-227q-18 0 -18 14l-68 262q-2 7 2 11t10 4h164q8 0 8 -6l39 -97q6 -18 21 0l72 97q6 6 12 6zM462 -20q-214 0 -320 106q-105 106 -81 254q4 10 13 10h235q12 0 8 -10q-8 -55 39 -95t150 -40q209 0 229 117q6 12 1 23
t-6 21t-13 15q-13 6 -19 11q-20 15 -66 20q-46 4 -64 6t-60 6q-214 20 -300 96q-34 31 -52 87t-4 130q23 135 158 228q136 92 331 92t303 -93t76 -268q0 -10 -10 -10h-230q-8 0 -8 10q10 52 -32 94t-137 42t-147 -28q-52 -26 -58 -58t8 -53q13 -21 63 -30q49 -9 169 -25
t181 -38q199 -69 162 -278q-29 -162 -167 -252t-352 -90z" />
    <glyph glyph-name="uni0162" unicode="&#x162;" horiz-adv-x="1200" 
d="M618 0h-225q-8 0 -8 10l211 1196q4 10 -8 11h-379q-8 0 -8 10l37 205q0 10 12 10h1024q8 0 8 -10l-37 -205q0 -10 -12 -10h-379q-8 -1 -12 -11l-211 -1196q0 -10 -13 -10zM516 -274h-86q-8 0 -8 10l24 141q4 10 13 10h184q12 0 8 -10l-24 -145q-13 -70 -53 -107t-76 -44
t-95 -7q-8 0 -8 10l11 60q4 10 12 10q96 0 108 61q0 11 -10 11z" />
    <glyph glyph-name="uni0163" unicode="&#x163;" horiz-adv-x="819" 
d="M313 821h-168q-10 0 -10 10l35 195q4 10 12 10h168q8 0 12 11l50 276q0 10 12 10h225q8 0 8 -10l-49 -276q-4 -10 8 -11h209q12 0 9 -10l-35 -195q0 -10 -11 -10h-208q-12 0 -13 -10l-92 -520q-6 -31 11 -48t51 -18h145q12 0 8 -10l-35 -205q-4 -10 -12 -10h-160
q-162 0 -221 68t-33 221l93 522q-1 10 -9 10zM434 -274h-86q-8 0 -8 10l25 141q4 10 12 10h184q12 0 8 -10l-24 -145q-12 -70 -52 -107t-77 -44t-94 -7q-8 0 -9 10l11 60q4 10 12 10q96 0 108 61q0 11 -10 11z" />
    <glyph glyph-name="Tcaron" unicode="&#x164;" horiz-adv-x="1200" 
d="M897 1847h164q16 0 8 -14l-164 -262q-10 -14 -22 -15h-228q-18 0 -18 15l-68 262q-5 14 13 14h163q8 0 9 -6l39 -96q6 -18 20 0l72 96q6 6 12 6zM596 0h-225q-8 0 -9 10l211 1196q4 10 -8 11h-379q-8 0 -8 10l37 205q0 10 12 10h1024q8 0 9 -10l-37 -205q0 -10 -13 -10
h-379q-8 -1 -12 -11l-211 -1196q0 -10 -12 -10z" />
    <glyph glyph-name="tcaron" unicode="&#x165;" horiz-adv-x="798" 
d="M178 821h-168q-10 0 -10 10l35 195q4 10 12 10h168q8 0 12 11l49 276q0 10 13 10h225q8 0 8 -10l-49 -276q-4 -10 8 -11h209q12 0 8 -10l-34 -195q0 -10 -11 -10h-209q-12 0 -12 -10l-92 -520q-6 -31 11 -48t50 -18h146q12 0 8 -10l-35 -205q-4 -10 -12 -10h-160
q-162 0 -221 68t-33 221l92 522q0 10 -8 10zM729 1282h-86q-10 0 -10 10l26 142q0 10 11 10h184q10 0 10 -10l-26 -146q-12 -70 -52 -106t-78 -44q-36 -7 -94 -8q-8 0 -8 11l10 59q4 10 13 10q96 0 108 62q0 10 -8 10z" />
    <glyph glyph-name="Tbar" unicode="&#x166;" horiz-adv-x="1200" 
d="M195 1217q-8 0 -9 10l37 205q0 10 13 10h1005q8 0 8 -10l-37 -205q0 -10 -12 -10h-369q-8 0 -12 -11l-26 -159q-4 -10 8 -11h293q8 0 8 -10l-27 -143q0 -10 -10 -11h-293q-12 0 -12 -10l-152 -852q0 -10 -12 -10h-225q-8 0 -9 10l152 852q0 10 -8 10h-295q-10 0 -10 11
l26 143q0 10 13 10h295q8 1 12 11l26 161q0 8 -8 9h-370z" />
    <glyph glyph-name="tbar" unicode="&#x167;" horiz-adv-x="819" 
d="M657 223q12 0 9 -10l-35 -203q-4 -10 -13 -10h-141q-137 -4 -220 59t-60 183l34 202q4 10 -8 11h-164q-12 0 -8 10l23 133q4 10 12 10h164q12 0 12 10l35 193q0 10 -8 10h-164q-10 0 -10 10l35 195q4 10 12 10h164q8 0 12 11l49 276q0 10 12 10h230q8 0 8 -10l-49 -276
q-4 -10 8 -11h205q12 0 8 -10l-35 -195q0 -10 -10 -10h-205q-12 0 -12 -10l-35 -193q0 -10 8 -10h185q12 0 8 -10l-23 -133q-4 -10 -12 -10h-184q-9 -1 -13 -11l-20 -118q-20 -102 92 -103h104z" />
    <glyph glyph-name="Utilde" unicode="&#x168;" horiz-adv-x="1341" 
d="M756 1847q80 0 162 -70q28 -24 42 -24t24 2q10 1 28 21t26 61q4 10 13 10h143q12 0 8 -10l-12 -70q-12 -70 -78 -132t-186 -62q-62 0 -124 47t-78 47t-28 -2q-10 -2 -27 -21t-26 -61q0 -10 -12 -10h-144q-8 0 -8 10l13 68q12 72 77 134q66 62 187 62zM299 1442h225
q12 0 8 -10l-163 -932q-19 -113 47 -194t180 -81t210 81q95 81 116 194l163 932q4 10 13 10h225q12 0 8 -10l-164 -932q-39 -217 -218 -369q-179 -151 -396 -151t-343 152t-87 368l164 932q4 10 12 10z" />
    <glyph glyph-name="utilde" unicode="&#x169;" horiz-adv-x="1202" 
d="M924 1442h143q10 0 10 -10l-12 -70q-12 -70 -78 -132t-186 -63q-61 0 -123 47q-62 48 -80 48q-16 0 -26 -2t-29 -22q-18 -20 -25 -60q-4 -10 -12 -11h-144q-12 1 -8 11l13 67q12 72 76 134q65 62 186 63q79 0 162 -71q27 -23 39 -23t20 1q48 6 63 83q0 10 11 10z
M215 1036h225q12 0 9 -10l-99 -559q-18 -104 25 -183t155 -79q112 -1 182 69q69 70 87 172l102 580q4 10 12 10h228q10 0 6 -10l-178 -1016q-4 -10 -13 -10h-194q-16 0 -19 12l-10 62q-4 20 -22 2q-43 -37 -111 -67t-129 -29q-164 0 -257 68q-92 68 -110 178q-18 108 0 241
l99 559q4 10 12 10z" />
    <glyph glyph-name="Umacron" unicode="&#x16a;" horiz-adv-x="1341" 
d="M1106 1577h-545q-6 0 -6 10l27 144q0 10 10 10h545q8 0 8 -10l-27 -144q0 -10 -12 -10zM299 1442h225q12 0 8 -10l-163 -932q-19 -113 47 -194t180 -81t210 81q95 81 116 194l163 932q4 10 13 10h225q12 0 8 -10l-164 -932q-39 -217 -218 -369q-179 -151 -396 -151
t-343 152t-87 368l164 932q4 10 12 10z" />
    <glyph glyph-name="umacron" unicode="&#x16b;" horiz-adv-x="1202" 
d="M967 1171h-545q-6 0 -6 11l26 143q0 10 11 10h544q8 0 9 -10l-27 -143q0 -11 -12 -11zM215 1036h225q12 0 9 -10l-99 -559q-18 -104 25 -183t155 -79q112 -1 182 69q69 70 87 172l102 580q4 10 12 10h228q10 0 6 -10l-178 -1016q-4 -10 -13 -10h-194q-16 0 -19 12l-10 62
q-4 20 -22 2q-43 -37 -111 -67t-129 -29q-164 0 -257 68q-92 68 -110 178q-18 108 0 241l99 559q4 10 12 10z" />
    <glyph glyph-name="Ubreve" unicode="&#x16c;" horiz-adv-x="1341" 
d="M814 1556q-128 0 -192 77t-44 204q4 10 12 10h158q12 0 8 -10q-6 -39 18 -73t71 -34q48 0 82 34t40 73q4 10 12 10h160l8 -10q-21 -127 -113 -204t-220 -77zM299 1442h225q12 0 8 -10l-163 -932q-19 -113 47 -194t180 -81t210 81q95 81 116 194l163 932q4 10 13 10h225
q12 0 8 -10l-164 -932q-39 -217 -218 -369q-179 -151 -396 -151t-343 152t-87 368l164 932q4 10 12 10z" />
    <glyph glyph-name="ubreve" unicode="&#x16d;" horiz-adv-x="1202" 
d="M709 1151q-127 0 -193 77t-43 204q0 10 12 10h158q8 0 8 -10q-6 -39 18 -73q23 -34 71 -34t82 34t40 73q0 10 12 10h160l8 -10q-22 -127 -114 -204t-219 -77zM215 1036h225q12 0 9 -10l-99 -559q-18 -104 25 -183t155 -79q112 -1 182 69q69 70 87 172l102 580q4 10 12 10
h228q10 0 6 -10l-178 -1016q-4 -10 -13 -10h-194q-16 0 -19 12l-10 62q-4 20 -22 2q-43 -37 -111 -67t-129 -29q-164 0 -257 68q-92 68 -110 178q-18 108 0 241l99 559q4 10 12 10z" />
    <glyph glyph-name="Uring" unicode="&#x16e;" horiz-adv-x="1341" 
d="M854 1774q-34 0 -64 -26t-36 -60t14 -61q20 -25 55 -25t66 26t37 60t-16 60t-56 26zM870 1868q74 0 118 -53t31 -127t-75 -126t-137 -52q-74 0 -117 52t-28 126q12 74 73 127t135 53zM299 1442h225q12 0 8 -10l-163 -932q-19 -113 47 -194t180 -81t210 81q95 81 116 194
l163 932q4 10 13 10h225q12 0 8 -10l-164 -932q-39 -217 -218 -369q-179 -151 -396 -151t-343 152t-87 368l164 932q4 10 12 10z" />
    <glyph glyph-name="uring" unicode="&#x16f;" horiz-adv-x="1202" 
d="M726 1368q-34 0 -64 -26t-35 -60q-6 -34 14 -60t55 -26t66 26t37 60t-16 60q-23 26 -57 26zM680 1104q-74 0 -117 52t-28 126q12 74 73 127t135 53t118 -53t31 -127q-14 -74 -76 -126t-136 -52zM215 1036h225q12 0 9 -10l-99 -559q-18 -104 25 -183t155 -79
q112 -1 182 69q69 70 87 172l102 580q4 10 12 10h228q10 0 6 -10l-178 -1016q-4 -10 -13 -10h-194q-16 0 -19 12l-10 62q-4 20 -22 2q-43 -37 -111 -67t-129 -29q-164 0 -257 68q-92 68 -110 178q-18 108 0 241l99 559q4 10 12 10z" />
    <glyph glyph-name="Uhungarumlaut" unicode="&#x170;" horiz-adv-x="1341" 
d="M1149 1556h-264q-10 0 -6 11l106 270q0 10 14 10h265q6 0 6 -10l-107 -270q-4 -11 -14 -11zM698 1556h-264q-10 0 -6 11l107 270q0 10 14 10h264q6 0 6 -10l-106 -270q-5 -11 -15 -11zM299 1442h225q12 0 8 -10l-163 -932q-19 -113 47 -194t180 -81t210 81q95 81 116 194
l163 932q4 10 13 10h225q12 0 8 -10l-164 -932q-39 -217 -218 -369q-179 -151 -396 -151t-343 152t-87 368l164 932q4 10 12 10z" />
    <glyph glyph-name="uhungarumlaut" unicode="&#x171;" horiz-adv-x="1202" 
d="M1014 1151h-264q-10 0 -7 10l107 271q0 10 14 10h264q6 0 7 -10l-107 -271q-4 -10 -14 -10zM563 1151h-264q-10 0 -6 10l106 271q0 10 15 10h264q6 0 6 -10l-106 -271q-5 -10 -15 -10zM215 1036h225q12 0 9 -10l-99 -559q-18 -104 25 -183t155 -79q112 -1 182 69
q69 70 87 172l102 580q4 10 12 10h228q10 0 6 -10l-178 -1016q-4 -10 -13 -10h-194q-16 0 -19 12l-10 62q-4 20 -22 2q-43 -37 -111 -67t-129 -29q-164 0 -257 68q-92 68 -110 178q-18 108 0 241l99 559q4 10 12 10z" />
    <glyph glyph-name="Uogonek" unicode="&#x172;" horiz-adv-x="1341" 
d="M862 -231q12 0 8 -11l-26 -153q0 -10 -13 -11h-90q-115 0 -173 58t-45 152q13 93 91 159q15 15 -6 19q-14 -2 -39 -2q-217 0 -343 152t-87 368l164 932q4 10 12 10h226q12 0 8 -10l-164 -932q-21 -113 47 -194t182 -81t209 81q94 81 115 194l164 932q4 10 12 10h225
q13 0 9 -10l-164 -932q-25 -137 -113 -255q-89 -119 -191 -177t-134 -97t-40 -94t24 -82q34 -27 104 -26h28z" />
    <glyph glyph-name="uogonek" unicode="&#x173;" horiz-adv-x="1202" 
d="M231 1036h226q12 0 8 -10l-98 -559q-19 -104 25 -183t157 -79q113 -1 181 69t85 172l103 580q4 10 12 10h227q10 0 6 -10l-178 -1016q-4 -10 -12 -10h-35q-58 0 -106 -35t-58 -89t25 -81t104 -26h29q12 0 8 -11l-27 -153q-4 -10 -12 -11h-90q-121 0 -177 54t-42 149
q23 137 160 195q8 4 8 20l-10 62q-5 20 -23 2q-41 -37 -110 -67t-130 -29q-164 0 -257 68t-110 178q-17 108 1 241l98 559q4 10 12 10z" />
    <glyph glyph-name="Wcircumflex" unicode="&#x174;" horiz-adv-x="2113" 
d="M1475 1556h-164q-8 0 -11 7l-36 96q-10 18 -21 0l-74 -96q-2 -6 -10 -7h-164q-18 0 -8 15l162 262q4 14 22 14h228q14 0 18 -14l70 -262q4 -15 -12 -15zM1903 1442h249q16 0 7 -15l-533 -1417q-4 -10 -14 -10h-393q-8 0 -11 10l-30 1182q0 8 -10 8t-13 -8l-448 -1182
q-4 -10 -13 -10h-395q-8 0 -10 10l-33 1417q0 14 14 15h250q8 0 10 -10l2 -1180q0 -8 8 -8t13 8l446 1180q2 10 15 10h395q8 0 10 -10l31 -1180q0 -13 13 -8q5 2 7 8l418 1180q2 10 15 10z" />
    <glyph glyph-name="wcircumflex" unicode="&#x175;" horiz-adv-x="1753" 
d="M1204 1151h-164q-8 0 -10 6l-37 96q-10 18 -20 0l-74 -96q-2 -6 -10 -6h-164q-18 0 -8 14l162 262q4 14 22 15h227q14 0 19 -15l70 -262q3 -14 -13 -14zM1513 1036h230q14 0 8 -12l-416 -1014q-4 -10 -14 -10h-350q-6 0 -10 10l-41 793q0 14 -14 8q-5 -2 -7 -8l-319 -793
q-4 -10 -15 -10h-350q-6 0 -10 10l-60 1014q0 12 11 12h229q12 0 12 -12l25 -791q0 -13 13 -8q5 2 7 8l328 791q8 12 16 12h328q12 0 12 -12l50 -791q0 -8 8 -8t12 8l303 791q8 12 14 12z" />
    <glyph glyph-name="Ycircumflex" unicode="&#x176;" horiz-adv-x="1421" 
d="M1108 1556h-164q-6 0 -10 7l-37 96q-10 18 -20 0l-74 -96q-4 -6 -10 -7h-164q-18 0 -8 15l161 262q4 14 23 14h227q14 0 19 -14l69 -262q4 -15 -12 -15zM483 0q-8 0 -8 10l103 578q0 10 -3 14l-344 823q-4 16 13 17h268q8 0 12 -10l213 -584q8 -12 17 0l424 584
q6 10 18 10h266q16 0 4 -17l-637 -823q-6 -8 -6 -14l-102 -578q0 -10 -12 -10h-226z" />
    <glyph glyph-name="ycircumflex" unicode="&#x177;" horiz-adv-x="1204" 
d="M954 1151h-163q-8 0 -11 6l-37 96q-10 18 -20 0l-74 -96q-2 -6 -10 -6h-164q-18 0 -8 14l162 262q4 14 22 15h228q14 0 18 -15l70 -262q3 -14 -13 -14zM991 1036h238q14 0 8 -10l-600 -1173q-70 -133 -159 -195t-218 -64h-299q-12 0 -8 11l33 192q4 10 12 10h248
q90 -1 110 53t6 150l-163 1016q0 10 12 10h240q10 0 10 -10l108 -793q1 -8 9 -8t12 8l387 793q6 10 14 10z" />
    <glyph glyph-name="Ydieresis" unicode="&#x178;" horiz-adv-x="1421" 
d="M1245 1556h-264q-12 0 -8 11l47 270q0 10 12 10h264q8 0 9 -10l-48 -270q-4 -11 -12 -11zM795 1556h-265q-12 0 -8 11l47 270q0 10 13 10h264q8 0 8 -10l-47 -270q-4 -11 -12 -11zM483 0q-8 0 -8 10l103 578q0 10 -3 14l-344 823q-4 16 13 17h268q8 0 12 -10l213 -584
q8 -12 17 0l424 584q6 10 18 10h266q16 0 4 -17l-637 -823q-6 -8 -6 -14l-102 -578q0 -10 -12 -10h-226z" />
    <glyph glyph-name="Zacute" unicode="&#x179;" horiz-adv-x="1212" 
d="M762 1556h-178q-18 0 -9 15l158 262q4 14 23 14h239q16 0 9 -14l-218 -262q-14 -15 -24 -15zM995 0h-1018q-8 0 -8 10l33 191q2 12 14 24l875 975q4 4 2 10t-8 7h-695q-8 0 -8 10l37 205q0 10 10 10h1022q8 0 9 -10l-35 -195q-4 -14 -11 -20l-878 -975q-4 -4 -2 -10t8 -7
h694q12 0 8 -10l-36 -205q-1 -10 -13 -10z" />
    <glyph glyph-name="zacute" unicode="&#x17a;" horiz-adv-x="1026" 
d="M690 1151h-178q-18 0 -8 14l158 262q4 14 22 15h240q14 0 8 -15l-217 -262q-15 -14 -25 -14zM866 0h-815q-8 0 -8 10l35 197q4 12 12 18l594 570q4 4 3 10t-9 6h-463q-12 0 -8 10l37 205q0 10 10 10h770q10 0 10 -10l-37 -203q0 -4 -6 -10l-592 -571q-4 -4 -3 -10t10 -7
h501q8 0 8 -10l-36 -205q-1 -10 -13 -10z" />
    <glyph glyph-name="Zdotaccent" unicode="&#x17b;" horiz-adv-x="1212" 
d="M870 1556h-264q-8 0 -8 11l47 270q4 10 12 10h265q12 0 8 -10l-47 -270q-1 -11 -13 -11zM995 0h-1018q-8 0 -8 10l33 191q2 12 14 24l875 975q4 4 2 10t-8 7h-695q-8 0 -8 10l37 205q0 10 10 10h1022q8 0 9 -10l-35 -195q-4 -14 -11 -20l-878 -975q-4 -4 -2 -10t8 -7h694
q12 0 8 -10l-36 -205q-1 -10 -13 -10z" />
    <glyph glyph-name="zdotaccent" unicode="&#x17c;" horiz-adv-x="1026" 
d="M774 1151h-264q-12 0 -8 10l47 271q0 10 12 10h264q8 0 9 -10l-48 -271q-4 -10 -12 -10zM866 0h-815q-8 0 -8 10l35 197q4 12 12 18l594 570q4 4 3 10t-9 6h-463q-12 0 -8 10l37 205q0 10 10 10h770q10 0 10 -10l-37 -203q0 -4 -6 -10l-592 -571q-4 -4 -3 -10t10 -7h501
q8 0 8 -10l-36 -205q-1 -10 -13 -10z" />
    <glyph glyph-name="Zcaron" unicode="&#x17d;" horiz-adv-x="1212" 
d="M903 1847h164q14 0 8 -14l-164 -262q-10 -14 -22 -15h-227q-18 0 -19 15l-68 262q-6 14 13 14h164q8 0 8 -6l39 -96q6 -18 20 0l72 96q6 6 12 6zM995 0h-1018q-8 0 -8 10l33 191q2 12 14 24l875 975q4 4 2 10t-8 7h-695q-8 0 -8 10l37 205q0 10 10 10h1022q8 0 9 -10
l-35 -195q-4 -14 -11 -20l-878 -975q-4 -4 -2 -10t8 -7h694q12 0 8 -10l-36 -205q-1 -10 -13 -10z" />
    <glyph glyph-name="zcaron" unicode="&#x17e;" horiz-adv-x="1026" 
d="M799 1442h164q16 0 8 -15l-164 -262q-10 -14 -23 -14h-227q-18 0 -18 14l-68 262q-2 7 2 11t10 4h164q8 0 8 -6l39 -97q6 -18 21 0l71 97q7 6 13 6zM866 0h-815q-8 0 -8 10l35 197q4 12 12 18l594 570q4 4 3 10t-9 6h-463q-12 0 -8 10l37 205q0 10 10 10h770q10 0 10 -10
l-37 -203q0 -4 -6 -10l-592 -571q-4 -4 -3 -10t10 -7h501q8 0 8 -10l-36 -205q-1 -10 -13 -10z" />
    <glyph glyph-name="longs" unicode="&#x17f;" horiz-adv-x="731" 
d="M156 1036h168q10 0 10 8l20 109q25 141 121 216t236 73h161q6 0 7 -10l-37 -205q0 -10 -13 -10h-145q-32 1 -56 -17t-28 -49l-203 -1141q0 -10 -12 -10h-225q-8 0 -8 10l141 801q4 10 -8 10h-168q-8 0 -8 10l34 195q1 10 13 10z" />
    <glyph glyph-name="florin" unicode="&#x192;" horiz-adv-x="1116" 
d="M438 1036h168q12 0 12 8l41 109q51 141 163 216t249 73h162q4 0 5 -4t-1 -6l-74 -205q-6 -10 -14 -10h-145q-33 1 -61 -17t-38 -49l-41 -107q0 -8 8 -8h209q8 0 9 -10l-74 -195q-4 -10 -15 -10h-208q-4 0 -9 -4l-348 -934q-104 -293 -407 -289h-158q-2 0 -4 4t0 7l76 205
q4 10 14 10h139q29 -4 58 15t36 50l342 926q6 10 -6 10h-168q-10 0 -6 10l74 195q0 10 12 10z" />
    <glyph glyph-name="uni0218" unicode="&#x218;" horiz-adv-x="1320" 
d="M518 -274h-86q-10 0 -10 10l27 141q0 10 10 10h184q10 0 10 -10l-26 -145q-11 -70 -51 -107t-76 -44t-94 -7q-10 0 -11 10l13 60q0 10 10 10q96 0 108 61q0 11 -8 11zM332 406q12 0 8 -11q-12 -76 67 -133t205 -57t224 62q96 61 110 145t-50 139q-65 55 -212 67
q-266 25 -389 119t-88 293t208 316q173 116 383 116t344 -112t99 -303q0 -10 -10 -11h-238q-8 0 -8 11q14 72 -48 131q-63 59 -175 59t-198 -59t-99 -130q-12 -71 30 -108t96 -51q54 -15 139 -25t138 -19q54 -9 136 -40t124 -74t68 -123t8 -186q-37 -203 -207 -323
q-171 -119 -439 -119t-386 124t-88 291q4 10 12 11h236z" />
    <glyph glyph-name="uni0219" unicode="&#x219;" horiz-adv-x="1118" 
d="M428 -274h-86q-8 0 -8 10l24 141q4 10 13 10h184q12 0 8 -10l-24 -145q-13 -70 -53 -107t-76 -44t-95 -7q-8 0 -8 10l10 60q4 10 13 10q96 0 106 61q4 11 -8 11zM478 -20q-214 0 -320 106t-80 254q4 10 12 10h236q12 0 8 -10q-8 -55 39 -95t149 -40q209 0 230 117
q8 54 -40 72q-48 17 -76 19q-28 3 -48 5t-64 6t-92 12q-49 8 -111 31t-97 53q-34 31 -52 87t-6 130q25 135 161 227q137 92 331 93q194 0 300 -93t78 -268q-4 -10 -10 -10h-229q-12 0 -9 10q10 51 -31 94q-41 42 -137 42t-148 -28q-52 -26 -58 -58t8 -52t63 -31
q50 -9 170 -25t181 -38q198 -69 161 -278q-29 -162 -167 -252t-352 -90z" />
    <glyph glyph-name="uni021A" unicode="&#x21a;" horiz-adv-x="1200" 
d="M618 0h-225q-8 0 -8 10l211 1196q4 10 -8 11h-379q-8 0 -8 10l37 205q0 10 12 10h1024q8 0 8 -10l-37 -205q0 -10 -12 -10h-379q-8 -1 -12 -11l-211 -1196q0 -10 -13 -10zM434 -274h-86q-8 0 -8 10l25 141q4 10 12 10h184q12 0 8 -10l-24 -145q-12 -70 -52 -107t-77 -44
t-94 -7q-8 0 -9 10l11 60q4 10 12 10q96 0 108 61q0 11 -10 11z" />
    <glyph glyph-name="uni021B" unicode="&#x21b;" horiz-adv-x="819" 
d="M313 821h-168q-10 0 -10 10l35 195q4 10 12 10h168q8 0 12 11l50 276q0 10 12 10h225q8 0 8 -10l-49 -276q-4 -10 8 -11h209q12 0 9 -10l-35 -195q0 -10 -11 -10h-208q-12 0 -13 -10l-92 -520q-6 -31 11 -48t51 -18h145q12 0 8 -10l-35 -205q-4 -10 -12 -10h-160
q-162 0 -221 68t-33 221l93 522q-1 10 -9 10zM352 -274h-86q-8 0 -8 10l25 141q4 10 12 10h184q12 0 8 -10l-24 -145q-12 -70 -52 -107t-77 -44t-94 -7q-8 0 -9 10l11 60q4 10 12 10q96 0 108 61q0 11 -10 11z" />
    <glyph glyph-name="circumflex" unicode="&#x2c6;" horiz-adv-x="716" 
d="M645 1151h-164q-6 0 -10 6l-37 96q-10 18 -20 0l-74 -96q-4 -6 -10 -6h-164q-18 0 -8 14l161 262q4 14 23 15h227q14 0 19 -15l69 -262q4 -14 -12 -14z" />
    <glyph glyph-name="caron" unicode="&#x2c7;" horiz-adv-x="716" 
d="M532 1442h164q16 0 9 -15l-164 -262q-10 -14 -23 -14h-227q-18 0 -19 14l-67 262q-2 7 2 11t10 4h164q8 0 8 -6l39 -97q6 -18 21 0l71 97q6 6 12 6z" />
    <glyph glyph-name="uni02C9" unicode="&#x2c9;" horiz-adv-x="772" 
d="M711 1171h-545q-6 0 -6 11l26 143q0 10 11 10h544q8 0 9 -10l-27 -143q0 -11 -12 -11z" />
    <glyph glyph-name="breve" unicode="&#x2d8;" horiz-adv-x="786" 
d="M440 1151q-126 0 -192 77t-43 204q0 10 12 10h158q8 0 8 -10q-7 -39 17 -73t72 -34t82 34t40 73q0 10 12 10h160l8 -10q-23 -127 -115 -204t-219 -77z" />
    <glyph glyph-name="dotaccent" unicode="&#x2d9;" horiz-adv-x="567" 
d="M451 1151h-265q-12 0 -8 10l47 271q0 10 13 10h264q8 0 8 -10l-47 -271q-4 -10 -12 -10z" />
    <glyph glyph-name="ring" unicode="&#x2da;" horiz-adv-x="575" 
d="M362 1368q-34 0 -64 -26t-36 -60t14 -60t56 -26t66 26t36 60t-16 60t-56 26zM316 1104q-74 0 -118 52q-42 52 -28 126q12 74 74 127t135 53t117 -53t31 -127t-75 -126t-136 -52z" />
    <glyph glyph-name="ogonek" unicode="&#x2db;" horiz-adv-x="593" 
d="M389 20h53q8 0 9 -10q-4 -10 -13 -10h-12q-66 0 -116 -34t-60 -89t24 -82t105 -26h29q12 0 8 -11l-27 -153q-4 -10 -12 -11h-90q-121 0 -177 54t-41 153t100 159t220 60z" />
    <glyph glyph-name="tilde" unicode="&#x2dc;" horiz-adv-x="997" 
d="M770 1442h143q10 0 11 -10l-13 -70q-11 -70 -77 -132t-187 -63q-61 0 -123 47q-62 48 -80 48q-16 0 -26 -2t-28 -22t-25 -60q-4 -10 -13 -11h-143q-12 1 -8 11l12 67q12 72 77 134t185 63q79 0 162 -71q27 -23 40 -23q49 2 63 27q12 25 16 46t14 21z" />
    <glyph glyph-name="hungarumlaut" unicode="&#x2dd;" horiz-adv-x="940" 
d="M831 1151h-264q-10 0 -6 10l107 271q0 10 14 10h264q6 0 6 -10l-106 -271q-5 -10 -15 -10zM381 1151h-264q-10 0 -6 10l106 271q0 10 14 10h265q6 0 6 -10l-107 -271q-4 -10 -14 -10z" />
    <glyph glyph-name="uni0394" unicode="&#x394;" horiz-adv-x="1484" 
d="M997 225q16 0 13 15l-150 952q-2 8 -9 8t-11 -8l-492 -954q-8 -12 8 -13h641zM1217 0h-1162q-8 0 -8 10l33 180q2 12 14 31l631 1211q4 10 14 10h314q4 0 8 -10l199 -1211q0 -4 2 -14t0 -17l-33 -180q0 -10 -12 -10z" />
    <glyph glyph-name="uni03A9" unicode="&#x3a9;" horiz-adv-x="1118" 
d="M76 96l465 625l-246 625zM594 721l244 -623l219 1245q-373 -497 -463 -622zM94 49h709l-246 625zM575 768l465 627h-708zM858 0h-842q-8 0 -8 10l252 1422q0 10 12 10h842q8 0 8 -10l-252 -1422q0 -10 -12 -10z" />
    <glyph glyph-name="uni03BC" unicode="&#x3bc;" horiz-adv-x="1118" 
d="M76 96l465 625l-246 625zM594 721l244 -623l219 1245q-373 -497 -463 -622zM94 49h709l-246 625zM575 768l465 627h-708zM858 0h-842q-8 0 -8 10l252 1422q0 10 12 10h842q8 0 8 -10l-252 -1422q0 -10 -12 -10z" />
    <glyph glyph-name="pi" unicode="&#x3c0;" horiz-adv-x="1118" 
d="M76 96l465 625l-246 625zM594 721l244 -623l219 1245q-373 -497 -463 -622zM94 49h709l-246 625zM575 768l465 627h-708zM858 0h-842q-8 0 -8 10l252 1422q0 10 12 10h842q8 0 8 -10l-252 -1422q0 -10 -12 -10z" />
    <glyph glyph-name="Wgrave" unicode="&#x1e80;" horiz-adv-x="2113" 
d="M1356 1559h-178q-16 0 -21 14l-123 262q-6 14 13 14h239q14 0 19 -14l63 -262q4 -14 -12 -14zM1903 1442h249q16 0 7 -15l-533 -1417q-4 -10 -14 -10h-393q-8 0 -11 10l-30 1182q0 8 -10 8t-13 -8l-448 -1182q-4 -10 -13 -10h-395q-8 0 -10 10l-33 1417q0 14 14 15h250
q8 0 10 -10l2 -1180q0 -8 8 -8t13 8l446 1180q2 10 15 10h395q8 0 10 -10l31 -1180q0 -13 13 -8q5 2 7 8l418 1180q2 10 15 10z" />
    <glyph glyph-name="wgrave" unicode="&#x1e81;" horiz-adv-x="1753" 
d="M1073 1151h-178q-16 0 -21 14l-122 262q-6 14 12 15h240q14 0 18 -15l63 -262q4 -14 -12 -14zM1513 1036h230q14 0 8 -12l-416 -1014q-4 -10 -14 -10h-350q-6 0 -10 10l-41 793q0 14 -14 8q-5 -2 -7 -8l-319 -793q-4 -10 -15 -10h-350q-6 0 -10 10l-60 1014q0 12 11 12
h229q12 0 12 -12l25 -791q0 -13 13 -8q5 2 7 8l328 791q8 12 16 12h328q12 0 12 -12l50 -791q0 -8 8 -8t12 8l303 791q8 12 14 12z" />
    <glyph glyph-name="Wacute" unicode="&#x1e82;" horiz-adv-x="2113" 
d="M1274 1556h-178q-18 0 -9 15l158 262q4 14 23 14h239q16 0 9 -14l-218 -262q-14 -15 -24 -15zM1903 1442h249q16 0 7 -15l-533 -1417q-4 -10 -14 -10h-393q-8 0 -11 10l-30 1182q0 8 -10 8t-13 -8l-448 -1182q-4 -10 -13 -10h-395q-8 0 -10 10l-33 1417q0 14 14 15h250
q8 0 10 -10l2 -1180q0 -8 8 -8t13 8l446 1180q2 10 15 10h395q8 0 10 -10l31 -1180q0 -13 13 -8q5 2 7 8l418 1180q2 10 15 10z" />
    <glyph glyph-name="wacute" unicode="&#x1e83;" horiz-adv-x="1753" 
d="M1034 1151h-178q-18 0 -8 14l158 262q4 14 22 15h240q14 0 8 -15l-217 -262q-15 -14 -25 -14zM1513 1036h230q14 0 8 -12l-416 -1014q-4 -10 -14 -10h-350q-6 0 -10 10l-41 793q0 14 -14 8q-5 -2 -7 -8l-319 -793q-4 -10 -15 -10h-350q-6 0 -10 10l-60 1014q0 12 11 12
h229q12 0 12 -12l25 -791q0 -13 13 -8q5 2 7 8l328 791q8 12 16 12h328q12 0 12 -12l50 -791q0 -8 8 -8t12 8l303 791q8 12 14 12z" />
    <glyph glyph-name="Wdieresis" unicode="&#x1e84;" horiz-adv-x="2113" 
d="M1571 1556h-264q-12 0 -9 11l48 270q0 10 12 10h264q8 0 8 -10l-47 -270q-4 -11 -12 -11zM1120 1556h-264q-12 0 -8 11l47 270q0 10 12 10h264q8 0 9 -10l-47 -270q-5 -11 -13 -11zM1903 1442h249q16 0 7 -15l-533 -1417q-4 -10 -14 -10h-393q-8 0 -11 10l-30 1182
q0 8 -10 8t-13 -8l-448 -1182q-4 -10 -13 -10h-395q-8 0 -10 10l-33 1417q0 14 14 15h250q8 0 10 -10l2 -1180q0 -8 8 -8t13 8l446 1180q2 10 15 10h395q8 0 10 -10l31 -1180q0 -13 13 -8q5 2 7 8l418 1180q2 10 15 10z" />
    <glyph glyph-name="wdieresis" unicode="&#x1e85;" horiz-adv-x="1753" 
d="M1323 1151h-264q-12 0 -8 10l47 271q0 10 12 10h264q8 0 8 -10l-47 -271q-4 -10 -12 -10zM872 1151h-264q-12 0 -8 10l47 271q0 10 12 10h265q8 0 8 -10l-47 -271q-5 -10 -13 -10zM1513 1036h230q14 0 8 -12l-416 -1014q-4 -10 -14 -10h-350q-6 0 -10 10l-41 793
q0 14 -14 8q-5 -2 -7 -8l-319 -793q-4 -10 -15 -10h-350q-6 0 -10 10l-60 1014q0 12 11 12h229q12 0 12 -12l25 -791q0 -13 13 -8q5 2 7 8l328 791q8 12 16 12h328q12 0 12 -12l50 -791q0 -8 8 -8t12 8l303 791q8 12 14 12z" />
    <glyph glyph-name="endash" unicode="&#x2013;" horiz-adv-x="1261" 
d="M1063 403h-918q-12 0 -8 11l37 204q0 10 10 11h918q10 0 10 -11l-37 -204q-4 -11 -12 -11z" />
    <glyph glyph-name="emdash" unicode="&#x2014;" horiz-adv-x="1794" 
d="M1595 403h-1450q-12 0 -8 11l37 204q0 10 10 11h1450q10 0 11 -11l-37 -204q-5 -11 -13 -11z" />
    <glyph glyph-name="quoteleft" unicode="&#x2018;" horiz-adv-x="524" 
d="M317 1153h89q12 0 8 -10l-56 -312q0 -10 -10 -10h-246q-10 0 -10 10l55 310q25 137 104 219t206 82q12 0 8 -10l-21 -113q0 -10 -10 -10q-47 0 -80 -38t-45 -108q-4 -10 8 -10z" />
    <glyph glyph-name="quoteright" unicode="&#x2019;" horiz-adv-x="524" 
d="M240 1110h-88q-8 0 -9 10l56 312q4 10 12 10h246q12 0 8 -10l-55 -310q-25 -137 -103 -219t-205 -82q-10 0 -10 10l21 113q4 10 12 10q47 0 80 38t45 108q0 10 -10 10z" />
    <glyph glyph-name="quotesinglbase" unicode="&#x201a;" horiz-adv-x="442" 
d="M143 0h-88q-12 0 -8 10l53 312q4 10 13 10h245q12 0 9 -10l-54 -310q-25 -137 -103 -219t-206 -82q-10 0 -6 10l16 113q4 10 13 10q47 0 79 38t46 108q-1 10 -9 10z" />
    <glyph glyph-name="quotedblleft" unicode="&#x201c;" horiz-adv-x="862" 
d="M317 1153h89q12 0 8 -10l-56 -312q0 -10 -10 -10h-246q-10 0 -10 10l55 310q25 137 104 219t206 82q12 0 8 -10l-21 -113q0 -10 -10 -10q-47 0 -80 -38t-45 -108q-4 -10 8 -10zM737 1153h88q12 0 9 -10l-56 -312q0 -10 -10 -10h-246q-10 0 -10 10l55 310q25 137 104 219
t206 82q12 0 8 -10l-21 -113q0 -10 -10 -10q-47 0 -80 -38t-45 -108q-4 -10 8 -10z" />
    <glyph glyph-name="quotedblright" unicode="&#x201d;" horiz-adv-x="862" 
d="M659 1110h-88q-8 0 -8 10l55 312q4 10 13 10h246q12 0 8 -10l-56 -310q-25 -137 -103 -219t-204 -82q-10 0 -10 10l20 113q4 10 13 10q47 0 80 38t45 108q-1 10 -11 10zM240 1110h-88q-8 0 -9 10l56 312q4 10 12 10h246q12 0 8 -10l-55 -310q-25 -137 -103 -219t-205 -82
q-10 0 -10 10l21 113q4 10 12 10q47 0 80 38t45 108q0 10 -10 10z" />
    <glyph glyph-name="quotedblbase" unicode="&#x201e;" horiz-adv-x="862" 
d="M563 0h-88q-12 0 -8 10l53 312q4 10 12 10h246q12 0 8 -10l-53 -310q-25 -137 -103 -219t-206 -82q-12 0 -8 10l18 113q4 10 12 10q47 0 80 38t45 108q0 10 -8 10zM143 0h-88q-12 0 -8 10l53 312q4 10 13 10h245q12 0 9 -10l-54 -310q-25 -137 -103 -219t-206 -82
q-10 0 -6 10l16 113q4 10 13 10q47 0 79 38t46 108q-1 10 -9 10z" />
    <glyph glyph-name="dagger" unicode="&#x2020;" horiz-adv-x="1376" 
d="M264 1036h385q12 0 13 11l69 387q0 10 12 10h205q8 0 8 -10l-69 -387q0 -10 8 -11h385q10 0 10 -10l-37 -203q0 -10 -12 -10h-385q-8 0 -12 -10l-211 -1198q0 -10 -12 -11h-205q-8 0 -8 11l210 1198q4 10 -8 10h-385q-8 0 -8 10l37 203q0 10 10 10z" />
    <glyph glyph-name="daggerdbl" unicode="&#x2021;" horiz-adv-x="1376" 
d="M121 223h385q12 0 12 10l100 570q4 10 -8 10h-385q-8 0 -8 10l37 203q0 10 10 10h385q12 0 13 11l69 387q0 10 12 10h205q8 0 8 -10l-69 -387q0 -10 8 -11h385q10 0 10 -10l-37 -203q0 -10 -12 -10h-385q-8 0 -12 -10l-101 -572q0 -8 9 -8h385q10 0 10 -10l-37 -203
q0 -10 -12 -10h-385q-10 0 -13 -8l-67 -387q0 -10 -12 -11h-205q-8 0 -8 11l67 385q4 10 -8 10h-385q-8 0 -8 10l37 203q0 10 10 10z" />
    <glyph glyph-name="bullet" unicode="&#x2022;" horiz-adv-x="1417" 
d="M808 1057q224 0 353 -158t90 -381t-224 -381q-185 -157 -409 -157t-355 156q-130 156 -89 382q41 225 225 382q185 157 409 157z" />
    <glyph glyph-name="ellipsis" unicode="&#x2026;" horiz-adv-x="1359" 
d="M1184 0h-305q-8 0 -9 10l56 312q4 10 12 10h305q12 0 8 -10l-55 -312q0 -10 -12 -10zM766 0h-305q-8 0 -8 10l55 312q4 10 12 10h305q12 0 9 -10l-56 -312q0 -10 -12 -10zM346 0h-305q-8 0 -8 10l55 312q4 10 12 10h306q12 0 8 -10l-56 -312q0 -10 -12 -10z" />
    <glyph glyph-name="perthousand" unicode="&#x2030;" horiz-adv-x="2430" 
d="M1380 1442h144q16 0 4 -17l-1122 -1421q-4 -4 -11 -4h-139q-16 0 -4 16l1118 1422q4 4 10 4zM1970 635q-143 0 -187 -252t99 -252t186 252q45 252 -98 252zM1855 -20q-297 0 -227 403q74 403 371 403t225 -403t-369 -403zM572 1311q-144 0 -188 -252t100 -252t188 252
t-100 252zM598 1462q297 0 225 -403t-366 -404q-299 -1 -227 403t368 404zM1294 635q-144 0 -187 -252q-45 -252 99 -252t187 252q45 252 -99 252zM1323 786q297 0 225 -403t-368 -403t-228 403q74 403 371 403z" />
    <glyph glyph-name="guilsinglleft" unicode="&#x2039;" horiz-adv-x="872" 
d="M674 0h-152q-8 0 -8 6l-346 504q-4 10 4 18l522 504q2 6 13 6h151q16 0 6 -14l-520 -496q-8 -8 -4 -18l346 -496q4 -14 -12 -14z" />
    <glyph glyph-name="guilsinglright" unicode="&#x203a;" horiz-adv-x="872" 
d="M268 1038h152q6 0 8 -6l346 -504q4 -10 -4 -18l-522 -504q-6 -6 -12 -6h-152q-12 0 -8 14l522 496q8 8 4 18l-348 496q0 14 14 14z" />
    <glyph glyph-name="fraction" unicode="&#x2044;" horiz-adv-x="1345" 
d="M1112 1442h131q16 0 4 -17l-1122 -1421q-4 -4 -10 -4h-125q-16 0 -4 16l1116 1422q4 4 10 4z" />
    <glyph glyph-name="franc" unicode="&#x20a3;" 
d="M76 96l465 625l-246 625zM594 721l244 -623l219 1245q-373 -497 -463 -622zM94 49h709l-246 625zM575 768l465 627h-708zM858 0h-842q-8 0 -8 10l252 1422q0 10 12 10h842q8 0 8 -10l-252 -1422q0 -10 -12 -10z" />
    <glyph glyph-name="lira" unicode="&#x20a4;" 
d="M76 96l465 625l-246 625zM594 721l244 -623l219 1245q-373 -497 -463 -622zM94 49h709l-246 625zM575 768l465 627h-708zM858 0h-842q-8 0 -8 10l252 1422q0 10 12 10h842q8 0 8 -10l-252 -1422q0 -10 -12 -10z" />
    <glyph glyph-name="peseta" unicode="&#x20a7;" 
d="M76 96l465 625l-246 625zM594 721l244 -623l219 1245q-373 -497 -463 -622zM94 49h709l-246 625zM575 768l465 627h-708zM858 0h-842q-8 0 -8 10l252 1422q0 10 12 10h842q8 0 8 -10l-252 -1422q0 -10 -12 -10z" />
    <glyph glyph-name="Euro" unicode="&#x20ac;" horiz-adv-x="1413" 
d="M319 815h-169q-12 0 -9 10l74 146q4 10 12 10h142q8 0 14 8q172 473 623 473q78 0 140 -18t90 -34t71 -50q8 -8 4 -19l-117 -233q-10 -14 -16 2q-18 49 -76 86t-135 39q-221 6 -324 -242q-6 -12 8 -12h465q12 0 8 -10l-71 -146q-4 -10 -17 -10h-438q-12 0 -12 -10
l-21 -98l-8 -48q0 -10 8 -10h383q12 0 8 -10l-71 -145q-6 -10 -17 -11h-315q-8 0 -12 -10q2 -133 58 -200t185 -66q90 0 184 63t167 162q4 6 11 5t5 -9l-51 -295q-4 -12 -17 -22q-156 -131 -358 -131q-457 0 -442 493q0 10 -13 10h-178q-12 0 -8 11l72 145q4 10 12 10h121
q12 0 12 10l27 146q0 10 -9 10z" />
    <glyph glyph-name="uni2113" unicode="&#x2113;" horiz-adv-x="1036" 
d="M748 1210q-54 0 -102 -39t-56 -96l-53 -303q-2 -6 4 -8t10 2l250 213q49 41 59 95t-23 95q-34 41 -89 41zM756 438h184q12 0 8 -10l-16 -90q-25 -141 -141 -240q-117 -98 -248 -98t-210 75t-83 191l-264 -225q-14 -10 -15 6l43 252q4 16 13 20l266 228l94 528
q25 139 141 238q117 98 255 98t219 -99t59 -237q-27 -141 -141 -237l-435 -371q-2 -2 -6 -10l-20 -119q-9 -57 23 -97t87 -40t103 40q47 40 55 97l16 90q5 10 13 10z" />
    <glyph glyph-name="trademark" unicode="&#x2122;" horiz-adv-x="1067" 
d="M481 1364h-92q-12 0 -12 -10l-55 -307q0 -10 -13 -11h-65q-8 0 -8 11l55 307q0 10 -8 10h-90q-10 0 -11 10l11 58q4 10 10 10h291q12 0 8 -10l-10 -58q-1 -10 -11 -10zM877 1442h139q12 0 8 -10l-68 -385q0 -10 -12 -11h-65q-8 0 -9 11l56 311q2 4 -2 4t-9 -4l-137 -311
q-4 -10 -14 -11h-113q-6 0 -10 11l-27 311q0 6 -4 5t-6 -5l-55 -311q0 -10 -12 -11h-66q-8 0 -8 11l67 385q4 10 13 10h139q10 0 10 -10l25 -314q2 -4 5 -4t5 4l135 314q6 10 15 10z" />
    <glyph glyph-name="Omega" unicode="&#x2126;" 
d="M76 96l465 625l-246 625zM594 721l244 -623l219 1245q-373 -497 -463 -622zM94 49h709l-246 625zM575 768l465 627h-708zM858 0h-842q-8 0 -8 10l252 1422q0 10 12 10h842q8 0 8 -10l-252 -1422q0 -10 -12 -10z" />
    <glyph glyph-name="estimated" unicode="&#x212e;" horiz-adv-x="1101" 
d="M643 975q-188 0 -340 -146l-51 -297q-4 -10 8 -10h608q8 0 13 10l51 299q-101 144 -289 144zM473 0q-186 0 -295 132t-76 319l19 104q33 186 188 319q156 134 341 134t295 -134t77 -319l-10 -57q-4 -10 -13 -11h-745q-12 0 -12 -10l-54 -299q96 -145 291 -145
q115 0 227 61t187 166q8 8 22 3q13 -5 5 -13q-78 -118 -198 -184t-249 -66z" />
    <glyph glyph-name="arrowleft" unicode="&#x2190;" horiz-adv-x="1587" 
d="M537 1036h153q8 0 9 -7t-5 -11l-291 -213q-14 -10 0 -10h1037q8 0 8 -11l-21 -110q0 -10 -12 -10h-1036q-12 0 -2 -11l215 -213q4 -4 1 -11t-11 -7h-154q-31 0 -43 12l-215 221q-8 8 -6 21l18 106q2 10 13 21l294 221q18 12 48 12z" />
    <glyph glyph-name="arrowup" unicode="&#x2191;" horiz-adv-x="942" 
d="M410 0h-111q-8 0 -8 10l215 1215q0 10 -10 0l-258 -252q-4 -6 -12 -4q-7 2 -5 10l27 154q6 33 20 45l267 256q8 8 22 8h107q10 0 18 -8l176 -256q10 -16 4 -45l-26 -154q-2 -8 -10 -10t-11 4l-168 252q-6 8 -10 0l-215 -1215q0 -10 -12 -10z" />
    <glyph glyph-name="arrowright" unicode="&#x2192;" horiz-adv-x="1587" 
d="M1073 422h-153q-13 0 -9 11q2 5 7 7l288 213q8 8 2 11h-1036q-8 0 -8 10l20 110q0 10 13 11h1036q14 0 0 10l-213 213q-6 4 -3 11t11 7h154q33 0 43 -12l217 -221q6 -6 4 -21l-19 -106q-2 -13 -10 -21l-297 -221q-16 -12 -47 -12z" />
    <glyph glyph-name="arrowdown" unicode="&#x2193;" horiz-adv-x="942" 
d="M408 0h-107q-10 0 -18 8l-177 256q-10 16 -4 45l27 154q2 8 10 10t11 -4l167 -252q6 -8 11 0l215 1215q0 10 12 10h111q8 0 8 -10l-215 -1215q0 -10 10 0l258 252q6 6 12 4t4 -10l-26 -154q-7 -33 -21 -45l-266 -256q-8 -8 -22 -8z" />
    <glyph glyph-name="carriagereturn" unicode="&#x21b5;" horiz-adv-x="1587" 
d="M1399 664h-1037q-4 0 -6 -4t4 -7l213 -213q5 -4 3 -11t-11 -7h-153q-31 0 -43 12l-217 221q-6 6 -5 21l19 106q2 12 12 21l295 221q16 12 47 12h154q12 0 8 -11q-2 -5 -6 -7l-289 -213q-8 -8 -2 -10h907q8 0 13 10l110 627q0 10 12 10h111q8 0 8 -10l-129 -727h-2l-6 -31
q0 -10 -10 -10z" />
    <glyph glyph-name="partialdiff" unicode="&#x2202;" 
d="M76 96l465 625l-246 625zM594 721l244 -623l219 1245q-373 -497 -463 -622zM94 49h709l-246 625zM575 768l465 627h-708zM858 0h-842q-8 0 -8 10l252 1422q0 10 12 10h842q8 0 8 -10l-252 -1422q0 -10 -12 -10z" />
    <glyph glyph-name="Delta" unicode="&#x2206;" horiz-adv-x="1484" 
d="M997 225q16 0 13 15l-150 952q-2 8 -9 8t-11 -8l-492 -954q-8 -12 8 -13h641zM1217 0h-1162q-8 0 -8 10l33 180q2 12 14 31l631 1211q4 10 14 10h314q4 0 8 -10l199 -1211q0 -4 2 -14t0 -17l-33 -180q0 -10 -12 -10z" />
    <glyph glyph-name="product" unicode="&#x220f;" 
d="M76 96l465 625l-246 625zM594 721l244 -623l219 1245q-373 -497 -463 -622zM94 49h709l-246 625zM575 768l465 627h-708zM858 0h-842q-8 0 -8 10l252 1422q0 10 12 10h842q8 0 8 -10l-252 -1422q0 -10 -12 -10z" />
    <glyph glyph-name="summation" unicode="&#x2211;" 
d="M76 96l465 625l-246 625zM594 721l244 -623l219 1245q-373 -497 -463 -622zM94 49h709l-246 625zM575 768l465 627h-708zM858 0h-842q-8 0 -8 10l252 1422q0 10 12 10h842q8 0 8 -10l-252 -1422q0 -10 -12 -10z" />
    <glyph glyph-name="minus" unicode="&#x2212;" horiz-adv-x="1376" 
d="M193 629h1015q10 0 11 -11l-37 -202q0 -10 -13 -10h-1015q-8 0 -9 10l37 202q1 11 11 11z" />
    <glyph glyph-name="uni2215" unicode="&#x2215;" horiz-adv-x="1345" 
d="M1112 1442h131q16 0 4 -17l-1122 -1421q-4 -4 -10 -4h-125q-16 0 -4 16l1116 1422q4 4 10 4z" />
    <glyph glyph-name="uni2219" unicode="&#x2219;" horiz-adv-x="542" 
d="M418 565h-305q-12 0 -9 10l54 310q4 10 12 10h305q12 0 8 -10l-53 -310q-4 -10 -12 -10z" />
    <glyph glyph-name="radical" unicode="&#x221a;" horiz-adv-x="1468" 
d="M348 831h-151q-12 0 -9 11l33 184q0 10 10 10h316q6 0 10 -10l84 -823q0 -8 9 -8t12 8l710 1614q4 10 10 10h209q14 0 11 -10l-814 -1807q-4 -10 -12 -10h-307q-6 0 -10 10l-101 811q0 10 -10 10z" />
    <glyph glyph-name="infinity" unicode="&#x221e;" horiz-adv-x="1906" 
d="M540 854q-68 0 -129 -56q-59 -56 -73 -132t27 -130t103 -54t130 46l197 129q14 10 2 21l-148 135q-41 41 -109 41zM1451 848q-73 0 -118 -33l-200 -139q-14 -8 -3 -17l152 -137q46 -41 112 -41q66 -1 128 55t76 131q13 75 -30 128q-44 53 -117 53zM444 272
q-162 0 -255 115t-64 278t163 277t288 115q154 0 239 -88l170 -168q8 -8 16 0l216 168q117 88 275 88t250 -115q93 -114 65 -276q-29 -162 -163 -278t-280 -116t-234 84l-176 164q-10 10 -20 0l-242 -164q-123 -84 -248 -84z" />
    <glyph glyph-name="integral" unicode="&#x222b;" horiz-adv-x="792" 
d="M-12 -406q-6 0 -6 11l32 192q0 10 13 10h43q32 -1 56 17t28 49l24 135v2l180 1020v2l27 152q23 128 117 194t229 64h60q4 0 6 -4t0 -6l-33 -193q-4 -10 -12 -10h-43q-31 1 -56 -17t-30 -49l-23 -131v-2l-180 -1020v-2l-29 -155q-19 -127 -115 -194t-231 -65h-57z" />
    <glyph glyph-name="approxequal" unicode="&#x2248;" horiz-adv-x="1118" 
d="M764 618q-68 0 -138 36t-128 72q-60 36 -94 36t-62 -22t-31 -50l-10 -61q-4 -10 -12 -11l-168 41q-8 0 -8 11l12 61q16 94 106 163q91 69 191 69t216 -73t153 -73t65 22t31 48l12 65q0 10 12 11l166 -41q12 -1 8 -11l-12 -65q-16 -92 -106 -160t-203 -68zM331 336
q-34 0 -62 -22t-33 -50l-11 -61q0 -10 -12 -10l-166 40q-12 0 -8 11l10 61q17 94 107 163t204 69q68 0 138 -37t127 -73t92 -36t63 22t31 48l12 65q0 10 13 11l165 -41q13 -1 9 -11l-11 -65q-16 -92 -107 -160t-204 -67q-68 -1 -138 35t-127 72q-58 36 -92 36z" />
    <glyph glyph-name="notequal" unicode="&#x2260;" horiz-adv-x="1118" 
d="M135 0h-149q-13 0 -9 14l158 164q4 6 2 12t-8 7h-92q-12 0 -8 10l37 205q0 10 12 10h284q6 0 13 8l166 172q6 6 4 12t-8 7h-424q-12 0 -9 10l35 205q4 10 13 10h616q6 0 14 8l170 176q2 6 11 6h153q6 0 9 -5t-1 -9l-155 -160q-10 -16 6 -16h92q12 0 8 -10l-35 -205
q-4 -10 -12 -10h-280q-12 0 -19 -11l-168 -172q-4 -4 -2 -10t8 -6h426q8 0 8 -10l-36 -205q-4 -10 -13 -10h-616l-14 -9l-175 -182q-6 -6 -12 -6z" />
    <glyph glyph-name="lessequal" unicode="&#x2264;" horiz-adv-x="1101" 
d="M10 203h922q12 0 8 -10l-33 -183q0 -10 -10 -10h-920q-10 0 -10 10l33 183q0 10 10 10zM111 803l39 229q4 8 8 10l987 396q16 4 12 -11l-27 -159q-2 -6 -8 -8l-821 -336q-12 -6 -2 -13l705 -327q4 -2 4 -9l-29 -159q0 -18 -16 -10l-848 387q-8 4 -4 10z" />
    <glyph glyph-name="greaterequal" unicode="&#x2265;" horiz-adv-x="1101" 
d="M1083 1032l-39 -229q-4 -8 -8 -10l-987 -387q-12 -6 -12 10l29 159q0 4 8 9l819 327q4 3 5 7t-3 6l-702 336q-6 4 -5 8l27 159q4 18 16 11l848 -396q8 -4 4 -10zM10 203h922q12 0 8 -10l-33 -183q0 -10 -10 -10h-920q-10 0 -10 10l33 183q0 10 10 10z" />
    <glyph glyph-name="lozenge" unicode="&#x25ca;" 
d="M76 96l465 625l-246 625zM594 721l244 -623l219 1245q-373 -497 -463 -622zM94 49h709l-246 625zM575 768l465 627h-708zM858 0h-842q-8 0 -8 10l252 1422q0 10 12 10h842q8 0 8 -10l-252 -1422q0 -10 -12 -10z" />
    <glyph glyph-name="commaaccent" unicode="&#xf6c3;" horiz-adv-x="606" 
d="M289 406h-150q-8 0 -8 10l55 311q0 10 13 10h307q8 0 8 -10l-55 -309q-19 -113 -109 -189t-254 -75q-10 0 -10 10l20 112q4 10 13 11q84 -1 127 31t51 77q4 11 -8 11z" />
    <glyph glyph-name="apple" unicode="&#xf8ff;" horiz-adv-x="1398" 
d="M858 0q-43 0 -107 30q-65 30 -109 30t-114 -27q-74 -33 -124 -33t-97 39q-117 96 -167 275q-50 178 -19 354t162 308t303 132q49 0 126 -31q76 -31 106 -31t122 32q92 30 158 30t136 -35q71 -35 124 -108q-199 -125 -228 -287q-16 -96 25 -175t129 -120
q-135 -211 -230 -297t-196 -86zM1171 1438q-29 -170 -133 -258q-100 -90 -211 -90q-2 2 -4 2q23 137 125 231q112 97 223 115z" />
    <glyph glyph-name="f_f" unicode="&#xfb00;" horiz-adv-x="1474" 
d="M831 1036h168q10 0 11 8l20 109q25 141 121 216t235 73h162q6 0 6 -10l-36 -205q0 -10 -13 -10h-145q-32 1 -56 -17t-28 -49l-21 -107q0 -8 11 -8h209q8 0 8 -10l-35 -195q0 -10 -12 -10h-209q-8 0 -13 -10l-141 -801q0 -10 -12 -10h-225q-8 0 -9 10l142 801q4 10 -8 10
h-168q-8 0 -9 10l35 195q0 10 12 10zM135 1036h168q10 0 10 8l21 109q25 141 121 216t235 73h162q6 0 6 -10l-37 -205q0 -10 -12 -10h-145q-31 1 -56 -17t-28 -49l-21 -107q0 -8 10 -8h209q8 0 8 -10l-34 -195q0 -10 -13 -10h-209q-8 0 -12 -10l-141 -801q0 -10 -12 -10
h-226q-8 0 -8 10l141 801q4 10 -8 10h-168q-8 0 -8 10l35 195q0 10 12 10z" />
    <glyph glyph-name="f_f_i" unicode="&#xfb03;" horiz-adv-x="2019" 
d="M1712 0h-225q-8 0 -8 10l180 1016q0 10 12 10h225q8 0 9 -10l-181 -1016q0 -10 -12 -10zM1937 1151h-266q-10 0 -10 10l49 271q0 10 12 10h267q8 0 8 -10l-49 -271q-1 -10 -11 -10zM831 1036h168q10 0 11 8l20 109q25 141 121 216t235 73h162q6 0 6 -10l-36 -205
q0 -10 -13 -10h-145q-32 1 -56 -17t-28 -49l-21 -107q0 -8 11 -8h209q8 0 8 -10l-35 -195q0 -10 -12 -10h-209q-8 0 -13 -10l-141 -801q0 -10 -12 -10h-225q-8 0 -9 10l142 801q4 10 -8 10h-168q-8 0 -9 10l35 195q0 10 12 10zM135 1036h168q10 0 10 8l21 109
q25 141 121 216t235 73h162q6 0 6 -10l-37 -205q0 -10 -12 -10h-145q-31 1 -56 -17t-28 -49l-21 -107q0 -8 10 -8h209q8 0 8 -10l-34 -195q0 -10 -13 -10h-209q-8 0 -12 -10l-141 -801q0 -10 -12 -10h-226q-8 0 -8 10l141 801q4 10 -8 10h-168q-8 0 -8 10l35 195q0 10 12 10
z" />
    <glyph glyph-name="f_f_l" unicode="&#xfb04;" horiz-adv-x="1957" 
d="M1671 0h-225q-8 0 -8 10l252 1422q0 10 12 10h225q8 0 8 -10l-252 -1422q0 -10 -12 -10zM831 1036h168q10 0 11 8l20 109q25 141 121 216t235 73h162q6 0 6 -10l-36 -205q0 -10 -13 -10h-145q-32 1 -56 -17t-28 -49l-21 -107q0 -8 11 -8h209q8 0 8 -10l-35 -195
q0 -10 -12 -10h-209q-8 0 -13 -10l-141 -801q0 -10 -12 -10h-225q-8 0 -9 10l142 801q4 10 -8 10h-168q-8 0 -9 10l35 195q0 10 12 10zM135 1036h168q10 0 10 8l21 109q25 141 121 216t235 73h162q6 0 6 -10l-37 -205q0 -10 -12 -10h-145q-31 1 -56 -17t-28 -49l-21 -107
q0 -8 10 -8h209q8 0 8 -10l-34 -195q0 -10 -13 -10h-209q-8 0 -12 -10l-141 -801q0 -10 -12 -10h-226q-8 0 -8 10l141 801q4 10 -8 10h-168q-8 0 -8 10l35 195q0 10 12 10z" />
    <glyph glyph-name="longs_t" unicode="&#xfb05;" 
d="M76 96l465 625l-246 625zM594 721l244 -623l219 1245q-373 -497 -463 -622zM94 49h709l-246 625zM575 768l465 627h-708zM858 0h-842q-8 0 -8 10l252 1422q0 10 12 10h842q8 0 8 -10l-252 -1422q0 -10 -12 -10z" />
    <glyph glyph-name="parenleft.001" 
d="M76 96l465 625l-246 625zM594 721l244 -623l219 1245q-373 -497 -463 -622zM94 49h709l-246 625zM575 768l465 627h-708zM858 0h-842q-8 0 -8 10l252 1422q0 10 12 10h842q8 0 8 -10l-252 -1422q0 -10 -12 -10z" />
    <glyph glyph-name="parenright.001" 
d="M76 96l465 625l-246 625zM594 721l244 -623l219 1245q-373 -497 -463 -622zM94 49h709l-246 625zM575 768l465 627h-708zM858 0h-842q-8 0 -8 10l252 1422q0 10 12 10h842q8 0 8 -10l-252 -1422q0 -10 -12 -10z" />
    <glyph glyph-name="registered.001" horiz-adv-x="1681" 
d="M732 63q271 0 499 194q227 194 274 465t-111 466q-159 194 -430 194t-498 -194q-226 -195 -273 -466t111 -465t428 -194zM719 0q-195 0 -342 97t-214 264t-32 362q53 297 300 509t544 212t471 -212t121 -510t-302 -510t-546 -212zM991 1106h-321l-60 -334h322
q66 0 123 48t69 118t-26 119q-39 49 -107 49zM1010 268q-6 0 -11 6l-104 394h-303l-70 -389q0 -10 -10 -11h-82q-10 0 -10 11q158 901 160 915t12 14h416q113 0 176 -78t46 -176q-18 -98 -80 -169t-144 -103l110 -399q4 -14 -12 -15h-94z" />
    <glyph glyph-name="copyright.001" horiz-adv-x="1681" 
d="M732 63q271 0 499 194q227 194 274 465t-111 466q-159 194 -430 194t-498 -194q-226 -195 -273 -466t111 -465t428 -194zM719 0q-195 0 -342 97t-214 264t-32 362q53 297 300 509t544 212t471 -212t121 -510t-302 -510t-546 -212zM915 1135q-162 0 -262 -117t-131 -293
q-32 -176 28 -293t222 -117q82 0 138 22t116 83q10 14 16 14h91q12 0 8 -14q-53 -90 -157 -144t-228 -55q-205 0 -290 150q-85 151 -49 355t173 354t342 149q123 0 208 -54t107 -145q0 -14 -12 -14h-90q-2 0 -12 14q-37 61 -87 83t-131 22z" />
    <glyph glyph-name="zero.tnum" horiz-adv-x="1351" 
d="M776 1237q-291 0 -381 -516t201 -516t383 516q88 516 -203 516zM557 -20q-197 0 -307 100t-125 265q-16 165 16 376q133 741 676 741q150 0 249 -57t141 -157q90 -215 28 -527q-133 -741 -678 -741z" />
    <glyph glyph-name="two.tnum" horiz-adv-x="1351" 
d="M1030 0h-915q-12 0 -9 10l33 189q2 14 15 26l645 545q158 125 176 242q12 86 -33 154q-44 68 -148 69q-104 0 -179 -69t-89 -154q0 -10 -12 -11h-223q-8 0 -8 11q35 194 189 322t364 128q208 0 314 -128t71 -322q-39 -223 -275 -408l-452 -360q-12 -10 -8 -14t10 -5h573
q10 0 10 -10l-37 -205q-4 -10 -12 -10z" />
    <glyph glyph-name="three.tnum" horiz-adv-x="1351" 
d="M826 1462q202 0 308 -124t74 -310q-33 -186 -221 -289q-8 -4 -8 -11t4 -9q63 -35 107 -121t26 -201q-31 -178 -175 -297q-143 -120 -371 -120t-326 126t-68 312q4 10 12 10h226q12 0 8 -10q-12 -72 32 -143t146 -71t180 60q78 59 90 133q18 109 -37 163q-56 54 -155 56
h-68q-10 0 -10 11l37 204q4 10 12 11h68q88 0 160 49t86 136t-35 149q-48 62 -140 61q-92 0 -164 -70t-87 -155q-4 -10 -13 -11h-223q-12 1 -8 11q33 194 183 322q148 128 350 128z" />
    <glyph glyph-name="four.tnum" horiz-adv-x="1351" 
d="M383 535h377q12 0 12 10l92 520q0 9 -9 7t-11 -5l-465 -514q-12 -18 4 -18zM1198 309h-211q-8 0 -12 -10l-51 -289q0 -10 -13 -10h-225q-8 0 -8 10l51 289q4 10 -8 10h-674q-12 0 -8 10l33 189q2 8 16 37l817 887q4 10 17 10h245q8 0 9 -10l-158 -887q0 -10 6 -10h213
q10 -1 10 -11l-37 -205q-4 -10 -12 -10z" />
    <glyph glyph-name="five.tnum" horiz-adv-x="1351" 
d="M1178 1217h-564q-14 0 -14 -11l-74 -252q-2 -10 4 -12t11 2q70 59 225 60q227 0 335 -138q107 -138 65 -374t-202 -374t-385 -138q-226 0 -332 101q-105 101 -107 217q-1 60 5 118q0 12 13 12h225q10 0 8 -10q-13 -80 51 -147t172 -67t190 80q82 79 106 208
q24 130 -33 208t-170 78q-174 0 -269 -137q-4 -6 -10 -6h-223q-10 0 -10 10l231 787q4 10 12 10h783q12 0 8 -10l-37 -207q0 -8 -14 -8z" />
    <glyph glyph-name="six.tnum" horiz-adv-x="1351" 
d="M714 778q-126 0 -203 -77t-101 -209t26 -210q51 -77 177 -77t202 77q75 77 100 210q25 134 -25 210t-176 76zM774 995q201 0 319 -141q117 -141 77 -365t-201 -367q-162 -142 -398 -142q-235 0 -347 142t-70 370q31 158 131 299l452 643q8 8 13 8h245q13 -1 9 -15
l-299 -423q-4 -6 -2 -13q3 -6 24 -1t47 5z" />
    <glyph glyph-name="seven.tnum" horiz-adv-x="1351" 
d="M565 0h-237q-10 0 -6 10l675 1188q10 18 -6 19h-661q-8 0 -8 10l36 205q0 10 13 10h917q8 0 8 -10l-36 -205q0 -10 -11 -29l-669 -1188q-4 -10 -15 -10z" />
    <glyph glyph-name="eight.tnum" horiz-adv-x="1351" 
d="M795 1237h-4q-92 0 -164 -62q-72 -63 -86 -149t39 -134t143 -48t162 48t86 135t-35 149t-141 61zM684 618q-102 0 -178 -57t-94 -164q-12 -74 43 -133t155 -59t178 59t91 133q18 111 -38 166q-55 55 -157 55zM829 1462h5q203 0 309 -124q105 -124 73 -310t-221 -289
q-8 -4 -8 -11t4 -9q63 -35 107 -121t26 -201q-31 -178 -176 -298q-144 -119 -376 -119t-334 120t-72 297q18 115 94 201t150 121q23 8 4 20q-152 103 -119 289t182 310q150 124 352 124z" />
    <glyph glyph-name="nine.tnum" horiz-adv-x="1351" 
d="M794 1237q-126 0 -203 -77t-102 -210t25 -210q50 -76 177 -76q126 0 203 76t101 210q25 133 -25 210t-176 77zM834 1462q236 0 348 -142t69 -370q-31 -158 -131 -299l-452 -643q-8 -8 -13 -8h-245q-13 0 -9 14l299 424q4 6 1 12t-23 2q-20 -5 -47 -6q-201 0 -319 142
t-78 365q40 225 202 367t398 142z" />
    <glyph glyph-name="registered.002" horiz-adv-x="1681" 
d="M987 1049h-293q-12 0 -12 -11l-51 -290q-4 -10 8 -11h297q57 2 110 47q52 46 62 108t-26 110t-95 47zM596 1153h424q102 0 164 -77t44 -171q-33 -181 -188 -246q-12 -4 -6 -14l94 -344q6 -12 -10 -12h-96q-14 0 -18 10l-84 326q0 8 -13 8h-291q-6 0 -8 -6l-57 -328
q0 -10 -12 -10h-97q-8 0 -8 10l150 844q0 10 12 10zM732 63q271 0 499 194q227 194 274 465t-111 466q-159 194 -430 194t-498 -194q-226 -195 -273 -466t111 -465t428 -194zM719 0q-195 0 -342 97t-214 264t-32 362q53 297 300 509t544 212t471 -212t121 -510t-302 -510
t-546 -212z" />
    <glyph glyph-name="copyright.002" horiz-adv-x="1681" 
d="M1067 559h104q8 0 9 -10q-14 -80 -136 -176q-122 -97 -294 -97t-255 123t-46 322q35 199 161 321t300 123q176 0 260 -101t69 -175q0 -6 -8 -6h-109q-4 0 -10 31t-35 71q-55 74 -180 75t-212 -89t-115 -250t26 -250t175 -90q119 0 187 52t99 120q4 6 10 6zM732 63
q271 0 499 194q227 194 274 465t-111 465q-159 193 -430 193t-498 -193q-226 -194 -273 -465t111 -465t428 -194zM719 0q-195 0 -342 97t-214 264t-32 362q53 297 300 508t544 211t471 -211t121 -509t-302 -510t-546 -212z" />
    <glyph glyph-name="one.tnum" horiz-adv-x="1351" 
d="M1032 0h-917q-8 0 -9 10l33 185q4 10 13 10h346q8 0 12 10l129 729q8 57 -45 57h-303q-12 0 -8 11l30 184q4 10 13 10h249q45 0 84 33t43 74l23 119q0 10 12 10h226q8 0 8 -10l-215 -1217q-4 -10 8 -10h305q12 0 8 -10l-33 -185q0 -10 -12 -10z" />
    <glyph glyph-name="dollar.plf" 
d="M76 96l465 625l-246 625zM594 721l244 -623l219 1245q-373 -497 -463 -622zM94 49h709l-246 625zM575 768l465 627h-708zM858 0h-842q-8 0 -8 10l252 1422q0 10 12 10h842q8 0 8 -10l-252 -1422q0 -10 -12 -10z" />
    <glyph glyph-name="cent.plf" 
d="M76 96l465 625l-246 625zM594 721l244 -623l219 1245q-373 -497 -463 -622zM94 49h709l-246 625zM575 768l465 627h-708zM858 0h-842q-8 0 -8 10l252 1422q0 10 12 10h842q8 0 8 -10l-252 -1422q0 -10 -12 -10z" />
    <glyph glyph-name="sterling.plf" 
d="M76 96l465 625l-246 625zM594 721l244 -623l219 1245q-373 -497 -463 -622zM94 49h709l-246 625zM575 768l465 627h-708zM858 0h-842q-8 0 -8 10l252 1422q0 10 12 10h842q8 0 8 -10l-252 -1422q0 -10 -12 -10z" />
    <glyph glyph-name="yen.plf" 
d="M76 96l465 625l-246 625zM594 721l244 -623l219 1245q-373 -497 -463 -622zM94 49h709l-246 625zM575 768l465 627h-708zM858 0h-842q-8 0 -8 10l252 1422q0 10 12 10h842q8 0 8 -10l-252 -1422q0 -10 -12 -10z" />
    <glyph glyph-name="florin.plf" 
d="M76 96l465 625l-246 625zM594 721l244 -623l219 1245q-373 -497 -463 -622zM94 49h709l-246 625zM575 768l465 627h-708zM858 0h-842q-8 0 -8 10l252 1422q0 10 12 10h842q8 0 8 -10l-252 -1422q0 -10 -12 -10z" />
    <glyph glyph-name="Euro.plf" 
d="M76 96l465 625l-246 625zM594 721l244 -623l219 1245q-373 -497 -463 -622zM94 49h709l-246 625zM575 768l465 627h-708zM858 0h-842q-8 0 -8 10l252 1422q0 10 12 10h842q8 0 8 -10l-252 -1422q0 -10 -12 -10z" />
    <glyph glyph-name="currency.plf" 
d="M76 96l465 625l-246 625zM594 721l244 -623l219 1245q-373 -497 -463 -622zM94 49h709l-246 625zM575 768l465 627h-708zM858 0h-842q-8 0 -8 10l252 1422q0 10 12 10h842q8 0 8 -10l-252 -1422q0 -10 -12 -10z" />
    <glyph glyph-name="numbersign.plf" 
d="M76 96l465 625l-246 625zM594 721l244 -623l219 1245q-373 -497 -463 -622zM94 49h709l-246 625zM575 768l465 627h-708zM858 0h-842q-8 0 -8 10l252 1422q0 10 12 10h842q8 0 8 -10l-252 -1422q0 -10 -12 -10z" />
    <glyph glyph-name="grave.case" horiz-adv-x="606" 
d="M612 1559h-178q-16 0 -20 14l-123 262q-2 6 2 10t10 4h240q14 0 18 -14l64 -262q3 -14 -13 -14z" />
    <glyph glyph-name="dieresis.case" horiz-adv-x="606" 
d="M780 1556h-264q-12 0 -8 11l47 270q0 10 12 10h264q8 0 9 -10l-47 -270q-5 -11 -13 -11zM330 1556h-264q-12 0 -9 11l47 270q0 10 13 10h264q8 0 8 -10l-47 -270q-4 -11 -12 -11z" />
    <glyph glyph-name="acute.case" horiz-adv-x="606" 
d="M430 1556h-178q-18 0 -8 15l157 262q4 14 23 14h240q16 0 8 -14l-217 -262q-15 -15 -25 -15z" />
    <glyph glyph-name="caron.case" horiz-adv-x="606" 
d="M547 1847h164q14 0 8 -14l-164 -262q-10 -14 -23 -15h-227q-18 0 -18 15l-68 262q-6 14 12 14h164q8 0 8 -6l39 -96q6 -18 21 0l72 96q6 6 12 6z" />
    <glyph glyph-name="circumflex.case" horiz-adv-x="606" 
d="M659 1556h-163q-8 0 -11 7l-36 96q-10 18 -21 0l-74 -96q-2 -6 -10 -7h-164q-18 0 -8 15l162 262q4 14 22 14h228q14 0 18 -14l70 -262q3 -15 -13 -15z" />
    <glyph glyph-name="breve.case" horiz-adv-x="786" 
d="M476 1556q-128 0 -192 77t-44 204q4 10 12 10h158q12 0 8 -10q-6 -39 18 -73t71 -34q48 0 82 34t40 73q4 10 12 10h160l8 -10q-21 -127 -113 -204t-220 -77z" />
    <glyph glyph-name="dotaccent.case" horiz-adv-x="606" 
d="M516 1556h-264q-8 0 -8 11l47 270q4 10 12 10h264q12 0 8 -10l-47 -270q0 -11 -12 -11z" />
    <glyph glyph-name="ring.case" horiz-adv-x="606" 
d="M424 1774q-35 0 -66 -26q-30 -26 -36 -60t16 -61q22 -25 56 -25t64 26t36 60t-14 60t-56 26zM440 1868q74 0 118 -53t31 -127t-75 -126t-137 -52q-74 0 -117 52t-31 126q13 74 75 127t136 53z" />
    <glyph glyph-name="tilde.case" horiz-adv-x="606" 
d="M328 1847q82 0 161 -70q27 -24 42 -24t25 2q10 1 28 21t26 61q4 10 13 10h143q12 0 8 -10l-12 -70q-12 -70 -78 -132t-186 -62q-62 0 -124 47t-78 47t-28 -2q-10 -2 -27 -21t-26 -61q0 -10 -12 -10h-144q-8 0 -8 10l12 68q12 72 78 134t187 62z" />
    <glyph glyph-name="hungarumlaut.case" horiz-adv-x="606" 
d="M711 1556h-265q-6 0 -6 11l107 270q4 10 14 10h264q10 0 6 -10l-106 -270q0 -11 -14 -11zM260 1556h-262q-6 0 -6 11l104 270q4 10 15 10h264q10 0 6 -10l-107 -270q0 -11 -14 -11z" />
    <glyph glyph-name="caron.salt" horiz-adv-x="716" 
d="M532 1442h164q16 0 9 -15l-164 -262q-10 -14 -23 -14h-227q-18 0 -19 14l-67 262q-2 7 2 11t10 4h164q8 0 8 -6l39 -97q6 -18 21 0l71 97q6 6 12 6z" />
    <glyph glyph-name="commaaccent.salt" horiz-adv-x="606" 
d="M289 406h-150q-8 0 -8 10l55 311q0 10 13 10h307q8 0 8 -10l-55 -309q-19 -113 -109 -189t-254 -75q-10 0 -10 10l20 112q4 10 13 11q84 -1 127 31t51 77q4 11 -8 11z" />
    <glyph glyph-name="macron.case" horiz-adv-x="606" 
d="M700 1577h-544q-6 0 -6 10l26 144q0 10 10 10h545q8 0 8 -10l-26 -144q-1 -10 -13 -10z" />
    <glyph glyph-name="_0127" 
d="M76 96l465 625l-246 625zM594 721l244 -623l219 1245q-373 -497 -463 -622zM94 49h709l-246 625zM575 768l465 627h-708zM858 0h-842q-8 0 -8 10l252 1422q0 10 12 10h842q8 0 8 -10l-252 -1422q0 -10 -12 -10z" />
    </font>
</defs>
</svg>
