<?xml version="1.0" standalone="no"?>
<!DOCTYPE svg PUBLIC "-//W3C//DTD SVG 1.1//EN" "http://www.w3.org/Graphics/SVG/1.1/DTD/svg11.dtd" >
<svg xmlns="http://www.w3.org/2000/svg">
<metadata>
Created by FontPrep 20130207 at Mon Jul 13 18:25:49 2015
 By Tom Galle
Copyright (c) 2008 by Stefan Gandl. All rights reserved.
</metadata>
<defs>
<font id="73391c4d64d4dfef1c5a99ff4df99657" horiz-adv-x='1024' >
  <font-face 
    font-family="NBInternationalPro-Reg"
    font-weight="400"
    font-stretch="normal"
    units-per-em="2048"
    panose-1="2 11 5 3 4 1 0 2 0 4"
    ascent="1638"
    descent="-410"
    x-height="1036"
    cap-height="1442"
    bbox="-139 -426 2281 1933"
    underline-thickness="174"
    underline-position="-100"
    unicode-range="U+0009-FB05"
  />
<missing-glyph 
d="M123 96l354 625l-354 625v-1250zM530 721l355 -623v1245q-240 -415 -355 -622zM150 49h708l-354 625zM504 768l354 627h-708zM934 1432v-1422q0 -10 -10 -10h-842q-10 0 -10 10v1422q0 10 10 10h842q10 0 10 -10z" />
    <glyph glyph-name="fi" unicode="fi" horiz-adv-x="1159" 
d="M1020 1432v-215q0 -10 -10 -11h-215q-10 0 -11 11v215q0 10 11 10h215q10 0 10 -10zM999 1026v-1016q0 -10 -10 -10h-174q-10 0 -10 10v1016q0 10 10 10h174q10 0 10 -10zM668 1432v-154q0 -10 -11 -10h-135q-44 0 -70 -28t-26 -75v-118q0 -10 10 -11h221q10 0 11 -10
v-133q0 -10 -11 -10h-221q-10 0 -10 -11v-862q0 -10 -10 -10h-174q-10 0 -11 10v862q0 10 -10 11h-182q-10 0 -10 10v133q0 10 10 10h182q10 0 10 11v153q0 248 289 242h137q11 0 11 -10z" />
    <glyph glyph-name="fl" unicode="fl" horiz-adv-x="1167" 
d="M1010 1432v-1422q0 -10 -11 -10h-174q-10 0 -10 10v1422q0 10 10 10h174q11 0 11 -10zM668 1432v-154q0 -10 -11 -10h-135q-44 0 -70 -28t-26 -75v-118q0 -10 10 -11h221q10 0 11 -10v-133q0 -10 -11 -10h-221q-10 0 -10 -11v-862q0 -10 -10 -10h-174q-10 0 -11 10v862
q0 10 -10 11h-182q-10 0 -10 10v133q0 10 10 10h182q10 0 10 11v153q0 248 289 242h137q11 0 11 -10z" />
    <glyph glyph-name=".notdef" 
d="M123 96l354 625l-354 625v-1250zM530 721l355 -623v1245q-240 -415 -355 -622zM150 49h708l-354 625zM504 768l354 627h-708zM934 1432v-1422q0 -10 -10 -10h-842q-10 0 -10 10v1422q0 10 10 10h842q10 0 10 -10z" />
    <glyph glyph-name=".null" horiz-adv-x="0" 
 />
    <glyph glyph-name="nonmarkingreturn" horiz-adv-x="681" 
 />
    <glyph glyph-name="NULL" horiz-adv-x="10" 
 />
    <glyph glyph-name="NULL" horiz-adv-x="10" 
 />
    <glyph glyph-name="HT" unicode="&#x9;" horiz-adv-x="542" 
 />
    <glyph glyph-name="LF" unicode="&#xa;" horiz-adv-x="542" 
 />
    <glyph glyph-name="CR" unicode="&#xd;" horiz-adv-x="30" 
 />
    <glyph glyph-name="DLE" horiz-adv-x="542" 
 />
    <glyph glyph-name="DC1" horiz-adv-x="542" 
 />
    <glyph glyph-name="DC2" horiz-adv-x="542" 
 />
    <glyph glyph-name="DC3" horiz-adv-x="542" 
 />
    <glyph glyph-name="DC4" horiz-adv-x="542" 
 />
    <glyph glyph-name="RS" horiz-adv-x="30" 
 />
    <glyph glyph-name="US" horiz-adv-x="30" 
 />
    <glyph glyph-name="space" unicode=" " horiz-adv-x="483" 
 />
    <glyph glyph-name="exclam" unicode="!" horiz-adv-x="448" 
d="M332 0h-246q-10 0 -10 10v250q0 10 10 10h246q10 0 10 -10v-250q0 -10 -10 -10zM274 426h-131q-10 0 -10 10l-20 600v396q0 10 10 10h172q10 0 10 -10v-396l-20 -600q-1 -10 -11 -10z" />
    <glyph glyph-name="quotedbl" unicode="&#x22;" horiz-adv-x="739" 
d="M242 883h-123q-10 0 -10 10l-21 215v324q0 10 10 10h164q10 0 10 -10v-324l-20 -215q0 -10 -10 -10zM590 883h-123q-10 0 -10 10l-21 215v324q0 10 10 10h164q10 0 11 -10v-324l-21 -215q0 -10 -10 -10z" />
    <glyph glyph-name="numbersign" unicode="#" horiz-adv-x="1189" 
d="M705 836h-211q-8 0 -13 -11l-53 -223q-4 -14 10 -14h213q6 0 11 10l51 225q4 13 -8 13zM57 836q-10 0 -10 10v121q0 10 10 10h316q10 0 12 8l98 451q4 6 11 6h112q14 0 10 -15l-96 -438q-4 -12 10 -12h209q10 0 13 10l98 449q2 6 10 6h113q14 0 10 -15l-96 -438
q-2 -12 10 -12h203q10 0 10 -10v-121q0 -10 -10 -10h-240q-8 0 -12 -11l-53 -225q-4 -12 10 -12h295q10 0 10 -10v-121q0 -10 -10 -11h-332q-8 0 -10 -8l-96 -432q-2 -6 -11 -6h-110q-14 0 -11 14l95 422q4 10 -9 10h-215q-6 0 -10 -10l-96 -430q-4 -6 -10 -6h-111
q-14 0 -10 14l92 420q4 12 -10 12h-189q-10 0 -10 11v121q0 10 10 10h226q10 0 12 10l51 225q2 12 -10 13h-279z" />
    <glyph glyph-name="dollar" unicode="$" horiz-adv-x="1249" 
d="M299 1051q0 -162 231 -199q10 -2 11 8v414q-1 12 -11 8q-100 -16 -166 -81t-65 -150zM700 172q0 -14 11 -10q115 20 181 88t66 163t-65 146q-66 51 -182 72q-10 4 -11 -6v-453zM541 170v479q0 6 -6 6q-234 33 -347 144q-94 94 -94 259q0 166 127 274t309 126q10 0 11 10
v164q0 10 8 10h141q10 0 10 -10v-172q0 -6 7 -8q169 -29 281 -132t120 -273q0 -10 -10 -11h-185q-10 0 -10 11q0 78 -52 139t-140 86q-10 4 -11 -8v-426q0 -10 11 -11q198 -32 313 -109q139 -94 139 -312q-1 -158 -113 -279t-339 -143q-10 0 -11 -9v-170q0 -10 -10 -10h-141
q-8 0 -8 10v168q0 10 -11 11q-217 18 -339 135t-121 276q0 10 10 11h182q12 0 12 -13q0 -73 68 -143t188 -90q11 2 11 10z" />
    <glyph glyph-name="percent" unicode="%" horiz-adv-x="1703" 
d="M412 772q170 0 170 282t-170 281q-170 1 -170 -281t170 -282zM713 1054q0 -409 -302 -409t-302 409t303 408q301 1 301 -408zM1264 106q170 0 170 282t-170 282t-170 -282t170 -282zM961 388q0 408 302 409q302 0 302 -409t-301 -408q-303 0 -303 408zM1198 1442h143
q16 0 9 -17l-873 -1421q-4 -4 -8 -4h-139q-16 0 -8 16l868 1422q4 4 8 4z" />
    <glyph glyph-name="ampersand" unicode="&#x26;" horiz-adv-x="1343" 
d="M731 1136q-1 74 -57 118t-143 44t-144 -44t-58 -126t138 -215q6 -6 16 -2q164 60 206 105t42 120zM564 164q152 0 257 84q10 10 0 18l-397 432q-4 6 -16 2q-172 -86 -172 -245q0 -127 88 -209t240 -82zM1202 0q-123 0 -235 113q-6 6 -15 0q-176 -133 -410 -133t-368 134
q-133 134 -133 320q0 242 254 389q18 10 4 25l-51 57q-102 111 -102 239t106 223t276 95t279 -98t109 -235t-85 -213q-84 -76 -231 -123q-14 -4 -4 -19l324 -350q12 -16 12 0q16 31 16 96v178q0 10 10 11h175q10 0 10 -11v-178q0 -137 -64 -246q-8 -12 0 -16l33 -27
q6 -4 15 -11t15 -10t16 -9t44 -6q10 0 10 -11v-174q0 -10 -10 -10z" />
    <glyph glyph-name="quotesingle" unicode="'" horiz-adv-x="413" 
d="M242 883h-123q-10 0 -10 10l-21 215v324q0 10 10 10h164q10 0 10 -10v-324l-20 -215q0 -10 -10 -10z" />
    <glyph glyph-name="parenleft" unicode="(" horiz-adv-x="481" 
d="M182 518q0 -508 260 -913q6 -10 -6 -11h-137q-8 0 -14 11q-113 174 -186 424q-142 486 0 979q73 250 186 424q6 10 14 10h137q12 0 6 -10q-260 -406 -260 -914z" />
    <glyph glyph-name="parenright" unicode=")" horiz-adv-x="481" 
d="M289 518q0 508 -260 914q-6 10 6 10h137q8 0 14 -10q113 -174 186 -424q142 -487 0 -979q-73 -250 -186 -424q-6 -10 -14 -11h-137q-12 0 -6 11q260 405 260 913z" />
    <glyph glyph-name="asterisk" unicode="*" horiz-adv-x="968" 
d="M524 1192v-2l4 2h-4zM412 1192h-4l4 -2v2zM397 1432q0 10 11 10h122q10 0 11 -10v-105l-15 -121q-2 -14 17 -8l108 49l99 31q10 4 14 -6l37 -117q2 -8 -6 -12l-101 -33l-131 -29q-10 -4 -2 -12l84 -90l62 -88q8 -8 -2 -14l-99 -72q-8 -4 -16 4l-60 82l-53 94q-8 16 -16 0
l-55 -96l-60 -82q-8 -8 -16 -4l-99 71q-10 6 -2 15l62 88l84 92q6 8 -4 12l-127 29l-101 33q-8 4 -6 12l37 117q4 10 14 6l99 -31l108 -49q6 -4 12 -2q5 2 3 10l-13 121v105z" />
    <glyph glyph-name="plus" unicode="+" horiz-adv-x="1255" 
d="M713 416v-406q0 -10 -11 -10h-172q-10 0 -10 10v406q0 10 -10 10h-391q-10 0 -10 10v164q0 10 10 10h391q10 0 10 11v405q0 10 10 10h172q10 0 11 -10v-405q0 -10 10 -11h414q10 0 10 -10v-164q0 -10 -10 -10h-414q-10 0 -10 -10z" />
    <glyph glyph-name="comma" unicode="," horiz-adv-x="514" 
d="M209 0h-90q-10 0 -10 10v250q0 10 10 10h246q10 0 10 -10v-248q0 -116 -72 -190t-184 -74q-10 0 -10 10v113q1 10 23 10t54 30t33 79q0 10 -10 10z" />
    <glyph glyph-name="hyphen" unicode="-" horiz-adv-x="1163" 
d="M897 426h-641q-10 0 -10 10v164q0 10 10 10h641q10 0 10 -10v-164q0 -10 -10 -10z" />
    <glyph glyph-name="period" unicode="." horiz-adv-x="514" 
d="M365 0h-246q-10 0 -10 10v250q0 10 10 10h246q10 0 10 -10v-250q0 -10 -10 -10z" />
    <glyph glyph-name="slash" unicode="/" horiz-adv-x="1034" 
d="M348 0h-151q-14 0 -11 14l478 1422q4 6 10 6h153q15 -1 11 -15l-480 -1421q-2 -6 -10 -6z" />
    <glyph glyph-name="zero" unicode="0" horiz-adv-x="1280" 
d="M987 722q0 282 -80 424t-262 142t-262 -142t-80 -425t80 -426t262 -143t262 144t80 426zM96 720q0 742 548 742t548 -742t-547 -743q-549 1 -549 743z" />
    <glyph glyph-name="one" unicode="1" horiz-adv-x="774" 
d="M414 1319v113q0 10 10 10h174q10 0 10 -10v-1422q0 -10 -10 -10h-174q-10 0 -10 10v965q0 29 -20 45t-44 16h-313q-10 0 -10 11v143q0 10 10 10h254q51 0 87 34t36 85z" />
    <glyph glyph-name="two" unicode="2" horiz-adv-x="1122" 
d="M72 10v144q0 18 8 26l569 555q176 168 174 293q-2 96 -71 178q-70 82 -192 82t-196 -73t-73 -168q0 -10 -10 -11h-175q-10 0 -10 11q0 182 128 299q128 116 335 116t333 -125t126 -304t-147 -343q-35 -39 -80 -84l-451 -416q-4 -2 -2 -9t10 -7h660q10 0 10 -10v-154
q0 -10 -10 -10h-926q-10 0 -10 10z" />
    <glyph glyph-name="three" unicode="3" horiz-adv-x="1146" 
d="M457 819q0 10 10 10h72q117 0 189 65t73 161q0 96 -73 165q-74 70 -186 68t-187 -76t-72 -165q0 -10 -11 -11h-174q-10 0 -10 11q-2 181 126 297t328 117t326 -113t127 -291q1 -125 -71 -203t-131 -96q-10 -2 -11 -10q0 -8 11 -11q75 -25 155 -115t80 -233
q0 -182 -132 -296q-132 -113 -353 -113t-343 118t-122 291q0 10 10 10h174q10 0 10 -10q0 -92 70 -164q70 -71 196 -71t211 68t85 176q0 110 -84 184t-211 73h-72q-10 0 -10 11v153z" />
    <glyph glyph-name="four" unicode="4" horiz-adv-x="1253" 
d="M326 504h440q10 0 10 10v602q0 10 -9 8t-11 -6l-441 -600q-2 -4 1 -9t10 -5zM788 1442h173q10 0 10 -10v-918q0 -10 10 -10h227q10 0 11 -10v-154q0 -10 -11 -10h-227q-10 0 -10 -11v-309q0 -10 -10 -10h-175q-10 0 -10 10v309q0 10 -10 11h-674q-10 0 -10 10v143
q0 18 6 31l680 918q6 10 20 10z" />
    <glyph glyph-name="five" unicode="5" horiz-adv-x="1185" 
d="M1006 1442q10 0 10 -10v-154q0 -10 -10 -10h-603q-10 0 -10 -11l-45 -337q0 -6 2 -12t15 5q113 88 249 88q224 0 362 -140q138 -139 138 -373t-131 -371t-369 -137q-133 0 -235 44t-156 112q-106 138 -104 253q0 10 10 10h188q10 0 11 -10q0 -74 70 -155q70 -80 211 -80
q140 0 226 92q85 92 85 244t-86 244q-86 93 -206 93q-120 1 -187 -33t-115 -108q-6 -10 -23 -10h-160q-10 0 -10 10l90 741q2 14 15 15h768z" />
    <glyph glyph-name="six" unicode="6" horiz-adv-x="1204" 
d="M909 489q0 158 -76 248q-77 90 -228 90t-227 -90t-77 -248q0 -157 77 -247q78 -90 228 -90t226 90t77 247zM1114 488q0 -226 -137 -368t-373 -142t-372 142t-136 369q0 150 78 297l342 646q4 10 14 10h181q14 0 10 -10l-227 -447q-2 -6 3 -12t11 -2q33 23 121 22
q211 0 348 -139q137 -140 137 -366z" />
    <glyph glyph-name="seven" unicode="7" horiz-adv-x="1036" 
d="M979 1432v-138q0 -20 -6 -37l-467 -1247q-4 -10 -12 -10h-189q-12 0 -8 10l483 1247q4 10 -8 11h-715q-10 0 -10 10v154q0 10 10 10h912q10 0 10 -10z" />
    <glyph glyph-name="eight" unicode="8" horiz-adv-x="1210" 
d="M870 1055q0 96 -72 165q-73 68 -190 68q-118 0 -190 -68t-72 -165q0 -96 73 -161t189 -65t190 65q72 65 72 161zM608 154q125 0 210 68t85 176q0 110 -84 184t-211 74t-211 -74t-84 -184t85 -176q85 -68 210 -68zM608 -20q-225 0 -357 114t-132 295q0 206 169 314
q36 24 56 30t21 15q0 8 -11 10q-59 18 -131 96t-71 203q0 176 127 291q127 114 329 114t330 -114q127 -114 127 -291q0 -125 -72 -203t-131 -96q-10 -2 -10 -10t20 -14q54 -17 133 -94q41 -40 67 -106t26 -145q0 -182 -132 -296q-133 -113 -358 -113z" />
    <glyph glyph-name="nine" unicode="9" horiz-adv-x="1204" 
d="M301 950q0 -158 77 -248q78 -90 228 -90t227 90t76 248q0 158 -76 248q-77 90 -228 90t-227 -90t-77 -248zM582 446q-210 0 -348 140t-138 365q0 227 137 369t373 142t372 -142t136 -370q0 -150 -78 -297l-342 -645q-6 -10 -14 -10h-180q-17 0 -11 10l228 447q4 6 -2 11
t-13 3q-35 -23 -120 -23z" />
    <glyph glyph-name="colon" unicode=":" horiz-adv-x="514" 
d="M365 766h-246q-10 0 -10 10v250q0 10 10 10h246q10 0 10 -10v-250q0 -10 -10 -10zM365 0h-246q-10 0 -10 10v250q0 10 10 10h246q10 0 10 -10v-250q0 -10 -10 -10z" />
    <glyph glyph-name="semicolon" unicode=";" horiz-adv-x="514" 
d="M365 766h-246q-10 0 -10 10v250q0 10 10 10h246q10 0 10 -10v-250q0 -10 -10 -10zM209 0h-90q-10 0 -10 10v250q0 10 10 10h246q10 0 10 -10v-248q0 -116 -72 -190t-184 -74q-10 0 -10 10v113q1 10 23 10t54 30t33 79q0 10 -10 10z" />
    <glyph glyph-name="less" unicode="&#x3c;" horiz-adv-x="1046" 
d="M33 399v230q0 6 6 10l917 395q14 6 15 -10v-160q0 -4 -6 -8l-762 -336q-4 -2 -4 -6t4 -6l762 -328q6 -4 6 -8v-160q0 -16 -15 -10l-917 387q-6 4 -6 10z" />
    <glyph glyph-name="equal" unicode="=" horiz-adv-x="1155" 
d="M1036 651h-917q-10 0 -10 11v161q0 10 10 11h917q10 0 11 -11v-161q-1 -11 -11 -11zM1036 207h-917q-10 0 -10 10v164q0 10 10 10h917q10 0 11 -10v-164q-1 -10 -11 -10z" />
    <glyph glyph-name="greater" unicode="&#x3e;" horiz-adv-x="1046" 
d="M971 629v-230q0 -6 -6 -10l-918 -387q-14 -6 -14 10v160q0 4 6 8l762 328q4 2 4 6t-4 6l-762 336q-6 4 -6 8v160q0 16 14 10l918 -395q6 -4 6 -10z" />
    <glyph glyph-name="question" unicode="?" horiz-adv-x="1046" 
d="M639 0h-246q-10 0 -10 10v250q0 10 10 10h246q10 0 10 -10v-250q0 -10 -10 -10zM51 1067q0 174 127 285q127 110 334 110t339 -121t132 -299q0 -126 -62 -217q-47 -67 -163 -133q-37 -20 -107 -55q-31 -16 -37 -53v-146q0 -10 -10 -10h-174q-10 0 -10 10v162
q0 134 142 194t186 115q43 55 43 142t-77 162t-203 75t-196 -64t-69 -157v-20q0 -10 -10 -11h-175q-10 0 -10 11v20z" />
    <glyph glyph-name="at" unicode="@" horiz-adv-x="2019" 
d="M1040 889q-145 -1 -242 -101t-130 -270t24 -270q56 -100 202 -100t240 98q94 100 126 272q72 371 -220 371zM881 -426q-410 0 -635 284t-140 724q49 282 203 484q302 396 840 396q172 0 325 -62q335 -136 419 -472q46 -180 5 -398q-28 -145 -84 -257t-127 -173
q-142 -122 -272 -120q-76 0 -119 53t-53 104q-6 16 -16 2q-59 -78 -155 -119t-193 -40q-236 0 -340 147q-103 147 -61 400t205 391t396 139q92 0 157 -39t87 -76q9 -18 23 4l28 80q4 10 17 10h151q12 0 8 -10l-159 -778q-8 -37 9 -69t64 -32q100 0 187 115q86 115 121 300
t-4 336q-71 283 -365 392q-137 51 -316 51q-179 -1 -336 -69q-279 -122 -428 -438q-65 -137 -92 -291q-41 -295 52 -481q112 -228 340 -314q125 -47 271 -47t315 51t304 125q10 6 11 -6l-27 -127q-4 -12 -10 -16q-90 -62 -263 -108t-343 -46z" />
    <glyph glyph-name="A" unicode="A" horiz-adv-x="1396" 
d="M457 477h485q12 0 8 10l-239 750q-3 8 -11 8t-10 -8l-241 -750q-4 -10 8 -10zM575 1442h252q8 0 13 -10l477 -1422q4 -10 -10 -10h-193q-6 0 -10 10l-94 293q-2 10 -15 10h-594q-8 0 -12 -10l-96 -293q-4 -10 -10 -10h-191q-14 0 -12 10l483 1422q4 10 12 10z" />
    <glyph glyph-name="B" unicode="B" horiz-adv-x="1320" 
d="M1014 1039q0 91 -58 161t-163 70h-449q-10 0 -10 -10v-420q0 -10 10 -11h449q85 3 153 61t68 149zM807 655h-463q-10 0 -10 -10v-461q0 -10 10 -10h449q109 0 181 71t73 164q0 93 -72 169t-168 77zM139 1432q0 10 11 10h681q165 0 271 -120t106 -290q0 -96 -48 -169
t-113 -99q-9 -2 -9 -10t9 -11q74 -31 134 -130t60 -203q0 -182 -118 -296t-302 -114h-671q-10 0 -11 10v1422z" />
    <glyph glyph-name="C" unicode="C" horiz-adv-x="1398" 
d="M1323 451q10 0 10 -11q0 -123 -133 -279q-66 -77 -186 -129t-271 -52q-327 0 -487 200t-160 536q0 338 173 542t474 204q156 0 279 -55t185 -134q128 -163 126 -272q0 -10 -10 -10h-180q-10 0 -15 10q-100 287 -385 287q-213 0 -327 -150t-115 -417q0 -268 115 -418
t327 -149q164 0 258 88t127 198q2 10 15 11h180z" />
    <glyph glyph-name="D" unicode="D" horiz-adv-x="1409" 
d="M670 1268h-334q-10 0 -10 -11v-1073q0 -10 10 -10h334q208 0 322 137t114 395t-116 410t-320 152zM131 1432q0 10 10 10h529q313 -2 477 -202t164 -534t-163 -520t-478 -186h-529q-10 0 -10 10v1422z" />
    <glyph glyph-name="E" unicode="E" horiz-adv-x="1253" 
d="M129 1432q0 10 10 10h985q10 0 11 -10v-154q0 -10 -11 -10h-790q-10 0 -10 -11v-417q0 -10 10 -11h706q10 0 11 -10v-153q0 -10 -11 -11h-706q-10 0 -10 -10v-461q0 -10 10 -10h790q10 0 11 -10v-154q0 -10 -11 -10h-985q-10 0 -10 10v1422z" />
    <glyph glyph-name="F" unicode="F" horiz-adv-x="1110" 
d="M141 1432q0 10 11 10h911q10 0 10 -10v-154q0 -10 -10 -10h-717q-10 0 -10 -11v-417q0 -10 10 -11h633q10 0 10 -10v-153q0 -10 -10 -11h-633q-10 0 -10 -10v-635q0 -10 -10 -10h-174q-10 0 -11 10v1422z" />
    <glyph glyph-name="G" unicode="G" horiz-adv-x="1480" 
d="M1352 10q0 -10 -11 -10h-149q-12 0 -14 12l-21 144q0 6 -7 8t-11 -4q-51 -70 -171 -125t-253 -55q-326 0 -487 200q-160 200 -160 536q0 338 173 542t474 204q254 0 394 -118t191 -297q2 -10 -10 -11h-190q-10 0 -13 11q-45 119 -143 180t-229 61q-213 0 -328 -150
t-115 -417q0 -268 115 -418q115 -149 331 -149t328 114t111 357q0 10 -10 10h-422q-10 0 -10 10v154q0 10 10 10h616q10 0 11 -10v-789z" />
    <glyph glyph-name="H" unicode="H" horiz-adv-x="1347" 
d="M1004 1442h174q10 0 10 -10v-1422q0 -10 -10 -10h-174q-10 0 -11 10v635q0 10 -10 10h-649q-10 0 -10 -8v-637q0 -10 -11 -10h-174q-10 0 -10 10v1422q0 10 10 10h174q10 0 11 -10v-592q0 -10 10 -11h649q10 0 10 11v592q1 10 11 10z" />
    <glyph glyph-name="I" unicode="I" horiz-adv-x="483" 
d="M139 1442h174q10 0 11 -10v-1422q0 -10 -11 -10h-174q-10 0 -10 10v1422q0 10 10 10z" />
    <glyph glyph-name="J" unicode="J" horiz-adv-x="946" 
d="M14 451h174q10 0 11 -11v-34q0 -184 98 -231q45 -21 114 -21q139 1 176 77q36 76 38 175v1026q0 10 10 10h174q10 0 10 -10v-1026q0 -199 -91 -313q-91 -113 -311 -113t-317 116q-96 117 -96 310v34q0 11 10 11z" />
    <glyph glyph-name="K" unicode="K" horiz-adv-x="1275" 
d="M334 535v-525q0 -10 -10 -10h-174q-10 0 -11 10v1422q0 10 11 10h174q10 0 10 -10v-613q0 -12 8 -4l629 617q10 10 16 10h234q4 0 6 -4t0 -6l-551 -547q-6 -6 0 -17l563 -858q10 -10 -6 -10h-203q-6 0 -16 10l-475 723q-4 8 -13 0l-184 -182q-8 -8 -8 -16z" />
    <glyph glyph-name="L" unicode="L" horiz-adv-x="1107" 
d="M141 10v1422q0 10 11 10h174q10 0 10 -10v-1248q0 -10 10 -10h717q10 0 10 -10v-154q0 -10 -10 -10h-911q-11 0 -11 10z" />
    <glyph glyph-name="M" unicode="M" horiz-adv-x="1751" 
d="M1249 1442h332q10 0 10 -10v-1422q0 -10 -10 -10h-174q-10 0 -10 10v1227q0 10 -9 10t-12 -8l-360 -1229q-4 -10 -17 -10h-278q-12 0 -16 10l-361 1229q-4 8 -12 8t-8 -10v-1227q0 -10 -11 -10h-174q-10 0 -10 10v1422q0 10 10 10h332q8 0 14 -10l365 -1229q2 -8 10 -8
t10 8l365 1229q6 10 14 10z" />
    <glyph glyph-name="N" unicode="N" horiz-adv-x="1452" 
d="M1108 1442h174q10 0 10 -10v-1422q0 -10 -10 -10h-301q-10 0 -16 10l-621 1231q-5 10 -12 6q-8 -4 -8 -10v-1227q0 -10 -11 -10h-174q-10 0 -10 10v1422q0 10 10 10h303q8 0 15 -10l620 -1229q5 -8 13 -8t8 10v1227q0 10 10 10z" />
    <glyph glyph-name="O" unicode="O" horiz-adv-x="1458" 
d="M715 154q213 0 327 150t115 417q0 268 -115 418q-116 149 -328 149t-327 -150t-115 -417t115 -417t328 -150zM1360 721q0 -336 -166 -539q-166 -202 -479 -202t-481 202q-167 203 -166 539q0 336 166 539q166 202 480 202t480 -202t166 -539z" />
    <glyph glyph-name="P" unicode="P" horiz-adv-x="1232" 
d="M733 1268h-379q-10 0 -10 -11v-499q0 -10 10 -10h379q98 0 173 76t75 180t-75 184t-173 80zM150 1432q0 10 10 10h598q170 0 294 -128t124 -309t-124 -307t-294 -125h-404q-10 0 -10 -10v-553q0 -10 -10 -10h-174q-10 0 -10 10v1422z" />
    <glyph glyph-name="Q" unicode="Q" horiz-adv-x="1497" 
d="M1186 720q0 269 -115 419q-115 149 -328 149t-327 -150t-115 -417q0 -268 115 -418t327 -149q111 0 191 39q10 4 0 14l-215 211q-4 4 -2 7t6 3h197q6 0 16 -10l121 -119q6 -6 10 0q119 152 119 421zM96 721q0 336 167 539q167 202 480 202t480 -202q166 -203 166 -549
t-183 -547q-6 -8 0 -14l224 -222q4 -2 2 -6t-7 -4h-192q-6 0 -16 10l-132 129q-4 4 -12 0q-139 -78 -330 -77q-313 0 -480 202t-167 539z" />
    <glyph glyph-name="R" unicode="R" horiz-adv-x="1247" 
d="M733 1268h-379q-10 0 -10 -11v-499q0 -10 10 -10h387q96 4 168 78t72 178t-75 184t-173 80zM150 1432q0 10 10 10h598q170 0 294 -128t124 -310q0 -132 -68 -236t-176 -156q-8 -4 -4 -14l262 -588q4 -10 -10 -10h-170q-14 0 -21 10l-246 553q-4 10 -14 10h-375
q-10 0 -10 -10v-553q0 -10 -10 -10h-174q-10 0 -10 10v1422z" />
    <glyph glyph-name="S" unicode="S" horiz-adv-x="1249" 
d="M903 1047q0 104 -87 173q-87 68 -216 68t-215 -68t-86 -178q0 -111 109 -154q78 -33 203 -47q124 -15 207 -35t169 -66q176 -93 176 -334q0 -174 -135 -300q-134 -126 -400 -126t-412 120t-146 295q0 10 10 11h182q12 0 12 -13q0 -88 92 -164q92 -75 250 -75t250 72
t92 192t-106 170q-89 42 -202 53q-114 13 -177 25t-138 42t-124 70t-83 111q-34 70 -34 162q0 186 150 299q150 112 354 112t353 -108q148 -108 157 -307q0 -10 -10 -11h-185q-10 1 -10 11z" />
    <glyph glyph-name="T" unicode="T" horiz-adv-x="1110" 
d="M442 10v1250q-4 8 -10 8h-395q-10 0 -10 10v154q0 10 10 10h1005q10 0 11 -10v-154q0 -10 -11 -10h-395q-10 0 -10 -11v-1247q0 -10 -10 -10h-174q-11 0 -11 10z" />
    <glyph glyph-name="U" unicode="U" horiz-adv-x="1271" 
d="M303 1432v-943q0 -133 94 -234q95 -101 225 -101t223 101t93 234v943q0 10 10 10h174q10 0 11 -10v-943q-1 -213 -149 -361t-361 -148t-364 148t-150 361v943q0 10 10 10h174q10 0 10 -10z" />
    <glyph glyph-name="V" unicode="V" horiz-adv-x="1402" 
d="M836 0h-261q-8 0 -12 10l-483 1422q-2 10 12 10h191q6 0 10 -10l401 -1229q2 -8 10 -8t11 8l395 1229q4 10 10 10h193q14 0 10 -10l-477 -1422q-4 -10 -10 -10z" />
    <glyph glyph-name="W" unicode="W" horiz-adv-x="1941" 
d="M1417 197q8 0 10 8l226 1227q4 10 10 10h186q14 0 13 -10l-283 -1422q-4 -10 -12 -10h-312q-6 0 -10 10l-264 1225q-2 8 -10 8t-10 -8l-265 -1225q-4 -10 -10 -10h-311q-8 0 -13 10l-282 1422q-2 10 12 10h187q6 0 10 -10l225 -1227q2 -8 10 -8t11 8l253 1227q4 10 11 10
h344q6 0 10 -10l254 -1227q2 -8 10 -8z" />
    <glyph glyph-name="X" unicode="X" horiz-adv-x="1323" 
d="M1245 0h-209q-8 0 -14 10l-352 541q-10 14 -21 0l-350 -541q-6 -10 -16 -10h-207q-12 0 -6 10l471 703q6 8 0 16l-471 703q-6 10 6 10h207q10 0 16 -10l350 -541q10 -14 21 0l352 541q8 10 20 10h203q12 0 6 -10l-471 -703q-6 -8 0 -16l471 -703q6 -10 -6 -10z" />
    <glyph glyph-name="Y" unicode="Y" horiz-adv-x="1349" 
d="M774 621v-611q0 -10 -10 -10h-174q-10 0 -10 10v611q0 4 -11 20l-483 791q-6 10 6 10h207q10 0 16 -10l351 -584q10 -14 20 0l352 584q8 10 21 10h203q12 0 6 -10l-488 -791q-6 -10 -6 -20z" />
    <glyph glyph-name="Z" unicode="Z" horiz-adv-x="1157" 
d="M51 10v144q0 18 6 26l781 1075q8 12 -4 13h-773q-10 0 -10 10v154q0 10 10 10h1004q10 0 10 -10v-144q0 -20 -4 -26l-784 -1078q-6 -10 4 -10h774q10 0 10 -10v-154q0 -10 -10 -10h-1004q-10 0 -10 10z" />
    <glyph glyph-name="bracketleft" unicode="[" horiz-adv-x="653" 
d="M262 -283h324q10 0 10 -8v-104q0 -10 -10 -11h-467q-10 0 -10 11v1827q0 10 10 10h467q10 0 10 -10v-105q0 -8 -10 -8h-324q-10 0 -10 -10v-1581q0 -11 10 -11z" />
    <glyph glyph-name="backslash" unicode="\" horiz-adv-x="1034" 
d="M350 1442q6 0 10 -6l478 -1422q4 -14 -11 -14h-151q-8 0 -10 6l-480 1421q-4 14 11 15h153z" />
    <glyph glyph-name="bracketright" unicode="]" horiz-adv-x="653" 
d="M119 -283h323q10 0 11 11v1581q0 10 -11 10h-323q-10 0 -10 8v105q0 10 10 10h467q10 0 10 -10v-1827q0 -10 -10 -11h-467q-10 0 -10 11v104q0 8 10 8z" />
    <glyph glyph-name="asciicircum" unicode="^" horiz-adv-x="1046" 
d="M940 737h-184q-6 0 -11 6l-217 471q-10 16 -20 0l-217 -471q-4 -6 -10 -6h-185q-18 0 -10 15l305 680q4 10 15 10h225q10 0 14 -10l305 -680q8 -15 -10 -15z" />
    <glyph glyph-name="underscore" unicode="_" horiz-adv-x="1294" 
d="M1151 0h-1018q-10 0 -10 10v154q0 10 10 10h1018q10 0 10 -10v-154q0 -10 -10 -10z" />
    <glyph glyph-name="grave" unicode="`" horiz-adv-x="495" 
d="M381 1206h-117q-12 0 -22 15l-148 206q-8 14 10 15h179q16 0 20 -15l88 -206q6 -15 -10 -15z" />
    <glyph glyph-name="a" unicode="a" horiz-adv-x="1230" 
d="M838 455q0 10 -11 10h-286q-150 -6 -203 -49q-53 -44 -53 -108t51 -109t164 -45q170 0 252 80t86 192v29zM1169 164v-154q0 -10 -10 -10h-74q-158 -2 -202 94q-6 16 -19 4q-45 -47 -139 -83t-223 -35q-201 0 -306 89q-106 89 -106 233t116 230t335 86h229q57 0 66 29
q2 10 2 59t-44 112t-221 65q-125 1 -187 -51t-62 -136q0 -10 -11 -10h-176q-10 0 -10 10q0 172 130 266q131 94 331 95t322 -97t122 -282v-402q0 -54 16 -78t72 -24h39q10 0 10 -10z" />
    <glyph glyph-name="b" unicode="b" horiz-adv-x="1245" 
d="M950 518q0 162 -84 263t-225 101t-219 -100t-78 -264t78 -264t219 -100t225 101t84 263zM313 0h-153q-10 0 -10 10v1422q0 10 10 10h174q10 0 10 -10v-488q0 -6 6 -9t15 5q29 33 113 75t179 42q223 -1 355 -149t133 -390q0 -242 -132 -390t-356 -148q-73 0 -161 36
t-131 80q-14 14 -21 -4l-20 -82q-5 -10 -11 -10z" />
    <glyph glyph-name="c" unicode="c" horiz-adv-x="1163" 
d="M1073 686h-182q-8 0 -12 10q-70 186 -283 187q-143 1 -227 -101t-84 -264t84 -263t227 -101q213 0 283 186q4 10 12 10h182q12 0 10 -10q-43 -172 -169 -266t-318 -94q-238 0 -372 147t-134 392t134 391t372 147q194 0 320 -95t167 -266q2 -10 -10 -10z" />
    <glyph glyph-name="d" unicode="d" horiz-adv-x="1222" 
d="M262 518q0 -162 84 -263t225 -101t220 100q78 100 77 264q0 164 -77 264t-219 100t-226 -100q-84 -102 -84 -264zM1053 0h-154q-6 0 -10 10l-21 82q-6 18 -20 4q-43 -43 -131 -80t-162 -36q-223 0 -355 148t-132 390t132 390t355 149q94 0 179 -42t114 -75q8 -8 14 -5
t6 9v488q0 10 11 10h174q10 0 10 -10v-1422q0 -10 -10 -10z" />
    <glyph glyph-name="e" unicode="e" horiz-adv-x="1187" 
d="M874 612q0 102 -73 187q-74 84 -211 84t-215 -91t-78 -180q0 -10 10 -10h557q10 0 10 10zM1087 518q0 -69 -16 -69h-764q-10 0 -10 -11q0 -116 80 -200t211 -84q184 0 260 143q4 10 14 10h182q12 0 11 -10q-39 -150 -165 -234t-302 -83q-227 0 -363 148
q-135 148 -135 392t132 390t367 146t367 -146q132 -148 131 -392z" />
    <glyph glyph-name="f" unicode="f" horiz-adv-x="706" 
d="M668 1432v-154q0 -10 -11 -10h-135q-44 0 -70 -28t-26 -75v-118q0 -10 10 -11h221q10 0 11 -10v-133q0 -10 -11 -10h-221q-10 0 -10 -11v-862q0 -10 -10 -10h-174q-10 0 -11 10v862q0 10 -10 11h-182q-10 0 -10 10v133q0 10 10 10h182q10 0 10 11v153q0 248 289 242h137
q11 0 11 -10z" />
    <glyph glyph-name="g" unicode="g" horiz-adv-x="1163" 
d="M260 518q0 -162 84 -263t225 -101t219 100t78 264t-78 264t-219 100t-225 -100q-84 -102 -84 -264zM575 -252q150 0 221 85t70 206v55q0 6 -7 9t-13 -5q-25 -34 -112 -76t-181 -42q-211 0 -349 150t-138 390t132 388t355 149q74 0 161 -35t132 -80q14 -14 20 2l21 82
q4 10 10 10h154q10 0 10 -10v-987q0 -207 -134 -336t-335 -129t-332 90t-143 215q0 10 10 10h178q6 0 10 -10q16 -47 82 -89t178 -42z" />
    <glyph glyph-name="h" unicode="h" horiz-adv-x="1163" 
d="M133 1442h174q10 0 10 -10v-496q1 -8 9 -10t14 6q98 125 268 125q225 0 336 -134t111 -350v-563q0 -10 -11 -10h-174q-10 0 -10 10v563q0 131 -65 221q-66 89 -198 89t-206 -91t-74 -219v-563q0 -10 -10 -10h-174q-10 0 -10 10v1422q0 10 10 10z" />
    <glyph glyph-name="i" unicode="i" horiz-adv-x="503" 
d="M365 1432v-215q0 -10 -11 -11h-215q-10 0 -10 11v215q0 10 10 10h215q11 0 11 -10zM344 1026v-1016q0 -10 -10 -10h-174q-10 0 -10 10v1016q0 10 10 10h174q10 0 10 -10z" />
    <glyph glyph-name="j" unicode="j" horiz-adv-x="614" 
d="M27 -395v153q0 10 10 11h121q111 0 110 102v1155q0 10 11 10h174q10 0 10 -10v-1190q0 -248 -268 -242h-158q-10 1 -10 11zM483 1432v-215q0 -10 -10 -11h-215q-10 0 -10 11v215q0 10 10 10h215q10 0 10 -10z" />
    <glyph glyph-name="k" unicode="k" horiz-adv-x="1163" 
d="M1108 0h-184q-12 0 -19 10l-325 559q-6 8 -15 0l-233 -200q-4 -4 -4 -13v-346q0 -10 -11 -10h-174q-10 0 -10 10v1422q0 10 10 10h174q10 0 11 -10v-803q0 -4 5 -6t9 2l471 401q12 10 31 10h252q4 0 6 -4t0 -6l-381 -324q-6 -6 0 -16l395 -676q6 -10 -8 -10z" />
    <glyph glyph-name="l" unicode="l" horiz-adv-x="491" 
d="M334 1432v-1422q0 -10 -10 -10h-174q-10 0 -11 10v1422q0 10 11 10h174q10 0 10 -10z" />
    <glyph glyph-name="m" unicode="m" horiz-adv-x="1785" 
d="M975 10q0 -10 -10 -10h-177q-8 0 -8 10v563q0 141 -48 225t-175 85q-127 0 -180 -87t-53 -223v-563q0 -10 -11 -10h-174q-10 0 -10 10v1016q0 10 10 10h154q6 0 10 -10l21 -92q4 -8 12 -7t12 7q26 53 96 88t161 35t149 -26t135 -97q14 -10 24 0q105 123 307 123t304 -125
t102 -359v-563q0 -10 -10 -10h-174q-10 0 -10 10v563q0 228 -110 285q-48 25 -120 25q-131 0 -179 -84t-48 -226v-563z" />
    <glyph glyph-name="n" unicode="n" horiz-adv-x="1173" 
d="M133 1036h154q6 0 10 -10l20 -92q3 -8 11 -8t12 6q90 125 268 125q213 0 330 -136t117 -348v-563q0 -10 -11 -10h-174q-10 0 -10 10v563q0 131 -65 221q-66 89 -198 89t-206 -91t-74 -219v-563q0 -10 -10 -10h-174q-10 0 -10 10v1016q0 10 10 10z" />
    <glyph glyph-name="o" unicode="o" horiz-adv-x="1206" 
d="M911 518q0 162 -84 263t-228 101t-229 -100q-85 -102 -85 -264t85 -263t229 -101t228 101t84 263zM1106 518q0 -244 -136 -391t-373 -147t-372 147t-135 391t135 391t372 147t373 -146q136 -148 136 -392z" />
    <glyph glyph-name="p" unicode="p" horiz-adv-x="1222" 
d="M930 518q0 162 -84 263t-226 101t-219 -100t-77 -264t78 -264t218 -100q141 0 226 101q84 101 84 263zM139 1036h154q6 0 10 -10l21 -84q4 -8 10 -8t10 6q41 45 129 81t164 36q223 -1 355 -149t132 -390t-132 -390t-355 -148q-94 0 -179 42t-114 74q-8 8 -14 5t-6 -9
v-487q0 -10 -11 -11h-174q-10 0 -10 11v1421q0 10 10 10z" />
    <glyph glyph-name="q" unicode="q" horiz-adv-x="1222" 
d="M262 518q0 -162 84 -263t225 -101t220 100q78 100 77 264q0 164 -77 264t-219 100t-226 -100q-84 -102 -84 -264zM899 1036h154q10 0 10 -10v-1421q0 -10 -10 -11h-174q-10 0 -11 11v487q0 6 -6 9t-14 -5q-29 -32 -114 -74t-179 -42q-223 0 -355 148t-132 390t132 390
t355 149q76 0 164 -36t129 -81q4 -6 10 -6t10 8l21 84q4 10 10 10z" />
    <glyph glyph-name="r" unicode="r" horiz-adv-x="765" 
d="M698 883h-104q-123 0 -197 -91t-73 -219v-563q0 -10 -11 -10h-174q-10 0 -10 10v1016q0 10 10 10h154q6 0 10 -10l21 -92q6 -18 22 -2q125 125 248 125h104q10 0 11 -10v-154q-1 -10 -11 -10z" />
    <glyph glyph-name="s" unicode="s" horiz-adv-x="1097" 
d="M958 686h-176q-10 0 -10 10q0 86 -66 137q-67 50 -183 50t-172 -39t-56 -91q1 -52 25 -70q24 -19 46 -32q24 -14 201 -34q176 -20 273 -62q156 -70 156 -242t-124 -253q-122 -80 -336 -80t-334 102t-120 258q0 10 10 10h172q12 0 12 -10q0 -80 74 -133t195 -53
q256 0 256 155q0 41 -25 66t-51 34q-25 9 -37 13t-39 8t-52 9t-52 5q-229 28 -298 68q-102 57 -129 131q-17 47 -18 109q0 129 115 217t307 88t319 -93q126 -93 126 -268q-1 -10 -9 -10z" />
    <glyph glyph-name="t" unicode="t" horiz-adv-x="727" 
d="M668 164v-154q0 -10 -11 -10h-157q-268 -6 -269 242v630q0 10 -10 11h-182q-10 0 -10 10v133q0 10 10 10h182q10 0 10 11v276q0 10 11 10h174q10 0 10 -10v-276q0 -10 10 -11h221q10 0 11 -10v-133q0 -10 -11 -10h-221q-10 0 -10 -11v-596q0 -102 111 -102h120
q11 0 11 -10z" />
    <glyph glyph-name="u" unicode="u" horiz-adv-x="1144" 
d="M1020 0h-154q-6 0 -10 10l-20 92q-4 8 -12 8t-11 -6q-33 -47 -105 -86t-163 -38q-238 0 -342 132t-105 351v563q0 10 11 10h174q10 0 10 -10v-563q-1 -131 65 -220t198 -89t206 91t74 218v563q0 10 10 10h174q10 0 10 -10v-1016q0 -10 -10 -10z" />
    <glyph glyph-name="v" unicode="v" horiz-adv-x="1163" 
d="M696 0h-260q-8 0 -12 10l-346 1016q-2 10 12 10h186q6 0 11 -10l268 -823q2 -8 10 -8t10 8l271 823q4 10 10 10h186q14 0 11 -10l-346 -1016q-5 -10 -11 -10z" />
    <glyph glyph-name="w" unicode="w" horiz-adv-x="1658" 
d="M1321 0h-260q-6 0 -10 10l-199 817q-2 9 -10 9t-11 -9l-196 -817q-4 -10 -10 -10h-260q-8 0 -13 10l-243 1016q-2 10 12 10h174q6 0 10 -10l178 -823q3 -8 11 -8t10 8l203 823q4 10 10 10h252q6 0 10 -10l203 -823q2 -8 10 -8t10 8l178 823q4 10 11 10h174q14 0 12 -10
l-244 -1016q-4 -10 -12 -10z" />
    <glyph glyph-name="x" unicode="x" horiz-adv-x="1091" 
d="M1036 0h-207q-10 0 -16 10l-258 344q-8 8 -16 0l-260 -344q-8 -10 -17 -10h-203q-4 0 -6 4t2 6l371 492q6 10 0 20l-371 504q-6 10 4 10h197q8 0 16 -10l265 -354q10 -14 20 0l264 354q6 10 17 10h196q12 0 6 -10l-374 -504q-6 -10 0 -20l374 -492q4 -2 2 -6t-6 -4z" />
    <glyph glyph-name="y" unicode="y" horiz-adv-x="1107" 
d="M76 -242q0 10 10 11h231q88 0 119 51t2 135l-364 1071q-2 10 12 10h186q6 0 11 -10l268 -823q2 -8 10 -8t10 8l271 823q4 10 10 10h186q14 0 11 -10l-410 -1204q-45 -129 -105 -178t-182 -50h-266q-10 0 -10 11v153z" />
    <glyph glyph-name="z" unicode="z" horiz-adv-x="978" 
d="M72 10v154q0 8 8 20l549 662q4 2 1 9t-9 7h-517q-10 0 -10 10v154q0 10 10 10h756q10 0 10 -10v-154q0 -10 -8 -20l-545 -662q-4 -4 -1 -10t10 -6h561q10 0 10 -10v-154q0 -10 -10 -10h-805q-10 0 -10 10z" />
    <glyph glyph-name="braceleft" unicode="{" horiz-adv-x="958" 
d="M768 -291v-104q0 -10 -10 -11h-113q-141 0 -198 69q-56 69 -56 220v465q0 45 -32 77t-76 32h-113q-10 0 -10 10v102q0 10 10 11h113q43 0 75 32t33 78v461q0 151 56 221t198 70h113q10 0 10 -10v-105q0 -8 -10 -8h-113q-45 0 -78 -33t-32 -78v-456q0 -80 -22 -131
t-43 -67q-22 -15 -56 -32q-8 -4 0 -8q121 -53 121 -227v-459q1 -45 33 -78t77 -33h113q10 0 10 -8z" />
    <glyph glyph-name="bar" unicode="|" horiz-adv-x="411" 
d="M260 -406h-141q-8 0 -8 11v1827q0 10 8 10h141q10 0 10 -10v-1827q0 -11 -10 -11z" />
    <glyph glyph-name="braceright" unicode="}" horiz-adv-x="958" 
d="M160 -395v104q0 8 10 8h113q45 0 77 33t33 78v459q0 174 121 227q8 4 0 8q-34 16 -56 32t-44 66q-22 52 -21 132v456q0 45 -33 78t-77 33h-113q-10 0 -10 8v105q0 10 10 10h113q141 0 197 -70t57 -221v-461q1 -45 33 -78t75 -32h113q10 0 10 -11v-102q0 -10 -10 -10h-113
q-45 0 -77 -32t-31 -77v-465q-1 -153 -57 -221t-197 -68h-113q-10 1 -10 11z" />
    <glyph glyph-name="asciitilde" unicode="~" horiz-adv-x="1046" 
d="M977 662v-56q0 -92 -70 -154t-168 -62t-250 71q-153 71 -187 71t-58 -22t-23 -49v-62q0 -10 -10 -10l-154 41q-10 4 -10 10v52q0 96 69 158t169 62t250 -72q149 -73 185 -73t60 22t23 48v65q0 10 10 11l154 -41q10 -4 10 -10z" />
    <glyph glyph-name="DEL" horiz-adv-x="542" 
 />
    <glyph glyph-name="nbspace" unicode="&#xa0;" horiz-adv-x="542" 
 />
    <glyph glyph-name="exclamdown" unicode="&#xa1;" horiz-adv-x="495" 
d="M117 1442h245q10 0 11 -10v-250q0 -10 -11 -11h-245q-10 0 -11 11v250q1 10 11 10zM174 1016h131q10 0 10 -10l21 -600v-396q0 -10 -10 -10h-172q-10 0 -11 10v396l21 600q0 10 10 10z" />
    <glyph glyph-name="cent" unicode="&#xa2;" horiz-adv-x="1099" 
d="M260 517q0 -136 57 -229t166 -122q14 -4 15 10v684q0 14 -15 10q-106 -29 -165 -122q-58 -95 -58 -231zM1049 686h-185q-6 0 -10 10q-53 137 -178 172q-16 6 -17 -10v-680q0 -14 15 -10q131 37 180 172q4 10 10 10h185q12 0 10 -10q-80 -311 -391 -354q-10 0 -11 -9v-172
q0 -10 -10 -10h-141q-8 0 -8 10v170q0 8 -6 11q-201 23 -314 166t-112 366q0 223 111 366q112 142 315 167q6 2 6 10v172q0 10 8 10h141q10 0 10 -10v-176q0 -4 5 -8q156 -19 258 -111t139 -242q2 -10 -10 -10z" />
    <glyph glyph-name="sterling" unicode="&#xa3;" horiz-adv-x="1261" 
d="M1174 0h-1096q-10 0 -10 10v154q0 10 10 10h69q111 0 111 102v371q0 10 -10 10h-170q-10 0 -10 11v153q0 10 10 10h170q10 0 10 11v209q0 190 129 301q129 110 329 110t330 -106t138 -309q0 -10 -10 -11h-185q-10 0 -10 11q0 109 -69 175q-70 66 -194 66t-194 -66
t-69 -171v-209q0 -10 10 -11h258q10 0 10 -10v-153q0 -10 -10 -11h-258q-10 0 -10 -10v-371q0 -53 -27 -92q-6 -10 4 -10h549q10 0 10 10v217q0 10 10 11h175q10 0 10 -11v-391q0 -10 -10 -10z" />
    <glyph glyph-name="currency" unicode="&#xa4;" horiz-adv-x="1310" 
d="M965 717q0 162 -84 263q-85 101 -229 101t-229 -101t-85 -263t85 -263q85 -102 229 -102t228 102t85 263zM143 717q0 172 70 299q6 10 -2 18l-141 144q-10 6 0 14l108 108q6 10 15 0l129 -131q12 -12 22 -4q135 90 311 90t299 -88q14 -10 27 2l131 131q6 10 14 0
l109 -108q10 -8 0 -14l-143 -144q-8 -8 -2 -20q70 -135 70 -304t-73 -296q-4 -6 5 -15l143 -141q10 -8 0 -14l-109 -109q-8 -10 -14 0l-133 131q-10 10 -25 0q-123 -88 -305 -88t-307 88q-10 8 -18 0l-131 -131q-8 -10 -15 0l-108 109q-10 6 0 14l141 141q8 8 2 17
q-70 129 -70 301z" />
    <glyph glyph-name="yen" unicode="&#xa5;" horiz-adv-x="1349" 
d="M774 610v-194q0 -10 10 -10h414q10 0 10 -11v-164q0 -10 -10 -10h-414q-10 0 -10 -10v-201q0 -10 -10 -10h-174q-10 0 -10 10v201q0 10 -11 10h-389q-10 0 -10 10v164q0 10 10 11h389q10 0 11 10l-11 205h-389q-10 0 -10 10v164q0 10 10 10h279q10 0 4 10l-377 617
q-6 10 6 10h207q10 0 16 -10l353 -586q8 -12 16 0l354 586q8 10 21 10h203q12 0 6 -10l-381 -617q-6 -10 2 -10h309q10 0 10 -10v-164q0 -10 -10 -10h-414q-10 -1 -10 -11z" />
    <glyph glyph-name="brokenbar" unicode="&#xa6;" horiz-adv-x="432" 
d="M281 -403h-142q-8 0 -8 10v821q0 10 8 10h142q10 0 10 -10v-821q0 -10 -10 -10zM281 600h-142q-8 0 -8 10v822q0 10 8 10h142q10 0 10 -10v-822q0 -10 -10 -10z" />
    <glyph glyph-name="section" unicode="&#xa7;" horiz-adv-x="1259" 
d="M958 532q-27 80 -156 126q-46 16 -200 54t-199 58q-106 -39 -125 -162t70 -182q47 -31 93 -47q47 -16 199 -55t200 -58q106 37 125 154q10 66 -7 112zM350 -10q0 -106 78 -174t203 -68t193 50t69 125q0 75 -51 120q-51 44 -101 61q-49 16 -71 24t-70 18q-364 82 -459 202
q-37 47 -58 123q-22 76 -7 172q20 154 131 246q8 8 0 16q-61 84 -62 207q1 160 133 255t332 95t340 -108q139 -108 148 -307q0 -10 -11 -11h-184q-10 0 -10 11q0 106 -78 174q-78 67 -203 67q-126 0 -194 -50t-68 -124t51 -120q51 -45 101 -62q48 -16 70 -24t71 -18
q49 -11 103 -26t113 -34q58 -19 132 -57t111 -85q36 -47 58 -123t7 -172q-27 -162 -131 -248q-6 -6 0 -16q61 -88 62 -205q0 -160 -132 -255t-333 -95t-340 108t-148 308q0 10 11 10h184q10 0 10 -10z" />
    <glyph glyph-name="dieresis" unicode="&#xa8;" horiz-adv-x="868" 
d="M786 1432v-213q0 -10 -10 -11h-215q-10 0 -10 11v213q0 10 10 10h215q10 0 10 -10zM287 1432v-213q0 -10 -11 -11h-215q-10 0 -10 11v213q0 10 10 10h215q11 0 11 -10z" />
    <glyph glyph-name="copyright" unicode="&#xa9;" horiz-adv-x="1609" 
d="M1032 559h105q10 0 10 -10q1 -80 -103 -176q-104 -97 -277 -97t-278 123q-104 123 -104 322t104 321q103 122 279 123q176 0 278 -101t101 -175q0 -6 -6 -6h-109q-4 0 -8 6q-59 172 -248 172q-128 0 -198 -90t-70 -250t71 -250t191 -90t178 53t76 119q4 6 8 6zM1442 722
q0 271 -193 465q-193 193 -464 193t-463 -194t-193 -464q0 -271 193 -465q194 -194 464 -194t463 194t193 465zM1503 722q0 -298 -211 -510t-508 -212q-296 0 -506 212t-210 510t210 509t506 211t508 -211q211 -211 211 -509z" />
    <glyph glyph-name="ordfeminine" unicode="&#xaa;" horiz-adv-x="540" 
d="M115 1047q-1 -85 131 -85q76 0 122 45q44 44 46 103v16q0 6 -6 7h-154q-139 -8 -139 -86zM592 969v-82q0 -6 -4 -6h-41q-84 -2 -109 51q-4 10 -10 2q-58 -64 -182 -64t-180 48t-56 127q0 77 62 123t182 46h123q25 0 31 8t6 27q0 109 -144 109q-68 0 -102 -28t-33 -73
q0 -6 -4 -6h-96q-6 0 -6 6q0 92 70 144q71 51 179 51t175 -52q66 -52 65 -153v-217q0 -31 8 -43t39 -12h23q4 0 4 -6z" />
    <glyph glyph-name="guillemotleft" unicode="&#xab;" horiz-adv-x="1179" 
d="M1100 0h-152q-6 0 -10 6l-434 504q-6 10 0 18l434 504q4 6 10 6h152q14 0 10 -14l-434 -496q-6 -8 0 -18l434 -496q4 -14 -10 -14zM721 0h-152q-8 0 -10 6l-434 504q-6 10 0 18l434 504q2 6 10 6h152q14 0 10 -14l-434 -496q-6 -8 0 -18l434 -496q4 -14 -10 -14z" />
    <glyph glyph-name="logicalnot" unicode="&#xac;" horiz-adv-x="1302" 
d="M129 608h1016q10 0 10 -10v-586q0 -10 -10 -10h-174q-10 0 -10 10v391q0 10 -11 11h-821q-10 0 -10 10v174q0 10 10 10z" />
    <glyph glyph-name="uni00AD" unicode="&#xad;" 
d="M123 96l354 625l-354 625v-1250zM530 721l355 -623v1245q-240 -415 -355 -622zM150 49h708l-354 625zM504 768l354 627h-708zM934 1432v-1422q0 -10 -10 -10h-842q-10 0 -10 10v1422q0 10 10 10h842q10 0 10 -10z" />
    <glyph glyph-name="registered" unicode="&#xae;" horiz-adv-x="1609" 
d="M866 1049h-293q-10 0 -10 -11v-290q0 -10 10 -11h297q57 2 102 47q44 46 44 108t-46 110t-104 47zM446 1143q0 10 11 10h424q102 0 177 -77t75 -170q0 -182 -144 -247q-4 -2 -5 -7t1 -7l156 -344q6 -12 -8 -12h-97q-16 0 -20 10l-142 326q-2 8 -14 8h-291q-6 0 -6 -6
v-328q0 -10 -10 -10h-96q-10 0 -11 10v844zM1442 722q0 271 -194 466q-194 194 -464 194t-462 -194t-193 -466q0 -271 193 -465q194 -194 464 -194t463 194t193 465zM1503 722q0 -298 -211 -510t-508 -212q-296 0 -506 212t-210 510t210 510t506 212t508 -212
q211 -212 211 -510z" />
    <glyph glyph-name="macron" unicode="&#xaf;" horiz-adv-x="675" 
d="M584 1206h-504q-8 0 -8 11v118q0 10 8 11h504q10 0 10 -11v-118q0 -11 -10 -11z" />
    <glyph glyph-name="degree" unicode="&#xb0;" horiz-adv-x="778" 
d="M195 1148q0 -79 55 -134q55 -56 134 -56t134 56t55 134q0 79 -55 134t-134 55t-134 -55t-55 -134zM68 1148q0 132 92 224t224 92t224 -93t92 -224t-92 -223t-225 -92t-224 92t-91 224z" />
    <glyph glyph-name="plusminus" unicode="&#xb1;" horiz-adv-x="1294" 
d="M727 819v-405q0 -10 -10 -11h-172q-10 0 -10 11v405q0 10 -11 10h-391q-10 0 -10 11v164q0 10 10 10h391q10 0 11 10v406q0 10 10 10h172q10 0 10 -10v-406q0 -10 10 -10h414q10 0 10 -10v-164q0 -10 -10 -11h-414q-10 0 -10 -10zM1151 0h-1018q-10 0 -10 10v154
q0 10 10 10h1018q10 0 10 -10v-154q0 -10 -10 -10z" />
    <glyph glyph-name="twosuperior" unicode="&#xb2;" horiz-adv-x="757" 
d="M109 657v76q0 12 4 17l307 299q96 88 94 157q0 50 -38 96t-104 46t-106 -39t-39 -92q0 -6 -6 -7h-94q-6 0 -6 7q0 98 69 161q70 64 182 64t180 -68t66 -168q0 -51 -26 -103q-26 -51 -43 -69q-16 -18 -53 -55l-242 -225q-6 -6 4 -9h356q4 0 4 -6v-82q0 -6 -4 -6h-499
q-6 0 -6 6z" />
    <glyph glyph-name="threesuperior" unicode="&#xb3;" horiz-adv-x="759" 
d="M311 1094q0 6 6 6h39q63 0 103 35q39 35 39 86t-40 89t-100 37t-100 -41q-41 -40 -39 -89q0 -6 -6 -7h-94q-6 0 -6 7q0 96 68 159q69 62 177 64t176 -60t68 -144q0 -81 -38 -123t-70 -52q-4 -2 -4 -6t4 -6q41 -15 84 -63t43 -136t-72 -148t-191 -61q-118 -1 -184 63
t-65 158q0 4 4 4h94q6 0 6 -4q0 -51 37 -90q38 -39 106 -39t114 37t46 96q0 60 -45 100t-115 40h-39q-6 0 -6 4v84z" />
    <glyph glyph-name="acute" unicode="&#xb4;" horiz-adv-x="495" 
d="M221 1206h-117q-18 0 -10 15l88 206q4 14 21 15h178q16 0 10 -15l-147 -206q-11 -15 -23 -15z" />
    <glyph glyph-name="mu" unicode="&#xb5;" 
d="M123 96l354 625l-354 625v-1250zM530 721l355 -623v1245q-240 -415 -355 -622zM150 49h708l-354 625zM504 768l354 627h-708zM934 1432v-1422q0 -10 -10 -10h-842q-10 0 -10 10v1422q0 10 10 10h842q10 0 10 -10z" />
    <glyph glyph-name="paragraph" unicode="&#xb6;" horiz-adv-x="1169" 
d="M451 -395v1032q0 10 -11 10q-154 0 -264 117q-110 118 -108 278q0 160 105 276t261 124h590q10 0 10 -10v-1827q0 -10 -10 -11h-174q-10 0 -10 11v1673q0 10 -11 10h-174q-10 0 -10 -10v-1673q0 -10 -10 -11h-174q-10 1 -10 11z" />
    <glyph glyph-name="periodcentered" unicode="&#xb7;" horiz-adv-x="450" 
d="M362 565h-305q-10 0 -10 10v310q0 10 10 10h305q10 0 11 -10v-310q-1 -10 -11 -10z" />
    <glyph glyph-name="cedilla" unicode="&#xb8;" horiz-adv-x="589" 
d="M430 10q14 0 10 -10l-125 -92q-4 -2 -3 -9t10 -8q61 -1 111 -39t50 -109t-55 -120t-145 -49t-139 49q-48 49 -48 117q0 10 10 10h68q10 0 10 -22t27 -50q27 -26 71 -26t72 26t27 71q0 44 -35 68q-35 23 -70 23t-40 6l-17 17q-14 14 -2 24l102 84q4 12 -10 13q-10 0 -14 6
t0 13t14 7h121z" />
    <glyph glyph-name="onesuperior" unicode="&#xb9;" horiz-adv-x="561" 
d="M317 1376v60q0 6 7 6h94q4 0 4 -6v-766q0 -6 -4 -6h-94q-6 0 -7 6v520q0 33 -34 33h-168q-6 0 -6 6v78q0 4 6 4h137q27 0 46 19t19 46z" />
    <glyph glyph-name="ordmasculine" unicode="&#xba;" horiz-adv-x="583" 
d="M455 1154q0 89 -45 143q-45 55 -123 55t-124 -54t-46 -143q0 -88 46 -143q46 -56 124 -56t123 54t45 144zM561 1155q0 -131 -74 -211q-73 -80 -201 -80t-201 79t-73 211t73 212t201 80t202 -80t73 -211z" />
    <glyph glyph-name="guillemotright" unicode="&#xbb;" horiz-adv-x="1179" 
d="M510 1038h152q6 0 10 -6l434 -504q6 -8 0 -18l-434 -504q-4 -6 -10 -6h-152q-14 0 -10 14l434 496q6 10 0 18l-434 496q-4 14 10 14zM131 1038h152q8 0 10 -6l434 -504q6 -8 0 -18l-434 -504q-2 -6 -10 -6h-152q-14 0 -10 14l434 496q6 10 0 18l-434 496q-4 14 10 14z
" />
    <glyph glyph-name="onequarter" unicode="&#xbc;" horiz-adv-x="1425" 
d="M1024 272q6 0 6 7v323q0 4 -5 5t-7 -3l-238 -323q-4 -8 6 -9h238zM1036 778h92q6 0 7 -6v-493q0 -6 6 -7h123q4 0 4 -6v-82q0 -6 -4 -6h-123q-6 0 -6 -6v-166q0 -6 -7 -6h-94q-4 0 -4 6v166q0 6 -6 6h-365q-4 0 -4 6v88l2 7l367 493q4 6 12 6zM317 1378v60q0 6 7 6h94
q4 0 4 -6v-766q0 -6 -4 -6h-94q-6 0 -7 6v520q0 33 -34 33h-168q-6 0 -6 6v78q0 4 6 4h137q27 0 46 19t19 46zM1065 1442h111q16 0 8 -17l-873 -1421q-4 -4 -8 -4h-106q-17 0 -9 16l869 1422q4 4 8 4z" />
    <glyph glyph-name="onehalf" unicode="&#xbd;" horiz-adv-x="1478" 
d="M829 6v76q0 12 5 16l307 299q96 88 94 158q0 51 -38 96q-39 45 -105 45t-105 -39t-39 -92q0 -6 -6 -6h-94q-6 0 -6 6q0 98 69 162q69 63 181 63t180 -67q68 -68 67 -168q-1 -51 -27 -103t-42 -70t-53 -54l-242 -226q-2 -2 -1 -5t5 -3h356q4 0 4 -6v-82q0 -6 -4 -6h-499
q-7 0 -7 6zM317 1376v60q0 6 7 6h94q4 0 4 -6v-766q0 -6 -4 -6h-94q-6 0 -7 6v520q0 33 -34 33h-168q-6 0 -6 6v78q0 4 6 4h137q27 0 46 19t19 46zM1044 1442h111q16 0 8 -17l-872 -1421q-4 -4 -8 -4h-107q-16 0 -8 16l868 1422q4 4 8 4z" />
    <glyph glyph-name="threequarters" unicode="&#xbe;" horiz-adv-x="1554" 
d="M1153 272q6 0 6 7v323q0 4 -4 5t-8 -3l-238 -323q-4 -8 6 -9h238zM1165 778h92q6 0 7 -6v-493q0 -6 6 -7h123q4 0 4 -6v-82q0 -6 -4 -6h-123q-6 0 -6 -6v-166q0 -6 -7 -6h-94q-4 0 -4 6v166q0 6 -6 6h-365q-4 0 -4 6v76q0 6 2 12v7l367 493q4 6 12 6zM311 1094q0 6 6 6
h39q63 0 103 35q39 35 39 86t-40 89t-100 37t-100 -41q-41 -40 -39 -89q0 -6 -6 -7h-94q-6 0 -6 7q0 96 68 159q69 62 177 64t176 -60t68 -144q0 -81 -38 -123t-70 -52q-4 -2 -4 -6t4 -6q41 -15 84 -63t43 -136t-72 -148t-191 -61q-118 -1 -184 63t-65 158q0 4 4 4h94
q6 0 6 -4q0 -51 37 -90q38 -39 106 -39t114 37t46 96q0 60 -45 100t-115 40h-39q-6 0 -6 4v84zM1198 1442h111q16 0 8 -17l-873 -1421q-4 -4 -8 -4h-106q-16 0 -8 16l868 1422q4 4 8 4z" />
    <glyph glyph-name="questiondown" unicode="&#xbf;" horiz-adv-x="1046" 
d="M395 1442h246q10 0 10 -10v-250q0 -10 -10 -11h-246q-10 0 -10 11v250q0 10 10 10zM983 375q0 -174 -127 -285q-127 -110 -334 -110t-339 120t-132 302q0 181 138 289q65 50 194 114q31 16 37 53v146q0 10 10 10h174q10 0 10 -10v-162q0 -134 -142 -194t-185 -116
t-43 -142q0 -87 77 -162q77 -74 203 -74t195 64q70 64 69 157v20q0 10 11 11h174q10 0 10 -11v-20z" />
    <glyph glyph-name="Agrave" unicode="&#xc0;" horiz-adv-x="1396" 
d="M750 1604h-117q-12 0 -23 14l-147 207q-8 14 10 14h178q16 0 21 -14l88 -207q6 -14 -10 -14zM457 477h485q12 0 8 10l-239 750q-3 8 -11 8t-10 -8l-241 -750q-4 -10 8 -10zM575 1442h252q8 0 13 -10l477 -1422q4 -10 -10 -10h-193q-6 0 -10 10l-94 293q-2 10 -15 10h-594
q-8 0 -12 -10l-96 -293q-4 -10 -10 -10h-191q-14 0 -12 10l483 1422q4 10 12 10z" />
    <glyph glyph-name="Aacute" unicode="&#xc1;" horiz-adv-x="1396" 
d="M774 1604h-117q-18 0 -10 14l88 207q4 14 21 14h178q16 0 10 -14l-147 -207q-11 -14 -23 -14zM457 477h485q12 0 8 10l-239 750q-3 8 -11 8t-10 -8l-241 -750q-4 -10 8 -10zM575 1442h252q8 0 13 -10l477 -1422q4 -10 -10 -10h-193q-6 0 -10 10l-94 293q-2 10 -15 10
h-594q-8 0 -12 -10l-96 -293q-4 -10 -10 -10h-191q-14 0 -12 10l483 1422q4 10 12 10z" />
    <glyph glyph-name="Acircumflex" unicode="&#xc2;" horiz-adv-x="1396" 
d="M899 1604h-123q-6 0 -12 8l-59 84q-10 18 -23 0l-59 -84q-6 -8 -13 -8h-123q-16 0 -10 14l90 213q2 8 11 8h233q8 0 10 -8l88 -213q8 -14 -10 -14zM457 477h485q12 0 8 10l-239 750q-3 8 -11 8t-10 -8l-241 -750q-4 -10 8 -10zM575 1442h252q8 0 13 -10l477 -1422
q4 -10 -10 -10h-193q-6 0 -10 10l-94 293q-2 10 -15 10h-594q-8 0 -12 -10l-96 -293q-4 -10 -10 -10h-191q-14 0 -12 10l483 1422q4 10 12 10z" />
    <glyph glyph-name="Atilde" unicode="&#xc3;" horiz-adv-x="1396" 
d="M395 1614v47q0 68 50 122t146 54t187 -71q31 -24 46 -24q16 0 26 3q10 2 24 21t15 61q0 10 10 10h123q10 0 10 -10v-49q0 -66 -50 -120t-159 -54q-61 0 -132 47t-87 47t-26 -2t-24 -22t-15 -60q0 -10 -11 -10h-122q-11 0 -11 10zM457 477h485q12 0 8 10l-239 750
q-3 8 -11 8t-10 -8l-241 -750q-4 -10 8 -10zM575 1442h252q8 0 13 -10l477 -1422q4 -10 -10 -10h-193q-6 0 -10 10l-94 293q-2 10 -15 10h-594q-8 0 -12 -10l-96 -293q-4 -10 -10 -10h-191q-14 0 -12 10l483 1422q4 10 12 10z" />
    <glyph glyph-name="Adieresis" unicode="&#xc4;" horiz-adv-x="1396" 
d="M1061 1829v-215q0 -10 -10 -10h-215q-10 0 -11 10v215q0 10 11 10h215q10 0 10 -10zM561 1829v-215q0 -10 -10 -10h-215q-10 0 -10 10v215q0 10 10 10h215q10 0 10 -10zM457 477h485q12 0 8 10l-239 750q-3 8 -11 8t-10 -8l-241 -750q-4 -10 8 -10zM575 1442h252
q8 0 13 -10l477 -1422q4 -10 -10 -10h-193q-6 0 -10 10l-94 293q-2 10 -15 10h-594q-8 0 -12 -10l-96 -293q-4 -10 -10 -10h-191q-14 0 -12 10l483 1422q4 10 12 10z" />
    <glyph glyph-name="Aring" unicode="&#xc5;" horiz-adv-x="1396" 
d="M788 1686q0 40 -26 66t-66 26t-66 -27t-26 -65t27 -66q27 -27 65 -27t66 27q26 27 26 66zM877 1686q1 -74 -53 -126t-128 -52t-126 52t-52 126t52 126t126 54q74 0 128 -53t53 -127zM457 477h485q12 0 8 10l-239 750q-3 8 -11 8t-10 -8l-241 -750q-4 -10 8 -10zM575 1442
h252q8 0 13 -10l477 -1422q4 -10 -10 -10h-193q-6 0 -10 10l-94 293q-2 10 -15 10h-594q-8 0 -12 -10l-96 -293q-4 -10 -10 -10h-191q-14 0 -12 10l483 1422q4 10 12 10z" />
    <glyph glyph-name="AE" unicode="&#xc6;" horiz-adv-x="2076" 
d="M973 479v758q-7 20 -15 0l-430 -758h445zM860 1442h1088q10 0 10 -10v-154q0 -10 -10 -10h-770q-10 0 -11 -11v-428q0 -10 11 -10h686q10 0 10 -10v-154q0 -10 -10 -10h-686q-10 0 -11 -10v-451q0 -10 11 -10h770q10 0 10 -10v-154q0 -10 -10 -10h-967q-8 0 -8 10v305
h-539l-172 -305q-4 -10 -10 -10h-191q-14 0 -12 10l799 1422q4 10 12 10z" />
    <glyph glyph-name="Ccedilla" unicode="&#xc7;" horiz-adv-x="1398" 
d="M1323 451q10 0 10 -11q0 -118 -114 -260q-57 -72 -159 -127t-233 -69l-108 -76q-4 -2 -3 -9t9 -8q61 0 112 -38q50 -39 50 -110q1 -71 -55 -120t-146 -49t-138 49t-48 117q0 10 10 10h68q10 0 10 -22t28 -50q28 -26 70 -26q43 0 71 26q27 26 27 71q0 44 -34 68
q-35 23 -70 23t-41 6l-16 17q-12 14 -2 24l96 74q6 2 4 10t-10 9q-299 0 -457 204t-158 537t173 537t474 204q156 0 279 -55t185 -134q128 -163 126 -272q0 -10 -10 -10h-180q-10 0 -15 10q-100 287 -385 287q-213 0 -327 -150t-115 -417q0 -268 115 -418t327 -149
q164 0 258 88t127 198q2 10 15 11h180z" />
    <glyph glyph-name="Egrave" unicode="&#xc8;" horiz-adv-x="1253" 
d="M760 1604h-117q-12 0 -22 14l-148 207q-6 14 10 14h179q16 0 20 -14l88 -207q8 -14 -10 -14zM129 1432q0 10 10 10h985q10 0 11 -10v-154q0 -10 -11 -10h-790q-10 0 -10 -11v-417q0 -10 10 -11h706q10 0 11 -10v-153q0 -10 -11 -11h-706q-10 0 -10 -10v-461q0 -10 10 -10
h790q10 0 11 -10v-154q0 -10 -11 -10h-985q-10 0 -10 10v1422z" />
    <glyph glyph-name="Eacute" unicode="&#xc9;" horiz-adv-x="1253" 
d="M641 1604h-117q-16 0 -10 14l88 207q4 14 21 14h178q18 0 10 -14l-147 -207q-11 -14 -23 -14zM129 1432q0 10 10 10h985q10 0 11 -10v-154q0 -10 -11 -10h-790q-10 0 -10 -11v-417q0 -10 10 -11h706q10 0 11 -10v-153q0 -10 -11 -11h-706q-10 0 -10 -10v-461
q0 -10 10 -10h790q10 0 11 -10v-154q0 -10 -11 -10h-985q-10 0 -10 10v1422z" />
    <glyph glyph-name="Ecircumflex" unicode="&#xca;" horiz-adv-x="1253" 
d="M848 1604h-123q-6 0 -12 8l-60 84q-10 18 -22 0l-60 -84q-6 -8 -12 -8h-123q-18 0 -10 14l90 213q2 8 10 8h234q8 0 10 -8l88 -213q6 -14 -10 -14zM129 1432q0 10 10 10h985q10 0 11 -10v-154q0 -10 -11 -10h-790q-10 0 -10 -11v-417q0 -10 10 -11h706q10 0 11 -10v-153
q0 -10 -11 -11h-706q-10 0 -10 -10v-461q0 -10 10 -10h790q10 0 11 -10v-154q0 -10 -11 -10h-985q-10 0 -10 10v1422z" />
    <glyph glyph-name="Edieresis" unicode="&#xcb;" horiz-adv-x="1253" 
d="M989 1829v-215q0 -10 -10 -10h-215q-10 0 -10 10v215q0 10 10 10h215q10 0 10 -10zM489 1829v-215q0 -10 -10 -10h-215q-10 0 -10 10v215q0 10 10 10h215q10 0 10 -10zM129 1432q0 10 10 10h985q10 0 11 -10v-154q0 -10 -11 -10h-790q-10 0 -10 -11v-417q0 -10 10 -11
h706q10 0 11 -10v-153q0 -10 -11 -11h-706q-10 0 -10 -10v-461q0 -10 10 -10h790q10 0 11 -10v-154q0 -10 -11 -10h-985q-10 0 -10 10v1422z" />
    <glyph glyph-name="Igrave" unicode="&#xcc;" horiz-adv-x="483" 
d="M293 1604h-117q-12 0 -22 14l-148 207q-6 14 10 14h179q16 0 20 -14l88 -207q8 -14 -10 -14zM139 1442h174q10 0 11 -10v-1422q0 -10 -11 -10h-174q-10 0 -10 10v1422q0 10 10 10z" />
    <glyph glyph-name="Iacute" unicode="&#xcd;" horiz-adv-x="483" 
d="M289 1604h-117q-16 0 -10 14l88 207q4 14 20 14h179q18 0 10 -14l-148 -207q-10 -14 -22 -14zM139 1442h174q10 0 11 -10v-1422q0 -10 -11 -10h-174q-10 0 -10 10v1422q0 10 10 10z" />
    <glyph glyph-name="Icircumflex" unicode="&#xce;" horiz-adv-x="483" 
d="M442 1604h-123q-6 0 -12 8l-59 84q-10 18 -23 0l-59 -84q-6 -8 -12 -8h-123q-18 0 -11 14l91 213q2 8 10 8h233q8 0 11 -8l88 -213q5 -14 -11 -14zM139 1442h174q10 0 11 -10v-1422q0 -10 -11 -10h-174q-10 0 -10 10v1422q0 10 10 10z" />
    <glyph glyph-name="Idieresis" unicode="&#xcf;" horiz-adv-x="483" 
d="M604 1829v-215q0 -10 -10 -10h-215q-10 0 -10 10v215q0 10 10 10h215q10 0 10 -10zM104 1829v-215q0 -10 -10 -10h-215q-10 0 -10 10v215q0 10 10 10h215q10 0 10 -10zM139 1442h174q10 0 11 -10v-1422q0 -10 -11 -10h-174q-10 0 -10 10v1422q0 10 10 10z" />
    <glyph glyph-name="Eth" unicode="&#xd0;" horiz-adv-x="1435" 
d="M678 616h-316q-10 0 -10 -10v-422q0 -10 10 -10h334q207 0 322 137t115 395t-116 410t-321 152h-334q-10 0 -10 -11v-456q0 -10 10 -10h316q10 0 10 -11v-153q0 -11 -10 -11zM158 10v596q0 10 -11 10h-110q-10 0 -10 11v153q0 10 10 11h110q10 0 11 10v631q0 10 10 10
h528q314 -2 478 -202t164 -534t-163 -520t-479 -186h-528q-10 0 -10 10z" />
    <glyph glyph-name="Ntilde" unicode="&#xd1;" horiz-adv-x="1419" 
d="M397 1624v47q0 68 50 122t144 54t189 -70q31 -24 46 -24q16 0 26 2q10 1 24 21t15 61q0 10 10 10h123q10 0 10 -10v-49q0 -66 -50 -120t-159 -54q-61 0 -132 47t-87 47t-26 -2t-24 -22t-15 -60q0 -10 -11 -10h-122q-11 0 -11 10zM1108 1442h174q10 0 10 -10v-1422
q0 -10 -10 -10h-301q-10 0 -16 10l-621 1231q-5 10 -12 6q-8 -4 -8 -10v-1227q0 -10 -11 -10h-174q-10 0 -10 10v1422q0 10 10 10h303q8 0 15 -10l620 -1229q5 -8 13 -8t8 10v1227q0 10 10 10z" />
    <glyph glyph-name="Ograve" unicode="&#xd2;" horiz-adv-x="1458" 
d="M821 1604h-116q-12 0 -23 14l-147 207q-6 14 10 14h178q16 0 20 -14l88 -207q8 -14 -10 -14zM715 154q213 0 327 150t115 417q0 268 -115 418q-116 149 -328 149t-327 -150t-115 -417t115 -417t328 -150zM1360 721q0 -336 -166 -539q-166 -202 -479 -202t-481 202
q-167 203 -166 539q0 336 166 539q166 202 480 202t480 -202t166 -539z" />
    <glyph glyph-name="Oacute" unicode="&#xd3;" horiz-adv-x="1458" 
d="M784 1604h-116q-16 0 -11 14l88 207q4 14 21 14h178q18 0 10 -14l-147 -207q-11 -14 -23 -14zM715 154q213 0 327 150t115 417q0 268 -115 418q-116 149 -328 149t-327 -150t-115 -417t115 -417t328 -150zM1360 721q0 -336 -166 -539q-166 -202 -479 -202t-481 202
q-167 203 -166 539q0 336 166 539q166 202 480 202t480 -202t166 -539z" />
    <glyph glyph-name="Ocircumflex" unicode="&#xd4;" horiz-adv-x="1458" 
d="M930 1604h-123q-6 0 -12 8l-60 84q-10 18 -22 0l-60 -84q-6 -8 -12 -8h-123q-18 0 -10 14l90 213q2 8 10 8h234q8 0 10 -8l88 -213q6 -14 -10 -14zM715 154q213 0 327 150t115 417q0 268 -115 418q-116 149 -328 149t-327 -150t-115 -417t115 -417t328 -150zM1360 721
q0 -336 -166 -539q-166 -202 -479 -202t-481 202q-167 203 -166 539q0 336 166 539q166 202 480 202t480 -202t166 -539z" />
    <glyph glyph-name="Otilde" unicode="&#xd5;" horiz-adv-x="1458" 
d="M406 1614v47q0 68 50 122t147 54t185 -71q30 -24 46 -24t26 3q10 2 25 21q14 19 14 61q0 10 10 10h123q10 0 10 -10v-49q0 -66 -50 -120t-158 -54q-60 0 -132 47t-88 47t-26 -2t-24 -22t-15 -60q0 -10 -10 -10h-123q-10 0 -10 10zM715 154q213 0 327 150t115 417
q0 268 -115 418q-116 149 -328 149t-327 -150t-115 -417t115 -417t328 -150zM1360 721q0 -336 -166 -539q-166 -202 -479 -202t-481 202q-167 203 -166 539q0 336 166 539q166 202 480 202t480 -202t166 -539z" />
    <glyph glyph-name="Odieresis" unicode="&#xd6;" horiz-adv-x="1458" 
d="M1092 1829v-215q0 -10 -11 -10h-215q-10 0 -10 10v215q0 10 10 10h215q11 0 11 -10zM592 1829v-215q0 -10 -10 -10h-215q-10 0 -11 10v215q0 10 11 10h215q10 0 10 -10zM715 154q213 0 327 150t115 417q0 268 -115 418q-116 149 -328 149t-327 -150t-115 -417t115 -417
t328 -150zM1360 721q0 -336 -166 -539q-166 -202 -479 -202t-481 202q-167 203 -166 539q0 336 166 539q166 202 480 202t480 -202t166 -539z" />
    <glyph glyph-name="multiply" unicode="&#xd7;" horiz-adv-x="1155" 
d="M571 637l398 397q10 4 14 0l102 -100q6 -8 0 -16l-397 -398q-10 -8 0 -14l399 -397q4 -10 0 -15l-96 -96q-8 -6 -14 0l-399 399q-4 4 -15 0l-391 -395q-8 -6 -14 0l-103 100q-4 10 0 15l391 395q6 6 3 16l-394 390q-4 10 0 14l97 94q8 12 14 0l393 -391q6 -11 12 2z" />
    <glyph glyph-name="Oslash" unicode="&#xd8;" horiz-adv-x="1458" 
d="M272 721q0 -160 41 -283q6 -16 19 -4l698 699q10 10 0 18q-116 137 -322 137t-321 -150t-115 -417zM719 154q209 0 323 150t115 417q0 166 -41 283q-6 20 -20 6l-701 -701q-8 -8 0 -16q115 -139 324 -139zM1360 721q0 -336 -166 -539q-166 -202 -465 -202t-467 172
q-12 12 -22 2l-78 -78q-6 -6 -15 0l-79 80q-6 8 0 14l94 94q8 8 4 17q-98 184 -98 440q0 336 166 539q168 202 466 202t467 -176q8 -8 17 0l80 80q6 6 14 0l80 -80q6 -8 0 -14l-96 -96q-6 -6 -2 -15q100 -180 100 -440z" />
    <glyph glyph-name="Ugrave" unicode="&#xd9;" horiz-adv-x="1271" 
d="M727 1604h-117q-12 0 -22 14l-148 207q-6 14 11 14h178q16 0 20 -14l88 -207q8 -14 -10 -14zM303 1432v-943q0 -133 94 -234q95 -101 225 -101t223 101t93 234v943q0 10 10 10h174q10 0 11 -10v-943q-1 -213 -149 -361t-361 -148t-364 148t-150 361v943q0 10 10 10h174
q10 0 10 -10z" />
    <glyph glyph-name="Uacute" unicode="&#xda;" horiz-adv-x="1271" 
d="M649 1604h-117q-16 0 -10 14l88 207q4 14 21 14h178q18 0 10 -14l-147 -207q-11 -14 -23 -14zM303 1432v-943q0 -133 94 -234q95 -101 225 -101t223 101t93 234v943q0 10 10 10h174q10 0 11 -10v-943q-1 -213 -149 -361t-361 -148t-364 148t-150 361v943q0 10 10 10h174
q10 0 10 -10z" />
    <glyph glyph-name="Ucircumflex" unicode="&#xdb;" horiz-adv-x="1271" 
d="M836 1604h-123q-6 0 -13 8l-59 84q-10 18 -23 0l-59 -84q-6 -8 -12 -8h-123q-18 0 -10 14l90 213q2 8 10 8h234q8 0 10 -8l88 -213q6 -14 -10 -14zM303 1432v-943q0 -133 94 -234q95 -101 225 -101t223 101t93 234v943q0 10 10 10h174q10 0 11 -10v-943
q-1 -213 -149 -361t-361 -148t-364 148t-150 361v943q0 10 10 10h174q10 0 10 -10z" />
    <glyph glyph-name="Udieresis" unicode="&#xdc;" horiz-adv-x="1271" 
d="M997 1829v-215q0 -10 -10 -10h-215q-10 0 -10 10v215q0 10 10 10h215q10 0 10 -10zM498 1829v-215q0 -10 -11 -10h-215q-10 0 -10 10v215q0 10 10 10h215q11 0 11 -10zM303 1432v-943q0 -133 94 -234q95 -101 225 -101t223 101t93 234v943q0 10 10 10h174q10 0 11 -10
v-943q-1 -213 -149 -361t-361 -148t-364 148t-150 361v943q0 10 10 10h174q10 0 10 -10z" />
    <glyph glyph-name="Yacute" unicode="&#xdd;" horiz-adv-x="1349" 
d="M688 1604h-117q-18 0 -10 14l88 207q4 14 21 14h178q16 0 10 -14l-147 -207q-11 -14 -23 -14zM774 621v-611q0 -10 -10 -10h-174q-10 0 -10 10v611q0 4 -11 20l-483 791q-6 10 6 10h207q10 0 16 -10l351 -584q10 -14 20 0l352 584q8 10 21 10h203q12 0 6 -10l-488 -791
q-6 -10 -6 -20z" />
    <glyph glyph-name="Thorn" unicode="&#xde;" horiz-adv-x="1273" 
d="M354 954q-10 0 -10 -10v-446q0 -10 10 -11h465q80 0 143 72q62 72 64 162q-2 90 -64 162t-143 71h-465zM160 1442h174q10 0 10 -10v-293q0 -10 10 -11h465q166 0 281 -120t115 -287q0 -168 -115 -288t-281 -120h-465q-10 0 -10 -10v-293q0 -10 -10 -10h-174q-10 0 -10 10
v1422q0 10 10 10z" />
    <glyph glyph-name="germandbls" unicode="&#xdf;" horiz-adv-x="1142" 
d="M563 823h37q98 1 170 59t72 176t-81 174t-204 56t-181 -76t-59 -168v-1034q0 -10 -10 -10h-174q-10 0 -10 10v1034q0 168 117 293q118 125 326 125t333 -114t125 -291q0 -97 -55 -183t-144 -129q-6 -4 -6 -8t6 -6q80 -23 161 -117t81 -208q0 -205 -122 -316t-370 -110
h-59q-10 0 -10 10v151q0 10 10 11h59q299 0 299 254q0 114 -87 180t-187 65h-37q-10 0 -10 11v151q0 10 10 10z" />
    <glyph glyph-name="agrave" unicode="&#xe0;" horiz-adv-x="1191" 
d="M668 1206h-117q-12 0 -23 15l-147 206q-8 14 10 15h178q16 0 21 -15l88 -206q6 -15 -10 -15zM819 455q0 10 -10 10h-287q-150 -6 -203 -49q-53 -44 -53 -108t51 -109t164 -45q170 0 252 80t86 192v29zM1151 164v-154q0 -10 -10 -10h-74q-158 -2 -203 94q-6 16 -18 4
q-45 -47 -139 -83t-224 -35q-201 0 -306 89t-105 233t115 230q116 86 335 86h230q59 0 65 29q2 10 2 42q0 137 -121 175q-56 18 -162 18t-168 -50q-62 -52 -63 -136q0 -10 -10 -10h-176q-10 0 -10 10q0 172 130 266q131 94 331 95t322 -97t122 -282v-402q0 -54 16 -78
t72 -24h39q10 0 10 -10z" />
    <glyph glyph-name="aacute" unicode="&#xe1;" horiz-adv-x="1191" 
d="M610 1206h-116q-18 0 -11 15l88 206q4 14 21 15h178q16 0 10 -15l-147 -206q-11 -15 -23 -15zM819 455q0 10 -10 10h-287q-150 -6 -203 -49q-53 -44 -53 -108t51 -109t164 -45q170 0 252 80t86 192v29zM1151 164v-154q0 -10 -10 -10h-74q-158 -2 -203 94q-6 16 -18 4
q-45 -47 -139 -83t-224 -35q-201 0 -306 89t-105 233t115 230q116 86 335 86h230q59 0 65 29q2 10 2 42q0 137 -121 175q-56 18 -162 18t-168 -50q-62 -52 -63 -136q0 -10 -10 -10h-176q-10 0 -10 10q0 172 130 266q131 94 331 95t322 -97t122 -282v-402q0 -54 16 -78
t72 -24h39q10 0 10 -10z" />
    <glyph glyph-name="acircumflex" unicode="&#xe2;" horiz-adv-x="1191" 
d="M776 1206h-123q-6 0 -12 8l-59 84q-10 18 -23 0l-59 -84q-6 -8 -13 -8h-122q-16 0 -11 15l90 213q2 8 11 8h233q8 0 10 -8l88 -213q8 -15 -10 -15zM819 455q0 10 -10 10h-287q-150 -6 -203 -49q-53 -44 -53 -108t51 -109t164 -45q170 0 252 80t86 192v29zM1151 164v-154
q0 -10 -10 -10h-74q-158 -2 -203 94q-6 16 -18 4q-45 -47 -139 -83t-224 -35q-201 0 -306 89t-105 233t115 230q116 86 335 86h230q59 0 65 29q2 10 2 42q0 137 -121 175q-56 18 -162 18t-168 -50q-62 -52 -63 -136q0 -10 -10 -10h-176q-10 0 -10 10q0 172 130 266
q131 94 331 95t322 -97t122 -282v-402q0 -54 16 -78t72 -24h39q10 0 10 -10z" />
    <glyph glyph-name="atilde" unicode="&#xe3;" horiz-adv-x="1191" 
d="M272 1219v47q0 68 50 122t146 54q95 0 187 -71q31 -23 46 -23t25 2t26 21q14 19 14 61q0 10 10 10h123q10 0 10 -10v-50q0 -66 -50 -120t-159 -54q-61 0 -132 47t-87 47t-26 -2q-11 -2 -25 -21t-14 -60q0 -10 -10 -11h-123q-11 1 -11 11zM819 455q0 10 -10 10h-287
q-150 -6 -203 -49q-53 -44 -53 -108t51 -109t164 -45q170 0 252 80t86 192v29zM1151 164v-154q0 -10 -10 -10h-74q-158 -2 -203 94q-6 16 -18 4q-45 -47 -139 -83t-224 -35q-201 0 -306 89t-105 233t115 230q116 86 335 86h230q59 0 65 29q2 10 2 42q0 137 -121 175
q-56 18 -162 18t-168 -50q-62 -52 -63 -136q0 -10 -10 -10h-176q-10 0 -10 10q0 172 130 266q131 94 331 95t322 -97t122 -282v-402q0 -54 16 -78t72 -24h39q10 0 10 -10z" />
    <glyph glyph-name="adieresis" unicode="&#xe4;" horiz-adv-x="1191" 
d="M958 1432v-213q0 -10 -10 -11h-215q-10 0 -10 11v213q0 10 10 10h215q10 0 10 -10zM459 1432v-213q0 -10 -10 -11h-216q-10 0 -10 11v213q0 10 10 10h216q10 0 10 -10zM819 455q0 10 -10 10h-287q-150 -6 -203 -49q-53 -44 -53 -108t51 -109t164 -45q170 0 252 80t86 192
v29zM1151 164v-154q0 -10 -10 -10h-74q-158 -2 -203 94q-6 16 -18 4q-45 -47 -139 -83t-224 -35q-201 0 -306 89t-105 233t115 230q116 86 335 86h230q59 0 65 29q2 10 2 42q0 137 -121 175q-56 18 -162 18t-168 -50q-62 -52 -63 -136q0 -10 -10 -10h-176q-10 0 -10 10
q0 172 130 266q131 94 331 95t322 -97t122 -282v-402q0 -54 16 -78t72 -24h39q10 0 10 -10z" />
    <glyph glyph-name="aring" unicode="&#xe5;" horiz-adv-x="1171" 
d="M647 1300q0 39 -26 66q-27 27 -66 27t-66 -27t-27 -66q0 -40 28 -66q26 -26 65 -26t65 26t27 66zM735 1300q0 -74 -53 -126t-127 -52t-126 52t-52 126t52 127t126 53t127 -52q53 -54 53 -128zM819 455q0 10 -10 10h-287q-150 -6 -203 -49q-53 -44 -53 -108t51 -109
t164 -45q170 0 252 80t86 192v29zM1151 164v-154q0 -10 -10 -10h-74q-158 -2 -203 94q-6 16 -18 4q-45 -47 -139 -83t-224 -35q-201 0 -306 89t-105 233t115 230q116 86 335 86h230q59 0 65 29q2 10 2 42q0 137 -121 175q-56 18 -162 18t-168 -50q-62 -52 -63 -136
q0 -10 -10 -10h-176q-10 0 -10 10q0 172 130 266q131 94 331 95t322 -97t122 -282v-402q0 -54 16 -78t72 -24h39q10 0 10 -10z" />
    <glyph glyph-name="ae" unicode="&#xe6;" horiz-adv-x="1910" 
d="M1593 612q0 102 -73 187q-74 84 -211 84t-215 -91t-78 -180q0 -10 10 -10h557q10 0 10 10zM821 455q0 10 -10 10h-287q-150 -6 -202 -49q-52 -44 -54 -108q0 -64 51 -109t164 -45q170 0 252 80t86 192v29zM1806 518q0 -69 -16 -69h-764q-10 0 -10 -11q0 -116 80 -200
t196 -84t171 36q56 36 93 107q4 10 15 10h192q12 0 11 -10q-39 -150 -165 -234t-302 -83q-256 0 -392 182q-12 16 -24 0q-162 -182 -395 -182q-201 0 -312 90q-110 90 -110 233t114 229q115 86 328 86h109q160 0 182 21q14 12 14 47q0 140 -121 178q-56 18 -162 18t-168 -50
q-62 -52 -63 -136q0 -10 -10 -10h-176q-10 0 -10 10q0 172 130 266t316 95q254 0 375 -133q8 -12 18 -2q135 135 364 135q228 1 360 -147t132 -392z" />
    <glyph glyph-name="ccedilla" unicode="&#xe7;" horiz-adv-x="1120" 
d="M1051 686h-183q-8 0 -12 10q-70 186 -283 187q-143 1 -227 -101t-84 -264t84 -263t227 -101q213 0 283 186q4 10 12 10h183q12 0 10 -10q-37 -144 -131 -234t-236 -116l-114 -82q-4 -2 -3 -9t9 -8q61 -1 111 -39q51 -38 51 -109t-56 -120t-145 -49q-90 0 -138 49t-49 117
q0 10 11 10h67q10 0 11 -10q-1 -35 27 -62q28 -26 71 -26t71 26t27 71q0 44 -35 68q-35 23 -70 23t-40 6l-17 17q-16 16 0 26l99 76q4 2 3 8t-10 7h-8q-233 0 -366 148t-133 392t134 390t371 147q193 0 320 -95t168 -266q2 -10 -10 -10z" />
    <glyph glyph-name="egrave" unicode="&#xe8;" horiz-adv-x="1124" 
d="M653 1206h-116q-12 0 -23 15l-147 206q-6 14 10 15h178q16 0 20 -15l89 -206q7 -15 -11 -15zM850 612q0 102 -74 186t-211 85q-137 0 -215 -91t-78 -180q0 -10 11 -10h557q10 0 10 10zM1063 518q0 -69 -16 -69h-764q-10 0 -11 -11q0 -116 80 -200t211 -84q184 0 260 143
q4 10 15 10h182q12 0 10 -10q-39 -150 -165 -234t-302 -83q-227 0 -362 148t-135 392t132 390t366 146t367 -146q132 -148 132 -392z" />
    <glyph glyph-name="eacute" unicode="&#xe9;" horiz-adv-x="1124" 
d="M616 1206h-116q-16 0 -11 15l89 206q4 14 20 15h178q18 0 10 -15l-147 -206q-11 -15 -23 -15zM850 612q0 102 -74 186t-211 85q-137 0 -215 -91t-78 -180q0 -10 11 -10h557q10 0 10 10zM1063 518q0 -69 -16 -69h-764q-10 0 -11 -11q0 -116 80 -200t211 -84q184 0 260 143
q4 10 15 10h182q12 0 10 -10q-39 -150 -165 -234t-302 -83q-227 0 -362 148t-135 392t132 390t366 146t367 -146q132 -148 132 -392z" />
    <glyph glyph-name="ecircumflex" unicode="&#xea;" horiz-adv-x="1124" 
d="M782 1206h-123q-6 0 -12 8l-59 84q-10 18 -23 0l-59 -84q-6 -8 -12 -8h-123q-18 0 -11 15l91 213q2 8 10 8h233q8 0 11 -8l88 -213q5 -15 -11 -15zM850 612q0 102 -74 186t-211 85q-137 0 -215 -91t-78 -180q0 -10 11 -10h557q10 0 10 10zM1063 518q0 -69 -16 -69h-764
q-10 0 -11 -11q0 -116 80 -200t211 -84q184 0 260 143q4 10 15 10h182q12 0 10 -10q-39 -150 -165 -234t-302 -83q-227 0 -362 148t-135 392t132 390t366 146t367 -146q132 -148 132 -392z" />
    <glyph glyph-name="edieresis" unicode="&#xeb;" horiz-adv-x="1124" 
d="M944 1432v-213q0 -10 -10 -11h-215q-10 0 -10 11v213q0 10 10 10h215q10 0 10 -10zM444 1432v-213q0 -10 -10 -11h-215q-10 0 -10 11v213q0 10 10 10h215q10 0 10 -10zM850 612q0 102 -74 186t-211 85q-137 0 -215 -91t-78 -180q0 -10 11 -10h557q10 0 10 10zM1063 518
q0 -69 -16 -69h-764q-10 0 -11 -11q0 -116 80 -200t211 -84q184 0 260 143q4 10 15 10h182q12 0 10 -10q-39 -150 -165 -234t-302 -83q-227 0 -362 148t-135 392t132 390t366 146t367 -146q132 -148 132 -392z" />
    <glyph glyph-name="igrave" unicode="&#xec;" horiz-adv-x="495" 
d="M309 1206h-116q-12 0 -23 15l-147 206q-6 14 10 15h178q16 0 20 -15l88 -206q8 -15 -10 -15zM324 1026v-1016q0 -10 -11 -10h-174q-10 0 -10 10v1016q0 10 10 10h174q11 0 11 -10z" />
    <glyph glyph-name="iacute" unicode="&#xed;" horiz-adv-x="495" 
d="M256 1206h-117q-16 0 -10 15l88 206q4 14 21 15h178q18 0 10 -15l-147 -206q-11 -15 -23 -15zM324 1026v-1016q0 -10 -11 -10h-174q-10 0 -10 10v1016q0 10 10 10h174q11 0 11 -10z" />
    <glyph glyph-name="icircumflex" unicode="&#xee;" horiz-adv-x="495" 
d="M449 1206h-123q-6 0 -13 8l-59 84q-10 18 -23 0l-59 -84q-6 -8 -12 -8h-123q-16 0 -10 15l90 213q2 8 10 8h233q8 0 11 -8l88 -213q8 -15 -10 -15zM336 1026v-1016q0 -10 -10 -10h-174q-10 0 -11 10v1016q0 10 11 10h174q10 0 10 -10z" />
    <glyph glyph-name="idieresis" unicode="&#xef;" horiz-adv-x="495" 
d="M600 1432v-213q0 -10 -10 -11h-215q-10 0 -10 11v213q0 10 10 10h215q10 0 10 -10zM100 1432v-213q0 -10 -10 -11h-215q-10 0 -10 11v213q0 10 10 10h215q10 0 10 -10zM324 1026v-1016q0 -10 -11 -10h-174q-10 0 -10 10v1016q0 10 10 10h174q11 0 11 -10z" />
    <glyph glyph-name="eth" unicode="&#xf0;" horiz-adv-x="1204" 
d="M909 518q0 162 -84 263t-228 101t-229 -100q-85 -102 -85 -264t85 -263t229 -101t228 101t84 263zM485 1442h181q10 0 14 -10l27 -52q6 -12 16 -4l117 64q8 6 16 -2l51 -101q4 -6 -4 -14l-117 -61q-8 -4 -4 -13l236 -407q86 -152 86 -324q0 -244 -136 -391t-373 -147
t-372 147t-135 391t135 391t373 148q38 0 60 -4t25 3t-1 11l-55 94q-4 10 -17 4l-129 -67q-10 -6 -14 4l-53 98q-6 10 4 14l127 68q10 4 4 16l-72 134q-4 10 10 10z" />
    <glyph glyph-name="ntilde" unicode="&#xf1;" horiz-adv-x="1153" 
d="M281 1219v47q0 68 50 122t144 54t189 -71q31 -23 46 -23t25 2t25 21q14 19 14 61q0 10 10 10h123q10 0 11 -10v-50q0 -66 -50 -120t-159 -54q-61 0 -132 47t-87 47t-27 -2t-25 -21t-14 -60q0 -10 -10 -11h-123q-10 1 -10 11zM133 1036h154q6 0 10 -10l20 -92q3 -8 11 -8
t12 6q90 125 268 125q213 0 330 -136t117 -348v-563q0 -10 -11 -10h-174q-10 0 -10 10v563q0 131 -65 221q-66 89 -198 89t-206 -91t-74 -219v-563q0 -10 -10 -10h-174q-10 0 -10 10v1016q0 10 10 10z" />
    <glyph glyph-name="ograve" unicode="&#xf2;" horiz-adv-x="1161" 
d="M672 1206h-117q-12 0 -23 15l-147 206q-8 14 10 15h178q16 0 21 -15l88 -206q6 -15 -10 -15zM889 518q0 162 -84 263q-85 101 -229 101t-229 -100q-85 -102 -85 -264t85 -263t229 -101t229 101q84 101 84 263zM1083 518q0 -244 -136 -391t-373 -147q-238 0 -372 147
t-134 391t135 391t371 147t373 -146q136 -148 136 -392z" />
    <glyph glyph-name="oacute" unicode="&#xf3;" horiz-adv-x="1161" 
d="M594 1206h-117q-18 0 -10 15l88 206q4 14 20 15h179q16 0 10 -15l-148 -206q-10 -15 -22 -15zM889 518q0 162 -84 263q-85 101 -229 101t-229 -100q-85 -102 -85 -264t85 -263t229 -101t229 101q84 101 84 263zM1083 518q0 -244 -136 -391t-373 -147q-238 0 -372 147
t-134 391t135 391t371 147t373 -146q136 -148 136 -392z" />
    <glyph glyph-name="ocircumflex" unicode="&#xf4;" horiz-adv-x="1161" 
d="M786 1206h-122q-6 0 -13 8l-59 84q-10 18 -23 0l-59 -84q-6 -8 -12 -8h-123q-18 0 -10 15l90 213q2 8 10 8h233q8 0 11 -8l88 -213q5 -15 -11 -15zM889 518q0 162 -84 263q-85 101 -229 101t-229 -100q-85 -102 -85 -264t85 -263t229 -101t229 101q84 101 84 263z
M1083 518q0 -244 -136 -391t-373 -147q-238 0 -372 147t-134 391t135 391t371 147t373 -146q136 -148 136 -392z" />
    <glyph glyph-name="otilde" unicode="&#xf5;" horiz-adv-x="1161" 
d="M256 1219v47q0 68 50 122t144 54t189 -71q31 -23 46 -23t25 2t25 21q14 19 15 61q0 10 10 10h123q10 0 10 -10v-50q0 -66 -50 -120t-159 -54q-61 0 -132 47t-87 47q-17 0 -27 -2t-24 -21t-14 -45t-11 -26h-123q-10 1 -10 11zM889 518q0 162 -84 263q-85 101 -229 101
t-229 -100q-85 -102 -85 -264t85 -263t229 -101t229 101q84 101 84 263zM1083 518q0 -244 -136 -391t-373 -147q-238 0 -372 147t-134 391t135 391t371 147t373 -146q136 -148 136 -392z" />
    <glyph glyph-name="odieresis" unicode="&#xf6;" horiz-adv-x="1161" 
d="M942 1432v-213q0 -10 -10 -11h-215q-10 0 -10 11v213q0 10 10 10h215q10 0 10 -10zM442 1432v-213q0 -10 -10 -11h-215q-10 0 -10 11v213q0 10 10 10h215q10 0 10 -10zM889 518q0 162 -84 263q-85 101 -229 101t-229 -100q-85 -102 -85 -264t85 -263t229 -101t229 101
q84 101 84 263zM1083 518q0 -244 -136 -391t-373 -147q-238 0 -372 147t-134 391t135 391t371 147t373 -146q136 -148 136 -392z" />
    <glyph glyph-name="divide" unicode="&#xf7;" horiz-adv-x="1146" 
d="M1065 426h-1016q-10 0 -10 10v164q0 10 10 10h1016q10 0 10 -10v-164q0 -10 -10 -10zM686 766h-246q-10 0 -10 10v250q0 10 10 10h246q10 0 10 -10v-250q0 -10 -10 -10zM686 0h-246q-10 0 -10 10v250q0 10 10 10h246q10 0 10 -10v-250q0 -10 -10 -10z" />
    <glyph glyph-name="oslash" unicode="&#xf8;" horiz-adv-x="1191" 
d="M889 518q0 92 -29 168q-6 16 -20 2l-453 -455q-12 -12 2 -22q71 -57 201 -57t215 101q84 101 84 263zM262 518q0 -94 29 -170q6 -16 18 -4l455 455q12 12 0 22q-80 61 -206 61t-211 -100q-85 -102 -85 -264zM575 -20q-199 0 -323 100q-10 10 -19 0l-75 -76q-6 -8 -15 0
l-80 80q-6 6 0 14l82 82q8 8 2 19q-80 129 -79 319q0 244 135 391t372 148q190 0 324 -105q10 -8 19 0l77 80q8 8 15 0l80 -80q8 -6 0 -14l-84 -86q-8 -8 0 -23q78 -135 77 -311q0 -244 -136 -391t-372 -147z" />
    <glyph glyph-name="ugrave" unicode="&#xf9;" horiz-adv-x="1144" 
d="M664 1206h-117q-12 0 -23 15l-147 206q-8 14 10 15h178q16 0 21 -15l88 -206q6 -15 -10 -15zM1020 0h-154q-6 0 -10 10l-20 92q-4 8 -12 8t-11 -6q-33 -47 -105 -86t-163 -38q-238 0 -342 132t-105 351v563q0 10 11 10h174q10 0 10 -10v-563q-1 -131 65 -220t198 -89
t206 91t74 218v563q0 10 10 10h174q10 0 10 -10v-1016q0 -10 -10 -10z" />
    <glyph glyph-name="uacute" unicode="&#xfa;" horiz-adv-x="1144" 
d="M565 1206h-116q-18 0 -11 15l88 206q4 14 21 15h178q16 0 10 -15l-147 -206q-11 -15 -23 -15zM1020 0h-154q-6 0 -10 10l-20 92q-4 8 -12 8t-11 -6q-33 -47 -105 -86t-163 -38q-238 0 -342 132t-105 351v563q0 10 11 10h174q10 0 10 -10v-563q-1 -131 65 -220t198 -89
t206 91t74 218v563q0 10 10 10h174q10 0 10 -10v-1016q0 -10 -10 -10z" />
    <glyph glyph-name="ucircumflex" unicode="&#xfb;" horiz-adv-x="1144" 
d="M772 1206h-123q-6 0 -12 8l-59 84q-12 18 -23 0l-59 -84q-6 -8 -13 -8h-123q-16 0 -10 15l90 213q2 8 11 8h233q8 0 10 -8l88 -213q8 -15 -10 -15zM1020 0h-154q-6 0 -10 10l-20 92q-4 8 -12 8t-11 -6q-33 -47 -105 -86t-163 -38q-238 0 -342 132t-105 351v563
q0 10 11 10h174q10 0 10 -10v-563q-1 -131 65 -220t198 -89t206 91t74 218v563q0 10 10 10h174q10 0 10 -10v-1016q0 -10 -10 -10z" />
    <glyph glyph-name="udieresis" unicode="&#xfc;" horiz-adv-x="1144" 
d="M934 1432v-213q0 -10 -10 -11h-215q-10 0 -11 11v213q0 10 11 10h215q10 0 10 -10zM434 1432v-213q0 -10 -10 -11h-215q-10 0 -10 11v213q0 10 10 10h215q10 0 10 -10zM1020 0h-154q-6 0 -10 10l-20 92q-4 8 -12 8t-11 -6q-33 -47 -105 -86t-163 -38q-238 0 -342 132
t-105 351v563q0 10 11 10h174q10 0 10 -10v-563q-1 -131 65 -220t198 -89t206 91t74 218v563q0 10 10 10h174q10 0 10 -10v-1016q0 -10 -10 -10z" />
    <glyph glyph-name="yacute" unicode="&#xfd;" horiz-adv-x="1099" 
d="M594 1206h-117q-18 0 -10 15l88 206q4 14 20 15h179q16 0 10 -15l-148 -206q-10 -15 -22 -15zM76 -242q0 10 10 11h231q88 0 119 51t2 135l-364 1071q-2 10 12 10h186q6 0 11 -10l268 -823q2 -8 10 -8t10 8l271 823q4 10 10 10h186q14 0 11 -10l-410 -1204
q-45 -129 -105 -178t-182 -50h-266q-10 0 -10 11v153z" />
    <glyph glyph-name="thorn" unicode="&#xfe;" horiz-adv-x="1243" 
d="M930 518q0 162 -84 263t-226 101t-219 -100t-77 -264t78 -264t218 -100q141 0 226 101q84 101 84 263zM313 -406h-174q-10 0 -10 11v1827q0 10 10 10h174q10 0 11 -10v-467q0 -23 20 -7q129 98 272 99q224 0 366 -150q142 -149 142 -391t-136 -389t-372 -147
q-68 0 -146 26t-126 76q-16 16 -20 0v-477q-5 -11 -11 -11z" />
    <glyph glyph-name="ydieresis" unicode="&#xff;" horiz-adv-x="1099" 
d="M922 1432v-213q0 -10 -11 -11h-215q-10 0 -10 11v213q0 10 10 10h215q11 0 11 -10zM422 1432v-213q0 -10 -10 -11h-215q-10 0 -11 11v213q0 10 11 10h215q10 0 10 -10zM76 -242q0 10 10 11h231q88 0 119 51t2 135l-364 1071q-2 10 12 10h186q6 0 11 -10l268 -823
q2 -8 10 -8t10 8l271 823q4 10 10 10h186q14 0 11 -10l-410 -1204q-45 -129 -105 -178t-182 -50h-266q-10 0 -10 11v153z" />
    <glyph glyph-name="Amacron" unicode="&#x100;" horiz-adv-x="1396" 
d="M944 1604h-504q-8 0 -8 10v119q0 10 8 10h504q10 0 10 -10v-119q0 -10 -10 -10zM457 477h485q12 0 8 10l-239 750q-3 8 -11 8t-10 -8l-241 -750q-4 -10 8 -10zM575 1442h252q8 0 13 -10l477 -1422q4 -10 -10 -10h-193q-6 0 -10 10l-94 293q-2 10 -15 10h-594
q-8 0 -12 -10l-96 -293q-4 -10 -10 -10h-191q-14 0 -12 10l483 1422q4 10 12 10z" />
    <glyph glyph-name="amacron" unicode="&#x101;" horiz-adv-x="1191" 
d="M827 1206h-503q-8 0 -9 11v118q0 10 9 11h503q10 0 11 -11v-118q-1 -11 -11 -11zM819 455q0 10 -10 10h-287q-150 -6 -203 -49q-53 -44 -53 -108t51 -109t164 -45q170 0 252 80t86 192v29zM1151 164v-154q0 -10 -10 -10h-74q-158 -2 -203 94q-6 16 -18 4
q-45 -47 -139 -83t-224 -35q-201 0 -306 89t-105 233t115 230q116 86 335 86h230q59 0 65 29q2 10 2 42q0 137 -121 175q-56 18 -162 18t-168 -50q-62 -52 -63 -136q0 -10 -10 -10h-176q-10 0 -10 10q0 172 130 266q131 94 331 95t322 -97t122 -282v-402q0 -54 16 -78
t72 -24h39q10 0 10 -10z" />
    <glyph glyph-name="Abreve" unicode="&#x102;" horiz-adv-x="1396" 
d="M797 1839h129q10 0 10 -10q0 -117 -70 -171t-164 -54t-164 54t-69 171q0 10 10 10h127q10 0 10 -10q0 -39 27 -59t59 -19q32 0 59 19q26 19 25 59q1 10 11 10zM457 477h485q12 0 8 10l-239 750q-3 8 -11 8t-10 -8l-241 -750q-4 -10 8 -10zM575 1442h252q8 0 13 -10
l477 -1422q4 -10 -10 -10h-193q-6 0 -10 10l-94 293q-2 10 -15 10h-594q-8 0 -12 -10l-96 -293q-4 -10 -10 -10h-191q-14 0 -12 10l483 1422q4 10 12 10z" />
    <glyph glyph-name="abreve" unicode="&#x103;" horiz-adv-x="1191" 
d="M649 1442h129q10 0 10 -10q0 -117 -70 -171q-70 -55 -163 -55q-94 0 -164 54t-69 172q0 10 10 10h127q10 0 10 -10q0 -38 27 -58q28 -20 60 -20t58 19t25 59q0 10 10 10zM819 455q0 10 -10 10h-287q-150 -6 -203 -49q-53 -44 -53 -108t51 -109t164 -45q170 0 252 80
t86 192v29zM1151 164v-154q0 -10 -10 -10h-74q-158 -2 -203 94q-6 16 -18 4q-45 -47 -139 -83t-224 -35q-201 0 -306 89t-105 233t115 230q116 86 335 86h230q59 0 65 29q2 10 2 42q0 137 -121 175q-56 18 -162 18t-168 -50q-62 -52 -63 -136q0 -10 -10 -10h-176
q-10 0 -10 10q0 172 130 266q131 94 331 95t322 -97t122 -282v-402q0 -54 16 -78t72 -24h39q10 0 10 -10z" />
    <glyph glyph-name="Aogonek" unicode="&#x104;" horiz-adv-x="1396" 
d="M457 477h485q12 0 8 10l-239 750q-3 8 -11 8t-10 -8l-241 -750q-4 -10 8 -10zM575 1442h252q8 0 13 -10l477 -1422q4 -10 -10 -10h-60q-63 0 -108 -38t-45 -94t40 -88t107 -32h39q10 0 10 -10v-133q0 -10 -10 -11h-59q-123 0 -198 54t-77 137q-2 82 42 135t108 80
q10 4 8 14l-94 289q-2 10 -15 10h-594q-8 0 -12 -10l-96 -293q-4 -10 -10 -10h-191q-14 0 -12 10l483 1422q4 10 12 10z" />
    <glyph glyph-name="aogonek" unicode="&#x105;" horiz-adv-x="1191" 
d="M819 455q0 10 -10 10h-287q-150 -6 -203 -49q-53 -44 -53 -108t51 -109t164 -45q170 0 252 80t86 192v29zM1151 164v-154q0 -10 -10 -10h-35q-59 0 -100 -38t-41 -94t40 -88t107 -32h29q10 0 10 -10v-133q0 -10 -10 -11h-49q-123 0 -198 54t-77 149q-2 137 137 197
q8 2 9 10q0 8 -9 10q-63 25 -90 80q-6 16 -18 4q-45 -47 -139 -83t-224 -35q-201 0 -306 89t-105 233t115 230q116 86 335 86h230q59 0 65 29q2 10 2 42q0 137 -121 175q-56 18 -162 18t-168 -50q-62 -52 -63 -136q0 -10 -10 -10h-176q-10 0 -10 10q0 172 130 266
q131 94 331 95t322 -97t122 -282v-402q0 -54 16 -78t72 -24h39q10 0 10 -10z" />
    <glyph glyph-name="Cacute" unicode="&#x106;" horiz-adv-x="1398" 
d="M774 1604h-117q-18 0 -10 14l88 207q4 14 21 14h178q16 0 10 -14l-147 -207q-11 -14 -23 -14zM1323 451q10 0 10 -11q0 -123 -133 -279q-66 -77 -186 -129t-271 -52q-327 0 -487 200t-160 536q0 338 173 542t474 204q156 0 279 -55t185 -134q128 -163 126 -272
q0 -10 -10 -10h-180q-10 0 -15 10q-100 287 -385 287q-213 0 -327 -150t-115 -417q0 -268 115 -418t327 -149q164 0 258 88t127 198q2 10 15 11h180z" />
    <glyph glyph-name="cacute" unicode="&#x107;" horiz-adv-x="1120" 
d="M594 1206h-117q-18 0 -10 15l88 206q4 14 20 15h179q16 0 10 -15l-148 -206q-10 -15 -22 -15zM1051 686h-183q-8 0 -12 10q-70 186 -283 187q-143 1 -227 -101t-84 -264t84 -263t227 -101q213 0 283 186q4 10 12 10h183q12 0 10 -10q-43 -172 -169 -266t-319 -94
q-237 0 -371 147t-134 392t134 391t371 147q193 0 320 -95t168 -266q2 -10 -10 -10z" />
    <glyph glyph-name="Ccircumflex" unicode="&#x108;" horiz-adv-x="1398" 
d="M961 1604h-123q-6 0 -13 8l-59 84q-10 18 -23 0l-59 -84q-6 -8 -12 -8h-123q-16 0 -10 14l90 213q2 8 10 8h233q8 0 11 -8l88 -213q8 -14 -10 -14zM1323 451q10 0 10 -11q0 -123 -133 -279q-66 -77 -186 -129t-271 -52q-327 0 -487 200t-160 536q0 338 173 542t474 204
q156 0 279 -55t185 -134q128 -163 126 -272q0 -10 -10 -10h-180q-10 0 -15 10q-100 287 -385 287q-213 0 -327 -150t-115 -417q0 -268 115 -418t327 -149q164 0 258 88t127 198q2 10 15 11h180z" />
    <glyph glyph-name="ccircumflex" unicode="&#x109;" horiz-adv-x="1120" 
d="M780 1206h-123q-6 0 -12 8l-59 84q-12 18 -23 0l-59 -84q-6 -8 -12 -8h-123q-16 0 -11 15l91 213q2 8 10 8h233q8 0 10 -8l89 -213q7 -15 -11 -15zM1051 686h-183q-8 0 -12 10q-70 186 -283 187q-143 1 -227 -101t-84 -264t84 -263t227 -101q213 0 283 186q4 10 12 10
h183q12 0 10 -10q-43 -172 -169 -266t-319 -94q-237 0 -371 147t-134 392t134 391t371 147q193 0 320 -95t168 -266q2 -10 -10 -10z" />
    <glyph glyph-name="Cdotaccent" unicode="&#x10a;" horiz-adv-x="1398" 
d="M887 1604h-264q-10 0 -11 10v270q0 10 11 10h264q10 0 10 -10v-270q0 -10 -10 -10zM1323 451q10 0 10 -11q0 -123 -133 -279q-66 -77 -186 -129t-271 -52q-327 0 -487 200t-160 536q0 338 173 542t474 204q156 0 279 -55t185 -134q128 -163 126 -272q0 -10 -10 -10h-180
q-10 0 -15 10q-100 287 -385 287q-213 0 -327 -150t-115 -417q0 -268 115 -418t327 -149q164 0 258 88t127 198q2 10 15 11h180z" />
    <glyph glyph-name="cdotaccent" unicode="&#x10b;" horiz-adv-x="1120" 
d="M707 1151h-265q-10 0 -10 10v271q0 10 10 10h265q10 0 10 -10v-271q0 -10 -10 -10zM1051 686h-183q-8 0 -12 10q-70 186 -283 187q-143 1 -227 -101t-84 -264t84 -263t227 -101q213 0 283 186q4 10 12 10h183q12 0 10 -10q-43 -172 -169 -266t-319 -94q-237 0 -371 147
t-134 392t134 391t371 147q193 0 320 -95t168 -266q2 -10 -10 -10z" />
    <glyph glyph-name="Ccaron" unicode="&#x10c;" horiz-adv-x="1398" 
d="M838 1847h123q18 0 10 -14l-88 -213q-2 -8 -11 -8h-233q-8 0 -10 8l-90 213q-6 14 10 14h123q6 0 12 -8l61 -84q12 -14 23 0l57 84q7 8 13 8zM1323 451q10 0 10 -11q0 -123 -133 -279q-66 -77 -186 -129t-271 -52q-327 0 -487 200t-160 536q0 338 173 542t474 204
q156 0 279 -55t185 -134q128 -163 126 -272q0 -10 -10 -10h-180q-10 0 -15 10q-100 287 -385 287q-213 0 -327 -150t-115 -417q0 -268 115 -418t327 -149q164 0 258 88t127 198q2 10 15 11h180z" />
    <glyph glyph-name="ccaron" unicode="&#x10d;" horiz-adv-x="1120" 
d="M653 1442h123q18 0 10 -15l-88 -213q-2 -8 -10 -8h-233q-8 0 -11 8l-90 213q-6 14 11 15h122q6 0 13 -8l61 -84q12 -14 23 0l57 84q6 8 12 8zM1051 686h-183q-8 0 -12 10q-70 186 -283 187q-143 1 -227 -101t-84 -264t84 -263t227 -101q213 0 283 186q4 10 12 10h183
q12 0 10 -10q-43 -172 -169 -266t-319 -94q-237 0 -371 147t-134 392t134 391t371 147q193 0 320 -95t168 -266q2 -10 -10 -10z" />
    <glyph glyph-name="Dcaron" unicode="&#x10e;" horiz-adv-x="1409" 
d="M721 1847h123q16 0 10 -14l-88 -213q-2 -8 -10 -8h-234q-8 0 -10 8l-90 213q-8 14 10 14h123q6 0 12 -8l62 -84q10 -14 22 0l58 84q6 8 12 8zM670 1268h-334q-10 0 -10 -11v-1073q0 -10 10 -10h334q208 0 322 137t114 395t-116 410t-320 152zM131 1432q0 10 10 10h529
q313 -2 477 -202t164 -534t-163 -520t-478 -186h-529q-10 0 -10 10v1422z" />
    <glyph glyph-name="dcaron" unicode="&#x10f;" horiz-adv-x="1366" 
d="M262 518q0 -162 84 -263t225 -101t220 100q78 100 77 264q0 164 -77 264t-219 100t-226 -100q-84 -102 -84 -264zM1053 0h-154q-6 0 -10 10l-21 82q-6 18 -20 4q-43 -43 -131 -80t-162 -36q-223 0 -355 148t-132 390t132 390t355 149q94 0 179 -42t114 -75q8 -8 14 -5
t6 9v488q0 10 11 10h174q10 0 10 -10v-1422q0 -10 -10 -10zM1221 1280h-45q-10 0 -11 10v142q0 10 11 10h139q10 0 10 -10v-146q0 -70 -41 -114t-108 -44q-10 0 -11 11v59q-1 10 15 10t33 16t17 36t-9 20z" />
    <glyph glyph-name="Dcroat" unicode="&#x110;" horiz-adv-x="1435" 
d="M678 616h-316q-10 0 -10 -10v-422q0 -10 10 -10h334q207 0 322 137t115 395t-116 410t-321 152h-334q-10 0 -10 -11v-456q0 -10 10 -10h316q10 0 10 -11v-153q0 -11 -10 -11zM158 10v596q0 10 -11 10h-110q-10 0 -10 11v153q0 10 10 11h110q10 0 11 10v631q0 10 10 10
h528q314 -2 478 -202t164 -534t-163 -520t-479 -186h-528q-10 0 -10 10z" />
    <glyph glyph-name="dcroat" unicode="&#x111;" horiz-adv-x="1222" 
d="M262 518q0 -162 84 -263t225 -101t220 100q78 100 77 264q0 164 -77 264t-219 100t-226 -100q-84 -102 -84 -264zM1053 0h-154q-6 0 -10 10l-21 84q-4 8 -10 8t-10 -6q-41 -45 -129 -81t-164 -35q-223 0 -355 148t-132 390t132 390t355 149q94 0 179 -42t114 -75
q8 -8 14 -5t6 9v193q0 10 -10 10h-295q-10 0 -10 10v113q0 10 10 10h295q10 0 10 10v142q0 10 11 10h174q10 0 10 -10v-142q0 -10 10 -10h111q10 0 10 -10v-113q0 -10 -10 -10h-111q-10 0 -10 -10v-1127q0 -10 -10 -10z" />
    <glyph glyph-name="Emacron" unicode="&#x112;" horiz-adv-x="1253" 
d="M872 1604h-503q-8 0 -9 10v119q0 10 9 10h503q10 0 11 -10v-119q-1 -10 -11 -10zM129 1432q0 10 10 10h985q10 0 11 -10v-154q0 -10 -11 -10h-790q-10 0 -10 -11v-417q0 -10 10 -11h706q10 0 11 -10v-153q0 -10 -11 -11h-706q-10 0 -10 -10v-461q0 -10 10 -10h790
q10 0 11 -10v-154q0 -10 -11 -10h-985q-10 0 -10 10v1422z" />
    <glyph glyph-name="emacron" unicode="&#x113;" horiz-adv-x="1124" 
d="M827 1206h-503q-8 0 -9 11v118q0 10 9 11h503q10 0 11 -11v-118q-1 -11 -11 -11zM850 612q0 102 -74 186t-211 85q-137 0 -215 -91t-78 -180q0 -10 11 -10h557q10 0 10 10zM1063 518q0 -69 -16 -69h-764q-10 0 -11 -11q0 -116 80 -200t211 -84q184 0 260 143q4 10 15 10
h182q12 0 10 -10q-39 -150 -165 -234t-302 -83q-227 0 -362 148t-135 392t132 390t366 146t367 -146q132 -148 132 -392z" />
    <glyph glyph-name="Ebreve" unicode="&#x114;" horiz-adv-x="1253" 
d="M756 1839h129q10 0 10 -10q0 -117 -70 -171q-69 -54 -163 -54t-164 54t-70 171q0 10 10 10h127q10 0 10 -10q0 -39 27 -59t60 -19q32 0 58 19t25 59q1 10 11 10zM129 1432q0 10 10 10h985q10 0 11 -10v-154q0 -10 -11 -10h-790q-10 0 -10 -11v-417q0 -10 10 -11h706
q10 0 11 -10v-153q0 -10 -11 -11h-706q-10 0 -10 -10v-461q0 -10 10 -10h790q10 0 11 -10v-154q0 -10 -11 -10h-985q-10 0 -10 10v1422z" />
    <glyph glyph-name="ebreve" unicode="&#x115;" horiz-adv-x="1124" 
d="M651 1442h129q10 0 11 -10q0 -117 -70 -171q-70 -55 -164 -55t-164 54t-69 172q0 10 10 10h127q10 0 10 -10q0 -38 27 -58q28 -20 60 -20t58 19t25 59q0 10 10 10zM850 612q0 102 -74 186t-211 85q-137 0 -215 -91t-78 -180q0 -10 11 -10h557q10 0 10 10zM1063 518
q0 -69 -16 -69h-764q-10 0 -11 -11q0 -116 80 -200t211 -84q184 0 260 143q4 10 15 10h182q12 0 10 -10q-39 -150 -165 -234t-302 -83q-227 0 -362 148t-135 392t132 390t366 146t367 -146q132 -148 132 -392z" />
    <glyph glyph-name="Edotaccent" unicode="&#x116;" horiz-adv-x="1253" 
d="M774 1604h-264q-10 0 -10 10v270q0 10 10 10h264q10 0 10 -10v-270q0 -10 -10 -10zM129 1432q0 10 10 10h985q10 0 11 -10v-154q0 -10 -11 -10h-790q-10 0 -10 -11v-417q0 -10 10 -11h706q10 0 11 -10v-153q0 -10 -11 -11h-706q-10 0 -10 -10v-461q0 -10 10 -10h790
q10 0 11 -10v-154q0 -10 -11 -10h-985q-10 0 -10 10v1422z" />
    <glyph glyph-name="edotaccent" unicode="&#x117;" horiz-adv-x="1124" 
d="M688 1151h-264q-10 0 -10 10v271q0 10 10 10h264q10 0 10 -10v-271q0 -10 -10 -10zM850 612q0 102 -74 186t-211 85q-137 0 -215 -91t-78 -180q0 -10 11 -10h557q10 0 10 10zM1063 518q0 -69 -16 -69h-764q-10 0 -11 -11q0 -116 80 -200t211 -84q184 0 260 143
q4 10 15 10h182q12 0 10 -10q-39 -150 -165 -234t-302 -83q-227 0 -362 148t-135 392t132 390t366 146t367 -146q132 -148 132 -392z" />
    <glyph glyph-name="Eogonek" unicode="&#x118;" horiz-adv-x="1253" 
d="M129 1432q0 10 10 10h985q10 0 11 -10v-154q0 -10 -11 -10h-790q-10 0 -10 -11v-417q0 -10 10 -11h706q10 0 11 -10v-153q0 -10 -11 -11h-706q-10 0 -10 -10v-461q0 -10 10 -10h790q10 0 11 -10v-154q0 -10 -11 -10h-22q-62 0 -108 -38t-46 -94t40 -88t108 -32h28
q10 0 11 -10v-133q0 -10 -11 -11h-49q-123 0 -197 54t-76 160q-1 104 107 172q8 4 6 12t-12 8h-764q-10 0 -10 10v1422z" />
    <glyph glyph-name="eogonek" unicode="&#x119;" horiz-adv-x="1124" 
d="M850 612q0 102 -74 186t-211 85q-137 0 -215 -91t-78 -180q0 -10 11 -10h557q10 0 10 10zM1063 518q0 -69 -16 -69h-764q-10 0 -11 -11q0 -116 80 -200t211 -84q184 0 260 143q4 10 15 10h182q12 0 10 -10q-35 -125 -139 -213q-12 -10 -55 -42q-42 -32 -60 -48t-36 -49
t-19 -83q0 -50 40 -82t107 -32h29q10 0 10 -10v-133q0 -10 -10 -11h-49q-121 0 -196 54t-79 151q-4 98 60 164q4 4 2 11t-10 8q-33 -2 -62 -2q-227 0 -362 148t-135 392t132 390t366 146t367 -146q132 -148 132 -392z" />
    <glyph glyph-name="Ecaron" unicode="&#x11a;" horiz-adv-x="1253" 
d="M745 1847h123q16 0 11 -14l-88 -213q-2 -8 -11 -8h-233q-8 0 -10 8l-91 213q-8 14 11 14h123q6 0 12 -8l61 -84q10 -14 23 0l57 84q6 8 12 8zM129 1432q0 10 10 10h985q10 0 11 -10v-154q0 -10 -11 -10h-790q-10 0 -10 -11v-417q0 -10 10 -11h706q10 0 11 -10v-153
q0 -10 -11 -11h-706q-10 0 -10 -10v-461q0 -10 10 -10h790q10 0 11 -10v-154q0 -10 -11 -10h-985q-10 0 -10 10v1422z" />
    <glyph glyph-name="ecaron" unicode="&#x11b;" horiz-adv-x="1124" 
d="M655 1442h123q16 0 10 -15l-88 -213q-2 -8 -10 -8h-233q-8 0 -11 8l-90 213q-8 14 11 15h122q6 0 13 -8l61 -84q10 -14 23 0l57 84q6 8 12 8zM850 612q0 102 -74 186t-211 85q-137 0 -215 -91t-78 -180q0 -10 11 -10h557q10 0 10 10zM1063 518q0 -69 -16 -69h-764
q-10 0 -11 -11q0 -116 80 -200t211 -84q184 0 260 143q4 10 15 10h182q12 0 10 -10q-39 -150 -165 -234t-302 -83q-227 0 -362 148t-135 392t132 390t366 146t367 -146q132 -148 132 -392z" />
    <glyph glyph-name="Gcircumflex" unicode="&#x11c;" horiz-adv-x="1480" 
d="M940 1604h-123q-6 0 -12 8l-60 84q-12 18 -22 0l-59 -84q-6 -8 -13 -8h-123q-16 0 -10 14l90 213q2 8 10 8h234q8 0 10 -8l88 -213q8 -14 -10 -14zM1352 10q0 -10 -11 -10h-149q-12 0 -14 12l-21 144q0 6 -7 8t-11 -4q-51 -70 -171 -125t-253 -55q-326 0 -487 200
q-160 200 -160 536q0 338 173 542t474 204q254 0 394 -118t191 -297q2 -10 -10 -11h-190q-10 0 -13 11q-45 119 -143 180t-229 61q-213 0 -328 -150t-115 -417q0 -268 115 -418q115 -149 331 -149t328 114t111 357q0 10 -10 10h-422q-10 0 -10 10v154q0 10 10 10h616
q10 0 11 -10v-789z" />
    <glyph glyph-name="gcircumflex" unicode="&#x11d;" horiz-adv-x="1163" 
d="M780 1206h-123q-6 0 -12 8l-59 84q-12 18 -23 0l-59 -84q-6 -8 -12 -8h-123q-16 0 -11 15l91 213q2 8 10 8h233q8 0 10 -8l89 -213q7 -15 -11 -15zM260 518q0 -162 84 -263t225 -101t219 100t78 264t-78 264t-219 100t-225 -100q-84 -102 -84 -264zM575 -252
q150 0 221 85t70 206v55q0 6 -7 9t-13 -5q-25 -34 -112 -76t-181 -42q-211 0 -349 150t-138 390t132 388t355 149q74 0 161 -35t132 -80q14 -14 20 2l21 82q4 10 10 10h154q10 0 10 -10v-987q0 -207 -134 -336t-335 -129t-332 90t-143 215q0 10 10 10h178q6 0 10 -10
q16 -47 82 -89t178 -42z" />
    <glyph glyph-name="Gbreve" unicode="&#x11e;" horiz-adv-x="1480" 
d="M829 1839h129q10 0 11 -10q0 -117 -70 -171t-164 -54t-164 54t-69 171q0 10 10 10h127q10 0 10 -10q0 -39 27 -59q28 -20 60 -19q32 0 58 19t25 59q0 10 10 10zM1352 10q0 -10 -11 -10h-149q-12 0 -14 12l-21 144q0 6 -7 8t-11 -4q-51 -70 -171 -125t-253 -55
q-326 0 -487 200q-160 200 -160 536q0 338 173 542t474 204q254 0 394 -118t191 -297q2 -10 -10 -11h-190q-10 0 -13 11q-45 119 -143 180t-229 61q-213 0 -328 -150t-115 -417q0 -268 115 -418q115 -149 331 -149t328 114t111 357q0 10 -10 10h-422q-10 0 -10 10v154
q0 10 10 10h616q10 0 11 -10v-789z" />
    <glyph glyph-name="gbreve" unicode="&#x11f;" horiz-adv-x="1163" 
d="M670 1442h129q10 0 10 -10q0 -117 -70 -171q-70 -55 -164 -55q-93 0 -163 54t-70 172q0 10 10 10h127q10 0 10 -10q0 -38 27 -58q28 -20 60 -20t58 19t25 59q1 10 11 10zM260 518q0 -162 84 -263t225 -101t219 100t78 264t-78 264t-219 100t-225 -100q-84 -102 -84 -264z
M575 -252q150 0 221 85t70 206v55q0 6 -7 9t-13 -5q-25 -34 -112 -76t-181 -42q-211 0 -349 150t-138 390t132 388t355 149q74 0 161 -35t132 -80q14 -14 20 2l21 82q4 10 10 10h154q10 0 10 -10v-987q0 -207 -134 -336t-335 -129t-332 90t-143 215q0 10 10 10h178
q6 0 10 -10q16 -47 82 -89t178 -42z" />
    <glyph glyph-name="Gdotaccent" unicode="&#x120;" horiz-adv-x="1480" 
d="M866 1604h-264q-10 0 -10 10v270q0 10 10 10h264q10 0 11 -10v-270q-1 -10 -11 -10zM1352 10q0 -10 -11 -10h-149q-12 0 -14 12l-21 144q0 6 -7 8t-11 -4q-51 -70 -171 -125t-253 -55q-326 0 -487 200q-160 200 -160 536q0 338 173 542t474 204q254 0 394 -118t191 -297
q2 -10 -10 -11h-190q-10 0 -13 11q-45 119 -143 180t-229 61q-213 0 -328 -150t-115 -417q0 -268 115 -418q115 -149 331 -149t328 114t111 357q0 10 -10 10h-422q-10 0 -10 10v154q0 10 10 10h616q10 0 11 -10v-789z" />
    <glyph glyph-name="gdotaccent" unicode="&#x121;" horiz-adv-x="1163" 
d="M709 1151h-265q-10 0 -10 10v271q0 10 10 10h265q10 0 10 -10v-271q0 -10 -10 -10zM260 518q0 -162 84 -263t225 -101t219 100t78 264t-78 264t-219 100t-225 -100q-84 -102 -84 -264zM575 -252q150 0 221 85t70 206v55q0 6 -7 9t-13 -5q-25 -34 -112 -76t-181 -42
q-211 0 -349 150t-138 390t132 388t355 149q74 0 161 -35t132 -80q14 -14 20 2l21 82q4 10 10 10h154q10 0 10 -10v-987q0 -207 -134 -336t-335 -129t-332 90t-143 215q0 10 10 10h178q6 0 10 -10q16 -47 82 -89t178 -42z" />
    <glyph glyph-name="uni0122" unicode="&#x122;" horiz-adv-x="1480" 
d="M1352 10q0 -10 -11 -10h-149q-12 0 -14 12l-21 144q0 6 -7 8t-11 -4q-51 -70 -171 -125t-253 -55q-326 0 -487 200q-160 200 -160 536q0 338 173 542t474 204q254 0 394 -118t191 -297q2 -10 -10 -11h-190q-10 0 -13 11q-45 119 -143 180t-229 61q-213 0 -328 -150
t-115 -417q0 -268 115 -418q115 -149 331 -149t328 114t111 357q0 10 -10 10h-422q-10 0 -10 10v154q0 10 10 10h616q10 0 11 -10v-789zM686 -274h-45q-10 0 -10 10v141q0 10 10 10h139q10 0 11 -10v-145q0 -70 -41 -114t-109 -44q-10 0 -10 10v60q0 10 15 10t33 15
q17 15 17 36t-10 21z" />
    <glyph glyph-name="uni0123" unicode="&#x123;" horiz-adv-x="1163" 
d="M580 1290h45q10 0 10 -10v-141q0 -10 -10 -11h-140q-10 0 -10 11v145q0 70 41 114t109 44q10 0 10 -10v-60q0 -10 -15 -10q-14 0 -32 -15t-19 -47q1 -10 11 -10zM260 518q0 -162 84 -263t225 -101t219 100t78 264t-78 264t-219 100t-225 -100q-84 -102 -84 -264z
M575 -252q150 0 221 85t70 206v55q0 6 -7 9t-13 -5q-25 -34 -112 -76t-181 -42q-211 0 -349 150t-138 390t132 388t355 149q74 0 161 -35t132 -80q14 -14 20 2l21 82q4 10 10 10h154q10 0 10 -10v-987q0 -207 -134 -336t-335 -129t-332 90t-143 215q0 10 10 10h178
q6 0 10 -10q16 -47 82 -89t178 -42z" />
    <glyph glyph-name="Hcircumflex" unicode="&#x124;" horiz-adv-x="1347" 
d="M874 1604h-122q-6 0 -13 8l-59 84q-10 18 -23 0l-59 -84q-6 -8 -12 -8h-123q-16 0 -10 14l90 213q2 8 10 8h233q8 0 11 -8l88 -213q7 -14 -11 -14zM1004 1442h174q10 0 10 -10v-1422q0 -10 -10 -10h-174q-10 0 -11 10v635q0 10 -10 10h-649q-10 0 -10 -8v-637
q0 -10 -11 -10h-174q-10 0 -10 10v1422q0 10 10 10h174q10 0 11 -10v-592q0 -10 10 -11h649q10 0 10 11v592q1 10 11 10z" />
    <glyph glyph-name="hcircumflex" unicode="&#x125;" horiz-adv-x="1163" 
d="M424 1604h-123q-6 0 -12 8l-60 84q-10 18 -22 0l-60 -84q-6 -8 -12 -8h-123q-16 0 -10 14l90 213q2 8 10 8h234q8 0 10 -8l88 -213q8 -14 -10 -14zM133 1442h174q10 0 10 -10v-496q1 -8 9 -10t14 6q98 125 268 125q225 0 336 -134t111 -350v-563q0 -10 -11 -10h-174
q-10 0 -10 10v563q0 131 -65 221q-66 89 -198 89t-206 -91t-74 -219v-563q0 -10 -10 -10h-174q-10 0 -10 10v1422q0 10 10 10z" />
    <glyph glyph-name="Hbar" unicode="&#x126;" horiz-adv-x="1368" 
d="M1014 840v297q0 10 -10 10h-650q-10 0 -10 -10v-297q0 -10 10 -11h650q10 1 10 11zM150 10v1127q0 10 -11 10h-110q-8 0 -9 10v113q0 10 9 10h110q10 0 11 10v142q0 10 10 10h174q10 0 10 -10v-142q0 -10 10 -10h650q10 0 10 10v142q0 10 10 10h174q10 0 10 -10v-142
q0 -10 11 -10h108q10 0 10 -10v-113q0 -10 -10 -10h-108q-10 0 -11 -10v-1127q0 -10 -10 -10h-174q-10 0 -10 10v635q0 10 -10 10h-650q-10 0 -10 -8v-637q0 -10 -10 -10h-174q-10 0 -10 10z" />
    <glyph glyph-name="hbar" unicode="&#x127;" horiz-adv-x="1171" 
d="M131 10v1127q0 10 -10 10h-113q-8 0 -8 10v113q0 10 8 10h113q10 0 10 10v142q0 10 10 10h174q10 0 11 -10v-142q0 -10 10 -10h295q10 0 10 -10v-113q0 -10 -10 -10h-295q-10 0 -10 -10v-201q0 -8 8 -10t14 6q98 125 268 125q225 0 336 -134t111 -350v-563q0 -10 -10 -10
h-174q-10 0 -11 10v563q0 131 -65 221q-66 89 -198 89t-206 -91t-73 -219v-563q0 -10 -11 -10h-174q-10 0 -10 10z" />
    <glyph glyph-name="Itilde" unicode="&#x128;" horiz-adv-x="483" 
d="M-82 1614v47q0 68 50 122t146 54t187 -71q31 -24 46 -24t25 3q10 2 25 21q14 19 15 61q0 10 10 10h123q10 0 10 -10v-49q0 -66 -50 -120t-159 -54q-61 0 -132 47t-87 47q-17 0 -27 -2t-24 -22t-15 -60q0 -10 -10 -10h-123q-10 0 -10 10zM139 1442h174q10 0 11 -10v-1422
q0 -10 -11 -10h-174q-10 0 -10 10v1422q0 10 10 10z" />
    <glyph glyph-name="itilde" unicode="&#x129;" horiz-adv-x="495" 
d="M-76 1219v47q0 68 50 122t144 54t189 -71q31 -23 46 -23t25 2t25 21q14 19 15 61q0 10 10 10h123q10 0 10 -10v-50q0 -66 -50 -120t-159 -54q-61 0 -132 47t-87 47q-17 0 -27 -2t-24 -21t-14 -60q0 -10 -11 -11h-123q-10 1 -10 11zM324 1026v-1016q0 -10 -11 -10h-174
q-10 0 -10 10v1016q0 10 10 10h174q11 0 11 -10z" />
    <glyph glyph-name="Imacron" unicode="&#x12a;" horiz-adv-x="483" 
d="M487 1614h-503q-8 0 -9 10v119q0 10 9 10h503q10 0 11 -10v-119q-1 -10 -11 -10zM139 1442h174q10 0 11 -10v-1422q0 -10 -11 -10h-174q-10 0 -10 10v1422q0 10 10 10z" />
    <glyph glyph-name="imacron" unicode="&#x12b;" horiz-adv-x="495" 
d="M494 1206h-504q-8 0 -8 11v118q0 10 8 11h504q10 0 10 -11v-118q0 -11 -10 -11zM324 1026v-1016q0 -10 -11 -10h-174q-10 0 -10 10v1016q0 10 10 10h174q11 0 11 -10z" />
    <glyph glyph-name="Iogonek" unicode="&#x12e;" horiz-adv-x="483" 
d="M139 1442h174q10 0 11 -10v-1422q0 -10 -11 -10h-26q-63 0 -105 -38t-43 -94q0 -56 40 -88t108 -32h28q10 0 11 -10v-133q0 -10 -11 -11h-49q-124 0 -198 54t-76 149q0 143 129 197q8 4 8 16v1422q0 10 10 10z" />
    <glyph glyph-name="iogonek" unicode="&#x12f;" horiz-adv-x="503" 
d="M365 1432v-215q0 -10 -11 -11h-215q-10 0 -10 11v215q0 10 10 10h215q11 0 11 -10zM344 1026v-1016q0 -10 -10 -10h-31q-63 0 -108 -38t-45 -94t40 -88t107 -32h29q10 0 10 -10v-133q0 -10 -10 -11h-50q-124 0 -198 54t-76 149q-2 143 139 199q8 4 9 14v1016q0 10 10 10
h174q10 0 10 -10z" />
    <glyph glyph-name="Idotaccent" unicode="&#x130;" horiz-adv-x="483" 
d="M369 1604h-265q-10 0 -10 10v270q0 10 10 10h265q10 0 10 -10v-270q0 -10 -10 -10zM139 1442h174q10 0 11 -10v-1422q0 -10 -11 -10h-174q-10 0 -10 10v1422q0 10 10 10z" />
    <glyph glyph-name="dotlessi" unicode="&#x131;" horiz-adv-x="495" 
d="M324 1026v-1016q0 -10 -11 -10h-174q-10 0 -10 10v1016q0 10 10 10h174q11 0 11 -10z" />
    <glyph glyph-name="IJ" unicode="&#x132;" 
d="M123 96l354 625l-354 625v-1250zM530 721l355 -623v1245q-240 -415 -355 -622zM150 49h708l-354 625zM504 768l354 627h-708zM934 1432v-1422q0 -10 -10 -10h-842q-10 0 -10 10v1422q0 10 10 10h842q10 0 10 -10z" />
    <glyph glyph-name="ij" unicode="&#x133;" 
d="M123 96l354 625l-354 625v-1250zM530 721l355 -623v1245q-240 -415 -355 -622zM150 49h708l-354 625zM504 768l354 627h-708zM934 1432v-1422q0 -10 -10 -10h-842q-10 0 -10 10v1422q0 10 10 10h842q10 0 10 -10z" />
    <glyph glyph-name="Jcircumflex" unicode="&#x134;" horiz-adv-x="946" 
d="M930 1604h-123q-6 0 -12 8l-60 84q-10 18 -22 0l-60 -84q-6 -8 -12 -8h-123q-18 0 -10 14l90 213q2 8 10 8h234q8 0 10 -8l88 -213q6 -14 -10 -14zM14 451h174q10 0 11 -11v-34q0 -184 98 -231q45 -21 114 -21q139 1 176 77q36 76 38 175v1026q0 10 10 10h174
q10 0 10 -10v-1026q0 -199 -91 -313q-91 -113 -311 -113t-317 116q-96 117 -96 310v34q0 11 10 11z" />
    <glyph glyph-name="jcircumflex" unicode="&#x135;" horiz-adv-x="614" 
d="M567 1206h-123q-6 0 -12 8l-59 84q-12 18 -23 0l-59 -84q-6 -8 -12 -8h-123q-16 0 -11 15l91 213q2 8 10 8h233q8 0 10 -8l89 -213q7 -15 -11 -15zM27 -395v153q0 10 10 11h121q111 0 110 102v1155q0 10 11 10h174q10 0 10 -10v-1190q0 -248 -268 -242h-158q-10 1 -10 11
z" />
    <glyph glyph-name="uni0136" unicode="&#x136;" horiz-adv-x="1275" 
d="M637 -274h-45q-10 0 -10 10v141q0 10 10 10h139q10 0 10 -10v-145q0 -70 -41 -114t-108 -44q-10 0 -10 10v60q0 10 15 10t33 15q17 15 17 36t-10 21zM334 535v-525q0 -10 -10 -10h-174q-10 0 -11 10v1422q0 10 11 10h174q10 0 10 -10v-613q0 -12 8 -4l629 617
q10 10 16 10h234q4 0 6 -4t0 -6l-551 -547q-6 -6 0 -17l563 -858q10 -10 -6 -10h-203q-6 0 -16 10l-475 723q-4 8 -13 0l-184 -182q-8 -8 -8 -16z" />
    <glyph glyph-name="uni0137" unicode="&#x137;" horiz-adv-x="1163" 
d="M575 -274h-45q-10 0 -10 10v141q0 10 10 10h140q10 0 10 -10v-145q0 -70 -41 -114t-109 -44q-10 0 -10 10v60q0 10 15 10t33 15q17 15 17 36t-10 21zM1108 0h-184q-12 0 -19 10l-325 559q-6 8 -15 0l-233 -200q-4 -4 -4 -13v-346q0 -10 -11 -10h-174q-10 0 -10 10v1422
q0 10 10 10h174q10 0 11 -10v-803q0 -4 5 -6t9 2l471 401q12 10 31 10h252q4 0 6 -4t0 -6l-381 -324q-6 -6 0 -16l395 -676q6 -10 -8 -10z" />
    <glyph glyph-name="kgreenlandic" unicode="&#x138;" horiz-adv-x="1163" 
d="M1108 0h-184q-12 0 -19 10l-325 559q-6 8 -15 0l-233 -200q-4 -4 -4 -13v-346q0 -10 -11 -10h-174q-10 0 -10 10v1016q0 10 10 10h174q10 0 11 -10v-397q0 -4 5 -6t9 2l471 401q12 10 31 10h252q4 0 6 -4t0 -6l-381 -324q-6 -6 0 -16l395 -676q6 -10 -8 -10z" />
    <glyph glyph-name="Lacute" unicode="&#x139;" horiz-adv-x="1107" 
d="M281 1604h-117q-16 0 -10 14l88 207q4 14 20 14h178q18 0 11 -14l-148 -207q-10 -14 -22 -14zM141 10v1422q0 10 11 10h174q10 0 10 -10v-1248q0 -10 10 -10h717q10 0 10 -10v-154q0 -10 -10 -10h-911q-11 0 -11 10z" />
    <glyph glyph-name="lacute" unicode="&#x13a;" horiz-adv-x="491" 
d="M281 1604h-117q-16 0 -10 14l88 207q4 14 20 14h178q18 0 11 -14l-148 -207q-10 -14 -22 -14zM334 1432v-1422q0 -10 -10 -10h-174q-10 0 -11 10v1422q0 10 11 10h174q10 0 10 -10z" />
    <glyph glyph-name="uni013B" unicode="&#x13b;" horiz-adv-x="1107" 
d="M141 10v1422q0 10 11 10h174q10 0 10 -10v-1248q0 -10 10 -10h717q10 0 10 -10v-154q0 -10 -10 -10h-911q-11 0 -11 10zM575 -274h-45q-10 0 -10 10v141q0 10 10 10h140q10 0 10 -10v-145q0 -70 -41 -114t-109 -44q-10 0 -10 10v60q0 10 15 10t33 15q17 15 17 36t-10 21z
" />
    <glyph glyph-name="uni013C" unicode="&#x13c;" horiz-adv-x="491" 
d="M213 -274h-45q-10 0 -10 10v141q0 10 10 10h139q10 0 10 -10v-145q0 -70 -41 -114t-108 -44q-10 0 -10 10v60q0 10 15 10t33 15q17 15 17 36t-10 21zM334 1432v-1422q0 -10 -10 -10h-174q-10 0 -11 10v1422q0 10 11 10h174q10 0 10 -10z" />
    <glyph glyph-name="Lcaron" unicode="&#x13d;" horiz-adv-x="1107" 
d="M141 10v1422q0 10 11 10h174q10 0 10 -10v-1248q0 -10 10 -10h717q10 0 10 -10v-154q0 -10 -10 -10h-911q-11 0 -11 10zM496 1280h-45q-10 0 -11 10v142q0 10 11 10h139q10 0 10 -10v-146q0 -70 -41 -114t-108 -44q-10 0 -11 11v59q0 10 16 10t32 16q18 16 18 36t-10 20z
" />
    <glyph glyph-name="lcaron" unicode="&#x13e;" horiz-adv-x="641" 
d="M334 1432v-1422q0 -10 -10 -10h-174q-10 0 -11 10v1422q0 10 11 10h174q10 0 10 -10zM496 1280h-45q-10 0 -11 10v142q0 10 11 10h139q10 0 10 -10v-146q0 -70 -41 -114t-108 -44q-10 0 -11 11v59q0 10 16 10t32 16q18 16 18 36t-10 20z" />
    <glyph glyph-name="Ldot" unicode="&#x13f;" horiz-adv-x="1114" 
d="M844 565h-305q-10 0 -11 10v310q0 10 11 10h305q10 0 10 -10v-310q0 -10 -10 -10zM141 10v1422q0 10 11 10h174q10 0 10 -10v-1248q0 -10 10 -10h717q10 0 10 -10v-154q0 -10 -10 -10h-911q-11 0 -11 10z" />
    <glyph glyph-name="ldot" unicode="&#x140;" horiz-adv-x="798" 
d="M748 565h-306q-10 0 -10 10v310q0 10 10 10h306q10 0 10 -10v-310q0 -10 -10 -10zM334 1432v-1422q0 -10 -10 -10h-174q-10 0 -11 10v1422q0 10 11 10h174q10 0 10 -10z" />
    <glyph glyph-name="Lslash" unicode="&#x141;" horiz-adv-x="1269" 
d="M297 10v451q0 4 -5 6t-11 -2l-119 -94q-14 -4 -15 10v149q0 8 7 15l137 108q6 6 6 15v764q0 10 10 10h174q10 0 11 -10v-603q0 -6 6 -9t10 1l119 94q14 4 14 -10v-151q0 -8 -6 -11l-139 -110q-4 -4 -4 -8v-441q0 -10 10 -10h717q10 0 10 -10v-154q0 -10 -10 -10h-912
q-10 0 -10 10z" />
    <glyph glyph-name="lslash" unicode="&#x142;" horiz-adv-x="565" 
d="M180 10v451q0 4 -5 6t-11 -2l-119 -94q-14 -4 -14 10v149q0 8 6 15l137 108q6 6 6 15v764q0 10 10 10h175q10 0 10 -10v-603q0 -6 6 -9t10 1l119 94q14 4 14 -10v-151q0 -8 -6 -11l-139 -110q-4 -4 -4 -8v-615q0 -10 -10 -10h-175q-10 0 -10 10z" />
    <glyph glyph-name="Nacute" unicode="&#x143;" horiz-adv-x="1452" 
d="M698 1604h-116q-16 0 -11 14l88 207q4 14 21 14h178q18 0 10 -14l-147 -207q-11 -14 -23 -14zM1108 1442h174q10 0 10 -10v-1422q0 -10 -10 -10h-301q-10 0 -16 10l-621 1231q-5 10 -12 6q-8 -4 -8 -10v-1227q0 -10 -11 -10h-174q-10 0 -10 10v1422q0 10 10 10h303
q8 0 15 -10l620 -1229q5 -8 13 -8t8 10v1227q0 10 10 10z" />
    <glyph glyph-name="nacute" unicode="&#x144;" horiz-adv-x="1153" 
d="M528 1206h-116q-18 0 -11 15l88 206q4 14 21 15h178q16 0 10 -15l-147 -206q-11 -15 -23 -15zM133 1036h154q6 0 10 -10l20 -92q3 -8 11 -8t12 6q90 125 268 125q213 0 330 -136t117 -348v-563q0 -10 -11 -10h-174q-10 0 -10 10v563q0 131 -65 221q-66 89 -198 89
t-206 -91t-74 -219v-563q0 -10 -10 -10h-174q-10 0 -10 10v1016q0 10 10 10z" />
    <glyph glyph-name="uni0145" unicode="&#x145;" horiz-adv-x="1370" 
d="M1108 1442h174q10 0 10 -10v-1422q0 -10 -10 -10h-301q-10 0 -16 10l-621 1231q-5 10 -12 6q-8 -4 -8 -10v-1227q0 -10 -11 -10h-174q-10 0 -10 10v1422q0 10 10 10h303q8 0 15 -10l620 -1229q5 -8 13 -8t8 10v1227q0 10 10 10zM657 -274h-45q-10 0 -10 10v141
q0 10 10 10h140q10 0 10 -10v-145q0 -70 -41 -114t-109 -44q-10 0 -10 10v60q0 10 15 10t33 15q17 15 17 36t-10 21z" />
    <glyph glyph-name="uni0146" unicode="&#x146;" horiz-adv-x="1153" 
d="M575 -274h-45q-10 0 -10 10v141q0 10 10 10h140q10 0 10 -10v-145q0 -70 -41 -114t-109 -44q-10 0 -10 10v60q0 10 15 10t33 15q17 15 17 36t-10 21zM133 1036h154q6 0 10 -10l20 -92q3 -8 11 -8t12 6q90 125 268 125q213 0 330 -136t117 -348v-563q0 -10 -11 -10h-174
q-10 0 -10 10v563q0 131 -65 221q-66 89 -198 89t-206 -91t-74 -219v-563q0 -10 -10 -10h-174q-10 0 -10 10v1016q0 10 10 10z" />
    <glyph glyph-name="Ncaron" unicode="&#x147;" horiz-adv-x="1452" 
d="M803 1847h123q16 0 10 -14l-88 -213q-2 -8 -10 -8h-234q-8 0 -10 8l-90 213q-8 14 10 14h123q6 0 12 -8l62 -84q10 -14 22 0l58 84q6 8 12 8zM1108 1442h174q10 0 10 -10v-1422q0 -10 -10 -10h-301q-10 0 -16 10l-621 1231q-5 10 -12 6q-8 -4 -8 -10v-1227q0 -10 -11 -10
h-174q-10 0 -10 10v1422q0 10 10 10h303q8 0 15 -10l620 -1229q5 -8 13 -8t8 10v1227q0 10 10 10z" />
    <glyph glyph-name="ncaron" unicode="&#x148;" horiz-adv-x="1153" 
d="M670 1442h123q18 0 10 -15l-88 -213q-2 -8 -10 -8h-234q-8 0 -10 8l-90 213q-6 14 10 15h123q6 0 12 -8l62 -84q12 -14 22 0l57 84q7 8 13 8zM133 1036h154q6 0 10 -10l20 -92q3 -8 11 -8t12 6q90 125 268 125q213 0 330 -136t117 -348v-563q0 -10 -11 -10h-174
q-10 0 -10 10v563q0 131 -65 221q-66 89 -198 89t-206 -91t-74 -219v-563q0 -10 -10 -10h-174q-10 0 -10 10v1016q0 10 10 10z" />
    <glyph glyph-name="napostrophe" unicode="&#x149;" horiz-adv-x="1153" 
d="M133 1036h154q6 0 10 -10l20 -92q3 -8 11 -8t12 6q90 125 268 125q213 0 330 -136t117 -348v-563q0 -10 -11 -10h-174q-10 0 -10 10v563q0 131 -65 221q-66 89 -198 89t-206 -91t-74 -219v-563q0 -10 -10 -10h-174q-10 0 -10 10v1016q0 10 10 10zM178 1280h-45
q-10 0 -10 10v142q0 10 10 10h139q10 0 11 -10v-146q0 -70 -41 -114t-109 -44q-10 0 -10 11v59q0 10 15 10q14 0 32 16t18 36t-10 20z" />
    <glyph glyph-name="Omacron" unicode="&#x14c;" horiz-adv-x="1458" 
d="M975 1604h-504q-8 0 -8 10v119q0 10 8 10h504q10 0 10 -10v-119q0 -10 -10 -10zM715 154q213 0 327 150t115 417q0 268 -115 418q-116 149 -328 149t-327 -150t-115 -417t115 -417t328 -150zM1360 721q0 -336 -166 -539q-166 -202 -479 -202t-481 202q-167 203 -166 539
q0 336 166 539q166 202 480 202t480 -202t166 -539z" />
    <glyph glyph-name="omacron" unicode="&#x14d;" horiz-adv-x="1161" 
d="M825 1206h-503q-8 0 -9 11v118q0 10 9 11h503q10 0 11 -11v-118q-1 -11 -11 -11zM889 518q0 162 -84 263q-85 101 -229 101t-229 -100q-85 -102 -85 -264t85 -263t229 -101t229 101q84 101 84 263zM1083 518q0 -244 -136 -391t-373 -147q-238 0 -372 147t-134 391
t135 391t371 147t373 -146q136 -148 136 -392z" />
    <glyph glyph-name="Obreve" unicode="&#x14e;" horiz-adv-x="1458" 
d="M817 1839h129q10 0 10 -10q0 -117 -70 -171t-163 -54q-94 0 -164 54t-70 171q0 10 11 10h127q10 0 10 -10q0 -39 27 -59q28 -20 60 -19q32 0 58 19t25 59q0 10 10 10zM715 154q213 0 327 150t115 417q0 268 -115 418q-116 149 -328 149t-327 -150t-115 -417t115 -417
t328 -150zM1360 721q0 -336 -166 -539q-166 -202 -479 -202t-481 202q-167 203 -166 539q0 336 166 539q166 202 480 202t480 -202t166 -539z" />
    <glyph glyph-name="obreve" unicode="&#x14f;" horiz-adv-x="1161" 
d="M670 1442h129q10 0 10 -10q0 -117 -70 -171q-70 -55 -164 -55q-93 0 -163 54t-70 172q0 10 10 10h127q10 0 10 -10q0 -38 27 -58q28 -20 60 -20t58 19t25 59q1 10 11 10zM889 518q0 162 -84 263q-85 101 -229 101t-229 -100q-85 -102 -85 -264t85 -263t229 -101t229 101
q84 101 84 263zM1083 518q0 -244 -136 -391t-373 -147q-238 0 -372 147t-134 391t135 391t371 147t373 -146q136 -148 136 -392z" />
    <glyph glyph-name="Ohungarumlaut" unicode="&#x150;" horiz-adv-x="1458" 
d="M1028 1554h-223q-8 0 -8 11l59 270q0 10 12 10h224q8 0 8 -10l-60 -270q0 -11 -12 -11zM578 1554h-224q-8 0 -8 11l60 270q0 10 12 10h223q8 0 8 -10l-59 -270q0 -11 -12 -11zM715 154q213 0 327 150t115 417q0 268 -115 418q-116 149 -328 149t-327 -150t-115 -417
t115 -417t328 -150zM1360 721q0 -336 -166 -539q-166 -202 -479 -202t-481 202q-167 203 -166 539q0 336 166 539q166 202 480 202t480 -202t166 -539z" />
    <glyph glyph-name="ohungarumlaut" unicode="&#x151;" horiz-adv-x="1161" 
d="M901 1151h-223q-8 0 -8 10l59 271q0 10 12 10h224q8 0 8 -10l-60 -271q0 -10 -12 -10zM451 1151h-224q-8 0 -8 10l60 271q0 10 12 10h223q8 0 8 -10l-59 -271q0 -10 -12 -10zM889 518q0 162 -84 263q-85 101 -229 101t-229 -100q-85 -102 -85 -264t85 -263t229 -101
t229 101q84 101 84 263zM1083 518q0 -244 -136 -391t-373 -147q-238 0 -372 147t-134 391t135 391t371 147t373 -146q136 -148 136 -392z" />
    <glyph glyph-name="OE" unicode="&#x152;" horiz-adv-x="2260" 
d="M715 154q213 0 327 150t115 417q0 268 -115 418q-116 149 -328 149t-327 -150t-115 -417t115 -417t328 -150zM1157 1432q0 10 10 10h965q10 0 10 -10v-154q0 -10 -10 -10h-770q-10 0 -10 -11v-428q0 -10 10 -10h686q10 0 10 -10v-154q0 -10 -10 -10h-686q-10 0 -10 -10
v-451q0 -10 10 -10h770q10 0 10 -10v-154q0 -10 -10 -10h-965q-10 0 -10 10v135q-162 -166 -442 -165q-313 0 -481 202q-167 203 -166 539q0 336 166 539q167 203 481 202q276 0 442 -166v136z" />
    <glyph glyph-name="oe" unicode="&#x153;" horiz-adv-x="1970" 
d="M1659 612q0 102 -74 186t-211 85q-137 0 -215 -91t-78 -180q0 -10 11 -10h557q10 0 10 10zM889 518q0 162 -84 263q-85 101 -229 101t-229 -100q-85 -102 -85 -264t85 -263t229 -101t229 101q84 101 84 263zM1872 518q0 -69 -17 -69h-763q-10 0 -11 -11q0 -116 80 -200
q79 -84 195 -84t173 36q56 37 93 107q4 10 14 10h193q12 0 10 -10q-39 -150 -165 -234t-302 -83q-250 0 -385 170q-10 14 -20 0q-135 -170 -383 -170t-382 147t-134 391t135 391t377 147t385 -167q10 -12 22 0q139 168 380 168q241 1 373 -147t132 -392z" />
    <glyph glyph-name="Racute" unicode="&#x154;" horiz-adv-x="1247" 
d="M596 1604h-117q-16 0 -10 14l88 207q4 14 21 14h178q18 0 10 -14l-148 -207q-10 -14 -22 -14zM733 1268h-379q-10 0 -10 -11v-499q0 -10 10 -10h387q96 4 168 78t72 178t-75 184t-173 80zM150 1432q0 10 10 10h598q170 0 294 -128t124 -310q0 -132 -68 -236t-176 -156
q-8 -4 -4 -14l262 -588q4 -10 -10 -10h-170q-14 0 -21 10l-246 553q-4 10 -14 10h-375q-10 0 -10 -10v-553q0 -10 -10 -10h-174q-10 0 -10 10v1422z" />
    <glyph glyph-name="racute" unicode="&#x155;" horiz-adv-x="765" 
d="M434 1206h-117q-18 0 -10 15l88 206q4 14 21 15h178q16 0 10 -15l-147 -206q-11 -15 -23 -15zM698 883h-104q-123 0 -197 -91t-73 -219v-563q0 -10 -11 -10h-174q-10 0 -10 10v1016q0 10 10 10h154q6 0 10 -10l21 -92q6 -18 22 -2q125 125 248 125h104q10 0 11 -10v-154
q-1 -10 -11 -10z" />
    <glyph glyph-name="uni0156" unicode="&#x156;" horiz-adv-x="1247" 
d="M631 -274h-45q-10 0 -11 10v141q0 10 11 10h139q10 0 10 -10v-145q0 -70 -41 -114t-108 -44q-10 0 -11 10v60q-1 10 15 10t34 15q17 15 17 36t-10 21zM733 1268h-379q-10 0 -10 -11v-499q0 -10 10 -10h387q96 4 168 78t72 178t-75 184t-173 80zM150 1432q0 10 10 10h598
q170 0 294 -128t124 -310q0 -132 -68 -236t-176 -156q-8 -4 -4 -14l262 -588q4 -10 -10 -10h-170q-14 0 -21 10l-246 553q-4 10 -14 10h-375q-10 0 -10 -10v-553q0 -10 -10 -10h-174q-10 0 -10 10v1422z" />
    <glyph glyph-name="uni0157" unicode="&#x157;" horiz-adv-x="765" 
d="M203 -274h-45q-10 0 -11 10v141q0 10 11 10h139q10 0 10 -10v-145q0 -70 -41 -114t-108 -44q-10 0 -11 10v60q-1 10 15 10t34 15q17 15 17 36t-10 21zM698 883h-104q-123 0 -197 -91t-73 -219v-563q0 -10 -11 -10h-174q-10 0 -10 10v1016q0 10 10 10h154q6 0 10 -10
l21 -92q6 -18 22 -2q125 125 248 125h104q10 0 11 -10v-154q-1 -10 -11 -10z" />
    <glyph glyph-name="Rcaron" unicode="&#x158;" horiz-adv-x="1308" 
d="M696 1845h123q16 0 10 -14l-88 -213q-2 -8 -10 -8h-233q-8 0 -11 8l-90 213q-8 14 11 14h122q6 0 13 -8l61 -84q10 -14 23 0l57 84q6 8 12 8zM733 1268h-379q-10 0 -10 -11v-499q0 -10 10 -10h387q96 4 168 78t72 178t-75 184t-173 80zM150 1432q0 10 10 10h598
q170 0 294 -128t124 -310q0 -132 -68 -236t-176 -156q-8 -4 -4 -14l262 -588q4 -10 -10 -10h-170q-14 0 -21 10l-246 553q-4 10 -14 10h-375q-10 0 -10 -10v-553q0 -10 -10 -10h-174q-10 0 -10 10v1422z" />
    <glyph glyph-name="rcaron" unicode="&#x159;" horiz-adv-x="765" 
d="M475 1442h123q16 0 10 -15l-88 -213q-2 -8 -10 -8h-234q-8 0 -10 8l-90 213q-8 14 10 15h123q6 0 13 -8l61 -84q10 -14 23 0l57 84q6 8 12 8zM698 883h-104q-123 0 -197 -91t-73 -219v-563q0 -10 -11 -10h-174q-10 0 -10 10v1016q0 10 10 10h154q6 0 10 -10l21 -92
q6 -18 22 -2q125 125 248 125h104q10 0 11 -10v-154q-1 -10 -11 -10z" />
    <glyph glyph-name="Sacute" unicode="&#x15a;" horiz-adv-x="1249" 
d="M639 1604h-117q-18 0 -10 14l88 207q4 14 21 14h178q16 0 10 -14l-147 -207q-11 -14 -23 -14zM903 1047q0 104 -87 173q-87 68 -216 68t-215 -68t-86 -178q0 -111 109 -154q78 -33 203 -47q124 -15 207 -35t169 -66q176 -93 176 -334q0 -174 -135 -300
q-134 -126 -400 -126t-412 120t-146 295q0 10 10 11h182q12 0 12 -13q0 -88 92 -164q92 -75 250 -75t250 72t92 192t-106 170q-89 42 -202 53q-114 13 -177 25t-138 42t-124 70t-83 111q-34 70 -34 162q0 186 150 299q150 112 354 112t353 -108q148 -108 157 -307
q0 -10 -10 -11h-185q-10 1 -10 11z" />
    <glyph glyph-name="sacute" unicode="&#x15b;" horiz-adv-x="1060" 
d="M563 1206h-117q-16 0 -10 15l88 206q4 14 21 15h178q18 0 10 -15l-147 -206q-11 -15 -23 -15zM958 686h-176q-10 0 -10 10q0 86 -66 137q-67 50 -183 50t-172 -39t-56 -91q1 -52 25 -70q24 -19 46 -32q24 -14 201 -34q176 -20 273 -62q156 -70 156 -242t-124 -253
q-122 -80 -336 -80t-334 102t-120 258q0 10 10 10h172q12 0 12 -10q0 -80 74 -133t195 -53q256 0 256 155q0 41 -25 66t-51 34q-25 9 -37 13t-39 8t-52 9t-52 5q-229 28 -298 68q-102 57 -129 131q-17 47 -18 109q0 129 115 217t307 88t319 -93q126 -93 126 -268
q-1 -10 -9 -10z" />
    <glyph glyph-name="Scircumflex" unicode="&#x15c;" horiz-adv-x="1249" 
d="M825 1604h-123q-6 0 -12 8l-59 84q-10 18 -23 0l-59 -84q-6 -8 -12 -8h-123q-16 0 -11 14l91 213q2 8 10 8h233q8 0 11 -8l88 -213q7 -14 -11 -14zM903 1047q0 104 -87 173q-87 68 -216 68t-215 -68t-86 -178q0 -111 109 -154q78 -33 203 -47q124 -15 207 -35t169 -66
q176 -93 176 -334q0 -174 -135 -300q-134 -126 -400 -126t-412 120t-146 295q0 10 10 11h182q12 0 12 -13q0 -88 92 -164q92 -75 250 -75t250 72t92 192t-106 170q-89 42 -202 53q-114 13 -177 25t-138 42t-124 70t-83 111q-34 70 -34 162q0 186 150 299q150 112 354 112
t353 -108q148 -108 157 -307q0 -10 -10 -11h-185q-10 1 -10 11z" />
    <glyph glyph-name="scircumflex" unicode="&#x15d;" horiz-adv-x="1060" 
d="M729 1206h-123q-6 0 -12 8l-59 84q-10 18 -23 0l-59 -84q-6 -8 -13 -8h-123q-18 0 -10 15l90 213q2 8 11 8h233q8 0 10 -8l88 -213q6 -15 -10 -15zM958 686h-176q-10 0 -10 10q0 86 -66 137q-67 50 -183 50t-172 -39t-56 -91q1 -52 25 -70q24 -19 46 -32q24 -14 201 -34
q176 -20 273 -62q156 -70 156 -242t-124 -253q-122 -80 -336 -80t-334 102t-120 258q0 10 10 10h172q12 0 12 -10q0 -80 74 -133t195 -53q256 0 256 155q0 41 -25 66t-51 34q-25 9 -37 13t-39 8t-52 9t-52 5q-229 28 -298 68q-102 57 -129 131q-17 47 -18 109q0 129 115 217
t307 88t319 -93q126 -93 126 -268q-1 -10 -9 -10z" />
    <glyph glyph-name="Scedilla" unicode="&#x15e;" horiz-adv-x="1249" 
d="M903 1047q0 104 -87 173q-87 68 -216 68t-215 -68t-86 -178q0 -111 109 -154q78 -33 203 -47q124 -15 207 -35t169 -66q176 -93 176 -334q0 -146 -99 -264t-300 -150l-119 -84q-4 -2 -3 -9t9 -8q61 0 112 -38q50 -39 50 -110t-55 -120q-56 -49 -146 -49t-138 49t-48 117
q0 10 10 10h68q10 0 10 -22t28 -50q28 -26 70 -26t71 26q28 26 28 71q0 44 -35 68q-35 23 -70 23t-41 6l-16 17q-12 14 -2 24l90 74q6 2 4 10t-10 9h-15q-254 0 -400 120t-146 295q0 10 10 11h182q12 0 12 -13q0 -88 92 -164q92 -75 250 -75t250 72t92 192t-106 170
q-89 42 -202 53q-114 13 -177 25t-138 42t-124 70t-83 111q-34 70 -34 162q0 186 150 299q150 112 354 112t353 -108q148 -108 157 -307q0 -10 -10 -11h-185q-10 1 -10 11z" />
    <glyph glyph-name="scedilla" unicode="&#x15f;" horiz-adv-x="1060" 
d="M958 686h-176q-10 0 -10 10q0 86 -66 137q-67 50 -183 50t-172 -39t-56 -91q1 -52 25 -70q24 -19 46 -32q24 -14 201 -34q176 -20 273 -62q156 -70 155 -246q0 -141 -90 -222t-246 -99l-108 -80q-4 -2 -3 -9t9 -8q61 0 112 -38q50 -39 50 -110t-55 -120q-56 -49 -146 -49
t-138 49t-48 117q0 10 10 10h68q10 0 10 -22t28 -50q28 -26 70 -26q43 0 71 26q27 26 27 71q0 44 -34 68q-35 23 -70 23t-41 6l-16 17q-12 14 -2 24l102 82q4 2 2 6t-6 5h-6q-223 0 -343 102t-120 258q0 10 10 10h172q12 0 12 -10q0 -80 74 -133t195 -53q256 0 256 155
q0 41 -25 66t-51 34q-25 9 -37 13t-39 8t-52 9t-52 5q-229 28 -298 68q-102 57 -129 131q-17 47 -18 109q0 129 115 217t307 88t319 -93q126 -93 126 -268q-1 -10 -9 -10z" />
    <glyph glyph-name="Scaron" unicode="&#x160;" horiz-adv-x="1249" 
d="M682 1847h123q18 0 10 -14l-88 -213q-2 -8 -10 -8h-234q-8 0 -10 8l-90 213q-6 14 10 14h123q6 0 12 -8l62 -84q12 -14 22 0l58 84q6 8 12 8zM903 1047q0 104 -87 173q-87 68 -216 68t-215 -68t-86 -178q0 -111 109 -154q78 -33 203 -47q124 -15 207 -35t169 -66
q176 -93 176 -334q0 -174 -135 -300q-134 -126 -400 -126t-412 120t-146 295q0 10 10 11h182q12 0 12 -13q0 -88 92 -164q92 -75 250 -75t250 72t92 192t-106 170q-89 42 -202 53q-114 13 -177 25t-138 42t-124 70t-83 111q-34 70 -34 162q0 186 150 299q150 112 354 112
t353 -108q148 -108 157 -307q0 -10 -10 -11h-185q-10 1 -10 11z" />
    <glyph glyph-name="scaron" unicode="&#x161;" horiz-adv-x="1073" 
d="M614 1442h123q16 0 11 -15l-89 -213q-2 -8 -10 -8h-233q-8 0 -10 8l-91 213q-8 14 11 15h123q6 0 12 -8l61 -84q10 -14 23 0l57 84q6 8 12 8zM958 686h-176q-10 0 -10 10q0 86 -66 137q-67 50 -183 50t-172 -39t-56 -91q1 -52 25 -70q24 -19 46 -32q24 -14 201 -34
q176 -20 273 -62q156 -70 156 -242t-124 -253q-122 -80 -336 -80t-334 102t-120 258q0 10 10 10h172q12 0 12 -10q0 -80 74 -133t195 -53q256 0 256 155q0 41 -25 66t-51 34q-25 9 -37 13t-39 8t-52 9t-52 5q-229 28 -298 68q-102 57 -129 131q-17 47 -18 109q0 129 115 217
t307 88t319 -93q126 -93 126 -268q-1 -10 -9 -10z" />
    <glyph glyph-name="uni0162" unicode="&#x162;" horiz-adv-x="1110" 
d="M442 10v1250q-4 8 -10 8h-395q-10 0 -10 10v154q0 10 10 10h1005q10 0 11 -10v-154q0 -10 -11 -10h-395q-10 0 -10 -11v-1247q0 -10 -10 -10h-174q-11 0 -11 10zM514 -274h-45q-10 0 -10 10v141q0 10 10 10h139q10 0 10 -10v-145q0 -70 -40 -114t-109 -44q-10 0 -10 10
v60q0 10 15 10t33 15q17 15 17 36t-10 21z" />
    <glyph glyph-name="uni0163" unicode="&#x163;" horiz-adv-x="727" 
d="M668 164v-154q0 -10 -11 -10h-157q-268 -6 -269 242v630q0 10 -10 11h-182q-10 0 -10 10v133q0 10 10 10h182q10 0 10 11v276q0 10 11 10h174q10 0 10 -10v-276q0 -10 10 -11h221q10 0 11 -10v-133q0 -10 -11 -10h-221q-10 0 -10 -11v-596q0 -102 111 -102h120
q11 0 11 -10zM401 -274h-45q-10 0 -10 10v141q0 10 10 10h140q10 0 10 -10v-145q0 -70 -41 -114t-109 -44q-10 0 -10 10v60q0 10 15 10t33 15q17 15 17 36t-10 21z" />
    <glyph glyph-name="Tcaron" unicode="&#x164;" horiz-adv-x="1110" 
d="M623 1845h122q16 0 11 -14l-88 -213q-2 -8 -11 -8h-233q-8 0 -10 8l-90 213q-8 14 10 14h123q6 0 12 -8l61 -84q10 -14 23 0l57 84q7 8 13 8zM442 10v1250q-4 8 -10 8h-395q-10 0 -10 10v154q0 10 10 10h1005q10 0 11 -10v-154q0 -10 -11 -10h-395q-10 0 -10 -11v-1247
q0 -10 -10 -10h-174q-11 0 -11 10z" />
    <glyph glyph-name="tcaron" unicode="&#x165;" horiz-adv-x="727" 
d="M668 164v-154q0 -10 -11 -10h-157q-268 -6 -269 242v630q0 10 -10 11h-182q-10 0 -10 10v133q0 10 10 10h182q10 0 10 11v276q0 10 11 10h174q10 0 10 -10v-276q0 -10 10 -11h221q10 0 11 -10v-133q0 -10 -11 -10h-221q-10 0 -10 -11v-596q0 -102 111 -102h120
q11 0 11 -10zM584 1280h-45q-10 0 -11 10v142q0 10 11 10h139q10 0 10 -10v-146q0 -70 -41 -114t-108 -44q-10 0 -11 11v59q0 10 16 10t32 16q18 16 18 36t-10 20z" />
    <glyph glyph-name="Tbar" unicode="&#x166;" horiz-adv-x="1110" 
d="M442 1047v213q-4 8 -10 8h-395q-10 0 -10 10v154q0 10 10 10h1005q10 0 11 -10v-154q0 -10 -11 -10h-395q-10 0 -10 -11v-210q0 -10 10 -11h320q10 0 10 -10v-113q0 -10 -10 -10h-320q-10 0 -10 -10v-883q0 -10 -10 -10h-174q-10 0 -11 10v883q0 10 -10 10h-319
q-10 0 -11 10v113q0 10 11 10h319q10 1 10 11z" />
    <glyph glyph-name="tbar" unicode="&#x167;" horiz-adv-x="727" 
d="M426 506v-230q0 -102 111 -102h120q10 0 11 -10v-154q0 -10 -11 -10h-157q-268 -6 -269 242v264q0 10 -10 10h-182q-10 0 -10 10v133q0 10 10 11h182q10 0 10 10v192q0 10 -10 11h-182q-10 0 -10 10v133q0 10 10 10h182q10 0 10 11v276q0 10 11 10h174q10 0 10 -10v-276
q0 -10 10 -11h221q10 0 11 -10v-133q0 -10 -11 -10h-221q-10 0 -10 -11v-192q0 -10 10 -10h221q10 0 11 -11v-133q0 -10 -11 -10h-221q-10 0 -10 -10z" />
    <glyph glyph-name="Utilde" unicode="&#x168;" horiz-adv-x="1271" 
d="M311 1614v47q0 68 50 122t146 54t187 -71q31 -24 46 -24q16 0 26 3q10 2 25 21q14 19 14 61q0 10 10 10h123q10 0 10 -10v-49q0 -66 -50 -120t-159 -54q-61 0 -132 47t-87 47t-26 -2t-24 -22t-15 -60q0 -10 -11 -10h-122q-11 0 -11 10zM303 1432v-943q0 -133 94 -234
q95 -101 225 -101t223 101t93 234v943q0 10 10 10h174q10 0 11 -10v-943q-1 -213 -149 -361t-361 -148t-364 148t-150 361v943q0 10 10 10h174q10 0 10 -10z" />
    <glyph glyph-name="utilde" unicode="&#x169;" horiz-adv-x="1144" 
d="M248 1219v47q0 68 50 122t144 54t189 -71q31 -23 46 -23t25 2t25 21q14 19 14 61q0 10 11 10h122q10 0 11 -10v-50q0 -66 -50 -120t-159 -54q-61 0 -132 47t-87 47q-17 0 -27 -2t-24 -21t-14 -45t-11 -26h-123q-10 1 -10 11zM1020 0h-154q-6 0 -10 10l-20 92q-4 8 -12 8
t-11 -6q-33 -47 -105 -86t-163 -38q-238 0 -342 132t-105 351v563q0 10 11 10h174q10 0 10 -10v-563q-1 -131 65 -220t198 -89t206 91t74 218v563q0 10 10 10h174q10 0 10 -10v-1016q0 -10 -10 -10z" />
    <glyph glyph-name="Umacron" unicode="&#x16a;" horiz-adv-x="1271" 
d="M881 1604h-504q-8 0 -8 10v119q0 10 8 10h504q10 0 10 -10v-119q0 -10 -10 -10zM303 1432v-943q0 -133 94 -234q95 -101 225 -101t223 101t93 234v943q0 10 10 10h174q10 0 11 -10v-943q-1 -213 -149 -361t-361 -148t-364 148t-150 361v943q0 10 10 10h174q10 0 10 -10z
" />
    <glyph glyph-name="umacron" unicode="&#x16b;" horiz-adv-x="1144" 
d="M817 1206h-504q-8 0 -8 11v118q0 10 8 11h504q10 0 10 -11v-118q0 -11 -10 -11zM1020 0h-154q-6 0 -10 10l-20 92q-4 8 -12 8t-11 -6q-33 -47 -105 -86t-163 -38q-238 0 -342 132t-105 351v563q0 10 11 10h174q10 0 10 -10v-563q-1 -131 65 -220t198 -89t206 91t74 218
v563q0 10 10 10h174q10 0 10 -10v-1016q0 -10 -10 -10z" />
    <glyph glyph-name="Ubreve" unicode="&#x16c;" horiz-adv-x="1271" 
d="M725 1839h129q10 0 10 -10q0 -117 -70 -171t-163 -54q-94 0 -164 54t-70 171q0 10 11 10h127q10 0 10 -10q0 -39 26 -59q27 -19 60 -19t59 19t25 59q0 10 10 10zM303 1432v-943q0 -133 94 -234q95 -101 225 -101t223 101t93 234v943q0 10 10 10h174q10 0 11 -10v-943
q-1 -213 -149 -361t-361 -148t-364 148t-150 361v943q0 10 10 10h174q10 0 10 -10z" />
    <glyph glyph-name="ubreve" unicode="&#x16d;" horiz-adv-x="1144" 
d="M662 1442h129q10 0 10 -10q0 -117 -70 -171q-70 -55 -164 -55t-164 54t-69 172q0 10 10 10h127q10 0 10 -10q0 -38 27 -58q28 -20 60 -20t58 19t25 59q1 10 11 10zM1020 0h-154q-6 0 -10 10l-20 92q-4 8 -12 8t-11 -6q-33 -47 -105 -86t-163 -38q-238 0 -342 132
t-105 351v563q0 10 11 10h174q10 0 10 -10v-563q-1 -131 65 -220t198 -89t206 91t74 218v563q0 10 10 10h174q10 0 10 -10v-1016q0 -10 -10 -10z" />
    <glyph glyph-name="Uring" unicode="&#x16e;" horiz-adv-x="1271" 
d="M721 1688q0 40 -27 66q-28 26 -66 26t-65 -27t-27 -65t28 -66q26 -27 65 -27t65 27t27 66zM809 1688q0 -74 -53 -126t-127 -52t-126 52t-52 126t52 127t126 53t127 -53t53 -127zM303 1432v-943q0 -133 94 -234q95 -101 225 -101t223 101t93 234v943q0 10 10 10h174
q10 0 11 -10v-943q-1 -213 -149 -361t-361 -148t-364 148t-150 361v943q0 10 10 10h174q10 0 10 -10z" />
    <glyph glyph-name="uring" unicode="&#x16f;" horiz-adv-x="1144" 
d="M657 1280q0 39 -26 66q-27 26 -66 26t-65 -26t-27 -66q0 -39 27 -66q28 -26 66 -26t65 26q26 27 26 66zM745 1280q0 -74 -53 -126t-127 -52t-126 52t-52 126t52 127t126 53t127 -53t53 -127zM1020 0h-154q-6 0 -10 10l-20 92q-4 8 -12 8t-11 -6q-33 -47 -105 -86
t-163 -38q-238 0 -342 132t-105 351v563q0 10 11 10h174q10 0 10 -10v-563q-1 -131 65 -220t198 -89t206 91t74 218v563q0 10 10 10h174q10 0 10 -10v-1016q0 -10 -10 -10z" />
    <glyph glyph-name="Uhungarumlaut" unicode="&#x170;" horiz-adv-x="1271" 
d="M936 1554h-223q-8 0 -8 11l59 270q0 10 12 10h223q8 0 9 -10l-60 -270q0 -11 -12 -11zM485 1554h-223q-8 0 -8 11l59 270q0 10 13 10h223q8 0 8 -10l-59 -270q-1 -11 -13 -11zM303 1432v-943q0 -133 94 -234q95 -101 225 -101t223 101t93 234v943q0 10 10 10h174
q10 0 11 -10v-943q-1 -213 -149 -361t-361 -148t-364 148t-150 361v943q0 10 10 10h174q10 0 10 -10z" />
    <glyph glyph-name="uhungarumlaut" unicode="&#x171;" horiz-adv-x="1144" 
d="M872 1151h-223q-8 0 -8 10l59 271q0 10 13 10h223q8 0 8 -10l-59 -271q-1 -10 -13 -10zM422 1151h-223q-8 0 -9 10l60 271q0 10 12 10h223q8 0 9 -10l-60 -271q0 -10 -12 -10zM1020 0h-154q-6 0 -10 10l-20 92q-4 8 -12 8t-11 -6q-33 -47 -105 -86t-163 -38
q-238 0 -342 132t-105 351v563q0 10 11 10h174q10 0 10 -10v-563q-1 -131 65 -220t198 -89t206 91t74 218v563q0 10 10 10h174q10 0 10 -10v-1016q0 -10 -10 -10z" />
    <glyph glyph-name="Uogonek" unicode="&#x172;" horiz-adv-x="1271" 
d="M303 1432v-943q0 -133 94 -234q95 -101 225 -101t223 101t93 234v943q0 10 10 10h174q10 0 11 -10v-943q0 -258 -211 -415q-10 -8 -42 -30q-90 -62 -110 -116q-8 -24 -8 -70t40 -78t107 -32h29q10 0 10 -10v-133q0 -10 -10 -11h-49q-123 0 -198 54t-77 147q-2 92 58 166
q6 8 3 15q-3 8 -16 6t-36 -2q-213 0 -364 148t-150 361v943q0 10 10 10h174q10 0 10 -10z" />
    <glyph glyph-name="uogonek" unicode="&#x173;" horiz-adv-x="1144" 
d="M1020 0h-35q-59 0 -100 -38t-41 -94t40 -88t107 -32h29q10 0 10 -10v-133q0 -10 -10 -11h-49q-123 0 -198 54t-77 149q0 152 150 203q10 4 8 16l-18 86q-2 8 -10 8t-13 -6q-33 -47 -105 -86t-163 -38q-238 0 -342 132t-105 351v563q0 10 11 10h174q10 0 10 -10v-563
q-1 -131 65 -220t198 -89t206 91t74 218v563q0 10 10 10h174q10 0 10 -10v-1016q0 -10 -10 -10z" />
    <glyph glyph-name="Wcircumflex" unicode="&#x174;" horiz-adv-x="1941" 
d="M1171 1604h-122q-6 0 -13 8l-59 84q-10 18 -23 0l-59 -84q-6 -8 -12 -8h-123q-18 0 -10 14l90 213q2 8 10 8h233q8 0 11 -8l88 -213q5 -14 -11 -14zM1417 197q8 0 10 8l226 1227q4 10 10 10h186q14 0 13 -10l-283 -1422q-4 -10 -12 -10h-312q-6 0 -10 10l-264 1225
q-2 8 -10 8t-10 -8l-265 -1225q-4 -10 -10 -10h-311q-8 0 -13 10l-282 1422q-2 10 12 10h187q6 0 10 -10l225 -1227q2 -8 10 -8t11 8l253 1227q4 10 11 10h344q6 0 10 -10l254 -1227q2 -8 10 -8z" />
    <glyph glyph-name="wcircumflex" unicode="&#x175;" horiz-adv-x="1658" 
d="M1049 1206h-123q-6 0 -13 8l-59 84q-10 18 -23 0l-59 -84q-6 -8 -12 -8h-123q-18 0 -10 15l90 213q2 8 10 8h234q8 0 10 -8l88 -213q6 -15 -10 -15zM1321 0h-260q-6 0 -10 10l-199 817q-2 9 -10 9t-11 -9l-196 -817q-4 -10 -10 -10h-260q-8 0 -13 10l-243 1016
q-2 10 12 10h174q6 0 10 -10l178 -823q3 -8 11 -8t10 8l203 823q4 10 10 10h252q6 0 10 -10l203 -823q2 -8 10 -8t10 8l178 823q4 10 11 10h174q14 0 12 -10l-244 -1016q-4 -10 -12 -10z" />
    <glyph glyph-name="Ycircumflex" unicode="&#x176;" horiz-adv-x="1349" 
d="M874 1604h-122q-6 0 -13 8l-59 84q-10 18 -23 0l-59 -84q-6 -8 -12 -8h-123q-16 0 -10 14l90 213q2 8 10 8h233q8 0 11 -8l88 -213q7 -14 -11 -14zM774 621v-611q0 -10 -10 -10h-174q-10 0 -10 10v611q0 4 -11 20l-483 791q-6 10 6 10h207q10 0 16 -10l351 -584
q10 -14 20 0l352 584q8 10 21 10h203q12 0 6 -10l-488 -791q-6 -10 -6 -20z" />
    <glyph glyph-name="ycircumflex" unicode="&#x177;" horiz-adv-x="1107" 
d="M754 1206h-123q-6 0 -13 8l-59 84q-10 18 -22 0l-60 -84q-6 -8 -12 -8h-123q-18 0 -10 15l90 213q2 8 10 8h234q8 0 10 -8l88 -213q6 -15 -10 -15zM76 -242q0 10 10 11h231q88 0 119 51t2 135l-364 1071q-2 10 12 10h186q6 0 11 -10l268 -823q2 -8 10 -8t10 8l271 823
q4 10 10 10h186q14 0 11 -10l-410 -1204q-45 -129 -105 -178t-182 -50h-266q-10 0 -10 11v153z" />
    <glyph glyph-name="Ydieresis" unicode="&#x178;" horiz-adv-x="1349" 
d="M1047 1833v-213q0 -10 -11 -10h-215q-10 0 -10 10v213q0 10 10 10h215q11 0 11 -10zM547 1833v-213q0 -10 -10 -10h-215q-10 0 -11 10v213q0 10 11 10h215q10 0 10 -10zM774 621v-611q0 -10 -10 -10h-174q-10 0 -10 10v611q0 4 -11 20l-483 791q-6 10 6 10h207
q10 0 16 -10l351 -584q10 -14 20 0l352 584q8 10 21 10h203q12 0 6 -10l-488 -791q-6 -10 -6 -20z" />
    <glyph glyph-name="Zacute" unicode="&#x179;" horiz-adv-x="1157" 
d="M551 1604h-117q-16 0 -10 14l88 207q4 14 20 14h179q18 0 10 -14l-148 -207q-10 -14 -22 -14zM51 10v144q0 18 6 26l781 1075q8 12 -4 13h-773q-10 0 -10 10v154q0 10 10 10h1004q10 0 10 -10v-144q0 -20 -4 -26l-784 -1078q-6 -10 4 -10h774q10 0 10 -10v-154
q0 -10 -10 -10h-1004q-10 0 -10 10z" />
    <glyph glyph-name="zacute" unicode="&#x17a;" horiz-adv-x="958" 
d="M473 1206h-117q-16 0 -10 15l88 206q4 14 21 15h178q18 0 10 -15l-147 -206q-11 -15 -23 -15zM51 10v154q0 8 8 20l549 662q4 2 1 9t-9 7h-516q-10 0 -10 10v154q0 10 10 10h756q10 0 10 -10v-154q0 -10 -8 -20l-545 -662q-4 -4 -1 -10t9 -6h561q10 0 11 -10v-154
q0 -10 -11 -10h-805q-10 0 -10 10z" />
    <glyph glyph-name="Zdotaccent" unicode="&#x17b;" horiz-adv-x="1157" 
d="M676 1642h-264q-10 0 -11 11v270q0 10 11 10h264q10 0 10 -10v-270q0 -11 -10 -11zM51 10v144q0 18 6 26l781 1075q8 12 -4 13h-773q-10 0 -10 10v154q0 10 10 10h1004q10 0 10 -10v-144q0 -20 -4 -26l-784 -1078q-6 -10 4 -10h774q10 0 10 -10v-154q0 -10 -10 -10h-1004
q-10 0 -10 10z" />
    <glyph glyph-name="zdotaccent" unicode="&#x17c;" horiz-adv-x="958" 
d="M608 1151h-264q-10 0 -10 10v271q0 10 10 10h264q10 0 10 -10v-271q0 -10 -10 -10zM51 10v154q0 8 8 20l549 662q4 2 1 9t-9 7h-516q-10 0 -10 10v154q0 10 10 10h756q10 0 10 -10v-154q0 -10 -8 -20l-545 -662q-4 -4 -1 -10t9 -6h561q10 0 11 -10v-154q0 -10 -11 -10
h-805q-10 0 -10 10z" />
    <glyph glyph-name="Zcaron" unicode="&#x17d;" horiz-adv-x="1157" 
d="M653 1845h123q18 0 10 -14l-88 -213q-2 -8 -10 -8h-233q-8 0 -11 8l-90 213q-6 14 11 14h122q6 0 13 -8l61 -84q12 -14 23 0l57 84q6 8 12 8zM51 10v144q0 18 6 26l781 1075q8 12 -4 13h-773q-10 0 -10 10v154q0 10 10 10h1004q10 0 10 -10v-144q0 -20 -4 -26l-784 -1078
q-6 -10 4 -10h774q10 0 10 -10v-154q0 -10 -10 -10h-1004q-10 0 -10 10z" />
    <glyph glyph-name="zcaron" unicode="&#x17e;" horiz-adv-x="958" 
d="M561 1442h123q16 0 10 -15l-88 -213q-2 -8 -10 -8h-234q-8 0 -10 8l-90 213q-8 14 10 15h123q6 0 13 -8l61 -84q10 -14 23 0l57 84q6 8 12 8zM51 10v154q0 8 8 20l549 662q4 2 1 9t-9 7h-516q-10 0 -10 10v154q0 10 10 10h756q10 0 10 -10v-154q0 -10 -8 -20l-545 -662
q-4 -4 -1 -10t9 -6h561q10 0 11 -10v-154q0 -10 -11 -10h-805q-10 0 -10 10z" />
    <glyph glyph-name="longs" unicode="&#x17f;" horiz-adv-x="706" 
d="M668 1432v-154q0 -10 -11 -10h-135q-44 0 -70 -28t-26 -75v-1155q0 -10 -10 -10h-174q-10 0 -11 10v862q0 10 -10 11h-182q-10 0 -10 10v133q0 10 10 10h182q10 0 10 11v153q0 248 289 242h137q11 0 11 -10z" />
    <glyph glyph-name="florin" unicode="&#x192;" horiz-adv-x="1024" 
d="M143 -231q109 0 129 102l195 1003q0 8 -8 9h-183q-12 0 -8 10l27 133q0 10 12 10h182q8 0 13 11l28 153q49 248 336 242h138q12 0 8 -10l-29 -154q-4 -10 -12 -10h-135q-96 0 -117 -103l-23 -118q-4 -10 9 -11h221q8 0 8 -10l-27 -133q-4 -10 -12 -10h-221q-8 0 -12 -11
l-201 -1036q-49 -248 -314 -242h-157q-12 1 -8 11l28 153q4 10 13 11h120z" />
    <glyph glyph-name="uni0218" unicode="&#x218;" horiz-adv-x="1249" 
d="M596 -274h-45q-10 0 -10 10v141q0 10 10 10h139q10 0 10 -10v-145q0 -70 -41 -114t-108 -44q-10 0 -10 10v60q0 10 15 10t33 15q17 15 17 36t-10 21zM903 1047q0 104 -87 173q-87 68 -216 68t-215 -68t-86 -178q0 -111 109 -154q78 -33 203 -47q124 -15 207 -35t169 -66
q176 -93 176 -334q0 -174 -135 -300q-134 -126 -400 -126t-412 120t-146 295q0 10 10 11h182q12 0 12 -13q0 -88 92 -164q92 -75 250 -75t250 72t92 192t-106 170q-89 42 -202 53q-114 13 -177 25t-138 42t-124 70t-83 111q-34 70 -34 162q0 186 150 299q150 112 354 112
t353 -108q148 -108 157 -307q0 -10 -10 -11h-185q-10 1 -10 11z" />
    <glyph glyph-name="uni0219" unicode="&#x219;" horiz-adv-x="1060" 
d="M514 -274h-45q-10 0 -10 10v141q0 10 10 10h139q10 0 10 -10v-145q0 -70 -40 -114t-109 -44q-10 0 -10 10v60q0 10 15 10t33 15q17 15 17 36t-10 21zM958 686h-176q-10 0 -10 10q0 86 -66 137q-67 50 -183 50t-172 -39t-56 -91q1 -52 25 -70q24 -19 46 -32
q24 -14 201 -34q176 -20 273 -62q156 -70 156 -242t-124 -253q-122 -80 -336 -80t-334 102t-120 258q0 10 10 10h172q12 0 12 -10q0 -80 74 -133t195 -53q256 0 256 155q0 41 -25 66t-51 34q-25 9 -37 13t-39 8t-52 9t-52 5q-229 28 -298 68q-102 57 -129 131
q-17 47 -18 109q0 129 115 217t307 88t319 -93q126 -93 126 -268q-1 -10 -9 -10z" />
    <glyph glyph-name="uni021A" unicode="&#x21a;" horiz-adv-x="1110" 
d="M442 10v1250q-4 8 -10 8h-395q-10 0 -10 10v154q0 10 10 10h1005q10 0 11 -10v-154q0 -10 -11 -10h-395q-10 0 -10 -11v-1247q0 -10 -10 -10h-174q-11 0 -11 10zM514 -274h-45q-10 0 -10 10v141q0 10 10 10h139q10 0 10 -10v-145q0 -70 -40 -114t-109 -44q-10 0 -10 10
v60q0 10 15 10t33 15q17 15 17 36t-10 21z" />
    <glyph glyph-name="uni021B" unicode="&#x21b;" horiz-adv-x="727" 
d="M668 164v-154q0 -10 -11 -10h-157q-268 -6 -269 242v630q0 10 -10 11h-182q-10 0 -10 10v133q0 10 10 10h182q10 0 10 11v276q0 10 11 10h174q10 0 10 -10v-276q0 -10 10 -11h221q10 0 11 -10v-133q0 -10 -11 -10h-221q-10 0 -10 -11v-596q0 -102 111 -102h120
q11 0 11 -10zM401 -274h-45q-10 0 -10 10v141q0 10 10 10h140q10 0 10 -10v-145q0 -70 -41 -114t-109 -44q-10 0 -10 10v60q0 10 15 10t33 15q17 15 17 36t-10 21z" />
    <glyph glyph-name="circumflex" unicode="&#x2c6;" horiz-adv-x="630" 
d="M516 1206h-123q-6 0 -12 8l-59 84q-10 18 -23 0l-59 -84q-6 -8 -13 -8h-123q-18 0 -10 15l90 213q2 8 11 8h233q8 0 10 -8l88 -213q6 -15 -10 -15z" />
    <glyph glyph-name="caron" unicode="&#x2c7;" horiz-adv-x="630" 
d="M393 1442h123q16 0 10 -15l-88 -213q-2 -8 -10 -8h-233q-8 0 -11 8l-90 213q-8 14 10 15h123q6 0 13 -8l61 -84q10 -14 23 0l57 84q6 8 12 8z" />
    <glyph glyph-name="uni02C9" unicode="&#x2c9;" horiz-adv-x="749" 
d="M621 1206h-504q-8 0 -8 11v118q0 10 8 11h504q10 0 10 -11v-118q0 -11 -10 -11z" />
    <glyph glyph-name="breve" unicode="&#x2d8;" horiz-adv-x="686" 
d="M418 1442h129q10 0 10 -10q0 -117 -70 -171q-69 -55 -163 -55t-164 54t-70 172q0 10 10 10h127q10 0 11 -10q0 -39 26 -59q27 -19 60 -19q32 0 58 19t26 59q0 10 10 10z" />
    <glyph glyph-name="dotaccent" unicode="&#x2d9;" horiz-adv-x="495" 
d="M362 1151h-264q-10 0 -10 10v271q0 10 10 10h264q10 0 11 -10v-271q-1 -10 -11 -10z" />
    <glyph glyph-name="ring" unicode="&#x2da;" horiz-adv-x="503" 
d="M328 1280q0 39 -27 66q-27 26 -65 26t-66 -26q-27 -26 -27 -66q0 -39 27 -66q27 -26 66 -26q40 0 66 26t26 66zM416 1280q0 -74 -54 -126t-126 -52q-74 0 -126 52t-53 126q1 74 53 127t126 53t127 -53t53 -127z" />
    <glyph glyph-name="ogonek" unicode="&#x2db;" horiz-adv-x="522" 
d="M422 20q10 0 10 -10t-10 -10h-12q-62 0 -108 -38t-46 -94t40 -88t107 -32h29q10 0 10 -10v-133q0 -10 -10 -11h-49q-123 0 -198 54t-77 154q-2 99 82 161q85 61 220 57h12z" />
    <glyph glyph-name="tilde" unicode="&#x2dc;" horiz-adv-x="894" 
d="M88 1219v47q0 68 50 122t144 54t189 -71q31 -23 46 -23t25 2t25 21q14 19 15 61q0 10 10 10h123q10 0 10 -10v-50q0 -66 -50 -120t-159 -54q-61 0 -132 47t-87 47q-17 0 -27 -2t-24 -21t-14 -45t-11 -26h-123q-10 1 -10 11z" />
    <glyph glyph-name="hungarumlaut" unicode="&#x2dd;" horiz-adv-x="878" 
d="M729 1151h-223q-8 0 -8 10l59 271q0 10 12 10h224q8 0 8 -10l-60 -271q0 -10 -12 -10zM279 1151h-224q-8 0 -8 10l59 271q0 10 13 10h223q8 0 8 -10l-59 -271q0 -10 -12 -10z" />
    <glyph glyph-name="uni0394" unicode="&#x394;" horiz-adv-x="1413" 
d="M360 174h682q14 0 11 14l-338 1051q-3 8 -11 8t-10 -8l-344 -1053q-4 -12 10 -12zM1262 0h-1121q-10 0 -10 10v150q0 6 6 18l426 1254q4 10 12 10h261q6 0 10 -10l420 -1252q6 -18 6 -20v-150q0 -10 -10 -10z" />
    <glyph glyph-name="uni03A9" unicode="&#x3a9;" 
d="M123 96l354 625l-354 625v-1250zM530 721l355 -623v1245q-240 -415 -355 -622zM150 49h708l-354 625zM504 768l354 627h-708zM934 1432v-1422q0 -10 -10 -10h-842q-10 0 -10 10v1422q0 10 10 10h842q10 0 10 -10z" />
    <glyph glyph-name="uni03BC" unicode="&#x3bc;" 
d="M123 96l354 625l-354 625v-1250zM530 721l355 -623v1245q-240 -415 -355 -622zM150 49h708l-354 625zM504 768l354 627h-708zM934 1432v-1422q0 -10 -10 -10h-842q-10 0 -10 10v1422q0 10 10 10h842q10 0 10 -10z" />
    <glyph glyph-name="pi" unicode="&#x3c0;" 
d="M123 96l354 625l-354 625v-1250zM530 721l355 -623v1245q-240 -415 -355 -622zM150 49h708l-354 625zM504 768l354 627h-708zM934 1432v-1422q0 -10 -10 -10h-842q-10 0 -10 10v1422q0 10 10 10h842q10 0 10 -10z" />
    <glyph glyph-name="Wgrave" unicode="&#x1e80;" horiz-adv-x="1941" 
d="M1042 1604h-116q-12 0 -23 14l-147 207q-6 14 10 14h178q16 0 21 -14l88 -207q7 -14 -11 -14zM1417 197q8 0 10 8l226 1227q4 10 10 10h186q14 0 13 -10l-283 -1422q-4 -10 -12 -10h-312q-6 0 -10 10l-264 1225q-2 8 -10 8t-10 -8l-265 -1225q-4 -10 -10 -10h-311
q-8 0 -13 10l-282 1422q-2 10 12 10h187q6 0 10 -10l225 -1227q2 -8 10 -8t11 8l253 1227q4 10 11 10h344q6 0 10 -10l254 -1227q2 -8 10 -8z" />
    <glyph glyph-name="wgrave" unicode="&#x1e81;" horiz-adv-x="1658" 
d="M899 1206h-117q-12 0 -22 15l-148 206q-6 14 11 15h178q16 0 20 -15l88 -206q8 -15 -10 -15zM1321 0h-260q-6 0 -10 10l-199 817q-2 9 -10 9t-11 -9l-196 -817q-4 -10 -10 -10h-260q-8 0 -13 10l-243 1016q-2 10 12 10h174q6 0 10 -10l178 -823q3 -8 11 -8t10 8l203 823
q4 10 10 10h252q6 0 10 -10l203 -823q2 -8 10 -8t10 8l178 823q4 10 11 10h174q14 0 12 -10l-244 -1016q-4 -10 -12 -10z" />
    <glyph glyph-name="Wacute" unicode="&#x1e82;" horiz-adv-x="1941" 
d="M1006 1604h-117q-16 0 -10 14l88 207q4 14 20 14h178q18 0 11 -14l-148 -207q-10 -14 -22 -14zM1417 197q8 0 10 8l226 1227q4 10 10 10h186q14 0 13 -10l-283 -1422q-4 -10 -12 -10h-312q-6 0 -10 10l-264 1225q-2 8 -10 8t-10 -8l-265 -1225q-4 -10 -10 -10h-311
q-8 0 -13 10l-282 1422q-2 10 12 10h187q6 0 10 -10l225 -1227q2 -8 10 -8t11 8l253 1227q4 10 11 10h344q6 0 10 -10l254 -1227q2 -8 10 -8z" />
    <glyph glyph-name="wacute" unicode="&#x1e83;" horiz-adv-x="1658" 
d="M903 1206h-117q-16 0 -10 15l88 206q4 14 21 15h178q18 0 10 -15l-147 -206q-11 -15 -23 -15zM1321 0h-260q-6 0 -10 10l-199 817q-2 9 -10 9t-11 -9l-196 -817q-4 -10 -10 -10h-260q-8 0 -13 10l-243 1016q-2 10 12 10h174q6 0 10 -10l178 -823q3 -8 11 -8t10 8l203 823
q4 10 10 10h252q6 0 10 -10l203 -823q2 -8 10 -8t10 8l178 823q4 10 11 10h174q14 0 12 -10l-244 -1016q-4 -10 -12 -10z" />
    <glyph glyph-name="Wdieresis" unicode="&#x1e84;" horiz-adv-x="1941" 
d="M1333 1923v-215q0 -10 -10 -10h-215q-10 0 -10 10v215q0 10 10 10h215q10 0 10 -10zM834 1923v-215q0 -10 -11 -10h-215q-10 0 -10 10v215q0 10 10 10h215q11 0 11 -10zM1417 197q8 0 10 8l226 1227q4 10 10 10h186q14 0 13 -10l-283 -1422q-4 -10 -12 -10h-312
q-6 0 -10 10l-264 1225q-2 8 -10 8t-10 -8l-265 -1225q-4 -10 -10 -10h-311q-8 0 -13 10l-282 1422q-2 10 12 10h187q6 0 10 -10l225 -1227q2 -8 10 -8t11 8l253 1227q4 10 11 10h344q6 0 10 -10l254 -1227q2 -8 10 -8z" />
    <glyph glyph-name="wdieresis" unicode="&#x1e85;" horiz-adv-x="1658" 
d="M1212 1432v-213q0 -10 -10 -11h-215q-10 0 -10 11v213q0 10 10 10h215q10 0 10 -10zM713 1432v-213q0 -10 -11 -11h-215q-10 0 -10 11v213q0 10 10 10h215q11 0 11 -10zM1321 0h-260q-6 0 -10 10l-199 817q-2 9 -10 9t-11 -9l-196 -817q-4 -10 -10 -10h-260q-8 0 -13 10
l-243 1016q-2 10 12 10h174q6 0 10 -10l178 -823q3 -8 11 -8t10 8l203 823q4 10 10 10h252q6 0 10 -10l203 -823q2 -8 10 -8t10 8l178 823q4 10 11 10h174q14 0 12 -10l-244 -1016q-4 -10 -12 -10z" />
    <glyph glyph-name="endash" unicode="&#x2013;" horiz-adv-x="1433" 
d="M1167 432h-911q-10 0 -10 10v154q0 10 10 10h911q10 0 11 -10v-154q-1 -10 -11 -10z" />
    <glyph glyph-name="emdash" unicode="&#x2014;" horiz-adv-x="1998" 
d="M1733 432h-1477q-10 0 -10 10v154q0 10 10 10h1477q10 0 10 -10v-154q0 -10 -10 -10z" />
    <glyph glyph-name="quoteleft" unicode="&#x2018;" horiz-adv-x="391" 
d="M213 1190h90q10 0 10 -10v-287q0 -10 -10 -10h-246q-10 0 -10 10v285q0 116 72 190t184 74q10 0 10 -10v-113q-1 -10 -23 -10t-54 -30t-33 -79q0 -10 10 -10z" />
    <glyph glyph-name="quoteright" unicode="&#x2019;" horiz-adv-x="391" 
d="M147 1135h-90q-10 0 -10 10v287q0 10 10 10h246q10 0 10 -10v-285q1 -117 -71 -191t-185 -73q-10 0 -10 10v113q1 10 23 10t55 30t33 78q-1 11 -11 11z" />
    <glyph glyph-name="quotesinglbase" unicode="&#x201a;" horiz-adv-x="514" 
d="M209 0h-90q-10 0 -10 10v250q0 10 10 10h246q10 0 10 -10v-248q0 -116 -72 -190t-184 -74q-10 0 -10 10v113q1 10 23 10t54 30t33 79q0 10 -10 10z" />
    <glyph glyph-name="quotedblleft" unicode="&#x201c;" horiz-adv-x="759" 
d="M213 1190h90q10 0 10 -10v-287q0 -10 -10 -10h-246q-10 0 -10 10v285q0 116 72 190t184 74q10 0 10 -10v-113q-1 -10 -23 -10t-54 -30t-33 -79q0 -10 10 -10zM582 1190h90q10 0 10 -10v-287q0 -10 -10 -10h-246q-10 0 -10 10v285q0 116 72 190t184 74q10 0 10 -10v-113
q0 -10 -22 -10t-56 -30q-33 -30 -33 -79q1 -10 11 -10z" />
    <glyph glyph-name="quotedblright" unicode="&#x201d;" horiz-adv-x="759" 
d="M516 1135h-90q-10 0 -10 10v287q0 10 10 10h246q10 0 10 -10v-285q0 -117 -72 -191t-184 -73q-10 0 -10 10v113q0 10 22 10t56 30q33 30 32 78q0 11 -10 11zM147 1135h-90q-10 0 -10 10v287q0 10 10 10h246q10 0 10 -10v-285q1 -117 -71 -191t-185 -73q-10 0 -10 10v113
q1 10 23 10t55 30t33 78q-1 11 -11 11z" />
    <glyph glyph-name="quotedblbase" unicode="&#x201e;" horiz-adv-x="868" 
d="M207 0h-150q-10 0 -10 10v312q0 10 10 10h305q10 0 11 -10v-310q0 -112 -76 -188t-240 -76q-10 0 -10 10v113q0 10 10 10q84 0 122 32t38 77q0 10 -10 10zM625 0h-150q-10 0 -10 10v312q0 10 10 10h305q10 0 11 -10v-310q0 -112 -76 -188t-240 -76q-10 0 -10 10v113
q0 10 10 10q84 0 122 32t38 77q0 10 -10 10z" />
    <glyph glyph-name="dagger" unicode="&#x2020;" horiz-adv-x="1142" 
d="M57 1036h402q10 0 10 11v387q0 10 10 10h174q10 0 11 -10v-387q0 -10 10 -11h401q10 0 10 -10v-174q0 -10 -10 -10h-401q-10 0 -10 -11v-1226q0 -10 -11 -11h-174q-10 0 -10 11v1226q0 10 -10 11h-402q-10 0 -10 10v174q0 10 10 10z" />
    <glyph glyph-name="daggerdbl" unicode="&#x2021;" horiz-adv-x="1142" 
d="M459 2h-402q-10 0 -10 10v174q0 10 10 11h402q10 0 10 10v624q0 10 -10 11h-402q-10 0 -10 10v174q0 10 10 10h402q10 0 10 11v387q0 10 10 10h174q10 0 11 -10v-387q0 -10 10 -11h401q10 0 10 -10v-174q0 -10 -10 -10h-401q-10 0 -10 -11v-624q0 -10 10 -10h401
q10 0 10 -11v-174q0 -10 -10 -10h-401q-10 0 -10 -10v-387q0 -10 -11 -11h-174q-10 0 -10 11v387q0 10 -10 10z" />
    <glyph glyph-name="bullet" unicode="&#x2022;" horiz-adv-x="1579" 
d="M246 518q0 223 157 381q158 158 381 158t381 -158t158 -381t-158 -381q-158 -157 -381 -157t-381 157q-157 158 -157 381z" />
    <glyph glyph-name="ellipsis" unicode="&#x2026;" horiz-adv-x="1351" 
d="M1202 0h-246q-10 0 -10 10v250q0 10 10 10h246q10 0 10 -10v-250q0 -10 -10 -10zM784 0h-245q-10 0 -11 10v250q0 10 11 10h245q10 0 11 -10v-250q-1 -10 -11 -10zM365 0h-246q-10 0 -10 10v250q0 10 10 10h246q10 0 10 -10v-250q0 -10 -10 -10z" />
    <glyph glyph-name="perthousand" unicode="&#x2030;" horiz-adv-x="2400" 
d="M1198 1442h143q16 0 9 -17l-873 -1421q-4 -4 -8 -4h-139q-16 0 -8 16l868 1422q4 4 8 4zM1980 106q170 0 170 282t-170 282t-170 -282t170 -282zM1677 388q0 408 302 409q302 0 302 -409t-301 -408q-303 0 -303 408zM412 772q170 0 170 282t-170 281q-170 1 -170 -281
t170 -282zM713 1054q0 -409 -302 -409t-302 409t303 408q301 1 301 -408zM1264 106q170 0 170 282t-170 282t-170 -282t170 -282zM961 388q0 408 302 409q302 0 302 -409t-301 -408q-303 0 -303 408z" />
    <glyph glyph-name="guilsinglleft" unicode="&#x2039;" horiz-adv-x="800" 
d="M721 0h-152q-8 0 -10 6l-434 504q-6 10 0 18l434 504q2 6 10 6h152q14 0 10 -14l-434 -496q-6 -8 0 -18l434 -496q4 -14 -10 -14z" />
    <glyph glyph-name="guilsinglright" unicode="&#x203a;" horiz-adv-x="800" 
d="M131 1038h152q8 0 10 -6l434 -504q6 -8 0 -18l-434 -504q-2 -6 -10 -6h-152q-14 0 -10 14l434 496q6 10 0 18l-434 496q-4 14 10 14z" />
    <glyph glyph-name="fraction" unicode="&#x2044;" horiz-adv-x="1273" 
d="M944 1442h111q16 0 8 -17l-873 -1421q-4 -4 -8 -4h-106q-16 0 -8 16l868 1422q4 4 8 4z" />
    <glyph glyph-name="franc" unicode="&#x20a3;" 
d="M123 96l354 625l-354 625v-1250zM530 721l355 -623v1245q-240 -415 -355 -622zM150 49h708l-354 625zM504 768l354 627h-708zM934 1432v-1422q0 -10 -10 -10h-842q-10 0 -10 10v1422q0 10 10 10h842q10 0 10 -10z" />
    <glyph glyph-name="lira" unicode="&#x20a4;" 
d="M123 96l354 625l-354 625v-1250zM530 721l355 -623v1245q-240 -415 -355 -622zM150 49h708l-354 625zM504 768l354 627h-708zM934 1432v-1422q0 -10 -10 -10h-842q-10 0 -10 10v1422q0 10 10 10h842q10 0 10 -10z" />
    <glyph glyph-name="peseta" unicode="&#x20a7;" 
d="M123 96l354 625l-354 625v-1250zM530 721l355 -623v1245q-240 -415 -355 -622zM150 49h708l-354 625zM504 768l354 627h-708zM934 1432v-1422q0 -10 -10 -10h-842q-10 0 -10 10v1422q0 10 10 10h842q10 0 10 -10z" />
    <glyph glyph-name="Euro" unicode="&#x20ac;" horiz-adv-x="1392" 
d="M225 471h-155q-10 0 -7 10l41 154q4 10 13 10h84q10 0 9 14q-1 13 -1 71t1 74t-9 15h-131q-12 0 -9 10l41 154q4 10 15 10h112q10 0 11 8q51 217 189 339q139 122 369 122t378 -141q10 -10 4 -29l-54 -164q-2 -6 -7 -6t-9 6q-92 160 -313 160q-141 0 -227 -67
q-85 -68 -124 -217q-2 -10 11 -11h614q12 0 8 -10l-43 -154q-4 -10 -12 -10h-598q-10 0 -10 -10q-12 -76 0 -154q0 -10 10 -10h541q12 0 8 -10l-43 -154q-2 -10 -12 -10h-467q-12 0 -11 -14q70 -303 355 -303q117 0 213 83t153 195q3 8 13 5t10 -11v-233q0 -12 -10 -29
q-51 -80 -159 -132t-220 -52q-233 0 -373 124q-139 126 -186 353q-2 14 -13 14z" />
    <glyph glyph-name="uni2113" unicode="&#x2113;" horiz-adv-x="1013" 
d="M760 1080q0 58 -42 99q-42 42 -98 42t-98 -42t-41 -100v-313q0 -4 6 -6t11 0l221 221q41 41 41 99zM768 434h178q10 0 10 -10v-88q0 -140 -98 -238t-229 -98t-223 77t-115 195l-225 -225q-6 -6 -13 -4q-6 2 -6 8v250q0 8 4 12l234 234v532q0 139 98 237q97 98 235 99
q138 0 238 -98q100 -97 100 -237t-98 -238l-377 -379v-127q0 -57 41 -99q40 -42 98 -42t98 41t40 100v88q0 10 10 10z" />
    <glyph glyph-name="trademark" unicode="&#x2122;" horiz-adv-x="913" 
d="M350 1368h-98q-10 0 -10 -10v-311q0 -10 -11 -11h-53q-10 0 -10 11v311q0 10 -10 10h-97q-10 0 -10 10v54q0 10 8 10h291q10 0 10 -10v-54q0 -10 -10 -10zM709 1442h114q10 0 11 -10v-385q0 -10 -11 -11h-53q-10 0 -10 11v315q0 6 -6 6q-2 -2 -4 -6l-82 -315
q-4 -10 -13 -11h-88q-8 0 -12 11l-82 315q-2 8 -8 4l-2 -4v-315q0 -10 -10 -11h-54q-10 0 -10 11v385q0 10 10 10h115q8 0 12 -10l80 -322q2 -4 5 -4t5 4l80 322q4 10 13 10z" />
    <glyph glyph-name="Omega" unicode="&#x2126;" 
d="M123 96l354 625l-354 625v-1250zM530 721l355 -623v1245q-240 -415 -355 -622zM150 49h708l-354 625zM504 768l354 627h-708zM934 1432v-1422q0 -10 -10 -10h-842q-10 0 -10 10v1422q0 10 10 10h842q10 0 10 -10z" />
    <glyph glyph-name="estimated" unicode="&#x212e;" horiz-adv-x="1030" 
d="M516 975q-188 0 -313 -146v-297q0 -10 10 -10h608q10 0 10 10v299q-127 144 -315 144zM518 0q-186 0 -318 132t-132 319v104q0 186 132 319q132 134 317 134t319 -134t133 -319v-57q0 -10 -11 -11h-745q-10 0 -10 -10v-299q123 -145 315 -145q115 0 216 61t159 166
q4 8 25 2q8 -4 4 -12q-57 -118 -166 -184t-238 -66z" />
    <glyph glyph-name="arrowleft" unicode="&#x2190;" horiz-adv-x="1515" 
d="M111 676v106q0 12 8 21l256 221q14 12 45 12h153q9 0 11 -7t-4 -11l-252 -213q-14 -10 0 -10h1036q10 0 10 -11v-110q0 -10 -10 -10h-1036q-14 0 0 -11l252 -213q6 -4 4 -11t-11 -7h-153q-31 0 -45 12l-256 221q-8 8 -8 21z" />
    <glyph glyph-name="arrowup" unicode="&#x2191;" horiz-adv-x="870" 
d="M727 1133v-154q0 -8 -7 -10t-11 4l-213 252q-10 14 -11 0v-1215q0 -10 -10 -10h-110q-10 0 -11 10v1215q0 14 -10 0l-213 -252q-4 -6 -11 -4t-7 10v154q0 31 12 45l221 256q8 8 21 8h106q13 0 21 -8l221 -256q12 -14 12 -45z" />
    <glyph glyph-name="arrowright" unicode="&#x2192;" horiz-adv-x="1515" 
d="M1065 422h-154q-8 0 -10 7t4 11l252 213q14 10 0 11h-1036q-10 0 -10 10v110q0 10 10 11h1036q14 0 0 10l-252 213q-6 4 -4 11t10 7h154q31 0 45 -12l256 -221q8 -8 8 -21v-106q0 -13 -8 -21l-256 -221q-14 -12 -45 -12z" />
    <glyph glyph-name="arrowdown" unicode="&#x2193;" horiz-adv-x="870" 
d="M473 0h-106q-12 0 -21 8l-221 256q-12 14 -12 45v154q0 8 7 10t11 -4l213 -252q10 -14 10 0v1215q0 10 11 10h110q10 0 10 -10v-1215q0 -14 11 0l213 252q4 6 11 4t7 -10v-154q0 -31 -12 -45l-221 -256q-8 -8 -21 -8z" />
    <glyph glyph-name="carriagereturn" unicode="&#x21b5;" horiz-adv-x="1515" 
d="M1376 1432v-758q0 -10 -10 -10h-1038q-14 0 0 -11l252 -213q6 -4 4 -11t-11 -7h-153q-31 0 -45 12l-256 221q-8 8 -8 21v106q0 12 8 21l256 221q14 12 45 12h153q9 0 11 -7t-4 -11l-252 -213q-14 -10 0 -10h907q10 0 10 10v627q0 10 10 10h111q10 0 10 -10z" />
    <glyph glyph-name="partialdiff" unicode="&#x2202;" 
d="M123 96l354 625l-354 625v-1250zM530 721l355 -623v1245q-240 -415 -355 -622zM150 49h708l-354 625zM504 768l354 627h-708zM934 1432v-1422q0 -10 -10 -10h-842q-10 0 -10 10v1422q0 10 10 10h842q10 0 10 -10z" />
    <glyph glyph-name="Delta" unicode="&#x2206;" horiz-adv-x="1413" 
d="M360 174h682q14 0 11 14l-338 1051q-3 8 -11 8t-10 -8l-344 -1053q-4 -12 10 -12zM1262 0h-1121q-10 0 -10 10v150q0 6 6 18l426 1254q4 10 12 10h261q6 0 10 -10l420 -1252q6 -18 6 -20v-150q0 -10 -10 -10z" />
    <glyph glyph-name="product" unicode="&#x220f;" 
d="M123 96l354 625l-354 625v-1250zM530 721l355 -623v1245q-240 -415 -355 -622zM150 49h708l-354 625zM504 768l354 627h-708zM934 1432v-1422q0 -10 -10 -10h-842q-10 0 -10 10v1422q0 10 10 10h842q10 0 10 -10z" />
    <glyph glyph-name="summation" unicode="&#x2211;" 
d="M123 96l354 625l-354 625v-1250zM530 721l355 -623v1245q-240 -415 -355 -622zM150 49h708l-354 625zM504 768l354 627h-708zM934 1432v-1422q0 -10 -10 -10h-842q-10 0 -10 10v1422q0 10 10 10h842q10 0 10 -10z" />
    <glyph glyph-name="minus" unicode="&#x2212;" horiz-adv-x="1243" 
d="M1114 426h-1016q-10 0 -10 10v164q0 10 10 10h1016q10 0 10 -10v-164q0 -10 -10 -10z" />
    <glyph glyph-name="uni2215" unicode="&#x2215;" horiz-adv-x="1273" 
d="M944 1442h111q16 0 8 -17l-873 -1421q-4 -4 -8 -4h-106q-16 0 -8 16l868 1422q4 4 8 4z" />
    <glyph glyph-name="uni2219" unicode="&#x2219;" horiz-adv-x="471" 
d="M383 565h-305q-10 0 -10 10v310q0 10 10 10h305q10 0 10 -10v-310q0 -10 -10 -10z" />
    <glyph glyph-name="radical" unicode="&#x221a;" horiz-adv-x="1396" 
d="M319 862h-188q-10 0 -10 10v154q0 10 10 10h315q6 0 11 -10l229 -823q2 -8 10 -8t11 8l452 1614q4 10 10 10h152q14 0 10 -10l-504 -1807q-4 -10 -10 -10h-239q-9 0 -13 10l-233 842q-2 10 -13 10z" />
    <glyph glyph-name="infinity" unicode="&#x221e;" horiz-adv-x="1835" 
d="M430 913q-92 -1 -159 -67t-67 -162t68 -164q66 -68 151 -68t144 50l236 176q10 6 0 16l-225 174q-56 45 -148 45zM1401 453q83 -1 151 67t68 164t-68 162t-161 67q-94 0 -144 -43l-229 -176q-8 -8 0 -16l229 -174q70 -51 154 -51zM434 309q-156 0 -262 110
q-106 109 -106 265t108 264t255 109q148 0 243 -82l233 -201q10 -10 21 0l223 201q92 82 243 82q152 0 260 -109q108 -108 108 -264t-108 -266t-263 -109q-120 0 -222 82l-241 193q-10 10 -21 0l-250 -193q-109 -82 -221 -82z" />
    <glyph glyph-name="integral" unicode="&#x222b;" 
d="M123 96l354 625l-354 625v-1250zM530 721l355 -623v1245q-240 -415 -355 -622zM150 49h708l-354 625zM504 768l354 627h-708zM934 1432v-1422q0 -10 -10 -10h-842q-10 0 -10 10v1422q0 10 10 10h842q10 0 10 -10z" />
    <glyph glyph-name="approxequal" unicode="&#x2248;" horiz-adv-x="1046" 
d="M977 911v-55q0 -92 -70 -154t-168 -63q-98 0 -250 72q-153 71 -187 71t-58 -22t-23 -49v-62q0 -10 -10 -10l-154 41q-10 4 -10 10v51q0 97 69 159t169 62t250 -72q149 -73 185 -73t60 22t23 48v65q0 10 10 11l154 -41q10 -5 10 -11zM977 469v-55q0 -92 -70 -154t-168 -63
t-250 71q-153 72 -187 72t-58 -22t-23 -50v-61q0 -10 -10 -10l-154 41q-10 4 -10 10v51q0 97 69 159t169 62t250 -73q149 -73 185 -73t60 22t23 48v66q0 10 10 10l154 -41q10 -4 10 -10z" />
    <glyph glyph-name="notequal" unicode="&#x2260;" horiz-adv-x="1046" 
d="M49 197q-10 0 -10 10v184q0 10 10 10h268q6 0 13 9l166 211q4 6 1 12t-10 6h-438q-10 0 -10 10v187q0 10 10 10h617q8 0 12 8l139 176q2 6 10 6h154q14 0 10 -14l-127 -160q-4 -4 -1 -10t9 -6h93q10 0 10 -10v-187q0 -10 -10 -10h-267q-10 0 -16 -10l-168 -211
q-4 -4 -1 -10t9 -7h443q10 0 10 -10v-184q0 -10 -10 -10h-617q-4 0 -12 -9l-143 -182q-4 -6 -11 -6h-151q-15 0 -11 14l130 164q4 6 1 12t-10 7h-92z" />
    <glyph glyph-name="lessequal" unicode="&#x2264;" horiz-adv-x="1030" 
d="M961 0h-918q-10 0 -10 10v154q0 10 10 10h918q10 0 10 -10v-154q0 -10 -10 -10zM33 803v229q0 8 6 10l917 396q14 8 15 -11v-159q0 -6 -6 -8l-762 -336q-4 -2 -4 -6t4 -7l762 -327q6 -2 6 -9v-159q0 -18 -15 -10l-917 387q-6 2 -6 10z" />
    <glyph glyph-name="greaterequal" unicode="&#x2265;" horiz-adv-x="1030" 
d="M956 0h-917q-10 0 -10 10v154q0 10 10 10h917q10 0 11 -10v-154q-1 -10 -11 -10zM967 1032v-229q0 -8 -6 -10l-918 -387q-14 -8 -14 10v159q0 6 6 9l762 327q4 3 4 7t-4 6l-762 336q-6 2 -6 8v159q0 18 14 11l918 -396q6 -2 6 -10z" />
    <glyph glyph-name="lozenge" unicode="&#x25ca;" 
d="M123 96l354 625l-354 625v-1250zM530 721l355 -623v1245q-240 -415 -355 -622zM150 49h708l-354 625zM504 768l354 627h-708zM934 1432v-1422q0 -10 -10 -10h-842q-10 0 -10 10v1422q0 10 10 10h842q10 0 10 -10z" />
    <glyph glyph-name="commaaccent" unicode="&#xf6c3;" horiz-adv-x="483" 
d="M205 406h-90q-10 0 -11 10v250q0 10 11 10h245q10 0 11 -10v-248q0 -117 -72 -191t-184 -73q-10 0 -11 10v112q0 10 11 11q35 -1 67 29t33 79q0 11 -10 11z" />
    <glyph glyph-name="apple" unicode="&#xf8ff;" horiz-adv-x="1368" 
d="M922 0q-41 0 -111 30t-115 30t-108 -27q-68 -33 -120 -33t-103 39q-133 96 -215 275q-82 178 -82 354t107 308q108 132 280 132q49 0 131 -31t110 -31t116 32q88 30 154 30t142 -35t143 -108q-176 -123 -176 -287q1 -96 55 -175t150 -120q-94 -207 -176 -295t-182 -88z
M700 1090h-2q-2 2 -4 2q0 137 86 231q97 97 203 115q0 -170 -87 -259t-196 -89z" />
    <glyph glyph-name="f_f" unicode="&#xfb00;" horiz-adv-x="1402" 
d="M1364 1432v-154q0 -10 -10 -10h-135q-45 0 -71 -28t-26 -75v-118q0 -10 11 -11h221q10 0 10 -10v-133q0 -10 -10 -10h-221q-10 0 -11 -11v-862q0 -10 -10 -10h-174q-10 0 -10 10v862q0 10 -10 11h-183q-10 0 -10 10v133q0 10 10 10h183q10 0 10 11v153q0 248 289 242h137
q10 0 10 -10zM668 1432v-154q0 -10 -11 -10h-135q-44 0 -70 -28t-26 -75v-118q0 -10 10 -11h221q10 0 11 -10v-133q0 -10 -11 -10h-221q-10 0 -10 -11v-862q0 -10 -10 -10h-174q-10 0 -11 10v862q0 10 -10 11h-182q-10 0 -10 10v133q0 10 10 10h182q10 0 10 11v153
q0 248 289 242h137q11 0 11 -10z" />
    <glyph glyph-name="f_f_i" unicode="&#xfb03;" horiz-adv-x="1896" 
d="M1757 1432v-215q0 -10 -10 -11h-215q-10 0 -10 11v215q0 10 10 10h215q10 0 10 -10zM1737 1026v-1016q0 -10 -11 -10h-174q-10 0 -10 10v1016q0 10 10 10h174q11 0 11 -10zM1364 1432v-154q0 -10 -10 -10h-135q-45 0 -71 -28t-26 -75v-118q0 -10 11 -11h221q10 0 10 -10
v-133q0 -10 -10 -10h-221q-10 0 -11 -11v-862q0 -10 -10 -10h-174q-10 0 -10 10v862q0 10 -10 11h-183q-10 0 -10 10v133q0 10 10 10h183q10 0 10 11v153q0 248 289 242h137q10 0 10 -10zM668 1432v-154q0 -10 -11 -10h-135q-44 0 -70 -28t-26 -75v-118q0 -10 10 -11h221
q10 0 11 -10v-133q0 -10 -11 -10h-221q-10 0 -10 -11v-862q0 -10 -10 -10h-174q-10 0 -11 10v862q0 10 -10 11h-182q-10 0 -10 10v133q0 10 10 10h182q10 0 10 11v153q0 248 289 242h137q11 0 11 -10z" />
    <glyph glyph-name="f_f_l" unicode="&#xfb04;" horiz-adv-x="1884" 
d="M1726 1432v-1422q0 -10 -10 -10h-174q-10 0 -10 10v1422q0 10 10 10h174q10 0 10 -10zM1364 1432v-154q0 -10 -10 -10h-135q-45 0 -71 -28t-26 -75v-118q0 -10 11 -11h221q10 0 10 -10v-133q0 -10 -10 -10h-221q-10 0 -11 -11v-862q0 -10 -10 -10h-174q-10 0 -10 10v862
q0 10 -10 11h-183q-10 0 -10 10v133q0 10 10 10h183q10 0 10 11v153q0 248 289 242h137q10 0 10 -10zM668 1432v-154q0 -10 -11 -10h-135q-44 0 -70 -28t-26 -75v-118q0 -10 10 -11h221q10 0 11 -10v-133q0 -10 -11 -10h-221q-10 0 -10 -11v-862q0 -10 -10 -10h-174
q-10 0 -11 10v862q0 10 -10 11h-182q-10 0 -10 10v133q0 10 10 10h182q10 0 10 11v153q0 248 289 242h137q11 0 11 -10z" />
    <glyph glyph-name="longs_t" unicode="&#xfb05;" 
d="M123 96l354 625l-354 625v-1250zM530 721l355 -623v1245q-240 -415 -355 -622zM150 49h708l-354 625zM504 768l354 627h-708zM934 1432v-1422q0 -10 -10 -10h-842q-10 0 -10 10v1422q0 10 10 10h842q10 0 10 -10z" />
    <glyph glyph-name="parenleft.001" 
d="M123 96l354 625l-354 625v-1250zM530 721l355 -623v1245q-240 -415 -355 -622zM150 49h708l-354 625zM504 768l354 627h-708zM934 1432v-1422q0 -10 -10 -10h-842q-10 0 -10 10v1422q0 10 10 10h842q10 0 10 -10z" />
    <glyph glyph-name="parenright.001" 
d="M123 96l354 625l-354 625v-1250zM530 721l355 -623v1245q-240 -415 -355 -622zM150 49h708l-354 625zM504 768l354 627h-708zM934 1432v-1422q0 -10 -10 -10h-842q-10 0 -10 10v1422q0 10 10 10h842q10 0 10 -10z" />
    <glyph glyph-name="registered.001" 
d="M123 96l354 625l-354 625v-1250zM530 721l355 -623v1245q-240 -415 -355 -622zM150 49h708l-354 625zM504 768l354 627h-708zM934 1432v-1422q0 -10 -10 -10h-842q-10 0 -10 10v1422q0 10 10 10h842q10 0 10 -10z" />
    <glyph glyph-name="copyright.001" 
d="M123 96l354 625l-354 625v-1250zM530 721l355 -623v1245q-240 -415 -355 -622zM150 49h708l-354 625zM504 768l354 627h-708zM934 1432v-1422q0 -10 -10 -10h-842q-10 0 -10 10v1422q0 10 10 10h842q10 0 10 -10z" />
    <glyph glyph-name="zero.tnum" horiz-adv-x="1280" 
d="M983 722q0 282 -80 424t-262 142t-262 -142t-80 -425t80 -426t262 -143t262 144t80 426zM92 720q0 742 548 742t548 -742t-547 -743q-549 1 -549 743z" />
    <glyph glyph-name="two.tnum" horiz-adv-x="1280" 
d="M166 10v144q0 18 8 26l569 555q176 168 175 293q-2 96 -72 178t-192 82t-196 -73t-73 -168q0 -10 -10 -11h-174q-10 0 -11 11q0 182 128 299q128 116 335 116t333 -125t126 -309q0 -140 -81 -253q-58 -81 -100 -123l-46 -46l-451 -416q-4 -2 -2 -9t10 -7h660q10 0 10 -10
v-154q0 -10 -10 -10h-926q-10 0 -10 10z" />
    <glyph glyph-name="three.tnum" horiz-adv-x="1280" 
d="M524 819q0 10 11 10h71q117 0 190 65q72 65 72 161t-72 165q-73 70 -186 68q-114 -2 -188 -76t-72 -165q0 -10 -10 -11h-174q-10 0 -10 11q-2 181 126 297t328 117t326 -113q127 -114 127 -291q0 -125 -72 -203t-131 -96q-8 -2 -8 -10t8 -11q76 -25 156 -115t80 -233
q0 -182 -132 -296q-132 -113 -354 -113t-343 118q-122 118 -122 291q0 10 11 10h174q10 0 10 -10q0 -92 70 -164q70 -71 196 -71t210 68q85 68 85 176q0 110 -84 184t-211 73h-71q-10 0 -11 11v153z" />
    <glyph glyph-name="four.tnum" horiz-adv-x="1280" 
d="M326 504h440q10 0 10 10v602q0 10 -9 8t-11 -6l-441 -600q-2 -4 1 -9t10 -5zM788 1442h173q10 0 10 -10v-918q0 -10 10 -10h227q10 0 11 -10v-154q0 -10 -11 -10h-227q-10 0 -10 -11v-309q0 -10 -10 -10h-175q-10 0 -10 10v309q0 10 -10 11h-674q-10 0 -10 10v143
q0 18 6 31l680 918q6 10 20 10z" />
    <glyph glyph-name="five.tnum" horiz-adv-x="1280" 
d="M1028 1442q10 0 10 -10v-154q0 -10 -10 -10h-602q-10 0 -10 -11l-45 -337q0 -23 16 -7q113 88 250 88q223 0 361 -140q138 -139 138 -373t-130 -371q-131 -137 -369 -137q-133 0 -235 44t-156 112q-105 136 -105 253q0 10 11 10h188q10 0 10 -10q0 -74 71 -155
q71 -80 211 -80t225 92t85 244t-86 244q-86 93 -206 93q-120 1 -186 -33q-67 -34 -116 -108q-6 -10 -22 -10h-160q-10 0 -10 10l90 741q2 14 14 15h768z" />
    <glyph glyph-name="six.tnum" horiz-adv-x="1280" 
d="M938 489q0 158 -77 248t-227 90t-228 -90q-76 -90 -76 -247q0 -156 77 -246t227 -90t228 88q76 88 76 247zM1143 488q0 -226 -137 -367q-138 -141 -372 -141t-367 141q-132 141 -132 368q0 168 68 297l342 646q4 10 14 10h180q15 0 11 -10l-232 -455q-4 -6 -1 -9t8 -1
q65 26 132 26q211 0 349 -139q138 -140 137 -366z" />
    <glyph glyph-name="seven.tnum" horiz-adv-x="1280" 
d="M1106 1432v-138q0 -20 -6 -37l-467 -1247q-4 -10 -12 -10h-189q-12 0 -8 10l483 1247q4 10 -8 11h-715q-10 0 -10 10v154q0 10 10 10h912q10 0 10 -10z" />
    <glyph glyph-name="eight.tnum" horiz-adv-x="1280" 
d="M640 829q116 0 188 65t73 161q0 96 -73 165q-74 68 -190 68t-188 -68t-73 -165q0 -96 73 -161q74 -65 190 -65zM639 154q125 0 210 68t85 176q0 110 -84 184t-211 74t-211 -74t-84 -184t85 -176q85 -68 210 -68zM639 -20q-225 0 -357 114t-132 295q0 204 168 314
q36 24 56 30q20 7 19 15q0 8 -8 10q-59 18 -131 96t-72 203q0 176 127 291q127 114 330 114t330 -114t127 -291q0 -125 -72 -203t-131 -96q-8 -2 -8 -10q-1 -8 19 -14q53 -18 131 -94q40 -40 67 -106t26 -145q0 -181 -132 -295t-357 -114z" />
    <glyph glyph-name="nine.tnum" horiz-adv-x="1280" 
d="M336 950q0 -158 77 -248t227 -90t228 90q76 90 76 248t-77 248t-227 90t-228 -90q-76 -90 -76 -248zM131 951q0 227 137 369t373 142t372 -142t136 -370q0 -150 -78 -297l-342 -645q-4 -10 -14 -10h-180q-15 0 -11 10l232 455q4 6 1 9t-8 1q-61 -25 -133 -27
q-211 0 -348 140t-137 365z" />
    <glyph glyph-name="registered.002" horiz-adv-x="1609" 
d="M1442 722q0 271 -194 466q-194 194 -464 194t-462 -194t-193 -466q0 -271 193 -465q194 -194 464 -194t463 194t193 465zM1503 722q0 -298 -211 -510t-508 -212q-296 0 -506 212t-210 510t210 510t506 212t508 -212q211 -212 211 -510zM1024 938q0 70 -48 119t-116 49
h-321v-334h321q66 0 115 48t49 118zM860 1208q114 0 190 -78t76 -176t-50 -169t-126 -103l180 -399q8 -14 -10 -15h-94q-6 0 -10 6l-174 394h-303v-389q0 -10 -11 -11h-82q-10 0 -10 11q-2 901 -2 915t10 14h416z" />
    <glyph glyph-name="copyright.002" horiz-adv-x="1609" 
d="M1442 722q0 271 -194 466q-194 194 -464 194t-462 -194t-193 -466q0 -271 193 -465q194 -194 464 -194t463 194t193 465zM1503 722q0 -298 -211 -510t-508 -212q-296 0 -506 212t-210 510t210 510t506 212t508 -212q211 -212 211 -510zM780 1135q-162 0 -242 -117
t-79 -293q0 -176 80 -293t241 -117q82 0 134 22t102 83q10 14 14 14h90q14 0 10 -14q-37 -90 -132 -144t-218 -55q-206 0 -316 150q-110 151 -110 355t111 354t315 149q123 0 218 -54t132 -145q4 -14 -10 -14h-90q-4 0 -14 14q-50 61 -102 83t-134 22z" />
    <glyph glyph-name="one.tnum" horiz-adv-x="1280" 
d="M1149 0h-1018q-10 0 -10 10v154q0 10 10 10h393q10 0 11 10v791q1 29 -19 45t-45 16h-313q-10 0 -11 11v143q0 10 11 10h254q51 0 87 34t36 85v113q0 10 10 10h174q10 0 10 -10v-1248q0 -10 10 -10h410q10 0 10 -10v-154q0 -10 -10 -10z" />
    <glyph glyph-name="dollar.plf" 
d="M123 96l354 625l-354 625v-1250zM530 721l355 -623v1245q-240 -415 -355 -622zM150 49h708l-354 625zM504 768l354 627h-708zM934 1432v-1422q0 -10 -10 -10h-842q-10 0 -10 10v1422q0 10 10 10h842q10 0 10 -10z" />
    <glyph glyph-name="cent.plf" 
d="M123 96l354 625l-354 625v-1250zM530 721l355 -623v1245q-240 -415 -355 -622zM150 49h708l-354 625zM504 768l354 627h-708zM934 1432v-1422q0 -10 -10 -10h-842q-10 0 -10 10v1422q0 10 10 10h842q10 0 10 -10z" />
    <glyph glyph-name="sterling.plf" 
d="M123 96l354 625l-354 625v-1250zM530 721l355 -623v1245q-240 -415 -355 -622zM150 49h708l-354 625zM504 768l354 627h-708zM934 1432v-1422q0 -10 -10 -10h-842q-10 0 -10 10v1422q0 10 10 10h842q10 0 10 -10z" />
    <glyph glyph-name="yen.plf" 
d="M123 96l354 625l-354 625v-1250zM530 721l355 -623v1245q-240 -415 -355 -622zM150 49h708l-354 625zM504 768l354 627h-708zM934 1432v-1422q0 -10 -10 -10h-842q-10 0 -10 10v1422q0 10 10 10h842q10 0 10 -10z" />
    <glyph glyph-name="florin.plf" 
d="M123 96l354 625l-354 625v-1250zM530 721l355 -623v1245q-240 -415 -355 -622zM150 49h708l-354 625zM504 768l354 627h-708zM934 1432v-1422q0 -10 -10 -10h-842q-10 0 -10 10v1422q0 10 10 10h842q10 0 10 -10z" />
    <glyph glyph-name="Euro.plf" 
d="M123 96l354 625l-354 625v-1250zM530 721l355 -623v1245q-240 -415 -355 -622zM150 49h708l-354 625zM504 768l354 627h-708zM934 1432v-1422q0 -10 -10 -10h-842q-10 0 -10 10v1422q0 10 10 10h842q10 0 10 -10z" />
    <glyph glyph-name="currency.plf" 
d="M123 96l354 625l-354 625v-1250zM530 721l355 -623v1245q-240 -415 -355 -622zM150 49h708l-354 625zM504 768l354 627h-708zM934 1432v-1422q0 -10 -10 -10h-842q-10 0 -10 10v1422q0 10 10 10h842q10 0 10 -10z" />
    <glyph glyph-name="numbersign.plf" 
d="M123 96l354 625l-354 625v-1250zM530 721l355 -623v1245q-240 -415 -355 -622zM150 49h708l-354 625zM504 768l354 627h-708zM934 1432v-1422q0 -10 -10 -10h-842q-10 0 -10 10v1422q0 10 10 10h842q10 0 10 -10z" />
    <glyph glyph-name="breve.case" horiz-adv-x="483" 
d="M330 1839h129q10 0 10 -10q0 -117 -70 -171q-69 -54 -163 -54t-164 54t-70 171q0 10 10 10h127q10 0 11 -10q0 -39 26 -59q27 -19 60 -19q32 0 58 19t25 59q1 10 11 10z" />
    <glyph glyph-name="caron.case" horiz-adv-x="483" 
d="M317 1839h123q18 0 11 -14l-89 -213q-2 -8 -10 -8h-233q-8 0 -10 8l-91 213q-6 14 11 14h123q6 0 12 -8l61 -84q10 -14 23 0l57 84q6 8 12 8z" />
    <glyph glyph-name="circumflex.case" horiz-adv-x="483" 
d="M442 1604h-123q-6 0 -12 8l-59 84q-10 18 -23 0l-59 -84q-6 -8 -12 -8h-123q-18 0 -11 14l91 213q2 8 10 8h233q8 0 11 -8l88 -213q5 -14 -11 -14z" />
    <glyph glyph-name="acute.case" horiz-adv-x="483" 
d="M256 1604h-117q-16 0 -10 14l88 207q4 14 21 14h178q18 0 10 -14l-147 -207q-11 -14 -23 -14z" />
    <glyph glyph-name="macron.case" horiz-adv-x="483" 
d="M487 1604h-503q-8 0 -9 10v119q0 10 9 10h503q10 0 11 -10v-119q-1 -10 -11 -10z" />
    <glyph glyph-name="dieresis.case" horiz-adv-x="483" 
d="M604 1829v-215q0 -10 -10 -10h-215q-10 0 -10 10v215q0 10 10 10h215q10 0 10 -10zM104 1829v-215q0 -10 -10 -10h-215q-10 0 -10 10v215q0 10 10 10h215q10 0 10 -10z" />
    <glyph glyph-name="grave.case" horiz-adv-x="483" 
d="M375 1604h-117q-12 0 -22 14l-148 207q-6 14 10 14h178q16 0 21 -14l88 -207q8 -14 -10 -14z" />
    <glyph glyph-name="dotaccent.case" horiz-adv-x="483" 
d="M369 1604h-265q-10 0 -10 10v270q0 10 10 10h265q10 0 10 -10v-270q0 -10 -10 -10z" />
    <glyph glyph-name="ring.case" horiz-adv-x="483" 
d="M328 1686q0 40 -27 66t-65 26t-66 -27q-27 -27 -27 -65t27 -66q27 -27 66 -27q40 0 66 27t26 66zM416 1686q0 -74 -54 -126t-126 -52q-74 0 -126 52t-53 126q1 74 53 126t126 54q74 0 127 -53t53 -127z" />
    <glyph glyph-name="tilde.case" horiz-adv-x="483" 
d="M-80 1614v47q0 68 50 122t146 54t187 -71q31 -24 46 -24t25 3q10 2 25 21q14 19 15 61q0 10 10 10h123q10 0 10 -10v-49q0 -66 -50 -120t-159 -54q-61 0 -132 47t-87 47q-17 0 -27 -2t-24 -22t-15 -60q0 -10 -10 -10h-123q-10 0 -10 10z" />
    <glyph glyph-name="hungarumlaut.case" horiz-adv-x="483" 
d="M543 1556h-224q-8 0 -8 11l60 270q0 10 12 10h223q8 0 8 -10l-59 -270q0 -11 -12 -11zM92 1556h-223q-8 0 -8 11l59 270q0 10 12 10h224q8 0 8 -10l-60 -270q0 -11 -12 -11z" />
    <glyph glyph-name="caron.salt" horiz-adv-x="483" 
d="M319 1839h123q16 0 11 -14l-88 -213q-2 -8 -11 -8h-233q-8 0 -10 8l-91 213q-8 14 11 14h123q6 0 12 -8l61 -84q10 -14 23 0l57 84q6 8 12 8z" />
    <glyph glyph-name="commaaccent.salt" horiz-adv-x="10" 
 />
    <glyph glyph-name="_0127" 
d="M123 96l354 625l-354 625v-1250zM530 721l355 -623v1245q-240 -415 -355 -622zM150 49h708l-354 625zM504 768l354 627h-708zM934 1432v-1422q0 -10 -10 -10h-842q-10 0 -10 10v1422q0 10 10 10h842q10 0 10 -10z" />
    </font>
</defs>
</svg>
