<?xml version="1.0" standalone="no"?>
<!DOCTYPE svg PUBLIC "-//W3C//DTD SVG 1.1//EN" "http://www.w3.org/Graphics/SVG/1.1/DTD/svg11.dtd" >
<svg xmlns="http://www.w3.org/2000/svg">
<metadata>
Created by FontPrep 20130207 at Mon Jul 13 18:25:42 2015
 By Tom Galle
Copyright (c) 2008 by Stefan Gandl. All rights reserved.
</metadata>
<defs>
<font id="cdbb83ebb85bf8ca320412c9a17c7fc2" horiz-adv-x='1024' >
  <font-face 
    font-family="NBInternationalPro-Ita"
    font-weight="400"
    font-style="italic"
    font-stretch="normal"
    units-per-em="2048"
    panose-1="2 11 5 3 4 1 0 10 0 4"
    ascent="1638"
    descent="-410"
    x-height="1036"
    cap-height="1442"
    bbox="-134.143 -426 2331 1933"
    underline-thickness="174"
    underline-position="-100"
    unicode-range="U+0009-FB05"
  />
<missing-glyph 
d="M76 96l465 625l-246 625zM594 721l244 -623l219 1245q-373 -497 -463 -622zM94 49h709l-246 625zM575 768l465 627h-708zM858 0h-842q-8 0 -8 10l252 1422q0 10 12 10h842q8 0 8 -10l-252 -1422q0 -10 -12 -10z" />
    <glyph glyph-name="fi" unicode="fi" horiz-adv-x="1200" 
d="M942 1206q-8 0 -8 11l39 215q0 10 12 10h215q8 0 8 -10l-39 -215q0 -10 -12 -11h-215zM924 0h-174q-8 0 -9 10l181 1016q0 10 12 10h174q8 0 8 -10l-180 -1016q0 -10 -12 -10zM817 1268h-135q-45 0 -76 -28t-39 -75l-20 -118q-4 -10 8 -11h221q8 0 8 -10l-24 -133
q0 -10 -12 -10h-222q-10 0 -10 -11l-154 -862q0 -10 -12 -10h-174q-8 0 -8 10l154 862q0 10 -11 11h-182q-8 0 -8 10l24 133q0 10 13 10h182q8 0 12 11l27 153q43 248 332 242h137q8 0 8 -10l-29 -154q0 -10 -10 -10z" />
    <glyph glyph-name="fl" unicode="fl" horiz-adv-x="1208" 
d="M934 0h-174q-8 0 -8 10l252 1422q0 10 12 10h174q8 0 8 -10l-252 -1422q0 -10 -12 -10zM817 1268h-135q-45 0 -76 -28t-39 -75l-20 -118q-4 -10 8 -11h221q8 0 8 -10l-24 -133q0 -10 -12 -10h-222q-10 0 -10 -11l-154 -862q0 -10 -12 -10h-174q-8 0 -8 10l154 862
q0 10 -11 11h-182q-8 0 -8 10l24 133q0 10 13 10h182q8 0 12 11l27 153q43 248 332 242h137q8 0 8 -10l-29 -154q0 -10 -10 -10z" />
    <glyph glyph-name=".notdef" 
d="M76 96l465 625l-246 625zM594 721l244 -623l219 1245q-373 -497 -463 -622zM94 49h709l-246 625zM575 768l465 627h-708zM858 0h-842q-8 0 -8 10l252 1422q0 10 12 10h842q8 0 8 -10l-252 -1422q0 -10 -12 -10z" />
    <glyph glyph-name=".null" horiz-adv-x="0" 
 />
    <glyph glyph-name="nonmarkingreturn" horiz-adv-x="681" 
 />
    <glyph glyph-name="NULL" horiz-adv-x="51" 
 />
    <glyph glyph-name="NULL" horiz-adv-x="51" 
 />
    <glyph glyph-name="HT" unicode="&#x9;" horiz-adv-x="583" 
 />
    <glyph glyph-name="LF" unicode="&#xa;" horiz-adv-x="583" 
 />
    <glyph glyph-name="CR" unicode="&#xd;" horiz-adv-x="71" 
 />
    <glyph glyph-name="DLE" horiz-adv-x="583" 
 />
    <glyph glyph-name="DC1" horiz-adv-x="583" 
 />
    <glyph glyph-name="DC2" horiz-adv-x="583" 
 />
    <glyph glyph-name="DC3" horiz-adv-x="583" 
 />
    <glyph glyph-name="DC4" horiz-adv-x="583" 
 />
    <glyph glyph-name="RS" horiz-adv-x="71" 
 />
    <glyph glyph-name="US" horiz-adv-x="71" 
 />
    <glyph glyph-name="space" unicode=" " horiz-adv-x="524" 
 />
    <glyph glyph-name="exclam" unicode="!" horiz-adv-x="489" 
d="M266 0h-246q-8 0 -8 10l45 250q0 10 13 10h245q8 0 9 -10l-45 -250q-1 -10 -13 -10zM285 426h-131q-12 0 -9 10l86 600l70 396q0 10 12 10h172q8 0 9 -10l-70 -396l-127 -600q-4 -10 -12 -10z" />
    <glyph glyph-name="quotedbl" unicode="&#x22;" horiz-adv-x="780" 
d="M295 883h-123q-10 0 -10 10l18 215l58 324q0 10 12 10h164q8 0 8 -10l-57 -324l-60 -215q0 -10 -10 -10zM643 883h-123q-10 0 -10 10l18 215l58 324q0 10 12 10h164q8 0 8 -10l-57 -324l-60 -215q0 -10 -10 -10z" />
    <glyph glyph-name="numbersign" unicode="#" horiz-adv-x="1230" 
d="M786 836h-211q-8 0 -12 -11l-94 -223q-4 -14 8 -14h213q6 0 12 10l91 225q7 13 -7 13zM139 836q-8 0 -8 10l23 121q0 10 12 10h315q10 0 13 8l178 451q4 6 12 6h113q16 0 6 -15l-172 -438q-8 -12 8 -12h209q10 0 12 10l178 449q2 6 13 6h112q16 0 6 -15l-172 -438
q-6 -12 9 -12h202q8 0 9 -10l-23 -121q0 -10 -12 -10h-240q-8 0 -12 -11l-94 -225q-6 -12 8 -12h295q12 0 8 -10l-21 -121q-4 -10 -12 -11h-332q-6 0 -12 -8l-172 -432q-4 -6 -12 -6h-111q-16 0 -6 14l168 422q6 10 -6 10h-215q-6 0 -13 -10l-172 -430q-2 -6 -12 -6h-110
q-16 0 -7 14l166 420q4 12 -8 12h-188q-12 0 -9 11l21 121q4 10 12 10h226q10 0 14 10l90 225q6 12 -8 13h-279z" />
    <glyph glyph-name="dollar" unicode="$" horiz-adv-x="1290" 
d="M692 1282q-104 -16 -181 -81t-91 -150q-29 -164 196 -199q8 -2 13 8l71 414q2 4 -1 7t-7 1zM674 162q120 20 198 88t94 164t-39 146q-56 50 -169 71q-8 2 -13 -6l-79 -453q0 -6 1 -9t7 -1zM774 1642h141q12 0 9 -10l-31 -172q0 -6 6 -8q164 -29 258 -132t72 -273
q-4 -10 -12 -11h-185q-12 0 -8 11q14 78 -28 139t-126 86q-8 2 -12 -8l-74 -426q-4 -10 9 -11q192 -31 294 -109q124 -97 82 -312q-27 -158 -161 -279t-365 -143q-10 0 -12 -9l-29 -170q-4 -10 -12 -10h-141q-10 0 -7 10l29 168q4 10 -8 11q-215 18 -316 135
q-100 117 -71 276q0 10 10 11h182q14 0 11 -13q-12 -73 43 -143t172 -90q12 -2 12 10l84 479q4 6 -4 6q-175 28 -280 103q-129 93 -91 293q31 173 177 281t331 126q8 0 12 10l29 164q4 10 10 10z" />
    <glyph glyph-name="percent" unicode="%" horiz-adv-x="1744" 
d="M483 772q170 0 220 282t-121 281q-90 0 -142 -70q-51 -71 -78 -210q-49 -283 121 -283zM460 645q-302 0 -230 409t374 408q302 1 230 -408t-374 -409zM1317 670q-170 0 -219 -282t121 -282t219 282t-121 282zM1339 797q302 0 230 -409t-373 -408q-303 0 -231 408t374 409
zM1389 1442h143q16 0 4 -17l-1122 -1421q-4 -4 -11 -4h-139q-16 0 -4 16l1118 1422q4 4 11 4z" />
    <glyph glyph-name="ampersand" unicode="&#x26;" horiz-adv-x="1384" 
d="M695 1298q-87 0 -151 -44t-81 -126q-16 -82 100 -215q10 -10 129 41q119 50 149 104q17 32 25 77q14 75 -35 119t-136 44zM528 164q152 0 273 84q10 10 2 18l-320 432q-4 6 -16 2q-186 -84 -215 -245q-23 -127 51 -209q73 -82 225 -82zM1137 0q-121 0 -215 113
q-4 6 -15 0q-199 -133 -433 -133t-344 134t-77 320q41 240 322 389q23 10 8 25l-41 57q-82 113 -59 240t145 222q123 95 293 95t262 -98t68 -229q-24 -150 -133 -226t-242 -116q-14 -4 -8 -19l262 -350q6 -8 12 0q20 29 33 96l33 178q0 10 10 11h174q10 0 10 -11l-33 -178
q-23 -133 -106 -246q-8 -12 -2 -16l26 -27q6 -4 25 -20t59 -16q12 0 9 -11l-31 -174q0 -10 -12 -10z" />
    <glyph glyph-name="quotesingle" unicode="'" horiz-adv-x="454" 
d="M295 883h-123q-10 0 -10 10l18 215l58 324q0 10 12 10h164q8 0 8 -10l-57 -324l-60 -215q0 -10 -10 -10z" />
    <glyph glyph-name="parenleft" unicode="(" horiz-adv-x="522" 
d="M180 -406q-10 0 -12 11q-82 174 -110 417q-57 496 172 986q118 250 259 424q8 10 17 10h137q14 0 4 -10q-332 -406 -421 -915t100 -912q6 -10 -9 -11h-137z" />
    <glyph glyph-name="parenright" unicode=")" horiz-adv-x="522" 
d="M242 1442h137q10 0 12 -10q82 -174 111 -417q28 -243 -14 -490t-160 -497t-258 -423q-8 -10 -17 -11h-135q-10 0 -4 11q332 409 420 915t-101 912q-4 10 9 10z" />
    <glyph glyph-name="asterisk" unicode="*" horiz-adv-x="1009" 
d="M635 1192v-2l4 2h-4zM522 1192h-4l4 -2v2zM561 1442h123q10 0 10 -10l-18 -105l-37 -121q-2 -10 2 -11t12 3l119 49l102 31q10 4 15 -6l16 -117q0 -10 -8 -12l-106 -33l-138 -29q-10 -4 -4 -12l70 -90l45 -88q6 -6 -4 -14l-111 -72q-8 -4 -16 4l-45 82l-37 94
q-4 16 -16 0l-72 -96l-74 -82q-12 -8 -18 -4l-84 71q-10 6 0 15l75 88l101 92q8 8 -2 12l-121 29l-94 33q-10 4 -4 12l57 117q4 10 14 6l95 -31l98 -49q16 -8 16 8l10 121l19 105q0 10 10 10z" />
    <glyph glyph-name="plus" unicode="+" horiz-adv-x="1296" 
d="M655 0h-172q-8 0 -8 10l72 406q4 10 -8 10h-392q-12 0 -8 10l29 164q0 10 12 10h391q8 0 13 11l71 405q0 10 11 10h172q10 0 10 -10l-72 -405q-4 -10 8 -11h414q8 0 8 -10l-28 -164q-4 -10 -13 -10h-413q-9 0 -13 -10l-71 -406q0 -10 -13 -10z" />
    <glyph glyph-name="comma" unicode="," horiz-adv-x="555" 
d="M207 0h-90q-8 0 -8 10l45 250q0 10 10 10h246q10 0 10 -10l-45 -248q-21 -116 -105 -190t-198 -74q-8 0 -9 10l21 113q4 10 26 10t59 30q38 30 46 79q4 10 -8 10z" />
    <glyph glyph-name="hyphen" unicode="-" horiz-adv-x="1204" 
d="M926 426h-641q-12 0 -9 10l29 164q0 10 12 10h641q8 0 9 -10l-29 -164q-4 -10 -12 -10z" />
    <glyph glyph-name="period" unicode="." horiz-adv-x="555" 
d="M352 0h-246q-12 0 -8 10l43 250q4 10 13 10h245q12 0 9 -10l-43 -250q-5 -10 -13 -10z" />
    <glyph glyph-name="slash" unicode="/" horiz-adv-x="1075" 
d="M283 0h-152q-16 0 -6 14l727 1422q4 6 12 6h154q16 -1 6 -15l-729 -1421q-4 -6 -12 -6z" />
    <glyph glyph-name="zero" unicode="0" horiz-adv-x="1320" 
d="M807 1288q-183 0 -287 -142t-153 -425t5 -426t236 -143t288 144t155 426t-7 424t-237 142zM836 1462q548 0 417 -742t-675 -743q-551 1 -420 743q130 742 678 742z" />
    <glyph glyph-name="one" unicode="1" horiz-adv-x="815" 
d="M614 1442h174q8 0 9 -10l-252 -1422q0 -10 -13 -10h-174q-8 0 -8 10l170 965q6 29 -10 45t-41 16h-313q-12 0 -9 11l25 143q0 10 12 10h254q52 0 94 34t50 85l20 113q0 10 12 10z" />
    <glyph glyph-name="two" unicode="2" horiz-adv-x="1163" 
d="M722 1288q-122 0 -208 -73t-104 -168q0 -10 -13 -11h-174q-8 0 -8 11q33 182 181 299q148 116 355 116t311 -125t73 -309q-17 -90 -73 -177q-96 -149 -231 -245l-524 -416q-4 -2 -3 -9t9 -7h660q12 0 8 -10l-27 -154q-4 -10 -12 -10h-926q-12 0 -8 10l25 144q6 20 14 26
l666 555q207 168 227 293q14 96 -41 178t-177 82z" />
    <glyph glyph-name="three" unicode="3" horiz-adv-x="1187" 
d="M549 829h72q117 0 201 65t100 161q18 96 -43 165q-61 70 -175 68t-200 -76t-101 -165q-4 -10 -12 -11h-174q-12 0 -8 11q29 181 177 297t348 117t306 -113t76 -291q-14 -88 -69 -159q-87 -112 -185 -140q-14 0 -11 -16q1 -5 7 -5q72 -25 135 -115t39 -233
q-32 -182 -184 -296q-152 -113 -373 -113t-322 118t-71 291q0 10 12 10h174q8 0 8 -10q-16 -92 41 -164q57 -71 183 -71t224 68t116 176q18 110 -53 184t-197 73h-72q-12 0 -8 11l27 153q4 10 12 10z" />
    <glyph glyph-name="four" unicode="4" horiz-adv-x="1294" 
d="M350 504h441q8 0 12 10l106 602q0 10 -9 8t-11 -6l-547 -600q-4 -4 -1 -9t9 -5zM979 1442h172q8 0 8 -10l-162 -918q-4 -10 9 -10h227q8 0 8 -10l-27 -154q-4 -10 -12 -10h-227q-8 0 -12 -11l-56 -309q0 -10 -12 -10h-174q-8 0 -8 10l55 309q4 10 -8 11h-674q-12 0 -8 10
l24 143q4 23 13 31l841 918q9 10 23 10z" />
    <glyph glyph-name="five" unicode="5" horiz-adv-x="1226" 
d="M1196 1442q12 0 8 -10l-26 -154q-4 -10 -13 -10h-602q-6 0 -12 -11l-105 -337q-5 -14 7 -12q4 1 10 5q121 88 264 88q223 0 337 -140q114 -139 73 -373t-197 -371t-393 -137q-181 0 -285 80t-124 164q-29 120 -15 165q4 10 12 10h189q12 -1 7 -21t4 -56q24 -98 110 -142
q54 -27 133 -26q135 0 236 92t128 244t-43 244q-70 93 -203 93q-199 0 -313 -141q-10 -10 -25 -10h-159q-13 0 -9 10l222 741q4 14 16 15h768z" />
    <glyph glyph-name="six" unicode="6" horiz-adv-x="1245" 
d="M687 827q-151 0 -243 -90t-120 -248q-28 -157 33 -247q60 -90 211 -90t244 90t120 247q30 158 -32 248t-213 90zM721 1442h180q16 0 8 -10l-305 -447q-4 -6 0 -11t12 -3q33 23 125 22q211 0 323 -139q112 -140 73 -366t-202 -368t-399 -142t-346 142q-111 142 -71 369
q27 150 131 297l455 646q8 10 16 10z" />
    <glyph glyph-name="seven" unicode="7" horiz-adv-x="1077" 
d="M428 0h-188q-10 0 -7 10l705 1247q4 10 -6 11h-715q-10 0 -10 10l29 154q0 10 12 10h911q8 0 8 -10l-24 -138q-4 -25 -13 -37l-688 -1247q-4 -10 -14 -10z" />
    <glyph glyph-name="eight" unicode="8" horiz-adv-x="1251" 
d="M690 829q117 0 201 65t101 161t-44 165q-61 68 -178 68t-201 -68t-101 -165q-17 -96 44 -161t178 -65zM571 154q125 0 223 67q97 67 115 177t-52 184q-71 74 -198 74t-224 -74t-115 -184t54 -176q72 -68 197 -68zM541 -20q-225 0 -338 114t-80 295q18 102 79 183
q96 129 218 165q14 0 11 16q-1 5 -7 5q-57 18 -115 96q-57 78 -37 203q30 176 178 291q148 114 351 114t309 -114t76 -291q-14 -88 -70 -159q-88 -112 -184 -140q-14 0 -11 -16q1 -5 7 -5q74 -25 136 -113t38 -235q-33 -182 -184 -296q-152 -113 -377 -113z" />
    <glyph glyph-name="nine" unicode="9" horiz-adv-x="1245" 
d="M648 612q151 0 243 90t121 248q26 158 -34 248t-211 90t-244 -90t-121 -248t34 -248t212 -90zM596 446q-211 0 -324 140q-114 140 -74 365q40 226 202 369q163 142 399 142q237 0 347 -142t71 -370q-27 -150 -132 -297l-454 -645q-8 -10 -17 -10h-180q-16 0 -8 10
l305 447q4 6 0 11t-12 3q-35 -23 -123 -23z" />
    <glyph glyph-name="colon" unicode=":" horiz-adv-x="555" 
d="M453 766h-246q-12 0 -8 10l45 250q0 10 10 10h246q10 0 10 -10l-45 -250q-4 -10 -12 -10zM317 0h-245q-8 0 -9 10l46 250q0 10 10 10h246q10 0 10 -10l-45 -250q-1 -10 -13 -10z" />
    <glyph glyph-name="semicolon" unicode=";" horiz-adv-x="555" 
d="M465 766h-246q-10 0 -10 10l45 250q4 10 12 10h246q12 0 8 -10l-45 -250q0 -10 -10 -10zM174 0h-90q-12 0 -8 10l43 250q4 10 12 10h246q12 0 8 -10l-43 -248q-22 -116 -106 -190t-197 -74q-12 0 -8 10l20 113q1 10 23 10t61 30t47 79q0 10 -8 10z" />
    <glyph glyph-name="less" unicode="&#x3c;" horiz-adv-x="1087" 
d="M57 399l39 230q4 8 8 10l988 395q17 4 12 -10l-27 -160q-2 -6 -8 -8l-821 -336q-13 -6 -2 -12l704 -328q4 -2 4 -8l-28 -160q0 -18 -17 -10l-848 387q-8 4 -4 10z" />
    <glyph glyph-name="equal" unicode="=" horiz-adv-x="1196" 
d="M1104 651h-918q-8 0 -8 11l29 161q4 10 12 11h918q12 0 8 -11l-29 -161q0 -11 -12 -11zM1026 207h-917q-12 0 -9 10l29 164q0 10 12 10h918q8 0 8 -10l-29 -164q-4 -10 -12 -10z" />
    <glyph glyph-name="greater" unicode="&#x3e;" horiz-adv-x="1087" 
d="M1034 629l-39 -230q-4 -8 -8 -10l-987 -387q-4 -2 -7 1t-3 9l26 160q0 4 9 8l819 328q13 6 2 12l-703 336q-6 4 -4 8l27 160q4 18 16 10l848 -395q8 -4 4 -10z" />
    <glyph glyph-name="question" unicode="?" horiz-adv-x="1087" 
d="M573 0h-245q-12 0 -9 10l43 250q4 10 13 10h246q12 0 8 -10l-43 -250q-5 -10 -13 -10zM614 428h-174q-12 0 -8 10l29 162q23 134 175 194t206 115q53 55 68 142t-48 162t-189 75t-207 -64t-97 -157l-4 -20q0 -10 -13 -11h-174q-8 0 -8 11l4 20q31 174 177 285
q146 110 353 110t318 -121t79 -295t-146 -263q-62 -49 -112 -75t-145 -71q-35 -16 -47 -53l-24 -146q-4 -10 -13 -10z" />
    <glyph glyph-name="at" unicode="@" horiz-adv-x="2060" 
d="M1151 889q-145 -1 -260 -101t-178 -270q-66 -166 -25 -268t186 -102t256 98q111 100 175 272q135 371 -154 371zM1214 143q-6 0 -10 -4q-74 -78 -177 -119t-200 -40q-235 0 -315 150t8 388q90 262 278 400t421 139q92 0 149 -39t74 -76q4 -8 12 -6t12 10l43 80
q4 10 17 10h151q12 0 9 -10l-297 -778q-17 -29 -5 -65t60 -36q100 0 207 115q106 115 174 299q133 369 -28 575t-509 205q-190 -1 -363 -69q-305 -121 -519 -439q-183 -274 -198 -534q-15 -259 131 -425q71 -81 189 -127t266 -46q146 0 325 51t327 125q8 4 8 -2v-2l-49 -129
q-4 -10 -12 -16q-103 -62 -283 -108t-350 -46q-268 0 -449 129q-180 129 -227 352t54 515t297 496q197 204 433 300t480 96t414 -108q168 -108 230 -316q62 -207 -46 -508q-53 -145 -130 -257t-158 -173q-162 -122 -294 -120q-76 0 -110 53t-33 104q-1 6 -7 6z" />
    <glyph glyph-name="A" unicode="A" horiz-adv-x="1437" 
d="M477 477h486q12 0 8 10l-107 750q0 13 -13 8q-5 -2 -7 -8l-375 -750q-4 -10 8 -10zM766 1442h252q6 0 10 -10l225 -1422q2 -4 -2 -7t-10 -3h-192q-4 0 -9 10l-41 293q-2 10 -14 10h-594q-8 0 -12 -10l-150 -293q-4 -10 -12 -10h-190q-12 0 -11 10l736 1422q4 10 14 10z
" />
    <glyph glyph-name="B" unicode="B" horiz-adv-x="1361" 
d="M952 1270h-448q-12 0 -12 -10l-74 -420q-4 -10 8 -11h448q86 3 164 61t94 149t-29 161q-46 70 -151 70zM858 655h-463q-8 0 -12 -10l-82 -461q0 -10 8 -10h449q110 0 194 71t102 164t-41 170q-59 76 -155 76zM340 1442h682q164 0 249 -120t54 -290q-15 -96 -77 -169
t-132 -99q-8 -2 -9 -10t5 -11q70 -31 113 -130t24 -203q-33 -182 -171 -296t-322 -114h-672q-8 0 -8 10l252 1422q0 10 12 10z" />
    <glyph glyph-name="C" unicode="C" horiz-adv-x="1439" 
d="M1337 451q10 0 9 -11q-22 -125 -182 -279q-79 -77 -209 -129t-279 -52q-326 0 -452 200t-66 536q60 338 268 542q209 204 510 204q127 0 225 -37q99 -37 153 -92t88 -121q59 -114 44 -211q-2 -10 -12 -10h-181q-12 0 -12 10q-53 287 -336 287q-213 0 -353 -150t-187 -417
q-47 -268 41 -418t301 -149q163 0 273 88t161 198q6 10 16 11h180z" />
    <glyph glyph-name="D" unicode="D" horiz-adv-x="1449" 
d="M829 1268h-333q-12 0 -13 -11l-190 -1073q0 -10 8 -10h334q207 0 346 137t185 395t-43 410t-294 152zM332 1442h528q311 -2 440 -202t71 -534t-255 -520t-512 -186h-528q-8 0 -8 10l251 1422q0 10 13 10z" />
    <glyph glyph-name="E" unicode="E" horiz-adv-x="1294" 
d="M330 1442h985q8 0 8 -10l-29 -154q0 -10 -10 -10h-790q-12 0 -13 -11l-73 -417q-4 -10 8 -11h706q12 0 8 -10l-26 -153q-4 -10 -12 -11h-707q-8 0 -12 -10l-82 -461q0 -10 8 -10h791q10 0 10 -10l-29 -154q0 -10 -12 -10h-985q-8 0 -8 10l251 1422q0 10 13 10z" />
    <glyph glyph-name="F" unicode="F" horiz-adv-x="1150" 
d="M342 1442h911q8 0 9 -10l-29 -154q0 -10 -10 -10h-717q-12 0 -12 -11l-74 -417q-4 -10 8 -11h633q12 0 8 -10l-27 -153q-4 -10 -12 -11h-633q-8 0 -12 -10l-113 -635q0 -10 -12 -10h-174q-8 0 -8 10l252 1422q0 10 12 10z" />
    <glyph glyph-name="G" unicode="G" horiz-adv-x="1521" 
d="M1113 164q-7 0 -11 -4q-62 -70 -192 -125t-263 -55q-325 0 -451 200t-67 536q59 338 268 542t510 204q254 0 374 -118t140 -297q0 -10 -12 -11h-190q-10 0 -11 11q-27 119 -113 180q-87 61 -218 61q-213 0 -354 -149q-140 -150 -187 -418t41 -418t301 -149q442 0 524 471
q4 10 -8 10h-422q-12 0 -8 10l27 154q4 10 12 10h616q12 0 8 -10l-139 -789q0 -10 -12 -10h-150q-10 0 -10 12l4 144q0 8 -7 8z" />
    <glyph glyph-name="H" unicode="H" horiz-adv-x="1388" 
d="M1194 1442h174q8 0 8 -10l-252 -1422q0 -10 -12 -10h-174q-8 0 -8 10l112 635q4 10 -8 10h-649q-8 0 -12 -8l-113 -637q0 -10 -12 -10h-174q-8 0 -8 10l251 1422q0 10 13 10h174q8 0 8 -10l-104 -592q-4 -10 8 -11h649q8 0 12 11l105 592q0 10 12 10z" />
    <glyph glyph-name="I" unicode="I" horiz-adv-x="524" 
d="M330 1442h174q8 0 8 -10l-252 -1422q0 -10 -12 -10h-174q-8 0 -8 10l251 1422q1 10 13 10z" />
    <glyph glyph-name="J" unicode="J" horiz-adv-x="987" 
d="M41 514h174q12 0 8 -10l-16 -98q-10 -52 -10 -90t13 -78q27 -85 167 -85q139 1 192 85q47 72 64 168l180 1026q4 10 12 10h174q12 0 9 -10l-181 -1026q-35 -199 -147 -313t-338 -113q-110 0 -184 34t-108 90q-74 125 -38 302l17 98q4 10 12 10z" />
    <glyph glyph-name="K" unicode="K" horiz-adv-x="1316" 
d="M258 0h-174q-8 0 -8 10l252 1422q0 10 12 10h174q8 0 8 -10l-108 -613q-2 -4 1 -5t7 1l737 617q10 10 19 10h233q4 0 6 -4t-2 -6l-647 -547q-8 -6 -4 -17l412 -858q10 -10 -9 -10h-202q-5 0 -15 10l-346 723q-4 8 -12 0l-217 -182q-8 -6 -13 -16l-92 -525q0 -10 -12 -10z
" />
    <glyph glyph-name="L" unicode="L" horiz-adv-x="1148" 
d="M342 1442h174q8 0 8 -10l-221 -1248q0 -10 8 -10h717q10 0 10 -10l-28 -154q0 -10 -13 -10h-911q-8 0 -8 10l252 1422q0 10 12 10z" />
    <glyph glyph-name="M" unicode="M" horiz-adv-x="1792" 
d="M1440 1442h332q8 0 8 -10l-252 -1422q0 -10 -12 -10h-175q-8 0 -8 10l217 1227q0 6 -7 11t-13 -9l-578 -1229q-4 -10 -18 -10h-279q-10 0 -14 10l-143 1229q-2 8 -10 8t-11 -10l-217 -1227q0 -10 -12 -10h-174q-8 0 -8 10l251 1422q0 10 13 10h332q6 0 12 -10l147 -1229
q1 -8 9 -8t12 8l581 1229q6 10 17 10z" />
    <glyph glyph-name="N" unicode="N" horiz-adv-x="1492" 
d="M1298 1442h175q8 0 8 -10l-252 -1422q0 -10 -12 -10h-302q-8 0 -14 10l-403 1231q-2 6 -10 5t-11 -9l-217 -1227q0 -10 -12 -10h-174q-8 0 -8 10l251 1422q0 10 13 10h303q6 0 12 -10l404 -1229q4 -8 11 -8t9 10l217 1227q0 10 12 10z" />
    <glyph glyph-name="O" unicode="O" horiz-adv-x="1499" 
d="M678 154q213 0 354 150t189 417q47 268 -42 418q-89 149 -302 149t-354 -149q-140 -150 -187 -418q-47 -267 41 -417t301 -150zM1352 1260q130 -203 70 -540t-261 -539q-201 -201 -514 -201t-444 202t-72 539q59 336 261 539q202 202 515 202t445 -202z" />
    <glyph glyph-name="P" unicode="P" horiz-adv-x="1273" 
d="M893 1268h-379q-12 0 -12 -11l-88 -499q-4 -10 8 -10h379q98 0 186 76q89 76 107 180t-43 184q-62 80 -158 80zM350 1442h598q170 0 272 -128t68 -309q-33 -181 -178 -307t-315 -125h-404q-12 0 -12 -10l-98 -553q0 -10 -13 -10h-174q-8 0 -8 10l252 1422q0 10 12 10z
" />
    <glyph glyph-name="Q" unicode="Q" horiz-adv-x="1538" 
d="M737 428h197q4 0 14 -10l101 -119q4 -6 10 0q143 150 191 420t-40 420q-88 149 -301 149t-354 -150t-188 -417q-47 -268 41 -418t301 -149q111 0 196 39q10 4 4 14l-178 211q-10 10 6 10zM1350 -82h-193q-10 0 -14 10l-109 129q-4 4 -12 0q-156 -78 -344 -77
q-313 0 -445 202q-131 203 -71 539q59 336 262 539q203 202 516 202t443 -202t69 -547q-61 -346 -278 -549q-8 -8 -3 -14l185 -222q4 -10 -6 -10z" />
    <glyph glyph-name="R" unicode="R" horiz-adv-x="1288" 
d="M893 1268h-379q-12 0 -12 -11l-88 -499q-4 -10 8 -10h387q96 4 181 78q86 74 104 178t-43 184q-62 80 -158 80zM350 1442h598q170 0 272 -128t68 -310q-23 -131 -108 -236q-86 -104 -205 -156q-8 -4 -6 -14l157 -588q2 -10 -12 -10h-170q-14 0 -18 10l-148 553
q-4 10 -12 10h-375q-12 0 -12 -10l-98 -553q0 -10 -13 -10h-174q-8 0 -8 10l252 1422q0 10 12 10z" />
    <glyph glyph-name="S" unicode="S" horiz-adv-x="1290" 
d="M268 406q14 0 11 -13q-15 -88 63 -164q78 -75 237 -75t263 72t123 180q24 132 -74 182q-82 42 -194 53q-111 13 -171 25t-131 42q-69 30 -111 70t-64 111q-22 70 -5 162q33 186 202 299q169 112 373 112t335 -108q130 -108 104 -307q-4 -10 -12 -11h-185q-12 1 -8 11
q16 104 -58 173q-75 68 -204 68t-226 -68t-117 -179q-20 -112 80 -153q75 -33 184 -45q109 -13 174 -27t137 -44q72 -31 114 -75q41 -45 60 -119t1 -172q-29 -174 -186 -301q-158 -125 -424 -125t-391 120t-94 295q4 10 12 11h182z" />
    <glyph glyph-name="T" unicode="T" horiz-adv-x="1150" 
d="M592 1268h-395q-10 0 -11 10l29 154q0 10 12 10h1006q8 0 8 -10l-29 -154q0 -10 -10 -10h-395q-12 0 -12 -11l-222 -1247q0 -10 -12 -10h-174q-8 0 -8 10l221 1250q-4 8 -8 8z" />
    <glyph glyph-name="U" unicode="U" horiz-adv-x="1312" 
d="M585 154q129 0 241 101t135 234l165 943q4 10 13 10h174q12 0 8 -10l-166 -943q-37 -213 -212 -361t-388 -148t-337 148t-87 361l166 943q4 10 12 10h174q13 0 9 -10l-166 -943q-23 -133 53 -234t206 -101z" />
    <glyph glyph-name="V" unicode="V" horiz-adv-x="1443" 
d="M770 0h-260q-6 0 -10 10l-232 1422q-2 10 15 10h190q4 0 8 -10l185 -1229q2 -8 9 -8t11 8l612 1229q4 10 13 10h192q12 0 8 -10l-729 -1422q-4 -10 -12 -10z" />
    <glyph glyph-name="W" unicode="W" horiz-adv-x="1982" 
d="M1853 1442h187q12 0 10 -10l-534 -1422q-4 -10 -15 -10h-311q-4 0 -8 10l-47 1225q-1 8 -9 8t-12 -8l-481 -1225q-4 -10 -12 -10h-312q-6 0 -10 10l-31 1422q-2 10 15 10h186q4 0 8 -10l8 -1227q-1 -13 9 -9q10 3 12 9l471 1227q4 10 12 10h344q4 0 8 -10l37 -1227
q0 -13 10 -9q10 3 11 9l442 1227q4 10 12 10z" />
    <glyph glyph-name="X" unicode="X" horiz-adv-x="1363" 
d="M1180 0h-209q-6 0 -13 10l-256 541q-6 14 -20 0l-446 -541q-6 -10 -19 -10h-207q-10 0 -4 10l596 703q6 10 2 16l-346 703q-6 10 8 10h207q8 0 14 -10l254 -541q6 -14 21 0l448 541q8 10 23 10h203q10 0 4 -10l-596 -703q-6 -10 -2 -16l346 -703q6 -10 -8 -10z" />
    <glyph glyph-name="Y" unicode="Y" horiz-adv-x="1390" 
d="M698 0h-174q-8 0 -8 10l109 611q0 6 -7 20l-344 791q-6 10 9 10h206q8 0 15 -10l246 -584q10 -14 20 0l457 584q8 10 22 10h203q10 0 4 -10l-627 -791q-10 -12 -10 -20l-108 -611q0 -10 -13 -10z" />
    <glyph glyph-name="Z" unicode="Z" horiz-adv-x="1198" 
d="M221 1268q-10 0 -10 10l29 154q0 10 12 10h1003q8 0 9 -10l-27 -144q-2 -20 -8 -26l-975 -1078q-6 -10 2 -10h774q10 0 10 -10l-28 -154q0 -10 -13 -10h-1001q-8 0 -8 10l24 144q2 18 11 26l970 1075q8 12 -2 13h-772z" />
    <glyph glyph-name="bracketleft" unicode="[" horiz-adv-x="694" 
d="M166 -283h323q10 0 9 -8l-19 -104q0 -10 -12 -11h-467q-6 0 -6 11l319 1827q4 10 13 10h467q12 0 8 -10l-19 -105q0 -8 -10 -8h-323q-12 0 -13 -10l-278 -1581q-4 -11 8 -11z" />
    <glyph glyph-name="backslash" unicode="\" horiz-adv-x="1075" 
d="M541 1442q4 0 8 -6l227 -1422q0 -14 -14 -14h-152q-4 0 -8 6l-229 1421q0 14 14 15h154z" />
    <glyph glyph-name="bracketright" unicode="]" horiz-adv-x="694" 
d="M23 -283h323q8 0 12 11l279 1581q0 10 -8 10h-324q-10 0 -10 8l18 105q4 10 13 10h467q12 0 8 -10l-322 -1827q0 -10 -12 -11h-467q-6 0 -6 11l16 104q3 8 13 8z" />
    <glyph glyph-name="asciicircum" unicode="^" horiz-adv-x="1087" 
d="M973 737h-185q-8 0 -8 6l-135 471q-4 20 -20 0l-299 -471q-6 -6 -13 -6h-184q-14 0 -8 15l426 680q4 10 16 10h225q8 0 13 -10l184 -680q6 -15 -12 -15z" />
    <glyph glyph-name="underscore" unicode="_" horiz-adv-x="1335" 
d="M1143 0h-1018q-12 0 -8 10l26 154q0 10 13 10h1018q8 0 8 -10l-27 -154q-4 -10 -12 -10z" />
    <glyph glyph-name="grave" unicode="`" horiz-adv-x="536" 
d="M475 1206h-117q-14 0 -18 15l-113 206q-4 14 15 15h178q16 0 16 -15l53 -206q4 -15 -14 -15z" />
    <glyph glyph-name="a" unicode="a" horiz-adv-x="1183" 
d="M846 465h-287q-258 -12 -283 -158q-12 -63 31 -108t156 -45q170 0 267 80t120 192l4 29q4 10 -8 10zM586 618h229q47 0 61 14t19 50q20 63 -17 131t-212 70q-125 1 -197 -51t-86 -136q0 -10 -12 -10h-176q-8 0 -9 10q32 172 178 266t346 95t306 -97t74 -282l-119 -668
q-1 -10 -13 -10h-153q-4 0 -8 10l-6 84q-1 6 -7 8t-8 -2q-51 -43 -150 -82t-192 -38q-201 0 -290 89t-63 233t156 230t349 86z" />
    <glyph glyph-name="b" unicode="b" horiz-adv-x="1286" 
d="M604 154q142 0 243 101t132 263q29 162 -38 263t-208 101t-236 -100t-125 -264t30 -264t202 -100zM250 0h-154q-12 0 -8 10l250 1422q4 10 12 10h174q12 0 8 -10l-86 -488q-5 -10 10 -10q5 0 11 6q33 33 126 75t187 42q222 -1 328 -149t64 -390t-200 -390
q-159 -148 -382 -148q-74 0 -156 36t-117 80q-10 16 -20 -4l-35 -82q-6 -10 -12 -10z" />
    <glyph glyph-name="c" unicode="c" horiz-adv-x="1204" 
d="M1147 686h-182q-6 0 -11 10q-35 186 -249 187q-143 1 -245 -101t-130 -264q-29 -162 37 -263t208 -101q215 0 316 186q6 10 14 10h182q14 0 9 -10q-74 -172 -216 -266t-335 -94q-237 0 -345 147t-65 392t203 391t397 147q193 0 303 -95t121 -266q0 -10 -12 -10z" />
    <glyph glyph-name="d" unicode="d" horiz-adv-x="1263" 
d="M535 154q141 0 236 100t126 264q29 164 -31 264t-202 100q-140 0 -242 -100q-102 -102 -131 -264t37 -263t207 -101zM989 0h-153q-8 0 -9 10l-6 82q-2 16 -20 4q-51 -43 -145 -80t-169 -36q-223 0 -328 148t-63 390q41 242 200 390t382 149q94 0 171 -42t101 -75
q6 -8 13 -6q6 2 8 10l86 488q4 10 12 10h174q12 0 8 -10l-250 -1422q-4 -10 -12 -10z" />
    <glyph glyph-name="e" unicode="e" horiz-adv-x="1228" 
d="M698 883q-138 0 -231 -91q-94 -91 -109 -180q-4 -10 9 -10h557q8 0 12 10q18 102 -41 186t-197 85zM340 449q-12 0 -12 -11q-20 -116 44 -200t195 -84q186 0 287 143q6 10 16 10h183q10 0 8 -10q-68 -150 -208 -234t-316 -83q-227 0 -336 148t-66 392t200 390t393 146
t341 -146q106 -148 64 -392q-13 -69 -29 -69h-764z" />
    <glyph glyph-name="f" unicode="f" horiz-adv-x="747" 
d="M817 1268h-135q-45 0 -76 -28t-39 -75l-20 -118q-4 -10 8 -11h221q8 0 8 -10l-24 -133q0 -10 -12 -10h-222q-10 0 -10 -11l-154 -862q0 -10 -12 -10h-174q-8 0 -8 10l154 862q0 10 -11 11h-182q-8 0 -8 10l24 133q0 10 13 10h182q8 0 12 11l27 153q43 248 332 242h137
q8 0 8 -10l-29 -154q0 -10 -10 -10z" />
    <glyph glyph-name="g" unicode="g" horiz-adv-x="1214" 
d="M567 154q141 0 237 100q95 100 126 264q28 164 -32 264t-202 100t-242 -100q-101 -102 -130 -264q-30 -162 36 -263t207 -101zM520 -252q132 0 218 85t106 206l10 55q5 10 -10 10q-6 0 -10 -6q-31 -34 -125 -76t-189 -42q-210 0 -322 150t-70 390t201 388t382 149
q75 0 155 -35t117 -80q12 -12 21 2l34 82q6 10 13 10h153q12 0 8 -10l-174 -987q-38 -207 -194 -336t-358 -129t-315 90q-114 90 -103 215q0 10 10 10h178q6 0 10 -10q6 -47 64 -89t190 -42z" />
    <glyph glyph-name="h" unicode="h" horiz-adv-x="1204" 
d="M324 1442h174q8 0 8 -10l-88 -496q0 -11 12 -9q6 1 10 5q119 125 289 125q225 0 313 -134t50 -350l-101 -563q0 -10 -12 -10h-174q-8 0 -8 10l100 563q23 131 -27 221t-183 89q-132 0 -221 -91t-112 -219l-100 -563q0 -10 -12 -10h-174q-8 0 -9 10l252 1422q1 10 13 10z
" />
    <glyph glyph-name="i" unicode="i" horiz-adv-x="544" 
d="M287 1206q-8 0 -8 11l38 215q0 10 13 10h215q8 0 8 -10l-39 -215q0 -10 -12 -11h-215zM268 0h-174q-8 0 -8 10l180 1016q0 10 13 10h174q8 0 8 -10l-180 -1016q0 -10 -13 -10z" />
    <glyph glyph-name="j" unicode="j" horiz-adv-x="655" 
d="M70 -231q113 0 129 102l204 1155q0 10 13 10h174q8 0 8 -10l-211 -1190q-43 -248 -311 -242h-156q-8 1 -8 11l27 153q4 10 12 11h119zM424 1206q-12 0 -8 11l39 215q0 10 10 10h215q10 0 10 -10l-39 -215q-4 -10 -12 -11h-215z" />
    <glyph glyph-name="k" unicode="k" horiz-adv-x="1204" 
d="M1042 0h-184q-10 0 -16 10l-228 559q-2 8 -14 0l-268 -200q-4 -4 -6 -13l-62 -346q0 -10 -12 -10h-174q-8 0 -8 10l252 1422q0 10 12 10h174q8 0 8 -10l-141 -803q-2 -8 6 -6l6 2l543 401q14 10 33 10h251q4 0 6 -4t-1 -6l-439 -324q-8 -8 -2 -16l275 -676q3 -10 -11 -10
z" />
    <glyph glyph-name="l" unicode="l" horiz-adv-x="532" 
d="M258 0h-174q-8 0 -8 10l252 1422q0 10 12 10h174q8 0 8 -10l-252 -1422q0 -10 -12 -10z" />
    <glyph glyph-name="m" unicode="m" horiz-adv-x="1826" 
d="M274 1036h154q8 0 8 -10l4 -92q2 -8 12 -7t13 7q37 55 114 89t167 34t144 -26t116 -97q10 -10 24 0q129 123 330 123q200 0 280 -126t39 -358l-98 -563q-4 -10 -12 -10h-174q-12 0 -9 10l99 563q12 80 13 149t-45 115t-142 46q-131 0 -195 -84t-88 -226l-98 -563
q-5 -10 -12 -10h-177q-6 0 -7 4t1 6l99 563q12 82 11 151t-47 114t-152 45t-176 -87t-93 -223l-98 -563q-4 -10 -13 -10h-174q-12 0 -8 10l178 1016q4 10 12 10z" />
    <glyph glyph-name="n" unicode="n" horiz-adv-x="1214" 
d="M268 1036h154q8 0 8 -10l4 -92q4 -20 23 -2q113 125 291 125q213 0 305 -136t55 -348l-98 -563q-4 -10 -13 -10h-174q-12 0 -8 10l98 563q25 131 -25 221t-182 89q-132 0 -223 -91q-90 -91 -112 -219l-99 -563q-4 -10 -12 -10h-174q-12 0 -8 10l178 1016q4 10 12 10z" />
    <glyph glyph-name="o" unicode="o" horiz-adv-x="1247" 
d="M579 154q144 0 245 101t132 263q29 162 -37 263q-67 101 -211 101t-246 -100q-102 -102 -132 -264q-29 -162 38 -263t211 -101zM546 -20q-236 0 -346 147q-108 147 -65 391t204 391t397 147t348 -146q110 -148 67 -392t-206 -391t-399 -147z" />
    <glyph glyph-name="p" unicode="p" horiz-adv-x="1263" 
d="M618 154q141 0 243 101q101 101 130 263t-38 263t-208 101t-236 -100t-124 -264t31 -264t202 -100zM293 1036h153q4 0 9 -10l6 -84q2 -8 8 -8t10 6q51 45 145 81t169 36q223 -1 329 -149t64 -390t-200 -390q-159 -148 -382 -148q-94 0 -173 42t-99 74q-6 8 -14 6t-9 -10
l-86 -487q0 -10 -10 -11h-174q-10 0 -10 11l252 1421q0 10 12 10z" />
    <glyph glyph-name="q" unicode="q" horiz-adv-x="1263" 
d="M569 154q141 0 237 100q95 100 124 264q28 164 -32 264t-202 100t-242 -100q-101 -102 -130 -264q-28 -162 38 -263t207 -101zM1053 1036h153q8 0 8 -10l-251 -1421q0 -10 -11 -11h-174q-10 0 -10 11l86 487q5 10 -7 10q-5 0 -27 -20t-112 -60q-91 -42 -186 -42
q-223 0 -328 148t-65 390q43 242 201 390t381 149q77 0 159 -36t113 -81q12 -18 23 2l34 84q5 10 13 10z" />
    <glyph glyph-name="r" unicode="r" horiz-adv-x="806" 
d="M807 883h-105q-123 0 -213 -91t-112 -219l-98 -563q-4 -10 -13 -10h-174q-12 0 -8 10l178 1016q4 10 12 10h154q8 0 8 -10l4 -92q2 -16 23 -2q147 125 270 125h105q8 0 8 -10l-27 -154q-4 -10 -12 -10z" />
    <glyph glyph-name="s" unicode="s" horiz-adv-x="1114" 
d="M1032 686h-176q-8 0 -8 10q16 86 -42 136t-174 51q-116 0 -179 -39q-90 -56 -72 -135q14 -63 133 -78q16 -2 49 -6q235 -28 324 -68q147 -70 117 -243t-167 -254q-138 -80 -352 -80t-316 102q-101 102 -75 258q4 10 12 10h173q14 0 10 -10q-11 -80 53 -133t182 -53
q256 0 285 155q12 77 -71 106t-163 29q-254 26 -332 98t-56 205q22 134 152 222q131 88 323 88t302 -93t78 -268q0 -10 -10 -10z" />
    <glyph glyph-name="t" unicode="t" horiz-adv-x="768" 
d="M598 0h-158q-269 -8 -225 242l111 630q0 10 -9 11h-182q-12 0 -8 10l23 133q4 10 12 10h182q8 0 12 11l50 276q0 10 12 10h174q8 0 8 -10l-49 -276q-4 -10 8 -11h221q12 0 8 -10l-22 -133q-4 -10 -12 -10h-222q-12 0 -12 -11l-104 -596q-20 -102 92 -102h121q8 0 8 -10
l-27 -154q-4 -10 -12 -10z" />
    <glyph glyph-name="u" unicode="u" horiz-adv-x="1185" 
d="M975 0h-154q-8 0 -8 10l-6 92q0 8 -8 9q-8 0 -13 -7q-40 -47 -120 -86t-170 -38q-444 0 -363 483l100 563q4 10 13 10h174q12 0 8 -10l-100 -563q-23 -131 27 -220q51 -89 183 -89t222 91t110 218l101 563q4 10 12 10h174q12 0 8 -10l-178 -1016q-4 -10 -12 -10z" />
    <glyph glyph-name="v" unicode="v" horiz-adv-x="1204" 
d="M649 0h-260q-6 0 -10 10l-166 1016q-2 10 12 10h187q6 0 10 -10l123 -823q2 -8 9 -8t11 8l416 823q4 10 10 10h187q14 0 10 -10l-526 -1016q-5 -10 -13 -10z" />
    <glyph glyph-name="w" unicode="w" horiz-adv-x="1699" 
d="M1274 0h-260q-4 0 -8 10l-56 817q0 8 -8 9q-8 0 -12 -9l-340 -817q-4 -10 -12 -10h-261q-6 0 -10 10l-63 1016q-2 10 12 10h174q6 0 10 -10l33 -823q0 -8 9 -8t12 8l348 823q4 10 10 10h252q6 0 10 -10l57 -823q1 -8 9 -8t12 8l324 823q4 10 10 10h174q14 0 12 -10
l-424 -1016q-4 -10 -14 -10z" />
    <glyph glyph-name="x" unicode="x" horiz-adv-x="1132" 
d="M989 0h-207q-8 0 -14 10l-197 344q-8 8 -16 0l-322 -344q-10 -10 -18 -10h-203q-4 0 -5 4t3 6l457 492q10 10 4 20l-281 504q-6 10 5 10h196q8 0 17 -10l200 -354q6 -14 21 0l327 354q6 10 17 10h196q12 0 7 -10l-465 -504q-8 -10 -4 -20l288 -492q10 -10 -6 -10z" />
    <glyph glyph-name="y" unicode="y" horiz-adv-x="1148" 
d="M248 -231q88 0 128 51t25 135l-176 1071q0 10 15 10h186q8 0 8 -10l123 -823q2 -8 9 -8t12 8l415 823q6 10 13 10h186q14 0 8 -10l-620 -1204q-70 -129 -139 -178t-189 -50h-264q-12 0 -8 11l24 153q4 10 12 11h232z" />
    <glyph glyph-name="z" unicode="z" horiz-adv-x="1019" 
d="M725 862h-516q-8 0 -8 10l28 154q0 10 11 10h755q10 0 11 -10l-29 -154q0 -6 -10 -20l-662 -662q-6 -4 -4 -10t8 -6h561q12 0 9 -10l-27 -154q0 -10 -12 -10h-805q-8 0 -8 10l26 154q2 4 13 20l665 662q4 2 2 9t-8 7z" />
    <glyph glyph-name="braceleft" unicode="{" horiz-adv-x="999" 
d="M526 -406q-141 0 -185 69t-17 220l82 465q8 45 -18 77t-71 32h-112q-10 0 -10 10l18 102q4 10 12 11h113q43 0 82 32t47 78l80 461q27 151 95 221t210 70h113q12 0 8 -10l-19 -105q0 -8 -10 -8h-113q-45 0 -83 -33t-48 -78l-79 -456q-13 -80 -45 -131t-56 -67
q-25 -15 -61 -32q-6 -4 -2 -8q113 -51 82 -227l-82 -459q-9 -45 19 -78t73 -33h113q10 0 8 -8l-19 -104q0 -10 -12 -11h-113z" />
    <glyph glyph-name="bar" unicode="|" horiz-adv-x="452" 
d="M141 -406h-141q-4 0 -4 11l319 1827q4 10 11 10h141q12 0 8 -10l-321 -1827q-1 -11 -13 -11z" />
    <glyph glyph-name="braceright" unicode="}" horiz-adv-x="999" 
d="M74 -283h112q45 0 83 33t46 78l82 459q31 174 160 227q10 4 2 8q-25 12 -37 22t-32 37q-19 27 -18 65t7 106l80 456q8 45 -18 78q-27 33 -72 33h-113q-10 0 -10 8l19 105q4 10 12 10h112q141 0 185 -70t18 -221l-80 -461q-8 -45 19 -78t69 -32h113q12 0 8 -11l-18 -102
q0 -10 -10 -10h-113q-45 0 -83 -32t-46 -77l-82 -465q-27 -153 -95 -221t-210 -68h-113q-8 1 -8 11l18 104q2 8 13 8z" />
    <glyph glyph-name="asciitilde" unicode="~" horiz-adv-x="1087" 
d="M770 567q37 1 64 21t32 49l11 65q4 10 12 11l147 -41q8 -4 8 -10l-10 -56q-16 -92 -96 -154t-180 -62t-237 71q-138 71 -173 71q-34 0 -62 -22t-34 -49l-10 -62q0 -10 -13 -10l-145 41q-10 4 -8 10l8 52q16 96 96 158t180 62t236 -72q137 -73 174 -73z" />
    <glyph glyph-name="DEL" horiz-adv-x="583" 
 />
    <glyph glyph-name="nbspace" unicode="&#xa0;" horiz-adv-x="583" 
 />
    <glyph glyph-name="exclamdown" unicode="&#xa1;" horiz-adv-x="536" 
d="M227 1442h246q8 0 8 -10l-45 -250q0 -10 -12 -11h-246q-8 0 -8 11l45 250q0 10 12 10zM209 1016h131q12 0 8 -10l-86 -600l-69 -396q0 -10 -13 -10h-172q-8 0 -8 10l70 396l127 600q4 10 12 10z" />
    <glyph glyph-name="cent" unicode="&#xa2;" horiz-adv-x="1140" 
d="M402 748q-74 -95 -98 -231t18 -229t143 -122q16 -4 16 10l121 684q2 6 -2 9t-10 1q-113 -29 -188 -122zM1122 686h-184q-4 0 -8 10q-29 137 -148 172q-14 4 -18 -10l-119 -680q-2 -4 1 -8t11 -2q139 37 209 172q6 10 13 10h184q14 0 8 -10q-133 -311 -453 -354
q-10 0 -12 -9l-31 -172q0 -10 -10 -10h-141q-8 0 -8 10l30 170q0 8 -4 11q-198 23 -284 166t-47 366q39 224 176 366t344 167q6 2 8 10l29 172q4 10 10 10h141q12 0 8 -10l-30 -176q0 -2 2 -4v-4q153 -19 239 -111t97 -242q-1 -10 -13 -10z" />
    <glyph glyph-name="sterling" unicode="&#xa3;" horiz-adv-x="1302" 
d="M1108 0h-1096q-12 0 -8 10l27 154q4 10 12 10h70q109 0 129 102l65 371q0 10 -8 10h-170q-12 0 -8 11l26 153q0 10 13 10h170q10 0 10 11l37 209q35 190 183 301q148 110 348 110t311 -106t84 -309q0 -10 -13 -11h-184q-8 0 -8 11q18 109 -38 175t-182 66t-206 -66
q-82 -66 -101 -171l-36 -209q0 -10 10 -11h258q8 0 8 -10l-27 -153q-4 -10 -12 -11h-258q-12 0 -12 -10l-66 -371q-10 -55 -43 -92q-10 -10 2 -10h549q8 0 12 10l39 217q0 10 11 11h174q10 0 10 -11l-70 -391q-4 -10 -12 -10z" />
    <glyph glyph-name="currency" unicode="&#xa4;" horiz-adv-x="1351" 
d="M779 1081q-143 0 -247 -101t-133 -263t39 -263q68 -102 212 -102t246 102t130 263q29 162 -37 263t-210 101zM813 1255q176 0 283 -88q14 -10 26 2l156 131q8 10 14 0l88 -108q10 -6 -2 -14l-168 -144q-10 -6 -6 -20q46 -135 16 -303t-124 -297q-4 -8 2 -15l119 -141
q10 -6 -3 -14l-129 -109q-8 -10 -14 0l-108 131q-10 10 -25 0q-138 -88 -320 -88t-292 88q-10 8 -19 0l-155 -131q-8 -10 -15 0l-88 109q-10 6 2 14l166 141q8 8 4 17q-45 135 -14 305t121 295q8 10 2 18l-117 144q-10 6 2 14l129 108q8 10 14 0l105 -131q10 -10 22 -4
q152 90 328 90z" />
    <glyph glyph-name="yen" unicode="&#xa5;" horiz-adv-x="1390" 
d="M791 406h413q12 0 8 -11l-28 -164q0 -10 -10 -10h-414q-12 0 -12 -10l-37 -201q0 -10 -13 -10h-174q-8 0 -8 10l37 201q0 10 -8 10h-389q-10 0 -11 10l29 164q4 10 12 11h389q12 0 13 10l35 192q0 12 -9 13h-389q-12 0 -8 10l29 164q0 10 12 10h279q10 0 6 10l-269 617
q-6 10 9 10h206q8 0 15 -10l248 -586q8 -12 16 0l459 586q8 10 22 10h203q10 0 4 -10l-489 -617q-10 -10 0 -10h309q8 0 8 -10l-29 -164q-4 -10 -12 -10h-414q-8 -1 -12 -11l-35 -194q0 -10 9 -10z" />
    <glyph glyph-name="brokenbar" unicode="&#xa6;" horiz-adv-x="473" 
d="M162 -403h-142q-6 0 -6 10l146 821q4 10 10 10h141q12 0 8 -10l-145 -821q0 -10 -12 -10zM340 600h-141q-10 0 -6 10l143 822q4 10 10 10h141q12 0 9 -10l-144 -822q-4 -10 -12 -10z" />
    <glyph glyph-name="section" unicode="&#xa7;" horiz-adv-x="1300" 
d="M957 609q-41 41 -233 92q-193 52 -232 69q-111 -39 -152 -154q-36 -118 17 -171q40 -40 95 -62q56 -22 200 -60q143 -38 188 -57q115 37 151 154q30 96 1 143q-15 27 -35 46zM541 -252q125 0 201 50t91 125q14 75 -27 116q-22 23 -41 38t-59 29l-60 21q-19 6 -66 18
q-305 78 -386 163t-78 188q1 66 27 147q43 152 174 246q10 8 2 16q-47 86 -24 207q29 160 177 255t349 95t321 -108t93 -307q0 -10 -12 -11h-185q-8 0 -8 11q18 106 -47 174q-66 67 -191 67q-124 0 -202 -50t-90 -124t27 -117q22 -23 41 -38q18 -15 58 -29t60 -22t66 -18
q84 -20 206 -59q121 -39 178 -97q84 -89 82 -193q-1 -66 -28 -148q-53 -160 -174 -248q-10 -6 -4 -16q47 -86 26 -205q-29 -160 -177 -255t-349 -95t-322 108t-94 308q4 10 13 10h184q12 0 8 -10q-17 -106 49 -174t191 -68z" />
    <glyph glyph-name="dieresis" unicode="&#xa8;" horiz-adv-x="909" 
d="M655 1208q-8 0 -8 11l39 213q0 10 12 10h215q9 0 9 -10l-39 -213q0 -10 -13 -11h-215zM156 1208q-8 0 -9 11l39 213q0 10 13 10h215q8 0 8 -10l-39 -213q0 -10 -12 -11h-215z" />
    <glyph glyph-name="copyright" unicode="&#xa9;" horiz-adv-x="1650" 
d="M1067 559h104q8 0 9 -10q-14 -80 -136 -176q-122 -97 -294 -97t-255 123t-46 322q35 199 161 321t300 123q176 0 260 -101t69 -175q0 -6 -8 -6h-109q-4 0 -10 31t-35 71q-55 74 -180 75t-212 -89t-115 -250t26 -250t175 -90q119 0 187 52t99 120q4 6 10 6zM732 63
q271 0 499 194q227 194 274 465t-111 465q-159 193 -430 193t-498 -193q-226 -194 -273 -465t111 -465t428 -194zM719 0q-195 0 -342 97t-214 264t-32 362q53 297 300 508t544 211t471 -211t121 -509t-302 -510t-546 -212z" />
    <glyph glyph-name="ordfeminine" unicode="&#xaa;" horiz-adv-x="581" 
d="M281 987q23 -25 99 -25t132 47q55 46 63 117q2 6 -4 7h-155q-139 -8 -152 -86q-6 -35 17 -60zM430 1214h125q33 0 39 17q7 17 5 66q-1 24 -33 42t-93 19q-133 0 -151 -101q0 -6 -7 -6h-96q-4 0 -4 6q16 91 96 143t189 52t165 -52t37 -153l-63 -360q0 -6 -6 -6h-84l-4 6
l-4 45q1 9 -17 -6t-71 -35t-105 -21q-109 0 -157 48t-31 129q12 75 83 121t187 46z" />
    <glyph glyph-name="guillemotleft" unicode="&#xab;" horiz-adv-x="1220" 
d="M1053 0h-152q-8 0 -8 6l-346 504q-4 10 4 18l522 504q4 6 12 6h152q16 0 6 -14l-520 -496q-8 -8 -4 -18l346 -496q4 -14 -12 -14zM674 0h-152q-8 0 -8 6l-346 504q-4 10 4 18l522 504q2 6 13 6h151q16 0 6 -14l-520 -496q-8 -8 -4 -18l346 -496q4 -14 -12 -14z" />
    <glyph glyph-name="logicalnot" unicode="&#xac;" horiz-adv-x="1343" 
d="M209 608h1016q8 0 8 -10l-105 -586q0 -10 -10 -10h-174q-10 0 -10 10l70 391q4 10 -9 11h-821q-12 0 -8 10l31 174q0 10 12 10z" />
    <glyph glyph-name="uni00AD" unicode="&#xad;" 
d="M76 96l465 625l-246 625zM594 721l244 -623l219 1245q-373 -497 -463 -622zM94 49h709l-246 625zM575 768l465 627h-708zM858 0h-842q-8 0 -8 10l252 1422q0 10 12 10h842q8 0 8 -10l-252 -1422q0 -10 -12 -10z" />
    <glyph glyph-name="registered" unicode="&#xae;" horiz-adv-x="1650" 
d="M987 1049h-293q-12 0 -12 -11l-51 -290q-4 -10 8 -11h297q57 2 110 47q52 46 62 108t-26 110t-95 47zM596 1153h424q102 0 164 -77t44 -171q-33 -181 -188 -246q-12 -4 -6 -14l94 -344q6 -12 -10 -12h-96q-14 0 -18 10l-84 326q0 8 -13 8h-291q-6 0 -8 -6l-57 -328
q0 -10 -12 -10h-97q-8 0 -8 10l150 844q0 10 12 10zM732 63q271 0 499 194q227 194 274 465t-111 466q-159 194 -430 194t-498 -194q-226 -195 -273 -466t111 -465t428 -194zM719 0q-195 0 -342 97t-214 264t-32 362q53 297 300 509t544 212t471 -212t121 -510t-302 -510
t-546 -212z" />
    <glyph glyph-name="macron" unicode="&#xaf;" horiz-adv-x="716" 
d="M682 1206h-504q-6 0 -6 11l23 118q0 10 8 11h504q10 0 10 -11l-23 -118q0 -11 -12 -11z" />
    <glyph glyph-name="degree" unicode="&#xb0;" horiz-adv-x="819" 
d="M517 1337q-79 0 -143 -55t-79 -134q-14 -79 32 -134q46 -56 125 -56q80 0 144 56t78 134q14 79 -32 134t-125 55zM540 1464q132 0 208 -93t53 -224t-131 -223t-241 -92q-132 0 -208 90q-76 92 -53 225t131 225q109 92 241 92z" />
    <glyph glyph-name="plusminus" unicode="&#xb1;" horiz-adv-x="1335" 
d="M551 403q-8 0 -8 11l71 405q4 10 -8 10h-391q-12 0 -8 11l29 164q0 10 12 10h391q8 0 12 10l72 406q0 10 12 10h172q8 0 8 -10l-71 -406q-4 -10 8 -10h414q8 0 8 -10l-29 -164q-4 -10 -12 -11h-414q-8 0 -12 -10l-72 -405q0 -10 -12 -11h-172zM1087 0h-1017q-10 0 -11 10
l29 154q0 10 12 10h1018q8 0 8 -10l-28 -154q-1 -10 -11 -10z" />
    <glyph glyph-name="twosuperior" unicode="&#xb2;" horiz-adv-x="798" 
d="M574 1348q-66 0 -112 -39t-56 -92q0 -6 -7 -7h-94q-4 0 -4 7q16 98 97 161q81 64 193 64t168 -68t38 -168q-10 -51 -47 -104q-38 -54 -54 -68t-63 -55l-283 -225q-8 -8 4 -9h355q6 0 6 -6l-15 -82q-4 -6 -8 -6h-499q-5 0 -5 6l15 76q0 10 6 17l360 299q111 86 121 147
t-19 107q-31 45 -97 45z" />
    <glyph glyph-name="threesuperior" unicode="&#xb3;" horiz-adv-x="800" 
d="M477 1100h39q63 0 108 35q44 35 54 86t-24 89t-94 37t-107 -41t-56 -89q0 -6 -6 -7h-94q-4 0 -4 7q14 96 95 159q80 62 188 64t165 -60t44 -144q-13 -81 -59 -123t-81 -52q-13 -6 -2 -12q39 -11 74 -61t20 -126q-16 -100 -98 -160t-203 -61t-175 63t-36 158q0 4 6 4h95
q4 0 4 -4q-10 -51 22 -90t100 -39q70 0 120 37t60 96q10 60 -27 100q-38 40 -105 40h-39q-6 0 -6 4l14 84q2 6 8 6z" />
    <glyph glyph-name="acute" unicode="&#xb4;" horiz-adv-x="536" 
d="M315 1206h-116q-16 0 -6 15l122 206q10 14 25 15h178q16 0 6 -15l-182 -206q-15 -15 -27 -15z" />
    <glyph glyph-name="mu" unicode="&#xb5;" 
d="M76 96l465 625l-246 625zM594 721l244 -623l219 1245q-373 -497 -463 -622zM94 49h709l-246 625zM575 768l465 627h-708zM858 0h-842q-8 0 -8 10l252 1422q0 10 12 10h842q8 0 8 -10l-252 -1422q0 -10 -12 -10z" />
    <glyph glyph-name="paragraph" unicode="&#xb6;" horiz-adv-x="1210" 
d="M508 647q-156 0 -244 117q-88 118 -59 278t153 276q125 116 283 124h590q12 0 8 -10l-321 -1827q0 -10 -13 -11h-174q-8 0 -8 11l295 1673q4 10 -8 10h-174q-8 0 -13 -10l-295 -1673q0 -10 -12 -11h-174q-8 1 -8 11l182 1032q4 10 -8 10z" />
    <glyph glyph-name="periodcentered" unicode="&#xb7;" horiz-adv-x="491" 
d="M397 565h-305q-12 0 -8 10l53 310q4 10 13 10h305q12 0 8 -10l-53 -310q-5 -10 -13 -10z" />
    <glyph glyph-name="cedilla" unicode="&#xb8;" horiz-adv-x="630" 
d="M449 10q14 0 8 -10l-142 -92q-4 -2 -4 -9t8 -8q61 0 105 -38q43 -39 31 -110q-11 -71 -75 -120t-154 -49t-131 49q-40 49 -27 117q4 10 12 10h67q11 0 7 -22t18 -49t64 -27q44 0 77 26t41 71q8 44 -22 68q-31 23 -66 23t-41 6l-12 17q-14 14 2 24l117 84q4 12 -8 13
q-18 0 -15 14q4 12 19 12h121z" />
    <glyph glyph-name="onesuperior" unicode="&#xb9;" horiz-adv-x="602" 
d="M543 1442h94q4 0 4 -6l-135 -766q0 -6 -8 -6h-95q-4 0 -4 6l93 520q6 33 -27 33h-170q-8 0 -4 6l12 78q0 4 8 4h138q27 0 49 19t26 46l13 60q0 6 6 6z" />
    <glyph glyph-name="ordmasculine" unicode="&#xba;" horiz-adv-x="624" 
d="M633 1155q16 88 -21 142q-36 55 -114 55t-132 -54t-70 -143q-16 -88 18 -143q36 -56 114 -56t134 56t71 143zM411 864q-128 0 -186 79q-57 79 -35 211t110 212q87 80 215 80q129 0 187 -80t35 -211t-111 -211t-215 -80z" />
    <glyph glyph-name="guillemotright" unicode="&#xbb;" horiz-adv-x="1220" 
d="M647 1038h152q4 0 8 -6l346 -504q4 -10 -4 -18l-522 -504q-6 -6 -13 -6h-151q-12 0 -8 14l522 496q8 8 4 18l-348 496q0 14 14 14zM268 1038h152q6 0 8 -6l346 -504q4 -10 -4 -18l-522 -504q-6 -6 -12 -6h-152q-12 0 -8 14l522 496q8 8 4 18l-348 496q0 14 14 14z" />
    <glyph glyph-name="onequarter" unicode="&#xbc;" horiz-adv-x="1466" 
d="M971 272q4 0 8 7l57 323q0 4 -4 5t-8 -3l-295 -323q-4 -8 4 -9h238zM1073 778h92q6 0 6 -6l-88 -493q-2 -6 4 -7h123q4 0 4 -6l-14 -82q0 -6 -6 -6h-123q-6 0 -6 -6l-31 -166q0 -6 -6 -6h-94q-4 0 -4 6l28 166q4 6 -4 6h-362q-6 0 -4 6l12 76q2 8 6 19l455 493q4 6 12 6z
M479 1444h94q4 0 5 -6l-136 -766q0 -6 -8 -6h-94q-4 0 -4 6l92 520q6 33 -27 33h-170q-6 0 -4 6l13 78q0 4 8 4h137q27 0 49 19t27 46l12 60q0 6 6 6zM1255 1442h111q16 0 4 -17l-1122 -1421q-4 -4 -10 -4h-107q-16 0 -4 16l1118 1422q4 4 10 4z" />
    <glyph glyph-name="onehalf" unicode="&#xbd;" horiz-adv-x="1519" 
d="M1115 696q-67 0 -113 -39t-56 -92q0 -6 -6 -6h-94q-4 0 -4 6q16 97 97 161t193 64t167 -67q56 -68 38 -168q-10 -51 -47 -104t-53 -67t-63 -56l-283 -226q-8 -8 4 -8h354q6 0 6 -6l-14 -82q-4 -6 -8 -6h-500q-4 0 -4 6l14 76q0 10 7 16l360 299q111 85 121 147t-20 107
t-96 45zM479 1442h94q4 0 5 -6l-136 -766q0 -6 -8 -6h-94q-4 0 -4 6l92 520q6 33 -27 33h-170q-6 0 -4 6l13 78q0 4 8 4h137q27 0 49 19t27 46l12 60q0 6 6 6zM1235 1442h111q16 0 4 -17l-1123 -1421q-4 -4 -10 -4h-106q-17 0 -5 16l1119 1422q4 4 10 4z" />
    <glyph glyph-name="threequarters" unicode="&#xbe;" horiz-adv-x="1595" 
d="M1100 272q6 0 8 7l57 323q0 4 -5 5t-7 -3l-295 -323q-4 -8 4 -9h238zM1202 778h92q6 0 6 -6l-88 -493q-4 -6 5 -7h122q4 0 4 -6l-14 -82q0 -6 -6 -6h-123q-6 0 -6 -6l-31 -166q0 -6 -6 -6h-94q-4 0 -4 6l28 166q2 6 -4 6h-362q-8 0 -4 6l12 76q2 8 6 19l455 493q4 6 12 6
zM414 1100h39q63 0 107 35t54 86t-23 89q-34 38 -94 37q-59 -1 -107 -41t-56 -89q0 -6 -6 -7h-95q-4 0 -4 7q13 96 95 159q82 62 190 64t164 -60q57 -62 44 -144q-13 -81 -59 -123t-81 -52q-13 -6 -2 -12q40 -11 74 -61t19 -138t-97 -148t-204 -61q-120 -1 -174 63t-36 158
q0 4 6 4h94q4 0 4 -4q-10 -51 22 -90t100 -39t120 37q51 37 61 96t-27 100q-38 40 -106 40h-39q-6 0 -6 4l15 84q4 6 8 6zM1389 1442h110q16 0 4 -17l-1122 -1421q-4 -4 -10 -4h-107q-16 0 -4 16l1118 1422q4 4 11 4z" />
    <glyph glyph-name="questiondown" unicode="&#xbf;" horiz-adv-x="1087" 
d="M586 1442h245q12 0 9 -10l-43 -250q-4 -10 -13 -11h-245q-12 0 -9 11l43 250q5 10 13 10zM545 1014h174q12 0 8 -10l-29 -162q-23 -134 -175 -194q-151 -60 -205 -116t-69 -142q-15 -87 48 -162q63 -74 189 -74t208 64q80 64 97 157l4 20q0 10 12 11h174q8 0 8 -11
l-4 -20q-31 -174 -177 -285q-146 -110 -353 -110t-318 120t-79 295q32 174 146 263q62 48 112 75t145 72q35 16 47 53l24 146q4 10 13 10z" />
    <glyph glyph-name="Agrave" unicode="&#xc0;" horiz-adv-x="1437" 
d="M975 1604h-117q-14 0 -18 14l-113 207q-4 14 14 14h179q16 0 16 -14l53 -207q4 -14 -14 -14zM477 477h486q12 0 8 10l-107 750q0 13 -13 8q-5 -2 -7 -8l-375 -750q-4 -10 8 -10zM766 1442h252q6 0 10 -10l225 -1422q2 -4 -2 -7t-10 -3h-192q-4 0 -9 10l-41 293
q-2 10 -14 10h-594q-8 0 -12 -10l-150 -293q-4 -10 -12 -10h-190q-12 0 -11 10l736 1422q4 10 14 10z" />
    <glyph glyph-name="Aacute" unicode="&#xc1;" horiz-adv-x="1437" 
d="M979 1604h-117q-16 0 -6 14l123 207q10 14 25 14h178q16 0 6 -14l-182 -207q-15 -14 -27 -14zM477 477h486q12 0 8 10l-107 750q0 13 -13 8q-5 -2 -7 -8l-375 -750q-4 -10 8 -10zM766 1442h252q6 0 10 -10l225 -1422q2 -4 -2 -7t-10 -3h-192q-4 0 -9 10l-41 293
q-2 10 -14 10h-594q-8 0 -12 -10l-150 -293q-4 -10 -12 -10h-190q-12 0 -11 10l736 1422q4 10 14 10z" />
    <glyph glyph-name="Acircumflex" unicode="&#xc2;" horiz-adv-x="1437" 
d="M1104 1604h-119q-8 0 -14 8l-45 84q-8 18 -23 0l-74 -84q-6 -8 -18 -8h-119q-16 0 -6 14l127 213q6 8 12 8h230q10 0 12 -8l51 -213q4 -14 -14 -14zM477 477h486q12 0 8 10l-107 750q0 13 -13 8q-5 -2 -7 -8l-375 -750q-4 -10 8 -10zM766 1442h252q6 0 10 -10l225 -1422
q2 -4 -2 -7t-10 -3h-192q-4 0 -9 10l-41 293q-2 10 -14 10h-594q-8 0 -12 -10l-150 -293q-4 -10 -12 -10h-190q-12 0 -11 10l736 1422q4 10 14 10z" />
    <glyph glyph-name="Atilde" unicode="&#xc3;" horiz-adv-x="1437" 
d="M1106 1837h123q8 0 8 -10l-10 -49q-11 -66 -71 -120t-169 -54q-61 0 -123 47t-76 47q-70 0 -80 -74q-3 -20 -16 -20h-123q-8 0 -8 10l8 47q13 68 73 122t155 54t174 -71q27 -24 40 -24q67 2 79 74q4 20 16 21zM477 477h486q12 0 8 10l-107 750q0 13 -13 8q-5 -2 -7 -8
l-375 -750q-4 -10 8 -10zM766 1442h252q6 0 10 -10l225 -1422q2 -4 -2 -7t-10 -3h-192q-4 0 -9 10l-41 293q-2 10 -14 10h-594q-8 0 -12 -10l-150 -293q-4 -10 -12 -10h-190q-12 0 -11 10l736 1422q4 10 14 10z" />
    <glyph glyph-name="Adieresis" unicode="&#xc4;" horiz-adv-x="1437" 
d="M1243 1604h-215q-10 0 -10 10l39 215q0 10 12 10h215q8 0 8 -10l-39 -215q0 -10 -10 -10zM743 1604h-215q-10 0 -10 10l39 215q0 10 12 10h215q9 0 9 -10l-39 -215q0 -10 -11 -10zM477 477h486q12 0 8 10l-107 750q0 13 -13 8q-5 -2 -7 -8l-375 -750q-4 -10 8 -10z
M766 1442h252q6 0 10 -10l225 -1422q2 -4 -2 -7t-10 -3h-192q-4 0 -9 10l-41 293q-2 10 -14 10h-594q-8 0 -12 -10l-150 -293q-4 -10 -12 -10h-190q-12 0 -11 10l736 1422q4 10 14 10z" />
    <glyph glyph-name="Aring" unicode="&#xc5;" horiz-adv-x="1437" 
d="M956 1778q-38 0 -70 -27t-39 -65t15 -66q22 -27 62 -27t70 27t38 66q6 40 -16 66t-60 26zM762 1686q12 74 74 126t135 54q73 0 117 -53t31 -127t-75 -126t-137 -52t-117 52t-28 126zM477 477h486q12 0 8 10l-107 750q0 13 -13 8q-5 -2 -7 -8l-375 -750q-4 -10 8 -10z
M766 1442h252q6 0 10 -10l225 -1422q2 -4 -2 -7t-10 -3h-192q-4 0 -9 10l-41 293q-2 10 -14 10h-594q-8 0 -12 -10l-150 -293q-4 -10 -12 -10h-190q-12 0 -11 10l736 1422q4 10 14 10z" />
    <glyph glyph-name="AE" unicode="&#xc6;" horiz-adv-x="2117" 
d="M1112 1237l-563 -758h444l133 758q-4 20 -14 0zM1051 1442h1087q8 0 8 -10l-28 -154q0 -10 -11 -10h-770q-12 0 -12 -11l-76 -428q-4 -10 8 -10h687q12 0 8 -10l-27 -154q-4 -10 -12 -10h-686q-8 0 -13 -10l-79 -451q0 -10 8 -10h770q10 0 10 -10l-29 -154q0 -10 -12 -10
h-967q-6 0 -6 10l56 305h-539l-227 -305q-4 -10 -13 -10h-188q-12 0 -10 10l1048 1422q5 10 15 10z" />
    <glyph glyph-name="Ccedilla" unicode="&#xc7;" horiz-adv-x="1439" 
d="M1356 451q10 0 8 -11q-22 -117 -161 -260q-69 -72 -181 -127t-244 -69l-123 -76q-4 -2 -4 -9t8 -8q61 0 105 -38q43 -39 31 -110q-11 -71 -75 -120t-154 -49t-131 49q-40 49 -27 117q0 10 12 10h67q8 0 9 -10q-6 -33 16 -61q22 -27 64 -27q44 0 77 26t41 71q8 44 -23 68
q-32 23 -67 23t-39 6l-14 17q-10 12 2 24l111 74q6 2 5 10t-10 9q-299 0 -419 204t-64 537q59 333 268 537t510 204q156 0 269 -55t161 -134q96 -157 78 -272q0 -10 -10 -10h-180q-10 0 -15 10q-47 287 -333 287q-213 0 -355 -149q-141 -150 -188 -418t41 -418t301 -149
q165 0 275 88t161 198q4 10 17 11h180z" />
    <glyph glyph-name="Egrave" unicode="&#xc8;" horiz-adv-x="1294" 
d="M924 1604h-117q-14 0 -19 14l-112 207q-4 14 14 14h178q16 0 17 -14l53 -207q4 -14 -14 -14zM330 1442h985q8 0 8 -10l-29 -154q0 -10 -10 -10h-790q-12 0 -13 -11l-73 -417q-4 -10 8 -11h706q12 0 8 -10l-26 -153q-4 -10 -12 -11h-707q-8 0 -12 -10l-82 -461
q0 -10 8 -10h791q10 0 10 -10l-29 -154q0 -10 -12 -10h-985q-8 0 -8 10l251 1422q0 10 13 10z" />
    <glyph glyph-name="Eacute" unicode="&#xc9;" horiz-adv-x="1294" 
d="M846 1604h-117q-16 0 -6 14l123 207q10 14 24 14h179q16 0 6 -14l-183 -207q-14 -14 -26 -14zM330 1442h985q8 0 8 -10l-29 -154q0 -10 -10 -10h-790q-12 0 -13 -11l-73 -417q-4 -10 8 -11h706q12 0 8 -10l-26 -153q-4 -10 -12 -11h-707q-8 0 -12 -10l-82 -461
q0 -10 8 -10h791q10 0 10 -10l-29 -154q0 -10 -12 -10h-985q-8 0 -8 10l251 1422q0 10 13 10z" />
    <glyph glyph-name="Ecircumflex" unicode="&#xca;" horiz-adv-x="1294" 
d="M1053 1604h-119q-8 0 -14 8l-46 84q-8 18 -22 0l-74 -84q-6 -8 -18 -8h-119q-16 0 -6 14l127 213q6 8 12 8h230q10 0 12 -8l51 -213q4 -14 -14 -14zM330 1442h985q8 0 8 -10l-29 -154q0 -10 -10 -10h-790q-12 0 -13 -11l-73 -417q-4 -10 8 -11h706q12 0 8 -10l-26 -153
q-4 -10 -12 -11h-707q-8 0 -12 -10l-82 -461q0 -10 8 -10h791q10 0 10 -10l-29 -154q0 -10 -12 -10h-985q-8 0 -8 10l251 1422q0 10 13 10z" />
    <glyph glyph-name="Edieresis" unicode="&#xcb;" horiz-adv-x="1294" 
d="M1212 1604h-215q-10 0 -10 10l39 215q0 10 12 10h215q9 0 9 -10l-39 -215q0 -10 -11 -10zM713 1604h-215q-10 0 -11 10l39 215q0 10 13 10h215q8 0 8 -10l-39 -215q0 -10 -10 -10zM330 1442h985q8 0 8 -10l-29 -154q0 -10 -10 -10h-790q-12 0 -13 -11l-73 -417
q-4 -10 8 -11h706q12 0 8 -10l-26 -153q-4 -10 -12 -11h-707q-8 0 -12 -10l-82 -461q0 -10 8 -10h791q10 0 10 -10l-29 -154q0 -10 -12 -10h-985q-8 0 -8 10l251 1422q0 10 13 10z" />
    <glyph glyph-name="Igrave" unicode="&#xcc;" horiz-adv-x="524" 
d="M479 1604h-117q-14 0 -18 14l-113 207q-4 14 15 14h178q16 0 16 -14l54 -207q3 -14 -15 -14zM330 1442h174q8 0 8 -10l-252 -1422q0 -10 -12 -10h-174q-8 0 -8 10l251 1422q1 10 13 10z" />
    <glyph glyph-name="Iacute" unicode="&#xcd;" horiz-adv-x="524" 
d="M494 1604h-117q-16 0 -6 14l123 207q10 14 24 14h178q16 0 6 -14l-182 -207q-14 -14 -26 -14zM330 1442h174q8 0 8 -10l-252 -1422q0 -10 -12 -10h-174q-8 0 -8 10l251 1422q1 10 13 10z" />
    <glyph glyph-name="Icircumflex" unicode="&#xce;" horiz-adv-x="524" 
d="M649 1604h-119q-8 0 -14 8l-45 84q-8 18 -22 0l-74 -84q-6 -8 -19 -8h-118q-16 0 -7 14l127 213q6 8 13 8h229q10 0 12 -8l52 -213q3 -14 -15 -14zM330 1442h174q8 0 8 -10l-252 -1422q0 -10 -12 -10h-174q-8 0 -8 10l251 1422q1 10 13 10z" />
    <glyph glyph-name="Idieresis" unicode="&#xcf;" horiz-adv-x="524" 
d="M807 1604h-215q-10 0 -10 10l39 215q0 10 12 10h215q8 0 8 -10l-39 -215q0 -10 -10 -10zM307 1604h-215q-10 0 -10 10l39 215q0 10 12 10h215q8 0 8 -10l-39 -215q0 -10 -10 -10zM330 1442h174q8 0 8 -10l-252 -1422q0 -10 -12 -10h-174q-8 0 -8 10l251 1422q1 10 13 10z
" />
    <glyph glyph-name="Eth" unicode="&#xd0;" horiz-adv-x="1476" 
d="M723 616h-315q-12 0 -13 -10l-76 -422q0 -10 9 -10h334q207 0 346 137t185 395t-43 410t-294 152h-334q-12 0 -12 -11l-82 -456q0 -10 10 -10h316q8 0 8 -11l-29 -153q0 -11 -10 -11zM193 616h-111q-10 0 -10 11l28 153q0 10 13 11h110q10 0 10 10l113 631q0 10 12 10
h529q311 -2 440 -202t71 -534t-255 -520t-512 -186h-529q-8 0 -8 10l107 596q0 10 -8 10z" />
    <glyph glyph-name="Ntilde" unicode="&#xd1;" horiz-adv-x="1460" 
d="M1074 1753q13 0 32 3t32 26q13 24 16 44t15 21h123q8 0 8 -10l-10 -49q-12 -66 -71 -120t-168 -54q-61 0 -123 47t-76 47t-33 -3t-32 -26q-13 -25 -16 -45t-15 -20h-123q-8 0 -8 10l8 47q13 68 73 122t154 54t174 -70q27 -24 40 -24zM1298 1442h175q8 0 8 -10l-252 -1422
q0 -10 -12 -10h-302q-8 0 -14 10l-403 1231q-2 6 -10 5t-11 -9l-217 -1227q0 -10 -12 -10h-174q-8 0 -8 10l251 1422q0 10 13 10h303q6 0 12 -10l404 -1229q4 -8 11 -8t9 10l217 1227q0 10 12 10z" />
    <glyph glyph-name="Ograve" unicode="&#xd2;" horiz-adv-x="1499" 
d="M1067 1604h-117q-14 0 -18 14l-113 207q-4 14 15 14h178q16 0 16 -14l53 -207q4 -14 -14 -14zM678 154q213 0 354 150t189 417q47 268 -42 418q-89 149 -302 149t-354 -149q-140 -150 -187 -418q-47 -267 41 -417t301 -150zM1352 1260q130 -203 70 -540t-261 -539
q-201 -201 -514 -201t-444 202t-72 539q59 336 261 539q202 202 515 202t445 -202z" />
    <glyph glyph-name="Oacute" unicode="&#xd3;" horiz-adv-x="1499" 
d="M989 1604h-117q-16 0 -6 14l123 207q10 14 25 14h178q16 0 6 -14l-182 -207q-15 -14 -27 -14zM678 154q213 0 354 150t189 417q47 268 -42 418q-89 149 -302 149t-354 -149q-140 -150 -187 -418q-47 -267 41 -417t301 -150zM1352 1260q130 -203 70 -540t-261 -539
q-201 -201 -514 -201t-444 202t-72 539q59 336 261 539q202 202 515 202t445 -202z" />
    <glyph glyph-name="Ocircumflex" unicode="&#xd4;" horiz-adv-x="1499" 
d="M1196 1604h-119q-8 0 -14 8l-45 84q-8 18 -23 0l-73 -84q-6 -8 -19 -8h-119q-16 0 -6 14l127 213q6 8 13 8h229q10 0 12 -8l51 -213q4 -14 -14 -14zM678 154q213 0 354 150t189 417q47 268 -42 418q-89 149 -302 149t-354 -149q-140 -150 -187 -418q-47 -267 41 -417
t301 -150zM1352 1260q130 -203 70 -540t-261 -539q-201 -201 -514 -201t-444 202t-72 539q59 336 261 539q202 202 515 202t445 -202z" />
    <glyph glyph-name="Otilde" unicode="&#xd5;" horiz-adv-x="1499" 
d="M1198 1837h123q8 0 8 -10l-10 -49q-11 -66 -71 -120t-169 -54q-61 0 -123 47t-75 47q-14 0 -33 -3t-32 -26q-13 -25 -16 -45t-16 -20h-122q-9 0 -9 10l9 47q14 68 73 122t154 54t174 -71q27 -24 40 -24q67 2 79 74q4 20 16 21zM678 154q213 0 354 150t189 417
q47 268 -42 418q-89 149 -302 149t-354 -149q-140 -150 -187 -418q-47 -267 41 -417t301 -150zM1352 1260q130 -203 70 -540t-261 -539q-201 -201 -514 -201t-444 202t-72 539q59 336 261 539q202 202 515 202t445 -202z" />
    <glyph glyph-name="Odieresis" unicode="&#xd6;" horiz-adv-x="1499" 
d="M1335 1604h-215q-10 0 -10 10l39 215q0 10 12 10h215q8 0 8 -10l-38 -215q0 -10 -11 -10zM836 1604h-215q-10 0 -11 10l39 215q0 10 13 10h215q8 0 8 -10l-39 -215q0 -10 -10 -10zM678 154q213 0 354 150t189 417q47 268 -42 418q-89 149 -302 149t-354 -149
q-140 -150 -187 -418q-47 -267 41 -417t301 -150zM1352 1260q130 -203 70 -540t-261 -539q-201 -201 -514 -201t-444 202t-72 539q59 336 261 539q202 202 515 202t445 -202z" />
    <glyph glyph-name="multiply" unicode="&#xd7;" horiz-adv-x="1196" 
d="M637 637l467 397q14 4 14 0l86 -100q4 -8 -4 -16l-467 -398q-12 -8 -2 -14l330 -397q0 -12 -4 -15l-113 -96q-6 -6 -14 0l-328 399q-4 4 -14 0l-461 -395q-10 -6 -14 0l-86 100q0 12 2 15l460 395q6 4 7 16l-326 390q0 12 4 14l113 94q8 12 14 0l324 -391q6 -11 12 2z
" />
    <glyph glyph-name="Oslash" unicode="&#xd8;" horiz-adv-x="1499" 
d="M870 1288q-206 0 -347 -149q-140 -150 -187 -418q-29 -158 -10 -283q4 -14 18 -4l821 699q10 8 4 18q-93 137 -299 137zM682 154q209 0 350 150t189 417q29 168 8 283q-4 18 -21 6l-823 -701q-8 -10 -2 -16q90 -139 299 -139zM1423 721q-61 -338 -262 -540
q-201 -201 -500 -201t-436 172q-12 12 -22 2l-92 -78q-8 -6 -15 0l-65 80q-6 6 2 14l110 94q10 6 9 17q-68 184 -21 440q59 336 261 539q202 202 501 202t436 -176q8 -8 17 0l94 80q6 6 14 0l66 -80q6 -6 -2 -14l-113 -96q-6 -4 -6 -15q69 -176 24 -440z" />
    <glyph glyph-name="Ugrave" unicode="&#xd9;" horiz-adv-x="1312" 
d="M932 1604h-117q-14 0 -18 14l-113 207q-4 14 14 14h179q16 0 16 -14l53 -207q4 -14 -14 -14zM585 154q129 0 241 101t135 234l165 943q4 10 13 10h174q12 0 8 -10l-166 -943q-37 -213 -212 -361t-388 -148t-337 148t-87 361l166 943q4 10 12 10h174q13 0 9 -10l-166 -943
q-23 -133 53 -234t206 -101z" />
    <glyph glyph-name="Uacute" unicode="&#xda;" horiz-adv-x="1312" 
d="M854 1604h-117q-16 0 -6 14l123 207q10 14 25 14h178q16 0 6 -14l-182 -207q-15 -14 -27 -14zM585 154q129 0 241 101t135 234l165 943q4 10 13 10h174q12 0 8 -10l-166 -943q-37 -213 -212 -361t-388 -148t-337 148t-87 361l166 943q4 10 12 10h174q13 0 9 -10
l-166 -943q-23 -133 53 -234t206 -101z" />
    <glyph glyph-name="Ucircumflex" unicode="&#xdb;" horiz-adv-x="1312" 
d="M1040 1604h-118q-8 0 -15 8l-45 84q-8 18 -22 0l-74 -84q-6 -8 -18 -8h-119q-16 0 -6 14l127 213q6 8 12 8h229q10 0 13 -8l51 -213q3 -14 -15 -14zM585 154q129 0 241 101t135 234l165 943q4 10 13 10h174q12 0 8 -10l-166 -943q-37 -213 -212 -361t-388 -148t-337 148
t-87 361l166 943q4 10 12 10h174q13 0 9 -10l-166 -943q-23 -133 53 -234t206 -101z" />
    <glyph glyph-name="Udieresis" unicode="&#xdc;" horiz-adv-x="1312" 
d="M1180 1604h-215q-10 0 -11 10l39 215q0 10 13 10h215q8 0 8 -10l-39 -215q0 -10 -10 -10zM680 1604h-215q-10 0 -10 10l39 215q0 10 12 10h215q8 0 8 -10l-39 -215q0 -10 -10 -10zM585 154q129 0 241 101t135 234l165 943q4 10 13 10h174q12 0 8 -10l-166 -943
q-37 -213 -212 -361t-388 -148t-337 148t-87 361l166 943q4 10 12 10h174q13 0 9 -10l-166 -943q-23 -133 53 -234t206 -101z" />
    <glyph glyph-name="Yacute" unicode="&#xdd;" horiz-adv-x="1390" 
d="M872 1604h-116q-16 0 -6 14l122 207q10 14 25 14h178q16 0 6 -14l-182 -207q-15 -14 -27 -14zM698 0h-174q-8 0 -8 10l109 611q0 6 -7 20l-344 791q-6 10 9 10h206q8 0 15 -10l246 -584q10 -14 20 0l457 584q8 10 22 10h203q10 0 4 -10l-627 -791q-10 -12 -10 -20
l-108 -611q0 -10 -13 -10z" />
    <glyph glyph-name="Thorn" unicode="&#xde;" horiz-adv-x="1314" 
d="M459 954q-12 0 -13 -10l-79 -446q0 -10 8 -11h465q80 0 156 72t94 162q14 90 -36 162t-130 71h-465zM350 1442h174q8 0 8 -10l-51 -293q-4 -10 8 -11h465q166 0 260 -120t66 -287q-33 -168 -169 -288t-302 -120h-465q-10 0 -10 -10l-53 -293q0 -10 -13 -10h-174
q-8 0 -8 10l252 1422q0 10 12 10z" />
    <glyph glyph-name="germandbls" unicode="&#xdf;" horiz-adv-x="1183" 
d="M643 823h37q98 1 180 59t103 175q23 117 -49 174t-196 57q-122 0 -194 -76t-88 -168l-182 -1034q0 -10 -12 -10h-174q-8 0 -9 10l183 1034q31 168 169 293q139 125 347 125t314 -113q105 -114 73 -292q-16 -97 -86 -183t-166 -129q-12 -8 -4 -14q77 -23 141 -117t43 -208
q-76 -426 -565 -426h-59q-12 0 -9 10l27 151q0 10 12 11h60q299 0 342 254q20 114 -55 180t-175 65h-37q-10 0 -10 11l27 151q4 10 12 10z" />
    <glyph glyph-name="agrave" unicode="&#xe0;" horiz-adv-x="1183" 
d="M887 1206h-117q-14 0 -18 15l-113 206q-4 14 14 15h178q16 0 17 -15l53 -206q4 -15 -14 -15zM846 465h-287q-258 -12 -283 -158q-12 -63 31 -108t156 -45q170 0 267 80t120 192l4 29q4 10 -8 10zM586 618h229q47 0 61 14t19 50q20 63 -17 131t-212 70q-125 1 -197 -51
t-86 -136q0 -10 -12 -10h-176q-8 0 -9 10q32 172 178 266t346 95t306 -97t74 -282l-119 -668q-1 -10 -13 -10h-153q-4 0 -8 10l-6 84q-1 6 -7 8t-8 -2q-51 -43 -150 -82t-192 -38q-201 0 -290 89t-63 233t156 230t349 86z" />
    <glyph glyph-name="aacute" unicode="&#xe1;" horiz-adv-x="1183" 
d="M727 1206h-117q-16 0 -6 15l123 206q10 14 25 15h178q16 0 6 -15l-182 -206q-15 -15 -27 -15zM846 465h-287q-258 -12 -283 -158q-12 -63 31 -108t156 -45q170 0 267 80t120 192l4 29q4 10 -8 10zM586 618h229q47 0 61 14t19 50q20 63 -17 131t-212 70q-125 1 -197 -51
t-86 -136q0 -10 -12 -10h-176q-8 0 -9 10q32 172 178 266t346 95t306 -97t74 -282l-119 -668q-1 -10 -13 -10h-153q-4 0 -8 10l-6 84q-1 6 -7 8t-8 -2q-51 -43 -150 -82t-192 -38q-201 0 -290 89t-63 233t156 230t349 86z" />
    <glyph glyph-name="acircumflex" unicode="&#xe2;" horiz-adv-x="1183" 
d="M975 1206h-119q-8 0 -14 8l-45 84q-8 18 -23 0l-74 -84q-6 -8 -18 -8h-119q-16 0 -6 15l127 213q6 8 12 8h230q10 0 12 -8l51 -213q4 -15 -14 -15zM846 465h-287q-258 -12 -283 -158q-12 -63 31 -108t156 -45q170 0 267 80t120 192l4 29q4 10 -8 10zM586 618h229
q47 0 61 14t19 50q20 63 -17 131t-212 70q-125 1 -197 -51t-86 -136q0 -10 -12 -10h-176q-8 0 -9 10q32 172 178 266t346 95t306 -97t74 -282l-119 -668q-1 -10 -13 -10h-153q-4 0 -8 10l-6 84q-1 6 -7 8t-8 -2q-51 -43 -150 -82t-192 -38q-201 0 -290 89t-63 233t156 230
t349 86z" />
    <glyph glyph-name="atilde" unicode="&#xe3;" horiz-adv-x="1183" 
d="M977 1442h123q8 0 8 -10l-10 -50q-12 -66 -72 -120t-168 -54q-60 0 -122 47t-76 47q-68 2 -82 -72q-4 -20 -15 -22h-123q-8 1 -8 11l8 47q14 68 74 122t152 54q93 0 176 -71q27 -23 40 -23q49 2 63 27q13 25 17 46t15 21zM846 465h-287q-258 -12 -283 -158
q-12 -63 31 -108t156 -45q170 0 267 80t120 192l4 29q4 10 -8 10zM586 618h229q47 0 61 14t19 50q20 63 -17 131t-212 70q-125 1 -197 -51t-86 -136q0 -10 -12 -10h-176q-8 0 -9 10q32 172 178 266t346 95t306 -97t74 -282l-119 -668q-1 -10 -13 -10h-153q-4 0 -8 10l-6 84
q-1 6 -7 8t-8 -2q-51 -43 -150 -82t-192 -38q-201 0 -290 89t-63 233t156 230t349 86z" />
    <glyph glyph-name="adieresis" unicode="&#xe4;" horiz-adv-x="1183" 
d="M932 1208q-8 0 -8 11l39 213q0 10 12 10h215q8 0 8 -10l-39 -213q0 -10 -12 -11h-215zM432 1208q-8 0 -8 11l39 213q0 10 12 10h215q8 0 8 -10l-39 -213q0 -10 -12 -11h-215zM846 465h-287q-258 -12 -283 -158q-12 -63 31 -108t156 -45q170 0 267 80t120 192l4 29
q4 10 -8 10zM586 618h229q47 0 61 14t19 50q20 63 -17 131t-212 70q-125 1 -197 -51t-86 -136q0 -10 -12 -10h-176q-8 0 -9 10q32 172 178 266t346 95t306 -97t74 -282l-119 -668q-1 -10 -13 -10h-153q-4 0 -8 10l-6 84q-1 6 -7 8t-8 -2q-51 -43 -150 -82t-192 -38
q-201 0 -290 89t-63 233t156 230t349 86z" />
    <glyph glyph-name="aring" unicode="&#xe5;" horiz-adv-x="1183" 
d="M883 1280q6 39 -16 66q-23 26 -61 26t-70 -26t-39 -66q-7 -39 16 -66q23 -26 61 -26t70 26q31 26 39 66zM758 1102q-74 0 -117 52t-29 126q12 74 74 127t135 53q74 0 118 -53t31 -127q-14 -74 -76 -126t-136 -52zM846 465h-287q-258 -12 -283 -158q-12 -63 31 -108
t156 -45q170 0 267 80t120 192l4 29q4 10 -8 10zM586 618h229q47 0 61 14t19 50q20 63 -17 131t-212 70q-125 1 -197 -51t-86 -136q0 -10 -12 -10h-176q-8 0 -9 10q32 172 178 266t346 95t306 -97t74 -282l-119 -668q-1 -10 -13 -10h-153q-4 0 -8 10l-6 84q-1 6 -7 8t-8 -2
q-51 -43 -150 -82t-192 -38q-201 0 -290 89t-63 233t156 230t349 86z" />
    <glyph glyph-name="ae" unicode="&#xe6;" horiz-adv-x="1951" 
d="M1418 883q-138 0 -232 -91t-109 -180q-4 -10 8 -10h557q9 0 13 10q18 102 -41 186q-58 84 -196 85zM846 465h-287q-258 -12 -283 -158q-12 -63 31 -108t156 -45q170 0 267 80t120 192l4 29q4 10 -8 10zM1059 449q-12 0 -12 -11q-19 -116 45 -200t194 -84q176 0 277 143
q6 10 16 10h193q10 0 8 -10q-68 -150 -208 -234t-317 -83q-256 0 -358 182q-8 16 -25 0q-193 -182 -428 -182q-200 0 -294 90t-68 233t154 229q129 86 342 86h108q162 0 183 18t26 46q20 63 -17 131t-212 70q-125 1 -197 -51t-86 -136q0 -10 -12 -10h-176q-8 0 -9 10
q32 172 178 266t332 95q254 0 353 -133q6 -12 18 -2q159 135 387 135q228 1 334 -147t63 -392q-13 -69 -28 -69h-764z" />
    <glyph glyph-name="ccedilla" unicode="&#xe7;" horiz-adv-x="1161" 
d="M1143 686h-182q-10 0 -11 10q-39 186 -250 187q-143 1 -244 -101t-130 -264q-30 -162 36 -263t209 -101q215 0 316 186q6 10 14 10h182q14 0 9 -10q-129 -297 -428 -350l-129 -82q-4 -2 -5 -9q0 -7 9 -8q61 -1 104 -39t31 -109t-77 -120t-155 -49t-130 49t-25 117
q0 10 10 10h68q10 0 10 -10q-7 -33 15 -61q22 -27 66 -27t76 26t40 71q7 44 -23 68q-31 23 -66 23t-39 6l-14 17q-12 16 4 26l113 76q4 2 4 8t-8 7h-8q-233 0 -340 148q-105 148 -63 392t202 390t397 147q193 0 303 -95t121 -266q0 -10 -12 -10z" />
    <glyph glyph-name="egrave" unicode="&#xe8;" horiz-adv-x="1165" 
d="M891 1206h-117q-14 0 -18 15l-113 206q-4 14 14 15h179q16 0 16 -15l53 -206q4 -15 -14 -15zM674 883q-138 0 -232 -91t-108 -180q-4 -10 8 -10h557q8 0 12 10q18 102 -41 186t-196 85zM315 449q-12 0 -12 -11q-19 -116 45 -200t195 -84q186 0 286 143q6 10 17 10h182
q10 0 8 -10q-68 -150 -208 -234t-316 -83q-227 0 -336 148q-110 148 -66 392t200 390t392 146t342 -146q106 -148 64 -392q-13 -69 -29 -69h-764z" />
    <glyph glyph-name="eacute" unicode="&#xe9;" horiz-adv-x="1165" 
d="M813 1206h-117q-16 0 -6 15l123 206q10 14 25 15h178q16 0 6 -15l-182 -206q-15 -15 -27 -15zM674 883q-138 0 -232 -91t-108 -180q-4 -10 8 -10h557q8 0 12 10q18 102 -41 186t-196 85zM315 449q-12 0 -12 -11q-19 -116 45 -200t195 -84q186 0 286 143q6 10 17 10h182
q10 0 8 -10q-68 -150 -208 -234t-316 -83q-227 0 -336 148q-110 148 -66 392t200 390t392 146t342 -146q106 -148 64 -392q-13 -69 -29 -69h-764z" />
    <glyph glyph-name="ecircumflex" unicode="&#xea;" horiz-adv-x="1165" 
d="M979 1206h-119q-8 0 -14 8l-45 84q-8 18 -23 0l-73 -84q-6 -8 -19 -8h-119q-16 0 -6 15l127 213q6 8 12 8h230q10 0 12 -8l51 -213q4 -15 -14 -15zM674 883q-138 0 -232 -91t-108 -180q-4 -10 8 -10h557q8 0 12 10q18 102 -41 186t-196 85zM315 449q-12 0 -12 -11
q-19 -116 45 -200t195 -84q186 0 286 143q6 10 17 10h182q10 0 8 -10q-68 -150 -208 -234t-316 -83q-227 0 -336 148q-110 148 -66 392t200 390t392 146t342 -146q106 -148 64 -392q-13 -69 -29 -69h-764z" />
    <glyph glyph-name="edieresis" unicode="&#xeb;" horiz-adv-x="1165" 
d="M895 1208q-8 0 -8 11l39 213q0 10 12 10h215q8 0 8 -10l-39 -213q0 -10 -12 -11h-215zM395 1208q-8 0 -8 11l39 213q0 10 12 10h215q9 0 9 -10l-39 -213q0 -10 -13 -11h-215zM674 883q-138 0 -232 -91t-108 -180q-4 -10 8 -10h557q8 0 12 10q18 102 -41 186t-196 85z
M315 449q-12 0 -12 -11q-19 -116 45 -200t195 -84q186 0 286 143q6 10 17 10h182q10 0 8 -10q-68 -150 -208 -234t-316 -83q-227 0 -336 148q-110 148 -66 392t200 390t392 146t342 -146q106 -148 64 -392q-13 -69 -29 -69h-764z" />
    <glyph glyph-name="igrave" unicode="&#xec;" horiz-adv-x="536" 
d="M465 1206h-117q-14 0 -18 15l-113 206q-4 14 14 15h179q16 0 16 -15l53 -206q4 -15 -14 -15zM266 0h-174q-8 0 -8 10l180 1016q0 10 10 10h175q10 0 10 -10l-180 -1016q0 -10 -13 -10z" />
    <glyph glyph-name="iacute" unicode="&#xed;" horiz-adv-x="536" 
d="M432 1206h-117q-16 0 -6 15l123 206q10 14 25 15h178q16 0 6 -15l-182 -206q-15 -15 -27 -15zM266 0h-174q-8 0 -8 10l180 1016q0 10 10 10h175q10 0 10 -10l-180 -1016q0 -10 -13 -10z" />
    <glyph glyph-name="icircumflex" unicode="&#xee;" horiz-adv-x="536" 
d="M604 1206h-119q-8 0 -14 8l-45 84q-8 18 -23 0l-73 -84q-6 -8 -19 -8h-118q-16 0 -7 15l127 213q6 8 13 8h229q10 0 12 -8l51 -213q4 -15 -14 -15zM279 0h-175q-8 0 -8 10l180 1016q0 10 11 10h174q10 0 10 -10l-180 -1016q0 -10 -12 -10z" />
    <glyph glyph-name="idieresis" unicode="&#xef;" horiz-adv-x="536" 
d="M530 1208q-8 0 -8 11l39 213q0 10 12 10h215q9 0 9 -10l-39 -213q0 -10 -13 -11h-215zM31 1208q-8 0 -8 11l38 213q0 10 13 10h215q8 0 8 -10l-39 -213q0 -10 -12 -11h-215zM266 0h-174q-8 0 -8 10l180 1016q0 10 10 10h175q10 0 10 -10l-180 -1016q0 -10 -13 -10z" />
    <glyph glyph-name="eth" unicode="&#xf0;" horiz-adv-x="1245" 
d="M560 154q144 0 246 101q101 101 132 263q29 162 -38 263t-211 101q-145 0 -247 -100q-102 -102 -131 -264t38 -263t211 -101zM676 1442h180q10 0 12 -10l19 -52q2 -12 14 -4l129 64q8 6 17 -2l32 -101q4 -4 -6 -14l-127 -61q-8 -2 -8 -13l164 -407q59 -145 31 -324
q-43 -244 -206 -391t-400 -147t-345 147t-65 391t204 391t398 148q41 0 61 -4t23 2q4 6 2 12l-39 94q-4 8 -16 4l-142 -67q-12 -8 -12 4l-37 98q-4 10 6 14l140 68q10 6 8 16l-49 134q-2 10 12 10z" />
    <glyph glyph-name="ntilde" unicode="&#xf1;" horiz-adv-x="1193" 
d="M983 1442h123q8 0 8 -10l-10 -50q-12 -66 -72 -120t-168 -54q-60 0 -122 47t-76 47q-48 2 -63 -25t-18 -47t-16 -22h-123q-8 1 -8 11l8 47q14 68 74 122t152 54q93 0 176 -71q27 -23 40 -23q49 2 63 27q13 25 17 46t15 21zM268 1036h154q8 0 8 -10l4 -92q4 -20 23 -2
q113 125 291 125q213 0 305 -136t55 -348l-98 -563q-4 -10 -13 -10h-174q-12 0 -8 10l98 563q25 131 -25 221t-182 89q-132 0 -223 -91q-90 -91 -112 -219l-99 -563q-4 -10 -12 -10h-174q-12 0 -8 10l178 1016q4 10 12 10z" />
    <glyph glyph-name="ograve" unicode="&#xf2;" horiz-adv-x="1202" 
d="M868 1206h-116q-14 0 -19 15l-112 206q-4 14 14 15h178q16 0 16 -15l54 -206q3 -15 -15 -15zM556 154q144 0 246 101q101 101 132 263q29 162 -38 263t-211 101q-145 0 -247 -100q-102 -102 -131 -264t38 -263t211 -101zM523 -20q-237 0 -345 147t-65 391t203 391
q161 147 398 147t347 -146q110 -148 67 -392q-44 -244 -206 -391t-399 -147z" />
    <glyph glyph-name="oacute" unicode="&#xf3;" horiz-adv-x="1202" 
d="M791 1206h-117q-16 0 -6 15l123 206q10 14 24 15h178q16 0 6 -15l-182 -206q-14 -15 -26 -15zM556 154q144 0 246 101q101 101 132 263q29 162 -38 263t-211 101q-145 0 -247 -100q-102 -102 -131 -264t38 -263t211 -101zM523 -20q-237 0 -345 147t-65 391t203 391
q161 147 398 147t347 -146q110 -148 67 -392q-44 -244 -206 -391t-399 -147z" />
    <glyph glyph-name="ocircumflex" unicode="&#xf4;" horiz-adv-x="1202" 
d="M1004 1206h-119q-8 0 -15 8l-45 84q-8 18 -22 0l-74 -84q-6 -8 -18 -8h-119q-16 0 -6 15l127 213q6 8 12 8h229q10 0 13 -8l51 -213q4 -15 -14 -15zM556 154q144 0 246 101q101 101 132 263q29 162 -38 263t-211 101q-145 0 -247 -100q-102 -102 -131 -264t38 -263
t211 -101zM523 -20q-237 0 -345 147t-65 391t203 391q161 147 398 147t347 -146q110 -148 67 -392q-44 -244 -206 -391t-399 -147z" />
    <glyph glyph-name="otilde" unicode="&#xf5;" horiz-adv-x="1202" 
d="M979 1442h123q8 0 8 -10l-10 -50q-12 -66 -72 -120t-168 -54q-60 0 -122 47t-76 47q-69 2 -81 -72q-3 -20 -16 -22h-123q-8 1 -8 11l8 47q14 68 74 122t152 54q93 0 176 -71q27 -23 40 -23q49 2 63 27q13 25 17 46t15 21zM556 154q144 0 246 101q101 101 132 263
q29 162 -38 263t-211 101q-145 0 -247 -100q-102 -102 -131 -264t38 -263t211 -101zM523 -20q-237 0 -345 147t-65 391t203 391q161 147 398 147t347 -146q110 -148 67 -392q-44 -244 -206 -391t-399 -147z" />
    <glyph glyph-name="odieresis" unicode="&#xf6;" horiz-adv-x="1202" 
d="M934 1208q-8 0 -8 11l39 213q0 10 12 10h215q8 0 8 -10l-39 -213q0 -10 -12 -11h-215zM434 1208q-8 0 -8 11l39 213q0 10 12 10h215q8 0 8 -10l-38 -213q0 -10 -13 -11h-215zM556 154q144 0 246 101q101 101 132 263q29 162 -38 263t-211 101q-145 0 -247 -100
q-102 -102 -131 -264t38 -263t211 -101zM523 -20q-237 0 -345 147t-65 391t203 391q161 147 398 147t347 -146q110 -148 67 -392q-44 -244 -206 -391t-399 -147z" />
    <glyph glyph-name="divide" unicode="&#xf7;" horiz-adv-x="1187" 
d="M1094 426h-1016q-12 0 -8 10l28 164q0 10 13 10h1015q8 0 9 -10l-29 -164q-4 -10 -12 -10zM774 766h-246q-12 0 -8 10l45 250q0 10 10 10h246q10 0 10 -10l-45 -250q-4 -10 -12 -10zM639 0h-246q-8 0 -8 10l45 250q0 10 10 10h246q10 0 10 -10l-45 -250q0 -10 -12 -10z
" />
    <glyph glyph-name="oslash" unicode="&#xf8;" horiz-adv-x="1232" 
d="M926 692q-8 0 -13 -4l-532 -455q-12 -12 -2 -22q63 -57 192 -57t231 101q101 101 132 263q16 94 0 168q0 6 -8 6zM307 518q-18 -94 -2 -170q2 -14 19 -4l534 455q14 12 4 22q-72 61 -196 61t-228 -100q-102 -102 -131 -264zM542 -20q-218 0 -323 100q-8 8 -18 0l-88 -76
q-10 -8 -15 0l-67 80q-4 8 4 14l96 82q8 8 4 19q-55 131 -22 319q43 244 203 391q161 147 399 148q190 0 305 -105q10 -8 18 0l92 80q8 8 15 0l65 -80q6 -6 -2 -14l-98 -86q-10 -8 -4 -23q51 -137 22 -311q-44 -244 -206 -391t-380 -147z" />
    <glyph glyph-name="ugrave" unicode="&#xf9;" horiz-adv-x="1185" 
d="M819 1206h-117q-14 0 -18 15l-113 206q-4 14 15 15h178q16 0 16 -15l54 -206q3 -15 -15 -15zM975 0h-154q-8 0 -8 10l-6 92q0 8 -8 9q-8 0 -13 -7q-40 -47 -120 -86t-170 -38q-444 0 -363 483l100 563q4 10 13 10h174q12 0 8 -10l-100 -563q-23 -131 27 -220
q51 -89 183 -89t222 91t110 218l101 563q4 10 12 10h174q12 0 8 -10l-178 -1016q-4 -10 -12 -10z" />
    <glyph glyph-name="uacute" unicode="&#xfa;" horiz-adv-x="1185" 
d="M721 1206h-117q-16 0 -6 15l123 206q10 14 24 15h179q16 0 6 -15l-182 -206q-15 -15 -27 -15zM975 0h-154q-8 0 -8 10l-6 92q0 8 -8 9q-8 0 -13 -7q-40 -47 -120 -86t-170 -38q-444 0 -363 483l100 563q4 10 13 10h174q12 0 8 -10l-100 -563q-23 -131 27 -220
q51 -89 183 -89t222 91t110 218l101 563q4 10 12 10h174q12 0 8 -10l-178 -1016q-4 -10 -12 -10z" />
    <glyph glyph-name="ucircumflex" unicode="&#xfb;" horiz-adv-x="1185" 
d="M928 1206h-119q-8 0 -14 8l-45 84q-8 18 -23 0l-74 -84q-6 -8 -18 -8h-119q-16 0 -6 15l127 213q6 8 12 8h230q10 0 12 -8l51 -213q4 -15 -14 -15zM975 0h-154q-8 0 -8 10l-6 92q0 8 -8 9q-8 0 -13 -7q-40 -47 -120 -86t-170 -38q-444 0 -363 483l100 563q4 10 13 10h174
q12 0 8 -10l-100 -563q-23 -131 27 -220q51 -89 183 -89t222 91t110 218l101 563q4 10 12 10h174q12 0 8 -10l-178 -1016q-4 -10 -12 -10z" />
    <glyph glyph-name="udieresis" unicode="&#xfc;" horiz-adv-x="1185" 
d="M864 1208q-8 0 -8 11l39 213q0 10 12 10h215q8 0 8 -10l-38 -213q0 -10 -13 -11h-215zM365 1208q-8 0 -9 11l39 213q0 10 13 10h215q8 0 8 -10l-39 -213q0 -10 -12 -11h-215zM975 0h-154q-8 0 -8 10l-6 92q0 8 -8 9q-8 0 -13 -7q-40 -47 -120 -86t-170 -38
q-444 0 -363 483l100 563q4 10 13 10h174q12 0 8 -10l-100 -563q-23 -131 27 -220q51 -89 183 -89t222 91t110 218l101 563q4 10 12 10h174q12 0 8 -10l-178 -1016q-4 -10 -12 -10z" />
    <glyph glyph-name="yacute" unicode="&#xfd;" horiz-adv-x="1140" 
d="M729 1206h-117q-16 0 -6 15l123 206q10 14 25 15h178q16 0 6 -15l-182 -206q-15 -15 -27 -15zM248 -231q88 0 128 51t25 135l-176 1071q0 10 15 10h186q8 0 8 -10l123 -823q2 -8 9 -8t12 8l415 823q6 10 13 10h186q14 0 8 -10l-620 -1204q-70 -129 -139 -178t-189 -50
h-264q-12 0 -8 11l24 153q4 10 12 11h232z" />
    <glyph glyph-name="thorn" unicode="&#xfe;" horiz-adv-x="1284" 
d="M600 154q142 0 243 101t132 263q29 162 -38 263t-208 101t-236 -100t-125 -264t30 -264t202 -100zM195 -406h-175q-8 0 -8 11l322 1827q4 10 12 10h174q12 0 8 -10l-82 -467q-2 -11 4 -13t17 6q147 98 289 99q225 0 340 -150q114 -149 72 -391t-204 -389t-399 -147
q-69 0 -141 26t-113 76q-12 18 -20 0l-84 -477q-4 -11 -12 -11z" />
    <glyph glyph-name="ydieresis" unicode="&#xff;" horiz-adv-x="1140" 
d="M872 1208q-8 0 -8 11l39 213q0 10 12 10h215q9 0 9 -10l-39 -213q0 -10 -13 -11h-215zM373 1208q-8 0 -8 11l38 213q0 10 13 10h215q8 0 8 -10l-39 -213q0 -10 -12 -11h-215zM248 -231q88 0 128 51t25 135l-176 1071q0 10 15 10h186q8 0 8 -10l123 -823q2 -8 9 -8t12 8
l415 823q6 10 13 10h186q14 0 8 -10l-620 -1204q-70 -129 -139 -178t-189 -50h-264q-12 0 -8 11l24 153q4 10 12 11h232z" />
    <glyph glyph-name="Amacron" unicode="&#x100;" horiz-adv-x="1437" 
d="M1153 1604h-504q-6 0 -6 10l23 119q0 10 8 10h504q10 0 10 -10l-23 -119q0 -10 -12 -10zM477 477h486q12 0 8 10l-107 750q0 13 -13 8q-5 -2 -7 -8l-375 -750q-4 -10 8 -10zM766 1442h252q6 0 10 -10l225 -1422q2 -4 -2 -7t-10 -3h-192q-4 0 -9 10l-41 293q-2 10 -14 10
h-594q-8 0 -12 -10l-150 -293q-4 -10 -12 -10h-190q-12 0 -11 10l736 1422q4 10 14 10z" />
    <glyph glyph-name="amacron" unicode="&#x101;" horiz-adv-x="1183" 
d="M1008 1206h-504q-6 0 -6 11l22 118q0 10 8 11h504q10 0 10 -11l-22 -118q0 -11 -12 -11zM846 465h-287q-258 -12 -283 -158q-12 -63 31 -108t156 -45q170 0 267 80t120 192l4 29q4 10 -8 10zM586 618h229q47 0 61 14t19 50q20 63 -17 131t-212 70q-125 1 -197 -51
t-86 -136q0 -10 -12 -10h-176q-8 0 -9 10q32 172 178 266t346 95t306 -97t74 -282l-119 -668q-1 -10 -13 -10h-153q-4 0 -8 10l-6 84q-1 6 -7 8t-8 -2q-51 -43 -150 -82t-192 -38q-201 0 -290 89t-63 233t156 230t349 86z" />
    <glyph glyph-name="Abreve" unicode="&#x102;" horiz-adv-x="1437" 
d="M1044 1839h130q8 0 8 -10q-20 -117 -100 -171t-175 -54q-94 0 -153 54t-39 171q0 10 12 10h127q8 0 8 -10q-6 -39 17 -59t55 -19q84 0 98 78q0 10 12 10zM477 477h486q12 0 8 10l-107 750q0 13 -13 8q-5 -2 -7 -8l-375 -750q-4 -10 8 -10zM766 1442h252q6 0 10 -10
l225 -1422q2 -4 -2 -7t-10 -3h-192q-4 0 -9 10l-41 293q-2 10 -14 10h-594q-8 0 -12 -10l-150 -293q-4 -10 -12 -10h-190q-12 0 -11 10l736 1422q4 10 14 10z" />
    <glyph glyph-name="abreve" unicode="&#x103;" horiz-adv-x="1232" 
d="M848 1442h129q8 0 8 -10q-20 -117 -100 -171q-80 -55 -174 -55q-93 0 -153 54t-40 172q0 10 12 10h127q8 0 9 -10q-6 -39 16 -59q23 -19 55 -19q84 0 99 78q0 10 12 10zM827 465h-286q-258 -12 -283 -158q-12 -63 31 -108t155 -45q170 0 268 80q96 81 119 192l5 29
q4 10 -9 10zM567 618h230q47 0 60 14t21 48q18 69 -19 135t-212 68q-125 1 -197 -51t-85 -136q0 -10 -13 -10h-176q-8 0 -8 10q31 172 177 266t347 95t306 -97t73 -282l-119 -668q0 -10 -12 -10h-154q-4 0 -8 10l-6 84q0 6 -5 8t-9 -2q-50 -43 -150 -82t-192 -38
q-201 0 -290 89q-90 89 -64 233t156 230t349 86z" />
    <glyph glyph-name="Aogonek" unicode="&#x104;" horiz-adv-x="1437" 
d="M494 477h485q14 0 10 10l-106 750q1 13 -9 9q-10 -3 -12 -9l-375 -750q-3 -10 7 -10zM782 1442h252q10 0 10 -10l228 -1422q2 -4 -2 -7t-10 -3h-60q-62 0 -114 -38t-62 -94t25 -88t102 -32h39q8 0 8 -10l-24 -133q0 -10 -13 -11h-59q-123 0 -188 54q-64 54 -52 137
q12 82 66 135t121 80q12 4 10 14l-43 289q0 10 -12 10h-594q-8 0 -15 -10l-147 -293q-4 -10 -12 -10h-191q-16 0 -10 10l733 1422q6 10 14 10z" />
    <glyph glyph-name="aogonek" unicode="&#x105;" horiz-adv-x="1183" 
d="M846 465h-287q-258 -12 -283 -158q-12 -63 31 -108t156 -45q170 0 267 80t120 192l4 29q4 10 -8 10zM958 0h-34q-58 0 -106 -38t-58 -94t24 -88t103 -32h28q8 0 9 -10l-25 -133q0 -10 -10 -11h-49q-123 0 -189 54t-51 149q20 131 186 197q10 4 11 16l-6 84q-1 6 -7 8
t-8 -2q-51 -43 -150 -82t-192 -38q-201 0 -290 89t-63 233t156 230t349 86h229q47 0 61 14t19 50q20 63 -17 131t-212 70q-125 1 -197 -51t-86 -136q0 -10 -12 -10h-176q-8 0 -9 10q32 172 178 266t346 95t306 -97t74 -282l-119 -668q-1 -10 -13 -10z" />
    <glyph glyph-name="Cacute" unicode="&#x106;" horiz-adv-x="1439" 
d="M979 1604h-117q-16 0 -6 14l123 207q10 14 25 14h178q16 0 6 -14l-182 -207q-15 -14 -27 -14zM1337 451q10 0 9 -11q-22 -125 -182 -279q-79 -77 -209 -129t-279 -52q-326 0 -452 200t-66 536q60 338 268 542q209 204 510 204q127 0 225 -37q99 -37 153 -92t88 -121
q59 -114 44 -211q-2 -10 -12 -10h-181q-12 0 -12 10q-53 287 -336 287q-213 0 -353 -150t-187 -417q-47 -268 41 -418t301 -149q163 0 273 88t161 198q6 10 16 11h180z" />
    <glyph glyph-name="cacute" unicode="&#x107;" horiz-adv-x="1161" 
d="M750 1206h-117q-16 0 -6 15l123 206q10 14 24 15h178q16 0 6 -15l-182 -206q-14 -15 -26 -15zM1124 686h-182q-6 0 -10 10q-35 186 -250 187q-142 1 -244 -101t-131 -264t37 -263t209 -101q215 0 315 186q6 10 15 10h182q12 0 8 -10q-74 -172 -216 -266t-335 -94
q-238 0 -346 147t-64 392t203 391q160 146 398 147q193 0 303 -95t121 -266q-1 -10 -13 -10z" />
    <glyph glyph-name="Ccircumflex" unicode="&#x108;" horiz-adv-x="1439" 
d="M1186 1604h-119q-8 0 -14 8l-45 84q-8 18 -23 0l-74 -84q-6 -8 -18 -8h-119q-16 0 -6 14l127 213q6 8 12 8h230q10 0 12 -8l51 -213q4 -14 -14 -14zM1337 451q10 0 9 -11q-22 -125 -182 -279q-79 -77 -209 -129t-279 -52q-326 0 -452 200t-66 536q60 338 268 542
q209 204 510 204q127 0 225 -37q99 -37 153 -92t88 -121q59 -114 44 -211q-2 -10 -12 -10h-181q-12 0 -12 10q-53 287 -336 287q-213 0 -353 -150t-187 -417q-47 -268 41 -418t301 -149q163 0 273 88t161 198q6 10 16 11h180z" />
    <glyph glyph-name="ccircumflex" unicode="&#x109;" horiz-adv-x="1161" 
d="M936 1206h-119q-8 0 -14 8l-45 84q-8 18 -23 0l-73 -84q-6 -8 -19 -8h-119q-16 0 -6 15l127 213q6 8 12 8h230q10 0 12 -8l51 -213q4 -15 -14 -15zM1124 686h-182q-6 0 -10 10q-35 186 -250 187q-142 1 -244 -101t-131 -264t37 -263t209 -101q215 0 315 186q6 10 15 10
h182q12 0 8 -10q-74 -172 -216 -266t-335 -94q-238 0 -346 147t-64 392t203 391q160 146 398 147q193 0 303 -95t121 -266q-1 -10 -13 -10z" />
    <glyph glyph-name="Cdotaccent" unicode="&#x10a;" horiz-adv-x="1439" 
d="M1096 1604h-265q-8 0 -8 10l47 270q4 10 13 10h264q12 0 8 -10l-47 -270q0 -10 -12 -10zM1337 451q10 0 9 -11q-22 -125 -182 -279q-79 -77 -209 -129t-279 -52q-326 0 -452 200t-66 536q60 338 268 542q209 204 510 204q127 0 225 -37q99 -37 153 -92t88 -121
q59 -114 44 -211q-2 -10 -12 -10h-181q-12 0 -12 10q-53 287 -336 287q-213 0 -353 -150t-187 -417q-47 -268 41 -418t301 -149q163 0 273 88t161 198q6 10 16 11h180z" />
    <glyph glyph-name="cdotaccent" unicode="&#x10b;" horiz-adv-x="1161" 
d="M877 1151h-265q-12 0 -8 10l47 271q0 10 13 10h264q8 0 8 -10l-47 -271q-4 -10 -12 -10zM1124 686h-182q-6 0 -10 10q-35 186 -250 187q-142 1 -244 -101t-131 -264t37 -263t209 -101q215 0 315 186q6 10 15 10h182q12 0 8 -10q-74 -172 -216 -266t-335 -94
q-238 0 -346 147t-64 392t203 391q160 146 398 147q193 0 303 -95t121 -266q-1 -10 -13 -10z" />
    <glyph glyph-name="Ccaron" unicode="&#x10c;" horiz-adv-x="1439" 
d="M1090 1847h116q16 0 8 -14l-124 -213q-4 -8 -17 -8h-227q-8 0 -10 8l-54 213q-4 14 15 14h116q12 0 17 -8l47 -84q8 -14 22 0l72 84q9 8 19 8zM1337 451q10 0 9 -11q-22 -125 -182 -279q-79 -77 -209 -129t-279 -52q-326 0 -452 200t-66 536q60 338 268 542
q209 204 510 204q127 0 225 -37q99 -37 153 -92t88 -121q59 -114 44 -211q-2 -10 -12 -10h-181q-12 0 -12 10q-53 287 -336 287q-213 0 -353 -150t-187 -417q-47 -268 41 -418t301 -149q163 0 273 88t161 198q6 10 16 11h180z" />
    <glyph glyph-name="ccaron" unicode="&#x10d;" horiz-adv-x="1161" 
d="M856 1442h117q16 0 8 -15l-125 -213q-4 -8 -16 -8h-228q-8 0 -10 8l-53 213q-4 14 14 15h117q12 0 16 -8l47 -84q8 -14 23 0l72 84q8 8 18 8zM1124 686h-182q-6 0 -10 10q-35 186 -250 187q-142 1 -244 -101t-131 -264t37 -263t209 -101q215 0 315 186q6 10 15 10h182
q12 0 8 -10q-74 -172 -216 -266t-335 -94q-238 0 -346 147t-64 392t203 391q160 146 398 147q193 0 303 -95t121 -266q-1 -10 -13 -10z" />
    <glyph glyph-name="Dcaron" unicode="&#x10e;" horiz-adv-x="1449" 
d="M973 1847h117q16 0 8 -14l-125 -213q-4 -8 -17 -8h-227q-8 0 -10 8l-53 213q-4 14 14 14h117q12 0 16 -8l47 -84q8 -14 23 0l71 84q9 8 19 8zM829 1268h-333q-12 0 -13 -11l-190 -1073q0 -10 8 -10h334q207 0 346 137t185 395t-43 410t-294 152zM332 1442h528
q311 -2 440 -202t71 -534t-255 -520t-512 -186h-528q-8 0 -8 10l251 1422q0 10 13 10z" />
    <glyph glyph-name="dcaron" unicode="&#x10f;" horiz-adv-x="1406" 
d="M422 154q141 0 236 100t126 264q29 164 -31 264q-59 100 -201 100t-244 -100q-102 -102 -130 -264q-29 -162 37 -263t207 -101zM877 0h-154q-8 0 -8 10l-6 82q-2 16 -21 4q-51 -43 -145 -80t-168 -36q-223 0 -329 148q-105 148 -62 390q41 242 199 390q159 148 382 149
q94 0 171 -42t102 -75q6 -8 12 -6t8 10l86 488q4 10 12 10h174q12 0 9 -10l-250 -1422q-4 -10 -12 -10zM1270 1280h-45q-8 0 -8 10l24 142q4 10 12 10h140q12 0 8 -10l-25 -146q-12 -70 -61 -114t-117 -44q-8 0 -8 11l10 59q4 10 18 10t34 16t28 46q0 10 -10 10z" />
    <glyph glyph-name="Dcroat" unicode="&#x110;" horiz-adv-x="1476" 
d="M723 616h-315q-12 0 -13 -10l-76 -422q0 -10 9 -10h334q207 0 346 137t185 395t-43 410t-294 152h-334q-12 0 -12 -11l-82 -456q0 -10 10 -10h316q8 0 8 -11l-29 -153q0 -11 -10 -11zM193 616h-111q-10 0 -10 11l28 153q0 10 13 11h110q10 0 10 10l113 631q0 10 12 10
h529q311 -2 440 -202t71 -534t-255 -520t-512 -186h-529q-8 0 -8 10l107 596q0 10 -8 10z" />
    <glyph glyph-name="dcroat" unicode="&#x111;" horiz-adv-x="1263" 
d="M535 154q141 0 236 100t126 264q29 164 -31 264t-202 100q-140 0 -242 -100q-102 -102 -131 -264t37 -263t207 -101zM989 0h-153q-8 0 -9 10l-6 84q-4 18 -20 2q-49 -45 -143 -81t-171 -35q-223 0 -328 148t-63 390q41 242 200 390t382 149q94 0 171 -42t101 -75
q6 -8 13 -6q6 2 8 10l35 193q0 10 -9 10h-295q-12 0 -8 10l19 113q4 10 12 10h295q8 0 12 10l25 142q4 10 12 10h174q12 0 8 -10l-24 -142q-4 -10 8 -10h111q12 0 8 -10l-19 -113q-4 -10 -12 -10h-111q-12 0 -12 -10l-199 -1127q-4 -10 -12 -10z" />
    <glyph glyph-name="Emacron" unicode="&#x112;" horiz-adv-x="1294" 
d="M1102 1604h-504q-6 0 -6 10l22 119q0 10 9 10h503q10 0 11 -10l-23 -119q0 -10 -12 -10zM330 1442h985q8 0 8 -10l-29 -154q0 -10 -10 -10h-790q-12 0 -13 -11l-73 -417q-4 -10 8 -11h706q12 0 8 -10l-26 -153q-4 -10 -12 -11h-707q-8 0 -12 -10l-82 -461q0 -10 8 -10
h791q10 0 10 -10l-29 -154q0 -10 -12 -10h-985q-8 0 -8 10l251 1422q0 10 13 10z" />
    <glyph glyph-name="emacron" unicode="&#x113;" horiz-adv-x="1165" 
d="M987 1206h-504q-6 0 -6 11l23 118q0 10 8 11h504q10 0 10 -11l-23 -118q0 -11 -12 -11zM674 883q-138 0 -232 -91t-108 -180q-4 -10 8 -10h557q8 0 12 10q18 102 -41 186t-196 85zM315 449q-12 0 -12 -11q-19 -116 45 -200t195 -84q186 0 286 143q6 10 17 10h182
q10 0 8 -10q-68 -150 -208 -234t-316 -83q-227 0 -336 148q-110 148 -66 392t200 390t392 146t342 -146q106 -148 64 -392q-13 -69 -29 -69h-764z" />
    <glyph glyph-name="Ebreve" unicode="&#x114;" horiz-adv-x="1294" 
d="M1024 1839h129q8 0 8 -10q-20 -117 -100 -171t-174 -54t-154 54q-59 54 -39 171q0 10 13 10h127q8 0 8 -10q-6 -39 16 -59q23 -19 55 -19q84 0 99 78q0 10 12 10zM330 1442h985q8 0 8 -10l-29 -154q0 -10 -10 -10h-790q-12 0 -13 -11l-73 -417q-4 -10 8 -11h706
q12 0 8 -10l-26 -153q-4 -10 -12 -11h-707q-8 0 -12 -10l-82 -461q0 -10 8 -10h791q10 0 10 -10l-29 -154q0 -10 -12 -10h-985q-8 0 -8 10l251 1422q0 10 13 10z" />
    <glyph glyph-name="ebreve" unicode="&#x115;" horiz-adv-x="1165" 
d="M870 1442h129q8 0 9 -10q-20 -117 -100 -171q-80 -55 -175 -55q-94 0 -153 54t-39 172q0 10 12 10h127q8 0 8 -10q-6 -38 17 -58t55 -20q84 0 98 78q0 10 12 10zM674 883q-138 0 -232 -91t-108 -180q-4 -10 8 -10h557q8 0 12 10q18 102 -41 186t-196 85zM315 449
q-12 0 -12 -11q-19 -116 45 -200t195 -84q186 0 286 143q6 10 17 10h182q10 0 8 -10q-68 -150 -208 -234t-316 -83q-227 0 -336 148q-110 148 -66 392t200 390t392 146t342 -146q106 -148 64 -392q-13 -69 -29 -69h-764z" />
    <glyph glyph-name="Edotaccent" unicode="&#x116;" horiz-adv-x="1294" 
d="M963 1604h-265q-8 0 -8 10l47 270q4 10 13 10h264q12 0 8 -10l-47 -270q0 -10 -12 -10zM330 1442h985q8 0 8 -10l-29 -154q0 -10 -10 -10h-790q-12 0 -13 -11l-73 -417q-4 -10 8 -11h706q12 0 8 -10l-26 -153q-4 -10 -12 -11h-707q-8 0 -12 -10l-82 -461q0 -10 8 -10h791
q10 0 10 -10l-29 -154q0 -10 -12 -10h-985q-8 0 -8 10l251 1422q0 10 13 10z" />
    <glyph glyph-name="edotaccent" unicode="&#x117;" horiz-adv-x="1165" 
d="M858 1151h-264q-12 0 -8 10l47 271q0 10 12 10h264q8 0 9 -10l-48 -271q-4 -10 -12 -10zM674 883q-138 0 -232 -91t-108 -180q-4 -10 8 -10h557q8 0 12 10q18 102 -41 186t-196 85zM315 449q-12 0 -12 -11q-19 -116 45 -200t195 -84q186 0 286 143q6 10 17 10h182
q10 0 8 -10q-68 -150 -208 -234t-316 -83q-227 0 -336 148q-110 148 -66 392t200 390t392 146t342 -146q106 -148 64 -392q-13 -69 -29 -69h-764z" />
    <glyph glyph-name="Eogonek" unicode="&#x118;" horiz-adv-x="1294" 
d="M346 1442h985q12 0 8 -10l-26 -154q0 -10 -13 -10h-790q-8 0 -12 -11l-74 -417q0 -10 10 -11h707q8 0 8 -10l-27 -153q-4 -10 -12 -11h-707q-12 0 -12 -10l-82 -461q0 -10 8 -10h791q12 0 8 -10l-26 -154q0 -10 -13 -10h-22q-63 0 -115 -38t-61 -94t25 -88t102 -32h28
q8 0 8 -10l-24 -133q0 -10 -12 -11h-50q-124 0 -188 54t-46 158t136 174q10 4 9 12t-11 8h-764q-8 0 -8 10l250 1422q4 10 12 10z" />
    <glyph glyph-name="eogonek" unicode="&#x119;" horiz-adv-x="1165" 
d="M690 883q-138 0 -231 -91q-94 -91 -109 -180q0 -10 8 -10h557q13 0 13 10q18 102 -41 186t-197 85zM332 449q-8 0 -13 -11q-20 -116 46 -200t196 -84q184 0 285 143q8 10 16 10h182q12 0 9 -10q-57 -125 -176 -213q-11 -8 -63 -41t-70 -48t-44 -49q-25 -34 -30 -73
q-12 -61 22 -93t103 -32h28q8 0 8 -10l-24 -133q0 -10 -10 -11h-49q-121 0 -187 54t-53 149q12 96 88 166q6 4 5 11t-9 8q-33 -2 -62 -2q-228 0 -336 148t-66 392t200 390t392 146t341 -146q106 -148 63 -392q-13 -69 -28 -69h-764z" />
    <glyph glyph-name="Ecaron" unicode="&#x11a;" horiz-adv-x="1294" 
d="M977 1847h117q16 0 8 -14l-125 -213q-4 -8 -16 -8h-228q-8 0 -10 8l-53 213q-4 14 14 14h117q12 0 16 -8l47 -84q8 -14 23 0l71 84q9 8 19 8zM330 1442h985q8 0 8 -10l-29 -154q0 -10 -10 -10h-790q-12 0 -13 -11l-73 -417q-4 -10 8 -11h706q12 0 8 -10l-26 -153
q-4 -10 -12 -11h-707q-8 0 -12 -10l-82 -461q0 -10 8 -10h791q10 0 10 -10l-29 -154q0 -10 -12 -10h-985q-8 0 -8 10l251 1422q0 10 13 10z" />
    <glyph glyph-name="ecaron" unicode="&#x11b;" horiz-adv-x="1165" 
d="M838 1442h116q16 0 9 -15l-125 -213q-4 -8 -17 -8h-227q-8 0 -10 8l-54 213q-4 14 15 15h117q12 0 16 -8l47 -84q8 -14 23 0l71 84q9 8 19 8zM674 883q-138 0 -232 -91t-108 -180q-4 -10 8 -10h557q8 0 12 10q18 102 -41 186t-196 85zM315 449q-12 0 -12 -11
q-19 -116 45 -200t195 -84q186 0 286 143q6 10 17 10h182q10 0 8 -10q-68 -150 -208 -234t-316 -83q-227 0 -336 148q-110 148 -66 392t200 390t392 146t342 -146q106 -148 64 -392q-13 -69 -29 -69h-764z" />
    <glyph glyph-name="Gcircumflex" unicode="&#x11c;" horiz-adv-x="1521" 
d="M1165 1604h-118q-8 0 -15 8l-45 84q-8 18 -22 0l-74 -84q-6 -8 -19 -8h-118q-16 0 -6 14l126 213q6 8 13 8h229q10 0 12 -8l52 -213q3 -14 -15 -14zM1113 164q-7 0 -11 -4q-62 -70 -192 -125t-263 -55q-325 0 -451 200t-67 536q59 338 268 542t510 204q254 0 374 -118
t140 -297q0 -10 -12 -11h-190q-10 0 -11 11q-27 119 -113 180q-87 61 -218 61q-213 0 -354 -149q-140 -150 -187 -418t41 -418t301 -149q442 0 524 471q4 10 -8 10h-422q-12 0 -8 10l27 154q4 10 12 10h616q12 0 8 -10l-139 -789q0 -10 -12 -10h-150q-10 0 -10 12l4 144
q0 8 -7 8z" />
    <glyph glyph-name="gcircumflex" unicode="&#x11d;" horiz-adv-x="1204" 
d="M956 1206h-118q-8 0 -15 8l-45 84q-8 18 -22 0l-74 -84q-6 -8 -18 -8h-119q-16 0 -6 15l127 213q6 8 12 8h229q10 0 13 -8l51 -213q3 -15 -15 -15zM567 154q141 0 237 100q95 100 126 264q28 164 -32 264t-202 100t-242 -100q-101 -102 -130 -264q-30 -162 36 -263
t207 -101zM520 -252q132 0 218 85t106 206l10 55q5 10 -10 10q-6 0 -10 -6q-31 -34 -125 -76t-189 -42q-210 0 -322 150t-70 390t201 388t382 149q75 0 155 -35t117 -80q12 -12 21 2l34 82q6 10 13 10h153q12 0 8 -10l-174 -987q-38 -207 -194 -336t-358 -129t-315 90
q-114 90 -103 215q0 10 10 10h178q6 0 10 -10q6 -47 64 -89t190 -42z" />
    <glyph glyph-name="Gbreve" unicode="&#x11e;" horiz-adv-x="1521" 
d="M1098 1839h129q8 0 8 -10q-20 -117 -100 -171t-174 -54t-154 54q-59 54 -39 171q0 10 12 10h127q8 0 8 -10q-6 -39 17 -59t55 -19q84 0 98 78q1 10 13 10zM1113 164q-7 0 -11 -4q-62 -70 -192 -125t-263 -55q-325 0 -451 200t-67 536q59 338 268 542t510 204
q254 0 374 -118t140 -297q0 -10 -12 -11h-190q-10 0 -11 11q-27 119 -113 180q-87 61 -218 61q-213 0 -354 -149q-140 -150 -187 -418t41 -418t301 -149q442 0 524 471q4 10 -8 10h-422q-12 0 -8 10l27 154q4 10 12 10h616q12 0 8 -10l-139 -789q0 -10 -12 -10h-150
q-10 0 -10 12l4 144q0 8 -7 8z" />
    <glyph glyph-name="gbreve" unicode="&#x11f;" horiz-adv-x="1204" 
d="M950 1442h129q8 0 8 -10q-20 -117 -100 -171q-80 -55 -174 -55q-93 0 -153 54t-39 172q0 10 12 10h127q8 0 8 -10q-6 -39 16 -59q23 -19 56 -19q84 0 98 78q0 10 12 10zM567 154q141 0 237 100q95 100 126 264q28 164 -32 264t-202 100t-242 -100q-101 -102 -130 -264
q-30 -162 36 -263t207 -101zM520 -252q132 0 218 85t106 206l10 55q5 10 -10 10q-6 0 -10 -6q-31 -34 -125 -76t-189 -42q-210 0 -322 150t-70 390t201 388t382 149q75 0 155 -35t117 -80q12 -12 21 2l34 82q6 10 13 10h153q12 0 8 -10l-174 -987q-38 -207 -194 -336
t-358 -129t-315 90q-114 90 -103 215q0 10 10 10h178q6 0 10 -10q6 -47 64 -89t190 -42z" />
    <glyph glyph-name="Gdotaccent" unicode="&#x120;" horiz-adv-x="1521" 
d="M1096 1604h-265q-8 0 -8 10l47 270q4 10 13 10h264q12 0 8 -10l-47 -270q0 -10 -12 -10zM1113 164q-7 0 -11 -4q-62 -70 -192 -125t-263 -55q-325 0 -451 200t-67 536q59 338 268 542t510 204q254 0 374 -118t140 -297q0 -10 -12 -11h-190q-10 0 -11 11q-27 119 -113 180
q-87 61 -218 61q-213 0 -354 -149q-140 -150 -187 -418t41 -418t301 -149q442 0 524 471q4 10 -8 10h-422q-12 0 -8 10l27 154q4 10 12 10h616q12 0 8 -10l-139 -789q0 -10 -12 -10h-150q-10 0 -10 12l4 144q0 8 -7 8z" />
    <glyph glyph-name="gdotaccent" unicode="&#x121;" horiz-adv-x="1204" 
d="M838 1151h-265q-12 0 -8 10l47 271q0 10 13 10h264q8 0 8 -10l-47 -271q-4 -10 -12 -10zM567 154q141 0 237 100q95 100 126 264q28 164 -32 264t-202 100t-242 -100q-101 -102 -130 -264q-30 -162 36 -263t207 -101zM520 -252q132 0 218 85t106 206l10 55q5 10 -10 10
q-6 0 -10 -6q-31 -34 -125 -76t-189 -42q-210 0 -322 150t-70 390t201 388t382 149q75 0 155 -35t117 -80q12 -12 21 2l34 82q6 10 13 10h153q12 0 8 -10l-174 -987q-38 -207 -194 -336t-358 -129t-315 90q-114 90 -103 215q0 10 10 10h178q6 0 10 -10q6 -47 64 -89t190 -42
z" />
    <glyph glyph-name="uni0122" unicode="&#x122;" horiz-adv-x="1521" 
d="M1294 0h-149q-12 0 -12 12l6 144q0 6 -6 8t-13 -4q-63 -70 -193 -125t-263 -55q-326 0 -451 200t-66 536q59 338 269 542t510 204q254 0 372 -118t140 -297q2 -10 -13 -11h-190q-8 0 -10 11q-25 119 -112 180t-218 61q-213 0 -354 -150t-189 -417q-48 -268 41 -418
q88 -150 301 -149q444 0 527 471q4 10 -9 10h-421q-12 0 -9 10l27 154q0 10 12 10h617q8 0 8 -10l-139 -789q0 -10 -13 -10zM592 -274h-45q-10 0 -10 10l26 141q0 10 10 10h140q10 0 10 -10l-27 -145q-12 -70 -60 -114t-116 -44q-10 0 -10 10l12 60q0 10 15 10t36 16
q20 16 27 45q0 11 -8 11z" />
    <glyph glyph-name="uni0123" unicode="&#x123;" horiz-adv-x="1204" 
d="M762 1290h45q8 0 8 -10l-24 -141q-4 -10 -13 -11h-139q-12 0 -8 11l24 145q11 70 61 114t118 44q8 0 8 -10l-11 -60q-4 -10 -18 -10q-15 0 -35 -16t-24 -36t8 -20zM551 154q141 0 236 100t124 264q31 164 -29 264t-202 100t-242 -100q-102 -102 -132 -264t37 -263
t208 -101zM504 -252q132 0 217 85q86 85 106 206l11 55q0 8 -6 10t-15 -6q-31 -34 -125 -76t-188 -42q-211 0 -323 150q-111 150 -69 390t200 388q159 148 382 149q74 0 155 -35t118 -80q10 -16 20 2l35 82q6 10 12 10h154q12 0 8 -10l-174 -987q-37 -207 -194 -336
t-357 -129t-316 90t-106 215q4 10 12 10h179q8 0 8 -10q8 -47 66 -89t190 -42z" />
    <glyph glyph-name="Hcircumflex" unicode="&#x124;" horiz-adv-x="1388" 
d="M1079 1604h-118q-8 0 -15 8l-45 84q-8 18 -22 0l-74 -84q-6 -8 -19 -8h-118q-16 0 -6 14l126 213q6 8 13 8h229q10 0 12 -8l52 -213q3 -14 -15 -14zM1194 1442h174q8 0 8 -10l-252 -1422q0 -10 -12 -10h-174q-8 0 -8 10l112 635q4 10 -8 10h-649q-8 0 -12 -8l-113 -637
q0 -10 -12 -10h-174q-8 0 -8 10l251 1422q0 10 13 10h174q8 0 8 -10l-104 -592q-4 -10 8 -11h649q8 0 12 11l105 592q0 10 12 10z" />
    <glyph glyph-name="hcircumflex" unicode="&#x125;" horiz-adv-x="1204" 
d="M631 1604h-119q-8 0 -14 8l-45 84q-8 18 -23 0l-74 -84q-6 -8 -18 -8h-119q-16 0 -6 14l127 213q6 8 12 8h230q10 0 12 -8l51 -213q4 -14 -14 -14zM324 1442h174q8 0 8 -10l-88 -496q0 -11 12 -9q6 1 10 5q119 125 289 125q225 0 313 -134t50 -350l-101 -563
q0 -10 -12 -10h-174q-8 0 -8 10l100 563q23 131 -27 221t-183 89q-132 0 -221 -91t-112 -219l-100 -563q0 -10 -12 -10h-174q-8 0 -9 10l252 1422q1 10 13 10z" />
    <glyph glyph-name="Hbar" unicode="&#x126;" horiz-adv-x="1409" 
d="M1141 1147h-649q-8 0 -13 -10l-51 -297q-4 -10 8 -11h649q9 1 13 11l51 297q4 10 -8 10zM276 1147h-110q-6 0 -6 10l20 113q0 10 10 10h111q8 0 12 10l25 142q0 10 12 10h174q8 0 8 -10l-24 -142q-4 -10 8 -10h649q8 0 13 10l24 142q0 10 12 10h175q8 0 8 -10l-25 -142
q-4 -10 8 -10h109q8 0 8 -10l-20 -113q0 -10 -13 -10h-108q-8 0 -13 -10l-198 -1127q0 -10 -12 -10h-175q-8 0 -8 10l113 635q4 10 -8 10h-649q-8 0 -13 -8l-112 -637q0 -10 -13 -10h-174q-8 0 -8 10l199 1127q4 10 -9 10z" />
    <glyph glyph-name="hbar" unicode="&#x127;" horiz-adv-x="1212" 
d="M258 1147h-113q-6 0 -6 10l21 113q0 10 10 10h113q8 0 12 10l24 142q0 10 13 10h174q8 0 8 -10l-25 -142q-4 -10 9 -10h295q8 0 8 -10l-21 -113q0 -10 -12 -10h-295q-8 0 -12 -10l-35 -201q0 -11 12 -9q6 1 11 5q119 125 288 125q225 0 313 -134t50 -350l-101 -563
q0 -10 -12 -10h-174q-8 0 -8 10l100 563q23 131 -27 221t-182 89q-132 0 -222 -91q-89 -91 -112 -219l-100 -563q0 -10 -12 -10h-174q-8 0 -8 10l198 1127q4 10 -8 10z" />
    <glyph glyph-name="Itilde" unicode="&#x128;" horiz-adv-x="524" 
d="M651 1837h123q8 0 8 -10l-10 -49q-12 -66 -72 -120t-168 -54q-61 0 -122 47q-62 47 -76 47t-33 -3t-32 -26q-13 -25 -16 -45t-15 -20h-123q-9 0 -9 10l9 47q14 68 73 122t155 54t173 -71q27 -24 40 -24t32 4q19 3 32 26q13 24 16 44t15 21zM330 1442h174q8 0 8 -10
l-252 -1422q0 -10 -12 -10h-174q-8 0 -8 10l251 1422q1 10 13 10z" />
    <glyph glyph-name="itilde" unicode="&#x129;" horiz-adv-x="536" 
d="M586 1442h123q8 0 8 -10l-10 -50q-11 -66 -71 -120t-169 -54q-61 0 -123 47t-76 47q-68 2 -80 -72q-4 -20 -16 -22h-123q-8 1 -8 11l8 47q13 68 73 122t153 54t176 -71q27 -23 40 -23t31 3t32 26q13 23 16 44t16 21zM266 0h-174q-8 0 -8 10l180 1016q0 10 10 10h175
q10 0 10 -10l-180 -1016q0 -10 -13 -10z" />
    <glyph glyph-name="Imacron" unicode="&#x12a;" horiz-adv-x="524" 
d="M700 1614h-503q-6 0 -7 10l23 119q0 10 8 10h504q10 0 10 -10l-22 -119q-1 -10 -13 -10zM330 1442h174q8 0 8 -10l-252 -1422q0 -10 -12 -10h-174q-8 0 -8 10l251 1422q1 10 13 10z" />
    <glyph glyph-name="imacron" unicode="&#x12b;" horiz-adv-x="536" 
d="M633 1206h-504q-6 0 -6 11l22 118q0 10 9 11h503q10 0 11 -11l-23 -118q0 -11 -12 -11zM266 0h-174q-8 0 -8 10l180 1016q0 10 10 10h175q10 0 10 -10l-180 -1016q0 -10 -13 -10z" />
    <glyph glyph-name="Iogonek" unicode="&#x12e;" horiz-adv-x="524" 
d="M346 1442h174q12 0 8 -10l-249 -1422q0 -10 -13 -10h-26q-64 0 -112 -38t-58 -94t24 -88t103 -32h28q8 0 8 -10l-24 -133q0 -10 -12 -11h-50q-121 0 -185 54t-50 149q25 143 162 197q10 6 10 16l250 1422q4 10 12 10z" />
    <glyph glyph-name="iogonek" unicode="&#x12f;" horiz-adv-x="544" 
d="M305 1206q-12 0 -8 11l37 215q4 10 12 10h215q12 0 8 -10l-37 -215q-4 -10 -12 -11h-215zM287 0h-31q-62 0 -114 -38t-62 -94t24 -88t103 -32h29q8 0 8 -10l-25 -133q0 -10 -12 -11h-49q-121 0 -186 54t-50 149q20 141 172 199q10 4 10 14l181 1016q0 10 10 10h174
q10 0 10 -10l-180 -1016q0 -10 -12 -10z" />
    <glyph glyph-name="Idotaccent" unicode="&#x130;" horiz-adv-x="524" 
d="M578 1604h-265q-8 0 -8 10l47 270q4 10 13 10h264q12 0 8 -10l-47 -270q0 -10 -12 -10zM330 1442h174q8 0 8 -10l-252 -1422q0 -10 -12 -10h-174q-8 0 -8 10l251 1422q1 10 13 10z" />
    <glyph glyph-name="dotlessi" unicode="&#x131;" horiz-adv-x="536" 
d="M266 0h-174q-8 0 -8 10l180 1016q0 10 10 10h175q10 0 10 -10l-180 -1016q0 -10 -13 -10z" />
    <glyph glyph-name="IJ" unicode="&#x132;" 
d="M76 96l465 625l-246 625zM594 721l244 -623l219 1245q-373 -497 -463 -622zM94 49h709l-246 625zM575 768l465 627h-708zM858 0h-842q-8 0 -8 10l252 1422q0 10 12 10h842q8 0 8 -10l-252 -1422q0 -10 -12 -10z" />
    <glyph glyph-name="ij" unicode="&#x133;" 
d="M76 96l465 625l-246 625zM594 721l244 -623l219 1245q-373 -497 -463 -622zM94 49h709l-246 625zM575 768l465 627h-708zM858 0h-842q-8 0 -8 10l252 1422q0 10 12 10h842q8 0 8 -10l-252 -1422q0 -10 -12 -10z" />
    <glyph glyph-name="Jcircumflex" unicode="&#x134;" horiz-adv-x="987" 
d="M1135 1604h-119q-8 0 -15 8l-45 84q-8 18 -22 0l-74 -84q-6 -8 -18 -8h-119q-16 0 -6 14l127 213q6 8 12 8h229q10 0 13 -8l51 -213q4 -14 -14 -14zM41 514h174q12 0 8 -10l-16 -98q-10 -52 -10 -90t13 -78q27 -85 167 -85q139 1 192 85q47 72 64 168l180 1026
q4 10 12 10h174q12 0 9 -10l-181 -1026q-35 -199 -147 -313t-338 -113q-110 0 -184 34t-108 90q-74 125 -38 302l17 98q4 10 12 10z" />
    <glyph glyph-name="jcircumflex" unicode="&#x135;" horiz-adv-x="655" 
d="M735 1206h-119q-8 0 -14 8l-45 84q-8 18 -22 0l-74 -84q-6 -8 -19 -8h-118q-16 0 -7 15l127 213q6 8 13 8h229q10 0 12 -8l52 -213q3 -15 -15 -15zM88 -231q109 0 129 102l203 1155q4 10 12 10h174q12 0 8 -10l-208 -1190q-45 -248 -312 -242h-155q-13 1 -9 11l27 153
q4 10 12 11h119z" />
    <glyph glyph-name="uni0136" unicode="&#x136;" horiz-adv-x="1316" 
d="M543 -274h-45q-12 0 -9 10l25 141q4 10 12 10h140q12 0 8 -10l-25 -145q-12 -70 -61 -114t-117 -44q-12 0 -8 10l10 60q0 10 12 10q53 0 66 61q4 11 -8 11zM279 0h-175q-12 0 -8 10l250 1422q0 10 12 10h174q8 0 9 -10l-109 -613q0 -10 8 -4l738 617q10 10 18 10h234
q4 0 6 -4t-2 -6l-648 -547q-8 -6 -4 -17l414 -858q4 -10 -8 -10h-203q-10 0 -14 10l-348 723q-4 8 -13 0l-217 -182q-10 -10 -10 -16l-92 -525q-4 -10 -12 -10z" />
    <glyph glyph-name="uni0137" unicode="&#x137;" horiz-adv-x="1204" 
d="M481 -274h-45q-12 0 -8 10l25 141q4 10 12 10h139q12 0 8 -10l-24 -145q-12 -70 -62 -114t-116 -44q-12 0 -9 10l11 60q0 10 12 10q53 0 65 61q4 11 -8 11zM1063 0h-184q-12 0 -17 10l-227 559q-6 8 -14 0l-271 -200q-2 -4 -6 -13l-59 -346q-4 -10 -13 -10h-174
q-12 0 -8 10l250 1422q0 10 12 10h174q8 0 9 -10l-142 -803q-2 -8 6 -6l7 2l542 401q14 10 33 10h252q4 0 6 -4t-2 -6l-438 -324q-8 -8 -2 -16l276 -676q0 -10 -10 -10z" />
    <glyph glyph-name="kgreenlandic" unicode="&#x138;" horiz-adv-x="1204" 
d="M1061 0h-184q-10 0 -17 10l-227 559q-2 8 -15 0l-268 -200q-6 -6 -6 -13l-61 -346q0 -10 -13 -10h-174q-8 0 -8 10l180 1016q0 10 11 10h174q10 0 10 -10l-72 -397q0 -14 15 -4l542 401q12 10 31 10h252q4 0 6 -4t0 -6l-438 -324q-8 -6 -4 -16l276 -676q2 -2 -2 -6t-8 -4
z" />
    <glyph glyph-name="Lacute" unicode="&#x139;" horiz-adv-x="1148" 
d="M506 1604h-117q-16 0 -6 14l123 207q10 14 24 14h179q16 0 6 -14l-183 -207q-14 -14 -26 -14zM342 1442h174q8 0 8 -10l-221 -1248q0 -10 8 -10h717q10 0 10 -10l-28 -154q0 -10 -13 -10h-911q-8 0 -8 10l252 1422q0 10 12 10z" />
    <glyph glyph-name="lacute" unicode="&#x13a;" horiz-adv-x="532" 
d="M506 1604h-117q-16 0 -6 14l123 207q10 14 24 14h179q16 0 6 -14l-183 -207q-14 -14 -26 -14zM258 0h-174q-8 0 -8 10l252 1422q0 10 12 10h174q8 0 8 -10l-252 -1422q0 -10 -12 -10z" />
    <glyph glyph-name="uni013B" unicode="&#x13b;" horiz-adv-x="1148" 
d="M365 1442h174q8 0 8 -10l-221 -1248q0 -10 8 -10h717q10 0 10 -10l-29 -154q0 -10 -12 -10h-911q-9 0 -9 10l252 1422q0 10 13 10zM549 -274h-45q-8 0 -8 10l24 141q4 10 12 10h140q12 0 8 -10l-25 -145q-12 -70 -61 -114t-117 -44q-8 0 -8 10l10 60q5 10 19 10t34 16
t27 45q0 11 -10 11z" />
    <glyph glyph-name="uni013C" unicode="&#x13c;" horiz-adv-x="532" 
d="M119 -274h-45q-12 0 -8 10l24 141q4 10 12 10h140q12 0 8 -10l-25 -145q-12 -70 -61 -114t-117 -44q-12 0 -8 10l10 60q0 10 12 10q53 0 66 61q4 11 -8 11zM279 0h-175q-12 0 -8 10l250 1422q0 10 12 10h174q9 0 9 -10l-250 -1422q-4 -10 -12 -10z" />
    <glyph glyph-name="Lcaron" unicode="&#x13d;" horiz-adv-x="1148" 
d="M229 1442h174q8 0 9 -10l-222 -1248q0 -10 9 -10h716q10 0 11 -10l-29 -154q0 -10 -12 -10h-912q-8 0 -8 10l252 1422q0 10 12 10zM524 1280h-45q-8 0 -8 10l25 142q4 10 12 10h139q12 0 8 -10l-24 -146q-11 -70 -61 -114t-117 -44q-8 0 -9 11l11 59q4 10 18 10
q15 0 35 16t27 46q-1 10 -11 10z" />
    <glyph glyph-name="lcaron" unicode="&#x13e;" horiz-adv-x="681" 
d="M145 0h-174q-8 0 -8 10l252 1422q0 10 12 10h174q9 0 9 -10l-252 -1422q0 -10 -13 -10zM545 1280h-45q-8 0 -8 10l24 142q4 10 12 10h140q12 0 8 -10l-25 -146q-12 -70 -61 -114t-117 -44q-8 0 -8 11l10 59q4 10 18 10q15 0 35 16t27 46q0 10 -10 10z" />
    <glyph glyph-name="Ldot" unicode="&#x13f;" horiz-adv-x="1155" 
d="M879 565h-306q-12 0 -8 10l53 310q4 10 13 10h305q12 0 8 -10l-53 -310q-4 -10 -12 -10zM342 1442h174q8 0 8 -10l-221 -1248q0 -10 8 -10h717q10 0 10 -10l-28 -154q0 -10 -13 -10h-911q-8 0 -8 10l252 1422q0 10 12 10z" />
    <glyph glyph-name="ldot" unicode="&#x140;" horiz-adv-x="839" 
d="M782 565h-305q-12 0 -8 10l53 310q4 10 13 10h305q12 0 8 -10l-53 -310q-5 -10 -13 -10zM258 0h-174q-8 0 -8 10l252 1422q0 10 12 10h174q8 0 8 -10l-252 -1422q0 -10 -12 -10z" />
    <glyph glyph-name="Lslash" unicode="&#x141;" horiz-adv-x="1310" 
d="M498 1442h174q8 0 8 -10l-107 -603q-1 -6 5 -9t10 1l135 94q4 2 9 -1t3 -9l-26 -151q0 -8 -9 -11l-157 -110q-6 -6 -6 -8l-78 -441q0 -10 8 -10h717q10 0 10 -10l-29 -154q0 -10 -12 -10h-911q-9 0 -9 10l80 451q0 14 -16 4l-135 -94q-12 -4 -12 10l26 149q4 10 8 15
l158 108q6 6 8 15l135 764q0 10 13 10z" />
    <glyph glyph-name="lslash" unicode="&#x142;" horiz-adv-x="606" 
d="M381 1442h174q8 0 8 -10l-106 -603q-2 -6 4 -9t10 1l135 94q4 2 9 -1t3 -9l-26 -151q0 -8 -8 -11l-158 -110q-6 -6 -6 -8l-109 -615q0 -10 -12 -10h-174q-8 0 -8 10l80 451q0 14 -17 4l-135 -94q-12 -4 -12 10l26 149q2 10 9 15l157 108q4 6 8 15l136 764q0 10 12 10z
" />
    <glyph glyph-name="Nacute" unicode="&#x143;" horiz-adv-x="1492" 
d="M924 1604h-117q-16 0 -6 14l123 207q10 14 24 14h178q16 0 7 -14l-183 -207q-14 -14 -26 -14zM1298 1442h175q8 0 8 -10l-252 -1422q0 -10 -12 -10h-302q-8 0 -14 10l-403 1231q-2 6 -10 5t-11 -9l-217 -1227q0 -10 -12 -10h-174q-8 0 -8 10l251 1422q0 10 13 10h303
q6 0 12 -10l404 -1229q4 -8 11 -8t9 10l217 1227q0 10 12 10z" />
    <glyph glyph-name="nacute" unicode="&#x144;" horiz-adv-x="1193" 
d="M684 1206h-117q-16 0 -6 15l123 206q10 14 25 15h178q16 0 6 -15l-182 -206q-15 -15 -27 -15zM268 1036h154q8 0 8 -10l4 -92q4 -20 23 -2q113 125 291 125q213 0 305 -136t55 -348l-98 -563q-4 -10 -13 -10h-174q-12 0 -8 10l98 563q25 131 -25 221t-182 89
q-132 0 -223 -91q-90 -91 -112 -219l-99 -563q-4 -10 -12 -10h-174q-12 0 -8 10l178 1016q4 10 12 10z" />
    <glyph glyph-name="uni0145" unicode="&#x145;" horiz-adv-x="1411" 
d="M1317 1442h174q8 0 8 -10l-250 -1422q-4 -10 -12 -10h-301q-10 0 -14 10l-406 1231q-2 6 -10 5t-10 -9l-215 -1227q-4 -10 -13 -10h-174q-12 0 -8 10l250 1422q0 10 12 10h303q10 0 13 -10l403 -1229q4 -8 11 -8t9 10l218 1227q0 10 12 10zM563 -274h-45q-12 0 -8 10
l25 141q4 10 12 10h139q12 0 8 -10l-24 -145q-12 -70 -62 -114t-116 -44q-12 0 -9 10l11 60q0 10 12 10q53 0 65 61q4 11 -8 11z" />
    <glyph glyph-name="uni0146" unicode="&#x146;" horiz-adv-x="1193" 
d="M498 -274h-45q-8 0 -9 10l25 141q4 10 12 10h140q12 0 8 -10l-25 -145q-12 -70 -61 -114t-117 -44q-8 0 -8 10l10 60q4 10 18 10t35 16t25 36t-8 20zM287 1036h153q8 0 9 -10l4 -92q2 -8 10 -8t12 6q113 125 291 125q213 0 305 -136t55 -348l-98 -563q-4 -10 -12 -10
h-174q-12 0 -8 10l98 563q24 131 -26 221t-182 89q-132 0 -222 -91t-113 -219l-98 -563q-4 -10 -12 -10h-175q-12 0 -8 10l178 1016q5 10 13 10z" />
    <glyph glyph-name="Ncaron" unicode="&#x147;" horiz-adv-x="1492" 
d="M1055 1847h116q16 0 9 -14l-125 -213q-4 -8 -17 -8h-227q-8 0 -10 8l-53 213q-4 14 14 14h117q12 0 16 -8l47 -84q8 -14 23 0l71 84q9 8 19 8zM1298 1442h175q8 0 8 -10l-252 -1422q0 -10 -12 -10h-302q-8 0 -14 10l-403 1231q-2 6 -10 5t-11 -9l-217 -1227
q0 -10 -12 -10h-174q-8 0 -8 10l251 1422q0 10 13 10h303q6 0 12 -10l404 -1229q4 -8 11 -8t9 10l217 1227q0 10 12 10z" />
    <glyph glyph-name="ncaron" unicode="&#x148;" horiz-adv-x="1193" 
d="M872 1442h117q16 0 8 -15l-125 -213q-4 -8 -16 -8h-227q-8 0 -11 8l-53 213q-4 14 15 15h116q12 0 17 -8l47 -84q8 -14 22 0l72 84q8 8 18 8zM268 1036h154q8 0 8 -10l4 -92q4 -20 23 -2q113 125 291 125q213 0 305 -136t55 -348l-98 -563q-4 -10 -13 -10h-174
q-12 0 -8 10l98 563q25 131 -25 221t-182 89q-132 0 -223 -91q-90 -91 -112 -219l-99 -563q-4 -10 -12 -10h-174q-12 0 -8 10l178 1016q4 10 12 10z" />
    <glyph glyph-name="napostrophe" unicode="&#x149;" horiz-adv-x="1193" 
d="M156 1036h153q8 0 8 -10l5 -92q4 -20 22 -2q113 125 291 125q213 0 305 -136t55 -348l-98 -563q-4 -10 -12 -10h-174q-12 0 -9 10l99 563q25 131 -25 221t-183 89q-132 0 -222 -91t-113 -219l-98 -563q-4 -10 -13 -10h-174q-12 0 -8 10l178 1016q5 10 13 10zM289 1280
h-45q-8 0 -8 10l24 142q4 10 12 10h140q12 0 8 -10l-25 -146q-12 -70 -61 -114t-117 -44q-8 0 -8 11l10 59q4 10 18 10q15 0 35 16t27 46q0 10 -10 10z" />
    <glyph glyph-name="Omacron" unicode="&#x14c;" horiz-adv-x="1499" 
d="M1204 1604h-504q-6 0 -6 10l23 119q0 10 8 10h504q10 0 10 -10l-22 -119q-1 -10 -13 -10zM678 154q213 0 354 150t189 417q47 268 -42 418q-89 149 -302 149t-354 -149q-140 -150 -187 -418q-47 -267 41 -417t301 -150zM1352 1260q130 -203 70 -540t-261 -539
q-201 -201 -514 -201t-444 202t-72 539q59 336 261 539q202 202 515 202t445 -202z" />
    <glyph glyph-name="omacron" unicode="&#x14d;" horiz-adv-x="1202" 
d="M985 1206h-504q-6 0 -6 11l23 118q0 10 8 11h504q10 0 10 -11l-23 -118q0 -11 -12 -11zM556 154q144 0 246 101q101 101 132 263q29 162 -38 263t-211 101q-145 0 -247 -100q-102 -102 -131 -264t38 -263t211 -101zM523 -20q-237 0 -345 147t-65 391t203 391
q161 147 398 147t347 -146q110 -148 67 -392q-44 -244 -206 -391t-399 -147z" />
    <glyph glyph-name="Obreve" unicode="&#x14e;" horiz-adv-x="1499" 
d="M1085 1839h129q8 0 9 -10q-21 -117 -101 -171t-174 -54t-153 54t-39 171q0 10 12 10h127q8 0 8 -10q-6 -39 17 -59t55 -19q84 0 98 78q0 10 12 10zM678 154q213 0 354 150t189 417q47 268 -42 418q-89 149 -302 149t-354 -149q-140 -150 -187 -418q-47 -267 41 -417
t301 -150zM1352 1260q130 -203 70 -540t-261 -539q-201 -201 -514 -201t-444 202t-72 539q59 336 261 539q202 202 515 202t445 -202z" />
    <glyph glyph-name="obreve" unicode="&#x14f;" horiz-adv-x="1202" 
d="M868 1442h129q8 0 9 -10q-20 -117 -100 -171q-80 -55 -175 -55q-94 0 -153 54t-39 172q0 10 12 10h127q8 0 8 -10q-6 -39 16 -59q23 -19 56 -19q84 0 98 78q0 10 12 10zM556 154q144 0 246 101q101 101 132 263q29 162 -38 263t-211 101q-145 0 -247 -100
q-102 -102 -131 -264t38 -263t211 -101zM523 -20q-237 0 -345 147t-65 391t203 391q161 147 398 147t347 -146q110 -148 67 -392q-44 -244 -206 -391t-399 -147z" />
    <glyph glyph-name="Ohungarumlaut" unicode="&#x150;" horiz-adv-x="1499" 
d="M1268 1554h-224q-10 0 -6 11l107 270q0 10 14 10h223q6 0 7 -10l-107 -270q-4 -11 -14 -11zM817 1554h-223q-10 0 -6 11l106 270q0 10 15 10h223q6 0 6 -10l-107 -270q-4 -11 -14 -11zM678 154q213 0 354 150t189 417q47 268 -42 418q-89 149 -302 149t-354 -149
q-140 -150 -187 -418q-47 -267 41 -417t301 -150zM1352 1260q130 -203 70 -540t-261 -539q-201 -201 -514 -201t-444 202t-72 539q59 336 261 539q202 202 515 202t445 -202z" />
    <glyph glyph-name="ohungarumlaut" unicode="&#x151;" horiz-adv-x="1202" 
d="M1112 1151h-223q-10 0 -6 10l106 271q0 10 15 10h223q6 0 6 -10l-107 -271q-4 -10 -14 -10zM662 1151h-224q-10 0 -6 10l107 271q0 10 14 10h223q6 0 6 -10l-106 -271q-4 -10 -14 -10zM556 154q144 0 246 101q101 101 132 263q29 162 -38 263t-211 101q-145 0 -247 -100
q-102 -102 -131 -264t38 -263t211 -101zM523 -20q-237 0 -345 147t-65 391t203 391q161 147 398 147t347 -146q110 -148 67 -392q-44 -244 -206 -391t-399 -147z" />
    <glyph glyph-name="OE" unicode="&#x152;" horiz-adv-x="2301" 
d="M678 154q213 0 354 150t189 417q47 268 -42 418q-89 149 -302 149t-354 -149q-140 -150 -187 -418q-47 -267 41 -417t301 -150zM1358 1442h964q8 0 9 -10l-29 -154q0 -10 -10 -10h-770q-12 0 -13 -11l-75 -428q-4 -10 8 -10h686q12 0 8 -10l-27 -154q-4 -10 -12 -10h-686
q-8 0 -12 -10l-80 -451q0 -10 8 -10h770q10 0 10 -10l-28 -154q0 -10 -13 -10h-964q-8 0 -8 10l24 135q-190 -166 -471 -165q-313 0 -444 202t-72 539q59 336 261 539t515 202q276 0 414 -166l25 136q0 10 12 10z" />
    <glyph glyph-name="oe" unicode="&#x153;" horiz-adv-x="2011" 
d="M1483 883q-137 0 -231 -91t-109 -180q-4 -10 8 -10h557q8 0 12 10q18 102 -41 186t-196 85zM556 154q144 0 246 101q101 101 132 263q29 162 -38 263t-211 101q-145 0 -247 -100q-102 -102 -131 -264t38 -263t211 -101zM1124 449q-12 0 -12 -11q-20 -116 44 -200t196 -84
q176 0 276 143q6 10 17 10h192q10 0 8 -10q-68 -150 -208 -234t-316 -83q-248 0 -354 170q-6 14 -21 0q-164 -170 -412 -170t-356 147t-65 391t203 391q161 147 404 147t355 -167q6 -12 23 0q168 168 408 168q240 1 347 -147q106 -148 64 -392q-13 -69 -29 -69h-764z" />
    <glyph glyph-name="Racute" unicode="&#x154;" horiz-adv-x="1288" 
d="M780 1604h-116q-16 0 -7 14l123 207q10 14 25 14h178q16 0 6 -14l-182 -207q-15 -14 -27 -14zM893 1268h-379q-12 0 -12 -11l-88 -499q-4 -10 8 -10h387q96 4 181 78q86 74 104 178t-43 184q-62 80 -158 80zM350 1442h598q170 0 272 -128t68 -310q-23 -131 -108 -236
q-86 -104 -205 -156q-8 -4 -6 -14l157 -588q2 -10 -12 -10h-170q-14 0 -18 10l-148 553q-4 10 -12 10h-375q-12 0 -12 -10l-98 -553q0 -10 -13 -10h-174q-8 0 -8 10l252 1422q0 10 12 10z" />
    <glyph glyph-name="racute" unicode="&#x155;" horiz-adv-x="806" 
d="M528 1206h-116q-16 0 -6 15l122 206q10 14 25 15h178q16 0 6 -15l-182 -206q-15 -15 -27 -15zM807 883h-105q-123 0 -213 -91t-112 -219l-98 -563q-4 -10 -13 -10h-174q-12 0 -8 10l178 1016q4 10 12 10h154q8 0 8 -10l4 -92q2 -16 23 -2q147 125 270 125h105q8 0 8 -10
l-27 -154q-4 -10 -12 -10z" />
    <glyph glyph-name="uni0156" unicode="&#x156;" horiz-adv-x="1288" 
d="M537 -274h-45q-12 0 -9 10l25 141q4 10 12 10h139q12 0 9 -10l-25 -145q-12 -70 -61 -114t-117 -44q-12 0 -8 10l10 60q0 10 12 10q53 0 66 61q4 11 -8 11zM911 1268h-379q-12 0 -12 -11l-88 -499q-4 -10 8 -10h387q96 4 182 78q85 74 103 178t-43 184q-62 80 -158 80z
M369 1442h598q170 0 271 -128t69 -310q-23 -132 -109 -236t-205 -156q-8 -4 -6 -14l160 -588q2 -10 -12 -10h-170q-14 0 -19 10l-149 553q0 10 -13 10h-374q-8 0 -13 -10l-96 -553q-4 -10 -12 -10h-174q-12 0 -9 10l250 1422q0 10 13 10z" />
    <glyph glyph-name="uni0157" unicode="&#x157;" horiz-adv-x="806" 
d="M125 -274h-45q-8 0 -8 10l24 141q4 10 13 10h139q12 0 8 -10l-25 -145q-12 -70 -61 -114t-117 -44q-8 0 -8 10l10 60q5 10 19 10t35 16q20 16 24 36t-8 20zM825 883h-104q-123 0 -213 -91t-113 -219l-98 -563q-4 -10 -12 -10h-174q-12 0 -9 10l179 1016q4 10 12 10h153
q8 0 9 -10l4 -92q4 -20 22 -2q147 125 271 125h104q12 0 8 -10l-26 -154q-5 -10 -13 -10z" />
    <glyph glyph-name="Rcaron" unicode="&#x158;" horiz-adv-x="1349" 
d="M907 1845h117q16 0 8 -14l-125 -213q-4 -8 -16 -8h-227q-8 0 -11 8l-53 213q-4 14 14 14h117q12 0 17 -8l47 -84q8 -14 22 0l72 84q8 8 18 8zM893 1268h-379q-12 0 -12 -11l-88 -499q-4 -10 8 -10h387q96 4 181 78q86 74 104 178t-43 184q-62 80 -158 80zM350 1442h598
q170 0 272 -128t68 -310q-23 -131 -108 -236q-86 -104 -205 -156q-8 -4 -6 -14l157 -588q2 -10 -12 -10h-170q-14 0 -18 10l-148 553q-4 10 -12 10h-375q-12 0 -12 -10l-98 -553q0 -10 -13 -10h-174q-8 0 -8 10l252 1422q0 10 12 10z" />
    <glyph glyph-name="rcaron" unicode="&#x159;" horiz-adv-x="806" 
d="M616 1442h117q16 0 8 -15l-125 -213q-4 -8 -16 -8h-227q-8 0 -11 8l-53 213q-4 14 15 15h116q12 0 17 -8l47 -84q8 -14 22 0l72 84q8 8 18 8zM807 883h-105q-123 0 -213 -91t-112 -219l-98 -563q-4 -10 -13 -10h-174q-12 0 -8 10l178 1016q4 10 12 10h154q8 0 8 -10
l4 -92q2 -16 23 -2q147 125 270 125h105q8 0 8 -10l-27 -154q-4 -10 -12 -10z" />
    <glyph glyph-name="Sacute" unicode="&#x15a;" horiz-adv-x="1290" 
d="M844 1604h-117q-16 0 -6 14l123 207q10 14 24 14h179q16 0 6 -14l-183 -207q-14 -14 -26 -14zM268 406q14 0 11 -13q-15 -88 63 -164q78 -75 237 -75t263 72t123 180q24 132 -74 182q-82 42 -194 53q-111 13 -171 25t-131 42q-69 30 -111 70t-64 111q-22 70 -5 162
q33 186 202 299q169 112 373 112t335 -108q130 -108 104 -307q-4 -10 -12 -11h-185q-12 1 -8 11q16 104 -58 173q-75 68 -204 68t-226 -68t-117 -179q-20 -112 80 -153q75 -33 184 -45q109 -13 174 -27t137 -44q72 -31 114 -75q41 -45 60 -119t1 -172q-29 -174 -186 -301
q-158 -125 -424 -125t-391 120t-94 295q4 10 12 11h182z" />
    <glyph glyph-name="sacute" unicode="&#x15b;" horiz-adv-x="1101" 
d="M719 1206h-117q-16 0 -6 15l123 206q10 14 24 15h179q16 0 6 -15l-183 -206q-14 -15 -26 -15zM1032 686h-176q-8 0 -8 10q16 86 -42 136t-174 51q-116 0 -179 -39q-90 -56 -72 -135q14 -63 133 -78q16 -2 49 -6q235 -28 324 -68q147 -70 117 -243t-167 -254
q-138 -80 -352 -80t-316 102q-101 102 -75 258q4 10 12 10h173q14 0 10 -10q-11 -80 53 -133t182 -53q256 0 285 155q12 77 -71 106t-163 29q-254 26 -332 98t-56 205q22 134 152 222q131 88 323 88t302 -93t78 -268q0 -10 -10 -10z" />
    <glyph glyph-name="Scircumflex" unicode="&#x15c;" horiz-adv-x="1290" 
d="M1030 1604h-119q-8 0 -14 8l-45 84q-8 18 -23 0l-73 -84q-6 -8 -19 -8h-119q-16 0 -6 14l127 213q6 8 13 8h229q10 0 12 -8l51 -213q4 -14 -14 -14zM268 406q14 0 11 -13q-15 -88 63 -164q78 -75 237 -75t263 72t123 180q24 132 -74 182q-82 42 -194 53q-111 13 -171 25
t-131 42q-69 30 -111 70t-64 111q-22 70 -5 162q33 186 202 299q169 112 373 112t335 -108q130 -108 104 -307q-4 -10 -12 -11h-185q-12 1 -8 11q16 104 -58 173q-75 68 -204 68t-226 -68t-117 -179q-20 -112 80 -153q75 -33 184 -45q109 -13 174 -27t137 -44
q72 -31 114 -75q41 -45 60 -119t1 -172q-29 -174 -186 -301q-158 -125 -424 -125t-391 120t-94 295q4 10 12 11h182z" />
    <glyph glyph-name="scircumflex" unicode="&#x15d;" horiz-adv-x="1101" 
d="M885 1206h-119q-8 0 -14 8l-45 84q-8 18 -23 0l-74 -84q-6 -8 -18 -8h-119q-16 0 -6 15l127 213q6 8 12 8h230q10 0 12 -8l51 -213q4 -15 -14 -15zM1032 686h-176q-8 0 -8 10q16 86 -42 136t-174 51q-116 0 -179 -39q-90 -56 -72 -135q14 -63 133 -78q16 -2 49 -6
q235 -28 324 -68q147 -70 117 -243t-167 -254q-138 -80 -352 -80t-316 102q-101 102 -75 258q4 10 12 10h173q14 0 10 -10q-11 -80 53 -133t182 -53q256 0 285 155q12 77 -71 106t-163 29q-254 26 -332 98t-56 205q22 134 152 222q131 88 323 88t302 -93t78 -268
q0 -10 -10 -10z" />
    <glyph glyph-name="Scedilla" unicode="&#x15e;" horiz-adv-x="1290" 
d="M578 -101q0 -7 8 -8q61 -1 104 -39t31 -109q-11 -71 -75 -120t-154 -49t-131 49q-40 49 -27 117q0 10 12 10h68q8 0 8 -10q-6 -33 16 -61q22 -27 65 -27q44 0 77 26q32 26 40 71q8 44 -23 68q-32 23 -67 23t-38 6l-15 17q-10 12 2 24l105 74q6 2 5 10t-9 9h-15
q-254 0 -379 120t-94 295q4 10 12 11h183q14 0 10 -13q-17 -88 61 -164q78 -75 237 -75t264 72t124 180q24 133 -74 182q-82 42 -194 53q-111 13 -171 25t-131 42t-112 70t-62 111q-22 70 -6 162q33 186 202 299q169 112 374 112t334 -108t102 -307q0 -10 -12 -11h-184
q-9 1 -9 11q18 104 -56 173q-75 68 -204 68t-227 -68t-117 -179q-19 -112 81 -153q76 -33 184 -46q107 -12 173 -26t139 -44q73 -31 113 -75q40 -45 58 -119q20 -74 4 -172q-25 -146 -145 -264t-328 -150l-133 -84q-4 -2 -4 -9z" />
    <glyph glyph-name="scedilla" unicode="&#x15f;" horiz-adv-x="1101" 
d="M1051 686h-177q-12 0 -8 10q16 86 -42 136t-174 51q-116 0 -179 -39q-90 -56 -72 -135q5 -25 33 -43q42 -28 136 -40q246 -28 337 -69q147 -70 117 -248q-25 -141 -130 -222t-263 -99l-123 -80q-4 -2 -4 -9t8 -8q61 -1 104 -39t31 -109t-77 -120q-64 -49 -154 -49
t-130 49t-26 117q0 10 10 10h68q10 0 10 -10q-6 -33 16 -61q22 -27 65 -27q44 0 77 26t40 71q7 44 -24 68q-31 23 -66 23t-38 6l-15 17q-10 12 2 24l117 82q6 6 -2 11h-6q-223 0 -325 102q-101 102 -74 258q4 10 12 10h172q14 0 10 -10q-13 -78 51 -132t185 -54
q256 0 284 155q12 76 -70 105q-82 30 -163 30q-256 26 -330 96q-33 30 -52 84t-7 128q23 129 152 217q130 88 323 88q192 0 302 -93t79 -268q-4 -10 -10 -10z" />
    <glyph glyph-name="Scaron" unicode="&#x160;" horiz-adv-x="1290" 
d="M954 1847h117q16 0 8 -14l-125 -213q-4 -8 -16 -8h-227q-8 0 -11 8l-53 213q-4 14 15 14h116q12 0 17 -8l47 -84q8 -14 22 0l72 84q8 8 18 8zM268 406q14 0 11 -13q-15 -88 63 -164q78 -75 237 -75t263 72t123 180q24 132 -74 182q-82 42 -194 53q-111 13 -171 25
t-131 42q-69 30 -111 70t-64 111q-22 70 -5 162q33 186 202 299q169 112 373 112t335 -108q130 -108 104 -307q-4 -10 -12 -11h-185q-12 1 -8 11q16 104 -58 173q-75 68 -204 68t-226 -68t-117 -179q-20 -112 80 -153q75 -33 184 -45q109 -13 174 -27t137 -44
q72 -31 114 -75q41 -45 60 -119t1 -172q-29 -174 -186 -301q-158 -125 -424 -125t-391 120t-94 295q4 10 12 11h182z" />
    <glyph glyph-name="scaron" unicode="&#x161;" horiz-adv-x="1114" 
d="M838 1442h116q16 0 9 -15l-125 -213q-4 -8 -17 -8h-227q-8 0 -10 8l-54 213q-4 14 15 15h117q12 0 16 -8l47 -84q8 -14 23 0l71 84q9 8 19 8zM1032 686h-176q-8 0 -8 10q16 86 -42 136t-174 51q-116 0 -179 -39q-90 -56 -72 -135q14 -63 133 -78q16 -2 49 -6
q235 -28 324 -68q147 -70 117 -243t-167 -254q-138 -80 -352 -80t-316 102q-101 102 -75 258q4 10 12 10h173q14 0 10 -10q-11 -80 53 -133t182 -53q256 0 285 155q12 77 -71 106t-163 29q-254 26 -332 98t-56 205q22 134 152 222q131 88 323 88t302 -93t78 -268
q0 -10 -10 -10z" />
    <glyph glyph-name="uni0162" unicode="&#x162;" horiz-adv-x="1150" 
d="M614 1268h-395q-10 0 -10 10l29 154q0 10 12 10h1005q8 0 9 -10l-29 -154q0 -10 -10 -10h-396q-12 0 -12 -11l-221 -1247q0 -10 -12 -10h-174q-9 0 -9 10l222 1250q-4 8 -9 8zM487 -274h-45q-8 0 -8 10l25 141q4 10 12 10h139q12 0 8 -10l-24 -145q-12 -70 -62 -114
t-116 -44q-8 0 -8 10l10 60q4 10 18 10t35 16q20 16 27 45q-1 11 -11 11z" />
    <glyph glyph-name="uni0163" unicode="&#x163;" horiz-adv-x="768" 
d="M621 0h-158q-131 -4 -190 56q-58 60 -35 186l110 630q0 10 -8 11h-182q-12 0 -8 10l22 133q4 10 12 10h183q8 0 12 11l49 276q0 10 12 10h174q8 0 9 -10l-50 -276q-4 -10 9 -11h221q12 0 8 -10l-23 -133q-4 -10 -12 -10h-221q-12 0 -12 -11l-105 -596q-20 -102 92 -102
h121q8 0 8 -10l-26 -154q-4 -10 -12 -10zM375 -274h-45q-8 0 -8 10l24 141q4 10 12 10h140q12 0 8 -10l-25 -145q-12 -70 -61 -114t-117 -44q-8 0 -8 10l10 60q4 10 18 10t35 16q20 16 27 45q0 11 -10 11z" />
    <glyph glyph-name="Tcaron" unicode="&#x164;" horiz-adv-x="1150" 
d="M874 1845h117q16 0 8 -14l-125 -213q-4 -8 -16 -8h-227q-8 0 -10 8l-54 213q-4 14 15 14h116q12 0 17 -8l47 -84q8 -14 22 0l72 84q8 8 18 8zM592 1268h-395q-10 0 -11 10l29 154q0 10 12 10h1006q8 0 8 -10l-29 -154q0 -10 -10 -10h-395q-12 0 -12 -11l-222 -1247
q0 -10 -12 -10h-174q-8 0 -8 10l221 1250q-4 8 -8 8z" />
    <glyph glyph-name="tcaron" unicode="&#x165;" horiz-adv-x="768" 
d="M485 0h-157q-131 -4 -190 56q-58 60 -36 186l111 630q0 10 -8 11h-182q-12 0 -9 10l23 133q4 10 12 10h182q8 0 13 11l49 276q0 10 12 10h174q8 0 8 -10l-49 -276q-4 -10 8 -11h222q12 0 8 -10l-23 -133q-4 -10 -12 -10h-221q-12 0 -12 -11l-105 -596q-20 -102 92 -102
h121q8 0 8 -10l-26 -154q-4 -10 -13 -10zM633 1280h-45q-8 0 -8 10l24 142q4 10 12 10h140q12 0 8 -10l-25 -146q-12 -70 -61 -114t-117 -44q-8 0 -8 11l10 59q4 10 18 10q15 0 35 16t27 46q0 10 -10 10z" />
    <glyph glyph-name="Tbar" unicode="&#x166;" horiz-adv-x="1150" 
d="M592 1268h-395q-10 0 -11 10l29 154q0 10 12 10h1006q8 0 8 -10l-29 -154q0 -10 -10 -10h-395q-12 0 -12 -11l-37 -210q-4 -10 8 -11h319q8 0 9 -10l-21 -113q0 -10 -12 -10h-320q-8 0 -12 -10l-156 -883q0 -10 -12 -10h-174q-8 0 -8 10l156 883q4 10 -9 10h-319
q-8 0 -8 10l20 113q0 10 12 10h320q8 1 12 11l37 213q-4 8 -8 8z" />
    <glyph glyph-name="tbar" unicode="&#x167;" horiz-adv-x="768" 
d="M508 174h121q8 0 8 -10l-27 -154q-4 -10 -12 -10h-158q-269 -8 -225 242l45 264q4 10 -8 10h-182q-8 0 -9 10l25 133q0 10 12 11h183q10 0 10 10l35 192q0 10 -9 11h-182q-12 0 -8 10l23 133q4 10 12 10h182q8 0 12 11l50 276q0 10 12 10h174q8 0 8 -10l-49 -276
q-4 -10 8 -11h221q12 0 8 -10l-22 -133q-4 -10 -12 -10h-222q-12 0 -12 -11l-35 -192q0 -10 11 -10h221q8 0 8 -11l-25 -133q0 -10 -12 -10h-221q-8 0 -12 -10l-39 -230q-20 -102 92 -102z" />
    <glyph glyph-name="Utilde" unicode="&#x168;" horiz-adv-x="1312" 
d="M1063 1837h123q8 0 8 -10l-10 -49q-12 -66 -72 -120t-168 -54q-60 0 -122 47t-76 47q-70 0 -81 -74q-3 -20 -16 -20h-123q-8 0 -8 10l8 47q14 68 74 122t154 54q95 0 174 -71q27 -24 40 -24q68 2 80 74q4 20 15 21zM585 154q129 0 241 101t135 234l165 943q4 10 13 10
h174q12 0 8 -10l-166 -943q-37 -213 -212 -361t-388 -148t-337 148t-87 361l166 943q4 10 12 10h174q13 0 9 -10l-166 -943q-23 -133 53 -234t206 -101z" />
    <glyph glyph-name="utilde" unicode="&#x169;" horiz-adv-x="1185" 
d="M930 1442h123q8 0 8 -10l-10 -50q-11 -66 -71 -120t-169 -54q-61 0 -123 47t-76 47q-68 2 -80 -72q-4 -20 -16 -22h-123q-8 1 -8 11l8 47q13 68 73 122t153 54t176 -71q27 -23 40 -23q49 2 63 27q12 25 16 46t16 21zM975 0h-154q-8 0 -8 10l-6 92q0 8 -8 9q-8 0 -13 -7
q-40 -47 -120 -86t-170 -38q-444 0 -363 483l100 563q4 10 13 10h174q12 0 8 -10l-100 -563q-23 -131 27 -220q51 -89 183 -89t222 91t110 218l101 563q4 10 12 10h174q12 0 8 -10l-178 -1016q-4 -10 -12 -10z" />
    <glyph glyph-name="Umacron" unicode="&#x16a;" horiz-adv-x="1312" 
d="M1090 1604h-504q-6 0 -6 10l22 119q0 10 8 10h504q10 0 10 -10l-22 -119q0 -10 -12 -10zM585 154q129 0 241 101t135 234l165 943q4 10 13 10h174q12 0 8 -10l-166 -943q-37 -213 -212 -361t-388 -148t-337 148t-87 361l166 943q4 10 12 10h174q13 0 9 -10l-166 -943
q-23 -133 53 -234t206 -101z" />
    <glyph glyph-name="umacron" unicode="&#x16b;" horiz-adv-x="1185" 
d="M977 1206h-504q-6 0 -6 11l22 118q0 10 9 11h503q10 0 11 -11l-23 -118q0 -11 -12 -11zM975 0h-154q-8 0 -8 10l-6 92q0 8 -8 9q-8 0 -13 -7q-40 -47 -120 -86t-170 -38q-444 0 -363 483l100 563q4 10 13 10h174q12 0 8 -10l-100 -563q-23 -131 27 -220q51 -89 183 -89
t222 91t110 218l101 563q4 10 12 10h174q12 0 8 -10l-178 -1016q-4 -10 -12 -10z" />
    <glyph glyph-name="Ubreve" unicode="&#x16c;" horiz-adv-x="1312" 
d="M973 1839h129q8 0 8 -10q-20 -117 -100 -171t-174 -54t-154 54q-59 54 -39 171q0 10 12 10h127q8 0 9 -10q-6 -39 16 -59q23 -19 55 -19q84 0 99 78q0 10 12 10zM585 154q129 0 241 101t135 234l165 943q4 10 13 10h174q12 0 8 -10l-166 -943q-37 -213 -212 -361
t-388 -148t-337 148t-87 361l166 943q4 10 12 10h174q13 0 9 -10l-166 -943q-23 -133 53 -234t206 -101z" />
    <glyph glyph-name="ubreve" unicode="&#x16d;" horiz-adv-x="1185" 
d="M860 1442h129q8 0 8 -10q-20 -117 -100 -171q-80 -55 -174 -55q-93 0 -153 54t-40 172q0 10 13 10h127q8 0 8 -10q-6 -39 16 -59q23 -19 56 -19q84 0 98 78q0 10 12 10zM975 0h-154q-8 0 -8 10l-6 92q0 8 -8 9q-8 0 -13 -7q-40 -47 -120 -86t-170 -38q-444 0 -363 483
l100 563q4 10 13 10h174q12 0 8 -10l-100 -563q-23 -131 27 -220q51 -89 183 -89t222 91t110 218l101 563q4 10 12 10h174q12 0 8 -10l-178 -1016q-4 -10 -12 -10z" />
    <glyph glyph-name="Uring" unicode="&#x16e;" horiz-adv-x="1312" 
d="M870 1780q-38 0 -70 -27t-39 -65t15 -66q22 -27 62 -27t70 27t38 66q6 40 -16 66t-60 26zM885 1868q73 0 117 -53t31 -127t-75 -126t-137 -52t-117 52t-28 126q12 74 74 127t135 53zM585 154q129 0 241 101t135 234l165 943q4 10 13 10h174q12 0 8 -10l-166 -943
q-37 -213 -212 -361t-388 -148t-337 148t-87 361l166 943q4 10 12 10h174q13 0 9 -10l-166 -943q-23 -133 53 -234t206 -101z" />
    <glyph glyph-name="uring" unicode="&#x16f;" horiz-adv-x="1185" 
d="M811 1280q6 39 -15 66q-22 26 -61 26t-71 -26t-38 -66q-6 -39 16 -66q22 -26 60 -26t70 26q31 26 39 66zM686 1102q-74 0 -117 52t-28 126q12 74 73 127q62 53 136 53t118 -53t30 -127t-76 -126t-136 -52zM975 0h-154q-8 0 -8 10l-6 92q0 8 -8 9q-8 0 -13 -7
q-40 -47 -120 -86t-170 -38q-444 0 -363 483l100 563q4 10 13 10h174q12 0 8 -10l-100 -563q-23 -131 27 -220q51 -89 183 -89t222 91t110 218l101 563q4 10 12 10h174q12 0 8 -10l-178 -1016q-4 -10 -12 -10z" />
    <glyph glyph-name="Uhungarumlaut" unicode="&#x170;" horiz-adv-x="1312" 
d="M1155 1554h-223q-10 0 -6 11l106 270q0 10 15 10h223q6 0 6 -10l-107 -270q-4 -11 -14 -11zM705 1554h-224q-10 0 -6 11l107 270q0 10 14 10h223q6 0 6 -10l-106 -270q-4 -11 -14 -11zM585 154q129 0 241 101t135 234l165 943q4 10 13 10h174q12 0 8 -10l-166 -943
q-37 -213 -212 -361t-388 -148t-337 148t-87 361l166 943q4 10 12 10h174q13 0 9 -10l-166 -943q-23 -133 53 -234t206 -101z" />
    <glyph glyph-name="uhungarumlaut" unicode="&#x171;" horiz-adv-x="1185" 
d="M1022 1151h-223q-10 0 -6 10l106 271q0 10 14 10h224q6 0 6 -10l-107 -271q-4 -10 -14 -10zM571 1151h-223q-10 0 -6 10l107 271q0 10 14 10h223q6 0 6 -10l-106 -271q-5 -10 -15 -10zM975 0h-154q-8 0 -8 10l-6 92q0 8 -8 9q-8 0 -13 -7q-40 -47 -120 -86t-170 -38
q-444 0 -363 483l100 563q4 10 13 10h174q12 0 8 -10l-100 -563q-23 -131 27 -220q51 -89 183 -89t222 91t110 218l101 563q4 10 12 10h174q12 0 8 -10l-178 -1016q-4 -10 -12 -10z" />
    <glyph glyph-name="Uogonek" unicode="&#x172;" horiz-adv-x="1312" 
d="M601 154q130 0 242 101t134 234l166 943q4 10 12 10h174q12 0 8 -10l-166 -943q-43 -256 -282 -415q-12 -8 -48 -30q-104 -63 -130 -116q-13 -24 -21 -70t27 -78t102 -32h29q8 0 8 -10l-25 -133q0 -10 -12 -11h-49q-124 0 -188 54t-51 147q13 92 87 166q8 8 7 15
q-3 8 -17 6t-37 -2q-213 0 -337 148t-87 361l166 943q4 10 13 10h174q12 0 8 -10l-166 -943q-23 -133 53 -234t206 -101z" />
    <glyph glyph-name="uogonek" unicode="&#x173;" horiz-adv-x="1185" 
d="M991 0h-35q-59 0 -106 -38t-57 -94q-11 -56 23 -88t102 -32h28q12 0 8 -10l-22 -133q-4 -10 -12 -11h-50q-122 0 -188 54t-51 149q29 152 186 203q10 4 10 16l-2 86q0 8 -9 8t-13 -6q-41 -47 -121 -86t-170 -38q-238 0 -318 132t-42 351l98 563q4 10 12 10h174
q12 0 8 -10l-98 -563q-24 -131 26 -220t182 -89t222 91t113 218l98 563q4 10 12 10h175q12 0 8 -10l-178 -1016q-5 -10 -13 -10z" />
    <glyph glyph-name="Wcircumflex" unicode="&#x174;" horiz-adv-x="1982" 
d="M1376 1604h-119q-8 0 -14 8l-45 84q-8 18 -22 0l-74 -84q-6 -8 -19 -8h-118q-16 0 -7 14l127 213q6 8 13 8h229q10 0 12 -8l52 -213q3 -14 -15 -14zM1853 1442h187q12 0 10 -10l-534 -1422q-4 -10 -15 -10h-311q-4 0 -8 10l-47 1225q-1 8 -9 8t-12 -8l-481 -1225
q-4 -10 -12 -10h-312q-6 0 -10 10l-31 1422q-2 10 15 10h186q4 0 8 -10l8 -1227q-1 -13 9 -9q10 3 12 9l471 1227q4 10 12 10h344q4 0 8 -10l37 -1227q0 -13 10 -9q10 3 11 9l442 1227q4 10 12 10z" />
    <glyph glyph-name="wcircumflex" unicode="&#x175;" horiz-adv-x="1699" 
d="M1204 1206h-119q-8 0 -14 8l-45 84q-8 18 -22 0l-74 -84q-6 -8 -19 -8h-118q-16 0 -7 15l127 213q6 8 13 8h229q10 0 12 -8l52 -213q3 -15 -15 -15zM1274 0h-260q-4 0 -8 10l-56 817q0 8 -8 9q-8 0 -12 -9l-340 -817q-4 -10 -12 -10h-261q-6 0 -10 10l-63 1016
q-2 10 12 10h174q6 0 10 -10l33 -823q0 -8 9 -8t12 8l348 823q4 10 10 10h252q6 0 10 -10l57 -823q1 -8 9 -8t12 8l324 823q4 10 10 10h174q14 0 12 -10l-424 -1016q-4 -10 -14 -10z" />
    <glyph glyph-name="Ycircumflex" unicode="&#x176;" horiz-adv-x="1390" 
d="M1120 1604h-119q-8 0 -14 8l-45 84q-8 18 -22 0l-74 -84q-6 -8 -19 -8h-118q-16 0 -7 14l127 213q6 8 13 8h229q10 0 12 -8l52 -213q3 -14 -15 -14zM698 0h-174q-8 0 -8 10l109 611q0 6 -7 20l-344 791q-6 10 9 10h206q8 0 15 -10l246 -584q10 -14 20 0l457 584
q8 10 22 10h203q10 0 4 -10l-627 -791q-10 -12 -10 -20l-108 -611q0 -10 -13 -10z" />
    <glyph glyph-name="ycircumflex" unicode="&#x177;" horiz-adv-x="1148" 
d="M848 1206h-119q-8 0 -14 8l-45 84q-8 18 -23 0l-74 -84q-6 -8 -18 -8h-119q-16 0 -6 15l127 213q6 8 12 8h230q10 0 12 -8l51 -213q4 -15 -14 -15zM248 -231q88 0 128 51t25 135l-176 1071q0 10 15 10h186q8 0 8 -10l123 -823q2 -8 9 -8t12 8l415 823q6 10 13 10h186
q14 0 8 -10l-620 -1204q-70 -129 -139 -178t-189 -50h-264q-12 0 -8 11l24 153q4 10 12 11h232z" />
    <glyph glyph-name="Ydieresis" unicode="&#x178;" horiz-adv-x="1390" 
d="M1241 1610h-215q-8 0 -8 10l39 213q0 10 12 10h215q8 0 8 -10l-39 -213q0 -10 -12 -10zM741 1610h-215q-8 0 -8 10l39 213q0 10 12 10h215q9 0 9 -10l-39 -213q0 -10 -13 -10zM698 0h-174q-8 0 -8 10l109 611q0 6 -7 20l-344 791q-6 10 9 10h206q8 0 15 -10l246 -584
q10 -14 20 0l457 584q8 10 22 10h203q10 0 4 -10l-627 -791q-10 -12 -10 -20l-108 -611q0 -10 -13 -10z" />
    <glyph glyph-name="Zacute" unicode="&#x179;" horiz-adv-x="1198" 
d="M756 1604h-117q-16 0 -6 14l123 207q10 14 24 14h178q16 0 7 -14l-183 -207q-14 -14 -26 -14zM221 1268q-10 0 -10 10l29 154q0 10 12 10h1003q8 0 9 -10l-27 -144q-2 -20 -8 -26l-975 -1078q-6 -10 2 -10h774q10 0 10 -10l-28 -154q0 -10 -13 -10h-1001q-8 0 -8 10
l24 144q2 18 11 26l970 1075q8 12 -2 13h-772z" />
    <glyph glyph-name="zacute" unicode="&#x17a;" horiz-adv-x="999" 
d="M608 1206h-116q-16 0 -7 15l123 206q10 14 25 15h178q16 0 6 -15l-182 -206q-15 -15 -27 -15zM705 862h-517q-8 0 -8 10l29 154q0 10 10 10h756q10 0 10 -10l-29 -154q0 -6 -10 -20l-661 -662q-6 -4 -4 -10t8 -6h561q12 0 8 -10l-27 -154q0 -10 -12 -10h-805q-8 0 -8 10
l27 154q2 4 12 20l666 662q4 2 2 9t-8 7z" />
    <glyph glyph-name="Zdotaccent" unicode="&#x17b;" horiz-adv-x="1198" 
d="M850 1642h-264q-8 0 -8 11l47 270q4 10 12 10h264q12 0 8 -10l-47 -270q0 -11 -12 -11zM221 1268q-10 0 -10 10l29 154q0 10 12 10h1003q8 0 9 -10l-27 -144q-2 -20 -8 -26l-975 -1078q-6 -10 2 -10h774q10 0 10 -10l-28 -154q0 -10 -13 -10h-1001q-8 0 -8 10l24 144
q2 18 11 26l970 1075q8 12 -2 13h-772z" />
    <glyph glyph-name="zdotaccent" unicode="&#x17c;" horiz-adv-x="999" 
d="M737 1151h-264q-12 0 -8 10l47 271q0 10 12 10h264q8 0 9 -10l-47 -271q-5 -10 -13 -10zM705 862h-517q-8 0 -8 10l29 154q0 10 10 10h756q10 0 10 -10l-29 -154q0 -6 -10 -20l-661 -662q-6 -4 -4 -10t8 -6h561q12 0 8 -10l-27 -154q0 -10 -12 -10h-805q-8 0 -8 10
l27 154q2 4 12 20l666 662q4 2 2 9t-8 7z" />
    <glyph glyph-name="Zcaron" unicode="&#x17d;" horiz-adv-x="1198" 
d="M885 1845h116q16 0 9 -14l-125 -213q-4 -8 -17 -8h-227q-8 0 -10 8l-53 213q-4 14 14 14h117q12 0 16 -8l47 -84q8 -14 23 0l71 84q9 8 19 8zM221 1268q-10 0 -10 10l29 154q0 10 12 10h1003q8 0 9 -10l-27 -144q-2 -20 -8 -26l-975 -1078q-6 -10 2 -10h774q10 0 10 -10
l-28 -154q0 -10 -13 -10h-1001q-8 0 -8 10l24 144q2 18 11 26l970 1075q8 12 -2 13h-772z" />
    <glyph glyph-name="zcaron" unicode="&#x17e;" horiz-adv-x="999" 
d="M723 1442h117q16 0 8 -15l-125 -213q-4 -8 -16 -8h-228q-8 0 -10 8l-53 213q-4 14 14 15h117q12 0 16 -8l47 -84q8 -14 23 0l72 84q8 8 18 8zM705 862h-517q-8 0 -8 10l29 154q0 10 10 10h756q10 0 10 -10l-29 -154q0 -6 -10 -20l-661 -662q-6 -4 -4 -10t8 -6h561
q12 0 8 -10l-27 -154q0 -10 -12 -10h-805q-8 0 -8 10l27 154q2 4 12 20l666 662q4 2 2 9t-8 7z" />
    <glyph glyph-name="longs" unicode="&#x17f;" horiz-adv-x="747" 
d="M817 1268h-135q-45 0 -76 -28t-39 -75l-205 -1155q0 -10 -12 -10h-174q-8 0 -8 10l154 862q0 10 -11 11h-182q-8 0 -8 10l24 133q0 10 13 10h182q8 0 12 11l27 153q43 248 332 242h137q8 0 8 -10l-29 -154q0 -10 -10 -10z" />
    <glyph glyph-name="florin" unicode="&#x192;" horiz-adv-x="1064" 
d="M55 -231q111 0 148 102l370 1003q4 8 -6 9h-182q-10 0 -6 10l51 133q0 10 12 10h183q10 0 14 11l57 153q90 248 377 242h137q12 0 7 -10l-56 -154q-4 -10 -14 -10h-135q-96 0 -133 -103l-45 -118q-4 -10 6 -11h221q8 0 8 -10l-51 -133q-4 -10 -14 -10h-222q-8 0 -14 -11
l-383 -1036q-90 -248 -356 -242h-156q-10 1 -6 11l55 153q6 10 15 11h118z" />
    <glyph glyph-name="uni0218" unicode="&#x218;" horiz-adv-x="1290" 
d="M502 -274h-45q-10 0 -11 10l27 141q0 10 10 10h140q10 0 10 -10l-27 -145q-12 -70 -60 -114t-116 -44q-10 0 -10 10l12 60q0 10 15 10t36 16q20 16 27 45q0 11 -8 11zM287 406q14 0 10 -13q-17 -88 61 -164q78 -75 237 -75t264 72t124 180q24 133 -74 182q-82 42 -194 53
q-111 13 -171 25t-131 42t-112 70t-62 111q-22 70 -6 162q33 186 202 299q169 112 374 112t334 -108t102 -307q0 -10 -12 -11h-184q-9 1 -9 11q18 104 -56 173q-75 68 -204 68t-227 -68t-117 -179q-19 -112 81 -153q76 -33 184 -46q107 -12 173 -26t139 -44q73 -31 113 -75
q40 -45 58 -119q20 -74 4 -172q-31 -174 -189 -300t-423 -126t-390 120t-94 295q4 10 12 11h183z" />
    <glyph glyph-name="uni0219" unicode="&#x219;" horiz-adv-x="1101" 
d="M436 -274h-45q-8 0 -8 10l25 141q4 10 12 10h139q12 0 8 -10l-24 -145q-11 -70 -61 -114t-117 -44q-8 0 -9 10l11 60q4 10 18 10t35 16q20 16 24 36t-8 20zM1051 686h-177q-12 0 -8 10q16 86 -42 136t-174 51q-116 0 -179 -39q-90 -56 -72 -135q5 -25 33 -43
q42 -28 136 -40q246 -28 337 -69q147 -70 117 -243t-168 -254q-137 -80 -351 -80t-316 102q-101 102 -74 258q4 10 12 10h172q14 0 10 -10q-13 -78 51 -132t185 -54q256 0 284 155q12 76 -70 105q-82 30 -163 30q-256 26 -330 96q-33 30 -52 84t-7 128q23 129 152 217
q130 88 323 88q192 0 302 -93t79 -268q-4 -10 -10 -10z" />
    <glyph glyph-name="uni021A" unicode="&#x21a;" horiz-adv-x="1150" 
d="M614 1268h-395q-10 0 -10 10l29 154q0 10 12 10h1005q8 0 9 -10l-29 -154q0 -10 -10 -10h-396q-12 0 -12 -11l-221 -1247q0 -10 -12 -10h-174q-9 0 -9 10l222 1250q-4 8 -9 8zM487 -274h-45q-8 0 -8 10l25 141q4 10 12 10h139q12 0 8 -10l-24 -145q-12 -70 -62 -114
t-116 -44q-8 0 -8 10l10 60q4 10 18 10t35 16q20 16 27 45q-1 11 -11 11z" />
    <glyph glyph-name="uni021B" unicode="&#x21b;" horiz-adv-x="768" 
d="M621 0h-158q-131 -4 -190 56q-58 60 -35 186l110 630q0 10 -8 11h-182q-12 0 -8 10l22 133q4 10 12 10h183q8 0 12 11l49 276q0 10 12 10h174q8 0 9 -10l-50 -276q-4 -10 9 -11h221q12 0 8 -10l-23 -133q-4 -10 -12 -10h-221q-12 0 -12 -11l-105 -596q-20 -102 92 -102
h121q8 0 8 -10l-26 -154q-4 -10 -12 -10zM375 -274h-45q-8 0 -8 10l24 141q4 10 12 10h140q12 0 8 -10l-25 -145q-12 -70 -61 -114t-117 -44q-8 0 -8 10l10 60q4 10 18 10t35 16q20 16 27 45q0 11 -10 11z" />
    <glyph glyph-name="circumflex" unicode="&#x2c6;" horiz-adv-x="671" 
d="M610 1206h-118q-8 0 -15 8l-45 84q-8 18 -22 0l-74 -84q-6 -8 -19 -8h-118q-16 0 -6 15l126 213q6 8 13 8h229q10 0 12 -8l52 -213q3 -15 -15 -15z" />
    <glyph glyph-name="caron" unicode="&#x2c7;" horiz-adv-x="671" 
d="M535 1442h116q16 0 8 -15l-124 -213q-4 -8 -17 -8h-227q-8 0 -10 8l-54 213q-4 14 15 15h116q12 0 17 -8l47 -84q8 -14 22 0l72 84q9 8 19 8z" />
    <glyph glyph-name="uni02C9" unicode="&#x2c9;" horiz-adv-x="790" 
d="M719 1206h-504q-6 0 -6 11l22 118q0 10 9 11h503q10 0 11 -11l-23 -118q0 -11 -12 -11z" />
    <glyph glyph-name="breve" unicode="&#x2d8;" horiz-adv-x="727" 
d="M555 1442h129q8 0 8 -10q-20 -117 -100 -171q-80 -55 -174 -55t-154 54t-39 172q0 10 13 10h127q8 0 8 -10q-6 -39 16 -59q23 -19 55 -19q84 0 99 78q0 10 12 10z" />
    <glyph glyph-name="dotaccent" unicode="&#x2d9;" horiz-adv-x="536" 
d="M451 1151h-265q-12 0 -8 10l47 271q0 10 13 10h264q8 0 8 -10l-47 -271q-4 -10 -12 -10z" />
    <glyph glyph-name="ring" unicode="&#x2da;" horiz-adv-x="544" 
d="M440 1280q6 39 -15 66q-23 26 -61 26t-70 -26t-39 -66q-7 -39 15 -66q22 -26 62 -26t70 26t38 66zM316 1102q-74 0 -118 52q-42 52 -28 126q12 74 74 127t135 53t117 -53t31 -127t-75 -126t-136 -52z" />
    <glyph glyph-name="ogonek" unicode="&#x2db;" horiz-adv-x="563" 
d="M440 20q10 0 11 -10q-4 -10 -13 -10h-12q-62 0 -114 -38t-62 -94t24 -88t101 -32h28q12 0 9 -10l-23 -133q-4 -10 -12 -11h-49q-123 0 -189 54q-67 54 -51 154q16 98 112 160t228 58h12z" />
    <glyph glyph-name="tilde" unicode="&#x2dc;" horiz-adv-x="935" 
d="M729 1442h123q8 0 8 -10l-10 -50q-12 -66 -72 -120t-168 -54q-60 0 -122 47t-76 47q-48 2 -63 -25t-18 -47t-16 -22h-122q-9 1 -9 11l9 47q14 68 73 122t152 54t176 -71q27 -23 40 -23q49 2 63 27q13 25 17 46t15 21z" />
    <glyph glyph-name="hungarumlaut" unicode="&#x2dd;" horiz-adv-x="919" 
d="M817 1151h-223q-10 0 -6 10l106 271q0 10 15 10h223q6 0 6 -10l-107 -271q-4 -10 -14 -10zM367 1151h-224q-10 0 -6 10l107 271q0 10 14 10h223q6 0 6 -10l-106 -271q-4 -10 -14 -10z" />
    <glyph glyph-name="uni0394" unicode="&#x394;" horiz-adv-x="1454" 
d="M326 174h682q14 0 14 14l-154 1051q-2 8 -9 8t-11 -8l-529 -1053q-8 -12 7 -12zM1196 0h-1120q-8 0 -8 10l26 150q4 12 10 18l648 1254q4 10 14 10h260q4 0 8 -10l199 -1252q0 -2 2 -9t0 -11l-27 -150q0 -10 -12 -10z" />
    <glyph glyph-name="uni03A9" unicode="&#x3a9;" 
d="M76 96l465 625l-246 625zM594 721l244 -623l219 1245q-373 -497 -463 -622zM94 49h709l-246 625zM575 768l465 627h-708zM858 0h-842q-8 0 -8 10l252 1422q0 10 12 10h842q8 0 8 -10l-252 -1422q0 -10 -12 -10z" />
    <glyph glyph-name="uni03BC" unicode="&#x3bc;" 
d="M76 96l465 625l-246 625zM594 721l244 -623l219 1245q-373 -497 -463 -622zM94 49h709l-246 625zM575 768l465 627h-708zM858 0h-842q-8 0 -8 10l252 1422q0 10 12 10h842q8 0 8 -10l-252 -1422q0 -10 -12 -10z" />
    <glyph glyph-name="pi" unicode="&#x3c0;" 
d="M76 96l465 625l-246 625zM594 721l244 -623l219 1245q-373 -497 -463 -622zM94 49h709l-246 625zM575 768l465 627h-708zM858 0h-842q-8 0 -8 10l252 1422q0 10 12 10h842q8 0 8 -10l-252 -1422q0 -10 -12 -10z" />
    <glyph glyph-name="Wgrave" unicode="&#x1e80;" horiz-adv-x="1982" 
d="M1247 1604h-117q-14 0 -18 14l-113 207q-4 14 15 14h178q16 0 16 -14l54 -207q3 -14 -15 -14zM1853 1442h187q12 0 10 -10l-534 -1422q-4 -10 -15 -10h-311q-4 0 -8 10l-47 1225q-1 8 -9 8t-12 -8l-481 -1225q-4 -10 -12 -10h-312q-6 0 -10 10l-31 1422q-2 10 15 10h186
q4 0 8 -10l8 -1227q-1 -13 9 -9q10 3 12 9l471 1227q4 10 12 10h344q4 0 8 -10l37 -1227q0 -13 10 -9q10 3 11 9l442 1227q4 10 12 10z" />
    <glyph glyph-name="wgrave" unicode="&#x1e81;" horiz-adv-x="1699" 
d="M1096 1206h-117q-14 0 -18 15l-113 206q-4 14 14 15h178q16 0 17 -15l53 -206q4 -15 -14 -15zM1274 0h-260q-4 0 -8 10l-56 817q0 8 -8 9q-8 0 -12 -9l-340 -817q-4 -10 -12 -10h-261q-6 0 -10 10l-63 1016q-2 10 12 10h174q6 0 10 -10l33 -823q0 -8 9 -8t12 8l348 823
q4 10 10 10h252q6 0 10 -10l57 -823q1 -8 9 -8t12 8l324 823q4 10 10 10h174q14 0 12 -10l-424 -1016q-4 -10 -14 -10z" />
    <glyph glyph-name="Wacute" unicode="&#x1e82;" horiz-adv-x="1982" 
d="M1210 1604h-116q-16 0 -7 14l123 207q10 14 25 14h178q16 0 6 -14l-182 -207q-15 -14 -27 -14zM1853 1442h187q12 0 10 -10l-534 -1422q-4 -10 -15 -10h-311q-4 0 -8 10l-47 1225q-1 8 -9 8t-12 -8l-481 -1225q-4 -10 -12 -10h-312q-6 0 -10 10l-31 1422q-2 10 15 10h186
q4 0 8 -10l8 -1227q-1 -13 9 -9q10 3 12 9l471 1227q4 10 12 10h344q4 0 8 -10l37 -1227q0 -13 10 -9q10 3 11 9l442 1227q4 10 12 10z" />
    <glyph glyph-name="wacute" unicode="&#x1e83;" horiz-adv-x="1699" 
d="M1059 1206h-117q-16 0 -6 15l123 206q10 14 24 15h179q16 0 6 -15l-183 -206q-14 -15 -26 -15zM1274 0h-260q-4 0 -8 10l-56 817q0 8 -8 9q-8 0 -12 -9l-340 -817q-4 -10 -12 -10h-261q-6 0 -10 10l-63 1016q-2 10 12 10h174q6 0 10 -10l33 -823q0 -8 9 -8t12 8l348 823
q4 10 10 10h252q6 0 10 -10l57 -823q1 -8 9 -8t12 8l324 823q4 10 10 10h174q14 0 12 -10l-424 -1016q-4 -10 -14 -10z" />
    <glyph glyph-name="Wdieresis" unicode="&#x1e84;" horiz-adv-x="1982" 
d="M1532 1698h-215q-10 0 -10 10l39 215q0 10 12 10h215q8 0 8 -10l-39 -215q0 -10 -10 -10zM1032 1698h-215q-10 0 -10 10l39 215q0 10 12 10h215q8 0 8 -10l-39 -215q0 -10 -10 -10zM1853 1442h187q12 0 10 -10l-534 -1422q-4 -10 -15 -10h-311q-4 0 -8 10l-47 1225
q-1 8 -9 8t-12 -8l-481 -1225q-4 -10 -12 -10h-312q-6 0 -10 10l-31 1422q-2 10 15 10h186q4 0 8 -10l8 -1227q-1 -13 9 -9q10 3 12 9l471 1227q4 10 12 10h344q4 0 8 -10l37 -1227q0 -13 10 -9q10 3 11 9l442 1227q4 10 12 10z" />
    <glyph glyph-name="wdieresis" unicode="&#x1e85;" horiz-adv-x="1699" 
d="M1143 1208q-8 0 -8 11l39 213q0 10 12 10h215q8 0 8 -10l-39 -213q0 -10 -12 -11h-215zM643 1208q-8 0 -8 11l39 213q0 10 12 10h215q8 0 8 -10l-39 -213q0 -10 -12 -11h-215zM1274 0h-260q-4 0 -8 10l-56 817q0 8 -8 9q-8 0 -12 -9l-340 -817q-4 -10 -12 -10h-261
q-6 0 -10 10l-63 1016q-2 10 12 10h174q6 0 10 -10l33 -823q0 -8 9 -8t12 8l348 823q4 10 10 10h252q6 0 10 -10l57 -823q1 -8 9 -8t12 8l324 823q4 10 10 10h174q14 0 12 -10l-424 -1016q-4 -10 -14 -10z" />
    <glyph glyph-name="endash" unicode="&#x2013;" horiz-adv-x="1474" 
d="M1196 432h-911q-8 0 -9 10l29 154q0 10 10 10h912q10 0 10 -10l-29 -154q0 -10 -12 -10z" />
    <glyph glyph-name="emdash" unicode="&#x2014;" horiz-adv-x="2039" 
d="M1761 432h-1476q-8 0 -9 10l29 154q0 10 10 10h1477q10 0 10 -10l-28 -154q-1 -10 -13 -10z" />
    <glyph glyph-name="quoteleft" unicode="&#x2018;" horiz-adv-x="432" 
d="M319 1190h91q12 0 8 -10l-51 -287q0 -10 -11 -10h-245q-10 0 -11 10l52 285q20 116 104 190t199 74q8 0 8 -10l-21 -113q0 -10 -24 -10t-61 -30q-38 -30 -46 -79q-4 -10 8 -10z" />
    <glyph glyph-name="quoteright" unicode="&#x2019;" horiz-adv-x="432" 
d="M244 1135h-90q-8 0 -9 10l52 287q0 10 12 10h246q8 0 8 -10l-51 -285q-20 -117 -104 -191t-197 -73q-10 0 -11 10l21 113q3 10 25 10t60 30t46 78q4 11 -8 11z" />
    <glyph glyph-name="quotesinglbase" unicode="&#x201a;" horiz-adv-x="555" 
d="M207 0h-90q-8 0 -8 10l45 250q0 10 10 10h246q10 0 10 -10l-45 -248q-21 -116 -105 -190t-198 -74q-8 0 -9 10l21 113q4 10 26 10t59 30q38 30 46 79q4 10 -8 10z" />
    <glyph glyph-name="quotedblleft" unicode="&#x201c;" horiz-adv-x="800" 
d="M319 1190h91q12 0 8 -10l-51 -287q0 -10 -11 -10h-245q-10 0 -11 10l52 285q20 116 104 190t199 74q8 0 8 -10l-21 -113q0 -10 -24 -10t-61 -30q-38 -30 -46 -79q-4 -10 8 -10zM688 1190h90q12 0 8 -10l-51 -287q0 -10 -10 -10h-246q-10 0 -10 10l51 285q20 116 104 190
t199 74q8 0 8 -10l-20 -113q1 -10 -23 -10t-62 -30t-46 -79q-4 -10 8 -10z" />
    <glyph glyph-name="quotedblright" unicode="&#x201d;" horiz-adv-x="800" 
d="M612 1135h-90q-8 0 -8 10l51 287q0 10 13 10h245q8 0 8 -10l-51 -285q-20 -117 -104 -191t-197 -73q-10 0 -10 10l20 113q4 10 26 10q21 0 59 30t47 78q3 11 -9 11zM244 1135h-90q-8 0 -9 10l52 287q0 10 12 10h246q8 0 8 -10l-51 -285q-20 -117 -104 -191t-197 -73
q-10 0 -11 10l21 113q3 10 25 10t60 30t46 78q4 11 -8 11z" />
    <glyph glyph-name="quotedblbase" unicode="&#x201e;" horiz-adv-x="909" 
d="M203 0h-150q-12 0 -8 10l55 312q0 10 11 10h305q10 0 10 -10l-55 -310q-19 -112 -109 -188t-254 -76q-8 0 -8 10l20 113q0 10 13 10q84 0 127 32t51 77q0 10 -8 10zM621 0h-150q-12 0 -8 10l55 312q0 10 10 10h306q10 0 10 -10l-56 -310q-20 -112 -109 -188t-253 -76
q-12 0 -8 10l20 113q0 10 13 10q84 0 127 32t51 77q0 10 -8 10z" />
    <glyph glyph-name="dagger" unicode="&#x2020;" horiz-adv-x="1183" 
d="M193 1036h401q12 0 12 11l70 387q0 10 12 10h174q8 0 8 -10l-69 -387q0 -10 8 -11h401q10 0 11 -10l-31 -174q-4 -10 -12 -10h-402q-12 0 -12 -11l-217 -1226q0 -10 -12 -11h-175q-8 0 -8 11l217 1226q0 10 -8 11h-401q-12 0 -8 10l30 174q1 10 11 10z" />
    <glyph glyph-name="daggerdbl" unicode="&#x2021;" horiz-adv-x="1183" 
d="M412 2h-402q-8 0 -8 10l31 174q4 10 12 11h401q8 0 13 10l110 624q0 10 -8 11h-401q-12 0 -8 10l30 174q0 10 11 10h401q12 0 12 11l70 387q0 10 12 10h174q8 0 8 -10l-69 -387q0 -10 8 -11h401q10 0 11 -10l-31 -174q-4 -10 -12 -10h-402q-12 0 -12 -11l-111 -624
q-4 -10 9 -10h401q12 0 8 -11l-31 -174q0 -10 -12 -10h-401q-8 0 -13 -10l-67 -387q0 -10 -12 -11h-175q-8 0 -8 11l68 387q4 10 -8 10z" />
    <glyph glyph-name="bullet" unicode="&#x2022;" horiz-adv-x="1619" 
d="M924 1057q224 0 354 -158q129 -158 90 -381t-224 -381q-186 -157 -410 -157t-354 156t-89 382q41 225 225 382t408 157z" />
    <glyph glyph-name="ellipsis" unicode="&#x2026;" horiz-adv-x="1392" 
d="M1190 0h-246q-12 0 -8 10l43 250q4 10 12 10h246q12 0 8 -10l-43 -250q-4 -10 -12 -10zM772 0h-246q-12 0 -8 10l43 250q4 10 12 10h246q12 0 8 -10l-43 -250q-4 -10 -12 -10zM352 0h-246q-12 0 -8 10l43 250q4 10 13 10h245q12 0 9 -10l-43 -250q-5 -10 -13 -10z" />
    <glyph glyph-name="perthousand" unicode="&#x2030;" horiz-adv-x="2441" 
d="M1389 1442h143q16 0 4 -17l-1122 -1421q-4 -4 -11 -4h-139q-16 0 -4 16l1118 1422q4 4 11 4zM2034 670q-170 0 -219 -282t121 -282t218 282q50 282 -120 282zM2056 797q302 0 230 -409t-373 -408q-303 0 -231 408t374 409zM483 772q170 0 220 282t-121 281
q-90 0 -142 -70q-51 -71 -78 -210q-49 -283 121 -283zM460 645q-302 0 -230 409t374 408q302 1 230 -408t-374 -409zM1317 670q-170 0 -219 -282t121 -282t219 282t-121 282zM1339 797q302 0 230 -409t-373 -408q-303 0 -231 408t374 409z" />
    <glyph glyph-name="guilsinglleft" unicode="&#x2039;" horiz-adv-x="841" 
d="M674 0h-152q-8 0 -8 6l-346 504q-4 10 4 18l522 504q2 6 13 6h151q16 0 6 -14l-520 -496q-8 -8 -4 -18l346 -496q4 -14 -12 -14z" />
    <glyph glyph-name="guilsinglright" unicode="&#x203a;" horiz-adv-x="841" 
d="M268 1038h152q6 0 8 -6l346 -504q4 -10 -4 -18l-522 -504q-6 -6 -12 -6h-152q-12 0 -8 14l522 496q8 8 4 18l-348 496q0 14 14 14z" />
    <glyph glyph-name="fraction" unicode="&#x2044;" horiz-adv-x="1314" 
d="M1135 1442h110q16 0 4 -17l-1122 -1421q-4 -4 -10 -4h-107q-16 0 -4 16l1118 1422q4 4 11 4z" />
    <glyph glyph-name="franc" unicode="&#x20a3;" 
d="M76 96l465 625l-246 625zM594 721l244 -623l219 1245q-373 -497 -463 -622zM94 49h709l-246 625zM575 768l465 627h-708zM858 0h-842q-8 0 -8 10l252 1422q0 10 12 10h842q8 0 8 -10l-252 -1422q0 -10 -12 -10z" />
    <glyph glyph-name="lira" unicode="&#x20a4;" 
d="M76 96l465 625l-246 625zM594 721l244 -623l219 1245q-373 -497 -463 -622zM94 49h709l-246 625zM575 768l465 627h-708zM858 0h-842q-8 0 -8 10l252 1422q0 10 12 10h842q8 0 8 -10l-252 -1422q0 -10 -12 -10z" />
    <glyph glyph-name="peseta" unicode="&#x20a7;" 
d="M76 96l465 625l-246 625zM594 721l244 -623l219 1245q-373 -497 -463 -622zM94 49h709l-246 625zM575 768l465 627h-708zM858 0h-842q-8 0 -8 10l252 1422q0 10 12 10h842q8 0 8 -10l-252 -1422q0 -10 -12 -10z" />
    <glyph glyph-name="Euro" unicode="&#x20ac;" horiz-adv-x="1433" 
d="M244 471h-156q-10 0 -4 10l68 154q6 10 14 10h84q8 0 12 10q0 68 27 154q4 10 -8 10h-131q-12 0 -7 10l68 154q6 10 16 10h113q12 0 12 8q190 461 637 461q127 0 208 -34t146 -107q8 -12 0 -29l-81 -164q-4 -6 -10 -6t-7 6q-64 160 -302 160q-262 0 -384 -284
q-6 -10 8 -11h615q12 0 6 -10l-70 -154q-6 -10 -14 -10h-598q-8 0 -12 -10q-27 -84 -27 -154q-4 -10 8 -10h541q12 0 6 -10l-70 -154q-6 -10 -14 -10h-467q-12 0 -12 -14q16 -303 301 -303q118 0 228 83t188 195q6 8 14 5t6 -11l-41 -233q-4 -16 -14 -29q-66 -80 -183 -132
t-229 -52q-233 0 -350 125t-125 352q0 14 -10 14z" />
    <glyph glyph-name="uni2113" unicode="&#x2113;" horiz-adv-x="1054" 
d="M771 1221q-56 0 -104 -42t-59 -100l-55 -313q0 -14 16 -6l260 221q47 41 57 99t-24 99q-35 42 -91 42zM780 434h178q10 0 11 -10l-17 -88q-25 -139 -140 -238q-116 -98 -247 -98t-210 77t-79 195l-266 -225q-16 -12 -16 4l43 250l6 12l274 234l95 532q25 139 140 238
q116 98 254 98t220 -97q82 -96 58 -236t-140 -240l-444 -379l-23 -127q-10 -57 24 -99t91 -42t104 41t58 100l16 88q0 10 10 10z" />
    <glyph glyph-name="trademark" unicode="&#x2122;" horiz-adv-x="954" 
d="M481 1368h-98q-8 0 -12 -10l-56 -311q0 -10 -12 -11h-53q-8 0 -8 11l55 311q4 10 -8 10h-96q-12 0 -9 10l9 54q4 10 10 10h291q12 0 8 -10l-8 -54q-5 -10 -13 -10zM852 1442h115q12 0 8 -10l-68 -385q0 -10 -12 -11h-53q-8 0 -8 11l55 315q2 4 -2 4t-8 -4l-138 -315
q-4 -10 -14 -11h-88q-6 0 -10 11l-27 315q0 6 -4 5t-6 -5l-55 -315q0 -10 -13 -11h-53q-8 0 -8 11l67 385q4 10 13 10h114q10 0 11 -10l24 -322q2 -6 10 0l136 322q6 10 14 10z" />
    <glyph glyph-name="Omega" unicode="&#x2126;" 
d="M76 96l465 625l-246 625zM594 721l244 -623l219 1245q-373 -497 -463 -622zM94 49h709l-246 625zM575 768l465 627h-708zM858 0h-842q-8 0 -8 10l252 1422q0 10 12 10h842q8 0 8 -10l-252 -1422q0 -10 -12 -10z" />
    <glyph glyph-name="estimated" unicode="&#x212e;" horiz-adv-x="1071" 
d="M643 975q-188 0 -340 -146l-51 -297q-4 -10 8 -10h608q8 0 13 10l51 299q-101 144 -289 144zM473 0q-186 0 -295 132t-76 319l19 104q33 186 188 319q156 134 341 134t295 -134t77 -319l-10 -57q-4 -10 -13 -11h-745q-12 0 -12 -10l-54 -299q96 -145 291 -145
q115 0 227 61t187 166q8 8 22 3q13 -5 5 -13q-78 -118 -198 -184t-249 -66z" />
    <glyph glyph-name="arrowleft" unicode="&#x2190;" horiz-adv-x="1556" 
d="M537 1036h153q8 0 9 -7t-5 -11l-291 -213q-14 -10 0 -10h1037q8 0 8 -11l-21 -110q0 -10 -12 -10h-1036q-12 0 -2 -11l215 -213q4 -4 1 -11t-11 -7h-154q-31 0 -43 12l-215 221q-8 8 -6 21l18 106q2 10 13 21l294 221q18 12 48 12z" />
    <glyph glyph-name="arrowup" unicode="&#x2191;" horiz-adv-x="911" 
d="M410 0h-111q-8 0 -8 10l215 1215q0 10 -10 0l-258 -252q-4 -6 -12 -4q-7 2 -5 10l27 154q6 33 20 45l267 256q8 8 22 8h107q10 0 18 -8l176 -256q10 -16 4 -45l-26 -154q-2 -8 -10 -10t-11 4l-168 252q-6 8 -10 0l-215 -1215q0 -10 -12 -10z" />
    <glyph glyph-name="arrowright" unicode="&#x2192;" horiz-adv-x="1556" 
d="M1073 422h-153q-13 0 -9 11q2 5 7 7l288 213q8 8 2 11h-1036q-8 0 -8 10l20 110q0 10 13 11h1036q14 0 0 10l-213 213q-6 4 -3 11t11 7h154q33 0 43 -12l217 -221q6 -6 4 -21l-19 -106q-2 -13 -10 -21l-297 -221q-16 -12 -47 -12z" />
    <glyph glyph-name="arrowdown" unicode="&#x2193;" horiz-adv-x="911" 
d="M408 0h-107q-10 0 -18 8l-177 256q-10 16 -4 45l27 154q2 8 10 10t11 -4l167 -252q6 -8 11 0l215 1215q0 10 12 10h111q8 0 8 -10l-215 -1215q0 -10 10 0l258 252q6 6 12 4t4 -10l-26 -154q-7 -33 -21 -45l-266 -256q-8 -8 -22 -8z" />
    <glyph glyph-name="carriagereturn" unicode="&#x21b5;" horiz-adv-x="1556" 
d="M1401 664h-1039q-4 0 -6 -4t4 -7l213 -213q5 -4 3 -11t-11 -7h-153q-31 0 -43 12l-217 221q-6 6 -5 21l19 106q2 12 12 21l295 221q16 12 47 12h154q12 0 8 -11q-2 -5 -6 -7l-289 -213q-8 -8 -2 -10h907q8 0 13 10l110 627q0 10 12 10h111q8 0 8 -10l-135 -758
q0 -10 -10 -10z" />
    <glyph glyph-name="partialdiff" unicode="&#x2202;" 
d="M76 96l465 625l-246 625zM594 721l244 -623l219 1245q-373 -497 -463 -622zM94 49h709l-246 625zM575 768l465 627h-708zM858 0h-842q-8 0 -8 10l252 1422q0 10 12 10h842q8 0 8 -10l-252 -1422q0 -10 -12 -10z" />
    <glyph glyph-name="Delta" unicode="&#x2206;" horiz-adv-x="1454" 
d="M326 174h682q14 0 14 14l-154 1051q-2 8 -9 8t-11 -8l-529 -1053q-8 -12 7 -12zM1196 0h-1120q-8 0 -8 10l26 150q4 12 10 18l648 1254q4 10 14 10h260q4 0 8 -10l199 -1252q0 -2 2 -9t0 -11l-27 -150q0 -10 -12 -10z" />
    <glyph glyph-name="product" unicode="&#x220f;" 
d="M76 96l465 625l-246 625zM594 721l244 -623l219 1245q-373 -497 -463 -622zM94 49h709l-246 625zM575 768l465 627h-708zM858 0h-842q-8 0 -8 10l252 1422q0 10 12 10h842q8 0 8 -10l-252 -1422q0 -10 -12 -10z" />
    <glyph glyph-name="summation" unicode="&#x2211;" 
d="M76 96l465 625l-246 625zM594 721l244 -623l219 1245q-373 -497 -463 -622zM94 49h709l-246 625zM575 768l465 627h-708zM858 0h-842q-8 0 -8 10l252 1422q0 10 12 10h842q8 0 8 -10l-252 -1422q0 -10 -12 -10z" />
    <glyph glyph-name="minus" unicode="&#x2212;" horiz-adv-x="1284" 
d="M1143 426h-1016q-12 0 -8 10l28 164q0 10 13 10h1016q8 0 8 -10l-29 -164q-4 -10 -12 -10z" />
    <glyph glyph-name="uni2215" unicode="&#x2215;" horiz-adv-x="1314" 
d="M1135 1442h110q16 0 4 -17l-1122 -1421q-4 -4 -10 -4h-107q-16 0 -4 16l1118 1422q4 4 11 4z" />
    <glyph glyph-name="uni2219" unicode="&#x2219;" horiz-adv-x="512" 
d="M418 565h-305q-12 0 -9 10l54 310q4 10 12 10h305q12 0 8 -10l-53 -310q-4 -10 -12 -10z" />
    <glyph glyph-name="radical" unicode="&#x221a;" horiz-adv-x="1437" 
d="M389 862h-188q-8 0 -8 10l28 154q0 10 10 10h316q6 0 10 -10l84 -823q2 -8 9 -8t12 8l737 1614q4 10 10 10h152q14 0 10 -10l-823 -1807q-4 -10 -13 -10h-239q-7 0 -11 10l-84 842q-2 10 -12 10z" />
    <glyph glyph-name="infinity" unicode="&#x221e;" horiz-adv-x="1875" 
d="M530 913q-91 0 -171 -66q-79 -67 -95 -163t38 -164t140 -68t152 50l268 176q8 6 2 16l-194 174q-49 45 -140 45zM1420 453q83 -1 163 67t96 164t-39 162t-149 67q-94 0 -152 -43l-260 -176q-10 -8 -2 -16l199 -174q61 -51 144 -51zM428 309q-156 0 -244 110
q-88 109 -59 265t155 264t273 109q147 0 229 -82l199 -201q6 -10 20 0l259 201q106 82 256 82t241 -109q89 -108 61 -264t-154 -266t-282 -109q-118 0 -206 82l-209 193q-6 10 -21 0l-282 -193q-125 -82 -236 -82z" />
    <glyph glyph-name="integral" unicode="&#x222b;" 
d="M76 96l465 625l-246 625zM594 721l244 -623l219 1245q-373 -497 -463 -622zM94 49h709l-246 625zM575 768l465 627h-708zM858 0h-842q-8 0 -8 10l252 1422q0 10 12 10h842q8 0 8 -10l-252 -1422q0 -10 -12 -10z" />
    <glyph glyph-name="approxequal" unicode="&#x2248;" horiz-adv-x="1087" 
d="M800 639q-98 0 -237 72q-139 71 -174 71t-63 -22t-31 -49l-12 -62q0 -10 -11 -10l-147 41q-10 4 -8 10l8 51q16 97 96 159q79 62 179 62t237 -72q137 -73 174 -73t65 22t31 48l13 65q0 10 10 11l147 -41q10 -5 8 -11l-10 -55q-16 -92 -96 -154q-81 -62 -179 -63zM722 197
q-100 -1 -238 71t-173 72t-63 -22t-31 -50l-12 -61q0 -10 -12 -10l-146 41q-10 4 -8 10l8 51q16 97 96 159q79 62 179 62t237 -73t174 -73t65 22t31 48l11 66q4 10 12 10l147 -41q9 -2 9 -10l-11 -55q-16 -92 -96 -154t-179 -63z" />
    <glyph glyph-name="notequal" unicode="&#x2260;" horiz-adv-x="1087" 
d="M135 0h-149q-13 0 -9 14l158 164q4 6 2 12t-8 7h-92q-12 0 -8 10l32 184q0 10 13 10h268q6 0 12 9l205 211q4 6 2 12t-8 6h-438q-8 0 -9 10l33 187q4 10 13 10h616q6 0 14 8l170 176q2 6 11 6h153q6 0 9 -5t-1 -9l-155 -160q-10 -16 6 -16h92q12 0 8 -10l-33 -187
q0 -10 -12 -10h-266q-8 0 -19 -10l-204 -211q-10 -16 6 -17h442q8 0 8 -10l-32 -184q-4 -10 -13 -10h-616l-14 -9l-175 -182q-6 -6 -12 -6z" />
    <glyph glyph-name="lessequal" unicode="&#x2264;" horiz-adv-x="1071" 
d="M897 0h-915q-10 0 -11 10l29 154q0 10 10 10h918q8 0 8 -10l-29 -154q0 -10 -10 -10zM111 803l39 229q4 8 8 10l987 396q16 4 12 -11l-27 -159q-2 -6 -8 -8l-821 -336q-12 -6 -2 -13l705 -327q4 -2 4 -9l-29 -159q0 -18 -16 -10l-848 387q-8 4 -4 10z" />
    <glyph glyph-name="greaterequal" unicode="&#x2265;" horiz-adv-x="1071" 
d="M893 0h-916q-10 0 -10 10l29 154q0 10 10 10h918q8 0 8 -10l-29 -154q0 -10 -10 -10zM1083 1032l-18 -114l-21 -115q-4 -8 -8 -10l-987 -387q-12 -6 -12 10l29 159q0 4 8 9l819 327q4 3 5 7t-3 6l-702 336q-6 4 -5 8l27 159q4 18 16 11l848 -396q8 -4 4 -10z" />
    <glyph glyph-name="lozenge" unicode="&#x25ca;" 
d="M76 96l465 625l-246 625zM594 721l244 -623l219 1245q-373 -497 -463 -622zM94 49h709l-246 625zM575 768l465 627h-708zM858 0h-842q-8 0 -8 10l252 1422q0 10 12 10h842q8 0 8 -10l-252 -1422q0 -10 -12 -10z" />
    <glyph glyph-name="commaaccent" unicode="&#xf6c3;" horiz-adv-x="524" 
d="M240 406h-90q-10 0 -11 10l45 250q4 10 13 10h245q12 0 9 -10l-43 -248q-23 -117 -107 -191t-197 -73q-12 0 -8 10l19 112q4 10 12 11q35 -1 74 29t47 79q0 11 -8 11z" />
    <glyph glyph-name="apple" unicode="&#xf8ff;" horiz-adv-x="1409" 
d="M858 0q-43 0 -107 30q-65 30 -109 30t-114 -27q-74 -33 -124 -33t-97 39q-117 96 -167 275q-50 178 -19 354t162 308t303 132q49 0 126 -31q76 -31 106 -31t122 32q92 30 158 30t136 -35q71 -35 124 -108q-199 -125 -228 -287q-16 -96 25 -175t129 -120
q-135 -211 -230 -297t-196 -86zM1171 1438q-29 -170 -133 -258q-100 -90 -211 -90q-2 2 -4 2q23 137 125 231q112 97 223 115z" />
    <glyph glyph-name="f_f" unicode="&#xfb00;" horiz-adv-x="1443" 
d="M1513 1268h-135q-46 0 -76 -28t-38 -75l-21 -118q-4 -10 8 -11h222q8 0 8 -10l-25 -133q0 -10 -12 -10h-221q-10 0 -11 -11l-153 -862q0 -10 -12 -10h-175q-8 0 -8 10l154 862q0 10 -10 11h-183q-8 0 -8 10l25 133q0 10 12 10h182q8 0 13 11l26 153q43 248 332 242h137
q8 0 8 -10l-28 -154q0 -10 -11 -10zM817 1268h-135q-45 0 -76 -28t-39 -75l-20 -118q-4 -10 8 -11h221q8 0 8 -10l-24 -133q0 -10 -12 -10h-222q-10 0 -10 -11l-154 -862q0 -10 -12 -10h-174q-8 0 -8 10l154 862q0 10 -11 11h-182q-8 0 -8 10l24 133q0 10 13 10h182
q8 0 12 11l27 153q43 248 332 242h137q8 0 8 -10l-29 -154q0 -10 -10 -10z" />
    <glyph glyph-name="f_f_i" unicode="&#xfb03;" horiz-adv-x="1937" 
d="M1679 1206q-8 0 -8 11l39 215q0 10 12 10h215q9 0 9 -10l-39 -215q0 -10 -13 -11h-215zM1661 0h-174q-8 0 -8 10l180 1016q0 10 12 10h174q8 0 8 -10l-180 -1016q0 -10 -12 -10zM1513 1268h-135q-46 0 -76 -28t-38 -75l-21 -118q-4 -10 8 -11h222q8 0 8 -10l-25 -133
q0 -10 -12 -10h-221q-10 0 -11 -11l-153 -862q0 -10 -12 -10h-175q-8 0 -8 10l154 862q0 10 -10 11h-183q-8 0 -8 10l25 133q0 10 12 10h182q8 0 13 11l26 153q43 248 332 242h137q8 0 8 -10l-28 -154q0 -10 -11 -10zM817 1268h-135q-45 0 -76 -28t-39 -75l-20 -118
q-4 -10 8 -11h221q8 0 8 -10l-24 -133q0 -10 -12 -10h-222q-10 0 -10 -11l-154 -862q0 -10 -12 -10h-174q-8 0 -8 10l154 862q0 10 -11 11h-182q-8 0 -8 10l24 133q0 10 13 10h182q8 0 12 11l27 153q43 248 332 242h137q8 0 8 -10l-29 -154q0 -10 -10 -10z" />
    <glyph glyph-name="f_f_l" unicode="&#xfb04;" horiz-adv-x="1925" 
d="M1651 0h-174q-8 0 -9 10l252 1422q0 10 13 10h174q8 0 8 -10l-252 -1422q0 -10 -12 -10zM1513 1268h-135q-46 0 -76 -28t-38 -75l-21 -118q-4 -10 8 -11h222q8 0 8 -10l-25 -133q0 -10 -12 -10h-221q-10 0 -11 -11l-153 -862q0 -10 -12 -10h-175q-8 0 -8 10l154 862
q0 10 -10 11h-183q-8 0 -8 10l25 133q0 10 12 10h182q8 0 13 11l26 153q43 248 332 242h137q8 0 8 -10l-28 -154q0 -10 -11 -10zM817 1268h-135q-45 0 -76 -28t-39 -75l-20 -118q-4 -10 8 -11h221q8 0 8 -10l-24 -133q0 -10 -12 -10h-222q-10 0 -10 -11l-154 -862
q0 -10 -12 -10h-174q-8 0 -8 10l154 862q0 10 -11 11h-182q-8 0 -8 10l24 133q0 10 13 10h182q8 0 12 11l27 153q43 248 332 242h137q8 0 8 -10l-29 -154q0 -10 -10 -10z" />
    <glyph glyph-name="longs_t" unicode="&#xfb05;" 
d="M76 96l465 625l-246 625zM594 721l244 -623l219 1245q-373 -497 -463 -622zM94 49h709l-246 625zM575 768l465 627h-708zM858 0h-842q-8 0 -8 10l252 1422q0 10 12 10h842q8 0 8 -10l-252 -1422q0 -10 -12 -10z" />
    <glyph glyph-name="parenleft.001" 
d="M76 96l465 625l-246 625zM594 721l244 -623l219 1245q-373 -497 -463 -622zM94 49h709l-246 625zM575 768l465 627h-708zM858 0h-842q-8 0 -8 10l252 1422q0 10 12 10h842q8 0 8 -10l-252 -1422q0 -10 -12 -10z" />
    <glyph glyph-name="parenright.001" 
d="M76 96l465 625l-246 625zM594 721l244 -623l219 1245q-373 -497 -463 -622zM94 49h709l-246 625zM575 768l465 627h-708zM858 0h-842q-8 0 -8 10l252 1422q0 10 12 10h842q8 0 8 -10l-252 -1422q0 -10 -12 -10z" />
    <glyph glyph-name="registered.001" 
d="M76 96l465 625l-246 625zM594 721l244 -623l219 1245q-373 -497 -463 -622zM94 49h709l-246 625zM575 768l465 627h-708zM858 0h-842q-8 0 -8 10l252 1422q0 10 12 10h842q8 0 8 -10l-252 -1422q0 -10 -12 -10z" />
    <glyph glyph-name="copyright.001" 
d="M76 96l465 625l-246 625zM594 721l244 -623l219 1245q-373 -497 -463 -622zM94 49h709l-246 625zM575 768l465 627h-708zM858 0h-842q-8 0 -8 10l252 1422q0 10 12 10h842q8 0 8 -10l-252 -1422q0 -10 -12 -10z" />
    <glyph glyph-name="zero.tnum" horiz-adv-x="1320" 
d="M803 1288q-183 0 -287 -142t-154 -425t6 -426q54 -143 236 -143t288 144t155 426t-7 424t-237 142zM832 1462q548 0 417 -742t-676 -743q-551 0 -417 744q128 741 676 741z" />
    <glyph glyph-name="two.tnum" horiz-adv-x="1320" 
d="M816 1288q-122 0 -208 -73t-104 -168q0 -10 -12 -11h-175q-8 0 -8 11q33 182 181 299q148 116 356 116t311 -125q104 -125 72 -309q-17 -90 -73 -177t-104 -134t-84 -77t-42 -34l-525 -416q-4 -2 -3 -9t10 -7h659q12 0 8 -10l-26 -154q-4 -10 -13 -10h-925q-13 0 -9 10
l25 144q6 20 14 26l666 555q207 168 227 293q14 96 -41 178t-177 82z" />
    <glyph glyph-name="three.tnum" horiz-adv-x="1320" 
d="M616 829h72q117 0 201 65t101 161t-44 165q-61 70 -174 68t-200 -76t-101 -165q-4 -10 -12 -11h-174q-12 0 -9 11q30 181 178 297t348 117t306 -113t76 -291q-14 -88 -70 -159q-88 -112 -184 -140q-14 0 -11 -16q1 -5 7 -5q72 -25 135 -115t39 -233q-33 -182 -185 -296
q-153 -113 -373 -113t-322 117q-101 118 -70 292q0 10 12 10h174q8 0 8 -10q-16 -92 41 -164q57 -71 183 -71t224 67q97 67 115 177t-52 184q-71 74 -198 73h-71q-12 0 -8 11l26 153q4 10 12 10z" />
    <glyph glyph-name="four.tnum" horiz-adv-x="1320" 
d="M350 504h441q8 0 12 10l106 602q0 10 -9 8t-11 -6l-547 -600q-4 -4 -1 -9t9 -5zM979 1442h172q8 0 8 -10l-162 -918q-4 -10 9 -10h227q8 0 8 -10l-27 -154q-4 -10 -12 -10h-227q-8 0 -12 -11l-56 -309q0 -10 -12 -10h-174q-8 0 -8 10l55 309q4 10 -8 11h-674q-12 0 -8 10
l24 143q4 23 13 31l841 918q9 10 23 10z" />
    <glyph glyph-name="five.tnum" horiz-adv-x="1320" 
d="M1219 1442q12 0 8 -10l-27 -154q-4 -10 -12 -10h-602q-8 0 -13 -11l-104 -337q-2 -6 1 -11t15 4q121 88 265 88q222 0 336 -140q114 -139 73 -373t-197 -371t-393 -137q-180 0 -284 80t-124 164q-29 122 -21 149q9 26 18 26h188q12 -1 7 -21t4 -56t33 -76q24 -39 78 -66
t132 -26q135 0 237 92q101 92 128 244t-43 244q-70 93 -203 93q-199 0 -313 -141q-10 -10 -25 -10h-160q-12 0 -8 10l221 741q4 14 17 15h768z" />
    <glyph glyph-name="six.tnum" horiz-adv-x="1320" 
d="M597 154q151 0 244 90t121 246q28 157 -34 247t-212 90q-151 0 -243 -90t-120 -248q-27 -159 33 -247t211 -88zM768 993q211 0 324 -139q112 -140 72 -366t-202 -367t-397 -141q-236 0 -342 141t-65 368q31 170 121 297l454 646q8 10 17 10h180q16 0 8 -10l-311 -455
q-4 -6 -2 -10t14 3t56 15q45 8 73 8z" />
    <glyph glyph-name="seven.tnum" horiz-adv-x="1320" 
d="M555 0h-188q-10 0 -7 10l705 1247q4 10 -6 11h-715q-10 0 -10 10l28 154q0 10 13 10h911q8 0 8 -10l-24 -138q-4 -25 -13 -37l-688 -1247q-4 -10 -14 -10z" />
    <glyph glyph-name="eight.tnum" horiz-adv-x="1320" 
d="M721 829q117 0 201 65t101 161t-44 165q-61 68 -178 68t-201 -68t-101 -165q-17 -96 44 -161t178 -65zM602 154q125 0 222 68q98 68 116 176q18 110 -52 184q-71 74 -198 74t-224 -74q-98 -74 -116 -184t54 -177q73 -67 198 -67zM571 -20q-225 0 -338 114t-79 295
q18 102 78 183q96 129 219 165q14 0 11 16q-1 5 -7 5q-57 18 -115 96q-57 78 -37 203q31 176 178 291q147 114 350 114t310 -114q106 -115 76 -291q-13 -88 -69 -159q-87 -111 -185 -140q-15 0 -12 -16q1 -5 7 -5q74 -25 137 -112q62 -88 38 -236q-33 -181 -185 -295
t-377 -114z" />
    <glyph glyph-name="nine.tnum" horiz-adv-x="1320" 
d="M683 612q151 0 243 90t121 248q27 158 -33 248t-212 90q-151 0 -244 -90t-121 -248q-29 -158 33 -248t213 -90zM631 446q-211 0 -324 140t-74 365q39 227 202 369t399 142t346 -142t71 -370q-27 -150 -131 -297l-454 -645q-8 -10 -17 -10h-180q-16 0 -8 10l311 455
q4 6 2 10t-8 0q-53 -27 -135 -27z" />
    <glyph glyph-name="registered.002" horiz-adv-x="1650" 
d="M732 63q271 0 499 194q227 194 274 465t-111 466q-159 194 -430 194t-498 -194q-226 -195 -273 -466t111 -465t428 -194zM719 0q-195 0 -342 97t-214 264t-32 362q53 297 300 509t544 212t471 -212t121 -510t-302 -510t-546 -212zM991 1106h-321l-60 -334h322
q66 0 123 48t69 118t-26 119q-39 49 -107 49zM1010 268q-6 0 -11 6l-104 394h-303l-70 -389q0 -10 -10 -11h-82q-10 0 -10 11q158 901 160 915t12 14h416q113 0 176 -78t46 -176q-18 -98 -80 -169t-144 -103l110 -399q4 -14 -12 -15h-94z" />
    <glyph glyph-name="copyright.002" horiz-adv-x="1650" 
d="M732 63q271 0 499 194q227 194 274 465t-111 466q-159 194 -430 194t-498 -194q-226 -195 -273 -466t111 -465t428 -194zM719 0q-195 0 -342 97t-214 264t-32 362q53 297 300 509t544 212t471 -212t121 -510t-302 -510t-546 -212zM915 1135q-162 0 -262 -117t-131 -293
q-32 -176 28 -293t222 -117q82 0 138 22t116 83q10 14 16 14h91q12 0 8 -14q-53 -90 -157 -144t-228 -55q-205 0 -290 150q-85 151 -49 355t173 354t342 149q123 0 208 -54t107 -145q0 -14 -12 -14h-90q-2 0 -12 14q-37 61 -87 83t-131 22z" />
    <glyph glyph-name="one.tnum" horiz-adv-x="1320" 
d="M1083 0h-1017q-8 0 -9 10l29 154q0 10 10 10h393q12 0 13 10l139 791q6 29 -10 45t-41 16h-314q-12 0 -8 11l25 143q0 10 12 10h254q51 0 93 34t50 85l21 113q0 10 12 10h174q8 0 9 -10l-222 -1248q0 -10 9 -10h409q10 0 10 -10l-28 -154q-1 -10 -13 -10z" />
    <glyph glyph-name="dollar.plf" 
d="M76 96l465 625l-246 625zM594 721l244 -623l219 1245q-373 -497 -463 -622zM94 49h709l-246 625zM575 768l465 627h-708zM858 0h-842q-8 0 -8 10l252 1422q0 10 12 10h842q8 0 8 -10l-252 -1422q0 -10 -12 -10z" />
    <glyph glyph-name="cent.plf" 
d="M76 96l465 625l-246 625zM594 721l244 -623l219 1245q-373 -497 -463 -622zM94 49h709l-246 625zM575 768l465 627h-708zM858 0h-842q-8 0 -8 10l252 1422q0 10 12 10h842q8 0 8 -10l-252 -1422q0 -10 -12 -10z" />
    <glyph glyph-name="sterling.plf" 
d="M76 96l465 625l-246 625zM594 721l244 -623l219 1245q-373 -497 -463 -622zM94 49h709l-246 625zM575 768l465 627h-708zM858 0h-842q-8 0 -8 10l252 1422q0 10 12 10h842q8 0 8 -10l-252 -1422q0 -10 -12 -10z" />
    <glyph glyph-name="yen.plf" 
d="M76 96l465 625l-246 625zM594 721l244 -623l219 1245q-373 -497 -463 -622zM94 49h709l-246 625zM575 768l465 627h-708zM858 0h-842q-8 0 -8 10l252 1422q0 10 12 10h842q8 0 8 -10l-252 -1422q0 -10 -12 -10z" />
    <glyph glyph-name="florin.plf" 
d="M76 96l465 625l-246 625zM594 721l244 -623l219 1245q-373 -497 -463 -622zM94 49h709l-246 625zM575 768l465 627h-708zM858 0h-842q-8 0 -8 10l252 1422q0 10 12 10h842q8 0 8 -10l-252 -1422q0 -10 -12 -10z" />
    <glyph glyph-name="Euro.plf" 
d="M76 96l465 625l-246 625zM594 721l244 -623l219 1245q-373 -497 -463 -622zM94 49h709l-246 625zM575 768l465 627h-708zM858 0h-842q-8 0 -8 10l252 1422q0 10 12 10h842q8 0 8 -10l-252 -1422q0 -10 -12 -10z" />
    <glyph glyph-name="currency.plf" 
d="M76 96l465 625l-246 625zM594 721l244 -623l219 1245q-373 -497 -463 -622zM94 49h709l-246 625zM575 768l465 627h-708zM858 0h-842q-8 0 -8 10l252 1422q0 10 12 10h842q8 0 8 -10l-252 -1422q0 -10 -12 -10z" />
    <glyph glyph-name="numbersign.plf" 
d="M76 96l465 625l-246 625zM594 721l244 -623l219 1245q-373 -497 -463 -622zM94 49h709l-246 625zM575 768l465 627h-708zM858 0h-842q-8 0 -8 10l252 1422q0 10 12 10h842q8 0 8 -10l-252 -1422q0 -10 -12 -10z" />
    <glyph glyph-name="breve.case" horiz-adv-x="524" 
d="M539 1839h129q8 0 8 -10q-20 -117 -100 -171t-175 -54q-94 0 -153 54t-39 171q0 10 12 10h127q8 0 8 -10q-6 -39 17 -59t55 -19q84 0 98 78q1 10 13 10z" />
    <glyph glyph-name="caron.case" horiz-adv-x="524" 
d="M530 1839h117q16 0 8 -14l-125 -213q-4 -8 -16 -8h-227q-8 0 -11 8l-53 213q-4 14 15 14h116q12 0 17 -8l47 -84q8 -14 22 0l72 84q8 8 18 8z" />
    <glyph glyph-name="circumflex.case" horiz-adv-x="524" 
d="M608 1604h-119q-8 0 -14 8l-45 84q-8 18 -22 0l-74 -84q-6 -8 -19 -8h-118q-16 0 -7 14l127 213q6 8 13 8h229q10 0 12 -8l52 -213q3 -14 -15 -14z" />
    <glyph glyph-name="acute.case" horiz-adv-x="524" 
d="M420 1604h-117q-16 0 -6 14l123 207q10 14 24 14h179q16 0 6 -14l-183 -207q-14 -14 -26 -14z" />
    <glyph glyph-name="macron.case" horiz-adv-x="524" 
d="M657 1604h-503q-6 0 -7 10l23 119q0 10 8 10h504q10 0 10 -10l-22 -119q-1 -10 -13 -10z" />
    <glyph glyph-name="dieresis.case" horiz-adv-x="524" 
d="M725 1604h-215q-10 0 -10 10l39 215q0 10 12 10h215q8 0 8 -10l-39 -215q0 -10 -10 -10zM225 1604h-215q-10 0 -10 10l39 215q0 10 12 10h215q8 0 8 -10l-38 -215q0 -10 -11 -10z" />
    <glyph glyph-name="grave.case" horiz-adv-x="524" 
d="M539 1604h-117q-14 0 -19 14l-112 207q-4 14 14 14h178q16 0 17 -14l53 -207q4 -14 -14 -14z" />
    <glyph glyph-name="dotaccent.case" horiz-adv-x="524" 
d="M496 1604h-265q-8 0 -8 10l47 270q4 10 13 10h264q12 0 8 -10l-47 -270q0 -10 -12 -10z" />
    <glyph glyph-name="ring.case" horiz-adv-x="524" 
d="M434 1778q-38 0 -70 -27t-39 -65t15 -66q22 -27 62 -27q38 0 69 27t39 66q6 40 -16 66t-60 26zM240 1686q12 74 73 126t135 54q74 0 118 -53t31 -127t-75 -126t-137 -52q-74 0 -117 52t-28 126z" />
    <glyph glyph-name="tilde.case" horiz-adv-x="524" 
d="M633 1837h123q8 0 8 -10l-10 -49q-12 -66 -72 -120t-168 -54q-60 0 -122 47t-76 47q-68 0 -82 -74q-4 -20 -15 -20h-123q-8 0 -8 10l8 47q14 68 74 122t154 54q95 0 174 -71q27 -24 40 -24q68 2 80 74q4 20 15 21z" />
    <glyph glyph-name="hungarumlaut.case" horiz-adv-x="524" 
d="M666 1556h-224q-6 0 -6 11l107 270q4 10 14 10h223q10 0 6 -10l-106 -270q0 -11 -14 -11zM215 1556h-221q-6 0 -6 11l104 270q4 10 14 10h224q10 0 6 -10l-107 -270q0 -11 -14 -11z" />
    <glyph glyph-name="caron.salt" horiz-adv-x="524" 
d="M532 1839h117q16 0 8 -14l-125 -213q-4 -8 -16 -8h-227q-8 0 -10 8l-54 213q-4 14 15 14h116q12 0 17 -8l47 -84q8 -14 22 0l72 84q8 8 18 8z" />
    <glyph glyph-name="commaaccent.salt" horiz-adv-x="51" 
 />
    <glyph glyph-name="_0127" 
d="M76 96l465 625l-246 625zM594 721l244 -623l219 1245q-373 -497 -463 -622zM94 49h709l-246 625zM575 768l465 627h-708zM858 0h-842q-8 0 -8 10l252 1422q0 10 12 10h842q8 0 8 -10l-252 -1422q0 -10 -12 -10z" />
    </font>
</defs>
</svg>
